<svg width="3496" height="2031" xmlns="http://www.w3.org/2000/svg" xmlns:xlink="http://www.w3.org/1999/xlink" overflow="hidden"><defs><clipPath id="clip0"><rect x="519" y="389" width="3496" height="2031"/></clipPath></defs><g clip-path="url(#clip0)" transform="translate(-519 -389)"><path d="M734 390 1083 390 1136 443 1083 496 734 496Z" fill="#C8161D" fill-rule="evenodd"/><text fill="#FFFFFF" font-family="Meiryo,Meiryo_MSFontService,sans-serif" font-weight="700" font-size="58" transform="matrix(1 0 0 1 863.188 457)">面談</text><path d="M1181 390 1583 390 1636 443 1583 496 1181 496Z" fill="#C8161D" fill-rule="evenodd"/><text fill="#FFFFFF" font-family="Meiryo,Meiryo_MSFontService,sans-serif" font-weight="700" font-size="58" transform="matrix(1 0 0 1 1278.04 457)">意向表明</text><path d="M1695 389 2216.5 389 2270 442.5 2216.5 496 1695 496Z" fill="#C8161D" fill-rule="evenodd"/><text fill="#FFFFFF" font-family="Meiryo,Meiryo_MSFontService,sans-serif" font-weight="700" font-size="58" transform="matrix(1 0 0 1 1851.93 456)">基本合意</text><path d="M2326 389 2873.5 389 2927 442.5 2873.5 496 2326 496Z" fill="#C8161D" fill-rule="evenodd"/><text fill="#FFFFFF" font-family="Meiryo,Meiryo_MSFontService,sans-serif" font-weight="700" font-size="58" transform="matrix(1 0 0 1 2567.3 456)">DD</text><path d="M3001 391 3402.5 391 3456 444.5 3402.5 498 3001 498Z" fill="#C8161D" fill-rule="evenodd"/><text fill="#FFFFFF" font-family="Meiryo,Meiryo_MSFontService,sans-serif" font-weight="700" font-size="58" transform="matrix(1 0 0 1 3098.03 459)">最終契約</text><path d="M3487 389 3919.5 389 3973 442.5 3919.5 496 3487 496Z" fill="#C8161D" fill-rule="evenodd"/><text fill="#FFFFFF" font-family="Meiryo,Meiryo_MSFontService,sans-serif" font-weight="700" font-size="58" transform="matrix(1 0 0 1 3541.07 456)">クロージング</text><rect x="719" y="528" width="3296" height="1892" fill="#F2F2F2"/><path d="M740 743.501C740 720.028 759.028 701 782.501 701L1042.5 701C1065.97 701 1085 720.028 1085 743.501L1085 913.499C1085 936.972 1065.97 956 1042.5 956L782.501 956C759.028 956 740 936.972 740 913.499Z" fill="#4472C4" fill-rule="evenodd"/><text fill="#FFFFFF" font-family="Meiryo,Meiryo_MSFontService,sans-serif" font-weight="700" font-size="50" transform="matrix(1 0 0 1 812.875 840)">面談実施</text><path d="M742 1923.67C742 1900.1 761.103 1881 784.668 1881L1043.33 1881C1066.9 1881 1086 1900.1 1086 1923.67L1086 2094.33C1086 2117.9 1066.9 2137 1043.33 2137L784.668 2137C761.103 2137 742 2117.9 742 2094.33Z" fill="#70AD47" fill-rule="evenodd"/><text fill="#FFFFFF" font-family="Meiryo,Meiryo_MSFontService,sans-serif" font-weight="700" font-size="50" transform="matrix(1 0 0 1 814.189 2021)">面談実施</text><path d="M1181 1923.67C1181 1900.1 1200.1 1881 1223.67 1881L1546.33 1881C1569.9 1881 1589 1900.1 1589 1923.67L1589 2094.33C1589 2117.9 1569.9 2137 1546.33 2137L1223.67 2137C1200.1 2137 1181 2117.9 1181 2094.33Z" fill="#70AD47" fill-rule="evenodd"/><text fill="#FFFFFF" font-family="Meiryo,Meiryo_MSFontService,sans-serif" font-weight="700" font-size="50" transform="matrix(1 0 0 1 1235.13 1991)">意向表明書の<tspan font-size="50" x="99.6875" y="60">提出</tspan></text><path d="M1086 2007.85 1157.7 2007.85 1157.7 2010.15 1086 2010.15ZM1153.11 1995.25 1180.61 2009 1153.11 2022.75Z" fill="#002060"/><path d="M1383.22 1881 1379.94 978.921 1382.23 978.912 1385.51 1880.99ZM1367.35 983.55 1381 956 1394.85 983.45Z" fill="#002060"/><path d="M1696 743.501C1696 720.028 1715.03 701 1738.5 701L2183.5 701C2206.97 701 2226 720.028 2226 743.501L2226 913.499C2226 936.972 2206.97 956 2183.5 956L1738.5 956C1715.03 956 1696 936.972 1696 913.499Z" fill="#4472C4" fill-rule="evenodd"/><text fill="#FFFFFF" font-family="Meiryo,Meiryo_MSFontService,sans-serif" font-weight="700" font-size="50" transform="matrix(1 0 0 1 1761.3 840)">基本合意書を締結</text><path d="M1585 826.854 1672.52 826.855 1672.52 829.146 1585 829.146ZM1667.93 814.25 1695.43 828 1667.93 841.75Z" fill="#002060"/><path d="M1962.15 978.917 1962.15 1858.08 1959.85 1858.08 1959.85 978.917ZM1947.25 983.5 1961 956 1974.75 983.5ZM1974.75 1853.5 1961 1881 1947.25 1853.5Z" fill="#002060"/><path d="M2226 826.854 2299.39 826.855 2299.39 829.146 2226 829.146ZM2294.81 814.25 2322.31 828 2294.81 841.75Z" fill="#002060"/><path d="M2323 1923.67C2323 1900.1 2342.1 1881 2365.67 1881L2860.33 1881C2883.9 1881 2903 1900.1 2903 1923.67L2903 2094.33C2903 2117.9 2883.9 2137 2860.33 2137L2365.67 2137C2342.1 2137 2323 2117.9 2323 2094.33Z" fill="#70AD47" fill-rule="evenodd"/><text fill="#FFFFFF" font-family="Meiryo,Meiryo_MSFontService,sans-serif" font-weight="700" font-size="50" transform="matrix(1 0 0 1 2388.7 1991)">デューデリジェンス<tspan font-size="50" x="85.0896" y="60">（</tspan><tspan font-size="50" x="134.933" y="60">DD</tspan><tspan font-size="50" x="213.996" y="60">）開始</tspan></text><path d="M2613.18 978.914 2614.44 1858.08 2612.15 1858.08 2610.89 978.917ZM2598.29 983.52 2612 956 2625.79 983.48ZM2627.04 1853.48 2613.33 1881 2599.54 1853.52Z" fill="#002060"/><path d="M2901 826.854 2985.23 826.855 2985.23 829.146 2901 829.146ZM2980.64 814.25 3008.14 828 2980.64 841.75Z" fill="#002060"/><path d="M3009 1923.67C3009 1900.1 3028.1 1881 3051.67 1881L3384.33 1881C3407.9 1881 3427 1900.1 3427 1923.67L3427 2094.33C3427 2117.9 3407.9 2137 3384.33 2137L3051.67 2137C3028.1 2137 3009 2117.9 3009 2094.33Z" fill="#70AD47" fill-rule="evenodd"/><text fill="#FFFFFF" font-family="Meiryo,Meiryo_MSFontService,sans-serif" font-weight="700" font-size="50" transform="matrix(1 0 0 1 3068.47 1991)">最終契約書の<tspan font-size="50" x="99.6875" y="60">締結</tspan></text><path d="M3417.02 822.854 3465.89 823.871 3465.84 826.162 3416.98 825.146ZM3461.57 811.174 3488.78 825.493 3461 838.668Z" fill="#002060"/><path d="M2226 2007.85 2300.72 2007.85 2300.72 2010.15 2226 2010.15ZM2296.14 1995.25 2323.64 2009 2296.14 2022.75Z" fill="#002060"/><path d="M2903 2007.85 2985.9 2007.85 2985.9 2010.15 2903 2010.15ZM2981.31 1995.25 3008.81 2009 2981.31 2022.75Z" fill="#002060"/><path d="M0.0621656-1.14415 36.7593 0.849746 36.635 3.13804-0.0621656 1.14415ZM32.8666-11.9845 59.5801 3.2372 31.3746 15.475Z" fill="#002060" transform="matrix(1 0 0 -1 3427 2009.24)"/><path d="M914.178 978.917 915.427 1858.08 913.135 1858.08 911.887 978.92ZM899.289 983.519 913 956 926.789 983.48ZM928.025 1853.48 914.314 1881 900.525 1853.52Z" fill="#002060"/><path d="M1177 743.501C1177 720.028 1196.03 701 1219.5 701L1542.5 701C1565.97 701 1585 720.028 1585 743.501L1585 913.499C1585 936.972 1565.97 956 1542.5 956L1219.5 956C1196.03 956 1177 936.972 1177 913.499Z" fill="#4472C4" fill-rule="evenodd"/><text fill="#FFFFFF" font-family="Meiryo,Meiryo_MSFontService,sans-serif" font-weight="700" font-size="50" transform="matrix(1 0 0 1 1231.77 811)">意向表明書の<tspan font-size="50" x="49.8438" y="60">内容確認</tspan></text><path d="M1696 1923.67C1696 1900.1 1715.1 1881 1738.67 1881L2183.33 1881C2206.9 1881 2226 1900.1 2226 1923.67L2226 2094.33C2226 2117.9 2206.9 2137 2183.33 2137L1738.67 2137C1715.1 2137 1696 2117.9 1696 2094.33Z" fill="#70AD47" fill-rule="evenodd"/><text fill="#FFFFFF" font-family="Meiryo,Meiryo_MSFontService,sans-serif" font-weight="700" font-size="50" transform="matrix(1 0 0 1 1761.3 2021)">基本合意書を締結</text><path d="M2322 743.501C2322 720.028 2341.03 701 2364.5 701L2858.5 701C2881.97 701 2901 720.028 2901 743.501L2901 913.499C2901 936.972 2881.97 956 2858.5 956L2364.5 956C2341.03 956 2322 936.972 2322 913.499Z" fill="#4472C4" fill-rule="evenodd"/><text fill="#FFFFFF" font-family="Meiryo,Meiryo_MSFontService,sans-serif" font-weight="700" font-size="50" transform="matrix(1 0 0 1 2387.37 811)">デューデリジェンス<tspan font-size="50" x="85.0896" y="60">（</tspan><tspan font-size="50" x="134.933" y="60">DD</tspan><tspan font-size="50" x="213.996" y="60">）対応</tspan></text><path d="M3009 743.501C3009 720.028 3028.03 701 3051.5 701L3384.5 701C3407.97 701 3427 720.028 3427 743.501L3427 913.499C3427 936.972 3407.97 956 3384.5 956L3051.5 956C3028.03 956 3009 936.972 3009 913.499Z" fill="#4472C4" fill-rule="evenodd"/><text fill="#FFFFFF" font-family="Meiryo,Meiryo_MSFontService,sans-serif" font-weight="700" font-size="50" transform="matrix(1 0 0 1 3068.47 811)">最終契約書の<tspan font-size="50" x="99.6875" y="60">締結</tspan></text><path d="M3219.15 978.917 3219.15 1858.08 3216.85 1858.08 3216.85 978.917ZM3204.25 983.5 3218 956 3231.75 983.5ZM3231.75 1853.5 3218 1881 3204.25 1853.5Z" fill="#002060"/><path d="M3487 770.829C3487 732.264 3518.26 701 3556.83 701L3836.14 701C3874.71 701 3905.97 732.264 3905.97 770.829L3905.97 2105.17C3905.97 2143.74 3874.71 2175 3836.14 2175L3556.83 2175C3518.26 2175 3487 2143.74 3487 2105.17Z" fill="#C8161D" fill-rule="evenodd"/><text fill="#FFFFFF" font-family="Meiryo,Meiryo_MSFontService,sans-serif" font-weight="700" font-size="100" transform="matrix(1 0 0 1 3546.55 1463)">ご成約</text><path d="M779 1299.84C779 1257.95 812.953 1224 854.835 1224L1571.16 1224C1613.05 1224 1647 1257.95 1647 1299.84L1647 1603.16C1647 1645.05 1613.05 1679 1571.16 1679L854.835 1679C812.953 1679 779 1645.05 779 1603.16Z" fill="#E0887C" fill-rule="evenodd"/><text fill="#FFFFFF" font-family="Meiryo,Meiryo_MSFontService,sans-serif" font-weight="700" font-size="50" transform="matrix(1 0 0 1 839.25 1324)">譲渡・譲受をイメージしながら、<tspan font-size="50" x="149.531" y="60">不明点や不安な事を</tspan><tspan font-size="50" x="124.598" y="120">互いに解消しましょう</tspan><tspan font-size="50" x="74.7542" y="220">全体スケジュールを決めて</tspan><tspan font-size="50" x="149.531" y="280">交渉を進めましょう</tspan></text><path d="M1844 1299.84C1844 1257.95 1877.95 1224 1919.83 1224L2635.17 1224C2677.05 1224 2711 1257.95 2711 1299.84L2711 1603.16C2711 1645.05 2677.05 1679 2635.17 1679L1919.83 1679C1877.95 1679 1844 1645.05 1844 1603.16Z" fill="#E0887C" fill-rule="evenodd"/><text fill="#FFFFFF" font-family="Meiryo,Meiryo_MSFontService,sans-serif" font-weight="700" font-size="50" transform="matrix(1 0 0 1 2003.46 1384)">独占交渉期間に入ります<tspan font-size="50" x="-49.8438" y="100">他の買い手企業様・個人との</tspan><tspan font-size="50" x="24.9104" y="160">交渉が禁止となります</tspan></text><rect x="529.5" y="528.5" width="157" height="683" stroke="#4472C4" stroke-width="3.4375" stroke-linejoin="round" stroke-miterlimit="10" fill="#FFFFFF"/><text fill="#2E75B6" font-family="Meiryo,Meiryo_MSFontService,sans-serif" font-weight="400" font-size="75" writing-mode="tb-rl" transform="matrix(1 2.95822e-25 -2.95822e-25 1 585.029 644)" x="23.2544" y="14.2456">売り手企業様</text><rect x="529.5" y="1703.5" width="157" height="683" stroke="#548235" stroke-width="3.4375" stroke-linejoin="round" stroke-miterlimit="10" fill="#FFFFFF"/><text fill="#548235" font-family="Meiryo,Meiryo_MSFontService,sans-serif" font-weight="400" font-size="75" writing-mode="tb-rl" transform="matrix(1 2.95822e-25 -2.95822e-25 1 585.029 1819)" x="23.2544" y="14.2456">買い手企業様</text></g></svg>