<svg width="3479" height="2041" xmlns="http://www.w3.org/2000/svg" xmlns:xlink="http://www.w3.org/1999/xlink" overflow="hidden"><defs><clipPath id="clip0"><rect x="519" y="389" width="3479" height="2041"/></clipPath></defs><g clip-path="url(#clip0)" transform="translate(-519 -389)"><path d="M734 390 1084.5 390 1138 443.5 1084.5 497 734 497Z" fill="#C8161D" fill-rule="evenodd"/><text fill="#FFFFFF" font-family="Meiryo,Meiryo_MSFontService,sans-serif" font-weight="700" font-size="58" transform="matrix(1 0 0 1 863.873 457)">登録</text><path d="M1145 390 1462.5 390 1516 443.5 1462.5 497 1145 497Z" fill="#C8161D" fill-rule="evenodd"/><text fill="#FFFFFF" font-family="Meiryo,Meiryo_MSFontService,sans-serif" font-weight="700" font-size="58" transform="matrix(1 0 0 1 1258.38 457)">検索</text><path d="M1555 389 2382 389 2436 443 2382 497 1555 497Z" fill="#C8161D" fill-rule="evenodd"/><text fill="#FFFFFF" font-family="Meiryo,Meiryo_MSFontService,sans-serif" font-weight="700" font-size="58" transform="matrix(1 0 0 1 1748.06 457)">メッセージ送受信</text><path d="M2460 389 2884 389 2938 443 2884 497 2460 497Z" fill="#C8161D" fill-rule="evenodd"/><text fill="#FFFFFF" font-family="Meiryo,Meiryo_MSFontService,sans-serif" font-weight="700" font-size="58" transform="matrix(1 0 0 1 2539.04 457)">自社名開示</text><path d="M2961 392 3425 392 3479 446 3425 500 2961 500Z" fill="#C8161D" fill-rule="evenodd"/><text fill="#FFFFFF" font-family="Meiryo,Meiryo_MSFontService,sans-serif" font-weight="700" font-size="58" transform="matrix(1 0 0 1 3031.19 460)">詳細資料開示</text><path d="M3501 389 3836 389 3890 443 3836 497 3501 497Z" fill="#C8161D" fill-rule="evenodd"/><text fill="#FFFFFF" font-family="Meiryo,Meiryo_MSFontService,sans-serif" font-weight="700" font-size="58" transform="matrix(1 0 0 1 3565.23 457)">面談準備</text><rect x="723" y="528" width="3275" height="1902" fill="#F2F2F2"/><path d="M747 743.834C747 720.177 766.177 701 789.834 701L1050.17 701C1073.82 701 1093 720.177 1093 743.834L1093 915.166C1093 938.823 1073.82 958 1050.17 958L789.834 958C766.177 958 747 938.823 747 915.166Z" fill="#4472C4" fill-rule="evenodd"/><text fill="#FFFFFF" font-family="Meiryo,Meiryo_MSFontService,sans-serif" font-weight="700" font-size="50" transform="matrix(1 0 0 1 820.083 811)">譲渡情報<tspan font-size="50" x="49.8438" y="60">登録</tspan></text><path d="M1146 1923.83C1146 1900.18 1165.18 1881 1188.83 1881L1449.17 1881C1472.82 1881 1492 1900.18 1492 1923.83L1492 2095.17C1492 2118.82 1472.82 2138 1449.17 2138L1188.83 2138C1165.18 2138 1146 2118.82 1146 2095.17Z" fill="#70AD47" fill-rule="evenodd"/><text fill="#FFFFFF" font-family="Meiryo,Meiryo_MSFontService,sans-serif" font-weight="700" font-size="50" transform="matrix(1 0 0 1 1219.65 1992)">譲渡案件<tspan font-size="50" x="49.8438" y="60">検索</tspan></text><path d="M741 1300.17C741 1258.1 775.102 1224 817.168 1224L1442.83 1224C1484.9 1224 1519 1258.1 1519 1300.17L1519 1604.83C1519 1646.9 1484.9 1681 1442.83 1681L817.168 1681C775.102 1681 741 1646.9 741 1604.83Z" fill="#E0887C" fill-rule="evenodd"/><text fill="#FFFFFF" font-family="Meiryo,Meiryo_MSFontService,sans-serif" font-weight="700" font-size="50" transform="matrix(1 0 0 1 805.966 1345)">審査を通過した譲渡案件のみ<tspan font-size="50" x="74.7771" y="60">サイトに掲載されます</tspan><tspan font-size="50" x="124.621" y="120">譲渡案件は匿名で</tspan><tspan font-size="50" x="124.621" y="180">掲載されるため、</tspan><tspan font-size="50" x="0" y="240">安心してご登録いただけます</tspan></text><path d="M1.14561-0.0223769 5.90503 243.643 3.6138 243.687-1.14561 0.0223769ZM18.4173 238.814 5.20696 266.577-9.07747 239.351Z" fill="#002060" transform="matrix(-1 0 0 1 920.207 958)"/><path d="M1566 1923.83C1566 1900.18 1585.18 1881 1608.83 1881L1932.17 1881C1955.82 1881 1975 1900.18 1975 1923.83L1975 2095.17C1975 2118.82 1955.82 2138 1932.17 2138L1608.83 2138C1585.18 2138 1566 2118.82 1566 2095.17Z" fill="#70AD47" fill-rule="evenodd"/><text fill="#FFFFFF" font-family="Meiryo,Meiryo_MSFontService,sans-serif" font-weight="700" font-size="50" transform="matrix(1 0 0 1 1670.75 1969)">交渉開始<tspan font-size="44" x="-52.7083" y="55">（匿名・実名開</tspan><tspan font-size="44" x="-52.7083" y="107">示が選べます）</tspan></text><path d="M1492 2008.85 1542.59 2008.85 1542.59 2011.15 1492 2011.15ZM1538.01 1996.25 1565.51 2010 1538.01 2023.75Z" fill="#002060"/><path d="M1592 743.834C1592 720.177 1611.18 701 1634.83 701L1895.17 701C1918.82 701 1938 720.177 1938 743.834L1938 915.166C1938 938.823 1918.82 958 1895.17 958L1634.83 958C1611.18 958 1592 938.823 1592 915.166Z" fill="#4472C4" fill-rule="evenodd"/><text fill="#FFFFFF" font-family="Meiryo,Meiryo_MSFontService,sans-serif" font-weight="700" font-size="50" transform="matrix(1 0 0 1 1714.99 781)">案件<tspan font-size="50" x="-24.9334" y="60">申込み</tspan><tspan font-size="50" x="0" y="120">受信</tspan></text><path d="M1769.47 1881.61 1763.99 980.924 1766.29 980.91 1771.76 1881.6ZM1751.42 985.583 1765 958 1778.92 985.416Z" fill="#002060"/><path d="M2022 743.834C2022 720.177 2041.18 701 2064.83 701L2325.17 701C2348.82 701 2368 720.177 2368 743.834L2368 915.166C2368 938.823 2348.82 958 2325.17 958L2064.83 958C2041.18 958 2022 938.823 2022 915.166Z" fill="#4472C4" fill-rule="evenodd"/><text fill="#FFFFFF" font-family="Meiryo,Meiryo_MSFontService,sans-serif" font-weight="700" font-size="50" transform="matrix(1 0 0 1 2070.28 811)">メッセージ<tspan font-size="50" x="49.8438" y="60">送受信</tspan></text><path d="M1938 827.854 1999.41 827.855 1999.41 830.146 1938 830.146ZM1994.83 815.25 2022.33 829 1994.83 842.75Z" fill="#002060"/><path d="M2024 1923.83C2024 1900.18 2043.18 1881 2066.83 1881L2326.17 1881C2349.82 1881 2369 1900.18 2369 1923.83L2369 2095.17C2369 2118.82 2349.82 2138 2326.17 2138L2066.83 2138C2043.18 2138 2024 2118.82 2024 2095.17Z" fill="#70AD47" fill-rule="evenodd"/><text fill="#FFFFFF" font-family="Meiryo,Meiryo_MSFontService,sans-serif" font-weight="700" font-size="50" transform="matrix(1 0 0 1 2071.89 1992)">メッセージ<tspan font-size="50" x="49.8438" y="60">送受信</tspan></text><path d="M2196.19 980.913 2197.72 1858.68 2195.43 1858.69 2193.89 980.917ZM2181.3 985.524 2195 958 2208.8 985.476ZM2210.31 1854.08 2196.61 1881.6 2182.81 1854.13Z" fill="#002060"/><path d="M2460 743.834C2460 720.177 2479.18 701 2502.83 701L2877.17 701C2900.82 701 2920 720.177 2920 743.834L2920 915.166C2920 938.822 2900.82 958 2877.17 958L2502.83 958C2479.18 958 2460 938.822 2460 915.166Z" fill="#4472C4" fill-rule="evenodd"/><text fill="#FFFFFF" font-family="Meiryo,Meiryo_MSFontService,sans-serif" font-weight="700" font-size="50" transform="matrix(1 0 0 1 2515.37 811)">秘密保持契約書<tspan font-size="50" x="16.3396" y="60">（</tspan><tspan font-size="50" x="66.1834" y="60">NDA</tspan><tspan font-size="50" x="183.058" y="60">）締結</tspan></text><path d="M2368 827.854 2436.93 827.855 2436.93 830.146 2368 830.146ZM2432.35 815.25 2459.85 829 2432.35 842.75Z" fill="#002060"/><path d="M2460 1923.83C2460 1900.18 2479.18 1881 2502.83 1881L2877.17 1881C2900.82 1881 2920 1900.18 2920 1923.83L2920 2095.17C2920 2118.82 2900.82 2138 2877.17 2138L2502.83 2138C2479.18 2138 2460 2118.82 2460 2095.17Z" fill="#70AD47" fill-rule="evenodd"/><text fill="#FFFFFF" font-family="Meiryo,Meiryo_MSFontService,sans-serif" font-weight="700" font-size="50" transform="matrix(1 0 0 1 2515.55 1992)">秘密保持契約書<tspan font-size="50" x="16.3396" y="60">（</tspan><tspan font-size="50" x="66.1834" y="60">NDA</tspan><tspan font-size="50" x="183.058" y="60">）締結</tspan></text><path d="M2691.15 980.917 2691.32 1858.69 2689.03 1858.69 2688.86 980.917ZM2676.26 985.503 2690 958 2703.76 985.497ZM2703.93 1854.1 2690.18 1881.6 2676.43 1854.11Z" fill="#002060"/><path d="M3014 743.834C3014 720.177 3033.18 701 3056.83 701L3391.17 701C3414.82 701 3434 720.177 3434 743.834L3434 915.166C3434 938.823 3414.82 958 3391.17 958L3056.83 958C3033.18 958 3014 938.823 3014 915.166Z" fill="#4472C4" fill-rule="evenodd"/><text fill="#FFFFFF" font-family="Meiryo,Meiryo_MSFontService,sans-serif" font-weight="700" font-size="50" transform="matrix(1 0 0 1 3099.19 811)">決算書等の<tspan font-size="50" x="24.9104" y="60">資料開示</tspan></text><path d="M2920 827.854 2990.56 827.855 2990.56 830.146 2920 830.146ZM2985.98 815.25 3013.48 829 2985.98 842.75Z" fill="#002060"/><path d="M3013 1923.83C3013 1900.18 3032.18 1881 3055.83 1881L3390.17 1881C3413.82 1881 3433 1900.18 3433 1923.83L3433 2095.17C3433 2118.82 3413.82 2138 3390.17 2138L3055.83 2138C3032.18 2138 3013 2118.82 3013 2095.17Z" fill="#70AD47" fill-rule="evenodd"/><text fill="#FFFFFF" font-family="Meiryo,Meiryo_MSFontService,sans-serif" font-weight="700" font-size="50" transform="matrix(1 0 0 1 3098.58 2022)">確認・検討</text><path d="M1.14583-0.000758002 1.74166 900.686-0.550002 900.687-1.14583 0.000758002ZM14.3428 896.094 0.610991 923.603-13.1572 896.112Z" fill="#002060" transform="matrix(-1 0 0 1 3223.61 958)"/><path d="M1664 1300.17C1664 1258.1 1698.1 1224 1740.17 1224L2780.83 1224C2822.9 1224 2857 1258.1 2857 1300.17L2857 1604.83C2857 1646.9 2822.9 1681 2780.83 1681L1740.17 1681C1698.1 1681 1664 1646.9 1664 1604.83Z" fill="#E0887C" fill-rule="evenodd"/><text fill="#FFFFFF" font-family="Meiryo,Meiryo_MSFontService,sans-serif" font-weight="700" font-size="50" transform="matrix(1 0 0 1 1911.37 1375)">メッセージのやり取りを通じ、<tspan font-size="50" x="149.531" y="60">交渉する先とは、</tspan><tspan font-size="50" x="74.7771" y="120">秘密保持契約書を締結し</tspan><tspan font-size="50" x="124.621" y="180">交渉を進めましょう</tspan></text><path d="M3491 744.834C3491 721.177 3510.18 702 3533.83 702L3846.17 702C3869.82 702 3889 721.177 3889 744.834L3889 916.166C3889 939.823 3869.82 959 3846.17 959L3533.83 959C3510.18 959 3491 939.823 3491 916.166Z" fill="#4472C4" fill-rule="evenodd"/><text fill="#FFFFFF" font-family="Meiryo,Meiryo_MSFontService,sans-serif" font-weight="700" font-size="50" transform="matrix(1 0 0 1 3540.76 843)">面談日時調整</text><path d="M3434.03 827.855 3468.33 828.722 3468.27 831.013 3433.97 830.146ZM3464.07 816.006 3491.21 830.447 3463.37 843.497Z" fill="#002060"/><path d="M3691.15 981.917 3691.32 1858.99 3689.03 1859 3688.86 981.917ZM3676.26 986.503 3690 959 3703.76 986.497ZM3703.93 1854.41 3690.18 1881.91 3676.43 1854.41Z" fill="#002060"/><path d="M3491 1924.83C3491 1901.18 3510.18 1882 3533.83 1882L3846.17 1882C3869.82 1882 3889 1901.18 3889 1924.83L3889 2096.17C3889 2119.82 3869.82 2139 3846.17 2139L3533.83 2139C3510.18 2139 3491 2119.82 3491 2096.17Z" fill="#70AD47" fill-rule="evenodd"/><text fill="#FFFFFF" font-family="Meiryo,Meiryo_MSFontService,sans-serif" font-weight="700" font-size="50" transform="matrix(1 0 0 1 3540.94 2022)">面談日時調整</text><path d="M2989 1300.17C2989 1258.1 3023.1 1224 3065.17 1224L3787.83 1224C3829.9 1224 3864 1258.1 3864 1300.17L3864 1604.83C3864 1646.9 3829.9 1681 3787.83 1681L3065.17 1681C3023.1 1681 2989 1646.9 2989 1604.83Z" fill="#E0887C" fill-rule="evenodd"/><text fill="#FFFFFF" font-family="Meiryo,Meiryo_MSFontService,sans-serif" font-weight="700" font-size="50" transform="matrix(1 0 0 1 3102.2 1375)">買い手企業様から依頼された<tspan font-size="50" x="99.6875" y="60">資料を開示したり、</tspan><tspan font-size="50" x="124.621" y="120">質疑応答を行い、</tspan><tspan font-size="50" x="49.8438" y="180">面談調整を行いましょう</tspan></text><path d="M2369 2008.85 2437.27 2008.85 2437.27 2011.15 2369 2011.15ZM2432.69 1996.25 2460.19 2010 2432.69 2023.75Z" fill="#002060"/><path d="M2920 2008.85 2989.77 2008.85 2989.77 2011.15 2920 2011.15ZM2985.19 1996.25 3012.69 2010 2985.19 2023.75Z" fill="#002060"/><path d="M3433.01 2008.85 3468.1 2009.31 3468.07 2011.6 3432.99 2011.15ZM3463.68 1996.65 3491 2010.75 3463.33 2024.15Z" fill="#002060"/><rect x="529.5" y="528.5" width="157" height="683" stroke="#4472C4" stroke-width="3.4375" stroke-linejoin="round" stroke-miterlimit="10" fill="#FFFFFF"/><text fill="#2E75B6" font-family="Meiryo,Meiryo_MSFontService,sans-serif" font-weight="400" font-size="75" writing-mode="tb-rl" transform="matrix(1 2.95822e-25 -2.95822e-25 1 585.029 644)" x="23.2544" y="14.2456">売り手企業様</text><rect x="529.5" y="1703.5" width="157" height="683" stroke="#548235" stroke-width="3.4375" stroke-linejoin="round" stroke-miterlimit="10" fill="#FFFFFF"/><text fill="#548235" font-family="Meiryo,Meiryo_MSFontService,sans-serif" font-weight="400" font-size="75" writing-mode="tb-rl" transform="matrix(1 2.95822e-25 -2.95822e-25 1 585.029 1819)" x="23.2544" y="14.2456">買い手企業様</text></g></svg>