<svg width="3402" height="1712" xmlns="http://www.w3.org/2000/svg" xmlns:xlink="http://www.w3.org/1999/xlink" overflow="hidden"><defs><clipPath id="clip0"><rect x="306" y="735" width="3402" height="1712"/></clipPath></defs><g clip-path="url(#clip0)" transform="translate(-306 -735)"><path d="M308.5 2208.39C308.5 2206.79 309.792 2205.5 311.386 2205.5L3701.61 2205.5C3703.21 2205.5 3704.5 2206.79 3704.5 2208.39L3704.5 2433.61C3704.5 2435.21 3703.21 2436.5 3701.61 2436.5L311.386 2436.5C309.792 2436.5 308.5 2435.21 308.5 2433.61Z" stroke="#ED7D31" stroke-width="4.58333" stroke-miterlimit="8" fill="#FFFFFF" fill-rule="evenodd"/><text fill="#ED7D31" font-family="Meiryo,Meiryo_MSFontService,sans-serif" font-weight="700" font-size="80" transform="matrix(1 0 0 1 1123.63 2302)">アップグレードは契約期間中いつでも可能です！<tspan font-size="64" x="240.625" y="83">（ダウングレード・解約は契約更新月のみ）</tspan></text><path d="M308 737.575C308 737.257 308.257 737 308.575 737L1386.43 737C1386.74 737 1387 737.257 1387 737.575L1387 782.425C1387 782.743 1386.74 783 1386.43 783L308.575 783C308.257 783 308 782.743 308 782.425Z" fill="#FFC000" fill-rule="evenodd"/><path d="M310 802.475C310 801.66 310.66 801 311.475 801L1387.53 801C1388.34 801 1389 801.66 1389 802.475L1389 917.525C1389 918.339 1388.34 919 1387.53 919L311.475 919C310.66 919 310 918.339 310 917.525Z" fill="#FFFFFF" fill-rule="evenodd"/><text fill="#222A35" font-family="Meiryo,Meiryo_MSFontService,sans-serif" font-weight="700" font-size="80" transform="matrix(1 0 0 1 649.433 880)">エントリー</text><path d="M311 923.274C311 921.466 312.466 920 314.275 920L1386.73 920C1388.53 920 1390 921.466 1390 923.274L1390 1178.73C1390 1180.53 1388.53 1182 1386.73 1182L314.275 1182C312.466 1182 311 1180.53 311 1178.73Z" fill="#FFF2CC" fill-rule="evenodd"/><text fill="#222A35" font-family="Meiryo,Meiryo_MSFontService,sans-serif" font-weight="700" font-size="56" transform="matrix(1 0 0 1 485.01 1052)">売却希望価格500<tspan font-size="56" x="450.313" y="0">万円以内の</tspan><tspan font-size="56" x="169.01" y="68">案件で交渉可能</tspan></text><path d="M311 1195.15C311 1188.44 316.44 1183 323.151 1183L1377.85 1183C1384.56 1183 1390 1188.44 1390 1195.15L1390 2142.85C1390 2149.56 1384.56 2155 1377.85 2155L323.151 2155C316.44 2155 311 2149.56 311 2142.85Z" fill="#FFFFFF" fill-rule="evenodd"/><text fill="#222A35" font-family="Meiryo,Meiryo_MSFontService,sans-serif" font-weight="700" font-size="161" transform="matrix(1 0 0 1 508.376 1540)">2,980<tspan font-size="64" x="490.99" y="0">円／月</tspan><tspan font-size="64" x="18.9063" y="112">（税込</tspan><tspan font-size="64" x="211.406" y="112">3,278</tspan><tspan font-size="64" x="407.917" y="112">円／月）</tspan><tspan font-size="48" x="131.473" y="175">税込</tspan><tspan font-size="48" x="227.723" y="175">39,336</tspan><tspan font-size="48" x="407.619" y="175">円／年</tspan><tspan font-size="80" x="53.8541" y="376">成約手数料</tspan><tspan font-size="80" x="454.896" y="376">0</tspan><tspan font-size="80" x="509.323" y="376">円</tspan><tspan font-size="40" x="589.531" y="376">※</tspan></text><path d="M667.019 1202.5 1035.98 1202.5C1084.32 1202.5 1123.5 1228.92 1123.5 1261.5 1123.5 1294.08 1084.32 1320.5 1035.98 1320.5L667.019 1320.5C618.683 1320.5 579.5 1294.08 579.5 1261.5 579.5 1228.92 618.683 1202.5 667.019 1202.5Z" stroke="#2F528F" stroke-width="4.58333" stroke-miterlimit="8" fill="none" fill-rule="evenodd"/><text fill="#222A35" font-family="Meiryo,Meiryo_MSFontService,sans-serif" font-weight="400" font-size="56" transform="matrix(1 0 0 1 654.412 1283)">契約期間１年間</text><rect x="308.5" y="737.5" width="1079" height="1415" stroke="#D9D9D9" stroke-width="4.58333" stroke-miterlimit="8" fill="none"/><path d="M1466 740.575C1466 740.257 1466.26 740 1466.57 740L2544.43 740C2544.74 740 2545 740.257 2545 740.575L2545 785.426C2545 785.743 2544.74 786 2544.43 786L1466.57 786C1466.26 786 1466 785.743 1466 785.426Z" fill="#ED7D31" fill-rule="evenodd"/><path d="M1470 807.488C1470 806.666 1470.67 806 1471.49 806L2546.51 806C2547.33 806 2548 806.666 2548 807.488L2548 923.512C2548 924.334 2547.33 925 2546.51 925L1471.49 925C1470.67 925 1470 924.334 1470 923.512Z" fill="#FFFFFF" fill-rule="evenodd"/><text fill="#222A35" font-family="Meiryo,Meiryo_MSFontService,sans-serif" font-weight="700" font-size="80" transform="matrix(1 0 0 1 1768.37 885)">スタンダード</text><path d="M1470 926.274C1470 924.466 1471.47 923 1473.27 923L2545.73 923C2547.53 923 2549 924.466 2549 926.274L2549 1181.73C2549 1183.53 2547.53 1185 2545.73 1185L1473.27 1185C1471.47 1185 1470 1183.53 1470 1181.73Z" fill="#FBE5D6" fill-rule="evenodd"/><text fill="#222A35" font-family="Meiryo,Meiryo_MSFontService,sans-serif" font-weight="700" font-size="56" transform="matrix(1 0 0 1 1615.41 1056)">売却希望価格<tspan font-size="56" x="336.875" y="0">3,000</tspan><tspan font-size="56" x="507.604" y="0">万円以内の</tspan><tspan font-size="56" x="197.656" y="68">案件で交渉可能</tspan></text><path d="M1472 1199.06C1472 1192.4 1477.4 1187 1484.06 1187L2538.94 1187C2545.6 1187 2551 1192.4 2551 1199.06L2551 2139.94C2551 2146.6 2545.6 2152 2538.94 2152L1484.06 2152C1477.4 2152 1472 2146.6 1472 2139.94Z" fill="#FFFFFF" fill-rule="evenodd"/><text fill="#222A35" font-family="Meiryo,Meiryo_MSFontService,sans-serif" font-weight="700" font-size="161" transform="matrix(1 0 0 1 1670.1 1544)">7,980<tspan font-size="64" x="490.99" y="0">円／月</tspan><tspan font-size="64" x="18.9063" y="112">（税込</tspan><tspan font-size="64" x="211.406" y="112">8,778</tspan><tspan font-size="64" x="407.917" y="112">円／月）</tspan><tspan font-size="48" x="115.156" y="175">税込</tspan><tspan font-size="48" x="211.406" y="175">105,336</tspan><tspan font-size="48" x="423.958" y="175">円／年</tspan><tspan font-size="80" x="53.8543" y="376">成約手数料</tspan><tspan font-size="80" x="454.896" y="376">0</tspan><tspan font-size="80" x="509.323" y="376">円</tspan><tspan font-size="40" x="589.531" y="376">※</tspan></text><path d="M1825.02 1200.5 2193.98 1200.5C2242.32 1200.5 2281.5 1226.92 2281.5 1259.5 2281.5 1292.08 2242.32 1318.5 2193.98 1318.5L1825.02 1318.5C1776.68 1318.5 1737.5 1292.08 1737.5 1259.5 1737.5 1226.92 1776.68 1200.5 1825.02 1200.5Z" stroke="#2F528F" stroke-width="4.58333" stroke-miterlimit="8" fill="none" fill-rule="evenodd"/><text fill="#222A35" font-family="Meiryo,Meiryo_MSFontService,sans-serif" font-weight="400" font-size="56" transform="matrix(1 0 0 1 1812.31 1282)">契約期間１年間</text><rect x="1466.5" y="740.5" width="1079" height="1415" stroke="#D9D9D9" stroke-width="4.58333" stroke-miterlimit="8" fill="none"/><path d="M2624 740.575C2624 740.258 2624.26 740 2624.57 740L3703.42 740C3703.74 740 3704 740.258 3704 740.575L3704 785.425C3704 785.743 3703.74 786 3703.42 786L2624.57 786C2624.26 786 2624 785.743 2624 785.425Z" fill="#70AD47" fill-rule="evenodd"/><path d="M2626 805.488C2626 804.666 2626.67 804 2627.49 804L3703.51 804C3704.33 804 3705 804.666 3705 805.488L3705 921.512C3705 922.334 3704.33 923 3703.51 923L2627.49 923C2626.67 923 2626 922.334 2626 921.512Z" fill="#FFFFFF" fill-rule="evenodd"/><text fill="#222A35" font-family="Meiryo,Meiryo_MSFontService,sans-serif" font-weight="700" font-size="80" transform="matrix(1 0 0 1 2965.12 883)">プレミアム</text><path d="M2627 926.274C2627 924.466 2628.47 923 2630.27 923L3702.73 923C3704.53 923 3706 924.466 3706 926.274L3706 1181.73C3706 1183.53 3704.53 1185 3702.73 1185L2630.27 1185C2628.47 1185 2627 1183.53 2627 1181.73Z" fill="#E2F0D9" fill-rule="evenodd"/><text fill="#222A35" font-family="Meiryo,Meiryo_MSFontService,sans-serif" font-weight="700" font-size="56" transform="matrix(1 0 0 1 2885.77 1055)">売却希望価格無制限で<tspan font-size="56" x="168.438" y="68">交渉可能</tspan></text><path d="M2629 1198.07C2629 1191.41 2634.41 1186 2641.07 1186L3695.92 1186C3702.59 1186 3708 1191.41 3708 1198.07L3708 2139.92C3708 2146.59 3702.59 2152 3695.92 2152L2641.07 2152C2634.41 2152 2629 2146.59 2629 2139.92Z" fill="#FFFFFF" fill-rule="evenodd"/><text fill="#222A35" font-family="Meiryo,Meiryo_MSFontService,sans-serif" font-weight="700" font-size="161" transform="matrix(1 0 0 1 2772.59 1543)">14,800<tspan font-size="64" x="599.844" y="0">円／月</tspan><tspan font-size="64" x="51.5625" y="112">（税込</tspan><tspan font-size="64" x="244.063" y="112">16,280</tspan><tspan font-size="64" x="484.115" y="112">円／月）</tspan><tspan font-size="48" x="169.583" y="175">税込</tspan><tspan font-size="48" x="265.833" y="175">195,360</tspan><tspan font-size="48" x="478.386" y="175">円／年</tspan><tspan font-size="80" x="108.281" y="376">成約手数料</tspan><tspan font-size="80" x="509.323" y="376">0</tspan><tspan font-size="80" x="563.75" y="376">円</tspan><tspan font-size="40" x="643.958" y="376">※</tspan></text><path d="M2984.18 1206.5 3353.82 1206.5C3402.24 1206.5 3441.5 1232.92 3441.5 1265.5 3441.5 1298.08 3402.24 1324.5 3353.82 1324.5L2984.18 1324.5C2935.76 1324.5 2896.5 1298.08 2896.5 1265.5 2896.5 1232.92 2935.76 1206.5 2984.18 1206.5Z" stroke="#2F528F" stroke-width="4.58333" stroke-miterlimit="8" fill="none" fill-rule="evenodd"/><text fill="#222A35" font-family="Meiryo,Meiryo_MSFontService,sans-serif" font-weight="400" font-size="56" transform="matrix(1 0 0 1 2972.26 1288)">契約期間１年間</text><rect x="2621.5" y="737.5" width="1079" height="1415" stroke="#D9D9D9" stroke-width="4.58333" stroke-miterlimit="8" fill="none"/></g></svg>