<svg width="3307" height="2362" xmlns="http://www.w3.org/2000/svg" xmlns:xlink="http://www.w3.org/1999/xlink" overflow="hidden"><defs><clipPath id="clip0"><rect x="280" y="35" width="3307" height="2362"/></clipPath></defs><g clip-path="url(#clip0)" transform="translate(-280 -35)"><path d="M1397 1297.5C1397 1296.12 1398.12 1295 1399.5 1295L2466.5 1295C2467.88 1295 2469 1296.12 2469 1297.5L2469 1492.5C2469 1493.88 2467.88 1495 2466.5 1495L1399.5 1495C1398.12 1495 1397 1493.88 1397 1492.5Z" fill="#C8161D" fill-rule="evenodd"/><path d="M2502 1295.5C2502 1294.12 2503.12 1293 2504.5 1293L3571.5 1293C3572.88 1293 3574 1294.12 3574 1295.5L3574 1490.5C3574 1491.88 3572.88 1493 3571.5 1493L2504.5 1493C2503.12 1493 2502 1491.88 2502 1490.5Z" fill="#C8161D" fill-rule="evenodd"/><text fill="#222A35" font-family="Meiryo,Meiryo_MSFontService,sans-serif" font-weight="700" font-size="80" transform="matrix(1 0 0 1 657.225 353)">一般的な成約手数料の料金と比べて大幅にお得にご利用いただけます。</text><path d="M287.5 420.513C287.5 418.849 288.849 417.5 290.513 417.5L1356.49 417.5C1358.15 417.5 1359.5 418.849 1359.5 420.513L1359.5 655.487C1359.5 657.151 1358.15 658.5 1356.49 658.5L290.513 658.5C288.849 658.5 287.5 657.151 287.5 655.487Z" stroke="#D9D9D9" stroke-width="4.58333" stroke-miterlimit="8" fill="#FFFFFF" fill-rule="evenodd"/><text fill="#222A35" font-family="Meiryo,Meiryo_MSFontService,sans-serif" font-weight="400" font-size="80" transform="matrix(1 0 0 1 627.743 509)">500<tspan font-size="80" x="149.531" y="0">万円の</tspan><tspan font-size="80" x="-125.744" y="97">ご成約をした場合</tspan></text><path d="M1397.5 428.5C1397.5 426.843 1398.84 425.5 1400.5 425.5L2466.5 425.5C2468.16 425.5 2469.5 426.843 2469.5 428.5L2469.5 662.5C2469.5 664.157 2468.16 665.5 2466.5 665.5L1400.5 665.5C1398.84 665.5 1397.5 664.157 1397.5 662.5Z" stroke="#D9D9D9" stroke-width="4.58333" stroke-miterlimit="8" fill="#FFFFFF" fill-rule="evenodd"/><text fill="#222A35" font-family="Meiryo,Meiryo_MSFontService,sans-serif" font-weight="400" font-size="80" transform="matrix(1 0 0 1 1698.92 516)">3,000万円の<tspan font-size="80" x="-86.7855" y="97">ご成約をした場合</tspan></text><path d="M2496.5 428.5C2496.5 426.843 2497.84 425.5 2499.5 425.5L3565.5 425.5C3567.16 425.5 3568.5 426.843 3568.5 428.5L3568.5 662.5C3568.5 664.157 3567.16 665.5 3565.5 665.5L2499.5 665.5C2497.84 665.5 2496.5 664.157 2496.5 662.5Z" stroke="#D9D9D9" stroke-width="4.58333" stroke-miterlimit="8" fill="#FFFFFF" fill-rule="evenodd"/><text fill="#222A35" font-family="Meiryo,Meiryo_MSFontService,sans-serif" font-weight="400" font-size="80" transform="matrix(1 0 0 1 2886.36 516)">1<tspan font-size="80" x="49.8438" y="0">億円の</tspan><tspan font-size="80" x="-175.588" y="97">ご成約をした場合</tspan></text><path d="M294 828.326C294 827.594 294.593 827 295.326 827L3568.67 827C3569.41 827 3570 827.594 3570 828.326L3570 931.674C3570 932.406 3569.41 933 3568.67 933L295.326 933C294.593 933 294 932.406 294 931.674Z" fill="#A6A6A6" fill-rule="evenodd"/><text fill="#FFFFFF" font-family="Meiryo,Meiryo_MSFontService,sans-serif" font-weight="400" font-size="80" transform="matrix(1 0 0 1 982.757 912)">一般的な料金（成約価額<tspan font-size="80" x="882.292" y="0">×</tspan><tspan font-size="80" x="947.031" y="0">3</tspan>％、最低手数料<tspan font-size="80" x="1558.33" y="0">30</tspan>万円）</text><path d="M291.5 935.8C291.5 933.425 293.425 931.5 295.8 931.5L1359.2 931.5C1361.57 931.5 1363.5 933.425 1363.5 935.8L1363.5 1271.2C1363.5 1273.57 1361.57 1275.5 1359.2 1275.5L295.8 1275.5C293.425 1275.5 291.5 1273.57 291.5 1271.2Z" stroke="#D9D9D9" stroke-width="4.58333" stroke-miterlimit="8" fill="#FFFFFF" fill-rule="evenodd"/><text fill="#222A35" font-family="Meiryo,Meiryo_MSFontService,sans-serif" font-weight="400" font-size="72" transform="matrix(1 0 0 1 457.124 1024)">最低手数料<tspan font-size="72" x="360.938" y="0">30</tspan><tspan font-size="72" x="450.313" y="0">万円適用</tspan><tspan font-weight="700" font-size="96" x="108.854" y="108">300,000</tspan><tspan font-weight="700" font-size="96" x="533.958" y="108">円</tspan><tspan font-size="64" x="77.6417" y="196">（税込</tspan><tspan font-size="64" x="270.142" y="196">330,000</tspan><tspan font-size="64" x="533.11" y="196">円）</tspan></text><path d="M1397.5 938.8C1397.5 936.425 1399.43 934.5 1401.8 934.5L2465.2 934.5C2467.57 934.5 2469.5 936.425 2469.5 938.8L2469.5 1274.2C2469.5 1276.57 2467.57 1278.5 2465.2 1278.5L1401.8 1278.5C1399.43 1278.5 1397.5 1276.57 1397.5 1274.2Z" stroke="#D9D9D9" stroke-width="4.58333" stroke-miterlimit="8" fill="#FFFFFF" fill-rule="evenodd"/><text fill="#222A35" font-family="Meiryo,Meiryo_MSFontService,sans-serif" font-weight="400" font-size="72" transform="matrix(1 0 0 1 1669.99 1027)">3,000<tspan font-size="72" x="203.958" y="0">万円</tspan>×<tspan font-size="72" x="406.771" y="0">3%</tspan><tspan font-weight="700" font-size="96" x="2.29175" y="108">900,000</tspan><tspan font-weight="700" font-size="96" x="427.396" y="108">円</tspan><tspan font-size="64" x="-28.9208" y="196">（税込</tspan><tspan font-size="64" x="163.579" y="196">990,000</tspan><tspan font-size="64" x="426.548" y="196">円）</tspan></text><path d="M2496.5 935.8C2496.5 933.425 2498.43 931.5 2500.8 931.5L3564.2 931.5C3566.57 931.5 3568.5 933.425 3568.5 935.8L3568.5 1271.2C3568.5 1273.57 3566.57 1275.5 3564.2 1275.5L2500.8 1275.5C2498.43 1275.5 2496.5 1273.57 2496.5 1271.2Z" stroke="#D9D9D9" stroke-width="4.58333" stroke-miterlimit="8" fill="#FFFFFF" fill-rule="evenodd"/><text fill="#222A35" font-family="Meiryo,Meiryo_MSFontService,sans-serif" font-weight="400" font-size="72" transform="matrix(1 0 0 1 2848.6 1024)">1<tspan font-size="72" x="44.6875" y="0">億円</tspan><tspan font-size="72" x="189.063" y="0">×</tspan><tspan font-size="72" x="247.5" y="0">3%</tspan><tspan font-weight="700" font-size="96" x="-126.615" y="108">3,000,000</tspan><tspan font-weight="700" font-size="96" x="397.031" y="108">円</tspan><tspan font-size="64" x="-139.792" y="196">（税込</tspan><tspan font-size="64" x="52.7085" y="196">3,300,000</tspan><tspan font-size="64" x="378.125" y="196">円）</tspan></text><path d="M724.5 738.5 772.25 738.5 772.25 665.5 867.75 665.5 867.75 738.5 915.5 738.5 820 811.5Z" stroke="#F2F2F2" stroke-width="4.58333" stroke-miterlimit="8" fill="#BFBFBF" fill-rule="evenodd"/><path d="M1829.5 738.5 1877.5 738.5 1877.5 665.5 1973.5 665.5 1973.5 738.5 2021.5 738.5 1925.5 811.5Z" stroke="#F2F2F2" stroke-width="4.58333" stroke-miterlimit="8" fill="#BFBFBF" fill-rule="evenodd"/><path d="M2943.5 738.5 2991.5 738.5 2991.5 665.5 3087.5 665.5 3087.5 738.5 3135.5 738.5 3039.5 811.5Z" stroke="#F2F2F2" stroke-width="4.58333" stroke-miterlimit="8" fill="#BFBFBF" fill-rule="evenodd"/><path d="M287 1297.5C287 1296.12 288.119 1295 289.499 1295L1356.5 1295C1357.88 1295 1359 1296.12 1359 1297.5L1359 1492.5C1359 1493.88 1357.88 1495 1356.5 1495L289.499 1495C288.119 1495 287 1493.88 287 1492.5Z" fill="#C8161D" fill-rule="evenodd"/><text fill="#FFFFFF" font-family="Meiryo,Meiryo_MSFontService,sans-serif" font-weight="700" font-size="80" transform="matrix(1 0 0 1 500.459 1410)">エントリープラン<tspan font-size="80" x="1067.04" y="5">スタンダードプラン</tspan><tspan font-size="80" x="2212.33" y="0">プレミアムプラン</tspan><tspan fill="#222A35" font-weight="400" font-size="72" x="108.488" y="221">300,000</tspan><tspan fill="#222A35" font-weight="400" font-size="72" x="401.821" y="221">円</tspan><tspan fill="#222A35" font-weight="400" font-size="72" x="474.009" y="221">÷</tspan><tspan fill="#222A35" font-weight="400" font-size="96" x="-8.38696" y="356">月額</tspan><tspan fill="#222A35" font-size="129" x="184.113" y="356">1,490</tspan><tspan fill="#222A35" font-weight="400" font-size="72" x="577.134" y="356">円</tspan><tspan fill="#222A35" font-weight="400" font-size="72" x="72.9672" y="462">＝約</tspan><tspan fill="#222A35" font-weight="400" font-size="72" x="217.342" y="462">201</tspan><tspan fill="#222A35" font-weight="400" font-size="72" x="351.405" y="462">か月分</tspan><tspan fill="#C8161D" font-size="72" x="-3.80362" y="746">約</tspan><tspan fill="#C8161D" font-size="129" x="68.3839" y="746">17</tspan><tspan fill="#C8161D" font-size="96" x="242.551" y="746">年</tspan><tspan fill="#C8161D" font-size="72" x="338.801" y="746">に</tspan><tspan fill="#C8161D" font-size="96" x="410.988" y="746">1</tspan><tspan fill="#C8161D" font-size="96" x="476.301" y="746">件</tspan><tspan fill="#C8161D" font-size="72" x="572.551" y="746">の</tspan></text><path d="M496.922 2166.45 712.922 2166.45 928.922 2166.45 1144.92 2166.45 1144.92 2171.45 928.922 2171.45 712.922 2171.45 496.922 2171.45Z" fill="#C8161D" fill-rule="evenodd"/><text font-family="Meiryo,Meiryo_MSFontService,sans-serif" font-weight="700" font-size="72" transform="matrix(1 0 0 1 459.989 2282)">ご成約で元が取れます<tspan fill="#222A35" font-weight="400" font-size="72" x="1256.81" y="-661">900,000</tspan><tspan fill="#222A35" font-weight="400" font-size="72" x="1550.14" y="-661">円</tspan><tspan fill="#222A35" font-weight="400" font-size="72" x="1622.33" y="-661">÷</tspan><tspan fill="#222A35" font-weight="400" font-size="96" x="1139.94" y="-526">月額</tspan><tspan fill="#222A35" font-size="129" x="1332.44" y="-526">3,990</tspan><tspan fill="#222A35" font-weight="400" font-size="72" x="1725.46" y="-526">円</tspan><tspan fill="#222A35" font-weight="400" font-size="72" x="1221.29" y="-420">＝約</tspan><tspan fill="#222A35" font-weight="400" font-size="72" x="1365.67" y="-420">226</tspan><tspan fill="#222A35" font-weight="400" font-size="72" x="1499.73" y="-420">か月分</tspan><tspan fill="#C8161D" font-size="72" x="1144.52" y="-141">約</tspan><tspan fill="#C8161D" font-size="129" x="1216.71" y="-141">19</tspan><tspan fill="#C8161D" font-size="96" x="1390.87" y="-141">年</tspan><tspan fill="#C8161D" font-size="72" x="1487.12" y="-141">に</tspan><tspan fill="#C8161D" font-size="96" x="1559.31" y="-141">1</tspan><tspan fill="#C8161D" font-size="96" x="1624.62" y="-141">件</tspan><tspan fill="#C8161D" font-size="72" x="1720.87" y="-141">の</tspan></text><path d="M1604.2 2151.4 1820.53 2151.4 2036.86 2151.4 2253.2 2151.4 2253.2 2156.4 2036.86 2156.4 1820.53 2156.4 1604.2 2156.4Z" fill="#C8161D" fill-rule="evenodd"/><text font-family="Meiryo,Meiryo_MSFontService,sans-serif" font-weight="700" font-size="72" transform="matrix(1 0 0 1 1567.84 2267)">ご成約で元が取れます<tspan fill="#222A35" font-weight="400" font-size="72" x="1222.67" y="-646">3,000,000</tspan><tspan fill="#222A35" font-weight="400" font-size="72" x="1585.9" y="-646">円</tspan><tspan fill="#222A35" font-weight="400" font-size="72" x="1658.09" y="-646">÷</tspan><tspan fill="#222A35" font-weight="400" font-size="96" x="1140.74" y="-511">月額</tspan><tspan fill="#222A35" font-size="129" x="1333.24" y="-511">7,400</tspan><tspan fill="#222A35" font-weight="400" font-size="72" x="1726.26" y="-511">円</tspan><tspan fill="#222A35" font-weight="400" font-size="72" x="1222.1" y="-405">＝約</tspan><tspan fill="#222A35" font-weight="400" font-size="72" x="1366.47" y="-405">405</tspan><tspan fill="#222A35" font-weight="400" font-size="72" x="1500.53" y="-405">か月分</tspan><tspan fill="#C8161D" font-size="72" x="1145.33" y="-126">約</tspan><tspan fill="#C8161D" font-size="129" x="1217.51" y="-126">34</tspan><tspan fill="#C8161D" font-size="96" x="1391.68" y="-126">年</tspan><tspan fill="#C8161D" font-size="72" x="1487.93" y="-126">に</tspan><tspan fill="#C8161D" font-size="96" x="1560.12" y="-126">1</tspan><tspan fill="#C8161D" font-size="96" x="1625.43" y="-126">件</tspan><tspan fill="#C8161D" font-size="72" x="1721.68" y="-126">の</tspan></text><path d="M2713.43 2151.4 2929.43 2151.4 3145.43 2151.4 3361.43 2151.4 3361.43 2156.4 3145.43 2156.4 2929.43 2156.4 2713.43 2156.4Z" fill="#C8161D" fill-rule="evenodd"/><text font-family="Meiryo,Meiryo_MSFontService,sans-serif" font-weight="700" font-size="72" transform="matrix(1 0 0 1 2676.5 2267)">ご成約で元が取れます</text><rect x="286.5" y="1290.5" width="1072" height="1104" stroke="#D9D9D9" stroke-width="4.58333" stroke-miterlimit="8" fill="none"/><rect x="1393.5" y="1290.5" width="1072" height="1104" stroke="#D9D9D9" stroke-width="4.58333" stroke-miterlimit="8" fill="none"/><rect x="2498.5" y="1290.5" width="1072" height="1104" stroke="#D9D9D9" stroke-width="4.58333" stroke-miterlimit="8" fill="none"/><text fill="#222A35" font-family="BIZ UDPGothic,BIZ UDPGothic_MSFontService,sans-serif" font-weight="700" font-size="110" transform="matrix(1 0 0 1 1704.84 185)">料金比較</text></g></svg>