<svg width="5419" height="3610" xmlns="http://www.w3.org/2000/svg" xmlns:xlink="http://www.w3.org/1999/xlink" overflow="hidden"><defs><clipPath id="clip0"><rect x="-182" y="26" width="5419" height="3610"/></clipPath></defs><g clip-path="url(#clip0)" transform="translate(182 -26)"><path d="M1240.63 275.553 2269.69 275.553 2269.69 464.223 1240.63 464.223Z" fill="#C8161D" fill-rule="evenodd"/><path d="M2269.69 275.553 3298.75 275.553 3298.75 464.223 2269.69 464.223Z" fill="#C8161D" fill-rule="evenodd"/><path d="M3298.75 275.553 4327.81 275.553 4327.81 464.223 3298.75 464.223Z" fill="#C8161D" fill-rule="evenodd"/><path d="M1240.63 464.223 2269.69 464.223 2269.69 872.828 1240.63 872.828Z" fill="#FFFFFF" fill-rule="evenodd"/><path d="M2269.69 464.223 3298.75 464.223 3298.75 872.828 2269.69 872.828Z" fill="#FFFFFF" fill-rule="evenodd"/><path d="M3298.75 464.223 4327.81 464.223 4327.81 872.828 3298.75 872.828Z" fill="#FFFFFF" fill-rule="evenodd"/><path d="M1240.63 872.828 4327.81 872.828 4327.81 1011.56 1240.63 1011.56Z" fill="#FFFFFF" fill-rule="evenodd"/><path d="M1240.63 1011.56 4327.81 1011.56 4327.81 1145.66 1240.63 1145.66Z" fill="#FFFFFF" fill-rule="evenodd"/><path d="M1240.63 1145.66 4327.81 1145.66 4327.81 1337.92 1240.63 1337.92Z" fill="#FFFFFF" fill-rule="evenodd"/><path d="M1240.63 1337.92 2269.69 1337.92 2269.69 1637.01 1240.63 1637.01Z" fill="#FFFFFF" fill-rule="evenodd"/><path d="M2269.69 1337.92 3298.75 1337.92 3298.75 1637.01 2269.69 1637.01Z" fill="#FFFFFF" fill-rule="evenodd"/><path d="M3298.75 1337.92 4327.81 1337.92 4327.81 1637.01 3298.75 1637.01Z" fill="#FFFFFF" fill-rule="evenodd"/><path d="M1240.63 1637.01 2269.69 1637.01 2269.69 2913.31 1240.63 2913.31Z" fill="#FFFFFF" fill-rule="evenodd"/><path d="M2269.69 1637.01 3298.75 1637.01 3298.75 2913.31 2269.69 2913.31Z" fill="#FFFFFF" fill-rule="evenodd"/><path d="M3298.75 1637.01 4327.81 1637.01 4327.81 2913.31 3298.75 2913.31Z" fill="#FFFFFF" fill-rule="evenodd"/><path d="M1240.63 2913.31 3298.75 2913.31 3298.75 3101.98 1240.63 3101.98Z" fill="#FFFFFF" fill-rule="evenodd"/><path d="M3298.75 2913.31 4327.81 2913.31 4327.81 3101.98 3298.75 3101.98Z" fill="#FFFFFF" fill-rule="evenodd"/><path d="M1240.63 3101.98 4327.81 3101.98 4327.81 3369.54 1240.63 3369.54Z" fill="#FFFFFF" fill-rule="evenodd"/><path d="M2269.69 270.397 2269.69 465.369" stroke="#D9D9D9" stroke-width="6.875" stroke-linejoin="round" stroke-miterlimit="10" fill="none" fill-rule="evenodd"/><path d="M2269.69 465.369 2269.69 873.974" stroke="#7F7F7F" stroke-width="2.29167" stroke-linejoin="round" stroke-miterlimit="10" fill="none" fill-rule="evenodd"/><path d="M2269.69 1336.78 2269.69 2914.46" stroke="#7F7F7F" stroke-width="2.29167" stroke-linejoin="round" stroke-miterlimit="10" fill="none" fill-rule="evenodd"/><path d="M3298.75 270.397 3298.75 465.369" stroke="#D9D9D9" stroke-width="6.875" stroke-linejoin="round" stroke-miterlimit="10" fill="none" fill-rule="evenodd"/><path d="M3298.75 465.369 3298.75 873.974" stroke="#7F7F7F" stroke-width="2.29167" stroke-linejoin="round" stroke-miterlimit="10" fill="none" fill-rule="evenodd"/><path d="M3298.75 1336.78 3298.75 3103.13" stroke="#7F7F7F" stroke-width="2.29167" stroke-linejoin="round" stroke-miterlimit="10" fill="none" fill-rule="evenodd"/><path d="M1235.48 464.223 4332.97 464.223" stroke="#7F7F7F" stroke-width="2.29167" stroke-linejoin="round" stroke-miterlimit="10" fill="none" fill-rule="evenodd"/><path d="M1235.48 872.828 4332.97 872.828" stroke="#7F7F7F" stroke-width="2.29167" stroke-linejoin="round" stroke-miterlimit="10" fill="none" fill-rule="evenodd"/><path d="M1235.48 1011.56 4332.97 1011.56" stroke="#7F7F7F" stroke-width="2.29167" stroke-linejoin="round" stroke-miterlimit="10" fill="none" fill-rule="evenodd"/><path d="M1235.48 1145.66 4332.97 1145.66" stroke="#7F7F7F" stroke-width="2.29167" stroke-linejoin="round" stroke-miterlimit="10" fill="none" fill-rule="evenodd"/><path d="M1235.48 1337.92 4332.97 1337.92" stroke="#7F7F7F" stroke-width="2.29167" stroke-linejoin="round" stroke-miterlimit="10" fill="none" fill-rule="evenodd"/><path d="M1235.48 1637.01 4332.97 1637.01" stroke="#7F7F7F" stroke-width="2.29167" stroke-linejoin="round" stroke-miterlimit="10" fill="none" fill-rule="evenodd"/><path d="M1235.48 2913.31 4332.97 2913.31" stroke="#7F7F7F" stroke-width="2.29167" stroke-linejoin="round" stroke-miterlimit="10" fill="none" fill-rule="evenodd"/><path d="M1235.48 3101.98 4332.97 3101.98" stroke="#7F7F7F" stroke-width="2.29167" stroke-linejoin="round" stroke-miterlimit="10" fill="none" fill-rule="evenodd"/><path d="M1240.63 270.397 1240.63 3374.69" stroke="#C8161D" stroke-width="10.3125" stroke-linejoin="round" stroke-miterlimit="10" fill="none" fill-rule="evenodd"/><path d="M4327.81 270.397 4327.81 3374.69" stroke="#C8161D" stroke-width="10.3125" stroke-linejoin="round" stroke-miterlimit="10" fill="none" fill-rule="evenodd"/><path d="M1235.48 275.553 4332.97 275.553" stroke="#C8161D" stroke-width="10.3125" stroke-linejoin="round" stroke-miterlimit="10" fill="none" fill-rule="evenodd"/><path d="M1235.48 3369.54 4332.97 3369.54" stroke="#C8161D" stroke-width="10.3125" stroke-linejoin="round" stroke-miterlimit="10" fill="none" fill-rule="evenodd"/><text fill="#FFFFFF" font-family="BIZ UDPGothic,BIZ UDPGothic_MSFontService,sans-serif" font-weight="700" font-size="92" transform="matrix(1 0 0 1 1420.58 412)">エントリープラン<tspan font-size="92" x="978.07" y="0">スタンダードプラン</tspan><tspan font-size="92" x="2050.67" y="0">プレミアムプラン</tspan><tspan fill="#000000" font-weight="400" font-size="64" x="22.3438" y="204">月額</tspan><tspan fill="#000000" font-size="128" x="150.677" y="204">2,980</tspan><tspan fill="#000000" font-weight="400" font-size="64" x="582.656" y="204">円</tspan><tspan fill="#000000" font-weight="400" font-size="64" x="238.333" y="291">（税抜）</tspan><tspan fill="#000000" font-weight="400" font-size="64" x="10.3125" y="434">年間</tspan><tspan fill="#222A35" font-weight="400" font-size="64" x="138.646" y="434">39,336</tspan><tspan fill="#222A35" font-weight="400" font-size="64" x="402.188" y="434">円（税込）</tspan><tspan fill="#000000" font-weight="400" font-size="64" x="1051.42" y="204">月額</tspan><tspan fill="#000000" font-size="128" x="1179.75" y="204">7,980</tspan><tspan fill="#000000" font-weight="400" font-size="64" x="1611.73" y="204">円</tspan><tspan fill="#000000" font-weight="400" font-size="64" x="1267.4" y="291">（税抜）</tspan><tspan fill="#000000" font-weight="400" font-size="64" x="1019.03" y="434">年間</tspan><tspan fill="#222A35" font-weight="400" font-size="64" x="1147.37" y="434">105,336</tspan><tspan fill="#222A35" font-weight="400" font-size="64" x="1451.59" y="434">円（税込）</tspan><tspan fill="#000000" font-weight="400" font-size="64" x="2024.03" y="204">月額</tspan><tspan fill="#000000" font-size="128" x="2152.36" y="204">１４，８００</tspan><tspan fill="#000000" font-weight="400" font-size="64" x="2697.21" y="204">円</tspan><tspan fill="#000000" font-weight="400" font-size="64" x="2296.47" y="291">（税抜）</tspan><tspan fill="#000000" font-weight="400" font-size="64" x="2048.09" y="434">年間</tspan><tspan fill="#222A35" font-weight="400" font-size="64" x="2176.43" y="434">195,360</tspan><tspan fill="#222A35" font-weight="400" font-size="64" x="2480.65" y="434">円（税込）</tspan><tspan fill="#000000" font-weight="400" font-size="64" x="1161.98" y="545">クレジット決済</tspan><tspan fill="#000000" font-weight="400" font-size="64" x="1275.7" y="684">12</tspan><tspan fill="#000000" font-weight="400" font-size="64" x="1365.08" y="684">ヶ月</tspan><tspan fill="#000000" font-weight="400" font-size="55" x="1527.21" y="684">※</tspan><tspan fill="#000000" font-weight="400" font-size="55" x="1582.21" y="684">年額一括前払い</tspan><tspan fill="#000000" font-weight="400" font-size="64" x="994.685" y="859">法人の方・個人事業主の方</tspan><tspan fill="#FF0000" font-size="83" x="62.1614" y="1029">500</tspan><tspan fill="#FF0000" font-size="83" x="249.505" y="1029">万円</tspan><tspan fill="#000000" font-weight="400" font-size="64" x="414.505" y="1029">以内の</tspan><tspan fill="#000000" font-weight="400" font-size="64" x="206.261" y="1186">譲渡案件</tspan><tspan fill="#FF0000" font-size="83" x="1078.33" y="1029">3,000</tspan><tspan fill="#FF0000" font-size="83" x="1355.62" y="1029">万円</tspan><tspan fill="#000000" font-weight="400" font-size="64" x="1520.62" y="1029">以内</tspan><tspan fill="#000000" font-weight="400" font-size="64" x="1203.23" y="1186">の譲渡案件</tspan><tspan fill="#FF0000" font-size="83" x="2238.3" y="1029">すべて</tspan><tspan fill="#000000" font-weight="400" font-size="64" x="2482.94" y="1029">の</tspan><tspan fill="#000000" font-weight="400" font-size="64" x="2264.38" y="1186">譲渡案件</tspan><tspan fill="#000000" font-weight="400" font-size="64" x="110" y="1310">譲渡案件の検索</tspan><tspan fill="#000000" font-weight="400" font-size="64" x="110" y="1464">案件情報の閲覧</tspan><tspan fill="#000000" font-weight="400" font-size="64" x="206.25" y="1618">交渉申込</tspan><tspan fill="#000000" font-weight="400" font-size="64" x="83.6456" y="1772">売り手企業様との</tspan><tspan fill="#000000" font-weight="400" font-size="64" x="122.604" y="1849">メッセージ交換</tspan><tspan fill="#000000" font-weight="400" font-size="64" x="82.2019" y="2003">自社のニーズ登録</tspan><tspan fill="#000000" font-weight="400" font-size="64" x="-114.011" y="2157">売り手企業様からの案件提案</tspan><tspan fill="#000000" font-weight="400" font-size="55" x="728.177" y="2157">※</tspan><tspan fill="#000000" font-weight="400" font-size="64" x="46.406" y="2311">専門家への支援依頼</tspan><tspan fill="#000000" font-weight="400" font-size="64" x="1139.06" y="1310">譲渡案件の検索</tspan><tspan fill="#000000" font-weight="400" font-size="64" x="1139.06" y="1464">案件情報の閲覧</tspan><tspan fill="#000000" font-weight="400" font-size="64" x="1235.31" y="1618">交渉申込</tspan><tspan fill="#000000" font-weight="400" font-size="64" x="1112.71" y="1772">売り手企業様との</tspan><tspan fill="#000000" font-weight="400" font-size="64" x="1151.66" y="1849">メッセージ交換</tspan><tspan fill="#000000" font-weight="400" font-size="64" x="1111.26" y="2003">自社のニーズ登録</tspan><tspan fill="#000000" font-weight="400" font-size="64" x="915.049" y="2157">売り手企業様からの案件提案</tspan><tspan fill="#000000" font-weight="400" font-size="55" x="1757.24" y="2157">※</tspan><tspan fill="#000000" font-weight="400" font-size="64" x="1075.47" y="2311">専門家への支援依頼</tspan><tspan fill="#000000" font-weight="400" font-size="64" x="2168.12" y="1310">譲渡案件の検索</tspan><tspan fill="#000000" font-weight="400" font-size="64" x="2168.12" y="1464">案件情報の閲覧</tspan><tspan fill="#000000" font-weight="400" font-size="64" x="2264.37" y="1618">交渉申込</tspan><tspan fill="#000000" font-weight="400" font-size="64" x="2141.77" y="1772">売り手企業様との</tspan><tspan fill="#000000" font-weight="400" font-size="64" x="2180.72" y="1849">メッセージ交換</tspan><tspan fill="#000000" font-weight="400" font-size="64" x="2140.32" y="2003">自社のニーズ登録</tspan><tspan fill="#000000" font-weight="400" font-size="64" x="1944.11" y="2157">売り手企業様からの案件提案</tspan><tspan fill="#000000" font-weight="400" font-size="55" x="2786.3" y="2157">※</tspan><tspan fill="#000000" font-weight="400" font-size="64" x="2104.53" y="2311">専門家への支援依頼</tspan><tspan fill="#FF0000" font-weight="400" font-size="64" x="2008.55" y="2465">非公開の譲渡案件のご紹介</tspan><tspan fill="#000000" font-weight="400" font-size="64" x="575.546" y="2625">メールでのサポート</tspan><tspan fill="#000000" font-weight="400" font-size="64" x="2014.01" y="2587">メール・オンライン面談での</tspan><tspan fill="#000000" font-weight="400" font-size="64" x="2274.68" y="2664">サポート</tspan><tspan fill="#000000" font-weight="400" font-size="64" x="977.796" y="2815">会員登録後、マイページより</tspan><tspan fill="#000000" font-weight="400" font-size="64" x="709.373" y="2892">プラン申込いただくとご利用開始いただけます</tspan></text><path d="M-167.333 275.553 467.727 275.553 467.727 468.742-167.333 468.742Z" fill="#D9D9D9" fill-rule="evenodd"/><path d="M-167.333 468.742 467.727 468.742 467.727 867.6-167.333 867.6Z" fill="#D9D9D9" fill-rule="evenodd"/><path d="M-167.333 867.6 467.727 867.6 467.727 1009.65-167.333 1009.65Z" fill="#D9D9D9" fill-rule="evenodd"/><path d="M-167.333 1009.65 467.727 1009.65 467.727 1144.96-167.333 1144.96Z" fill="#D9D9D9" fill-rule="evenodd"/><path d="M-167.333 1144.96 467.727 1144.96 467.727 1338.15-167.333 1338.15Z" fill="#D9D9D9" fill-rule="evenodd"/><path d="M-167.333 1338.15 467.727 1338.15 467.727 1636.94-167.333 1636.94Z" fill="#D9D9D9" fill-rule="evenodd"/><path d="M-167.333 1636.94 467.727 1636.94 467.727 2908.79-167.333 2908.79Z" fill="#D9D9D9" fill-rule="evenodd"/><path d="M-167.333 2908.79 467.727 2908.79 467.727 3096.8-167.333 3096.8Z" fill="#D9D9D9" fill-rule="evenodd"/><path d="M-167.333 3096.8 467.727 3096.8 467.727 3369.54-167.333 3369.54Z" fill="#D9D9D9" fill-rule="evenodd"/><path d="M-168.479 468.742 468.873 468.742" stroke="#7F7F7F" stroke-width="2.29167" stroke-linejoin="round" stroke-miterlimit="10" fill="none" fill-rule="evenodd"/><path d="M-168.479 867.6 468.873 867.6" stroke="#7F7F7F" stroke-width="2.29167" stroke-linejoin="round" stroke-miterlimit="10" fill="none" fill-rule="evenodd"/><path d="M-168.479 1009.65 468.873 1009.65" stroke="#7F7F7F" stroke-width="2.29167" stroke-linejoin="round" stroke-miterlimit="10" fill="none" fill-rule="evenodd"/><path d="M-168.479 1144.96 468.873 1144.96" stroke="#7F7F7F" stroke-width="2.29167" stroke-linejoin="round" stroke-miterlimit="10" fill="none" fill-rule="evenodd"/><path d="M-168.479 1338.15 468.873 1338.15" stroke="#7F7F7F" stroke-width="2.29167" stroke-linejoin="round" stroke-miterlimit="10" fill="none" fill-rule="evenodd"/><path d="M-168.479 1636.94 468.873 1636.94" stroke="#7F7F7F" stroke-width="2.29167" stroke-linejoin="round" stroke-miterlimit="10" fill="none" fill-rule="evenodd"/><path d="M-168.479 2908.79 468.873 2908.79" stroke="#7F7F7F" stroke-width="2.29167" stroke-linejoin="round" stroke-miterlimit="10" fill="none" fill-rule="evenodd"/><path d="M-168.479 3096.8 468.873 3096.8" stroke="#7F7F7F" stroke-width="2.29167" stroke-linejoin="round" stroke-miterlimit="10" fill="none" fill-rule="evenodd"/><path d="M-167.333 274.407-167.333 3370.68" stroke="#7F7F7F" stroke-width="2.29167" stroke-linejoin="round" stroke-miterlimit="10" fill="none" fill-rule="evenodd"/><path d="M467.727 274.407 467.727 3370.68" stroke="#7F7F7F" stroke-width="2.29167" stroke-linejoin="round" stroke-miterlimit="10" fill="none" fill-rule="evenodd"/><path d="M-168.479 275.553 468.873 275.553" stroke="#7F7F7F" stroke-width="2.29167" stroke-linejoin="round" stroke-miterlimit="10" fill="none" fill-rule="evenodd"/><path d="M-168.479 3369.54 468.873 3369.54" stroke="#7F7F7F" stroke-width="2.29167" stroke-linejoin="round" stroke-miterlimit="10" fill="none" fill-rule="evenodd"/><text font-family="BIZ UDPGothic,BIZ UDPGothic_MSFontService,sans-serif" font-weight="400" font-size="64" transform="matrix(1 0 0 1 27.5928 363)">プラン名<tspan font-size="64" x="58.4375" y="190">価格</tspan><tspan font-size="64" x="-69.3231" y="589">お支払い方法</tspan><tspan font-size="64" x="-5.72917" y="731">契約期間</tspan><tspan font-size="64" x="27.2248" y="866">ご利用</tspan><tspan font-size="64" x="-67.0314" y="943">いただける方</tspan><tspan font-size="64" x="-37.2398" y="1060">交渉可能な</tspan><tspan font-size="64" x="-5.72935" y="1214">譲渡案件</tspan><tspan font-size="64" x="58.4375" y="1358">機能</tspan><tspan font-size="64" x="4.58333" y="2631">サポート</tspan><tspan font-size="64" x="-36.9532" y="2823">ご利用方法</tspan></text><path d="M498.511 275.553 1210 275.553 1210 466.442 498.511 466.442Z" fill="#70AD47" fill-rule="evenodd"/><path d="M498.511 466.442 1210 466.442 1210 866.516 498.511 866.516Z" fill="#FFFFFF" fill-rule="evenodd"/><path d="M498.511 866.516 1210 866.516 1210 1005.38 498.511 1005.38Z" fill="#FFFFFF" fill-rule="evenodd"/><path d="M498.511 1005.38 1210 1005.38 1210 1141.99 498.511 1141.99Z" fill="#FFFFFF" fill-rule="evenodd"/><path d="M498.511 1141.99 1210 1141.99 1210 1337.33 498.511 1337.33Z" fill="#FFFFFF" fill-rule="evenodd"/><path d="M498.511 1337.33 1210 1337.33 1210 1636.93 498.511 1636.93Z" fill="#FFFFFF" fill-rule="evenodd"/><path d="M498.511 1636.93 1210 1636.93 1210 2913.71 498.511 2913.71Z" fill="#FFFFFF" fill-rule="evenodd"/><path d="M498.511 2913.71 1210 2913.71 1210 3100.05 498.511 3100.05Z" fill="#FFFFFF" fill-rule="evenodd"/><path d="M498.511 3100.05 1210 3100.05 1210 3369.54 498.511 3369.54Z" fill="#FFFFFF" fill-rule="evenodd"/><path d="M493.355 466.442 1215.16 466.442" stroke="#7F7F7F" stroke-width="2.29167" stroke-linejoin="round" stroke-miterlimit="10" fill="none" fill-rule="evenodd"/><path d="M493.355 866.516 1215.16 866.516" stroke="#7F7F7F" stroke-width="2.29167" stroke-linejoin="round" stroke-miterlimit="10" fill="none" fill-rule="evenodd"/><path d="M493.355 1005.38 1215.16 1005.38" stroke="#7F7F7F" stroke-width="2.29167" stroke-linejoin="round" stroke-miterlimit="10" fill="none" fill-rule="evenodd"/><path d="M493.355 1141.99 1215.16 1141.99" stroke="#7F7F7F" stroke-width="2.29167" stroke-linejoin="round" stroke-miterlimit="10" fill="none" fill-rule="evenodd"/><path d="M493.355 1337.33 1215.16 1337.33" stroke="#7F7F7F" stroke-width="2.29167" stroke-linejoin="round" stroke-miterlimit="10" fill="none" fill-rule="evenodd"/><path d="M493.355 1636.93 1215.16 1636.93" stroke="#7F7F7F" stroke-width="2.29167" stroke-linejoin="round" stroke-miterlimit="10" fill="none" fill-rule="evenodd"/><path d="M493.355 2913.71 1215.16 2913.71" stroke="#7F7F7F" stroke-width="2.29167" stroke-linejoin="round" stroke-miterlimit="10" fill="none" fill-rule="evenodd"/><path d="M493.355 3100.05 1215.16 3100.05" stroke="#7F7F7F" stroke-width="2.29167" stroke-linejoin="round" stroke-miterlimit="10" fill="none" fill-rule="evenodd"/><path d="M498.511 270.396 498.511 3374.69" stroke="#70AD47" stroke-width="10.3125" stroke-linejoin="round" stroke-miterlimit="10" fill="none" fill-rule="evenodd"/><path d="M1210 270.396 1210 3374.69" stroke="#70AD47" stroke-width="10.3125" stroke-linejoin="round" stroke-miterlimit="10" fill="none" fill-rule="evenodd"/><path d="M493.355 275.553 1215.16 275.553" stroke="#70AD47" stroke-width="10.3125" stroke-linejoin="round" stroke-miterlimit="10" fill="none" fill-rule="evenodd"/><path d="M493.355 3369.54 1215.16 3369.54" stroke="#70AD47" stroke-width="10.3125" stroke-linejoin="round" stroke-miterlimit="10" fill="none" fill-rule="evenodd"/><text fill="#FFFFFF" font-family="BIZ UDPGothic,BIZ UDPGothic_MSFontService,sans-serif" font-weight="700" font-size="92" transform="matrix(1 0 0 1 558.344 413)">スタートプラン<tspan fill="#000000" font-weight="400" font-size="128" x="215.13" y="234">0</tspan><tspan fill="#000000" font-weight="400" font-size="64" x="312.526" y="234">円</tspan><tspan fill="#000000" font-weight="400" font-size="64" x="264.974" y="552">ー</tspan><tspan fill="#000000" font-weight="400" font-size="64" x="264.974" y="690">ー</tspan><tspan fill="#000000" font-weight="400" font-size="64" x="167.578" y="818">法人の方</tspan><tspan fill="#000000" font-weight="400" font-size="64" x="71.328" y="895">個人事業主の方</tspan><tspan fill="#000000" font-weight="400" font-size="64" x="264.974" y="1104">ー</tspan><tspan fill="#000000" font-weight="400" font-size="64" x="71.3395" y="1314">譲渡案件の検索</tspan><tspan fill="#000000" font-weight="400" font-size="64" x="71.3395" y="1468">案件情報の</tspan><tspan fill="#000000" font-weight="400" font-size="64" x="392.173" y="1468">閲覧</tspan><tspan fill="#000000" font-weight="400" font-size="64" x="43.5416" y="1622">自社のニーズ登録</tspan><tspan fill="#000000" font-weight="400" font-size="64" x="264.974" y="2623">ー</tspan><tspan fill="#000000" font-weight="400" font-size="64" x="72.4739" y="2774">会員登録のみで</tspan><tspan fill="#000000" font-weight="400" font-size="64" x="136.343" y="2851">ご利用開始</tspan><tspan fill="#000000" font-weight="400" font-size="64" x="108.843" y="2928">いただけます</tspan></text><path d="M4358.68 272.03 5225.83 272.03 5225.83 465.561 4358.68 465.561Z" fill="#0070C0" fill-rule="evenodd"/><path d="M4358.68 465.561 5225.83 465.561 5225.83 876.191 4358.68 876.191Z" fill="#FFFFFF" fill-rule="evenodd"/><path d="M4358.68 876.191 5225.83 876.191 5225.83 1011.56 4358.68 1011.56Z" fill="#FFFFFF" fill-rule="evenodd"/><path d="M4358.68 1011.56 5225.83 1011.56 5225.83 1144.88 4358.68 1144.88Z" fill="#FFFFFF" fill-rule="evenodd"/><path d="M4358.68 1144.88 5225.83 1144.88 5225.83 1338.41 4358.68 1338.41Z" fill="#FFFFFF" fill-rule="evenodd"/><path d="M4358.68 1338.41 5225.83 1338.41 5225.83 1635.41 4358.68 1635.41Z" fill="#FFFFFF" fill-rule="evenodd"/><path d="M4358.68 1635.41 5225.83 1635.41 5225.83 2911.41 4358.68 2911.41Z" fill="#FFFFFF" fill-rule="evenodd"/><path d="M4358.68 2911.41 5225.83 2911.41 5225.83 3098.41 4358.68 3098.41Z" fill="#FFFFFF" fill-rule="evenodd"/><path d="M4358.68 3098.41 5225.83 3098.41 5225.83 3366.01 4358.68 3366.01Z" fill="#FFFFFF" fill-rule="evenodd"/><path d="M4353.53 465.561 5230.99 465.561" stroke="#7F7F7F" stroke-width="2.29167" stroke-linejoin="round" stroke-miterlimit="10" fill="none" fill-rule="evenodd"/><path d="M4353.53 876.191 5230.99 876.191" stroke="#7F7F7F" stroke-width="2.29167" stroke-linejoin="round" stroke-miterlimit="10" fill="none" fill-rule="evenodd"/><path d="M4353.53 1011.56 5230.99 1011.56" stroke="#7F7F7F" stroke-width="2.29167" stroke-linejoin="round" stroke-miterlimit="10" fill="none" fill-rule="evenodd"/><path d="M4353.53 1144.88 5230.99 1144.88" stroke="#7F7F7F" stroke-width="2.29167" stroke-linejoin="round" stroke-miterlimit="10" fill="none" fill-rule="evenodd"/><path d="M4353.53 1338.41 5230.99 1338.41" stroke="#7F7F7F" stroke-width="2.29167" stroke-linejoin="round" stroke-miterlimit="10" fill="none" fill-rule="evenodd"/><path d="M4353.53 1635.41 5230.99 1635.41" stroke="#7F7F7F" stroke-width="2.29167" stroke-linejoin="round" stroke-miterlimit="10" fill="none" fill-rule="evenodd"/><path d="M4353.53 2911.41 5230.99 2911.41" stroke="#7F7F7F" stroke-width="2.29167" stroke-linejoin="round" stroke-miterlimit="10" fill="none" fill-rule="evenodd"/><path d="M4353.53 3098.41 5230.99 3098.41" stroke="#7F7F7F" stroke-width="2.29167" stroke-linejoin="round" stroke-miterlimit="10" fill="none" fill-rule="evenodd"/><path d="M4358.68 266.874 4358.68 3371.17" stroke="#2E75B6" stroke-width="10.3125" stroke-linejoin="round" stroke-miterlimit="10" fill="none" fill-rule="evenodd"/><path d="M5225.83 266.874 5225.83 3371.17" stroke="#2E75B6" stroke-width="10.3125" stroke-linejoin="round" stroke-miterlimit="10" fill="none" fill-rule="evenodd"/><path d="M4353.53 272.03 5230.99 272.03" stroke="#2E75B6" stroke-width="10.3125" stroke-linejoin="round" stroke-miterlimit="10" fill="none" fill-rule="evenodd"/><path d="M4353.53 3366.01 5230.99 3366.01" stroke="#2E75B6" stroke-width="10.3125" stroke-linejoin="round" stroke-miterlimit="10" fill="none" fill-rule="evenodd"/><text fill="#FFFFFF" font-family="BIZ UDPGothic,BIZ UDPGothic_MSFontService,sans-serif" font-weight="700" font-size="92" transform="matrix(1 0 0 1 4431.89 411)">成功報酬型プラン<tspan fill="#000000" font-weight="400" font-size="64" x="215.417" y="206">月額</tspan><tspan fill="#000000" font-weight="400" font-size="128" x="343.75" y="206">0</tspan><tspan fill="#000000" font-weight="400" font-size="64" x="441.146" y="206">円</tspan><tspan fill="#000000" font-weight="400" font-size="64" x="200.521" y="359">成約時のみ</tspan><tspan fill="#000000" font-weight="400" font-size="64" x="-19.4795" y="436">譲渡価格に応じてお支払い</tspan><tspan fill="#000000" font-weight="400" font-size="64" x="199.947" y="550">請求書払い</tspan><tspan fill="#000000" font-weight="400" font-size="64" x="329.427" y="685">ー</tspan><tspan fill="#000000" font-weight="400" font-size="64" x="168.438" y="860">法人の方のみ</tspan><tspan fill="#FF0000" font-size="83" x="77.6182" y="1031">すべて</tspan><tspan fill="#000000" font-weight="400" font-size="64" x="322.254" y="1031">の譲渡案件</tspan><tspan fill="#FF0000" font-size="73" x="-24.6357" y="1197">国内・海外の非公開案件</tspan><tspan fill="#000000" font-weight="400" font-size="64" x="135.677" y="1309">譲渡案件の検索</tspan><tspan fill="#000000" font-weight="400" font-size="64" x="135.677" y="1463">案件情報の閲覧</tspan><tspan fill="#000000" font-weight="400" font-size="64" x="231.927" y="1617">交渉申込</tspan><tspan fill="#FF0000" font-weight="400" font-size="64" x="80.3789" y="1771">貴社ニーズに合った</tspan><tspan fill="#FF0000" font-weight="400" font-size="64" x="104.441" y="1848">譲渡案件のご紹介</tspan><tspan fill="#000000" font-weight="400" font-size="64" x="135.781" y="2585">個社営業担当が</tspan><tspan fill="#000000" font-weight="400" font-size="64" x="91.0933" y="2662">サポートいたします</tspan><tspan fill="#000000" font-weight="400" font-size="64" x="168.724" y="2812">会員登録後に</tspan><tspan fill="#000000" font-weight="400" font-size="64" x="78.7759" y="2889">お問合わせください</tspan></text><rect x="1241.5" y="29.5001" width="3087" height="247" stroke="#C8161D" stroke-width="6.875" stroke-miterlimit="8" fill="#FFFFFF"/><text fill="#C8161D" font-family="BIZ UDPGothic,BIZ UDPGothic_MSFontService,sans-serif" font-weight="400" font-size="83" transform="matrix(1 0 0 1 2434.51 190)">さっそく使ってみる</text><rect x="4358.5" y="29.5001" width="868" height="243" stroke="#2E75B6" stroke-width="6.875" stroke-miterlimit="8" fill="#FFFFFF"/><text fill="#2E75B6" font-family="BIZ UDPGothic,BIZ UDPGothic_MSFontService,sans-serif" font-weight="400" font-size="83" transform="matrix(1 0 0 1 4508.98 188)">必要な時に使う</text><rect x="499.5" y="29.5001" width="711" height="243" stroke="#70AD47" stroke-width="6.875" stroke-miterlimit="8" fill="#FFFFFF"/><text fill="#70AD47" font-family="BIZ UDPGothic,BIZ UDPGothic_MSFontService,sans-serif" font-weight="400" font-size="83" transform="matrix(1 0 0 1 775.204 138)">まず<tspan font-size="83" x="-117.173" y="99">試してみる</tspan></text><path d="M1241.5 3398.39C1241.5 3396.79 1242.79 3395.5 1244.39 3395.5L4325.61 3395.5C4327.21 3395.5 4328.5 3396.79 4328.5 3398.39L4328.5 3623.61C4328.5 3625.21 4327.21 3626.5 4325.61 3626.5L1244.39 3626.5C1242.79 3626.5 1241.5 3625.21 1241.5 3623.61Z" stroke="#C8161D" stroke-width="6.875" stroke-miterlimit="8" fill="#FFFFFF" fill-rule="evenodd"/><text fill="#C8161D" font-family="BIZ UDPGothic,BIZ UDPGothic_MSFontService,sans-serif" font-weight="700" font-size="80" transform="matrix(1 0 0 1 1927.43 3509)">アップグレードは契約期間中いつでも可能です！<tspan font-size="64" x="279.011" y="79">（ダウングレード・解約は契約更新月のみ）</tspan><tspan fill="#000000" font-weight="400" font-size="55" x="-2075.51" y="-37">※ </tspan><tspan fill="#000000" font-weight="400" font-size="55" x="-2002.18" y="-37">リリース予定</tspan></text></g></svg>