<svg width="3194" height="2065" xmlns="http://www.w3.org/2000/svg" xmlns:xlink="http://www.w3.org/1999/xlink" overflow="hidden"><defs><clipPath id="clip0"><rect x="518" y="377" width="3194" height="2065"/></clipPath></defs><g clip-path="url(#clip0)" transform="translate(-518 -377)"><path d="M2692.66 506.649 3706.74 506.649 3706.74 905.581 2692.66 905.581Z" fill="#F2F2F2" fill-rule="evenodd"/><path d="M2690.37 905.581 3709.04 905.581" stroke="#BFBFBF" stroke-width="4.58333" stroke-linejoin="round" stroke-miterlimit="10" fill="none" fill-rule="evenodd"/><path d="M2690.37 1415.92 3709.04 1415.92" stroke="#D9D9D9" stroke-width="4.58333" stroke-linejoin="round" stroke-miterlimit="10" fill="none" fill-rule="evenodd"/><path d="M2690.37 1926.26 3709.04 1926.26" stroke="#D9D9D9" stroke-width="4.58333" stroke-linejoin="round" stroke-miterlimit="10" fill="none" fill-rule="evenodd"/><path d="M2692.66 504.357 2692.66 2438.89" stroke="#BFBFBF" stroke-width="4.58333" stroke-linejoin="round" stroke-miterlimit="10" fill="none" fill-rule="evenodd"/><path d="M3706.74 504.357 3706.74 2438.89" stroke="#BFBFBF" stroke-width="4.58333" stroke-linejoin="round" stroke-miterlimit="10" fill="none" fill-rule="evenodd"/><path d="M2690.37 506.649 3709.04 506.649" stroke="#BFBFBF" stroke-width="4.58333" stroke-linejoin="round" stroke-miterlimit="10" fill="none" fill-rule="evenodd"/><path d="M2690.37 2436.6 3709.04 2436.6" stroke="#BFBFBF" stroke-width="4.58333" stroke-linejoin="round" stroke-miterlimit="10" fill="none" fill-rule="evenodd"/><text fill="#7F7F7F" font-family="BIZ UDPGothic,BIZ UDPGothic_MSFontService,sans-serif" font-weight="700" font-size="91" transform="matrix(1 0 0 1 3073.66 748)">他社<tspan font-size="91" x="182.188" y="0">B</tspan><tspan font-weight="400" font-size="83" x="2.30322" y="351">着手金</tspan><tspan fill="#000000" font-weight="400" font-size="83" x="-44.9739" y="549">100</tspan><tspan fill="#000000" font-weight="400" font-size="83" x="132.057" y="549">万円</tspan><tspan font-weight="400" font-size="83" x="-38.958" y="862">中間報酬</tspan><tspan fill="#000000" font-weight="400" font-size="83" x="-323.698" y="1060">成功報酬の</tspan><tspan fill="#000000" font-weight="400" font-size="83" x="88.8023" y="1060">10%</tspan><tspan fill="#000000" font-weight="400" font-size="83" x="285.886" y="1060">〜</tspan><tspan fill="#000000" font-weight="400" font-size="83" x="368.386" y="1060">20%</tspan><tspan font-weight="400" font-size="83" x="-38.9468" y="1372">成功報酬</tspan><tspan fill="#000000" font-weight="400" font-size="83" x="-152.682" y="1570">譲渡対価の</tspan><tspan fill="#000000" font-weight="400" font-size="83" x="259.818" y="1570">5%</tspan></text><path d="M1606.48 379.884 2620.57 379.884 2620.57 805.019 1606.48 805.019Z" fill="#C8161D" fill-rule="evenodd"/><path d="M1604.19 1348.88 2622.86 1348.88" stroke="#D9D9D9" stroke-width="4.58333" stroke-linejoin="round" stroke-miterlimit="10" fill="none" fill-rule="evenodd"/><path d="M1604.19 1892.74 2622.86 1892.74" stroke="#D9D9D9" stroke-width="4.58333" stroke-linejoin="round" stroke-miterlimit="10" fill="none" fill-rule="evenodd"/><path d="M1606.48 377.592 1606.48 2438.89" stroke="#BFBFBF" stroke-width="4.58333" stroke-linejoin="round" stroke-miterlimit="10" fill="none" fill-rule="evenodd"/><path d="M2620.57 377.592 2620.57 2438.89" stroke="#BFBFBF" stroke-width="4.58333" stroke-linejoin="round" stroke-miterlimit="10" fill="none" fill-rule="evenodd"/><path d="M1604.19 379.884 2622.86 379.884" stroke="#BFBFBF" stroke-width="4.58333" stroke-linejoin="round" stroke-miterlimit="10" fill="none" fill-rule="evenodd"/><path d="M1604.19 2436.6 2622.86 2436.6" stroke="#BFBFBF" stroke-width="4.58333" stroke-linejoin="round" stroke-miterlimit="10" fill="none" fill-rule="evenodd"/><text fill="#FFFFFF" font-family="BIZ UDPGothic,BIZ UDPGothic_MSFontService,sans-serif" font-weight="700" font-size="128" transform="matrix(1 0 0 1 1723.08 575)">M&amp;A PARK<tspan fill="#7F7F7F" font-weight="400" font-size="83" x="266.693" y="424">着手金</tspan><tspan fill="#C8161D" font-size="110" x="287.593" y="651">なし</tspan><tspan fill="#7F7F7F" font-weight="400" font-size="83" x="225.443" y="968">中間報酬</tspan><tspan fill="#C8161D" font-size="110" x="287.593" y="1195">なし</tspan><tspan fill="#7F7F7F" font-weight="400" font-size="83" x="225.443" y="1512">成功報酬</tspan><tspan fill="#C8161D" font-size="110" x="287.593" y="1739">なし</tspan></text><path d="M520.308 506.649 1534.4 506.649 1534.4 905.581 520.308 905.581Z" fill="#F2F2F2" fill-rule="evenodd"/><path d="M518.017 905.581 1536.69 905.581" stroke="#BFBFBF" stroke-width="4.58333" stroke-linejoin="round" stroke-miterlimit="10" fill="none" fill-rule="evenodd"/><path d="M518.017 1415.92 1536.69 1415.92" stroke="#D9D9D9" stroke-width="4.58333" stroke-linejoin="round" stroke-miterlimit="10" fill="none" fill-rule="evenodd"/><path d="M518.017 1926.26 1536.69 1926.26" stroke="#D9D9D9" stroke-width="4.58333" stroke-linejoin="round" stroke-miterlimit="10" fill="none" fill-rule="evenodd"/><path d="M520.308 504.357 520.308 2438.89" stroke="#BFBFBF" stroke-width="4.58333" stroke-linejoin="round" stroke-miterlimit="10" fill="none" fill-rule="evenodd"/><path d="M1534.4 504.357 1534.4 2438.89" stroke="#BFBFBF" stroke-width="4.58333" stroke-linejoin="round" stroke-miterlimit="10" fill="none" fill-rule="evenodd"/><path d="M518.017 506.649 1536.69 506.649" stroke="#BFBFBF" stroke-width="4.58333" stroke-linejoin="round" stroke-miterlimit="10" fill="none" fill-rule="evenodd"/><path d="M518.017 2436.6 1536.69 2436.6" stroke="#BFBFBF" stroke-width="4.58333" stroke-linejoin="round" stroke-miterlimit="10" fill="none" fill-rule="evenodd"/><text fill="#7F7F7F" font-family="BIZ UDPGothic,BIZ UDPGothic_MSFontService,sans-serif" font-weight="700" font-size="91" transform="matrix(1 0 0 1 900.737 748)">他社<tspan font-size="91" x="182.188" y="0">A</tspan><tspan font-weight="400" font-size="83" x="2.86444" y="351">着手金</tspan><tspan fill="#000000" font-weight="400" font-size="83" x="44.1144" y="549">無料</tspan><tspan font-weight="400" font-size="83" x="-38.3856" y="862">中間報酬</tspan><tspan fill="#000000" font-weight="400" font-size="83" x="-178.177" y="1060">成功報酬の</tspan><tspan fill="#000000" font-weight="400" font-size="83" x="234.323" y="1060">10%</tspan><tspan font-weight="400" font-size="83" x="-38.374" y="1372">成功報酬</tspan><tspan fill="#000000" font-weight="400" font-size="83" x="-234.609" y="1570">株式譲渡対価の</tspan><tspan fill="#000000" font-weight="400" font-size="83" x="342.891" y="1570">5%</tspan></text><path d="M1724.5 659.501C1724.5 639.066 1741.07 622.5 1761.5 622.5L2466.5 622.5C2486.93 622.5 2503.5 639.066 2503.5 659.501L2503.5 807.499C2503.5 827.934 2486.93 844.5 2466.5 844.5L1761.5 844.5C1741.07 844.5 1724.5 827.934 1724.5 807.499Z" stroke="#C8161D" stroke-width="4.58333" stroke-miterlimit="8" fill="#FFFFFF" fill-rule="evenodd"/><text font-family="BIZ UDPGothic,BIZ UDPGothic_MSFontService,sans-serif" font-weight="400" font-size="73" transform="matrix(1 0 0 1 1788.68 711)">譲渡対価に関わらず<tspan fill="#C00000" font-size="92" x="141.511" y="108">完全無料</tspan></text></g></svg>