<svg width="3402" height="2436" xmlns="http://www.w3.org/2000/svg" xmlns:xlink="http://www.w3.org/1999/xlink" overflow="hidden"><defs><clipPath id="clip0"><rect x="305" y="295" width="3402" height="2436"/></clipPath></defs><g clip-path="url(#clip0)" transform="translate(-305 -295)"><rect x="308.5" y="485.5" width="1079" height="1821" stroke="#D9D9D9" stroke-width="6.875" stroke-miterlimit="8" fill="none"/><path d="M308 489.238C308 487.45 309.45 486 311.238 486L1383.76 486C1385.55 486 1387 487.45 1387 489.238L1387 741.762C1387 743.55 1385.55 745 1383.76 745L311.238 745C309.45 745 308 743.55 308 741.762Z" fill="#C8161D" fill-rule="evenodd"/><path d="M308.5 2493.39C308.5 2491.79 309.792 2490.5 311.386 2490.5L3701.61 2490.5C3703.21 2490.5 3704.5 2491.79 3704.5 2493.39L3704.5 2718.61C3704.5 2720.21 3703.21 2721.5 3701.61 2721.5L311.386 2721.5C309.792 2721.5 308.5 2720.21 308.5 2718.61Z" stroke="#C8161D" stroke-width="4.58333" stroke-miterlimit="8" fill="#FFFFFF" fill-rule="evenodd"/><text fill="#C8161D" font-family="BIZ UDPGothic,BIZ UDPGothic_MSFontService,sans-serif" font-weight="700" font-size="80" transform="matrix(1 0 0 1 1149.12 2604)">アップグレードは契約期間中いつでも可能です！<tspan font-size="64" x="279.01" y="79">（ダウングレード・解約は契約更新月のみ）</tspan><tspan fill="#222A35" font-weight="400" font-size="64" x="-491.666" y="-1772">譲渡希望価格</tspan><tspan fill="#222A35" font-size="110" x="-644.635" y="-1625">500</tspan><tspan fill="#222A35" font-size="110" x="-393.697" y="-1625">万円以内</tspan><tspan fill="#222A35" font-weight="400" font-size="64" x="-555.26" y="-1519">の案件で交渉可能</tspan><tspan fill="#000000" font-weight="400" font-size="128" x="-609.807" y="-1321">2,980</tspan><tspan fill="#000000" font-weight="400" font-size="64" x="-180.692" y="-1321">円</tspan><tspan fill="#222A35" font-weight="400" font-size="64" x="-116.526" y="-1321">／月</tspan><tspan fill="#222A35" font-weight="400" font-size="55" x="-556.228" y="-1244">（税込</tspan><tspan fill="#222A35" font-weight="400" font-size="55" x="-418.728" y="-1244">3,278</tspan><tspan fill="#222A35" font-weight="400" font-size="55" x="-234.248" y="-1244">円／月）</tspan><tspan fill="#222A35" font-weight="400" font-size="55" x="-549.651" y="-1178">税込</tspan><tspan fill="#222A35" font-weight="400" font-size="55" x="-439.651" y="-1178">39,336</tspan><tspan fill="#222A35" font-weight="400" font-size="55" x="-213.348" y="-1178">円／年</tspan><tspan fill="#FFFFFF" font-size="92" x="-690.293" y="-1944">エントリープラン</tspan><tspan fill="#222A35" font-weight="400" font-size="64" x="-763.825" y="-559">交渉リクエスト数</tspan><tspan fill="#222A35" font-weight="400" font-size="64" x="-124.45" y="-559">無制限</tspan><tspan fill="#222A35" font-weight="400" font-size="64" x="-763.825" y="-460">成約時手数料</tspan><tspan fill="#222A35" font-weight="400" font-size="64" x="-121.012" y="-460">０円</tspan><tspan fill="#222A35" font-weight="400" font-size="64" x="-763.825" y="-361">契約期間</tspan><tspan fill="#222A35" font-weight="400" font-size="64" x="-120.439" y="-361">12</tspan><tspan fill="#222A35" font-weight="400" font-size="64" x="-31.0643" y="-361">ヶ月間</tspan><tspan fill="#222A35" font-weight="400" font-size="50" x="152.842" y="-361">※</tspan></text><path d="M340 1130 1347.37 1130" stroke="#A6A6A6" stroke-width="2.29167" stroke-miterlimit="8" fill="none" fill-rule="evenodd"/><path d="M340 1937 1347.37 1937" stroke="#A6A6A6" stroke-width="2.29167" stroke-miterlimit="8" fill="none" fill-rule="evenodd"/><rect x="1470.5" y="489.5" width="1079" height="1820" stroke="#D9D9D9" stroke-width="6.875" stroke-miterlimit="8" fill="none"/><path d="M1470 493.238C1470 491.45 1471.45 490 1473.24 490L2545.76 490C2547.55 490 2549 491.45 2549 493.238L2549 745.761C2549 747.549 2547.55 748.999 2545.76 748.999L1473.24 748.999C1471.45 748.999 1470 747.549 1470 745.761Z" fill="#C8161D" fill-rule="evenodd"/><text fill="#222A35" font-family="BIZ UDPGothic,BIZ UDPGothic_MSFontService,sans-serif" font-weight="400" font-size="64" transform="matrix(1 0 0 1 1819.84 836)">譲渡希望価格<tspan font-weight="700" font-size="110" x="-212.827" y="147">3,000</tspan><tspan font-weight="700" font-size="110" x="157.85" y="147">万円以内</tspan><tspan font-size="64" x="-63.5938" y="253">の案件で交渉可能</tspan><tspan fill="#000000" font-size="128" x="-118.129" y="450">7,980</tspan><tspan fill="#000000" font-size="64" x="310.985" y="450">円</tspan><tspan font-size="64" x="375.152" y="450">／月</tspan><tspan font-size="55" x="-64.5499" y="527">（税込</tspan><tspan font-size="55" x="72.95" y="527">8,778</tspan><tspan font-size="55" x="257.429" y="527">円／月）</tspan><tspan font-size="55" x="-75.1604" y="593">税込</tspan><tspan font-size="55" x="34.8396" y="593">105,336</tspan><tspan font-size="55" x="295.517" y="593">円／年</tspan><tspan fill="#FFFFFF" font-weight="700" font-size="92" x="-256.479" y="-172">スタンダードプラン</tspan></text><path d="M1503 1133 2510.37 1133" stroke="#A6A6A6" stroke-width="2.29167" stroke-miterlimit="8" fill="none" fill-rule="evenodd"/><path d="M1502 1941 2509.37 1941" stroke="#A6A6A6" stroke-width="2.29167" stroke-miterlimit="8" fill="none" fill-rule="evenodd"/><rect x="2622.5" y="485.5" width="1079" height="1821" stroke="#D9D9D9" stroke-width="6.875" stroke-miterlimit="8" fill="none"/><path d="M2622 489.238C2622 487.45 2623.45 486 2625.24 486L3697.76 486C3699.55 486 3701 487.45 3701 489.238L3701 741.762C3701 743.55 3699.55 745 3697.76 745L2625.24 745C2623.45 745 2622 743.55 2622 741.762Z" fill="#C8161D" fill-rule="evenodd"/><text fill="#222A35" font-family="BIZ UDPGothic,BIZ UDPGothic_MSFontService,sans-serif" font-weight="400" font-size="64" transform="matrix(1 0 0 1 2971.72 832)">譲渡希望価格<tspan font-weight="700" font-size="110" x="29.7918" y="147">すべて</tspan><tspan font-size="64" x="-63.5938" y="253">の案件で交渉可能</tspan><tspan fill="#000000" font-size="128" x="-158.531" y="451">14,800</tspan><tspan fill="#000000" font-size="64" x="351.365" y="451">円</tspan><tspan font-size="64" x="415.531" y="451">／月</tspan><tspan font-size="55" x="-81.7605" y="528">（税込</tspan><tspan font-size="55" x="55.7395" y="528">16,280</tspan><tspan font-size="55" x="274.594" y="528">円／月）</tspan><tspan font-size="55" x="-75.1834" y="594">税込</tspan><tspan font-size="55" x="34.8167" y="594">195,360</tspan><tspan font-size="55" x="295.494" y="594">円／年</tspan><tspan fill="#FFFFFF" font-weight="700" font-size="92" x="-206.074" y="-172">プレミアムプラン</tspan></text><path d="M2655 1130 3662.37 1130" stroke="#A6A6A6" stroke-width="2.29167" stroke-miterlimit="8" fill="none" fill-rule="evenodd"/><path d="M2654 1937 3661.37 1937" stroke="#A6A6A6" stroke-width="2.29167" stroke-miterlimit="8" fill="none" fill-rule="evenodd"/><text fill="#222A35" font-family="BIZ UDPGothic,BIZ UDPGothic_MSFontService,sans-serif" font-weight="400" font-size="50" transform="matrix(1 0 0 1 375.1 2421)">※月額料金の１<tspan font-size="50" x="334.01" y="0">2</tspan><tspan font-size="50" x="372.396" y="0">ヶ月間分を一括前払いとなります</tspan><tspan font-size="64" x="1169.92" y="-376">交渉リクエスト数</tspan><tspan font-size="64" x="1809.29" y="-376">無制限</tspan><tspan font-size="64" x="1169.92" y="-277">成約時手数料</tspan><tspan font-size="64" x="1812.73" y="-277">０円</tspan><tspan font-size="64" x="1169.92" y="-178">契約期間</tspan><tspan font-size="64" x="1813.3" y="-178">12</tspan><tspan font-size="64" x="1902.68" y="-178">ヶ月間</tspan>※<tspan font-size="64" x="2326.96" y="-376">交渉リクエスト数</tspan><tspan font-size="64" x="2966.34" y="-376">無制限</tspan><tspan font-size="64" x="2326.96" y="-277">成約時手数料</tspan><tspan font-size="64" x="2969.77" y="-277">０円</tspan><tspan font-size="64" x="2326.96" y="-178">契約期間</tspan><tspan font-size="64" x="2970.35" y="-178">12</tspan><tspan font-size="64" x="3059.72" y="-178">ヶ月間</tspan><tspan font-size="50" x="3243.63" y="-178">※</tspan></text><path d="M505 1218 986.186 1218" stroke="#C8161D" stroke-width="13.75" stroke-miterlimit="8" fill="none" fill-rule="evenodd"/><path d="M505 1250 986.186 1250" stroke="#C8161D" stroke-width="13.75" stroke-miterlimit="8" fill="none" fill-rule="evenodd"/><path d="M1673 1219 2154.19 1219" stroke="#C8161D" stroke-width="13.75" stroke-miterlimit="8" fill="none" fill-rule="evenodd"/><path d="M1673 1251 2154.19 1251" stroke="#C8161D" stroke-width="13.75" stroke-miterlimit="8" fill="none" fill-rule="evenodd"/><path d="M2801 1217 3330.3 1217" stroke="#C8161D" stroke-width="13.75" stroke-miterlimit="8" fill="none" fill-rule="evenodd"/><path d="M2801 1249 3330.3 1249" stroke="#C8161D" stroke-width="13.75" stroke-miterlimit="8" fill="none" fill-rule="evenodd"/><path d="M765.5 1513.5 806.75 1513.5 806.75 1441.5 889.25 1441.5 889.25 1513.5 930.5 1513.5 848 1585.5Z" stroke="#C8161D" stroke-width="4.58333" stroke-miterlimit="8" fill="#C8161D" fill-rule="evenodd"/><path d="M1923.5 1513.5 1964.75 1513.5 1964.75 1441.5 2047.25 1441.5 2047.25 1513.5 2088.5 1513.5 2006 1585.5Z" stroke="#C8161D" stroke-width="4.58333" stroke-miterlimit="8" fill="#C8161D" fill-rule="evenodd"/><path d="M3082.5 1514 3123.75 1514 3123.75 1441.5 3206.25 1441.5 3206.25 1514 3247.5 1514 3165 1586.5Z" stroke="#C8161D" stroke-width="4.58333" stroke-miterlimit="8" fill="#C8161D" fill-rule="evenodd"/><text fill="#C8161D" font-family="BIZ UDPGothic,BIZ UDPGothic_MSFontService,sans-serif" font-weight="700" font-size="156" transform="matrix(1 0 0 1 498.489 1752)">1,490<tspan fill="#000000" font-weight="400" font-size="64" x="505.313" y="0">円</tspan><tspan fill="#222A35" font-weight="400" font-size="64" x="569.479" y="0">／月</tspan><tspan fill="#222A35" font-weight="400" font-size="55" x="95.4021" y="80">（税込</tspan><tspan fill="#222A35" font-weight="400" font-size="55" x="232.902" y="80">1,639</tspan><tspan fill="#222A35" font-weight="400" font-size="55" x="409.933" y="80">円／月）</tspan><tspan fill="#222A35" font-weight="400" font-size="64" x="60.7292" y="156">税込</tspan><tspan fill="#222A35" font-weight="400" font-size="64" x="189.063" y="156">19,668</tspan><tspan fill="#222A35" font-weight="400" font-size="64" x="444.583" y="156">円／年</tspan><tspan font-size="156" x="1154.64" y="-2">3,990</tspan><tspan fill="#000000" font-weight="400" font-size="64" x="1680.58" y="-2">円</tspan><tspan fill="#222A35" font-weight="400" font-size="64" x="1744.75" y="-2">／月</tspan><tspan fill="#222A35" font-weight="400" font-size="55" x="1256.62" y="78">（税込</tspan><tspan fill="#222A35" font-weight="400" font-size="55" x="1394.12" y="78">4,389</tspan><tspan fill="#222A35" font-weight="400" font-size="55" x="1578.6" y="78">円／月）</tspan><tspan fill="#222A35" font-weight="400" font-size="64" x="1221.67" y="154">税込</tspan><tspan fill="#222A35" font-weight="400" font-size="64" x="1350.01" y="154">52,668</tspan><tspan fill="#222A35" font-weight="400" font-size="64" x="1613.55" y="154">円／年</tspan><tspan font-size="156" x="2306.5" y="-4">7,400</tspan><tspan fill="#000000" font-weight="400" font-size="64" x="2832.44" y="-4">円</tspan><tspan fill="#222A35" font-weight="400" font-size="64" x="2896.61" y="-4">／月</tspan><tspan fill="#222A35" font-weight="400" font-size="55" x="2412.22" y="76">（税込</tspan><tspan fill="#222A35" font-weight="400" font-size="55" x="2549.72" y="76">8,140</tspan><tspan fill="#222A35" font-weight="400" font-size="55" x="2726.75" y="76">円／月）</tspan><tspan fill="#222A35" font-weight="400" font-size="64" x="2373.54" y="152">税込</tspan><tspan fill="#222A35" font-weight="400" font-size="64" x="2501.87" y="152">97,680</tspan><tspan fill="#222A35" font-weight="400" font-size="64" x="2765.41" y="152">円／年</tspan><tspan fill="#222A35" font-size="110" x="856.726" y="-1307">M&amp;A PARK</tspan><tspan fill="#222A35" font-size="110" x="1526.47" y="-1307">の月額プラン</tspan></text></g></svg>