<svg width="3298" height="2073" xmlns="http://www.w3.org/2000/svg" xmlns:xlink="http://www.w3.org/1999/xlink" overflow="hidden"><defs><clipPath id="clip0"><rect x="278" y="566" width="3298" height="2073"/></clipPath></defs><g clip-path="url(#clip0)" transform="translate(-278 -566)"><path d="M280.5 577.499C280.5 575.843 281.843 574.5 283.5 574.5L1356.5 574.5C1358.16 574.5 1359.5 575.843 1359.5 577.499L1359.5 811.5C1359.5 813.157 1358.16 814.5 1356.5 814.5L283.5 814.5C281.843 814.5 280.5 813.157 280.5 811.5Z" stroke="#D9D9D9" stroke-width="4.58333" stroke-miterlimit="8" fill="#FFFFFF" fill-rule="evenodd"/><text fill="#222A35" font-family="Meiryo,Meiryo_MSFontService,sans-serif" font-weight="400" font-size="80" transform="matrix(1 0 0 1 624.386 666)">500<tspan font-size="80" x="149.531" y="0">万円の</tspan><tspan font-size="80" x="-125.744" y="97">ご成約をした場合</tspan></text><path d="M1391.5 574.5C1391.5 572.843 1392.84 571.5 1394.5 571.5L2471.5 571.5C2473.16 571.5 2474.5 572.843 2474.5 574.5L2474.5 808.5C2474.5 810.157 2473.16 811.5 2471.5 811.5L1394.5 811.5C1392.84 811.5 1391.5 810.157 1391.5 808.5Z" stroke="#D9D9D9" stroke-width="4.58333" stroke-miterlimit="8" fill="#FFFFFF" fill-rule="evenodd"/><text fill="#222A35" font-family="Meiryo,Meiryo_MSFontService,sans-serif" font-weight="400" font-size="80" transform="matrix(1 0 0 1 1698.61 663)">3,000<tspan font-size="80" x="227.448" y="0">万円の</tspan><tspan font-size="80" x="-86.8084" y="97">ご成約をした場合</tspan></text><path d="M2495.5 571.5C2495.5 569.843 2496.84 568.5 2498.5 568.5L3567.5 568.5C3569.16 568.5 3570.5 569.843 3570.5 571.5L3570.5 805.5C3570.5 807.157 3569.16 808.5 3567.5 808.5L2498.5 808.5C2496.84 808.5 2495.5 807.157 2495.5 805.5Z" stroke="#D9D9D9" stroke-width="4.58333" stroke-miterlimit="8" fill="#FFFFFF" fill-rule="evenodd"/><text fill="#222A35" font-family="Meiryo,Meiryo_MSFontService,sans-serif" font-weight="400" font-size="80" transform="matrix(1 0 0 1 2887.5 660)">1<tspan font-size="80" x="49.8438" y="0">億円の</tspan><tspan font-size="80" x="-175.61" y="97">ご成約をした場合</tspan></text><path d="M280 988.299C280 987.581 280.582 987 281.299 987L3568.7 987C3569.42 987 3570 987.581 3570 988.299L3570 1089.7C3570 1090.42 3569.42 1091 3568.7 1091L281.299 1091C280.582 1091 280 1090.42 280 1089.7Z" fill="#A6A6A6" fill-rule="evenodd"/><text fill="#FFFFFF" font-family="Meiryo,Meiryo_MSFontService,sans-serif" font-weight="400" font-size="80" transform="matrix(1 0 0 1 975.61 1072)">一般的な料金（成約価額<tspan font-size="80" x="882.292" y="0">×</tspan><tspan font-size="80" x="947.031" y="0">3</tspan>％、最低手数料<tspan font-size="80" x="1558.33" y="0">30</tspan>万円）</text><path d="M280.5 1095.8C280.5 1093.43 282.425 1091.5 284.8 1091.5L1356.2 1091.5C1358.57 1091.5 1360.5 1093.43 1360.5 1095.8L1360.5 1431.2C1360.5 1433.57 1358.57 1435.5 1356.2 1435.5L284.8 1435.5C282.425 1435.5 280.5 1433.57 280.5 1431.2Z" stroke="#D9D9D9" stroke-width="4.58333" stroke-miterlimit="8" fill="#FFFFFF" fill-rule="evenodd"/><text fill="#222A35" font-family="Meiryo,Meiryo_MSFontService,sans-serif" font-weight="400" font-size="72" transform="matrix(1 0 0 1 450.677 1184)">最低手数料<tspan font-size="72" x="360.938" y="0">30</tspan><tspan font-size="72" x="450.313" y="0">万円適用</tspan><tspan font-weight="700" font-size="96" x="108.854" y="108">300,000</tspan><tspan font-weight="700" font-size="96" x="533.958" y="108">円</tspan><tspan font-size="64" x="77.6188" y="196">（税込</tspan><tspan font-size="64" x="270.119" y="196">330,000</tspan><tspan font-size="64" x="533.088" y="196">円）</tspan></text><path d="M1392.5 1097.8C1392.5 1095.43 1394.43 1093.5 1396.8 1093.5L2471.2 1093.5C2473.57 1093.5 2475.5 1095.43 2475.5 1097.8L2475.5 1433.2C2475.5 1435.57 2473.57 1437.5 2471.2 1437.5L1396.8 1437.5C1394.43 1437.5 1392.5 1435.57 1392.5 1433.2Z" stroke="#D9D9D9" stroke-width="4.58333" stroke-miterlimit="8" fill="#FFFFFF" fill-rule="evenodd"/><text fill="#222A35" font-family="Meiryo,Meiryo_MSFontService,sans-serif" font-weight="400" font-size="72" transform="matrix(1 0 0 1 1670.41 1187)">3,000<tspan font-size="72" x="203.958" y="0">万円</tspan>×<tspan font-size="72" x="406.771" y="0">3%</tspan><tspan font-weight="700" font-size="96" x="2.29163" y="108">900,000</tspan><tspan font-weight="700" font-size="96" x="427.396" y="108">円</tspan><tspan font-size="64" x="-28.9437" y="196">（税込</tspan><tspan font-size="64" x="163.556" y="196">990,000</tspan><tspan font-size="64" x="426.525" y="196">円）</tspan></text><path d="M2496.5 1095.79C2496.5 1093.42 2498.42 1091.5 2500.79 1091.5L3564.21 1091.5C3566.58 1091.5 3568.5 1093.42 3568.5 1095.79L3568.5 1430.21C3568.5 1432.58 3566.58 1434.5 3564.21 1434.5L2500.79 1434.5C2498.42 1434.5 2496.5 1432.58 2496.5 1430.21Z" stroke="#D9D9D9" stroke-width="4.58333" stroke-miterlimit="8" fill="#FFFFFF" fill-rule="evenodd"/><text fill="#222A35" font-family="Meiryo,Meiryo_MSFontService,sans-serif" font-weight="400" font-size="72" transform="matrix(1 0 0 1 2848.44 1184)">1<tspan font-size="72" x="44.6875" y="0">億円</tspan><tspan font-size="72" x="189.063" y="0">×</tspan><tspan font-size="72" x="247.5" y="0">3%</tspan><tspan font-weight="700" font-size="96" x="-126.615" y="108">3,000,000</tspan><tspan font-weight="700" font-size="96" x="397.031" y="108">円</tspan><tspan font-size="64" x="-139.792" y="196">（税込</tspan><tspan font-size="64" x="52.7085" y="196">3,300,000</tspan><tspan font-size="64" x="378.125" y="196">円）</tspan></text><path d="M724.5 898 772.25 898 772.25 824.5 867.75 824.5 867.75 898 915.5 898 820 971.5Z" stroke="#F2F2F2" stroke-width="4.58333" stroke-miterlimit="8" fill="#BFBFBF" fill-rule="evenodd"/><path d="M1837.5 898.5 1885.25 898.5 1885.25 825.5 1980.75 825.5 1980.75 898.5 2028.5 898.5 1933 971.5Z" stroke="#F2F2F2" stroke-width="4.58333" stroke-miterlimit="8" fill="#BFBFBF" fill-rule="evenodd"/><path d="M2937.5 898 2985.25 898 2985.25 824.5 3080.75 824.5 3080.75 898 3128.5 898 3033 971.5Z" stroke="#F2F2F2" stroke-width="4.58333" stroke-miterlimit="8" fill="#BFBFBF" fill-rule="evenodd"/><path d="M283 1470.57C283 1470.26 283.257 1470 283.575 1470L1357.43 1470C1357.74 1470 1358 1470.26 1358 1470.57L1358 1515.43C1358 1515.74 1357.74 1516 1357.43 1516L283.575 1516C283.257 1516 283 1515.74 283 1515.43Z" fill="#FFC000" fill-rule="evenodd"/><path d="M1400 1469.51C1400 1469.23 1400.23 1469 1400.51 1469L2472.49 1469C2472.77 1469 2473 1469.23 2473 1469.51L2473 1509.49C2473 1509.77 2472.77 1510 2472.49 1510L1400.51 1510C1400.23 1510 1400 1509.77 1400 1509.49Z" fill="#ED7D31" fill-rule="evenodd"/><path d="M2495 1469.51C2495 1469.23 2495.23 1469 2495.51 1469L3572.49 1469C3572.77 1469 3573 1469.23 3573 1469.51L3573 1509.49C3573 1509.77 3572.77 1510 3572.49 1510L2495.51 1510C2495.23 1510 2495 1509.77 2495 1509.49Z" fill="#70AD47" fill-rule="evenodd"/><path d="M285 1516.6C285 1515.72 285.716 1515 286.6 1515L1355.4 1515C1356.28 1515 1357 1515.72 1357 1516.6L1357 1641.4C1357 1642.28 1356.28 1643 1355.4 1643L286.6 1643C285.716 1643 285 1642.28 285 1641.4Z" fill="#FFFFFF" fill-rule="evenodd"/><text fill="#222A35" font-family="Meiryo,Meiryo_MSFontService,sans-serif" font-weight="700" font-size="80" transform="matrix(1 0 0 1 620.772 1598)">エントリー</text><path d="M1400 1511.53C1400 1510.68 1400.68 1510 1401.53 1510L2448.48 1510C2449.32 1510 2450 1510.68 2450 1511.53L2450 1630.48C2450 1631.32 2449.32 1632 2448.48 1632L1401.53 1632C1400.68 1632 1400 1631.32 1400 1630.48Z" fill="#FFFFFF" fill-rule="evenodd"/><text fill="#222A35" font-family="Meiryo,Meiryo_MSFontService,sans-serif" font-weight="700" font-size="80" transform="matrix(1 0 0 1 1684.32 1591)">スタンダード</text><path d="M2500 1511.48C2500 1510.66 2500.66 1510 2501.48 1510L3566.52 1510C3567.34 1510 3568 1510.66 3568 1511.48L3568 1626.52C3568 1627.34 3567.34 1628 3566.52 1628L2501.48 1628C2500.66 1628 2500 1627.34 2500 1626.52Z" fill="#FFFFFF" fill-rule="evenodd"/><text fill="#222A35" font-family="Meiryo,Meiryo_MSFontService,sans-serif" font-weight="700" font-size="80" transform="matrix(1 0 0 1 2833.1 1589)">プレミアム</text><path d="M283 1654.62C283 1648.2 288.204 1643 294.625 1643L1346.38 1643C1352.8 1643 1358 1648.2 1358 1654.62L1358 2561.38C1358 2567.8 1352.8 2573 1346.38 2573L294.625 2573C288.204 2573 283 2567.8 283 2561.38Z" fill="#FFF2CC" fill-rule="evenodd"/><text fill="#222A35" font-family="Meiryo,Meiryo_MSFontService,sans-serif" font-weight="400" font-size="72" transform="matrix(1 0 0 1 608.947 1810)">300,000<tspan font-size="72" x="293.333" y="0">円</tspan>÷<tspan font-size="96" x="-116.875" y="135">月額</tspan><tspan font-weight="700" font-size="129" x="75.625" y="135">2,980</tspan><tspan font-size="72" x="468.646" y="135">円</tspan><tspan font-size="72" x="-35.5208" y="241">＝約</tspan><tspan font-size="72" x="108.854" y="241">101</tspan><tspan font-size="72" x="242.917" y="241">か月分</tspan><tspan fill="#ED7D31" font-weight="700" font-size="72" x="-32.6563" y="564">約</tspan><tspan fill="#ED7D31" font-weight="700" font-size="129" x="39.5313" y="564">8</tspan><tspan fill="#ED7D31" font-weight="700" font-size="96" x="126.615" y="564">年</tspan><tspan fill="#ED7D31" font-weight="700" font-size="72" x="222.865" y="564">に</tspan><tspan fill="#ED7D31" font-weight="700" font-size="96" x="295.052" y="564">1</tspan><tspan fill="#ED7D31" font-weight="700" font-size="96" x="360.365" y="564">件</tspan></text><path d="M575.922 2384.42 820.922 2384.42 1065.92 2384.42 1065.92 2389.42 820.922 2389.42 575.922 2389.42Z" fill="#ED7D31" fill-rule="evenodd"/><text fill="#ED7D31" font-family="Meiryo,Meiryo_MSFontService,sans-serif" font-weight="700" font-size="72" transform="matrix(1 0 0 1 387.802 2500)">ご成約すれば元が取れます</text><path d="M1400 1643.79C1400 1637.28 1405.28 1632 1411.79 1632L2461.21 1632C2467.72 1632 2473 1637.28 2473 1643.79L2473 2563.21C2473 2569.72 2467.72 2575 2461.21 2575L1411.79 2575C1405.28 2575 1400 2569.72 1400 2563.21Z" fill="#FBE5D6" fill-rule="evenodd"/><text fill="#222A35" font-family="Meiryo,Meiryo_MSFontService,sans-serif" font-weight="400" font-size="72" transform="matrix(1 0 0 1 1724.47 1800)">900,000<tspan font-size="72" x="293.333" y="0">円</tspan>÷<tspan font-size="96" x="-116.875" y="135">月額</tspan><tspan font-weight="700" font-size="129" x="75.625" y="135">7,980</tspan><tspan font-size="72" x="468.646" y="135">円</tspan><tspan font-size="72" x="-35.5209" y="241">＝約</tspan><tspan font-size="72" x="108.854" y="241">113</tspan><tspan font-size="72" x="242.917" y="241">か月分</tspan><tspan fill="#ED7D31" font-weight="700" font-size="72" x="-32.6563" y="564">約</tspan><tspan fill="#ED7D31" font-weight="700" font-size="129" x="39.5313" y="564">9</tspan><tspan fill="#ED7D31" font-weight="700" font-size="96" x="126.615" y="564">年</tspan><tspan fill="#ED7D31" font-weight="700" font-size="72" x="222.865" y="564">に</tspan><tspan fill="#ED7D31" font-weight="700" font-size="96" x="295.052" y="564">1</tspan><tspan fill="#ED7D31" font-weight="700" font-size="96" x="360.365" y="564">件</tspan></text><path d="M1691.87 2374.38 1936.37 2374.38 2180.87 2374.38 2180.87 2379.38 1936.37 2379.38 1691.87 2379.38Z" fill="#ED7D31" fill-rule="evenodd"/><text fill="#ED7D31" font-family="Meiryo,Meiryo_MSFontService,sans-serif" font-weight="700" font-size="72" transform="matrix(1 0 0 1 1503.33 2490)">ご成約すれば元が取れます</text><path d="M2500 1643.79C2500 1637.28 2505.28 1632 2511.79 1632L3563.21 1632C3569.72 1632 3575 1637.28 3575 1643.79L3575 2563.21C3575 2569.72 3569.72 2575 3563.21 2575L2511.79 2575C2505.28 2575 2500 2569.72 2500 2563.21Z" fill="#E2F0D9" fill-rule="evenodd"/><text fill="#222A35" font-family="Meiryo,Meiryo_MSFontService,sans-serif" font-weight="400" font-size="72" transform="matrix(1 0 0 1 2790.51 1800)">3,000,000<tspan font-size="72" x="363.229" y="0">円</tspan><tspan font-size="72" x="435.417" y="0">÷</tspan><tspan font-size="96" x="-125.469" y="135">月額</tspan><tspan font-weight="700" font-size="129" x="67.0313" y="135">14,800</tspan><tspan font-size="72" x="547.135" y="135">円</tspan><tspan font-size="72" x="-0.572998" y="241">＝約</tspan><tspan font-size="72" x="143.802" y="241">203</tspan><tspan font-size="72" x="277.865" y="241">か月分</tspan><tspan fill="#ED7D31" font-weight="700" font-size="72" x="-41.25" y="564">約</tspan><tspan fill="#ED7D31" font-weight="700" font-size="129" x="30.9375" y="564">17</tspan><tspan fill="#ED7D31" font-weight="700" font-size="96" x="205.104" y="564">年</tspan><tspan fill="#ED7D31" font-weight="700" font-size="72" x="301.354" y="564">に</tspan><tspan fill="#ED7D31" font-weight="700" font-size="96" x="373.542" y="564">1</tspan><tspan fill="#ED7D31" font-weight="700" font-size="96" x="438.854" y="564">件</tspan></text><path d="M2749.43 2374.38 2941.43 2374.38 3133.43 2374.38 3325.43 2374.38 3325.43 2379.38 3133.43 2379.38 2941.43 2379.38 2749.43 2379.38Z" fill="#ED7D31" fill-rule="evenodd"/><text fill="#ED7D31" font-family="Meiryo,Meiryo_MSFontService,sans-serif" font-weight="700" font-size="72" transform="matrix(1 0 0 1 2604.31 2490)">ご成約すれば元が取れます</text><rect x="286.5" y="1469.5" width="1072" height="1167" stroke="#D9D9D9" stroke-width="4.58333" stroke-miterlimit="8" fill="none"/><rect x="1400.5" y="1469.5" width="1073" height="1167" stroke="#D9D9D9" stroke-width="4.58333" stroke-miterlimit="8" fill="none"/><rect x="2498.5" y="1469.5" width="1072" height="1167" stroke="#D9D9D9" stroke-width="4.58333" stroke-miterlimit="8" fill="none"/></g></svg>