<svg width="2023" height="1959" xmlns="http://www.w3.org/2000/svg" xmlns:xlink="http://www.w3.org/1999/xlink" overflow="hidden"><defs><clipPath id="clip0"><rect x="2813" y="3492" width="2023" height="1959"/></clipPath></defs><g clip-path="url(#clip0)" transform="translate(-2813 -3492)"><text fill="#2E75B6" font-family="Meiryo UI,Meiryo UI_MSFontService,sans-serif" font-weight="700" font-size="83" transform="matrix(1 0 0 1 3006.01 3630)">売り手企業様<tspan fill="#548235" font-size="83" x="1165.71" y="1">買い手企業様</tspan></text><rect x="2825.5" y="3649.5" width="848" height="218" stroke="#2E75B6" stroke-width="4.58333" stroke-miterlimit="8" fill="#FFFFFF"/><text fill="#222A35" font-family="Meiryo UI,Meiryo UI_MSFontService,sans-serif" font-weight="700" font-size="55" transform="matrix(1 0 0 1 3138.99 3713)">会員登録<tspan font-weight="400" font-size="46" x="-128.104" y="119">無料でご利用いただけます</tspan></text><rect x="3984.5" y="3650.5" width="849" height="218" stroke="#70AD47" stroke-width="4.58333" stroke-miterlimit="8" fill="none"/><text fill="#222A35" font-family="Meiryo UI,Meiryo UI_MSFontService,sans-serif" font-weight="700" font-size="55" transform="matrix(1 0 0 1 4298.64 3713)">会員登録<tspan font-weight="400" font-size="46" x="-227.562" y="119">ご成約まで無料でご利用いただけます</tspan></text><path d="M3293.5 3889.5 3253.5 3970.5 3213.5 3889.5Z" stroke="#DEEBF7" stroke-width="4.58333" stroke-miterlimit="8" fill="#BDD7EE" fill-rule="evenodd"/><path d="M4461.5 3890.5 4421.5 3970.5 4381.5 3890.5Z" stroke="#DEEBF7" stroke-width="4.58333" stroke-miterlimit="8" fill="#A9D18E" fill-rule="evenodd"/><rect x="2825.5" y="3989.5" width="848" height="306" stroke="#2E75B6" stroke-width="4.58333" stroke-miterlimit="8" fill="#FFFFFF"/><text fill="#222A35" font-family="Meiryo UI,Meiryo UI_MSFontService,sans-serif" font-weight="700" font-size="55" transform="matrix(1 0 0 1 3058.77 4081)">譲渡内容の登録<tspan font-weight="400" font-size="46" x="-137.775" y="103">お譲りしたい事業や自社のアピールを</tspan><tspan font-weight="400" font-size="46" x="-90.1314" y="179">登録すると匿名で公開されます</tspan></text><rect x="3985.5" y="3989.5" width="848" height="306" stroke="#70AD47" stroke-width="4.58333" stroke-miterlimit="8" fill="none"/><text fill="#222A35" font-family="Meiryo UI,Meiryo UI_MSFontService,sans-serif" font-weight="700" font-size="55" transform="matrix(1 0 0 1 4176.22 4108)">譲渡案件を検索する<tspan font-weight="400" font-size="46" x="-124.392" y="119">自社にマッチする譲渡案件を検索します</tspan></text><path d="M3295.5 4326.5 3255.5 4407.5 3215.5 4326.5Z" stroke="#DEEBF7" stroke-width="4.58333" stroke-miterlimit="8" fill="#BDD7EE" fill-rule="evenodd"/><rect x="2827.5" y="4432.5" width="848" height="306" stroke="#2E75B6" stroke-width="4.58333" stroke-miterlimit="8" fill="#FFFFFF"/><text fill="#222A35" font-family="Meiryo UI,Meiryo UI_MSFontService,sans-serif" font-weight="700" font-size="55" transform="matrix(1 0 0 1 3089.24 4524)">オファーに返信<tspan font-weight="400" font-size="46" x="-108.992" y="103">オファーのメッセージを確認後、</tspan><tspan font-weight="400" font-size="46" x="-224.813" y="179">実名交渉の開始まで匿名で利用可能です</tspan></text><rect x="2815.5" y="4861.5" width="2007" height="229" stroke="#000000" stroke-width="4.58333" stroke-miterlimit="8" fill="#FFFFFF"/><text fill="#222A35" font-family="Meiryo UI,Meiryo UI_MSFontService,sans-serif" font-weight="700" font-size="55" transform="matrix(1 0 0 1 3694.27 4952)">面談・交渉<tspan font-weight="400" font-size="46" x="-406.084" y="103">双方の意向確認や基本合意に向けてのやり取りを行います</tspan></text><path d="M3293.5 4758.5 3253.5 4839.5 3213.5 4758.5Z" stroke="#DEEBF7" stroke-width="4.58333" stroke-miterlimit="8" fill="#BDD7EE" fill-rule="evenodd"/><rect x="2815.5" y="5197.5" width="2007" height="233" stroke="#000000" stroke-width="4.58333" stroke-miterlimit="8" fill="#FFFFFF"/><text fill="#222A35" font-family="Meiryo UI,Meiryo UI_MSFontService,sans-serif" font-weight="700" font-size="55" transform="matrix(1 0 0 1 3739.48 5292)">ご成約<tspan font-weight="400" font-size="46" x="-278.965" y="103">最終契約書を締結し、ご成約となります</tspan></text><path d="M3862.5 5111.5 3823 5192.5 3783.5 5111.5Z" stroke="#FBE5D6" stroke-width="4.58333" stroke-miterlimit="8" fill="#F8CBAD" fill-rule="evenodd"/><rect x="3983.5" y="4432.5" width="848" height="306" stroke="#70AD47" stroke-width="4.58333" stroke-miterlimit="8" fill="none"/><text fill="#222A35" font-family="Meiryo UI,Meiryo UI_MSFontService,sans-serif" font-weight="700" font-size="55" transform="matrix(1 0 0 1 4169.28 4551)">交渉のオファーを出す<tspan font-weight="400" font-size="46" x="-48.1021" y="119">無料でメッセージを送信できます</tspan></text><path d="M4462.5 4327.5 4423 4408.5 4383.5 4327.5Z" stroke="#DEEBF7" stroke-width="4.58333" stroke-miterlimit="8" fill="#A9D18E" fill-rule="evenodd"/><path d="M4461.5 4759.5 4421.5 4840.5 4381.5 4759.5Z" stroke="#DEEBF7" stroke-width="4.58333" stroke-miterlimit="8" fill="#A9D18E" fill-rule="evenodd"/></g></svg>