<svg xmlns="http://www.w3.org/2000/svg" width="1298" height="1768" viewBox="0 0 1298 1768"><rect width="395" height="1697" transform="translate(903 71)" fill="#a9d18e"/><rect width="395" height="1697" transform="translate(432 68)" fill="#bdd7ee"/><g transform="translate(-266 -1407)"><g transform="translate(267 1605)" fill="#c8161d" stroke="#707070" stroke-linejoin="round" stroke-width="1"><rect width="338" height="429" rx="3" stroke="none"/><rect x="0.5" y="0.5" width="337" height="428" rx="2.5" fill="none"/></g><path d="M61.5,0,123,82H0Z" transform="translate(498 2084) rotate(180)" fill="#c8161d"/><text transform="translate(435 1832)" fill="#fff" font-size="40" font-family="Meiryo-Bold, Meiryo" font-weight="700"><tspan x="-140" y="0">候補先と出会う</tspan></text></g><g transform="translate(458)" fill="#fff" stroke="#707070" stroke-width="1"><rect width="338" height="135" stroke="none"/><rect x="0.5" y="0.5" width="337" height="134" fill="none"/></g><text transform="translate(627 50)" font-size="40" font-family="Meiryo-Bold, Meiryo" font-weight="700"><tspan x="-160" y="0">売り手企業様への</tspan><tspan x="-100" y="60">ご支援内容</tspan></text><g transform="translate(931)" fill="#fff" stroke="#707070" stroke-width="1"><rect width="338" height="135" stroke="none"/><rect x="0.5" y="0.5" width="337" height="134" fill="none"/></g><text transform="translate(1100 50)" font-size="40" font-family="Meiryo-Bold, Meiryo" font-weight="700"><tspan x="-160" y="0">買い手企業様への</tspan><tspan x="-100" y="60">ご支援内容</tspan></text><g transform="translate(458 198)" fill="#fff" stroke="#707070" stroke-width="1"><rect width="338" height="135" stroke="none"/><rect x="0.5" y="0.5" width="337" height="134" fill="none"/></g><text transform="translate(628 251)" font-size="35" font-family="Meiryo"><tspan x="-126.115" y="0">M&amp;A PARKへの</tspan><tspan x="-105" y="52">譲渡案件掲載</tspan></text><g transform="translate(458 345)" fill="#fff" stroke="#707070" stroke-width="1"><rect width="338" height="135" stroke="none"/><rect x="0.5" y="0.5" width="337" height="134" fill="none"/></g><text transform="translate(628 398)" stroke="rgba(0,0,0,0)" stroke-width="1" font-size="35" font-family="Meiryo"><tspan x="-157.5" y="0">国内提携サイトへの</tspan><tspan x="-105" y="52">譲渡案件掲載</tspan></text><g transform="translate(459 492)" fill="#fff" stroke="#707070" stroke-width="1"><rect width="338" height="135" stroke="none"/><rect x="0.5" y="0.5" width="337" height="134" fill="none"/></g><text transform="translate(628 545)" stroke="rgba(0,0,0,0)" stroke-width="1" font-size="35" font-family="Meiryo"><tspan x="-157.5" y="0">海外提携サイトへの</tspan><tspan x="-105" y="52">譲渡案件掲載</tspan></text><g transform="translate(931 198)" fill="#fff" stroke="#707070" stroke-width="1"><rect width="338" height="135" stroke="none"/><rect x="0.5" y="0.5" width="337" height="134" fill="none"/></g><text transform="translate(1100 251)" font-size="35" font-family="Meiryo"><tspan x="-126.115" y="0">M&amp;A PARKでの</tspan><tspan x="-105" y="52">譲渡案件検索</tspan></text><g transform="translate(931 345)" fill="#fff" stroke="#707070" stroke-width="1"><rect width="338" height="135" stroke="none"/><rect x="0.5" y="0.5" width="337" height="134" fill="none"/></g><text transform="translate(1100 398)" font-size="35" font-family="Meiryo"><tspan x="-126.115" y="0">M&amp;A PARKでの</tspan><tspan x="-70" y="52">交渉申込</tspan></text><g transform="translate(931 492)" fill="#fff" stroke="#707070" stroke-width="1"><rect width="338" height="135" stroke="none"/><rect x="0.5" y="0.5" width="337" height="134" fill="none"/></g><text transform="translate(1100 545)" font-size="35" font-family="Meiryo"><tspan x="-126.115" y="0">M&amp;A PARKへの</tspan><tspan x="-140" y="52">自社ニーズの登録</tspan></text><g transform="translate(458 697)" fill="#fff" stroke="#707070" stroke-width="1"><rect width="811" height="68" stroke="none"/><rect x="0.5" y="0.5" width="810" height="67" fill="none"/></g><text transform="translate(864 742)" font-size="35" font-family="Meiryo"><tspan x="-315" y="0">ファイナンシャルアドバイザーのご支援</tspan></text><g transform="translate(458 774)" fill="#fff" stroke="#707070" stroke-width="1"><rect width="811" height="112" stroke="none"/><rect x="0.5" y="0.5" width="810" height="111" fill="none"/></g><text transform="translate(864 815)" font-size="35" font-family="Meiryo"><tspan x="-162.294" y="0">海外M&amp;A対応可能な</tspan><tspan x="-315" y="52">ファイナンシャルアドバイザーのご支援</tspan></text><g transform="translate(458 896)" fill="#fff" stroke="#707070" stroke-width="1"><rect width="811" height="112" stroke="none"/><rect x="0.5" y="0.5" width="810" height="111" fill="none"/></g><text transform="translate(864 937)" font-size="35" font-family="Meiryo"><tspan x="-162.294" y="0">大型M&amp;A対応可能な</tspan><tspan x="-315" y="52">ファイナンシャルアドバイザーのご支援</tspan></text><g transform="translate(931 1093)" fill="#fff" stroke="#707070" stroke-width="1"><rect width="338" height="135" stroke="none"/><rect x="0.5" y="0.5" width="337" height="134" fill="none"/></g><text transform="translate(1100 1146)" stroke="rgba(0,0,0,0)" stroke-width="1" font-size="35" font-family="Meiryo"><tspan x="-157.5" y="0">デューデリジェンス</tspan><tspan x="-122.5" y="52">専門家のご支援</tspan></text><g transform="translate(458 1372)" fill="#fff" stroke="#707070" stroke-width="1"><rect width="811" height="112" stroke="none"/><rect x="0.5" y="0.5" width="810" height="111" fill="none"/></g><text transform="translate(863 1439)" font-size="35" font-family="Meiryo"><tspan x="-332.5" y="0">法務・税務・会計などの士業によるご支援</tspan></text><g transform="translate(458 1622)" fill="#fff" stroke="#707070" stroke-width="1"><rect width="811" height="112" stroke="none"/><rect x="0.5" y="0.5" width="810" height="111" fill="none"/></g><text transform="translate(864 1689)" font-size="35" font-family="Meiryo"><tspan x="-281.812" y="0">M&amp;Aを成功に導くPMI（統合）支援</tspan></text><g transform="translate(-266 -1413)"><g transform="translate(268 2110)"><g fill="#c8161d" stroke="#707070" stroke-linejoin="round" stroke-width="1"><rect width="338" height="318" rx="3" stroke="none"/><rect x="0.5" y="0.5" width="337" height="317" rx="2.5" fill="none"/></g><path d="M61.5,0,123,82H0Z" transform="translate(231 368) rotate(180)" fill="#c8161d"/></g><text transform="translate(436 2288)" fill="#fff" font-size="40" font-family="Meiryo-Bold, Meiryo" font-weight="700"><tspan x="-120" y="0">交渉を進める</tspan></text></g><g transform="translate(150 -1320)"><g transform="translate(-150 2411)"><g fill="#c8161d" stroke="#707070" stroke-linejoin="round" stroke-width="1"><rect width="338" height="174" rx="3" stroke="none"/><rect x="0.5" y="0.5" width="337" height="173" rx="2.5" fill="none"/></g><path d="M61.5,0,123,82H0Z" transform="translate(231 224) rotate(180)" fill="#c8161d"/></g><text transform="translate(18 2516)" fill="#fff" font-size="40" font-family="Meiryo-Bold, Meiryo" font-weight="700"><tspan x="-140" y="0">企業評価を行う</tspan></text></g><g transform="translate(150 -1070)"><g transform="translate(-150 2411)"><g fill="#c8161d" stroke="#707070" stroke-linejoin="round" stroke-width="1"><rect width="338" height="174" rx="3" stroke="none"/><rect x="0.5" y="0.5" width="337" height="173" rx="2.5" fill="none"/></g><path d="M61.5,0,123,82H0Z" transform="translate(231 224) rotate(180)" fill="#c8161d"/></g><text transform="translate(18 2516)" fill="#fff" font-size="40" font-family="Meiryo-Bold, Meiryo" font-weight="700"><tspan x="-80" y="0">成約する</tspan></text></g><g transform="translate(152 -820)"><g transform="translate(-150 2411)" fill="#c8161d" stroke="#707070" stroke-linejoin="round" stroke-width="1"><rect width="338" height="174" rx="3" stroke="none"/><rect x="0.5" y="0.5" width="337" height="173" rx="2.5" fill="none"/></g><text transform="translate(18 2516)" fill="#fff" font-size="40" font-family="Meiryo-Bold, Meiryo" font-weight="700"><tspan x="-80" y="0">統合する</tspan></text></g></svg>