<svg width="2993" height="2364" xmlns="http://www.w3.org/2000/svg" xmlns:xlink="http://www.w3.org/1999/xlink" overflow="hidden"><defs><clipPath id="clip0"><rect x="400" y="294" width="2993" height="2364"/></clipPath></defs><g clip-path="url(#clip0)" transform="translate(-400 -294)"><text fill="#2E75B6" font-family="Meiryo UI,Meiryo UI_MSFontService,sans-serif" font-weight="700" font-size="110" transform="matrix(1 0 0 1 689.774 438)">売り手企業様<tspan fill="#548235" font-size="110" x="1777.31" y="0">買い手企業様</tspan></text><rect x="402.5" y="481.5" width="1200" height="319" stroke="#2E75B6" stroke-width="4.58333" stroke-miterlimit="8" fill="#FFFFFF"/><text fill="#222A35" font-family="Meiryo UI,Meiryo UI_MSFontService,sans-serif" font-weight="700" font-size="92" transform="matrix(1 0 0 1 818.68 622)">会員登録<tspan font-weight="400" font-size="64" x="-378.698" y="128">売り手企業様は、無料でご利用いただけます</tspan></text><rect x="2190.5" y="482.5" width="1200" height="319" stroke="#70AD47" stroke-width="4.58333" stroke-miterlimit="8" fill="none"/><text fill="#222A35" font-family="Meiryo UI,Meiryo UI_MSFontService,sans-serif" font-weight="700" font-size="92" transform="matrix(1 0 0 1 2606.59 622)">会員登録<tspan font-weight="400" font-size="64" x="-300.208" y="128">月額利用料のみでご利用</tspan><tspan font-weight="400" font-size="64" x="359.219" y="128">いただけます</tspan></text><path d="M1044.5 828.5 1002.5 913.5 960.5 828.5Z" stroke="#DEEBF7" stroke-width="4.58333" stroke-miterlimit="8" fill="#BDD7EE" fill-rule="evenodd"/><path d="M2832.5 829.5 2790.5 913.5 2748.5 829.5Z" stroke="#DEEBF7" stroke-width="4.58333" stroke-miterlimit="8" fill="#A9D18E" fill-rule="evenodd"/><rect x="402.5" y="941.5" width="1200" height="319" stroke="#2E75B6" stroke-width="4.58333" stroke-miterlimit="8" fill="#FFFFFF"/><text fill="#222A35" font-family="Meiryo UI,Meiryo UI_MSFontService,sans-serif" font-weight="700" font-size="92" transform="matrix(1 0 0 1 684.904 1034)">譲渡内容の登録<tspan font-weight="400" font-size="64" x="-237.188" y="119">お譲りしたい事業や自社のアピールポイントを</tspan><tspan font-weight="400" font-size="64" x="-74.777" y="196">登録すると匿名で公開されます</tspan></text><rect x="2190.5" y="942.5" width="1200" height="318" stroke="#70AD47" stroke-width="4.58333" stroke-miterlimit="8" fill="none"/><text fill="#222A35" font-family="Meiryo UI,Meiryo UI_MSFontService,sans-serif" font-weight="700" font-size="92" transform="matrix(1 0 0 1 2401.77 1082)">譲渡案件を検索する<tspan font-weight="400" font-size="64" x="-111.719" y="128">自社にマッチする譲渡案件を検索します</tspan></text><path d="M1044.5 1296.5 1002.5 1381.5 960.5 1296.5Z" stroke="#DEEBF7" stroke-width="4.58333" stroke-miterlimit="8" fill="#BDD7EE" fill-rule="evenodd"/><rect x="402.5" y="1407.5" width="1200" height="319" stroke="#2E75B6" stroke-width="4.58333" stroke-miterlimit="8" fill="#FFFFFF"/><text fill="#222A35" font-family="Meiryo UI,Meiryo UI_MSFontService,sans-serif" font-weight="700" font-size="92" transform="matrix(1 0 0 1 732.456 1500)">オファーに返信<tspan font-weight="400" font-size="64" x="-108.854" y="119">オファー</tspan><tspan font-weight="400" font-size="64" x="73.9063" y="119">のメッセージを確認後、</tspan><tspan font-weight="400" font-size="64" x="-270.99" y="196">実名交渉の開始まで匿名で利用可能です</tspan></text><path d="M1044.5 1756.5 1002.5 1840.5 960.5 1756.5Z" stroke="#DEEBF7" stroke-width="4.58333" stroke-miterlimit="8" fill="#BDD7EE" fill-rule="evenodd"/><path d="M1971.5 2212.5 1929.5 2296.5 1887.5 2212.5Z" stroke="#FBE5D6" stroke-width="4.58333" stroke-miterlimit="8" fill="#C8161D" fill-rule="evenodd"/><rect x="2190.5" y="1408.5" width="1200" height="318" stroke="#70AD47" stroke-width="4.58333" stroke-miterlimit="8" fill="none"/><text fill="#222A35" font-family="Meiryo UI,Meiryo UI_MSFontService,sans-serif" font-weight="700" font-size="92" transform="matrix(1 0 0 1 2393.46 1548)">交渉のオファーを出す<tspan font-weight="400" font-size="64" x="-60.4312" y="128">メッセージの送信制限数はありません</tspan></text><path d="M2832.5 1298.5 2790.5 1382.5 2748.5 1298.5Z" stroke="#DEEBF7" stroke-width="4.58333" stroke-miterlimit="8" fill="#A9D18E" fill-rule="evenodd"/><path d="M2832.5 1756.5 2790.5 1841.5 2748.5 1756.5Z" stroke="#DEEBF7" stroke-width="4.58333" stroke-miterlimit="8" fill="#A9D18E" fill-rule="evenodd"/><rect x="402.5" y="1862.5" width="2988" height="319" stroke="#000000" stroke-width="4.58333" stroke-miterlimit="8" fill="#FFFFFF"/><text fill="#222A35" font-family="Meiryo UI,Meiryo UI_MSFontService,sans-serif" font-weight="700" font-size="92" transform="matrix(1 0 0 1 1688.9 2002)">面談・交渉<tspan font-weight="400" font-size="64" x="-534.531" y="119">双方の意向確認や基本合意に向けてのやり取りを行います</tspan></text><rect x="402.5" y="2336.5" width="2988" height="319" stroke="#000000" stroke-width="4.58333" stroke-miterlimit="8" fill="#FFFFFF"/><text fill="#222A35" font-family="Meiryo UI,Meiryo UI_MSFontService,sans-serif" font-weight="700" font-size="92" transform="matrix(1 0 0 1 1764.24 2477)">ご成約<tspan font-weight="400" font-size="64" x="-368.958" y="119">最終契約書を締結し、ご成約となります</tspan></text></g></svg>