<svg id="レイヤー_1" data-name="レイヤー 1" xmlns="http://www.w3.org/2000/svg" viewBox="0 0 62 47.7"><defs><style>.cls-1{fill:#727171;}.cls-2{fill:#c8161d;}</style></defs><path class="cls-1" d="M5.84,52.6c0-.71-.09-1.67-.07-2.5h0c-.14.85-.34,1.75-.48,2.34l-.64,2.65h-1L3,52.44c-.15-.58-.34-1.49-.47-2.32h0c0,.82-.08,1.76-.11,2.5l-.13,2.59H1l.53-7.49H3.07l.6,2.73c.2.94.39,1.77.52,2.61h0c.11-.83.28-1.67.5-2.61l.59-2.71H6.82l.45,7.49H6Z" transform="translate(-1 -7.6)"/><path class="cls-1" d="M15.26,55.21c-.12-.15-.21-.28-.36-.5a2.38,2.38,0,0,1-1.61.58,2,2,0,0,1-2.07-1.93V53.2a2.34,2.34,0,0,1,1.18-2.05v0a2.66,2.66,0,0,1-.55-1.62,1.79,1.79,0,0,1,1.72-1.86h.14a1.58,1.58,0,0,1,1.65,1.51v.15c0,.68-.21,1.3-1.3,2v0c.33.5.82,1.21,1.11,1.57a4.36,4.36,0,0,0,.33-1.75h1.22a5,5,0,0,1-.93,2.64c.24.32.62.8,1,1.34Zm-.93-1.34c-.39-.5-.93-1.25-1.35-1.87a1.45,1.45,0,0,0-.43,1,1.09,1.09,0,0,0,1,1.19h0A1,1,0,0,0,14.33,53.87Zm-1.2-4.42a1.8,1.8,0,0,0,.35,1.12,1.4,1.4,0,0,0,.64-1.18c0-.33-.09-.77-.5-.77S13.13,49,13.13,49.45Z" transform="translate(-1 -7.6)"/><path class="cls-1" d="M22,53.51l-.32,1.7H20.29l1.63-7.49h1.74l1.45,7.49H23.69l-.32-1.7Zm1.22-1.13L23,50.82c-.08-.46-.18-1.21-.25-1.7h0c-.07.5-.18,1.27-.26,1.7l-.27,1.56Z" transform="translate(-1 -7.6)"/><path class="cls-1" d="M34.34,47.86a7.46,7.46,0,0,1,1.49-.15,2.87,2.87,0,0,1,2,.58A2.18,2.18,0,0,1,38.52,50a2.49,2.49,0,0,1-.63,1.8,2.54,2.54,0,0,1-1.82.69h-.29v2.79H34.34Zm1.44,3.39H36c.74,0,1.06-.5,1.06-1.22s-.27-1.16-.94-1.16a.9.9,0,0,0-.36.05Z" transform="translate(-1 -7.6)"/><path class="cls-1" d="M42.8,53.51l-.33,1.7H41.06l1.62-7.49h1.75l1.45,7.49H44.46l-.32-1.7ZM44,52.38l-.25-1.56c-.07-.46-.17-1.21-.24-1.7h0c-.08.5-.19,1.27-.27,1.7l-.32,1.56Z" transform="translate(-1 -7.6)"/><path class="cls-1" d="M50,47.86a8.37,8.37,0,0,1,1.58-.15,2.88,2.88,0,0,1,2,.56,1.92,1.92,0,0,1,.59,1.55A2,2,0,0,1,53,51.69h0c.5.2.76.67.9,1.49a12.8,12.8,0,0,0,.5,2H53a9.37,9.37,0,0,1-.38-1.79c-.13-.93-.37-1.19-.85-1.19H51.5v3H50Zm1.44,3.26h.26a1,1,0,0,0,1-1,.49.49,0,0,0,0-.12c0-.64-.25-1.08-.9-1.1a.82.82,0,0,0-.35,0Z" transform="translate(-1 -7.6)"/><path class="cls-1" d="M58.55,47.74H60v3.37h0l.36-1,1-2.4H63L61.3,51,63,55.21H61.4l-1.09-3.09-.34.61v2.5H58.53Z" transform="translate(-1 -7.6)"/><path class="cls-2" d="M25.94,32.53a10.5,10.5,0,1,1,0-14.85l4.95-5a17.51,17.51,0,1,0,0,24.76h0L54.16,14.21l-4.95-5Z" transform="translate(-1 -7.6)"/><path class="cls-2" d="M38.06,17.68a10.5,10.5,0,1,1,0,14.85l-5,4.95a17.51,17.51,0,1,0,0-24.76h0L9.84,36l4.95,5Z" transform="translate(-1 -7.6)"/></svg>