<!--?xml version="1.0" encoding="utf-8"?-->
<!-- Generator: Adobe Illustrator 19.1.1, SVG Export Plug-In . SVG Version: 6.00 Build 0)  -->
<svg version="1.1" id="_x31_0" xmlns="http://www.w3.org/2000/svg" xmlns:xlink="http://www.w3.org/1999/xlink" x="0px" y="0px" viewBox="0 0 512 512" style="width: 64px; height: 64px; opacity: 1;" xml:space="preserve">
<style type="text/css">
	.st0{fill:#374149;}
</style>
<g>
	<path class="st0" d="M398.41,52.715v-0.161h-33.906L336.664,0H175.336l-27.84,52.554h-33.645h-0.106h-0.156v404.57v2.321H76.289
		V512h359.422v-52.074v-0.32v-0.16H398.41V53.957V52.715z M192.422,350.125h-25.43v-34.254h25.43V350.125z M192.422,281.621h-25.43
		v-34.25h25.43V281.621z M192.422,213.121h-25.43v-34.25h25.43V213.121z M192.422,144.621h-25.43v-34.25h25.43V144.621z
		 M243.285,418.621h-25.434v-34.25h25.434V418.621z M243.285,350.125h-25.434v-34.254h25.434V350.125z M243.285,281.621h-25.434
		v-34.25h25.434V281.621z M243.285,144.621h-25.434v-34.25h25.434V144.621z M294.144,418.621h-25.43v-34.25h25.43V418.621z
		 M294.144,350.125h-25.43v-34.254h25.43V350.125z M294.144,281.621h-25.43v-34.25h25.43V281.621z M294.144,213.121h-25.43v-34.25
		h25.43V213.121z M345.004,418.621h-25.43v-34.25h25.43V418.621z M345.004,281.621h-25.43v-34.25h25.43V281.621z M345.004,213.121
		h-25.43v-34.25h25.43V213.121z M345.004,144.621h-25.43v-34.25h25.43V144.621z" style="fill: rgb(255, 255, 255);"></path>
</g>
</svg>
