<!--?xml version="1.0" encoding="utf-8"?-->
<!-- Generator: Adobe Illustrator 18.0.0, SVG Export Plug-In . SVG Version: 6.00 Build 0)  -->

<svg version="1.1" id="_x31_0" xmlns="http://www.w3.org/2000/svg" xmlns:xlink="http://www.w3.org/1999/xlink" x="0px" y="0px" viewBox="0 0 512 512" style="width: 64px; height: 64px; opacity: 1;" xml:space="preserve">
<style type="text/css">
	.st0{fill:#374149;}
</style>
<g>
	<path class="st0" d="M496.877,426.056L389.897,318.76c19.221-31.644,30.314-68.773,30.372-108.506
		c0.035-24.685-4.227-48.362-12.018-70.374c-0.066-0.187-0.125-0.378-0.191-0.566c-0.987-2.76-2.049-5.484-3.146-8.19
		c-0.195-0.488-0.375-0.983-0.574-1.471c-1.066-2.569-2.201-5.098-3.364-7.616c-0.27-0.582-0.516-1.17-0.789-1.748
		c-1.226-2.592-2.522-5.137-3.849-7.666c-0.242-0.465-0.465-0.937-0.71-1.398c-1.55-2.904-3.17-5.762-4.852-8.579
		c-0.031-0.055-0.058-0.11-0.09-0.16c-19.513-32.679-47.648-59.605-81.28-77.646c-0.062-0.035-0.129-0.066-0.195-0.102
		c-2.935-1.57-5.914-3.076-8.926-4.509c-0.058-0.027-0.118-0.05-0.176-0.078C272.968,7.292,242.646,0.047,210.627,0
		C94.674-0.168,0.541,93.693,0.373,209.646c-0.038,24.666,4.216,48.324,11.999,70.319c0.074,0.21,0.137,0.422,0.21,0.632
		c0.984,2.748,2.042,5.461,3.134,8.158c0.199,0.496,0.383,0.999,0.586,1.495c1.054,2.545,2.182,5.05,3.33,7.541
		c0.282,0.609,0.539,1.23,0.828,1.834c1.222,2.581,2.514,5.122,3.833,7.639c0.246,0.469,0.472,0.949,0.722,1.413
		c1.554,2.908,3.177,5.778,4.859,8.603c0.027,0.043,0.051,0.09,0.078,0.133c19.509,32.675,47.641,59.6,81.268,77.642
		c0.094,0.051,0.195,0.098,0.289,0.149c2.908,1.553,5.855,3.044,8.837,4.465c0.082,0.035,0.164,0.07,0.242,0.11
		c27.124,12.842,57.426,20.075,89.426,20.122c39.713,0.058,76.862-10.926,108.557-30.032l106.991,107.299
		c9.809,9.84,22.737,14.814,35.582,14.833c12.932,0.015,25.79-4.918,35.63-14.731C516.538,477.646,516.585,445.737,496.877,426.056z
		 M348.158,210.153c-0.113,75.998-62.036,137.746-138.038,137.633c-76.002-0.11-137.746-62.036-137.632-138.034
		c0.109-75.998,62.032-137.75,138.034-137.64C286.525,72.224,348.268,134.154,348.158,210.153z" style="fill: rgb(255, 255, 255);"></path>
	<path class="st0" d="M285.846,134.646c-5.458-5.472-11.465-10.442-17.846-14.77c-6.449-4.379-13.346-8.138-20.501-11.183
		c-7.081-3.009-14.489-5.316-22.007-6.913c-0.191-0.042-0.382-0.109-0.574-0.152v0.004c-0.027-0.008-0.05-0.016-0.078-0.019
		l-4.856,23.482c6.198,1.28,12.295,3.189,18.131,5.671c5.726,2.436,11.25,5.45,16.421,8.954c5.122,3.478,9.942,7.471,14.322,11.862
		c4.384,4.391,8.358,9.22,11.819,14.361c3.494,5.179,6.492,10.71,8.908,16.445c2.463,5.839,4.352,11.94,5.617,18.146l23.366-4.758
		l0.058-0.011l0,0l0.078-0.016c-1.581-7.756-3.942-15.387-7.026-22.682c-3.018-7.158-6.757-14.064-11.113-20.531
		C296.248,146.134,291.298,140.119,285.846,134.646z" style="fill: rgb(255, 255, 255);"></path>
</g>
</svg>
