<svg xmlns="http://www.w3.org/2000/svg" viewBox="0 0 53 53"><defs><style>.cls-1{fill:gray;}.cls-2{fill:#f2f2f2;}</style></defs><g id="レイヤー_2" data-name="レイヤー 2"><g id="contents"><rect class="cls-1" width="53" height="53" rx="6.12"/><path class="cls-2" d="M26.22,9.28c9.51,0,13.55,7.36,13.55,12.86,0,5.26-3.19,11.93-11.32,13,.24,1.79,4.37,6.6,9.67,6.6,1.65,0,2.38,0,2.38.44,0,.21,0,.41-.32.53a17.79,17.79,0,0,1-4.82.48c-5.42,0-10.43-3.59-12-8.09A12.5,12.5,0,0,1,12.79,22.3C12.79,15,18.5,9.28,26.22,9.28Zm0,24.79c8.9,0,9.27-10.51,9.27-12.54,0-5.21-3-11-9.43-11-4.37,0-9,3.36-9,11.89C17.08,31.61,22.91,34.07,26.22,34.07Z"/></g></g></svg>