<svg xmlns="http://www.w3.org/2000/svg" viewBox="0 0 166.55 188.72"><defs><style>.cls-1{fill:#c8161d;stroke:#fff;stroke-miterlimit:10;}.cls-2{fill:#fff;}.cls-3{fill:none;}</style></defs><g id="レイヤー_2" data-name="レイヤー 2"><g id="footer"><path class="cls-1" d="M156.38.5H10.17C4.83.5.5,4.44.5,9.31V159.37c0,4.87,4.33,8.81,9.67,8.81H75.89c.24,6.59-1.4,15.47-10.69,20.09,13-6.23,19.46-13.93,22.73-20.09h68.45c5.34,0,9.67-3.94,9.67-8.81V9.31C166.05,4.44,161.72.5,156.38.5Z"/><path class="cls-2" d="M29.13,149.05a14.42,14.42,0,0,0-3.9-2.67c0,.25,0,.48,0,.68,0,1.66-1.25,2.93-3.81,2.93-3.08,0-4.72-1.18-4.72-3.22s1.8-3.32,4.78-3.32a11.56,11.56,0,0,1,1.19.06c0-.59-.06-1.19-.07-1.76h-1c-1.13,0-3.36-.1-4.65-.25l0-2.29a34.29,34.29,0,0,0,4.67.35h.92v-2h-.92a31.59,31.59,0,0,1-4.2-.29l0-2.2a26.1,26.1,0,0,0,4.2.37h1v-.88a7.59,7.59,0,0,0-.1-1.33h2.63a12.79,12.79,0,0,0-.13,1.37l0,.76a41.74,41.74,0,0,0,4.6-.47l.06,2.22c-1.27.12-2.83.28-4.68.38l0,2c1.95-.08,3.57-.26,5.15-.45v2.28c-1.74.2-3.24.33-5.11.39,0,.72.07,1.5.13,2.25a15,15,0,0,1,5.41,2.92Zm-6.36-3.47a10.09,10.09,0,0,0-1.58-.14c-1.37,0-2.11.52-2.11,1.19s.69,1.19,2,1.19c1,0,1.7-.31,1.7-1.43C22.79,146.18,22.79,145.91,22.77,145.58Z"/><path class="cls-2" d="M47.72,135.8c1.21,0,2.32,0,2.88,0l0,2.3c-1.17-.06-3-.12-5.6-.12,0,1,0,2,0,2.87a4.76,4.76,0,0,1,.73,2.68c0,2.53-1.49,5.71-6.19,7l-2.07-2.07a8.76,8.76,0,0,0,4.72-2.2,4,4,0,0,1-.88.09A3.41,3.41,0,0,1,38,142.86a3.64,3.64,0,0,1,3.86-3.63,4.84,4.84,0,0,1,.78.06l0-1.29c-2.92,0-5.93.16-8.31.3L34.23,136c2.23,0,5.72-.09,8.33-.13,0-.24,0-.43,0-.59a15,15,0,0,0-.19-1.68h2.81c-.06.32-.12,1.35-.14,1.66,0,.16,0,.35,0,.59h2.36a22.61,22.61,0,0,0-1.26-2.21l1.6-.66a19.29,19.29,0,0,1,1.36,2.28Zm-5.92,8.47c.8,0,1.51-.63,1.25-2.32a1.42,1.42,0,0,0-1.27-.67,1.5,1.5,0,0,0,0,3Zm8.26-8.94a16.61,16.61,0,0,0-1.37-2.3l1.62-.67a22.21,22.21,0,0,1,1.39,2.29Z"/><path class="cls-2" d="M58.1,133.94c-.15.39-.39,1.37-.47,1.72a51.54,51.54,0,0,0-.91,7.48,10.31,10.31,0,0,0,.07,1.24c.26-.68.57-1.32.86-2l1.19,1A45.85,45.85,0,0,0,57.46,148a3.67,3.67,0,0,0-.1.89c0,.2,0,.53,0,.8l-2.19.16a23.35,23.35,0,0,1-.76-6.17,58.16,58.16,0,0,1,.8-8.06,14.09,14.09,0,0,0,.18-1.89ZM70,148.52a20.17,20.17,0,0,0-2.34-1.93c-.12,1.83-1.17,3.16-3.79,3.16s-4.33-1.13-4.33-3.16,1.66-3.32,4.29-3.32a8.48,8.48,0,0,1,1.27.08c-.06-1.19-.12-2.6-.14-4-.47,0-.93,0-1.38,0-1.13,0-2.23,0-3.38-.12V137c1.11.11,2.23.17,3.38.17.45,0,.91,0,1.36,0,0-.95,0-1.73,0-2.14a10.39,10.39,0,0,0-.11-1.27h2.77a12,12,0,0,0-.12,1.25c0,.43-.06,1.15-.06,2,1.06-.12,2.07-.26,3-.45v2.4c-.94.14-2,.25-3,.33,0,1.87.14,3.42.22,4.72a12.41,12.41,0,0,1,3.73,2.5Zm-4.8-3.14a5.92,5.92,0,0,0-1.56-.21c-1.1,0-1.84.44-1.84,1.17s.78,1.13,1.8,1.13c1.19,0,1.6-.63,1.6-1.76Z"/><path class="cls-2" d="M80.1,137.59a13.16,13.16,0,0,1-1.15,1,22.4,22.4,0,0,0-1.89-1.52,12,12,0,0,0,4-4.67l2.26.66a10.28,10.28,0,0,1-.76,1.37H94.31v2.05H92.47V139H95v2.07H92.47v2.47h2.27v2.07h-17v-2.07H80.1v-2.47H77.49V139H80.1Zm-2.81,12.18A9.6,9.6,0,0,0,79.48,146l2.24.55a10.83,10.83,0,0,1-2.22,4.1ZM82.15,139h1.4v-2.5h-1.4Zm0,4.54h1.4v-2.47h-1.4Zm3,2.91a26,26,0,0,1,.46,3.65l-2.26.33a25.38,25.38,0,0,0-.37-3.72ZM86.93,139v-2.5H85.49V139Zm-1.44,2.07v2.47h1.44v-2.47ZM89,146.38A21.12,21.12,0,0,1,90.15,150l-2.32.45a21.11,21.11,0,0,0-1-3.7Zm1.33-9.88H88.86V139h1.49Zm0,4.57H88.86v2.47h1.49ZM92.92,146a26.64,26.64,0,0,1,2.46,3.9l-2.38.8a24.81,24.81,0,0,0-2.3-4Z"/><path class="cls-2" d="M103.27,146.28a24.52,24.52,0,0,0-1.41-2.54v6.85H99.72V143.7a20.09,20.09,0,0,1-2.25,4.8,13.76,13.76,0,0,0-1-2.4,18.14,18.14,0,0,0,2.58-5H96.77v-2.17h3V132.5h2.14v6.38h2.89v2.17h-2.89v.13c.57.57,2.42,2.76,2.83,3.3Zm-5.64-7.77a19.4,19.4,0,0,0-.88-4.49l1.62-.43a19.64,19.64,0,0,1,1,4.47Zm7.47-4.59c-.5,1.57-1.07,3.42-1.56,4.55l-1.46-.41a32.43,32.43,0,0,0,1.07-4.57Zm7.58,11.44v5.27h-2.19v-4.88l-5.44,1-.36-2.17,5.8-1V132.4h2.19v10.74l2-.38.35,2.17ZM106,138.28a17,17,0,0,1,3.28,2.24l-1.17,1.85a16.77,16.77,0,0,0-3.2-2.42Zm2.83-.71a15.56,15.56,0,0,0-3-2.53l1.11-1.57a14.55,14.55,0,0,1,3.1,2.37Z"/><path class="cls-2" d="M134.05,136.07a26,26,0,0,1-2.52,2,13.21,13.21,0,0,0,3.07,1.72,8.59,8.59,0,0,0-1.55,1.93,13.82,13.82,0,0,1-4.17-2.95v.8H121.7v-.66a17.14,17.14,0,0,1-4.41,3.08,8.63,8.63,0,0,0-1.39-1.69,13.78,13.78,0,0,0,3.3-2,13.76,13.76,0,0,0-2.09-1.64l1.27-1.27a11.45,11.45,0,0,1,2.2,1.58,12.48,12.48,0,0,0,1.47-1.93h-4v-1.88h5.11l.39-.09,1.5.78a13.13,13.13,0,0,1-2.2,3.8h5a18.71,18.71,0,0,1-2.67-4.51l2-.62a12.31,12.31,0,0,0,1,2,16,16,0,0,0,2-1.85l1.75,1.25c-.84.7-1.81,1.44-2.67,2a12.38,12.38,0,0,0,.92,1,16,16,0,0,0,2.18-2Zm-4.12,10.15c-.41.8-.8,1.56-1.13,2.13h4.9v1.91H116.92v-1.91h4.72a9.39,9.39,0,0,0-.9-2l1-.26h-2.12v-5.4h11.3v5.4h-1.76Zm-8.06-2h6.66v-1.74h-6.66Zm1.17,1.83a8.26,8.26,0,0,1,.94,2.07l-.74.22h3.84l-.52-.12a18.19,18.19,0,0,0,1-2.17Z"/><path class="cls-2" d="M143.15,147.27c1-.56,2.26-1.38,3.53-2.22l.7,1.75c-1.15.88-2.4,1.78-3.51,2.54l-.64-1.11.05.56c-2.42.51-5,1.06-7,1.43l-.43-2.11c.82-.11,1.79-.27,2.87-.45v-5.09H136.1v-1.95h2.66v-1.43H137v-.87l-.37.35a6.44,6.44,0,0,0-1.39-1.51,12.5,12.5,0,0,0,3.38-4.72h1.91a19.3,19.3,0,0,1,3.26,3.36l-1.23,1.46h.18v1.93h-2v1.43h2.42v1.95h-2.42v4.72l2.34-.41Zm-5.37-4a21.52,21.52,0,0,1,.68,3.36l-1.56.43a18,18,0,0,0-.6-3.42Zm4.37-6.05a17.64,17.64,0,0,0-2.22-2.67,18.71,18.71,0,0,1-1.89,2.67ZM141,146.32a23.68,23.68,0,0,0,.69-3.16l1.67.4c-.35,1.1-.66,2.35-1,3.15Zm9.66-2.21a9,9,0,0,0,3.57,3.63,8.92,8.92,0,0,0-1.48,1.91,9.73,9.73,0,0,1-3.2-3.76v2.55c0,1-.14,1.53-.74,1.84a5.18,5.18,0,0,1-2.46.37,7.64,7.64,0,0,0-.55-2c.55,0,1.13,0,1.33,0s.27-.06.27-.26v-7.65h-4v-2h6.79v-1h-5.42V136h5.42V135H144.3v-1.91h8v5.71h1.45v2h-4.22v.65a12.7,12.7,0,0,0,.8,2.09,16.73,16.73,0,0,0,1.76-2.35l1.81,1.12c-.78.9-1.66,1.81-2.34,2.46ZM145,141.44a9.51,9.51,0,0,1,2,2.46L145.37,145a11.17,11.17,0,0,0-1.91-2.56Z"/><rect class="cls-2" x="59.87" y="40.04" width="42.86" height="2.62"/><rect class="cls-2" x="59.87" y="50.54" width="42.86" height="2.62"/><rect class="cls-2" x="59.87" y="61.03" width="42.86" height="2.62"/><rect class="cls-2" x="59.87" y="71.53" width="42.86" height="2.62"/><path class="cls-3" d="M105.55,77.87,122,61.45V33.58a3.17,3.17,0,0,0-3.16-3.16H53.4a3.16,3.16,0,0,0-3.15,3.16V99a3.15,3.15,0,0,0,3.15,3.16h65.41A3.16,3.16,0,0,0,122,99V82.48l-5.91,5.91Z"/><path class="cls-2" d="M122,89.48V99a3.16,3.16,0,0,1-3.16,3.16H53.4A3.15,3.15,0,0,1,50.25,99V33.58a3.16,3.16,0,0,1,3.15-3.16h65.41A3.17,3.17,0,0,1,122,33.58V54l8.75-8.74V33.58a11.92,11.92,0,0,0-11.91-11.91H53.4A11.92,11.92,0,0,0,41.5,33.58V99a11.92,11.92,0,0,0,11.9,11.91h65.41A11.92,11.92,0,0,0,130.72,99V80.73Z"/><rect class="cls-2" x="124.09" y="33.11" width="14.87" height="58.6" transform="translate(82.65 -74.72) rotate(45)"/><polygon class="cls-2" points="97.82 96.12 113.15 90.42 103.51 80.78 97.82 96.12"/></g></g></svg>