<!--?xml version="1.0" encoding="utf-8"?-->
<!-- Generator: Adobe Illustrator 24.1.1, SVG Export Plug-In . SVG Version: 6.00 Build 0)  -->
<svg version="1.1" id="_x31_0" xmlns="http://www.w3.org/2000/svg" xmlns:xlink="http://www.w3.org/1999/xlink" x="0px" y="0px" viewBox="0 0 512 512" style="width: 64px; height: 64px; opacity: 1;" xml:space="preserve">
<style type="text/css">
	.st0{fill:#374149;}
</style>
<g>
	<path class="st0" d="M506.488,132.424l-11.586-1.547h-21.957v-19.898c0-4.562-2.11-8.871-5.711-11.672l-25.461-19.793
		c-2.653-2.062-5.821-3.098-9.062-3.098l-1.477,0.074H286.656c-11.496,0-22.402,4.277-30.656,11.938
		c-8.324-7.734-19.16-11.938-30.726-11.938H80.394l-1.179-0.074c-3.242,0-6.41,1.035-8.989,3.098l-25.582,19.89
		c-3.574,2.778-5.664,7.047-5.664,11.574v19.898H17.023L5.504,132.42C2.351,132.846,0,135.533,0,138.713v289.031
		c0,3.18,2.351,5.871,5.504,6.293l11.519,1.547h9.211l9.504-7.367l2.875-2.211h186.66c4.71,0,9.21,0.734,13.41,2.211
		c4.864,1.621,9.286,4.199,13.114,7.367h8.254c3.833-3.242,8.258-5.746,13.122-7.367c4.274-1.477,8.77-2.211,13.484-2.211h186.657
		l2.874,2.211l9.504,7.367h9.211c2.058,0,7.504-0.774,11.699-1.418c3.106-0.477,5.398-3.141,5.398-6.282V138.717
		C512,135.537,509.645,132.846,506.488,132.424z M258.402,109.83c0.469-1.098,0.988-2.168,1.578-3.199
		c0.808-1.329,1.695-2.653,2.726-3.906c5.602-7,14.218-11.496,23.949-11.496h145.977l0.078-0.074l25.496,19.824v259.946v1.434
		h-10.539l-15.035-11.645H286.656c-9.73,0-18.347,4.496-23.949,11.496l-0.149,0.149h-13.266
		c-5.672-7.074-14.297-11.645-24.019-11.645H79.215l-15.032,11.645H53.718V110.978l25.497-19.824v0.074h146.058
		c8.473,0,16.137,3.39,21.734,9.066c0.809,0.808,1.546,1.621,2.285,2.504l1.398,1.914c0.446,0.664,0.887,1.402,1.254,2.066
		c1.328,2.211,2.285,4.641,2.949,7.149c0.321,1.214,0.566,2.469,0.742,3.754c0.004,0.058,0.019,0.11,0.023,0.164
		c0.172,1.313,0.266,2.656,0.266,4.039c0-4.137,0.817-8.031,2.278-11.598C258.266,110.134,258.336,109.982,258.402,109.83z" style="fill: rgb(255, 255, 255);"></path>
	<polygon class="st0" points="252.535,138.244 252.535,145.611 252.535,336.713 252.535,337.932 252.535,337.932 252.535,338.092 
		259.461,338.092 259.461,145.611 259.461,138.244 259.461,137.947 252.535,137.947 	" style="fill: rgb(255, 255, 255);"></polygon>
	<polygon class="st0" points="78.848,108.99 78.848,130.877 78.848,138.244 78.848,145.611 78.848,343.42 78.848,344.858 
		78.848,344.858 78.848,345.018 82.535,345.018 82.535,145.611 82.535,138.244 82.535,130.877 82.535,108.99 	" style="fill: rgb(255, 255, 255);"></polygon>
	<polygon class="st0" points="429.469,344.858 429.469,345.018 433.152,345.018 433.152,145.611 433.152,138.244 433.152,130.877 
		433.152,108.99 429.469,108.99 429.469,130.877 429.469,138.244 429.469,145.611 429.469,343.42 429.465,344.858 	" style="fill: rgb(255, 255, 255);"></polygon>
	<path class="st0" d="M214.094,145.611c-0.336-0.218-0.797-0.293-1.195-0.293H124.16c-0.398,0-0.859,0.074-1.195,0.293
		c-1.125,0.516-1.922,1.77-1.922,3.172v18.125c0,1.918,1.39,3.465,3.117,3.465h88.738c1.726,0,3.118-1.546,3.118-3.465v-18.125
		C216.016,147.381,215.218,146.127,214.094,145.611z" style="fill: rgb(255, 255, 255);"></path>
	<path class="st0" d="M212.898,208.252H124.16c-1.726,0-3.117,1.547-3.117,3.461v18.129c0,1.914,1.39,3.461,3.117,3.461h88.738
		c1.726,0,3.118-1.546,3.118-3.461v-18.129C216.016,209.799,214.625,208.252,212.898,208.252z" style="fill: rgb(255, 255, 255);"></path>
	<path class="st0" d="M212.898,271.182H124.16c-1.726,0-3.117,1.547-3.117,3.465v18.125c0,1.918,1.39,3.465,3.117,3.465h88.738
		c1.726,0,3.118-1.546,3.118-3.465v-18.125C216.016,272.729,214.625,271.182,212.898,271.182z" style="fill: rgb(255, 255, 255);"></path>
	<path class="st0" d="M303.156,170.373h88.672c1.789,0,3.184-1.546,3.184-3.465v-18.125c0-1.402-0.797-2.656-1.926-3.172
		c-0.398-0.218-0.797-0.293-1.258-0.293h-88.672c-0.465,0-0.863,0.074-1.195,0.293c-1.129,0.516-1.926,1.77-1.926,3.172v18.125
		C300.035,168.826,301.43,170.373,303.156,170.373z" style="fill: rgb(255, 255, 255);"></path>
	<path class="st0" d="M303.156,233.302h88.672c1.789,0,3.184-1.546,3.184-3.461v-18.129c0-1.914-1.395-3.461-3.184-3.461h-88.672
		c-1.726,0-3.121,1.547-3.121,3.461v18.129C300.035,231.756,301.43,233.302,303.156,233.302z" style="fill: rgb(255, 255, 255);"></path>
	<path class="st0" d="M303.156,296.236h88.672c1.789,0,3.184-1.546,3.184-3.465v-18.125c0-1.918-1.395-3.465-3.184-3.465h-88.672
		c-1.726,0-3.121,1.547-3.121,3.465v18.125C300.035,294.69,301.43,296.236,303.156,296.236z" style="fill: rgb(255, 255, 255);"></path>
</g>
</svg>
