<!--?xml version="1.0" encoding="utf-8"?-->
<!-- Generator: Adobe Illustrator 18.1.1, SVG Export Plug-In . SVG Version: 6.00 Build 0)  -->

<svg version="1.1" id="_x31_0" xmlns="http://www.w3.org/2000/svg" xmlns:xlink="http://www.w3.org/1999/xlink" x="0px" y="0px" viewBox="0 0 512 512" style="width: 64px; height: 64px; opacity: 1;" xml:space="preserve">
<style type="text/css">
	.st0{fill:#374149;}
</style>
<g>
	<path class="st0" d="M319.246,6.649C302.988,2.351,286.012,0,268.426,0c-1.226,0-2.457,0-3.68,0.102
		C187.336,1.535,116.98,49.183,86.918,120.355l-0.203,0.309l-2.351,6.234c-0.203,0.512-0.41,1.023-0.614,1.434l-1.637,4.5v0.305
		c-3.886,11.453-6.75,23.214-8.488,35.281l-0.102,0.305l-0.922,4.192l-20.145,94.691l-5.828,27.508l25.77,11.351l39.879,17.485
		v30.269c0,31.188,25.258,56.446,56.343,56.446c1.434,0,2.863,0,4.297-0.102l47.754-1.738h1.637v102.699v0.317l0,0V512h44.273
		l7.977-4.5l120.461-68.715l17.485-10.023v-97.656c34.156-36.606,52.867-83.954,52.867-134.262
		C465.371,105.836,403.301,29.039,319.246,6.649z M121.281,128.41c1.809-3.879,3.762-7.668,5.86-11.363
		c0.746-1.321,1.507-2.626,2.293-3.922c2.305-3.808,4.762-7.511,7.359-11.106c0.898-1.242,1.809-2.472,2.742-3.691
		c2.554-3.332,5.238-6.558,8.035-9.683c1.32-1.473,2.668-2.93,4.046-4.363c1.36-1.418,2.711-2.848,4.122-4.215
		c0.406-0.309,0.714-0.715,1.023-1.023c1.734-1.637,3.578-3.168,5.418-4.703c1.333-1.226,2.661-2.454,3.989-3.477
		c1.125-0.918,2.25-1.637,3.274-2.453c2.25-1.738,4.394-3.477,6.644-5.012c0.512-0.41,1.126-0.715,1.637-1.023
		c2.863-1.942,5.726-3.782,8.691-5.52c0.309-0.206,0.715-0.41,1.024-0.613c3.172-1.738,6.34-3.477,9.613-5.114
		c0.715-0.41,1.535-0.714,2.25-1.023c2.859-1.328,5.726-2.66,8.586-3.887c2.458-1.023,5.114-1.839,7.672-2.762
		c1.125-0.406,2.25-0.816,3.375-1.226c15.645-5.008,32.211-7.668,49.492-7.668c1.43,0,2.965,0,4.398,0.102l18.34,78.102
		c-16.488,11.114-27.34,29.961-27.34,51.332c0,31.598,23.622,57.57,54.195,61.355v45.504L231.035,303.5
		c-3.555-2.93-8.336-4.305-13.149-3.222l-23.953,5.371c-8.274,1.859-13.523,10.144-11.664,18.414
		c1.855,8.274,10.141,13.523,18.414,11.664l23.954-5.371c6.277-1.41,10.797-6.527,11.805-12.527l96.918-36.238v-56.137
		c30.574-3.785,54.094-29.758,54.094-61.355c0-32.828-25.523-59.629-57.832-61.668l-4.438-40.543l-1.874-17.785
		c62.644,22.414,107.398,82.316,107.398,152.742c0,44.89-18.203,85.59-47.754,114.938c-1.637,1.636-3.374,3.273-5.011,4.906v92.031
		l-120.458,68.719h-0.613V372.93l-86,3.07c-0.715,0.102-1.531,0.102-2.25,0.102c-11.859,0-21.781-9.715-21.781-21.883v-52.867
		l-60.535-26.586l5.214-24.543l15.34-69.945h0.102c1.535-14.317,4.809-28.122,9.715-41.004c0-0.102,0-0.102,0-0.102
		c0.718-1.894,1.523-3.742,2.312-5.598C119.722,131.836,120.488,130.117,121.281,128.41z M356.778,164.098
		c0,13.16-8.188,24.398-19.766,28.914c-1.192,0.449-2.387,0.894-3.653,1.199v-7.719v-4.988v-7.027v-0.742v-5.438v-1.594v-5.438
		v-0.742v-7.027h-15.34v7.027v0.742v5.438v1.594v5.438v0.742v7.027v4.988v6.371l-0.035,1.387
		c-13.48-3.387-23.484-15.645-23.484-30.153c0-17.18,14.012-31.187,31.187-31.187C342.867,132.91,356.778,146.918,356.778,164.098z" style="fill: rgb(255, 255, 255);"></path>
</g>
</svg>
