<!--?xml version="1.0" encoding="utf-8"?-->
<!-- Generator: Adobe Illustrator 19.1.1, SVG Export Plug-In . SVG Version: 6.00 Build 0)  -->
<svg version="1.1" id="_x31_0" xmlns="http://www.w3.org/2000/svg" xmlns:xlink="http://www.w3.org/1999/xlink" x="0px" y="0px" viewBox="0 0 512 512" style="width: 64px; height: 64px; opacity: 1;" xml:space="preserve">
<style type="text/css">
	.st0{fill:#374149;}
</style>
<g>
	<path class="st0" d="M88.055,243.078L20.148,214.68c-6.55-2.75-14.066,0.625-16.371,7.339l-3.102,8.997
		c-2.316,6.722,1.531,13.992,8.387,15.878l71,19.399c6.254,1.714,12.766-1.723,14.871-7.86
		C97.043,252.297,94.031,245.589,88.055,243.078z" style="fill: rgb(0, 0, 0);"></path>
	<path class="st0" d="M87.172,382.325l-68.102,27.93c-6.578,2.695-9.508,10.382-6.395,16.77l4.176,8.558
		c3.114,6.379,10.981,8.809,17.157,5.289l63.93-36.488c5.621-3.207,7.793-10.242,4.95-16.066
		C100.047,382.485,93.164,379.864,87.172,382.325z" style="fill: rgb(0, 0, 0);"></path>
	<path class="st0" d="M181.153,160.976c5.821-2.839,8.442-9.726,5.985-15.722l-27.926-68.102
		c-2.699-6.582-10.386-9.512-16.778-6.387l-8.554,4.164c-6.39,3.126-8.813,10.985-5.293,17.157l36.488,63.93
		C168.285,161.648,175.321,163.82,181.153,160.976z" style="fill: rgb(0, 0, 0);"></path>
	<path class="st0" d="M501.307,304.305c-17.821,3.329-52.54,9.93-64.196,12.829C406.462,287.406,326.54,212.359,246.126,184.98
		c-3.574-1.234-7.523,0.676-8.878,4.192c-4.688,12.21-15.539,44.278-30.586,112.234c-15.11,68.02-18.871,101.63-19.797,114.642
		c-0.246,3.824,2.465,7.152,6.226,7.586c84.485,9.188,188.642-24.914,229.036-38.914c9.313,7.586,37.989,28.242,52.727,38.852
		c4.809,3.454,11.531,1.418,13.687-4.133c10.238-26.578,21.462-77.207,23.434-105.574
		C512.409,307.945,507.166,303.196,501.307,304.305z M340.232,290.555c-31.883,1.11-62.532,4.5-91.082,9.863
		c-3.356,0.649-6.422-1.043-7.985-3.691c-0.082-0.141-0.137-0.29-0.207-0.43c-0.476-0.93-0.777-1.95-0.847-3.031
		c-0.012-0.207-0.004-0.41,0-0.622c0.011-0.527,0.035-1.058,0.156-1.598c6.043-25.84,11.223-45.328,15.356-59.695
		c1.359-4.626,6.476-6.906,10.793-4.809c21.523,10.543,47.547,26.394,78.317,50.195C350.466,281.18,347.509,290.309,340.232,290.555
		z" style="fill: rgb(0, 0, 0);"></path>
</g>
</svg>
