<svg xmlns="http://www.w3.org/2000/svg" viewBox="0 0 166.55 188.72"><defs><style>.cls-1{fill:#c8161d;stroke:#fff;stroke-miterlimit:10;}.cls-2{fill:#fff;}.cls-3{fill:none;}</style></defs><g id="レイヤー_2" data-name="レイヤー 2"><g id="footer"><path class="cls-1" d="M156.38.5H10.17C4.83.5.5,4.44.5,9.31V159.37c0,4.87,4.33,8.81,9.67,8.81H75.89c.24,6.59-1.4,15.47-10.69,20.09,13-6.23,19.46-13.93,22.73-20.09h68.45c5.34,0,9.67-3.94,9.67-8.81V9.31C166.05,4.44,161.72.5,156.38.5Z"/><path class="cls-2" d="M25,134.55c0,.19,0,.49,0,.8a41.61,41.61,0,0,0,4.93-.53l0,2.25c-1.28.15-3.06.33-4.95.43v2c2-.1,3.63-.26,5.21-.47l0,2.3c-1.76.2-3.28.33-5.15.39,0,.74.07,1.54.13,2.32A15.28,15.28,0,0,1,30.6,147l-1.41,2.19a14.76,14.76,0,0,0-3.94-2.72c0,.28,0,.51,0,.72,0,1.66-1.27,2.95-3.85,2.95-3.12,0-4.76-1.19-4.76-3.26s1.82-3.35,4.82-3.35a12,12,0,0,1,1.21.05c0-.6-.06-1.23-.07-1.81h-1c-1.13,0-3.36-.1-4.64-.25l0-2.31a33.37,33.37,0,0,0,4.7.37h.94c0-.64,0-1.34,0-2h-.73a43.75,43.75,0,0,1-4.78-.35L17,135a37.24,37.24,0,0,0,4.82.43h.77v-.92a7.7,7.7,0,0,0-.12-1.35h2.63A13.09,13.09,0,0,0,25,134.55Zm-3.95,13.39c1,0,1.72-.3,1.72-1.43,0-.21,0-.49,0-.84a10.57,10.57,0,0,0-1.6-.13c-1.38,0-2.15.54-2.15,1.21S19.73,147.94,21.07,147.94Z"/><path class="cls-2" d="M49.06,135.21l-1.34.57c1.24,0,2.38,0,3,0l0,2.32c-1.17-.06-3-.12-5.66-.12,0,1,0,2,0,2.89a4.89,4.89,0,0,1,.74,2.71c0,2.56-1.5,5.78-6.28,7.13l-2.07-2.09a8.83,8.83,0,0,0,4.78-2.22,4.8,4.8,0,0,1-.9.09,3.45,3.45,0,0,1-3.37-3.57,3.71,3.71,0,0,1,3.92-3.67,4.84,4.84,0,0,1,.78.06c0-.43,0-.88,0-1.31-2.94,0-6,.18-8.39.32l-.06-2.37c2.23,0,5.78-.09,8.41-.13a5.26,5.26,0,0,0,0-.61c0-.78-.13-1.44-.17-1.7h2.81c-.06.32-.12,1.37-.14,1.68s0,.37,0,.61h2.34c-.39-.74-.8-1.5-1.26-2.21l1.6-.66A23.4,23.4,0,0,1,49.06,135.21Zm-7.28,9.12c.82,0,1.53-.63,1.27-2.35a1.42,1.42,0,0,0-1.29-.68,1.46,1.46,0,0,0-1.48,1.54A1.48,1.48,0,0,0,41.78,144.33Zm9.92-9.68-1.64.68a16.61,16.61,0,0,0-1.37-2.3l1.62-.67A21.19,21.19,0,0,1,51.7,134.65Z"/><path class="cls-2" d="M57.59,135.62a52.58,52.58,0,0,0-.93,7.55,9,9,0,0,0,.08,1.27c.25-.68.58-1.34.87-2l1.19,1c-.54,1.6-1.17,3.59-1.4,4.64a5.47,5.47,0,0,0-.1.92c0,.2,0,.53,0,.8l-2.2.18a23,23,0,0,1-.78-6.25,61,61,0,0,1,.8-8.14c.07-.54.17-1.28.19-1.91l2.69.23A14.43,14.43,0,0,0,57.59,135.62Zm9.86-.68c0,.43,0,1.15-.06,2a26.51,26.51,0,0,0,3-.45v2.44c-.94.14-2,.25-3,.33,0,1.89.14,3.46.22,4.78a12.75,12.75,0,0,1,3.78,2.52l-1.34,2.05a20,20,0,0,0-2.38-2c-.12,1.87-1.18,3.2-3.81,3.2s-4.37-1.13-4.37-3.18,1.68-3.34,4.33-3.34a8.48,8.48,0,0,1,1.27.08c0-1.21-.12-2.64-.14-4-.47,0-.93,0-1.38,0-1.15,0-2.27,0-3.42-.12V137a31.84,31.84,0,0,0,3.42.17c.45,0,.91,0,1.36,0,0-1,0-1.75,0-2.16a9.37,9.37,0,0,0-.13-1.29h2.79A11.93,11.93,0,0,0,67.45,134.94Zm-3.86,12.61c1.19,0,1.6-.63,1.6-1.78v-.35a6,6,0,0,0-1.57-.22c-1.11,0-1.85.47-1.85,1.21S62.55,147.55,63.59,147.55Z"/><path class="cls-2" d="M80.1,137.59a13.16,13.16,0,0,1-1.15,1,22.4,22.4,0,0,0-1.89-1.52,12,12,0,0,0,4-4.67l2.26.66a10.28,10.28,0,0,1-.76,1.37H94.31v2.05H92.47V139H95v2.07H92.47v2.47h2.27v2.07h-17v-2.07H80.1v-2.47H77.49V139H80.1Zm-2.81,12.18A9.6,9.6,0,0,0,79.48,146l2.24.55a10.83,10.83,0,0,1-2.22,4.1ZM82.15,139h1.4v-2.5h-1.4Zm0,4.54h1.4v-2.47h-1.4Zm3,2.91a26.24,26.24,0,0,1,.48,3.65l-2.26.33a25.38,25.38,0,0,0-.37-3.72ZM86.93,139v-2.5H85.49V139Zm-1.44,2.07v2.47h1.44v-2.47ZM89,146.38A21.12,21.12,0,0,1,90.15,150l-2.32.45a21.11,21.11,0,0,0-1-3.7Zm1.33-9.88H88.86V139h1.49Zm0,4.57H88.86v2.47h1.49ZM92.92,146a26.64,26.64,0,0,1,2.46,3.9l-2.38.8a24.81,24.81,0,0,0-2.3-4Z"/><path class="cls-2" d="M103.27,146.28a24.52,24.52,0,0,0-1.41-2.54v6.85H99.72V143.7a20.09,20.09,0,0,1-2.25,4.8,13.76,13.76,0,0,0-1-2.4,18.14,18.14,0,0,0,2.58-5H96.77v-2.17h3V132.5h2.14v6.38h2.89v2.17h-2.89v.13c.57.57,2.42,2.76,2.83,3.3Zm-5.64-7.75a19.36,19.36,0,0,0-.88-4.51l1.62-.43a19.64,19.64,0,0,1,1,4.47Zm7.47-4.61c-.5,1.57-1.07,3.42-1.56,4.55l-1.46-.41a35.48,35.48,0,0,0,1.07-4.57Zm7.58,11.44v5.27h-2.19v-4.88l-5.44,1-.36-2.17,5.8-1V132.4h2.19v10.74l2-.38.35,2.17ZM106,138.28a16.19,16.19,0,0,1,3.28,2.24l-1.17,1.85a16.8,16.8,0,0,0-3.2-2.44Zm2.83-.71a15.56,15.56,0,0,0-3-2.53l1.11-1.57a14.55,14.55,0,0,1,3.1,2.37Z"/><path class="cls-2" d="M121.46,139.8c.69.74,2.34,2.75,2.73,3.24l-1.32,1.89c-.3-.62-.86-1.54-1.41-2.42v8.12h-2.22v-7.71a16.78,16.78,0,0,1-2.21,4.39,11.1,11.1,0,0,0-1.09-2.18,19,19,0,0,0,3-6.52h-2.51v-2.19h2.79v-4h2.22v4h2.44v2.19h-2.44Zm12.28-6.33v16.89H131.4v-1h-4.59v1.11h-2.23v-17Zm-6.93,2.19v2.42h4.59v-2.42Zm0,4.51v2.48h4.59v-2.48Zm4.59,7.08v-2.5h-4.59v2.5Z"/><path class="cls-2" d="M143.09,137.48h-7.42v-1.84h7.42Zm-.63,12.13h-4v.77h-1.95v-6.66h5.93Zm0-9.48h-5.86v-1.78h5.86Zm-5.86.9h5.86v1.73h-5.86Zm5.8-6.25h-5.74V133h5.74Zm-3.91,10.78v2.24h2v-2.24Zm11.54-.28a6.66,6.66,0,0,0,4,3.42,17,17,0,0,0-1.33,2,7.23,7.23,0,0,1-4.21-4.29,7.84,7.84,0,0,1-4.65,4.29,9.21,9.21,0,0,0-1.27-1.89c3.73-1.31,4.73-3.87,4.73-5.18v-2.94h2.36v2.94a4.07,4.07,0,0,0,.37,1.64,21.39,21.39,0,0,0,1.54-3.37l2.28.7a35.87,35.87,0,0,1-2.05,3.36Zm-7.36.16a6.27,6.27,0,0,0,1.7-3.44l2,.41a7.43,7.43,0,0,1-1.82,4Zm9.64-4a28.85,28.85,0,0,0-3.9-2.83,7.37,7.37,0,0,1-4.18,3,5.65,5.65,0,0,0-1.29-1.83c4.06-1.27,4.37-3.5,4.53-7.36h2.25a20.9,20.9,0,0,1-.49,4.26,39.07,39.07,0,0,1,4.62,3ZM146.49,134a7,7,0,0,1-1.55,3.61l-1.81-.78a6.28,6.28,0,0,0,1.46-3.22Zm7.18.2c-.65,1.13-1.35,2.32-1.9,3.14l-1.71-.66a17.66,17.66,0,0,0,1.4-3.18Z"/><rect class="cls-2" x="60.87" y="40.04" width="42.86" height="2.62"/><rect class="cls-2" x="60.87" y="50.54" width="42.86" height="2.62"/><rect class="cls-2" x="60.87" y="61.03" width="42.86" height="2.62"/><rect class="cls-2" x="60.87" y="71.53" width="42.86" height="2.62"/><path class="cls-3" d="M106.55,77.87,123,61.45V33.58a3.17,3.17,0,0,0-3.16-3.16H54.4a3.16,3.16,0,0,0-3.15,3.16V99a3.15,3.15,0,0,0,3.15,3.16h65.41A3.16,3.16,0,0,0,123,99V82.48l-5.91,5.91Z"/><path class="cls-2" d="M123,89.48V99a3.16,3.16,0,0,1-3.16,3.16H54.4A3.15,3.15,0,0,1,51.25,99V33.58a3.16,3.16,0,0,1,3.15-3.16h65.41A3.17,3.17,0,0,1,123,33.58V54l8.75-8.74V33.58a11.92,11.92,0,0,0-11.91-11.91H54.4A11.92,11.92,0,0,0,42.5,33.58V99a11.92,11.92,0,0,0,11.9,11.91h65.41A11.92,11.92,0,0,0,131.72,99V80.73Z"/><rect class="cls-2" x="125.09" y="33.11" width="14.87" height="58.6" transform="translate(82.95 -75.43) rotate(45)"/><polygon class="cls-2" points="98.82 96.12 114.15 90.42 104.51 80.78 98.82 96.12"/></g></g></svg>