<svg xmlns="http://www.w3.org/2000/svg" viewBox="0 0 53 53"><defs><style>.cls-1{fill:#be131b;}.cls-2{fill:#f2f2f2;}</style></defs><g id="レイヤー_2" data-name="レイヤー 2"><g id="contents"><rect class="cls-1" width="53" height="53" rx="6.12"/><path class="cls-2" d="M30.49,30.43c-.42-1.3-.63-1.3-4.9-1.36-3.54-.05-4.37.16-4.58.58A76.45,76.45,0,0,0,17.31,40c0,1,1.09,1.46,1.51,1.56,1.62.42,2.66.63,2.66,1,0,.63-.84.63-1.2.63-1.41,0-3.07-.21-4.58-.21-2,0-4,.21-5.78.21-.42,0-.63-.16-.63-.63,0-.68,1.36-.57,2.66-1a2.15,2.15,0,0,0,1.56-1.3L26.79,10.07a.57.57,0,0,1,.52-.32.63.63,0,0,1,.63.37l9.68,27.65c1,2.86,2,3.54,2.71,3.75,1.41.42,2.4.26,2.4,1,0,.52-.42.63-1,.63-2.24,0-4-.21-6-.21s-3.75.21-5.78.21a.66.66,0,0,1-.73-.58c0-.62,1-.78,2.92-1.09.31-.05,1.3-.47,1.3-1.35A7,7,0,0,0,33,38.86ZM22.1,25.58a3.57,3.57,0,0,0-.31.94c0,.26,3.33.26,3.75.26s3.65,0,3.65-.31a3.45,3.45,0,0,0-.27-1l-2.76-8.23c-.05-.1-.1-.31-.31-.31s-.21.1-.26.26Z"/></g></g></svg>