<!--?xml version="1.0" encoding="utf-8"?-->
<!-- Generator: Adobe Illustrator 19.1.1, SVG Export Plug-In . SVG Version: 6.00 Build 0)  -->
<svg version="1.1" id="_x31_0" xmlns="http://www.w3.org/2000/svg" xmlns:xlink="http://www.w3.org/1999/xlink" x="0px" y="0px" viewBox="0 0 512 512" style="width: 64px; height: 64px; opacity: 1;" xml:space="preserve">
<style type="text/css">
	.st0{fill:#374149;}
</style>
<g>
	<path class="st0" d="M475.442,51.641H36.558C16.398,51.641,0,68.039,0,88.203v335.598c0,20.16,16.398,36.558,36.558,36.558h438.883
		c20.156,0,36.558-16.398,36.558-36.558V88.203C512,68.039,495.598,51.641,475.442,51.641z M468.32,416.762H43.598V233.93
		l133.89-138.687H468.32V416.762z M124.637,95.352L77.496,144.18l-33.898,34.945V95.242h47.871L124.637,95.352z" style="fill: rgb(255, 255, 255);"></path>
	<path class="st0" d="M176.801,159.242c-10.16,0-27.359,12-34.242,24.398c-6.878,12.481-8.961,16.961-5.438,32.481
		c0.321,1.121,0.637,2,0.958,2.64c-1.199,1.039-2.879,3.762-2.481,7.598c0.402,3.844,1.523,18.321,8.641,18.321
		c0.562,0,1.281-0.078,2-0.321c0.16,1.282,0.801,4.723,2.082,8.242c1.278,3.602,3.199,7.199,6,8.719v8.082l-0.242,15.122v0.238
		h-0.958c-2.722,0.641-42.562,24.481-57.121,38.078c-2,1.762-3.121,3.363-3.359,4.481c-1.122,5.679-2.883,14.082-3.52,20.082
		c-0.082,1.199,0.879,2.321,2.078,2.321l27.199,1.839c4.16,0.161,8.242,0.238,12.32,0.398c2,0.078,4,0.161,6,0.161
		c8.082,0.238,16.082,0.402,24.161,0.48c2.32,0.078,4.562,0.078,6.878,0.078c3.922,0.082,7.762,0.16,11.684,0.16
		c20.156,0,40.398-0.398,60.558-1.278l27.199-1.762c1.282-0.078,2.242-1.199,2.078-2.398c-0.637-5.922-2.317-14.402-3.438-20.082
		c-0.242-1.118-1.442-2.719-3.442-4.481c-14.481-13.598-54.32-37.438-57.121-38.078h-1.199v-6.312l0.441-17.438
		c0.118-0.09,0.254-0.18,0.36-0.25c0.16-0.16,0.32-0.238,0.48-0.402c4.801-3.886,6.25-11.93,6.726-15.105
		c0.055-0.305,0.122-0.574,0.172-0.891c0.715,0.238,1.348,0.317,1.981,0.317c7.121,0,8.242-14.477,8.641-18.321
		c0.398-3.835-1.282-6.558-2.481-7.598c0.242-0.64,0.562-1.519,0.961-2.64c0.801-2.719,1.602-6.559,1.84-10.719
		c0.481-6.082-0.078-12.641-2.961-16.722c-0.961-1.438-2.558-3.199-4.321-5.039c-4.16-4.078-9.598-8.238-12.718-8.238
		c-5.199-9.281-11.758-15.281-24-16.082c-0.718-0.078-1.442-0.078-2.238-0.078H176.801z" style="fill: rgb(255, 255, 255);"></path>
	<path class="st0" d="M319.442,203.402h100.078c1.84,0,3.282-1.442,3.282-3.281v-16.801c0-1.758-1.442-3.282-3.282-3.282H319.442
		c-1.844,0-3.282,1.523-3.282,3.282v16.801C316.16,201.961,317.598,203.402,319.442,203.402z" style="fill: rgb(255, 255, 255);"></path>
	<path class="st0" d="M319.442,272.762h100.078c1.84,0,3.282-1.519,3.282-3.281V252.68c0-1.84-1.442-3.278-3.282-3.278H319.442
		c-1.844,0-3.282,1.438-3.282,3.278v16.801C316.16,271.242,317.598,272.762,319.442,272.762z" style="fill: rgb(255, 255, 255);"></path>
	<path class="st0" d="M319.442,342.039h100.078c1.84,0,3.282-1.438,3.282-3.278v-16.722c0-1.836-1.442-3.278-3.282-3.278H319.442
		c-1.844,0-3.282,1.442-3.282,3.278v16.722C316.16,340.602,317.598,342.039,319.442,342.039z" style="fill: rgb(255, 255, 255);"></path>
</g>
</svg>
