<?xml version="1.0" encoding="UTF-8"?><svg xmlns="http://www.w3.org/2000/svg" viewBox="0 0 378.35 287.75"><defs><style>.d{fill:#c7161d;}.e{fill:none;stroke:#c8161d;stroke-linecap:round;stroke-linejoin:round;stroke-width:2.83px;}.f{fill:#231815;}</style></defs><g id="a"/><g id="b"><g id="c"><g><path class="f" d="M40.88,28.49c-.37,3.44-1.22,6.13-2.45,8.2,.83,1.18,1.86,2.14,3.11,2.8-.34,.29-.82,.85-1.02,1.22-1.18-.69-2.18-1.58-3.01-2.69-.87,1.1-1.91,1.97-3.06,2.66-.21-.35-.61-.86-.93-1.15v1.31h-1.44v-2.74c-1.94,.32-3.91,.64-5.39,.88l-.27-1.49c.45-.05,.95-.13,1.51-.19v-8.79h-1.17v-1.38h7.84v1.15h5.07l.26-.05,.96,.26Zm-11.54,.02v1.86h2.74v-1.86h-2.74Zm0,5.14h2.74v-1.95h-2.74v1.95Zm2.74,3.07v-1.73h-2.74v2.11l2.74-.38Zm1.44,2.72c1.18-.62,2.22-1.57,3.11-2.79-1.04-1.84-1.76-4.07-2.27-6.58l1.44-.29c.37,1.98,.93,3.83,1.73,5.41,.8-1.52,1.39-3.36,1.73-5.46h-5.07v-1.23h-.66v10.93Z"/><path class="f" d="M50.13,33.8s-.02,.46-.06,.66c-.27,3.65-.54,5.17-1.11,5.75-.37,.42-.78,.53-1.41,.58-.51,.06-1.5,.05-2.5,0-.05-.46-.24-1.1-.54-1.55,1.01,.1,2.05,.11,2.45,.11,.32,0,.53-.02,.72-.18,.35-.3,.61-1.44,.82-3.99h-3.79l-.16,.77-1.49-.24c.34-1.39,.72-3.58,.95-5.28h4.54v-2.24h-5.03v-1.38h6.5v5.01h-4.72c-.1,.66-.22,1.34-.34,1.99h5.17Zm5.41-7.44v14.49h-1.5v-14.49h1.5Z"/><path class="f" d="M71.1,39.21c.53,0,.62-.32,.69-2.31,.32,.26,.96,.5,1.34,.61-.14,2.45-.54,3.11-1.9,3.11h-2.08c-1.58,0-1.97-.48-1.97-1.98v-4.32h-2.69c-.35,2.96-1.22,5.31-4.85,6.64-.18-.4-.59-.99-.93-1.31,3.28-1.01,3.94-2.95,4.21-5.33h-3.97v-1.44h6.24v-2.95h-3.06c-.38,.86-.82,1.68-1.31,2.34-.35-.24-.95-.56-1.31-.7,1.07-1.31,1.86-3.46,2.21-5.07l1.52,.29c-.16,.54-.34,1.14-.54,1.73h2.5v-2.34h1.5v2.34h5.07v1.42h-5.07v2.95h6.26v1.44h-4.27v4.32c0,.5,.1,.58,.64,.58h1.78Z"/><path class="f" d="M77.89,27.95c.13,.27,.43,.85,.59,1.14,.27,.5,.56,1.07,.85,1.68,1.9-.85,3.95-1.66,5.59-1.66,2.3,0,3.71,1.38,3.71,3.15,0,1.98-1.33,3.38-3.78,3.38-.88,0-1.82-.22-2.4-.45l.05-1.57c.64,.29,1.44,.53,2.21,.53,1.5,0,2.27-.83,2.27-1.95,0-.9-.7-1.65-2.11-1.65-1.31,0-3.17,.7-4.93,1.52,.18,.38,.35,.78,.53,1.17,.82,1.86,1.91,4.99,2.45,6.77l-1.74,.43c-.5-1.92-1.26-4.53-2.15-6.53l-.51-1.17c-1.18,.59-2.24,1.14-2.95,1.46l-.75-1.62c.53-.13,1.15-.35,1.42-.46,.51-.21,1.07-.45,1.67-.72-.29-.59-.56-1.12-.82-1.57-.21-.35-.54-.88-.83-1.23l1.63-.64Zm4.48,1.28c-.59-.58-1.41-1.38-2.07-1.86l1.15-.82c.54,.42,1.5,1.2,2.08,1.79l-1.17,.88Z"/><path class="f" d="M95.39,29.95c-.37,.67-.82,1.34-1.3,2v8.95h-1.39v-7.28c-.51,.56-1.04,1.07-1.57,1.49-.14-.3-.58-1.04-.82-1.36,1.41-1.02,2.87-2.64,3.76-4.26l1.31,.46Zm-.32-3.26c-.96,1.38-2.43,2.88-3.79,3.83-.18-.29-.56-.82-.8-1.07,1.2-.83,2.58-2.16,3.25-3.27l1.34,.51Zm6.13,12.42c.43,.06,.88,.1,1.36,.1,.4,0,2.3,0,2.82-.02-.18,.35-.38,1.02-.45,1.42h-2.48c-2.29,0-4.05-.58-5.23-2.71-.4,1.2-.94,2.21-1.71,3.02-.24-.27-.82-.8-1.15-1.02,1.52-1.46,2.02-3.87,2.19-6.79l1.49,.11c-.08,.98-.18,1.89-.34,2.72,.48,1.38,1.18,2.19,2.05,2.67v-7.39h-3.86v-1.42h2.34c-.34-.86-.99-2.08-1.54-3.01l1.23-.51c.64,.98,1.34,2.24,1.68,3.09l-.9,.43h3.81l-1.07-.4c.51-.86,1.17-2.24,1.5-3.23l1.44,.5c-.51,1.12-1.1,2.31-1.62,3.14h2.23v1.42h-3.79v2.83h3.36v1.39h-3.36v3.65Z"/><path class="f" d="M115.94,37.15c1.41,.99,3.47,1.81,5.43,2.18-.34,.32-.77,.93-.99,1.33-2.08-.56-4.23-1.63-5.73-3.01v3.22h-1.46v-3.11c-1.52,1.28-3.68,2.32-5.68,2.88-.22-.38-.64-.94-.98-1.26,1.91-.4,3.99-1.23,5.39-2.23h-4.95v-1.25h6.21v-.98h-4.72v-1.12h4.72v-.96h-5.51v-1.18h3.28c-.14-.45-.42-1.02-.67-1.46l.38-.06h-3.63v-1.25h2.37c-.24-.62-.72-1.5-1.17-2.16l1.3-.43c.5,.69,1.06,1.67,1.28,2.29l-.82,.3h1.76v-2.74h1.39v2.74h1.58v-2.74h1.41v2.74h1.73l-.61-.19c.38-.64,.88-1.65,1.12-2.37l1.54,.38c-.43,.78-.91,1.58-1.33,2.18h2.3v1.25h-3.09c-.3,.54-.62,1.07-.9,1.52h3.39v1.18h-5.67v.96h4.91v1.12h-4.91v.98h6.31v1.25h-5.01Zm-4.11-7.01c.29,.46,.58,1.04,.69,1.42l-.46,.1h3.38c.24-.43,.5-1.01,.7-1.52h-4.31Z"/><path class="f" d="M132.62,38.17c1.6,.46,3.52,1.15,4.72,1.67l-1.31,1.04c-1.2-.54-3.36-1.36-5.04-1.84l1.17-.86h-4.63l1.12,.75c-1.28,.77-3.33,1.54-4.96,1.94-.27-.3-.75-.8-1.12-1.07,1.52-.35,3.39-1.01,4.45-1.62h-2.77v-6.93h11.43v6.93h-3.06Zm2.43-7.7h-10.12v-3.75h10.12v3.75Zm-9.33,2.75h8.4v-.91h-8.4v.91Zm0,1.94h8.4v-.93h-8.4v.93Zm0,1.94h8.4v-.94h-8.4v.94Zm7.76-9.19h-7.06v1.38h7.06v-1.38Z"/><path class="f" d="M142.43,27.5c-.11,.3-.27,.93-.34,1.22-.27,1.3-.79,4.27-.79,5.97,0,.56,.03,1.09,.11,1.67,.24-.64,.56-1.41,.8-1.99l.83,.64c-.43,1.2-.99,2.9-1.14,3.7-.05,.21-.1,.54-.08,.72,0,.16,.02,.4,.03,.59l-1.44,.1c-.32-1.1-.61-2.98-.61-5.12,0-2.37,.51-5.06,.69-6.32,.06-.4,.13-.9,.14-1.31l1.78,.14Zm3.65,7.75c-.13,.54-.19,.98-.19,1.41,0,.72,.53,1.28,2.45,1.28,1.42,0,2.62-.13,3.95-.42l.03,1.7c-.99,.19-2.3,.32-4.02,.32-2.69,0-3.94-.93-3.94-2.46,0-.62,.13-1.26,.27-1.95l1.44,.13Zm5.75-6.61v1.63c-1.81,.18-4.8,.19-6.64,0v-1.62c1.81,.27,4.99,.21,6.64-.02Z"/><path class="f" d="M55.21,58.92c-.05,.3-.08,.61-.14,.91,.8,.78,2.64,2.87,3.11,3.39l-1.02,1.28c-.53-.8-1.6-2.18-2.45-3.15-.53,1.65-1.47,3.25-3.17,4.48-.21-.32-.75-.91-1.06-1.14,2.26-1.6,2.99-3.78,3.23-5.78h-3.04v-1.41h3.14v-2.87h-.98c-.34,.88-.75,1.68-1.18,2.32-.27-.26-.86-.66-1.22-.86,.91-1.17,1.54-3.04,1.91-4.91l1.42,.27c-.13,.61-.27,1.22-.43,1.79h4.37v1.39h-2.38v2.87h2.83v1.41h-2.93Zm9.25-6.37v12.68h-1.5v-1.02h-2.91v1.2h-1.44v-12.85h5.86Zm-1.5,10.26v-8.85h-2.91v8.85h2.91Z"/><path class="f" d="M70.56,59.06c1.47-1.18,3.14-1.73,4.91-1.73,2.58,0,4.21,1.58,4.21,3.46,0,2.87-2.43,4.91-8.61,4.4l-.5-1.65c4.9,.62,7.38-.69,7.38-2.79,0-1.17-1.09-1.98-2.61-1.98-1.97,0-3.6,.72-4.67,1.98-.26,.3-.4,.58-.53,.85l-1.47-.35c.3-1.49,.7-4.72,.8-6.51l1.7,.22c-.21,.99-.48,3.12-.61,4.1Zm.75-7.11c1.42,.45,4.83,1.07,6.23,1.22l-.37,1.55c-1.55-.21-5.04-.93-6.26-1.25l.4-1.52Z"/><path class="f" d="M97.46,63.48c-.8,.78-1.78,1.26-2.95,1.26-1.1,0-1.87-.77-1.87-2.18,0-1.74,.59-4.23,.59-5.73,0-.85-.43-1.23-1.18-1.23-1.23,0-3.06,1.49-4.43,2.98-.03,.56-.05,1.1-.05,1.6,0,1.38-.02,2.51,.06,3.95,.02,.29,.06,.75,.1,1.07h-1.73c.02-.27,.05-.78,.05-1.04,.02-1.47,.03-2.38,.06-4.15-.74,1.09-1.67,2.46-2.34,3.38l-.99-1.39c.88-1.1,2.61-3.39,3.46-4.67,.03-.45,.06-.91,.1-1.36-.74,.1-2.05,.27-3.01,.4l-.16-1.63c.4,.02,.74,0,1.18-.02,.5-.03,1.33-.13,2.08-.24,.05-.69,.08-1.2,.08-1.38,0-.4,0-.85-.08-1.28l1.87,.06c-.08,.4-.21,1.25-.32,2.27l.56,.67c-.21,.29-.5,.74-.75,1.14-.02,.22-.03,.43-.05,.66,1.23-1.12,3.17-2.51,4.72-2.51s2.35,.91,2.35,2.22c0,1.6-.56,4.16-.56,5.78,0,.5,.22,.85,.72,.85,.71,0,1.52-.46,2.24-1.23l.24,1.75Z"/><path class="f" d="M109.92,54.02c1.02,0,1.94-.02,2.4,0l-.02,1.49c-.94-.05-2.43-.08-4.75-.08,.02,.85,.02,1.76,.02,2.48,.37,.58,.56,1.3,.56,2.11,0,2.11-1.12,4.61-4.88,5.7l-1.36-1.34c1.87-.42,3.31-1.1,4.08-2.31-.32,.14-.69,.22-1.09,.22-1.3,0-2.67-.94-2.67-2.77,0-1.66,1.36-2.85,2.96-2.85,.3,0,.59,.03,.86,.11l-.02-1.34c-2.4,.03-4.98,.13-6.96,.27l-.03-1.55c1.79-.02,4.72-.1,6.98-.13,0-.34-.02-.62-.03-.8-.02-.42-.06-.94-.13-1.17h1.84c-.03,.22-.08,.93-.1,1.15-.02,.19-.02,.48-.02,.8h2.34c-.34-.64-.75-1.36-1.15-1.94l1.09-.45c.38,.54,.85,1.33,1.15,1.9l-1.07,.48Zm-4.77,6.88c.82,0,1.42-.64,1.22-2.15-.26-.51-.69-.74-1.22-.74-.74,0-1.44,.54-1.44,1.47s.67,1.41,1.44,1.41Zm6.79-7.33c-.34-.66-.74-1.36-1.15-1.92l1.07-.45c.38,.56,.86,1.3,1.18,1.89l-1.1,.48Z"/><path class="f" d="M118.43,52.5c-.11,.3-.27,.93-.34,1.22-.27,1.3-.79,4.27-.79,5.97,0,.56,.03,1.09,.11,1.67,.24-.64,.56-1.41,.8-1.99l.83,.64c-.43,1.2-.99,2.9-1.14,3.7-.05,.21-.1,.54-.08,.72,0,.16,.02,.4,.03,.59l-1.44,.1c-.32-1.1-.61-2.98-.61-5.12,0-2.37,.51-5.06,.69-6.32,.06-.4,.13-.9,.14-1.31l1.78,.14Zm3.65,7.75c-.13,.54-.19,.98-.19,1.41,0,.72,.53,1.28,2.45,1.28,1.42,0,2.62-.13,3.95-.42l.03,1.7c-.99,.19-2.3,.32-4.02,.32-2.69,0-3.94-.93-3.94-2.46,0-.62,.13-1.26,.27-1.95l1.44,.13Zm5.75-6.61v1.63c-1.81,.18-4.8,.19-6.64,0v-1.62c1.81,.27,4.99,.21,6.64-.02Z"/><path class="f" d="M39.76,79.99h-5.19v-1.18h5.19v1.18Zm-.43,9.96h-2.94v.7h-1.18v-5.38h4.13v4.67Zm-4.1-8.96h4.11v1.15h-4.11v-1.15Zm0,2.13h4.11v1.17h-4.11v-1.17Zm4.08-5.25h-3.99v-1.17h3.99v1.17Zm-2.93,8.61v2.3h1.75v-2.3h-1.75Zm12.65,.77c-.54,.4-1.23,.78-1.86,1.1,.66,.62,1.44,1.12,2.35,1.42-.29,.22-.67,.74-.87,1.07-2.05-.78-3.44-2.43-4.19-4.62h-.13c-.35,.35-.75,.7-1.2,1.01v1.94c.78-.13,1.62-.26,2.45-.4l.1,1.09c-1.73,.32-3.54,.66-4.93,.88l-.37-1.15c.43-.06,.95-.14,1.49-.22v-1.38c-.54,.29-1.09,.53-1.63,.74-.18-.26-.56-.75-.8-.99,1.14-.35,2.34-.86,3.23-1.5h-2.87v-1.04h2.38v-.75h-1.5v-.98h1.5v-.74h-1.86v-1.01h1.86v-1.1h1.33v1.1h1.99v-1.1h1.36v1.1h2.03v1.01h-2.03v.74h1.73v.98h-1.73v.75h2.43v1.04h-3.57c.21,.48,.48,.93,.78,1.34,.59-.34,1.26-.78,1.7-1.1l.82,.79Zm-5.2-8.12c-.75,.88-2.06,1.7-3.22,2.19-.21-.24-.69-.72-.98-.93,1.12-.4,2.29-.99,2.93-1.65l1.26,.38Zm5.27-.46h-9.01v-1.12h3.65v-1.39h1.5v1.39h3.86v1.12Zm-5.57,4.79h1.99v-.74h-1.99v.74Zm0,1.73h1.99v-.75h-1.99v.75Zm2.69-6.5c1.07,.46,2.39,1.22,3.11,1.78l-.99,.77c-.69-.59-2.02-1.39-3.09-1.86l.98-.69Z"/><path class="f" d="M53.26,83.29c-.56-.53-1.74-1.23-2.72-1.65l.83-1.12c.94,.37,2.16,1.01,2.75,1.52l-.87,1.25Zm1.14,2.22c-.67,1.7-1.54,3.6-2.3,5.14l-1.36-.85c.72-1.25,1.71-3.31,2.45-5.15l1.22,.86Zm-.32-6.4c-.54-.54-1.71-1.26-2.64-1.71l.83-1.09c.93,.38,2.11,1.04,2.69,1.58l-.88,1.22Zm2.62,2.87c0,2.56-.26,6.34-1.86,8.82-.27-.22-.9-.58-1.25-.72,1.55-2.35,1.68-5.7,1.68-8.12v-4.29h4.34v-1.5h1.5v1.5h4.02v1.25h-8.44v1.54h1.57v-1.17h1.31v1.17h2.56v-1.17h1.36v1.17h1.71v1.18h-1.71v2.42h-5.23v-2.42h-1.57v.34Zm7.88,3.19c-.56,1.42-1.44,2.53-2.56,3.39,.99,.5,2.14,.85,3.43,1.04-.3,.29-.71,.86-.9,1.25-1.46-.3-2.72-.78-3.79-1.44-1.17,.64-2.48,1.1-3.87,1.41-.13-.35-.46-.91-.72-1.2,1.22-.21,2.38-.56,3.42-1.07-.7-.64-1.3-1.38-1.76-2.24l.96-.29h-1.76v-1.18h6.39l.26-.06,.91,.4Zm-5.43,.85c.4,.69,.96,1.3,1.66,1.81,.72-.5,1.35-1.1,1.81-1.81h-3.47Zm.43-4.37v1.25h2.56v-1.25h-2.56Z"/><path class="f" d="M74.1,87.37c.05-.54,.06-1.44,.06-2.23-1.34,.75-2.19,1.47-2.19,2.4,0,1.09,1.03,1.3,2.62,1.3,1.28,0,3.01-.16,4.4-.42l-.05,1.62c-1.15,.14-2.98,.27-4.4,.27-2.37,0-4.21-.54-4.21-2.51s1.91-3.18,3.73-4.11c-.19-.56-.7-.78-1.28-.78-.99,0-1.95,.51-2.62,1.14-.46,.45-.93,1.02-1.46,1.7l-1.36-1.02c1.86-1.76,2.93-3.3,3.58-4.63h-.46c-.66,0-1.76-.03-2.64-.1v-1.49c.83,.11,1.97,.18,2.72,.18h.93c.21-.72,.34-1.41,.37-1.91l1.65,.13c-.1,.42-.22,1.02-.45,1.71,1.57-.06,3.23-.21,4.69-.46v1.47c-1.55,.24-3.51,.37-5.22,.43-.32,.7-.74,1.44-1.2,2.07,.5-.29,1.39-.46,2.02-.46,.99,0,1.81,.46,2.11,1.34,.98-.46,1.79-.8,2.54-1.14,.53-.24,.99-.45,1.5-.7l.62,1.47c-.43,.13-1.12,.38-1.6,.58-.82,.3-1.84,.74-2.95,1.25,.02,.9,.05,2.16,.06,2.91h-1.54Z"/><path class="f" d="M91.28,82.03c-.86,.64-1.78,1.22-2.72,1.78,2.1-.22,4.24-.54,5.59-.91l.91,.99c-1.92,.51-4.74,.86-7.22,1.04-.1,.35-.18,.7-.26,1.04h7.49s-.05,.43-.08,.66c-.37,2.26-.75,3.31-1.26,3.79-.37,.34-.75,.42-1.36,.45-.5,.03-1.42,.03-2.4-.02-.02-.42-.21-.99-.45-1.38,.94,.1,1.97,.11,2.37,.11,.3,0,.51-.02,.69-.14,.3-.24,.58-.91,.82-2.24h-6.15c-.06,.27-.14,.53-.21,.75l-1.49-.21c.24-.72,.5-1.71,.75-2.72-1.01,.5-2.02,.93-3.04,1.33-.18-.3-.64-.88-.93-1.17,1.47-.51,2.95-1.14,4.34-1.86l.08-.37,.51,.06c.58-.32,1.14-.64,1.68-.99h-5.92v-1.28h5.07v-1.57h-3.87v-1.23h3.87v-1.78h1.47v1.78h3.62v.78c.61-.61,1.18-1.23,1.7-1.87l1.22,.67c-.93,1.15-2.02,2.23-3.19,3.22h3.83v1.28h-5.46Zm-.46-1.28c.66-.5,1.3-1.02,1.89-1.57h-3.14v1.57h1.25Z"/><path class="f" d="M108.78,82.36c-.64,.59-2.29,2.1-2.79,2.62,.14-.02,.45,.03,.59,.08,.54,.1,.88,.5,1.1,1.12,.14,.45,.34,1.15,.5,1.62,.16,.56,.53,.82,1.25,.82,1.12,0,2.27-.14,3.04-.32l-.1,1.68c-.67,.11-2.21,.22-3.04,.22-1.36,0-2.18-.3-2.53-1.34-.16-.48-.37-1.33-.51-1.76-.19-.54-.51-.8-.91-.8-.37,0-.72,.24-1.1,.61-.58,.56-2.05,2.13-3.04,3.38l-1.5-1.04c.24-.19,.58-.46,.91-.83,.72-.7,4.58-4.55,6.08-6.1-1.18,.06-3.51,.26-4.47,.34-.51,.05-.96,.11-1.31,.18l-.14-1.76c.37,.03,.9,.05,1.42,.05,.85-.02,4.48-.22,5.75-.38,.27-.03,.64-.11,.8-.18l.94,1.06c-.35,.26-.7,.56-.94,.75Zm.53-4.69l-.21,1.47c-1.63-.13-4.48-.48-6.39-.82l.24-1.47c1.74,.35,4.79,.72,6.35,.82Z"/><path class="f" d="M123.62,80.3c-.99,.22-2.1,.4-3.18,.53-.14,.69-.32,1.39-.5,2.06-.58,2.24-1.63,5.51-2.5,7.3l-1.76-.59c.96-1.62,2.1-4.88,2.69-7.11,.14-.48,.27-1.01,.38-1.52-.45,.02-.87,.03-1.26,.03-.74,0-1.31-.03-1.89-.06l-.03-1.57c.77,.1,1.33,.13,1.94,.13,.5,0,1.02-.02,1.58-.06,.08-.46,.16-.88,.19-1.17,.06-.51,.08-1.09,.05-1.44l1.94,.14c-.11,.4-.24,1.04-.3,1.36l-.19,.93c.96-.13,1.94-.32,2.85-.54v1.58Zm-.5,5.39c-.13,.5-.22,.99-.22,1.38,0,.72,.38,1.36,2.4,1.36,1.04,0,2.13-.13,3.17-.32l-.05,1.62c-.88,.13-1.94,.22-3.14,.22-2.58,0-3.91-.85-3.91-2.42,0-.66,.11-1.33,.24-1.99l1.5,.14Zm-.62-3.91c.85-.1,1.94-.16,2.96-.16,.91,0,1.87,.05,2.77,.14l-.05,1.52c-.8-.1-1.75-.19-2.69-.19-1.04,0-2.02,.05-2.99,.16v-1.47Z"/><path class="f" d="M133.65,80.06c-.02,.99,0,2.34,.11,3.57,.24,2.5,.88,4.16,1.94,4.16,.8,0,1.49-1.73,1.84-3.19l1.28,1.49c-1.01,2.72-1.99,3.67-3.15,3.67-1.6,0-3.07-1.54-3.51-5.71-.16-1.39-.18-3.28-.18-4.24,0-.4-.02-1.06-.11-1.49l1.94,.03c-.08,.46-.16,1.28-.16,1.71Zm11.11,6.59l-1.65,.64c-.26-2.72-1.17-6.13-2.77-8.02l1.58-.53c1.46,1.84,2.62,5.33,2.83,7.91Z"/></g><g><path class="f" d="M235.55,32.99c-.37,.67-.82,1.34-1.3,2v8.95h-1.39v-7.28c-.51,.56-1.04,1.07-1.57,1.49-.14-.3-.58-1.04-.82-1.36,1.41-1.02,2.87-2.64,3.76-4.26l1.31,.46Zm-.32-3.26c-.96,1.38-2.43,2.88-3.79,3.83-.18-.29-.56-.82-.8-1.07,1.2-.83,2.58-2.16,3.25-3.27l1.34,.51Zm8.8,8.08c-.58,1.41-1.47,2.53-2.59,3.44,1.22,.66,2.66,1.14,4.21,1.41-.3,.3-.71,.9-.9,1.28-1.7-.37-3.22-.99-4.51-1.84-1.41,.86-3.04,1.47-4.75,1.86-.14-.37-.45-.98-.72-1.26,1.54-.27,3.03-.77,4.31-1.47-.61-.51-1.14-1.1-1.6-1.74-.54,.48-1.12,.88-1.7,1.23-.19-.29-.67-.86-.99-1.1,1.46-.75,2.87-1.91,3.79-3.23-1.28,.03-2.46,.06-3.46,.1l-.13-1.34c.7,0,1.54-.02,2.46-.03,.29-.24,.61-.51,.91-.79-.74-.77-1.92-1.71-2.95-2.38l.9-.96c.29,.19,.61,.38,.93,.61,.67-.72,1.41-1.67,1.87-2.39l1.3,.67c-.7,.83-1.5,1.74-2.21,2.43,.46,.35,.88,.7,1.22,1.04,1.02-.99,2-2.03,2.72-2.95l1.33,.74c-1.22,1.28-2.74,2.75-4.16,3.94,1.17-.02,2.4-.03,3.65-.06-.34-.45-.69-.86-1.02-1.25l1.17-.62c.96,1.04,2.08,2.48,2.53,3.46l-1.23,.72c-.14-.32-.37-.71-.62-1.12-1.18,.05-2.4,.1-3.55,.13-.24,.38-.5,.77-.78,1.14h3.43l.26-.05,.91,.42Zm-5.62,.82c.46,.69,1.09,1.31,1.81,1.86,.75-.54,1.38-1.18,1.84-1.9h-3.62l-.03,.05Z"/><path class="f" d="M248.6,38.58c-.19,1.5-.54,3.04-1.02,4.05-.22-.16-.78-.42-1.06-.51,.46-.96,.75-2.38,.9-3.75l1.18,.21Zm2.72-4.29c.59,1.07,1.15,2.48,1.33,3.39l-1.1,.46c-.05-.27-.13-.61-.24-.96l-1.01,.06v6.64h-1.28v-6.55c-.82,.05-1.6,.11-2.27,.14l-.14-1.3,1.2-.06c.26-.35,.54-.74,.82-1.17-.46-.72-1.25-1.62-1.94-2.31l.74-.96c.16,.14,.3,.29,.46,.45,.5-.9,.99-2.07,1.28-2.93l1.28,.46c-.56,1.1-1.23,2.4-1.78,3.28,.26,.29,.5,.58,.69,.85,.58-.94,1.12-1.94,1.5-2.75l1.2,.54c-.86,1.42-1.95,3.14-2.95,4.45l1.76-.1c-.16-.43-.37-.88-.56-1.26l1.01-.4Zm.29,4.02c.38,.91,.7,2.1,.8,2.88l-1.07,.34c-.08-.8-.38-1.99-.75-2.9l1.02-.32Zm9.86,4.83h-7.39v.74h-1.39v-14.05h1.39v11.97h7.39v1.34Zm-4.39-5.67c-.64,1.33-1.44,2.61-2.27,3.38-.13-.4-.43-1.02-.66-1.38,.94-.85,1.92-2.35,2.5-3.75h-2.18v-1.34h2.61v-4.85h1.31v4.85h2.77v1.34h-2.77v.37c.69,.62,2.43,2.4,2.85,2.87l-.9,1.15c-.37-.59-1.23-1.68-1.95-2.53v3.94h-1.31v-4.05Zm-1.57-3.41c-.13-.85-.54-2.15-1.01-3.11l1.07-.38c.5,.96,.94,2.21,1.1,3.06l-1.17,.43Zm5.57-3.22c-.46,1.12-1.01,2.46-1.46,3.31l-1.02-.38c.42-.9,.93-2.34,1.18-3.36l1.3,.43Z"/><path class="f" d="M271.31,35.51c-.72,.54-1.47,1.02-2.24,1.5h6.21v6.83h-1.54v-.43h-6.03v.5h-1.47v-5.38c-.9,.42-1.81,.8-2.72,1.15-.18-.34-.64-.93-.91-1.23,2.21-.74,4.34-1.73,6.26-2.95h-5.86v-1.33h5.3v-1.79h-3.91v-1.3h3.91v-1.87h1.47v1.87h3.73v.7c.64-.66,1.23-1.34,1.74-2.06l1.28,.67c-1.01,1.38-2.21,2.62-3.54,3.78h4.19v1.33h-5.87Zm2.43,2.74h-6.03v1.33h6.03v-1.33Zm0,3.91v-1.41h-6.03v1.41h6.03Zm-2.93-7.97c.75-.56,1.44-1.17,2.1-1.79h-3.14v1.79h1.04Z"/><path class="f" d="M285.11,30.22c-.08,.34-.18,.74-.24,1.09-.08,.48-.22,1.25-.37,1.97,.64-.05,1.22-.08,1.58-.08,1.52,0,2.69,.64,2.69,2.85,0,1.87-.24,4.39-.9,5.75-.53,1.07-1.34,1.38-2.45,1.38-.61,0-1.36-.11-1.89-.24l-.27-1.67c.66,.19,1.52,.34,1.95,.34,.56,0,1.01-.14,1.3-.75,.48-.99,.7-2.98,.7-4.63,0-1.36-.61-1.58-1.62-1.58-.32,0-.85,.03-1.44,.08-.58,2.34-1.7,5.97-3.26,8.5l-1.65-.66c1.58-2.11,2.72-5.52,3.28-7.67-.72,.08-1.36,.14-1.73,.19-.42,.05-1.12,.14-1.57,.22l-.16-1.73c.54,.03,.99,.02,1.54,0,.51-.02,1.36-.08,2.24-.16,.22-1.17,.38-2.37,.38-3.39l1.87,.19Zm5.7,2.06c.96,1.44,2.13,4,2.61,5.36l-1.58,.75c-.45-1.7-1.65-4.48-2.77-5.83l1.49-.66c.08,.11,.16,.22,.26,.35-.32-.64-.83-1.6-1.28-2.21l1.04-.43c.4,.58,.98,1.58,1.3,2.21l-1.06,.45Zm1.86-.69c-.34-.69-.85-1.6-1.31-2.21l1.04-.43c.42,.59,1.02,1.6,1.33,2.19l-1.06,.45Z"/><path class="f" d="M297.8,33.1c-.02,.99,0,2.34,.11,3.57,.24,2.5,.88,4.16,1.94,4.16,.8,0,1.49-1.73,1.84-3.19l1.28,1.49c-1.01,2.72-1.99,3.67-3.15,3.67-1.6,0-3.07-1.54-3.51-5.71-.16-1.39-.18-3.28-.18-4.24,0-.4-.02-1.06-.11-1.49l1.94,.03c-.08,.46-.16,1.28-.16,1.71Zm11.11,6.59l-1.65,.64c-.26-2.72-1.17-6.13-2.77-8.02l1.58-.53c1.46,1.84,2.62,5.33,2.83,7.91Z"/><path class="f" d="M319.24,33.17c-.78,.21-1.76,.42-2.82,.56-.77,2.23-2.15,4.99-3.44,6.74l-1.54-.78c1.3-1.55,2.62-3.99,3.31-5.78-.38,.02-.75,.03-1.14,.03-.61,0-1.26-.02-1.9-.06l-.11-1.47c.62,.06,1.38,.1,2.02,.1,.53,0,1.07-.02,1.63-.06,.24-.88,.43-1.86,.46-2.69l1.74,.16c-.13,.54-.34,1.42-.58,2.32,.8-.13,1.58-.32,2.3-.54l.05,1.49Zm1.95,1.65c-.05,.67-.03,1.22-.02,1.86,.02,.51,.06,1.42,.11,2.32,1.36,.5,2.48,1.3,3.28,2l-.85,1.36c-.62-.56-1.42-1.25-2.37-1.76v.43c0,1.34-.82,2.43-2.9,2.43-1.84,0-3.33-.78-3.33-2.43,0-1.49,1.34-2.55,3.31-2.55,.46,0,.9,.03,1.33,.11-.06-1.25-.14-2.74-.18-3.78h1.6Zm-1.38,5.15c-.45-.13-.95-.19-1.46-.19-1.06,0-1.75,.46-1.75,1.1s.54,1.14,1.63,1.14c1.18,0,1.58-.67,1.58-1.49,0-.16,0-.34-.02-.56Zm4.34-4.55c-.88-.72-2.62-1.73-3.7-2.21l.8-1.23c1.14,.5,3.01,1.55,3.79,2.13l-.9,1.31Z"/><path class="f" d="M329.8,33.1c-.02,.99,0,2.34,.11,3.57,.24,2.5,.88,4.16,1.94,4.16,.8,0,1.49-1.73,1.84-3.19l1.28,1.49c-1.01,2.72-1.99,3.67-3.15,3.67-1.6,0-3.07-1.54-3.51-5.71-.16-1.39-.18-3.28-.18-4.24,0-.4-.02-1.06-.11-1.49l1.94,.03c-.08,.46-.16,1.28-.16,1.71Zm11.11,6.59l-1.65,.64c-.26-2.72-1.17-6.13-2.77-8.02l1.58-.53c1.46,1.84,2.62,5.33,2.83,7.91Z"/><path class="f" d="M227.03,54.22v14.68h-1.46v-4.53c-.8,.59-1.62,1.17-2.32,1.67l-.71-1.54c.77-.4,1.89-1.09,3.03-1.78v-8.5h1.46Zm-3.12,1.97c.67,1.04,1.39,2.4,1.66,3.31l-1.31,.64c-.24-.91-.91-2.34-1.58-3.39l1.23-.56Zm12.66-.82c-2.34,.69-5.76,1.17-8.66,1.44-.05-.35-.24-.88-.42-1.2,2.87-.29,6.13-.82,8.04-1.41l1.04,1.17Zm.86,7.75h-2.13v4.07c0,.82-.16,1.23-.74,1.47-.56,.22-1.42,.24-2.66,.24-.06-.42-.29-1.02-.5-1.46,.91,.03,1.81,.03,2.1,.02,.24-.02,.32-.06,.32-.29v-4.05h-6.23v-1.38h6.23v-1.01l-.67-.35c.86-1.02,2-2.64,2.62-3.87l1.38,.66c-.74,1.17-1.68,2.45-2.48,3.43h.62v1.15h2.13v1.38Zm-8.37-2.56c-.14-.77-.62-2-1.1-2.91l1.22-.42c.51,.88,1.02,2.06,1.2,2.85l-1.31,.48Zm.9,2.98c.8,.82,1.68,1.97,2.08,2.75l-1.31,.74c-.34-.8-1.18-2-1.97-2.85l1.2-.64Zm1.78-3.65c-.05-.75-.35-1.95-.71-2.88l1.3-.3c.38,.9,.72,2.06,.78,2.8l-1.38,.38Z"/><path class="f" d="M247.85,62.64c1.41,1.82,3.62,3.54,5.68,4.43-.32,.3-.8,.86-1.04,1.26-2.03-1.02-4.11-2.83-5.62-4.82v5.39h-1.57v-5.36c-1.5,1.97-3.58,3.73-5.6,4.74-.24-.38-.72-.94-1.06-1.25,2.08-.88,4.29-2.58,5.73-4.4h-5.35v-1.44h6.27v-3.71h-5.52v-1.42h5.52v-1.84h1.57v1.84h5.65v1.42h-5.65v3.71h6.29v1.44h-5.31Zm-5.55-4.96c.61,.91,1.23,2.11,1.44,2.91l-1.41,.56c-.19-.78-.75-2.05-1.34-2.98l1.31-.5Zm6.19,3.06c.53-.85,1.15-2.16,1.5-3.11l1.55,.46c-.56,1.09-1.23,2.3-1.78,3.07l-1.28-.43Z"/><path class="f" d="M261.11,55.22c-.08,.34-.18,.74-.24,1.09-.08,.48-.22,1.25-.37,1.97,.64-.05,1.22-.08,1.58-.08,1.52,0,2.69,.64,2.69,2.85,0,1.87-.24,4.39-.9,5.75-.53,1.07-1.34,1.38-2.45,1.38-.61,0-1.36-.11-1.89-.24l-.27-1.67c.66,.19,1.52,.34,1.95,.34,.56,0,1.01-.14,1.3-.75,.48-.99,.7-2.98,.7-4.63,0-1.36-.61-1.58-1.62-1.58-.32,0-.85,.03-1.44,.08-.58,2.34-1.7,5.97-3.26,8.5l-1.65-.66c1.58-2.11,2.72-5.52,3.28-7.67-.72,.08-1.36,.14-1.73,.19-.42,.05-1.12,.14-1.57,.22l-.16-1.73c.54,.03,.99,.02,1.54,0,.51-.02,1.36-.08,2.24-.16,.22-1.17,.38-2.37,.38-3.39l1.87,.19Zm5.7,2.06c.96,1.44,2.13,4,2.61,5.36l-1.58,.75c-.45-1.7-1.65-4.48-2.77-5.83l1.49-.66c.08,.11,.16,.22,.26,.35-.32-.64-.83-1.6-1.28-2.21l1.04-.43c.4,.58,.98,1.58,1.3,2.21l-1.06,.45Zm1.86-.69c-.34-.69-.85-1.6-1.31-2.21l1.04-.43c.42,.59,1.02,1.6,1.33,2.19l-1.06,.45Z"/><path class="f" d="M279.24,58.17c-.78,.21-1.76,.42-2.82,.56-.77,2.23-2.15,4.99-3.44,6.74l-1.54-.78c1.3-1.55,2.62-3.99,3.31-5.78-.38,.02-.75,.03-1.14,.03-.61,0-1.26-.02-1.9-.06l-.11-1.47c.62,.06,1.38,.1,2.02,.1,.53,0,1.07-.02,1.63-.06,.24-.88,.43-1.86,.46-2.69l1.74,.16c-.13,.54-.34,1.42-.58,2.32,.8-.13,1.58-.32,2.3-.54l.05,1.49Zm1.95,1.65c-.05,.67-.03,1.22-.02,1.86,.02,.51,.06,1.42,.11,2.32,1.36,.5,2.48,1.3,3.28,2l-.85,1.36c-.62-.56-1.42-1.25-2.37-1.76v.43c0,1.34-.82,2.43-2.9,2.43-1.84,0-3.33-.78-3.33-2.43,0-1.49,1.34-2.55,3.31-2.55,.46,0,.9,.03,1.33,.11-.06-1.25-.14-2.74-.18-3.78h1.6Zm-1.38,5.15c-.45-.13-.95-.19-1.46-.19-1.06,0-1.75,.46-1.75,1.1s.54,1.14,1.63,1.14c1.18,0,1.58-.67,1.58-1.49,0-.16,0-.34-.02-.56Zm4.34-4.55c-.88-.72-2.62-1.73-3.7-2.21l.8-1.23c1.14,.5,3.01,1.55,3.79,2.13l-.9,1.31Z"/><path class="f" d="M294.65,56.36c-.74,1.12-2.14,3.65-2.95,5.12,.7-.53,1.41-.74,2.1-.74,1.12,0,1.86,.72,1.92,2,.03,.83,0,2.07,.06,2.8,.05,.7,.54,.99,1.15,.99,1.6,0,2.56-1.98,2.99-3.81l1.34,1.09c-.83,2.64-2.23,4.42-4.59,4.42-1.71,0-2.39-1.06-2.45-2.08-.05-.9-.03-2.16-.08-2.93-.03-.62-.4-1.01-1.06-1.01-1.18,0-2.24,1.22-2.83,2.48-.45,.93-1.07,2.75-1.3,3.57l-1.76-.59c1.17-3.2,4.64-9.88,5.49-11.4,.19-.4,.45-.83,.67-1.39l1.78,.72c-.14,.19-.32,.48-.5,.75Z"/><path class="f" d="M314.88,58.22c-.4,.24-.85,.48-1.36,.74-1.04,.53-3.14,1.52-4.64,2.51-1.41,.91-2.29,1.91-2.29,3.06,0,1.23,1.17,1.95,3.54,1.95,1.68,0,3.83-.24,5.12-.54l-.02,1.79c-1.25,.22-3.03,.4-5.04,.4-3.06,0-5.31-.9-5.31-3.43,0-1.68,1.07-2.98,2.69-4.13-.72-1.34-1.52-3.12-2.26-4.82l1.58-.64c.62,1.7,1.39,3.31,2.07,4.56,1.39-.83,2.96-1.62,3.78-2.08,.53-.3,.91-.53,1.28-.83l.86,1.46Z"/><path class="f" d="M327.24,58.17c-.78,.21-1.76,.42-2.82,.56-.77,2.23-2.15,4.99-3.44,6.74l-1.54-.78c1.3-1.55,2.62-3.99,3.31-5.78-.38,.02-.75,.03-1.14,.03-.61,0-1.26-.02-1.9-.06l-.11-1.47c.62,.06,1.38,.1,2.02,.1,.53,0,1.07-.02,1.63-.06,.24-.88,.43-1.86,.46-2.69l1.74,.16c-.13,.54-.34,1.42-.58,2.32,.8-.13,1.58-.32,2.3-.54l.05,1.49Zm1.95,1.65c-.05,.67-.03,1.22-.02,1.86,.02,.51,.06,1.42,.11,2.32,1.36,.5,2.48,1.3,3.28,2l-.85,1.36c-.62-.56-1.42-1.25-2.37-1.76v.43c0,1.34-.82,2.43-2.9,2.43-1.84,0-3.33-.78-3.33-2.43,0-1.49,1.34-2.55,3.31-2.55,.46,0,.9,.03,1.33,.11-.06-1.25-.14-2.74-.18-3.78h1.6Zm-1.38,5.15c-.45-.13-.95-.19-1.46-.19-1.06,0-1.75,.46-1.75,1.1s.54,1.14,1.63,1.14c1.18,0,1.58-.67,1.58-1.49,0-.16,0-.34-.02-.56Zm4.34-4.55c-.88-.72-2.62-1.73-3.7-2.21l.8-1.23c1.14,.5,3.01,1.55,3.79,2.13l-.9,1.31Z"/><path class="f" d="M345.53,55.99c-.4,.3-.9,.74-1.22,.98-1.06,.9-3.25,2.63-4.37,3.57-.91,.78-.91,.99,.03,1.79,1.33,1.1,4.32,3.52,5.87,5.06l-1.44,1.33c-.38-.45-.83-.88-1.22-1.3-.86-.93-3.42-3.09-4.88-4.32-1.54-1.28-1.38-2.06,.11-3.31,1.22-1.02,3.52-2.85,4.59-3.92,.37-.38,.83-.85,1.04-1.18l1.47,1.31Z"/><path class="f" d="M279.95,81.82c-.34,.54-.67,1.1-1.06,1.65v10.42h-1.62v-8.4c-1.54,1.71-3.39,3.23-5.46,4.32-.24-.4-.7-1.01-1.02-1.33,3.04-1.49,5.67-4.05,7.2-6.66h-6.75v-1.52h13.7v1.52h-4.99Zm.13,2.43c1.79,1.2,4.23,3.01,5.39,4.24l-1.25,1.15c-1.07-1.23-3.44-3.14-5.27-4.43l1.12-.96Z"/><path class="f" d="M298.36,86.63c-.5,1.67-1.22,2.96-2.19,3.97,1.67,.69,3.2,1.42,4.27,2.1l-1.17,1.22c-1.04-.7-2.62-1.5-4.35-2.26-1.7,1.18-3.91,1.84-6.64,2.27-.13-.35-.58-1.02-.87-1.36,2.42-.27,4.37-.74,5.88-1.57-.9-.35-1.81-.67-2.67-.96l-.35,.62-1.55-.42c.59-.96,1.31-2.27,2.02-3.62h-3.67v-1.42h4.4c.43-.86,.85-1.71,1.2-2.46l1.55,.34c-.32,.67-.67,1.39-1.04,2.13h7.97v1.42h-2.79Zm-9.4-2.3h-1.52v-3.54h5.81v-1.58h1.58v1.58h5.95v3.54h-1.58v-2.16h-10.24v2.16Zm3.47,2.3c-.4,.78-.8,1.54-1.18,2.24,1.09,.32,2.26,.7,3.43,1.15,.93-.86,1.58-1.97,1.98-3.39h-4.23Z"/></g><path class="d" d="M192.45,177.51c0,5.8-4.7,10.49-10.5,10.49s-10.49-4.7-10.49-10.49,4.7-10.5,10.49-10.5,10.5,4.7,10.5,10.5Zm-28.86,10.5c-3.25,0-5.88,2.63-5.88,5.88s2.63,5.88,5.88,5.88,5.88-2.63,5.88-5.88-2.63-5.88-5.88-5.88Zm-43.3,23.18c14.99,0,27.13-12.15,27.13-27.13s-12.15-27.13-27.13-27.13-27.13,12.15-27.13,27.13c0,14.98,12.15,27.13,27.13,27.13Zm11.06,3.87l-9.9,12.11,9.91,45.81-11.06,11.3-11.06-11.3,9.9-45.81-9.9-12.11c-17.72,0-34.89,14.36-34.89,32.08v40.62h18.2v-36.61c0-5.99,5.58-6.29,5.58-6.29v42.89h44.33c0-10.4,0-42.89,0-42.89,0,0,5.58,.42,5.58,6.29v36.61h18.2v-40.62c0-17.72-17.17-32.08-34.89-32.08Z"/><path class="e" d="M14.43,1.42H164.31c.09,0,.17,0,.25,.01,1.35,.14,12.87,1.57,12.87,10.99V108.42s1,10-11,10h-18.33c-1.47,0-2.67,1.19-2.67,2.67v26.4c0,2.44-3.01,3.6-4.65,1.79l-25.16-27.86c-.51-.56-1.23-.88-1.98-.88H15.43s-14-.11-14-18.11V12.42S.43,1.42,14.43,1.42Z"/><path class="e" d="M363.59,1.42H209.93c-.09,0-.17,0-.26,.01-1.38,.14-13.2,1.57-13.2,10.99V108.42s-1.03,10,11.28,10h18.79c1.51,0,2.74,1.19,2.74,2.67v26.4c0,2.44,3.09,3.6,4.77,1.79l25.79-27.86c.52-.56,1.26-.88,2.03-.88h100.69s14.35-.11,14.35-18.11V12.42s1.03-11-13.33-11Z"/></g></g></svg>