<?xml version="1.0" encoding="UTF-8"?><svg xmlns="http://www.w3.org/2000/svg" viewBox="0 0 390.28 277.12"><defs><style>.d{fill:#c7161d;}.e{fill:none;stroke:#c8161d;stroke-linecap:round;stroke-linejoin:round;stroke-width:2.83px;}.f{fill:#c8161d;}</style></defs><g id="a"/><g id="b"><g id="c"><path class="e" d="M375.52,1.42H221.86c-.09,0-.17,0-.26,.01-1.38,.14-13.2,1.57-13.2,10.99V108.42s-1.03,10,11.28,10h18.79c1.51,0,2.74,1.19,2.74,2.67v26.4c0,2.44,3.09,3.6,4.77,1.79l25.79-27.86c.52-.56,1.26-.88,2.03-.88h100.69s14.35-.11,14.35-18.11V12.42s1.03-11-13.33-11Z"/><path class="e" d="M14.76,1.42H168.42c.09,0,.17,0,.26,.01,1.38,.14,13.2,1.57,13.2,10.99V108.42s1.03,10-11.28,10h-18.79c-1.51,0-2.74,1.19-2.74,2.67v26.4c0,2.44-3.09,3.6-4.77,1.79l-25.79-27.86c-.52-.56-1.26-.88-2.03-.88H15.79s-14.35-.11-14.35-18.11V12.42S.41,1.42,14.76,1.42Z"/><g><path d="M53.49,47.6c-.58-.56-1.8-1.31-2.8-1.77l.88-1.16c.99,.41,2.24,1.09,2.86,1.65l-.94,1.28Zm-2.45,6.99c.75-1.34,1.8-3.52,2.57-5.47l1.26,.88c-.7,1.8-1.6,3.84-2.4,5.46l-1.43-.87Zm3.21-11.37c-.56-.58-1.79-1.38-2.77-1.87l.88-1.14c.99,.44,2.24,1.16,2.84,1.75l-.95,1.26Zm3.5,.29c-.51,.99-1.1,1.87-1.7,2.57-.31-.27-.97-.71-1.34-.92,1.21-1.22,2.19-3.14,2.74-5.12l1.56,.34c-.17,.58-.37,1.14-.59,1.7h7.73v1.43h-8.4Zm7.24,6.17c-.05,.88-.1,1.62-.17,2.24h1.51v1.36h-1.68c-.15,.88-.32,1.38-.54,1.65-.34,.48-.71,.59-1.24,.66-.49,.07-1.33,.05-2.14,0-.02-.37-.17-.95-.39-1.31,.82,.07,1.53,.08,1.87,.08,.27,0,.46-.05,.61-.25,.12-.14,.22-.41,.32-.83h-5.76l-.14,.78-1.51-.14c.22-1.14,.48-2.65,.71-4.25h-1.53v-1.44h1.72c.17-1.19,.31-2.36,.41-3.4h8.19s-.02,.51-.03,.7c-.03,1-.08,1.9-.12,2.7h1.38v1.44h-1.46Zm-7.09,0c-.1,.78-.22,1.53-.32,2.24h2.09c.08-.66,.17-1.45,.27-2.24h-2.04Zm.44-3.47c-.08,.66-.17,1.34-.25,2.02h1.99c.07-.7,.14-1.38,.19-2.02h-1.92Zm5,5.71c.07-.59,.14-1.34,.19-2.24h-2.23c-.08,.82-.17,1.58-.25,2.24h2.29Zm.27-3.69c.03-.61,.07-1.29,.1-2.02h-2.09c-.05,.65-.12,1.34-.19,2.02h2.18Z"/><path d="M79.53,47.91c1.16,1.04,2.45,1.92,3.74,2.5-.36,.31-.88,.92-1.12,1.36-.9-.46-1.79-1.07-2.62-1.77v5.61h-1.63v-7.16c-.88-.94-1.67-1.99-2.33-3.06-1.26,5.08-3.72,8.38-6.83,10.15-.27-.36-.88-.95-1.28-1.17,1.96-1.02,3.59-2.57,4.83-4.71-.73-.7-1.87-1.53-2.92-2.21-.32,.42-.66,.82-1,1.17-.29-.27-.95-.8-1.33-1.04,1.87-1.7,3.26-4.5,4.03-7.55l1.56,.32c-.2,.77-.43,1.5-.7,2.21h2.8l.29-.05,1.05,.36c-.08,.49-.17,.99-.25,1.44l.61-.24c.39,.71,.88,1.43,1.46,2.12v-6.14h1.63v7.84Zm-8.21-3.84c-.34,.78-.73,1.51-1.14,2.18,.99,.59,2.07,1.34,2.84,1.99,.54-1.22,.97-2.62,1.26-4.17h-2.96Z"/><path d="M92.3,39.99c1.8,2.67,4.67,5.12,7.36,6.39-.39,.41-.78,.94-1.05,1.41-2.63-1.51-5.54-4.03-7.04-6.22-1.36,2.12-4.03,4.62-6.87,6.29-.2-.37-.66-.94-1-1.28,2.92-1.6,5.71-4.33,6.99-6.59h1.62Zm.29,13.77h6.26v1.43h-14.35v-1.43h2.01v-6.1h1.55v6.1h2.87v-9.09h1.67v3.81h4.71v1.43h-4.71v3.86Z"/><path d="M110.36,51.72c1.5,1.05,3.69,1.92,5.76,2.31-.36,.34-.82,.99-1.05,1.41-2.21-.59-4.49-1.73-6.08-3.2v3.42h-1.55v-3.3c-1.62,1.36-3.91,2.46-6.03,3.06-.24-.41-.68-1-1.04-1.34,2.02-.42,4.23-1.31,5.73-2.36h-5.25v-1.33h6.6v-1.04h-5.01v-1.19h5.01v-1.02h-5.85v-1.26h3.49c-.15-.48-.44-1.09-.71-1.55l.41-.07h-3.86v-1.33h2.52c-.25-.66-.76-1.6-1.24-2.29l1.38-.46c.53,.73,1.12,1.77,1.36,2.43l-.87,.32h1.87v-2.91h1.48v2.91h1.68v-2.91h1.5v2.91h1.84l-.65-.2c.41-.68,.93-1.75,1.19-2.52l1.63,.41c-.46,.83-.97,1.68-1.41,2.31h2.45v1.33h-3.28c-.32,.58-.66,1.14-.95,1.62h3.6v1.26h-6.02v1.02h5.22v1.19h-5.22v1.04h6.7v1.33h-5.32Zm-4.37-7.45c.31,.49,.61,1.1,.73,1.51l-.49,.1h3.59c.25-.46,.53-1.07,.75-1.62h-4.57Z"/><path d="M123.87,42.62c1.67-.07,3.45-.22,5-.49v1.58c-1.67,.24-3.76,.39-5.59,.44-.37,.8-.83,1.6-1.31,2.24,.56-.32,1.51-.51,2.18-.51,1.07,0,1.96,.49,2.28,1.44,1.05-.49,1.92-.85,2.72-1.22,.58-.25,1.07-.48,1.61-.75l.7,1.56c-.49,.15-1.22,.42-1.73,.63-.87,.34-1.97,.78-3.16,1.33,.02,.97,.03,2.33,.05,3.14h-1.61c.03-.59,.05-1.56,.07-2.4-1.46,.8-2.38,1.58-2.38,2.58,0,1.16,1.11,1.39,2.82,1.39,1.38,0,3.23-.17,4.73-.44l-.05,1.72c-1.22,.15-3.2,.31-4.72,.31-2.53,0-4.5-.59-4.5-2.7s2.04-3.42,4.01-4.42c-.22-.6-.76-.85-1.39-.85-1.04,0-2.11,.54-2.82,1.22-.49,.48-.99,1.11-1.55,1.82l-1.46-1.09c1.99-1.87,3.14-3.52,3.84-4.96h-.49c-.71,0-1.89-.03-2.84-.1v-1.6c.9,.14,2.11,.19,2.92,.19,.32,0,.66,0,1-.02,.22-.7,.36-1.41,.39-2.02l1.77,.14c-.1,.48-.24,1.1-.46,1.84Z"/><path d="M47.91,68.12h-5.51v-1.26h5.51v1.26Zm-.46,10.57h-3.13v.75h-1.26v-5.71h4.39v4.96Zm-4.35-9.52h4.37v1.22h-4.37v-1.22Zm0,2.26h4.37v1.24h-4.37v-1.24Zm4.33-5.58h-4.23v-1.24h4.23v1.24Zm-3.11,9.15v2.45h1.85v-2.45h-1.85Zm13.43,.82c-.58,.42-1.31,.83-1.97,1.17,.7,.66,1.53,1.19,2.5,1.51-.31,.24-.71,.78-.92,1.14-2.18-.83-3.66-2.58-4.45-4.91h-.14c-.37,.37-.8,.75-1.27,1.07v2.06c.83-.14,1.72-.27,2.6-.42l.1,1.16c-1.84,.34-3.76,.7-5.24,.93l-.39-1.22c.46-.07,1-.15,1.58-.24v-1.46c-.58,.31-1.16,.56-1.73,.78-.19-.27-.59-.8-.85-1.05,1.21-.37,2.48-.92,3.43-1.6h-3.04v-1.1h2.53v-.8h-1.6v-1.04h1.6v-.78h-1.97v-1.07h1.97v-1.17h1.41v1.17h2.11v-1.17h1.44v1.17h2.16v1.07h-2.16v.78h1.84v1.04h-1.84v.8h2.58v1.1h-3.79c.22,.51,.51,.99,.83,1.43,.63-.36,1.34-.83,1.8-1.17l.87,.83Zm-5.52-8.62c-.8,.94-2.19,1.8-3.42,2.33-.22-.25-.73-.76-1.04-.99,1.19-.42,2.43-1.05,3.11-1.75l1.34,.41Zm5.59-.49h-9.57v-1.19h3.88v-1.48h1.6v1.48h4.1v1.19Zm-5.92,5.08h2.11v-.78h-2.11v.78Zm0,1.84h2.11v-.8h-2.11v.8Zm2.86-6.9c1.14,.49,2.53,1.29,3.3,1.89l-1.05,.82c-.73-.63-2.14-1.48-3.28-1.97l1.04-.73Z"/><path d="M63.48,69c.75-1.55,2.38-3.37,4.44-3.37,2.31,0,4.03,2.28,4.03,5.93,0,4.74-2.96,6.92-7.29,7.72l-1.02-1.55c3.72-.58,6.51-1.96,6.51-6.17,0-2.65-.9-4.39-2.52-4.39-2.07,0-3.96,3.06-4.11,5.3-.05,.56-.05,1.14,.07,1.95l-1.67,.12c-.08-.65-.19-1.63-.19-2.75,0-1.6,.27-3.93,.49-5.47,.08-.58,.12-1.14,.14-1.62l1.85,.08c-.29,1.07-.63,3.13-.73,4.2Z"/><path d="M88.6,72.52c-.82,1.73-2.09,3.08-3.62,4.13,1.73,.7,3.74,1.17,5.98,1.41-.34,.36-.75,1.04-.97,1.5-2.52-.36-4.74-1-6.63-1.97-1.99,.99-4.3,1.6-6.71,1.99-.15-.41-.58-1.09-.92-1.43,2.24-.27,4.32-.75,6.1-1.5-1.24-.85-2.28-1.9-3.09-3.13l.31-.14h-.73v-1.46h8.92l.29-.05,1.07,.65Zm-11.01-.1h-1.48v-3.52h2.57c-.2-.59-.59-1.41-.97-2.02l1.38-.39c.46,.65,.9,1.55,1.09,2.12l-.92,.29h3.67c-.08-.63-.41-1.63-.77-2.4l1.41-.31c.37,.75,.75,1.72,.85,2.35l-1.43,.36h3.38c.49-.8,1.04-1.9,1.36-2.74l1.65,.44c-.44,.76-.93,1.62-1.41,2.29h2.67v3.52h-1.55v-2.12h-11.51v2.12Zm12.26-7.16c-3.57,.71-8.81,1.12-13.22,1.27-.02-.39-.19-1-.34-1.34,4.37-.17,9.5-.59,12.46-1.22l1.1,1.29Zm-9.42,8.12c.75,.99,1.75,1.82,2.97,2.5,1.16-.66,2.11-1.48,2.82-2.5h-5.8Z"/><path d="M95.63,66.44c-.48,2.23-1.07,5.88-.51,8.36,.22-.63,.58-1.58,.87-2.33l.88,.56c-.46,1.29-.94,3.03-1.14,3.91-.05,.25-.08,.61-.08,.8,0,.17,.03,.42,.05,.63l-1.48,.17c-.36-1.04-.93-3.33-.93-5.44,0-2.79,.41-5.39,.61-6.8,.07-.42,.09-.92,.09-1.28l1.99,.19c-.12,.36-.25,.9-.34,1.22Zm8.8-.41c-.02,.37,0,1.38,.02,2.4,.99-.08,1.92-.2,2.69-.36l-.02,1.73c-.73,.1-1.67,.2-2.65,.26v.66c0,3.94-.14,6.58-3.64,8.72l-1.56-1.22c.59-.24,1.36-.71,1.8-1.19,1.58-1.48,1.77-3.23,1.77-6.32v-.56c-.7,.02-1.39,.03-2.06,.03-.78,0-1.9-.05-2.69-.08v-1.72c.76,.12,1.75,.19,2.67,.19,.65,0,1.34-.02,2.04-.03-.02-1.04-.05-2.06-.08-2.5-.03-.39-.12-.82-.17-1.07h1.97c-.05,.31-.07,.68-.08,1.07Z"/><path d="M115.45,66.32c-.05,.29-.12,.63-.2,1,1.04-.15,2.09-.34,3.08-.59v1.68c-1.07,.25-2.26,.44-3.42,.58-.17,.73-.36,1.51-.54,2.23-.61,2.4-1.77,5.9-2.69,7.82l-1.85-.63c1-1.73,2.24-5.24,2.89-7.62,.14-.53,.27-1.09,.41-1.65-.49,.02-.95,.03-1.38,.03-.78,0-1.41-.02-2.02-.07l-.03-1.67c.83,.1,1.43,.14,2.07,.14,.53,0,1.11-.02,1.7-.07,.08-.51,.17-.95,.2-1.28,.08-.53,.1-1.16,.07-1.53l2.04,.15c-.1,.42-.25,1.12-.32,1.46Zm2.04,9.38c0,.77,.46,1.46,2.63,1.46,1.12,0,2.28-.14,3.4-.34l-.05,1.72c-.93,.12-2.07,.24-3.37,.24-2.77,0-4.27-.9-4.27-2.58,0-.71,.14-1.43,.29-2.12l1.58,.15c-.14,.53-.22,1.05-.22,1.48Zm2.8-5.83c.99,0,2.01,.03,2.97,.14l-.05,1.63c-.87-.12-1.87-.22-2.89-.22-1.1,0-2.14,.07-3.21,.19v-1.58c.92-.08,2.09-.15,3.18-.15Z"/><path d="M128.49,68.17c-.02,1.07,0,2.5,.12,3.83,.25,2.67,.95,4.47,2.09,4.47,.85,0,1.6-1.85,1.99-3.4l1.34,1.58c-1.07,2.91-2.12,3.91-3.37,3.91-1.72,0-3.3-1.63-3.76-6.1-.17-1.5-.19-3.54-.19-4.56,0-.42-.03-1.14-.14-1.6l2.07,.03c-.08,.49-.17,1.38-.17,1.83Zm11.92,7.21l-1.75,.68c-.29-2.92-1.26-6.7-2.97-8.74l1.68-.56c1.56,1.97,2.82,5.86,3.04,8.62Z"/></g><g><path d="M248.33,38.9h-1.77v2.97h-1.6v-.73h-3.62v.88c0,.87-.22,1.22-.8,1.45-.58,.2-1.46,.22-2.89,.22-.08-.36-.32-.93-.54-1.28,.94,.03,1.96,.03,2.23,.02,.31-.02,.41-.1,.41-.39v-.9h-5.3v-1.19h5.3v-1.05h-6.8v-1.24h6.8v-.97h-5.15v-1.12h5.15v-1h-4.71v-3.13h4.71v-.87h-6.44v-1.27h6.44v-1.24h1.6v1.24h6.63v1.27h-6.63v.87h4.95v3.13h-4.95v1h5.22v2.09h1.77v1.24Zm-8.58-5.39v-1.02h-3.2v1.02h3.2Zm1.6-1.02v1.02h3.35v-1.02h-3.35Zm0,5.17h3.62v-.97h-3.62v.97Zm3.62,1.24h-3.62v1.05h3.62v-1.05Z"/><path d="M259.31,39.72c1.5,1.05,3.69,1.92,5.76,2.31-.36,.34-.82,.99-1.05,1.41-2.21-.59-4.49-1.73-6.08-3.2v3.42h-1.55v-3.3c-1.62,1.36-3.91,2.46-6.03,3.06-.24-.41-.68-1-1.04-1.34,2.02-.42,4.23-1.31,5.73-2.36h-5.25v-1.33h6.6v-1.04h-5.01v-1.19h5.01v-1.02h-5.85v-1.26h3.49c-.15-.48-.44-1.09-.71-1.55l.41-.07h-3.86v-1.33h2.52c-.25-.66-.76-1.6-1.24-2.29l1.38-.46c.53,.73,1.12,1.77,1.36,2.43l-.87,.32h1.87v-2.91h1.48v2.91h1.68v-2.91h1.5v2.91h1.84l-.65-.2c.41-.68,.93-1.75,1.19-2.52l1.63,.41c-.46,.83-.97,1.68-1.41,2.31h2.45v1.33h-3.28c-.32,.58-.66,1.14-.95,1.62h3.6v1.26h-6.02v1.02h5.22v1.19h-5.22v1.04h6.7v1.33h-5.32Zm-4.37-7.45c.31,.49,.61,1.1,.73,1.51l-.49,.1h3.59c.25-.46,.53-1.07,.75-1.62h-4.57Z"/><path d="M272.83,30.62c1.67-.07,3.45-.22,5-.49v1.58c-1.67,.24-3.76,.39-5.59,.44-.37,.8-.83,1.6-1.31,2.24,.56-.32,1.51-.51,2.18-.51,1.07,0,1.96,.49,2.28,1.44,1.05-.49,1.92-.85,2.72-1.22,.58-.25,1.07-.48,1.61-.75l.7,1.56c-.49,.15-1.22,.42-1.73,.63-.87,.34-1.97,.78-3.16,1.33,.02,.97,.03,2.33,.05,3.14h-1.61c.03-.59,.05-1.56,.07-2.4-1.46,.8-2.38,1.58-2.38,2.58,0,1.16,1.11,1.39,2.82,1.39,1.38,0,3.23-.17,4.73-.44l-.05,1.72c-1.22,.15-3.2,.31-4.72,.31-2.53,0-4.5-.59-4.5-2.7s2.04-3.42,4.01-4.42c-.22-.6-.76-.85-1.39-.85-1.04,0-2.11,.54-2.82,1.22-.49,.48-.99,1.11-1.55,1.82l-1.46-1.09c1.99-1.87,3.14-3.52,3.84-4.96h-.49c-.71,0-1.89-.03-2.84-.1v-1.6c.9,.14,2.11,.19,2.92,.19,.32,0,.66,0,1-.02,.22-.7,.36-1.41,.39-2.02l1.77,.14c-.1,.48-.24,1.1-.46,1.84Z"/><path d="M295.35,29.94c-2.16,3.98-7.05,6.26-11.68,7.24-.14-.41-.46-1.04-.73-1.36,2.07-.36,4.2-1.04,6.07-1.99-.68-.58-1.73-1.24-2.67-1.73-.68,.36-1.41,.7-2.21,1.02-.22-.37-.71-.92-1.05-1.17,2.99-1,5.17-2.53,6.31-3.94l1.75,.39c-.31,.34-.63,.68-.97,1h3.91l.25-.07,1.02,.61Zm2.38,5.93c-2.09,4.95-7.17,7-12.8,7.8-.1-.43-.41-1.09-.68-1.45,2.57-.29,5.01-.87,7.07-1.89-.73-.66-1.9-1.5-2.92-2.06-.82,.39-1.7,.76-2.65,1.1-.17-.36-.63-.95-.95-1.22,3.52-1.09,6.02-2.77,7.33-4.39l1.75,.41c-.36,.41-.73,.8-1.16,1.19h3.69l.27-.07,1.05,.56Zm-9.18-5.15c-.27,.2-.58,.41-.88,.59,1,.51,2.09,1.19,2.72,1.72,1.04-.66,1.96-1.44,2.65-2.31h-4.49Zm2.48,6.02c-.39,.27-.78,.53-1.21,.78,1.04,.58,2.23,1.36,2.92,2.01,1.12-.75,2.07-1.67,2.75-2.79h-4.47Z"/><path d="M313.27,41.77c0,.93-.24,1.39-.93,1.65-.7,.24-1.8,.26-3.52,.26-.07-.43-.37-1.11-.6-1.53,1.28,.07,2.62,.05,3.01,.03,.36,0,.48-.1,.48-.42v-1.77h-9.03c-.42,1.39-1.21,2.74-2.57,3.76-.22-.32-.78-.9-1.11-1.14,2.41-1.77,2.65-4.32,2.65-6.43v-2.79c-.36,.32-.75,.63-1.16,.92-.24-.36-.76-.88-1.14-1.12,2.23-1.5,3.77-3.52,4.59-5.2l1.7,.32c-.12,.24-.25,.46-.39,.7h3.74l.27-.07,1.07,.71c-.37,.71-.92,1.53-1.46,2.24h4.39v9.88Zm-10.08-5.18c-.02,.63-.07,1.31-.19,2.01h3.57v-2.01h-3.38Zm1.21-6.25c-.36,.53-.78,1.05-1.22,1.56h3.96c.36-.48,.71-1.04,1.02-1.56h-3.76Zm-1.21,4.9h3.38v-1.92h-3.38v1.92Zm8.52-1.92h-3.62v1.92h3.62v-1.92Zm0,5.29v-2.01h-3.62v2.01h3.62Z"/><path d="M321.69,28.82c-.51,1.19-1.12,2.36-1.84,3.49v11.32h-1.58v-9.09c-.63,.8-1.31,1.53-1.97,2.14-.17-.41-.66-1.26-.95-1.65,1.89-1.58,3.71-4.11,4.79-6.71l1.55,.51Zm7.11,13.12c.88,0,1-.59,1.14-3.03,.39,.29,1.04,.58,1.48,.68-.2,2.82-.66,3.82-2.52,3.82h-3.21c-1.92,0-2.48-.58-2.48-2.63v-12.32h1.58v6.08c1.77-.99,3.55-2.21,4.73-3.28l1.14,1.38c-1.61,1.24-3.82,2.46-5.86,3.52v4.64c0,.97,.17,1.14,1.05,1.14h2.96Z"/><path d="M337.39,30.93c-.08,1.89-.2,5.81-.2,8.16,0,1.8,1.11,2.41,2.58,2.41,2.97,0,4.76-1.68,5.98-3.5l1.21,1.48c-1.12,1.62-3.42,3.81-7.22,3.81-2.58,0-4.32-1.1-4.32-3.93,0-2.41,.17-6.8,.17-8.43,0-.71-.07-1.41-.19-1.97l2.18,.02c-.1,.63-.17,1.34-.19,1.96Z"/><path d="M351.06,30.76c1.24-.12,4.27-.41,7.39-.66,1.82-.15,3.52-.25,4.69-.31v1.72c-.94,0-2.41,.02-3.3,.25-2.26,.68-3.77,3.09-3.77,5.12,0,3.09,2.89,4.13,5.71,4.25l-.63,1.8c-3.33-.15-6.82-1.94-6.82-5.69,0-2.55,1.51-4.62,2.89-5.52-1.72,.19-5.68,.59-7.56,1l-.19-1.87c.66-.02,1.26-.05,1.58-.08Z"/><path d="M255.58,57.85c-.71,2.19-1.72,4.11-2.96,5.75,.58,1.45,1.24,2.33,1.96,2.33,.44,0,.65-.87,.75-3.06,.37,.37,.93,.73,1.36,.88-.25,2.99-.83,3.79-2.23,3.79-1.24,0-2.23-.95-2.99-2.55-.97,1.02-2.04,1.89-3.21,2.6-.24-.34-.8-1-1.16-1.29,1.41-.78,2.67-1.77,3.71-2.97-.61-1.92-1-4.35-1.21-7h-5.44v2.06h4.27v.61c-.08,3.69-.17,5.15-.53,5.63-.31,.36-.63,.49-1.09,.54-.42,.07-1.19,.07-2.01,.03-.03-.46-.19-1.07-.42-1.48,.7,.07,1.36,.08,1.63,.08,.24,0,.41-.05,.53-.2,.19-.24,.29-1.21,.34-3.77h-2.72c-.02,2.41-.31,5.81-1.8,8.01-.27-.32-.97-.88-1.33-1.09,1.36-2.04,1.48-4.96,1.48-7.16v-4.81h6.99c-.05-.88-.08-1.8-.08-2.7h1.67c-.02,.92,0,1.82,.05,2.7h3.28c-.66-.56-1.77-1.29-2.67-1.79l.95-.97c1,.53,2.28,1.31,2.94,1.89l-.82,.87h1.73v1.55h-5.34c.17,2.02,.44,3.86,.83,5.37,.82-1.26,1.45-2.67,1.94-4.23l1.6,.39Z"/><path d="M272.39,62.34c-1.05,.78-2.38,1.56-3.52,2.14,1.21,.85,2.7,1.46,4.47,1.8-.36,.32-.8,.99-1,1.41-3.84-.88-6.27-2.96-7.7-6.22h-2.21v4.06l4.1-.63,.08,1.39c-2.67,.46-5.52,.92-7.55,1.24l-.37-1.44c.61-.08,1.34-.19,2.12-.31v-4.32h-2.91v-1.41h2.92v-7.38h10.5v1.33h-8.91v1.17h8.41v1.26h-8.41v1.17h8.41v1.26h-8.41v1.19h10.61v1.41h-1.92l1.27,.87Zm-6.14-.87c.42,.8,.95,1.51,1.58,2.14,1.12-.63,2.41-1.44,3.25-2.14h-4.83Z"/><path d="M286.91,55.76c-.59,1.39-1.6,3.31-2.79,4.84,1.75,1.5,3.81,3.69,4.86,4.98l-1.5,1.33c-1.12-1.53-2.82-3.4-4.5-4.96-1.82,1.94-4.11,3.76-6.54,4.9l-1.38-1.45c2.75-1.05,5.3-3.09,6.99-4.98,1.16-1.29,2.29-3.16,2.7-4.49h-6.24c-.66,0-1.58,.08-1.85,.1v-1.92c.34,.05,1.33,.12,1.85,.12h6.31c.63,0,1.19-.07,1.48-.17l1.1,.82c-.12,.17-.37,.59-.49,.88Z"/><path d="M304.2,52.4c1.07,0,1.96,.88,1.96,1.97s-.88,1.96-1.96,1.96c-.53,0-.99-.2-1.34-.53l.71,1.65c-.56,.22-1.24,.53-1.78,.73-1.82,.73-4.67,1.58-6.82,2.14v3.47c0,.82,.36,1.02,1.16,1.19,.51,.08,1.31,.12,2.12,.12,1.79,0,4.45-.19,5.86-.56v1.96c-1.55,.22-4.1,.34-5.97,.34-1.05,0-2.07-.05-2.79-.17-1.38-.25-2.16-.93-2.16-2.36v-9.3c0-.41-.03-1.1-.12-1.56h1.99c-.05,.46-.1,1.07-.1,1.56v3.55c2.01-.49,4.56-1.29,6.2-1.99,.56-.22,1.09-.48,1.62-.82-.34-.36-.56-.83-.56-1.38,0-1.09,.88-1.97,1.97-1.97Zm0,3.03c.58,0,1.05-.48,1.05-1.05s-.48-1.07-1.05-1.07-1.07,.49-1.07,1.07,.48,1.05,1.07,1.05Z"/><path d="M310.88,58.84h9.25c.82,0,1.48-.07,1.9-.1v2.11c-.37-.02-1.16-.08-1.9-.08h-9.25c-.93,0-1.96,.03-2.53,.08v-2.11c.56,.03,1.62,.1,2.53,.1Z"/><path d="M328.31,55.17c0-.54-.05-1.34-.15-1.9h2.09c-.05,.56-.14,1.29-.14,1.9v2.65c2.24,.66,5.51,1.89,7.19,2.72l-.75,1.84c-1.8-.95-4.57-2.02-6.44-2.63,.02,2.35,.02,4.69,.02,5.25,0,.53,.05,1.56,.12,2.18h-2.07c.08-.59,.14-1.53,.14-2.18v-9.83Zm7.85,1.31l-1.19,.53c-.44-.97-.92-1.78-1.5-2.6l1.14-.49c.46,.66,1.17,1.77,1.55,2.57Zm2.19-.95l-1.17,.58c-.49-.97-.97-1.75-1.56-2.55l1.14-.53c.46,.63,1.19,1.73,1.6,2.5Z"/><path d="M347.42,54.62c1.67-.07,3.45-.22,5-.49v1.58c-1.67,.24-3.76,.39-5.59,.44-.37,.8-.83,1.6-1.31,2.24,.56-.32,1.51-.51,2.18-.51,1.07,0,1.96,.49,2.28,1.44,1.05-.49,1.92-.85,2.72-1.22,.58-.25,1.07-.48,1.61-.75l.7,1.56c-.49,.15-1.22,.42-1.73,.63-.87,.34-1.97,.78-3.16,1.33,.02,.97,.03,2.33,.05,3.14h-1.61c.03-.59,.05-1.56,.07-2.4-1.46,.8-2.38,1.58-2.38,2.58,0,1.16,1.11,1.39,2.82,1.39,1.38,0,3.23-.17,4.73-.44l-.05,1.72c-1.22,.15-3.2,.31-4.72,.31-2.53,0-4.5-.59-4.5-2.7s2.04-3.42,4.01-4.42c-.22-.6-.76-.85-1.39-.85-1.04,0-2.11,.54-2.82,1.22-.49,.48-.99,1.11-1.55,1.82l-1.46-1.09c1.99-1.87,3.14-3.52,3.84-4.96h-.49c-.71,0-1.89-.03-2.84-.1v-1.6c.9,.14,2.11,.19,2.92,.19,.32,0,.66,0,1-.02,.22-.7,.36-1.41,.39-2.02l1.77,.14c-.1,.48-.24,1.1-.46,1.84Z"/><path d="M265.41,79.17s0,.56-.02,.77c-.14,7.34-.25,9.86-.78,10.62-.34,.49-.66,.66-1.21,.75-.48,.07-1.22,.07-2.01,.03-.02-.48-.19-1.16-.46-1.58,.75,.03,1.43,.05,1.72,.05,.27,0,.42-.03,.58-.29,.36-.46,.49-2.69,.63-8.81h-2.21c-.15,4.54-.73,8.47-2.97,10.95-.25-.36-.8-.88-1.17-1.12,2.01-2.21,2.48-5.71,2.6-9.83h-2.16v-1.55h2.19c.02-.93,.02-1.89,.02-2.87h1.56c0,.97,0,1.94-.02,2.87h3.71Zm7.09-1.09v13.16h-1.6v-1.09h-2.79v1.22h-1.51v-13.29h5.9Zm-1.6,10.56v-9.03h-2.79v9.03h2.79Z"/><path d="M278.16,88.02c.75,1.17,2.14,1.72,4.01,1.79,1.89,.07,5.66,.02,7.79-.12-.19,.37-.44,1.12-.53,1.62-1.92,.08-5.34,.12-7.27,.03-2.16-.08-3.62-.65-4.69-1.95-.8,.7-1.61,1.38-2.5,2.11l-.82-1.63c.77-.48,1.67-1.1,2.46-1.75v-3.99h-2.18v-1.46h3.72v5.37Zm-.78-7.94c-.54-.8-1.77-1.94-2.84-2.69l1.17-.95c1.05,.73,2.33,1.78,2.91,2.6l-1.24,1.04Zm6,5.52c-1,1.34-2.38,2.57-3.72,3.25-.22-.37-.68-.92-1.02-1.21,1.48-.61,3.03-1.82,3.98-3.11h-2.96v-4.32h3.72v-1.21h-4.35v-1.33h4.35v-1.61h1.55v1.61h4.62v1.33h-4.62v1.21h3.94v4.32h-3.33c1.04,1.24,2.72,2.41,4.17,3.03-.36,.31-.83,.87-1.07,1.26-1.26-.68-2.65-1.87-3.71-3.13v3.57h-1.55v-3.66Zm-2.28-2.31h2.28v-1.85h-2.28v1.85Zm3.83-1.85v1.85h2.41v-1.85h-2.41Z"/><path d="M295.96,78.93c-.08,1.89-.2,5.81-.2,8.16,0,1.8,1.11,2.41,2.58,2.41,2.97,0,4.76-1.68,5.98-3.5l1.21,1.48c-1.12,1.62-3.42,3.81-7.22,3.81-2.58,0-4.32-1.1-4.32-3.93,0-2.41,.17-6.8,.17-8.43,0-.71-.07-1.41-.19-1.97l2.18,.02c-.1,.63-.17,1.34-.19,1.96Z"/><path d="M314.13,78.32c-.05,.29-.12,.63-.2,1,1.04-.15,2.09-.34,3.08-.59v1.68c-1.07,.25-2.26,.44-3.42,.58-.17,.73-.36,1.51-.54,2.23-.61,2.4-1.77,5.9-2.69,7.82l-1.85-.63c1-1.73,2.24-5.24,2.89-7.62,.14-.53,.27-1.09,.41-1.65-.49,.02-.95,.03-1.38,.03-.78,0-1.41-.02-2.02-.07l-.03-1.67c.83,.1,1.43,.14,2.07,.14,.53,0,1.11-.02,1.7-.07,.08-.51,.17-.95,.2-1.28,.08-.53,.1-1.16,.07-1.53l2.04,.15c-.1,.42-.25,1.12-.32,1.46Zm2.04,9.38c0,.77,.46,1.46,2.63,1.46,1.12,0,2.28-.14,3.4-.34l-.05,1.72c-.93,.12-2.07,.24-3.37,.24-2.77,0-4.27-.9-4.27-2.58,0-.71,.14-1.43,.29-2.12l1.58,.15c-.14,.53-.22,1.05-.22,1.48Zm2.8-5.83c.99,0,2.01,.03,2.97,.14l-.05,1.63c-.87-.12-1.87-.22-2.89-.22-1.1,0-2.14,.07-3.21,.19v-1.58c.92-.08,2.09-.15,3.18-.15Z"/><path d="M327.17,80.17c-.02,1.07,0,2.5,.12,3.83,.25,2.67,.95,4.47,2.09,4.47,.85,0,1.6-1.85,1.99-3.4l1.34,1.58c-1.07,2.91-2.12,3.91-3.37,3.91-1.72,0-3.3-1.63-3.76-6.1-.17-1.5-.19-3.54-.19-4.56,0-.42-.03-1.14-.14-1.6l2.07,.03c-.08,.49-.17,1.38-.17,1.83Zm11.92,7.21l-1.75,.68c-.29-2.92-1.26-6.7-2.97-8.74l1.68-.56c1.56,1.97,2.82,5.86,3.04,8.62Z"/></g><g><ellipse class="f" cx="196.86" cy="186" rx="29.14" ry="30.58"/><path class="f" d="M141.65,263.78c6.57,4.72,23.19,13.34,55.21,13.34h0c32.02,0,48.64-8.82,55.21-13.34,2.26-1.44,3.49-4.31,3.08-6.98-2.46-19.29-20.73-29.35-32.84-34.07l-19.29,32.84-1.64-22.58,4.31-10.47h-17.44l4.52,10.47-1.85,22.58-19.5-32.84c-12.11,4.72-30.37,14.78-32.84,34.07-.21,2.67,.82,5.54,3.08,6.98Zm19.29-7.18h17.03v4.52h-17.03v-4.52Z"/></g><g><path class="f" d="M33.86,194.07c-4.49-4.66-7.95-10.02-10.19-15.89l-.86-2.42c-.52-1.21-.17-2.59,.69-3.63,.52-.52,1.38-.86,2.07-.86,.52,0,.86,.17,1.38,.35l2.42,1.04c6.22,2.59,11.75,6.39,16.58,11.23l32.82,34.03c4.15,4.32,7.6,8.98,10.54,13.99l14.68-4.84c1.38-.52,2.94-.35,4.32,.35l1.73,.86-16.58,12.09,1.21,2.76c.17,.86,0,1.55-.52,2.07-.35,.35-.86,.52-1.55,.52h-.52l-2.94-1.38-13.3,16.93-.86-1.73c-.69-1.38-.69-2.94-.17-4.32l5.87-15.55c-4.66-3.11-9.16-6.74-13.13-10.88l-33.69-34.72Z"/><path class="f" d="M58.22,191.14l5.36-1.73-2.07-2.25h0s-.17,0-.17-.17c-.35-.35,.35-1.73,1.55-2.94,1.21-1.21,2.59-1.9,3.11-1.55,0,0,0,.17,.17,.17h0l3.97,4.15,.35,.35,10.54-3.45-2.25-2.25h0s-.17,0-.17-.17c-.35-.35,.35-1.73,1.55-2.94,1.21-1.21,2.59-1.9,3.11-1.55,0,0,0,.17,.17,.17h0l3.97,4.15,.35,.35,11.75-3.8,2.94,2.94-30.58,24.53-13.65-13.99Z"/><path class="f" d="M25.39,248.66l.69-2.07c4.32-5.18,6.91-11.92,7.08-19.35l2.59-7.43-.35-.35-3.97-4.15h0s-.17,0-.17-.17c-.35-.35,.35-1.73,1.55-2.94,1.21-1.21,2.59-1.9,3.11-1.55,0,0,0,.17,.17,.17h0l2.25,2.42,2.25-6.22,13.99,14.51-26.26,30.23-2.94-3.11Z"/></g><g><path class="d" d="M283.25,253.72c0,1.32,1.04,2.46,2.46,2.46h10.78c1.32,0,2.46-1.04,2.46-2.46v-15.23c-5.11,.95-10.31,1.42-15.61,1.42v13.81h-.09Z"/><path class="d" d="M306.05,236.98v16.74c0,1.32,1.04,2.46,2.46,2.46h10.69c1.32,0,2.46-1.04,2.46-2.46v-22.42c-3.97,1.89-8.04,3.4-12.2,4.63-1.13,.38-2.27,.76-3.4,1.04Z"/><path class="d" d="M328.84,227.52v26.29c0,1.32,1.13,2.46,2.46,2.46h10.69c1.32,0,2.46-1.04,2.46-2.46v-37.83c-2.84,2.55-5.86,5.01-8.99,7.19-2.36,1.7-4.54,3.12-6.62,4.35Z"/><path class="d" d="M361,196.69c-2.36,3.59-5.01,7-7.85,10.4-.47,.57-1.04,1.13-1.51,1.7v44.93c0,1.32,1.04,2.46,2.46,2.46h10.59c1.32,0,2.46-1.04,2.46-2.46v-56.46c-.76,.19-1.51,.28-2.27,.28-1.32,0-2.65-.28-3.88-.85Z"/><path class="d" d="M358.54,187.89l5.11,2.65c1.99,1.04,4.35-.57,4.07-2.84l-2.18-18.92c-.19-1.99-2.36-3.12-4.07-2.18l-16.84,8.8c-1.99,1.04-1.99,3.88,0,5.01l5.39,2.84c-.76,1.32-1.61,2.74-2.46,4.07-2.08,3.12-4.35,6.15-6.81,9.08-4.35,5.01-9.27,9.55-14.66,13.43-2.27,1.61-4.54,3.03-6.81,4.26-4.63,2.65-9.55,4.73-14.66,6.34-2.18,.66-4.45,1.23-6.72,1.7-4.73,.95-9.65,1.51-14.57,1.51-2.65,0-4.82,2.18-4.82,4.82s2.18,4.82,4.82,4.82c5.58,0,11.16-.57,16.55-1.7,2.55-.47,5.11-1.13,7.66-1.99,5.77-1.8,11.35-4.16,16.55-7.09,2.55-1.42,5.01-3.03,7.66-4.82,6.05-4.26,11.63-9.36,16.46-14.94,2.74-3.22,5.3-6.53,7.57-10.03,.85-1.61,1.8-3.22,2.74-4.82Z"/></g></g></g></svg>