<?xml version="1.0" encoding="UTF-8"?><svg xmlns="http://www.w3.org/2000/svg" viewBox="0 0 532.22 284.92"><defs><style>.d{fill:#c7161d;}.e{fill:none;stroke:#c8161d;stroke-linecap:round;stroke-linejoin:round;stroke-width:2.83px;}.f{fill:#c8161d;}.g{fill:#231815;}</style></defs><g id="a"/><g id="b"><g id="c"><g><path class="g" d="M392.61,170.07h-1.67v2.8h-1.5v-.69h-3.41v.83c0,.82-.21,1.15-.75,1.36-.54,.19-1.38,.21-2.72,.21-.08-.34-.3-.88-.51-1.2,.88,.03,1.84,.03,2.1,.02,.29-.02,.38-.1,.38-.37v-.85h-4.99v-1.12h4.99v-.99h-6.4v-1.17h6.4v-.91h-4.85v-1.06h4.85v-.94h-4.43v-2.95h4.43v-.82h-6.07v-1.2h6.07v-1.17h1.5v1.17h6.24v1.2h-6.24v.82h4.66v2.95h-4.66v.94h4.91v1.97h1.67v1.17Zm-8.08-5.07v-.96h-3.01v.96h3.01Zm1.5-.96v.96h3.15v-.96h-3.15Zm0,4.87h3.41v-.91h-3.41v.91Zm3.41,1.17h-3.41v.99h3.41v-.99Z"/><path class="g" d="M403.35,170.84c1.41,.99,3.47,1.81,5.43,2.18-.34,.32-.77,.93-.99,1.33-2.08-.56-4.23-1.63-5.73-3.01v3.22h-1.46v-3.11c-1.52,1.28-3.68,2.32-5.68,2.88-.22-.38-.64-.94-.98-1.26,1.91-.4,3.99-1.23,5.39-2.23h-4.95v-1.25h6.21v-.98h-4.72v-1.12h4.72v-.96h-5.51v-1.18h3.28c-.14-.45-.42-1.02-.67-1.46l.38-.06h-3.63v-1.25h2.37c-.24-.62-.72-1.5-1.17-2.16l1.3-.43c.5,.69,1.06,1.67,1.28,2.29l-.82,.3h1.76v-2.74h1.39v2.74h1.58v-2.74h1.41v2.74h1.73l-.61-.19c.38-.64,.88-1.65,1.12-2.37l1.54,.38c-.43,.78-.91,1.58-1.33,2.18h2.3v1.25h-3.09c-.3,.54-.62,1.07-.9,1.52h3.39v1.18h-5.67v.96h4.91v1.12h-4.91v.98h6.31v1.25h-5.01Zm-4.11-7.01c.29,.46,.58,1.04,.69,1.42l-.46,.1h3.38c.24-.43,.5-1.01,.7-1.52h-4.31Z"/><path class="g" d="M417.51,171.06c.05-.54,.06-1.44,.06-2.23-1.34,.75-2.19,1.47-2.19,2.4,0,1.09,1.02,1.3,2.62,1.3,1.28,0,3.01-.16,4.4-.42l-.05,1.62c-1.15,.14-2.98,.27-4.4,.27-2.37,0-4.21-.54-4.21-2.51s1.91-3.18,3.73-4.11c-.19-.56-.7-.78-1.28-.78-.99,0-1.95,.51-2.62,1.14-.46,.45-.93,1.02-1.46,1.7l-1.36-1.02c1.86-1.76,2.93-3.3,3.59-4.63h-.46c-.66,0-1.76-.03-2.64-.1v-1.49c.83,.11,1.97,.18,2.72,.18h.93c.21-.72,.34-1.41,.37-1.91l1.65,.13c-.1,.42-.22,1.02-.45,1.71,1.57-.06,3.23-.21,4.69-.46v1.47c-1.55,.24-3.51,.37-5.22,.43-.32,.7-.74,1.44-1.2,2.07,.5-.29,1.39-.46,2.02-.46,.99,0,1.81,.46,2.11,1.34,.98-.46,1.79-.8,2.54-1.14,.53-.24,.99-.45,1.5-.7l.62,1.47c-.43,.13-1.12,.38-1.6,.58-.82,.3-1.84,.74-2.95,1.25,.02,.9,.05,2.16,.06,2.91h-1.54Z"/><path class="g" d="M438.07,161.64c-2.03,3.75-6.64,5.89-11,6.82-.13-.38-.43-.98-.69-1.28,1.95-.34,3.95-.98,5.71-1.87-.64-.54-1.63-1.17-2.51-1.63-.64,.34-1.33,.66-2.08,.96-.21-.35-.67-.86-.99-1.1,2.82-.94,4.87-2.38,5.94-3.71l1.65,.37c-.29,.32-.59,.64-.91,.94h3.68l.24-.06,.96,.58Zm2.24,5.59c-1.97,4.66-6.75,6.59-12.05,7.35-.1-.4-.38-1.02-.64-1.36,2.42-.27,4.72-.82,6.66-1.78-.69-.62-1.79-1.41-2.75-1.94-.77,.37-1.6,.72-2.5,1.04-.16-.34-.59-.9-.9-1.15,3.31-1.02,5.67-2.61,6.9-4.13l1.65,.38c-.34,.38-.69,.75-1.09,1.12h3.47l.26-.06,.99,.53Zm-8.64-4.85c-.26,.19-.54,.38-.83,.56,.94,.48,1.97,1.12,2.56,1.62,.98-.62,1.84-1.36,2.5-2.18h-4.23Zm2.34,5.67c-.37,.26-.74,.5-1.14,.74,.98,.54,2.1,1.28,2.75,1.89,1.06-.7,1.95-1.57,2.59-2.62h-4.21Z"/><path class="g" d="M455.33,172.78c0,.88-.22,1.31-.88,1.55-.66,.22-1.7,.24-3.31,.24-.06-.4-.35-1.04-.56-1.44,1.2,.06,2.47,.05,2.83,.03,.34,0,.45-.1,.45-.4v-1.67h-8.5c-.4,1.31-1.14,2.58-2.42,3.54-.21-.3-.74-.85-1.04-1.07,2.27-1.67,2.5-4.07,2.5-6.05v-2.62c-.34,.3-.71,.59-1.09,.86-.22-.34-.72-.83-1.07-1.06,2.1-1.41,3.55-3.31,4.32-4.9l1.6,.3c-.11,.22-.24,.43-.37,.66h3.52l.26-.06,1.01,.67c-.35,.67-.86,1.44-1.38,2.11h4.13v9.3Zm-9.49-4.88c-.02,.59-.06,1.23-.18,1.89h3.36v-1.89h-3.18Zm1.14-5.89c-.34,.5-.74,.99-1.15,1.47h3.73c.34-.45,.67-.98,.96-1.47h-3.54Zm-1.14,4.61h3.18v-1.81h-3.18v1.81Zm8.02-1.81h-3.41v1.81h3.41v-1.81Zm0,4.98v-1.89h-3.41v1.89h3.41Z"/><path class="g" d="M463.65,160.58c-.48,1.12-1.06,2.22-1.73,3.28v10.66h-1.49v-8.56c-.59,.75-1.23,1.44-1.86,2.02-.16-.38-.62-1.18-.9-1.55,1.78-1.49,3.49-3.87,4.51-6.32l1.46,.48Zm6.69,12.36c.83,0,.94-.56,1.07-2.85,.37,.27,.98,.54,1.39,.64-.19,2.66-.62,3.6-2.37,3.6h-3.03c-1.81,0-2.34-.54-2.34-2.48v-11.6h1.49v5.73c1.67-.93,3.35-2.08,4.45-3.09l1.07,1.3c-1.52,1.17-3.6,2.32-5.52,3.31v4.37c0,.91,.16,1.07,.99,1.07h2.79Z"/><path class="g" d="M479.03,160.77c-.1,.58-.14,1.25-.18,1.81-.06,1.76-.19,5.41-.19,7.62,0,1.66,1.06,2.24,2.42,2.24,2.79,0,4.43-1.57,5.57-3.26l1.14,1.39c-1.06,1.5-3.18,3.55-6.74,3.55-2.42,0-4.03-1.04-4.03-3.67,0-2.26,.16-6.34,.16-7.88,0-.66-.05-1.3-.16-1.83l2.02,.02Z"/><path class="g" d="M492.14,162.42c1.17-.1,3.99-.37,6.9-.62,1.7-.13,3.28-.22,4.37-.26v1.6c-.88,0-2.24,.02-3.07,.24-2.11,.62-3.5,2.88-3.5,4.75,0,2.88,2.69,3.84,5.31,3.95l-.58,1.71c-3.1-.16-6.37-1.82-6.37-5.33,0-2.38,1.39-4.31,2.69-5.14-1.39,.16-5.28,.54-7.04,.91l-.18-1.74c.62-.02,1.17-.05,1.47-.08Z"/><path class="g" d="M399.64,190.32c-.67,2.07-1.62,3.87-2.79,5.41,.54,1.36,1.17,2.19,1.84,2.19,.42,0,.61-.82,.7-2.88,.35,.35,.88,.69,1.28,.83-.24,2.82-.78,3.57-2.1,3.57-1.17,0-2.1-.9-2.82-2.4-.91,.96-1.92,1.78-3.03,2.45-.22-.32-.75-.94-1.09-1.22,1.33-.74,2.51-1.67,3.49-2.8-.58-1.81-.94-4.1-1.14-6.59h-5.12v1.94h4.02v.58c-.08,3.47-.16,4.85-.5,5.3-.29,.34-.59,.46-1.02,.51-.4,.06-1.12,.06-1.89,.03-.03-.43-.18-1.01-.4-1.39,.66,.06,1.28,.08,1.54,.08,.22,0,.38-.05,.5-.19,.18-.22,.27-1.14,.32-3.55h-2.56c-.02,2.27-.29,5.47-1.7,7.54-.26-.3-.91-.83-1.25-1.02,1.28-1.92,1.39-4.67,1.39-6.74v-4.53h6.58c-.05-.83-.08-1.7-.08-2.54h1.57c-.02,.86,0,1.71,.05,2.54h3.09c-.62-.53-1.67-1.22-2.51-1.68l.9-.91c.94,.5,2.15,1.23,2.77,1.78l-.77,.82h1.63v1.46h-5.03c.16,1.91,.42,3.63,.79,5.06,.77-1.18,1.36-2.51,1.82-3.99l1.5,.37Z"/><path class="g" d="M415.86,194.54c-.99,.74-2.24,1.47-3.31,2.02,1.14,.8,2.55,1.38,4.21,1.7-.34,.3-.75,.93-.94,1.33-3.62-.83-5.91-2.79-7.25-5.86h-2.08v3.83l3.86-.59,.08,1.31c-2.51,.43-5.2,.86-7.11,1.17l-.35-1.36c.58-.08,1.26-.18,2-.29v-4.07h-2.74v-1.33h2.75v-6.95h9.89v1.25h-8.39v1.1h7.92v1.18h-7.92v1.1h7.92v1.18h-7.92v1.12h9.99v1.33h-1.81l1.2,.82Zm-5.78-.82c.4,.75,.9,1.42,1.49,2.02,1.06-.59,2.27-1.36,3.06-2.02h-4.55Z"/><path class="g" d="M430.39,187.52c-.11,.16-.35,.56-.46,.83-.56,1.31-1.5,3.12-2.62,4.56,1.65,1.41,3.58,3.47,4.58,4.69l-1.42,1.25c-1.04-1.44-2.64-3.2-4.23-4.67-1.71,1.82-3.86,3.54-6.16,4.59l-1.3-1.34c2.59-.99,4.99-2.91,6.58-4.69,1.09-1.22,2.16-2.98,2.54-4.23h-5.87c-.62,0-1.49,.08-1.75,.1v-1.81c.32,.05,1.25,.11,1.75,.11h5.94c.59,0,1.12-.06,1.39-.16l1.04,.77Z"/><path class="g" d="M437.9,190.97c1.89-.46,4.29-1.22,5.84-1.87,.51-.21,1.01-.45,1.52-.77-.32-.34-.53-.78-.53-1.3,0-1.01,.83-1.84,1.84-1.84s1.86,.83,1.86,1.84-.83,1.84-1.86,1.84c-.48,0-.91-.19-1.25-.5l.67,1.55c-.53,.21-1.17,.5-1.68,.67-1.71,.69-4.4,1.5-6.42,2.03v3.27c0,.77,.34,.96,1.09,1.12,.48,.08,1.23,.11,2,.11,1.68,0,4.19-.18,5.51-.53v1.84c-1.44,.21-3.84,.32-5.6,.32-.99,0-1.95-.05-2.62-.16-1.3-.24-2.03-.88-2.03-2.22v-8.77c0-.37-.03-1.02-.11-1.44h1.87c-.06,.42-.1,.99-.1,1.44v3.36Zm9.68-3.94c0-.54-.45-1.01-1.01-1.01s-.99,.46-.99,1.01,.45,.99,.99,.99,1.01-.45,1.01-.99Z"/><path class="g" d="M450.91,191.15c.51,.05,1.5,.1,2.37,.1h8.69c.78,0,1.41-.06,1.79-.1v1.97c-.35-.02-1.07-.06-1.78-.06h-8.71c-.9,0-1.84,.03-2.37,.06v-1.97Z"/><path class="g" d="M471.78,190.29c2.11,.62,5.19,1.78,6.77,2.56l-.7,1.73c-1.7-.9-4.31-1.9-6.07-2.48l.02,4.95c0,.5,.05,1.46,.11,2.05h-1.95c.08-.56,.13-1.44,.13-2.05v-9.25c0-.51-.05-1.26-.14-1.79h1.97c-.05,.53-.13,1.22-.13,1.79v2.5Zm4.58-.77c-.42-.91-.86-1.68-1.41-2.45l1.07-.46c.43,.62,1.1,1.66,1.46,2.42l-1.12,.5Zm2.08-.85c-.46-.91-.91-1.65-1.47-2.4l1.07-.5c.43,.59,1.12,1.63,1.49,2.37l-1.09,.53Z"/><path class="g" d="M489.51,196.06c.05-.54,.06-1.44,.06-2.23-1.34,.75-2.19,1.47-2.19,2.4,0,1.09,1.02,1.3,2.62,1.3,1.28,0,3.01-.16,4.4-.42l-.05,1.62c-1.15,.14-2.98,.27-4.4,.27-2.37,0-4.21-.54-4.21-2.51s1.91-3.18,3.73-4.11c-.19-.56-.7-.78-1.28-.78-.99,0-1.95,.51-2.62,1.14-.46,.45-.93,1.02-1.46,1.7l-1.36-1.02c1.86-1.76,2.93-3.3,3.59-4.63h-.46c-.66,0-1.76-.03-2.64-.1v-1.49c.83,.11,1.97,.18,2.72,.18h.93c.21-.72,.34-1.41,.37-1.91l1.65,.13c-.1,.42-.22,1.02-.45,1.71,1.57-.06,3.23-.21,4.69-.46v1.47c-1.55,.24-3.51,.37-5.22,.43-.32,.7-.74,1.44-1.2,2.07,.5-.29,1.39-.46,2.02-.46,.99,0,1.81,.46,2.11,1.34,.98-.46,1.79-.8,2.54-1.14,.53-.24,.99-.45,1.5-.7l.62,1.47c-.43,.13-1.12,.38-1.6,.58-.82,.3-1.84,.74-2.95,1.25,.02,.9,.05,2.16,.06,2.91h-1.54Z"/><path class="g" d="M409.28,212.79s0,.53-.02,.72c-.13,6.92-.24,9.28-.74,10-.32,.46-.62,.62-1.14,.71-.45,.06-1.15,.06-1.89,.03-.02-.45-.18-1.09-.43-1.49,.7,.03,1.34,.05,1.62,.05,.26,0,.4-.03,.54-.27,.34-.43,.46-2.53,.59-8.29h-2.08c-.14,4.27-.69,7.97-2.8,10.31-.24-.34-.75-.83-1.1-1.06,1.89-2.08,2.34-5.38,2.45-9.25h-2.03v-1.46h2.07c.02-.88,.02-1.78,.02-2.71h1.47c0,.91,0,1.82-.02,2.71h3.49Zm6.67-1.02v12.39h-1.5v-1.02h-2.62v1.15h-1.42v-12.52h5.55Zm-1.5,9.94v-8.5h-2.62v8.5h2.62Z"/><path class="g" d="M421.68,221.13c.7,1.1,2.02,1.62,3.78,1.68,1.78,.06,5.33,.02,7.33-.11-.18,.35-.42,1.06-.5,1.52-1.81,.08-5.03,.11-6.85,.03-2.03-.08-3.41-.61-4.42-1.84-.75,.66-1.52,1.3-2.35,1.98l-.77-1.54c.72-.45,1.57-1.04,2.32-1.65v-3.76h-2.05v-1.38h3.51v5.06Zm-.74-7.47c-.51-.75-1.67-1.83-2.67-2.53l1.1-.9c.99,.69,2.19,1.68,2.74,2.45l-1.17,.98Zm5.65,5.2c-.94,1.26-2.24,2.42-3.51,3.06-.21-.35-.64-.86-.96-1.14,1.39-.58,2.85-1.71,3.75-2.93h-2.79v-4.07h3.51v-1.14h-4.1v-1.25h4.1v-1.52h1.46v1.52h4.35v1.25h-4.35v1.14h3.71v4.07h-3.14c.98,1.17,2.56,2.27,3.92,2.85-.34,.29-.78,.82-1.01,1.18-1.18-.64-2.5-1.76-3.49-2.95v3.36h-1.46v-3.44Zm-2.15-2.18h2.15v-1.75h-2.15v1.75Zm3.6-1.75v1.75h2.27v-1.75h-2.27Z"/><path class="g" d="M439.03,210.77c-.1,.58-.14,1.25-.18,1.81-.06,1.76-.19,5.41-.19,7.62,0,1.66,1.06,2.24,2.42,2.24,2.79,0,4.43-1.57,5.57-3.26l1.14,1.39c-1.06,1.5-3.18,3.55-6.74,3.55-2.42,0-4.03-1.04-4.03-3.67,0-2.26,.16-6.34,.16-7.88,0-.66-.05-1.3-.16-1.83l2.02,.02Z"/><path class="g" d="M459.03,213.99c-.99,.22-2.1,.4-3.18,.53-.14,.69-.32,1.39-.5,2.06-.58,2.24-1.63,5.51-2.5,7.3l-1.76-.59c.96-1.62,2.1-4.88,2.69-7.11,.14-.48,.27-1.01,.38-1.52-.45,.02-.87,.03-1.26,.03-.74,0-1.31-.03-1.89-.06l-.03-1.57c.77,.1,1.33,.13,1.94,.13,.5,0,1.02-.02,1.58-.06,.08-.46,.16-.88,.19-1.17,.06-.51,.08-1.09,.05-1.44l1.94,.14c-.11,.4-.24,1.04-.3,1.36l-.19,.93c.96-.13,1.94-.32,2.85-.54v1.58Zm-.5,5.39c-.13,.5-.22,.99-.22,1.38,0,.72,.38,1.36,2.4,1.36,1.04,0,2.13-.13,3.17-.32l-.05,1.62c-.88,.13-1.94,.22-3.14,.22-2.58,0-3.91-.85-3.91-2.42,0-.66,.11-1.33,.24-1.99l1.5,.14Zm-.62-3.91c.85-.1,1.94-.16,2.96-.16,.91,0,1.87,.05,2.77,.14l-.05,1.52c-.8-.1-1.75-.19-2.69-.19-1.04,0-2.02,.05-2.99,.16v-1.47Z"/><path class="g" d="M469.06,213.75c-.02,.99,0,2.34,.11,3.57,.24,2.5,.88,4.16,1.94,4.16,.8,0,1.49-1.73,1.84-3.19l1.28,1.49c-1.01,2.72-1.99,3.67-3.15,3.67-1.6,0-3.07-1.54-3.51-5.71-.16-1.39-.18-3.28-.18-4.24,0-.4-.02-1.06-.11-1.49l1.94,.03c-.08,.46-.16,1.28-.16,1.71Zm11.11,6.59l-1.65,.64c-.26-2.72-1.17-6.13-2.77-8.02l1.58-.53c1.46,1.84,2.62,5.33,2.83,7.91Z"/></g><g><path class="g" d="M54.94,47.33c-.54-.53-1.7-1.23-2.64-1.67l.83-1.09c.93,.38,2.11,1.02,2.69,1.55l-.88,1.2Zm-2.3,6.58c.7-1.26,1.7-3.31,2.42-5.15l1.18,.83c-.66,1.7-1.5,3.62-2.26,5.14l-1.34-.82Zm3.03-10.71c-.53-.54-1.68-1.3-2.61-1.76l.83-1.07c.93,.42,2.11,1.09,2.67,1.65l-.9,1.18Zm3.3,.27c-.48,.93-1.04,1.76-1.6,2.42-.29-.26-.91-.67-1.26-.87,1.14-1.15,2.07-2.96,2.58-4.82l1.47,.32c-.16,.54-.35,1.07-.56,1.6h7.28v1.34h-7.91Zm6.82,5.81c-.05,.83-.1,1.52-.16,2.11h1.42v1.28h-1.58c-.14,.83-.3,1.3-.51,1.55-.32,.45-.67,.56-1.17,.62-.46,.06-1.25,.05-2.02,0-.02-.35-.16-.9-.37-1.23,.77,.06,1.44,.08,1.76,.08,.26,0,.43-.05,.58-.24,.11-.13,.21-.38,.3-.78h-5.43l-.13,.74-1.42-.13c.21-1.07,.45-2.5,.67-4h-1.44v-1.36h1.62c.16-1.12,.29-2.22,.38-3.2h7.71s-.02,.48-.03,.66c-.03,.94-.08,1.79-.11,2.54h1.3v1.36h-1.38Zm-6.67,0c-.1,.74-.21,1.44-.3,2.11h1.97c.08-.62,.16-1.36,.26-2.11h-1.92Zm.42-3.26c-.08,.62-.16,1.26-.24,1.9h1.87c.06-.66,.13-1.3,.18-1.9h-1.81Zm4.71,5.38c.06-.56,.13-1.26,.18-2.11h-2.1c-.08,.77-.16,1.49-.24,2.11h2.16Zm.26-3.47c.03-.58,.06-1.22,.1-1.9h-1.97c-.05,.61-.11,1.26-.18,1.9h2.05Z"/><path class="g" d="M79.85,47.61c1.09,.98,2.3,1.81,3.52,2.35-.34,.29-.83,.86-1.06,1.28-.85-.43-1.68-1.01-2.46-1.66v5.28h-1.54v-6.74c-.83-.88-1.57-1.87-2.19-2.88-1.18,4.79-3.51,7.89-6.43,9.56-.26-.34-.83-.9-1.2-1.1,1.84-.96,3.38-2.42,4.55-4.43-.69-.66-1.76-1.44-2.75-2.08-.3,.4-.62,.77-.94,1.1-.27-.26-.9-.75-1.25-.98,1.76-1.6,3.07-4.24,3.79-7.11l1.47,.3c-.19,.72-.4,1.41-.66,2.08h2.64l.27-.05,.99,.34c-.08,.46-.16,.93-.24,1.36l.58-.22c.37,.67,.83,1.34,1.38,2v-5.78h1.54v7.38Zm-7.73-3.62c-.32,.74-.69,1.42-1.07,2.05,.93,.56,1.95,1.26,2.67,1.87,.51-1.15,.91-2.46,1.18-3.92h-2.79Z"/><path class="g" d="M92.27,40.15c1.7,2.51,4.4,4.82,6.93,6.02-.37,.38-.74,.88-.99,1.33-2.48-1.42-5.22-3.79-6.63-5.86-1.28,2-3.79,4.35-6.47,5.92-.19-.35-.62-.88-.94-1.2,2.75-1.5,5.38-4.08,6.58-6.21h1.52Zm.27,12.96h5.89v1.34h-13.51v-1.34h1.89v-5.75h1.46v5.75h2.71v-8.56h1.57v3.59h4.43v1.34h-4.43v3.63Z"/><path class="g" d="M109.66,51.2c1.41,.99,3.47,1.81,5.43,2.18-.34,.32-.77,.93-.99,1.33-2.08-.56-4.23-1.63-5.73-3.01v3.22h-1.46v-3.11c-1.52,1.28-3.68,2.32-5.68,2.88-.22-.38-.64-.94-.98-1.26,1.91-.4,3.99-1.23,5.39-2.23h-4.95v-1.25h6.21v-.98h-4.72v-1.12h4.72v-.96h-5.51v-1.18h3.28c-.14-.45-.42-1.02-.67-1.46l.38-.06h-3.63v-1.25h2.37c-.24-.62-.72-1.5-1.17-2.16l1.3-.43c.5,.69,1.06,1.67,1.28,2.29l-.82,.3h1.76v-2.74h1.39v2.74h1.58v-2.74h1.41v2.74h1.73l-.61-.19c.38-.64,.88-1.65,1.12-2.37l1.54,.38c-.43,.78-.91,1.58-1.33,2.18h2.3v1.25h-3.09c-.3,.54-.62,1.07-.9,1.52h3.39v1.18h-5.67v.96h4.91v1.12h-4.91v.98h6.31v1.25h-5.01Zm-4.11-7.01c.29,.46,.58,1.04,.69,1.42l-.46,.1h3.38c.24-.43,.5-1.01,.7-1.52h-4.31Z"/><path class="g" d="M123.82,51.42c.05-.54,.06-1.44,.06-2.23-1.34,.75-2.19,1.47-2.19,2.4,0,1.09,1.02,1.3,2.62,1.3,1.28,0,3.01-.16,4.4-.42l-.05,1.62c-1.15,.14-2.98,.27-4.4,.27-2.37,0-4.21-.54-4.21-2.51s1.91-3.18,3.73-4.11c-.19-.56-.7-.78-1.28-.78-.99,0-1.95,.51-2.62,1.14-.46,.45-.93,1.02-1.46,1.7l-1.36-1.02c1.86-1.76,2.93-3.3,3.59-4.63h-.46c-.66,0-1.76-.03-2.64-.1v-1.49c.83,.11,1.97,.18,2.72,.18h.93c.21-.72,.34-1.41,.37-1.91l1.65,.13c-.1,.42-.22,1.02-.45,1.71,1.57-.06,3.23-.21,4.69-.46v1.47c-1.55,.24-3.51,.37-5.22,.43-.32,.7-.74,1.44-1.2,2.07,.5-.29,1.39-.46,2.02-.46,.99,0,1.81,.46,2.11,1.34,.98-.46,1.79-.8,2.54-1.14,.53-.24,.99-.45,1.5-.7l.62,1.47c-.43,.13-1.12,.38-1.6,.58-.82,.3-1.84,.74-2.95,1.25,.02,.9,.05,2.16,.06,2.91h-1.54Z"/><path class="g" d="M49.48,69.04h-5.19v-1.18h5.19v1.18Zm-.43,9.96h-2.95v.7h-1.18v-5.38h4.13v4.67Zm-4.1-8.96h4.11v1.15h-4.11v-1.15Zm0,2.13h4.11v1.17h-4.11v-1.17Zm4.08-5.25h-3.99v-1.17h3.99v1.17Zm-2.93,8.61v2.3h1.74v-2.3h-1.74Zm12.64,.77c-.54,.4-1.23,.78-1.86,1.1,.66,.62,1.44,1.12,2.35,1.42-.29,.22-.67,.74-.86,1.07-2.05-.78-3.44-2.43-4.19-4.62h-.13c-.35,.35-.75,.7-1.2,1.01v1.94c.78-.13,1.62-.26,2.45-.4l.1,1.09c-1.73,.32-3.54,.66-4.93,.88l-.37-1.15c.43-.06,.94-.14,1.49-.22v-1.38c-.54,.29-1.09,.53-1.63,.74-.18-.26-.56-.75-.8-.99,1.14-.35,2.34-.86,3.23-1.5h-2.87v-1.04h2.39v-.75h-1.5v-.98h1.5v-.74h-1.86v-1.01h1.86v-1.1h1.33v1.1h1.98v-1.1h1.36v1.1h2.03v1.01h-2.03v.74h1.73v.98h-1.73v.75h2.43v1.04h-3.57c.21,.48,.48,.93,.78,1.34,.59-.34,1.26-.78,1.7-1.1l.82,.79Zm-5.2-8.12c-.75,.88-2.06,1.7-3.22,2.19-.21-.24-.69-.72-.98-.93,1.12-.4,2.29-.99,2.93-1.65l1.26,.38Zm5.27-.46h-9.01v-1.12h3.65v-1.39h1.5v1.39h3.86v1.12Zm-5.57,4.79h1.98v-.74h-1.98v.74Zm0,1.73h1.98v-.75h-1.98v.75Zm2.69-6.5c1.07,.46,2.38,1.22,3.1,1.78l-.99,.77c-.69-.59-2.02-1.39-3.09-1.86l.98-.69Z"/><path class="g" d="M65.26,65.97c-.29,.99-.59,2.91-.69,3.92,.69-1.46,2.22-3.15,4.13-3.15,2.16,0,3.76,2.13,3.76,5.54,0,4.42-2.77,6.45-6.8,7.19l-.96-1.44c3.47-.54,6.07-1.83,6.07-5.75,0-2.47-.82-4.08-2.34-4.08-1.92,0-3.68,2.85-3.81,4.93-.06,.53-.05,1.07,.05,1.83l-1.55,.11c-.08-.59-.19-1.52-.19-2.56,0-1.49,.27-3.67,.48-5.11,.06-.53,.11-1.07,.13-1.49l1.73,.06Z"/><path class="g" d="M88.59,73.19c-.77,1.63-1.97,2.9-3.41,3.89,1.63,.66,3.52,1.1,5.63,1.33-.32,.34-.7,.98-.91,1.41-2.37-.34-4.47-.95-6.24-1.86-1.87,.93-4.05,1.5-6.32,1.87-.14-.38-.54-1.02-.86-1.34,2.11-.26,4.07-.7,5.75-1.41-1.17-.8-2.14-1.79-2.91-2.95l.29-.13h-.69v-1.38h8.4l.27-.05,1.01,.61Zm-10.37-.1h-1.39v-3.31h2.42c-.19-.56-.56-1.33-.91-1.91l1.3-.37c.43,.61,.85,1.46,1.02,2l-.86,.27h3.46c-.08-.59-.38-1.54-.72-2.26l1.33-.29c.35,.71,.7,1.62,.8,2.21l-1.34,.34h3.18c.46-.75,.98-1.79,1.28-2.58l1.55,.42c-.42,.72-.88,1.52-1.33,2.16h2.51v3.31h-1.46v-2h-10.84v2Zm11.54-6.74c-3.36,.67-8.29,1.06-12.45,1.2-.02-.37-.18-.94-.32-1.26,4.11-.16,8.95-.56,11.73-1.15l1.04,1.22Zm-8.87,7.65c.7,.93,1.65,1.71,2.8,2.35,1.09-.62,1.99-1.39,2.66-2.35h-5.46Z"/><path class="g" d="M95.96,66.35c-.11,.34-.24,.83-.32,1.15-.45,2.05-.99,5.44-.48,7.76,.22-.59,.53-1.46,.8-2.16l.83,.53c-.42,1.22-.88,2.82-1.06,3.67-.05,.22-.1,.54-.08,.72,0,.16,.03,.4,.03,.59l-1.38,.16c-.34-.98-.86-3.11-.86-5.07,0-2.59,.37-5.03,.56-6.34,.06-.4,.08-.86,.1-1.18l1.86,.18Zm10.39,4.29c-.69,.1-1.54,.18-2.47,.24v.59c0,3.68-.13,6.15-3.39,8.15l-1.47-1.15c.54-.24,1.26-.67,1.68-1.12,1.49-1.38,1.65-2.99,1.65-5.89v-.5c-.64,.02-1.28,.03-1.91,.03-.74,0-1.78-.05-2.51-.1v-1.6c.74,.11,1.63,.16,2.48,.16,.61,0,1.26-.02,1.9-.03-.02-.96-.05-1.9-.08-2.32-.03-.34-.1-.74-.16-.99h1.84c-.05,.3-.05,.64-.06,.99-.02,.35,0,1.28,.02,2.23,.91-.08,1.78-.19,2.48-.34v1.65Z"/><path class="g" d="M117.34,69.35c-.99,.22-2.1,.4-3.18,.53-.14,.69-.32,1.39-.5,2.06-.58,2.24-1.63,5.51-2.5,7.3l-1.76-.59c.96-1.62,2.1-4.88,2.69-7.11,.14-.48,.27-1.01,.38-1.52-.45,.02-.87,.03-1.26,.03-.74,0-1.31-.03-1.89-.06l-.03-1.57c.77,.1,1.33,.13,1.94,.13,.5,0,1.02-.02,1.58-.06,.08-.46,.16-.88,.19-1.17,.06-.51,.08-1.09,.05-1.44l1.94,.14c-.11,.4-.24,1.04-.3,1.36l-.19,.93c.96-.13,1.94-.32,2.85-.54v1.58Zm-.5,5.39c-.13,.5-.22,.99-.22,1.38,0,.72,.38,1.36,2.4,1.36,1.04,0,2.13-.13,3.17-.32l-.05,1.62c-.88,.13-1.94,.22-3.14,.22-2.58,0-3.91-.85-3.91-2.42,0-.66,.11-1.33,.24-1.99l1.5,.14Zm-.62-3.91c.85-.1,1.94-.16,2.96-.16,.91,0,1.87,.05,2.77,.14l-.05,1.52c-.8-.1-1.75-.19-2.69-.19-1.04,0-2.02,.05-2.99,.16v-1.47Z"/><path class="g" d="M127.37,69.11c-.02,.99,0,2.34,.11,3.57,.24,2.5,.88,4.16,1.94,4.16,.8,0,1.49-1.73,1.84-3.19l1.28,1.49c-1.01,2.72-1.99,3.67-3.15,3.67-1.6,0-3.07-1.54-3.51-5.71-.16-1.39-.18-3.28-.18-4.24,0-.4-.02-1.06-.11-1.49l1.94,.03c-.08,.46-.16,1.28-.16,1.71Zm11.11,6.59l-1.65,.64c-.26-2.72-1.17-6.13-2.77-8.02l1.58-.53c1.46,1.84,2.62,5.33,2.83,7.91Z"/></g><g><path class="f" d="M177.2,155.01c-5.34-5.54-9.44-11.9-12.11-18.88l-1.03-2.87c-.62-1.44-.21-3.08,.82-4.31,.62-.62,1.64-1.03,2.46-1.03,.62,0,1.03,.21,1.64,.41l2.87,1.23c7.39,3.08,13.96,7.59,19.7,13.34l38.99,40.43c4.93,5.13,9.03,10.67,12.52,16.62l17.44-5.75c1.64-.62,3.49-.41,5.13,.41l2.05,1.03-19.7,14.37,1.44,3.28c.21,1.03,0,1.85-.62,2.46-.41,.41-1.03,.62-1.85,.62h-.62l-3.49-1.64-15.8,20.11-1.03-2.05c-.82-1.64-.82-3.49-.21-5.13l6.98-18.47c-5.54-3.69-10.88-8-15.6-12.93l-40.02-41.25Z"/><path class="f" d="M206.13,151.52l6.36-2.05-2.46-2.67h0s-.21,0-.21-.21c-.41-.41,.41-2.05,1.85-3.49,1.44-1.44,3.08-2.26,3.69-1.85,0,0,0,.21,.21,.21h0l4.72,4.93,.41,.41,12.52-4.1-2.67-2.67h0s-.21,0-.21-.21c-.41-.41,.41-2.05,1.85-3.49,1.44-1.44,3.08-2.26,3.69-1.85,0,0,0,.21,.21,.21h0l4.72,4.93,.41,.41,13.96-4.52,3.49,3.49-36.33,29.14-16.21-16.62Z"/><ellipse class="f" cx="141.28" cy="193.8" rx="29.14" ry="30.58"/><path class="f" d="M86.07,271.58c6.57,4.72,23.19,13.34,55.21,13.34h0c32.02,0,48.64-8.82,55.21-13.34,2.26-1.44,3.49-4.31,3.08-6.98-2.46-19.29-20.73-29.35-32.84-34.07l-19.29,32.84-1.64-22.58,4.31-10.47h-17.44l4.52,10.47-1.85,22.58-19.5-32.84c-12.11,4.72-30.37,14.78-32.84,34.07-.21,2.67,.82,5.54,3.08,6.98Zm19.29-7.18h17.03v4.52h-17.03v-4.52Z"/><path class="f" d="M167.14,219.86l.82-2.46c5.13-6.16,8.21-14.16,8.41-22.99l3.08-8.82-.41-.41-4.72-4.93h0s-.21,0-.21-.21c-.41-.41,.41-2.05,1.85-3.49,1.44-1.44,3.08-2.26,3.69-1.85,0,0,0,.21,.21,.21h0l2.67,2.87,2.67-7.39,16.62,17.24-31.19,35.92-3.49-3.69Z"/></g><path class="e" d="M517.46,249.16h-153.66c-.09,0-.17,0-.26-.01-1.38-.14-13.2-1.57-13.2-10.99v-96s-1.03-10,11.28-10h18.79c1.51,0,2.74-1.19,2.74-2.67v-26.4c0-2.44,3.09-3.6,4.77-1.79l25.79,27.86c.52,.56,1.26,.88,2.03,.88h100.69s14.35,.11,14.35,18.11v90s1.03,11-13.33,11Z"/><path class="e" d="M14.76,1.42H168.42c.09,0,.17,0,.26,.01,1.38,.14,13.2,1.57,13.2,10.99V108.42s1.03,10-11.28,10h-18.79c-1.51,0-2.74,1.19-2.74,2.67v26.4c0,2.44-3.09,3.6-4.77,1.79l-25.79-27.86c-.52-.56-1.26-.88-2.03-.88H15.79s-14.35-.11-14.35-18.11V12.42S.41,1.42,14.76,1.42Z"/><g><path class="d" d="M264.57,107.84c0,1.59,1.25,2.96,2.96,2.96h12.98c1.59,0,2.96-1.25,2.96-2.96v-18.33c-6.15,1.14-12.41,1.71-18.79,1.71v16.62h-.11Z"/><path class="d" d="M292,87.69v20.15c0,1.59,1.25,2.96,2.96,2.96h12.87c1.59,0,2.96-1.25,2.96-2.96v-26.98c-4.78,2.28-9.68,4.1-14.69,5.58-1.37,.46-2.73,.91-4.1,1.25Z"/><path class="d" d="M319.44,76.31v31.65c0,1.59,1.37,2.96,2.96,2.96h12.87c1.59,0,2.96-1.25,2.96-2.96V62.42c-3.42,3.07-7.06,6.03-10.82,8.65-2.85,2.05-5.46,3.76-7.97,5.24Z"/><path class="d" d="M358.15,39.19c-2.85,4.33-6.03,8.42-9.45,12.52-.57,.68-1.25,1.37-1.82,2.05v54.08c0,1.59,1.25,2.96,2.96,2.96h12.75c1.59,0,2.96-1.25,2.96-2.96V39.87c-.91,.23-1.82,.34-2.73,.34-1.59,0-3.19-.34-4.67-1.02Z"/><path class="d" d="M355.19,28.6l6.15,3.19c2.39,1.25,5.24-.68,4.9-3.42l-2.62-22.77c-.23-2.39-2.85-3.76-4.9-2.62l-20.27,10.59c-2.39,1.25-2.39,4.67,0,6.03l6.49,3.42c-.91,1.59-1.94,3.3-2.96,4.9-2.5,3.76-5.24,7.4-8.2,10.93-5.24,6.03-11.16,11.5-17.65,16.17-2.73,1.94-5.46,3.64-8.2,5.12-5.58,3.19-11.5,5.69-17.65,7.63-2.62,.8-5.35,1.48-8.08,2.05-5.69,1.14-11.61,1.82-17.53,1.82-3.19,0-5.81,2.62-5.81,5.81s2.62,5.81,5.81,5.81c6.72,0,13.43-.68,19.92-2.05,3.07-.57,6.15-1.37,9.22-2.39,6.94-2.16,13.66-5.01,19.92-8.54,3.07-1.71,6.03-3.64,9.22-5.81,7.29-5.12,14-11.27,19.81-17.99,3.3-3.87,6.38-7.86,9.11-12.07,1.02-1.94,2.16-3.87,3.3-5.81Z"/></g></g></g></svg>