<?xml version="1.0" encoding="UTF-8"?><svg xmlns="http://www.w3.org/2000/svg" viewBox="0 0 375.31 341.92"><defs><style>.d{fill:#c7161d;}.e{fill:none;stroke:#c8161d;stroke-linecap:round;stroke-linejoin:round;stroke-width:2.83px;}.f{fill:#c8161d;}.g{fill:#231815;}</style></defs><g id="a"/><g id="b"><g id="c"><g><path class="g" d="M225.68,69.53c0,.85-.19,1.3-.72,1.54-.53,.24-1.36,.29-2.71,.27-.06-.4-.3-1.07-.51-1.46,.91,.05,1.84,.03,2.11,.03,.27-.02,.37-.11,.37-.38v-10.71h-10.32v12.53h-1.44v-13.94h13.22v12.12Zm-2.61-8h-8v-1.26h8v1.26Zm-5.84,6.63v1.12h-1.38v-6.27h6.42v5.15h-5.04Zm0-3.91v2.66h3.67v-2.66h-3.67Z"/><path class="g" d="M237.06,67.61c1.41,.99,3.47,1.81,5.43,2.18-.34,.32-.77,.93-.99,1.33-2.08-.56-4.23-1.63-5.73-3.01v3.22h-1.46v-3.11c-1.52,1.28-3.68,2.32-5.68,2.88-.22-.38-.64-.94-.98-1.26,1.9-.4,3.99-1.23,5.39-2.23h-4.95v-1.25h6.21v-.98h-4.72v-1.12h4.72v-.96h-5.51v-1.18h3.28c-.14-.45-.42-1.02-.67-1.46l.38-.06h-3.63v-1.25h2.37c-.24-.62-.72-1.5-1.17-2.16l1.3-.43c.5,.69,1.06,1.67,1.28,2.29l-.82,.3h1.76v-2.74h1.39v2.74h1.58v-2.74h1.41v2.74h1.73l-.61-.19c.38-.64,.88-1.65,1.12-2.37l1.54,.38c-.43,.78-.91,1.58-1.33,2.18h2.3v1.25h-3.09c-.3,.54-.62,1.07-.9,1.52h3.39v1.18h-5.67v.96h4.91v1.12h-4.91v.98h6.31v1.25h-5.01Zm-4.11-7.01c.29,.46,.58,1.04,.69,1.42l-.46,.1h3.38c.24-.43,.5-1.01,.7-1.52h-4.31Z"/><path class="g" d="M249.62,66.84c-.37-.46-1.09-1.23-1.75-1.89v6.37h-1.47v-5.91c-.72,.7-1.49,1.31-2.24,1.79-.14-.38-.51-1.09-.74-1.38,1.83-1.04,3.67-2.9,4.75-4.9h-4.19v-1.36h2.42v-2.95h1.47v2.95h1.1l.26-.05,.83,.56c-.48,1.22-1.18,2.38-1.98,3.44,.75,.61,2.08,1.76,2.45,2.1l-.91,1.22Zm8.93,2.56v1.47h-8.96v-1.47h3.87v-6.27h-3.23v-1.44h3.23v-4.93h1.52v4.93h3.23v1.44h-3.23v6.27h3.57Z"/><path class="g" d="M267.22,67.84c.05-.54,.06-1.44,.06-2.23-1.34,.75-2.19,1.47-2.19,2.4,0,1.09,1.02,1.3,2.62,1.3,1.28,0,3.01-.16,4.4-.42l-.05,1.62c-1.15,.14-2.98,.27-4.4,.27-2.37,0-4.21-.54-4.21-2.51s1.91-3.18,3.73-4.11c-.19-.56-.7-.78-1.28-.78-.99,0-1.95,.51-2.62,1.14-.46,.45-.93,1.02-1.46,1.7l-1.36-1.02c1.86-1.76,2.93-3.3,3.59-4.63h-.46c-.66,0-1.76-.03-2.64-.1v-1.49c.83,.11,1.97,.18,2.72,.18h.93c.21-.72,.34-1.41,.37-1.91l1.65,.13c-.1,.42-.22,1.02-.45,1.71,1.57-.06,3.23-.21,4.69-.46v1.47c-1.55,.24-3.51,.37-5.22,.43-.32,.7-.74,1.44-1.2,2.07,.5-.29,1.39-.46,2.02-.46,.99,0,1.81,.46,2.11,1.34,.98-.46,1.79-.8,2.54-1.14,.53-.24,.99-.45,1.5-.7l.62,1.47c-.43,.13-1.12,.38-1.6,.58-.82,.3-1.84,.74-2.95,1.25,.02,.9,.05,2.16,.06,2.91h-1.54Z"/><path class="g" d="M280.88,60.46h-5.19v-1.18h5.19v1.18Zm-.43,9.96h-2.94v.7h-1.19v-5.38h4.13v4.67Zm-4.1-8.96h4.11v1.15h-4.11v-1.15Zm0,2.13h4.11v1.17h-4.11v-1.17Zm4.08-5.25h-3.99v-1.17h3.99v1.17Zm-2.93,8.61v2.3h1.74v-2.3h-1.74Zm12.64,.77c-.54,.4-1.23,.78-1.86,1.1,.66,.62,1.44,1.12,2.35,1.42-.29,.22-.67,.74-.86,1.07-2.05-.78-3.44-2.43-4.19-4.62h-.13c-.35,.35-.75,.7-1.2,1.01v1.94c.78-.13,1.62-.26,2.45-.4l.1,1.09c-1.73,.32-3.54,.66-4.93,.88l-.37-1.15c.43-.06,.94-.14,1.49-.22v-1.38c-.54,.29-1.09,.53-1.63,.74-.18-.26-.56-.75-.8-.99,1.14-.35,2.34-.86,3.23-1.5h-2.87v-1.04h2.38v-.75h-1.5v-.98h1.5v-.74h-1.86v-1.01h1.86v-1.1h1.33v1.1h1.98v-1.1h1.36v1.1h2.03v1.01h-2.03v.74h1.73v.98h-1.73v.75h2.43v1.04h-3.57c.21,.48,.48,.93,.78,1.34,.59-.34,1.27-.78,1.7-1.1l.82,.79Zm-5.2-8.12c-.75,.88-2.07,1.7-3.22,2.19-.21-.24-.69-.72-.98-.93,1.12-.4,2.29-.99,2.93-1.65l1.26,.38Zm5.27-.46h-9.01v-1.12h3.65v-1.39h1.51v1.39h3.86v1.12Zm-5.57,4.79h1.98v-.74h-1.98v.74Zm0,1.73h1.98v-.75h-1.98v.75Zm2.69-6.5c1.07,.46,2.39,1.22,3.11,1.78l-.99,.77c-.69-.59-2.02-1.39-3.09-1.86l.98-.69Z"/><path class="g" d="M296.66,57.38c-.29,.99-.59,2.91-.69,3.92,.69-1.46,2.22-3.15,4.13-3.15,2.16,0,3.76,2.13,3.76,5.54,0,4.42-2.77,6.45-6.8,7.19l-.96-1.44c3.47-.54,6.07-1.83,6.07-5.75,0-2.47-.82-4.08-2.34-4.08-1.92,0-3.68,2.85-3.81,4.93-.06,.53-.05,1.07,.05,1.83l-1.55,.11c-.08-.59-.19-1.52-.19-2.56,0-1.49,.27-3.67,.48-5.11,.06-.53,.11-1.07,.13-1.49l1.73,.06Z"/><path class="g" d="M319.99,64.6c-.77,1.63-1.97,2.9-3.41,3.89,1.63,.66,3.52,1.1,5.63,1.33-.32,.34-.7,.98-.91,1.41-2.37-.34-4.47-.95-6.24-1.86-1.87,.93-4.05,1.5-6.32,1.87-.14-.38-.54-1.02-.86-1.34,2.11-.26,4.06-.7,5.75-1.41-1.17-.8-2.14-1.79-2.91-2.95l.29-.13h-.69v-1.38h8.4l.27-.05,1.01,.61Zm-10.37-.1h-1.39v-3.31h2.42c-.19-.56-.56-1.33-.91-1.91l1.3-.37c.43,.61,.85,1.46,1.03,2l-.87,.27h3.46c-.08-.59-.38-1.54-.72-2.26l1.33-.29c.35,.71,.7,1.62,.8,2.21l-1.34,.34h3.19c.46-.75,.98-1.79,1.28-2.58l1.55,.42c-.42,.72-.88,1.52-1.33,2.16h2.51v3.31h-1.46v-2h-10.84v2Zm11.54-6.74c-3.36,.67-8.29,1.06-12.45,1.2-.02-.37-.18-.94-.32-1.26,4.11-.16,8.95-.56,11.73-1.15l1.04,1.22Zm-8.87,7.65c.7,.93,1.65,1.71,2.8,2.35,1.09-.62,1.98-1.39,2.66-2.35h-5.46Z"/><path class="g" d="M327.36,57.77c-.11,.34-.24,.83-.32,1.15-.45,2.05-.99,5.44-.48,7.76,.22-.59,.53-1.46,.8-2.16l.83,.53c-.42,1.22-.88,2.82-1.06,3.67-.05,.22-.1,.54-.08,.72,0,.16,.03,.4,.03,.59l-1.38,.16c-.34-.98-.86-3.11-.86-5.07,0-2.59,.37-5.03,.56-6.34,.06-.4,.08-.86,.1-1.18l1.86,.18Zm10.39,4.29c-.69,.1-1.54,.18-2.47,.24v.59c0,3.68-.13,6.15-3.39,8.15l-1.47-1.15c.54-.24,1.26-.67,1.68-1.12,1.49-1.38,1.65-2.99,1.65-5.89v-.5c-.64,.02-1.28,.03-1.91,.03-.74,0-1.78-.05-2.51-.1v-1.6c.74,.11,1.63,.16,2.48,.16,.61,0,1.26-.02,1.9-.03-.02-.96-.05-1.9-.08-2.32-.03-.34-.1-.74-.16-.99h1.84c-.05,.3-.05,.64-.06,.99-.02,.35,0,1.28,.02,2.23,.91-.08,1.78-.19,2.48-.34v1.65Z"/><path class="g" d="M341.86,59.19c1.17-.1,3.99-.37,6.9-.62,1.7-.13,3.28-.22,4.37-.26v1.6c-.88,0-2.24,.02-3.07,.24-2.11,.62-3.5,2.88-3.5,4.75,0,2.88,2.69,3.84,5.31,3.95l-.58,1.71c-3.1-.16-6.37-1.83-6.37-5.33,0-2.38,1.39-4.31,2.69-5.14-1.39,.16-5.28,.54-7.04,.91l-.18-1.74c.62-.02,1.17-.05,1.47-.08Z"/><path class="g" d="M234.32,91.84h-1.66v2.8h-1.5v-.69h-3.41v.83c0,.82-.21,1.15-.75,1.36-.54,.19-1.38,.21-2.72,.21-.08-.34-.3-.88-.51-1.2,.88,.03,1.84,.03,2.1,.02,.29-.02,.38-.1,.38-.37v-.85h-4.99v-1.12h4.99v-.99h-6.4v-1.17h6.4v-.91h-4.85v-1.06h4.85v-.94h-4.43v-2.95h4.43v-.82h-6.07v-1.2h6.07v-1.17h1.5v1.17h6.24v1.2h-6.24v.82h4.66v2.95h-4.66v.94h4.91v1.97h1.66v1.17Zm-8.08-5.07v-.96h-3.01v.96h3.01Zm1.5-.96v.96h3.15v-.96h-3.15Zm0,4.87h3.41v-.91h-3.41v.91Zm3.41,1.17h-3.41v.99h3.41v-.99Z"/><path class="g" d="M245.06,92.61c1.41,.99,3.47,1.81,5.43,2.18-.34,.32-.77,.93-.99,1.33-2.08-.56-4.23-1.63-5.73-3.01v3.22h-1.46v-3.11c-1.52,1.28-3.68,2.32-5.68,2.88-.22-.38-.64-.94-.98-1.26,1.9-.4,3.99-1.23,5.39-2.23h-4.95v-1.25h6.21v-.98h-4.72v-1.12h4.72v-.96h-5.51v-1.18h3.28c-.14-.45-.42-1.02-.67-1.46l.38-.06h-3.63v-1.25h2.37c-.24-.62-.72-1.5-1.17-2.16l1.3-.43c.5,.69,1.06,1.67,1.28,2.29l-.82,.3h1.76v-2.74h1.39v2.74h1.58v-2.74h1.41v2.74h1.73l-.61-.19c.38-.64,.88-1.65,1.12-2.37l1.54,.38c-.43,.78-.91,1.58-1.33,2.18h2.3v1.25h-3.09c-.3,.54-.62,1.07-.9,1.52h3.39v1.18h-5.67v.96h4.91v1.12h-4.91v.98h6.31v1.25h-5.01Zm-4.11-7.01c.29,.46,.58,1.04,.69,1.42l-.46,.1h3.38c.24-.43,.5-1.01,.7-1.52h-4.31Z"/><path class="g" d="M256.83,89.87c-.51,.16-1.04,.32-1.55,.48v4.23c0,.78-.16,1.2-.61,1.44-.46,.24-1.15,.29-2.21,.29-.05-.38-.24-1.02-.43-1.44,.67,.02,1.33,.02,1.54,.02s.29-.08,.29-.3v-3.79l-2,.58-.32-1.46c.64-.14,1.44-.35,2.32-.59v-3.2h-2.03v-1.38h2.03v-3.09h1.42v3.09h1.39v1.38h-1.39v2.82l1.38-.38,.18,1.33Zm1.84-1.95c0,2.45-.29,6.02-1.97,8.37-.27-.24-.88-.67-1.2-.83,1.58-2.19,1.74-5.31,1.74-7.56v-3.62h3.78v-2.61h1.47v2.61h3.68v1.34h-7.51v2.29Zm6.5,8.36c-.08-.45-.22-.98-.4-1.55-2.27,.26-4.62,.51-6.34,.67l-.26-1.39,1.3-.1c.59-2.08,1.23-5.11,1.54-7.35l1.57,.24c-.45,2.29-1.09,4.99-1.68,6.98,1.09-.08,2.27-.19,3.44-.3-.4-1.07-.9-2.18-1.41-3.12l1.26-.43c1.04,1.89,2.05,4.31,2.35,5.86l-1.38,.5Z"/><path class="g" d="M276.24,87.6c1.09,3.33,3.11,6.03,6.13,7.3-.37,.32-.87,.94-1.11,1.39-2.99-1.39-4.93-3.99-6.18-7.38-.82,2.9-2.54,5.67-6.18,7.38-.24-.4-.72-.93-1.14-1.25,3.81-1.67,5.36-4.55,6-7.44h-5.68v-1.54h5.95c.19-1.6,.18-3.14,.19-4.42h1.62c-.02,1.3-.03,2.83-.22,4.42h6.45v1.54h-5.84Z"/><path class="g" d="M291.22,92.84c.05-.54,.06-1.44,.06-2.23-1.34,.75-2.19,1.47-2.19,2.4,0,1.09,1.02,1.3,2.62,1.3,1.28,0,3.01-.16,4.4-.42l-.05,1.62c-1.15,.14-2.98,.27-4.4,.27-2.37,0-4.21-.54-4.21-2.51s1.91-3.18,3.73-4.11c-.19-.56-.7-.78-1.28-.78-.99,0-1.95,.51-2.62,1.14-.46,.45-.93,1.02-1.46,1.7l-1.36-1.02c1.86-1.76,2.93-3.3,3.59-4.63h-.46c-.66,0-1.76-.03-2.64-.1v-1.49c.83,.11,1.97,.18,2.72,.18h.93c.21-.72,.34-1.41,.37-1.91l1.65,.13c-.1,.42-.22,1.02-.45,1.71,1.57-.06,3.23-.21,4.69-.46v1.47c-1.55,.24-3.51,.37-5.22,.43-.32,.7-.74,1.44-1.2,2.07,.5-.29,1.39-.46,2.02-.46,.99,0,1.81,.46,2.11,1.34,.98-.46,1.79-.8,2.54-1.14,.53-.24,.99-.45,1.5-.7l.62,1.47c-.43,.13-1.12,.38-1.6,.58-.82,.3-1.84,.74-2.95,1.25,.02,.9,.05,2.16,.06,2.91h-1.54Z"/><path class="g" d="M304.74,82.54c-.1,.58-.14,1.25-.18,1.81-.06,1.76-.19,5.41-.19,7.62,0,1.66,1.06,2.24,2.42,2.24,2.79,0,4.43-1.57,5.57-3.26l1.14,1.39c-1.06,1.5-3.19,3.55-6.74,3.55-2.42,0-4.03-1.04-4.03-3.67,0-2.26,.16-6.34,.16-7.88,0-.66-.05-1.3-.16-1.83l2.02,.02Z"/><path class="g" d="M324.74,85.76c-.99,.22-2.1,.4-3.19,.53-.14,.69-.32,1.39-.5,2.06-.58,2.24-1.63,5.51-2.5,7.3l-1.76-.59c.96-1.62,2.1-4.88,2.69-7.11,.14-.48,.27-1.01,.38-1.52-.45,.02-.86,.03-1.26,.03-.74,0-1.31-.03-1.89-.06l-.03-1.57c.77,.1,1.33,.13,1.94,.13,.5,0,1.03-.02,1.59-.06,.08-.46,.16-.88,.19-1.17,.06-.51,.08-1.09,.05-1.44l1.94,.14c-.11,.4-.24,1.04-.3,1.36l-.19,.93c.96-.13,1.94-.32,2.85-.54v1.58Zm-.5,5.39c-.13,.5-.22,.99-.22,1.38,0,.72,.38,1.36,2.4,1.36,1.04,0,2.13-.13,3.17-.32l-.05,1.62c-.88,.13-1.94,.22-3.14,.22-2.58,0-3.91-.85-3.91-2.42,0-.66,.11-1.33,.24-1.99l1.5,.14Zm-.62-3.91c.85-.1,1.94-.16,2.96-.16,.91,0,1.87,.05,2.77,.14l-.05,1.52c-.8-.1-1.74-.19-2.69-.19-1.04,0-2.02,.05-2.99,.16v-1.47Z"/><path class="g" d="M334.77,85.52c-.02,.99,0,2.34,.11,3.57,.24,2.5,.88,4.16,1.94,4.16,.8,0,1.49-1.73,1.84-3.19l1.28,1.49c-1.01,2.72-1.99,3.67-3.15,3.67-1.6,0-3.07-1.54-3.51-5.71-.16-1.39-.18-3.28-.18-4.24,0-.4-.02-1.06-.11-1.49l1.94,.03c-.08,.46-.16,1.28-.16,1.71Zm11.11,6.59l-1.65,.64c-.26-2.72-1.17-6.13-2.77-8.02l1.58-.53c1.46,1.84,2.62,5.33,2.83,7.91Z"/></g><g><path class="g" d="M49.17,44.56c-.26,.54-.54,1.09-.83,1.6h7.54v7.97c0,.8-.16,1.25-.74,1.47-.56,.24-1.46,.24-2.79,.24-.05-.4-.27-1.04-.46-1.44,.94,.05,1.91,.05,2.18,.03,.27,0,.35-.08,.35-.32v-1.38h-6.26v3.12h-1.47v-7.33c-.7,.83-1.5,1.58-2.4,2.21-.22-.32-.67-.88-.98-1.15,1.81-1.22,3.2-3.06,4.21-5.03h-3.78v-1.39h4.39c.27-.67,.5-1.34,.67-2l1.52,.35c-.18,.54-.35,1.1-.56,1.65h7.96v1.39h-8.55Zm5.25,2.9h-6.26v1.39h6.26v-1.39Zm0,4.03v-1.39h-6.26v1.39h6.26Z"/><path class="g" d="M60.53,44.03h-1.15v-1.26h3.12v-1.58h1.41v1.58h3.06v1.26h-5.06v2.42c0,.48,.1,.62,.51,.62h2.45c.37,0,.94-.03,1.25-.08,.03,.27,.06,.69,.11,1.01,1.47-1.3,1.63-3.46,1.7-6.31h5.63v.58c-.16,4.13-.3,5.6-.69,6.11-.27,.32-.58,.45-1.01,.5-.35,.05-.98,.05-1.63,.02-.03-.34-.16-.85-.35-1.14,.58,.05,1.1,.05,1.33,.05s.35-.02,.48-.19c.1-.13,.18-.42,.24-.96h-3.3c-.35,1.06-.93,1.94-1.84,2.59-.16-.29-.48-.71-.78-.95-.3,.03-.7,.05-1.1,.05h-2.48c-1.5,0-1.89-.51-1.89-1.94v-2.38Zm13.22,10.26v1.25h-14.09v-1.25h6.28v-1.14h-4.56v-1.22h4.56v-1.12h-5.23v-1.23h12.13v1.23h-5.41v1.12h4.64v1.22h-4.64v1.14h6.32Zm-1.71-8.66c.02-.27,.03-.59,.06-.94h-3.03c-.05,.32-.1,.64-.16,.94h3.12Zm-2.8-2.85c-.02,.32-.03,.62-.05,.93h2.96l.03-.93h-2.95Z"/><path class="g" d="M83.86,45.12c-.78,.21-1.76,.42-2.82,.56-.77,2.23-2.14,4.99-3.44,6.74l-1.54-.78c1.3-1.55,2.62-3.99,3.31-5.78-.38,.02-.75,.03-1.14,.03-.61,0-1.27-.02-1.91-.06l-.11-1.47c.62,.06,1.38,.1,2.02,.1,.53,0,1.07-.02,1.63-.06,.24-.88,.43-1.86,.46-2.69l1.75,.16c-.13,.54-.34,1.42-.58,2.32,.8-.13,1.58-.32,2.31-.54l.05,1.49Zm1.95,1.65c-.05,.67-.03,1.22-.02,1.86,.02,.51,.06,1.42,.11,2.32,1.36,.5,2.48,1.3,3.28,2l-.85,1.36c-.62-.56-1.42-1.25-2.37-1.76v.43c0,1.34-.82,2.43-2.9,2.43-1.84,0-3.33-.78-3.33-2.43,0-1.49,1.34-2.55,3.31-2.55,.46,0,.9,.03,1.33,.11-.06-1.25-.14-2.74-.18-3.78h1.6Zm-1.38,5.15c-.45-.13-.94-.19-1.46-.19-1.06,0-1.75,.46-1.75,1.1s.54,1.14,1.63,1.14c1.18,0,1.58-.67,1.58-1.49,0-.16,0-.34-.02-.56Zm4.34-4.55c-.88-.72-2.62-1.73-3.7-2.21l.8-1.23c1.14,.5,3.01,1.55,3.79,2.13l-.9,1.31Z"/><path class="g" d="M99.32,41.11c1.7,2.51,4.4,4.82,6.93,6.02-.37,.38-.74,.88-.99,1.33-2.48-1.42-5.22-3.79-6.63-5.86-1.28,2-3.79,4.35-6.47,5.92-.19-.35-.62-.88-.94-1.2,2.75-1.5,5.38-4.08,6.58-6.21h1.52Zm.27,12.96h5.89v1.34h-13.51v-1.34h1.89v-5.75h1.46v5.75h2.71v-8.56h1.57v3.59h4.43v1.34h-4.43v3.63Z"/><path class="g" d="M116.71,52.15c1.41,.99,3.47,1.81,5.43,2.18-.34,.32-.77,.93-.99,1.33-2.08-.56-4.23-1.63-5.73-3.01v3.22h-1.46v-3.11c-1.52,1.28-3.68,2.32-5.68,2.88-.22-.38-.64-.94-.98-1.26,1.9-.4,3.98-1.23,5.39-2.23h-4.95v-1.25h6.21v-.98h-4.72v-1.12h4.72v-.96h-5.51v-1.18h3.28c-.14-.45-.42-1.02-.67-1.46l.38-.06h-3.63v-1.25h2.37c-.24-.62-.72-1.5-1.17-2.16l1.3-.43c.5,.69,1.06,1.67,1.28,2.29l-.82,.3h1.76v-2.74h1.39v2.74h1.58v-2.74h1.41v2.74h1.73l-.61-.19c.38-.64,.88-1.65,1.12-2.37l1.54,.38c-.43,.78-.91,1.58-1.33,2.18h2.3v1.25h-3.09c-.3,.54-.62,1.07-.9,1.52h3.39v1.18h-5.67v.96h4.91v1.12h-4.91v.98h6.31v1.25h-5.01Zm-4.11-7.01c.29,.46,.58,1.04,.69,1.42l-.46,.1h3.38c.24-.43,.5-1.01,.71-1.52h-4.31Z"/><path class="g" d="M127.2,42.5c-.11,.3-.27,.93-.34,1.22-.27,1.3-.78,4.27-.78,5.97,0,.56,.03,1.09,.11,1.67,.24-.64,.56-1.41,.8-1.99l.83,.64c-.43,1.2-.99,2.9-1.14,3.7-.05,.21-.1,.54-.08,.72,0,.16,.02,.4,.03,.59l-1.44,.1c-.32-1.1-.61-2.98-.61-5.12,0-2.37,.51-5.06,.69-6.32,.06-.4,.13-.9,.14-1.31l1.78,.14Zm3.65,7.75c-.13,.54-.19,.98-.19,1.41,0,.72,.53,1.28,2.45,1.28,1.42,0,2.62-.13,3.95-.42l.03,1.7c-.99,.19-2.3,.32-4.02,.32-2.69,0-3.94-.93-3.94-2.46,0-.62,.13-1.26,.27-1.95l1.44,.13Zm5.75-6.61v1.63c-1.81,.18-4.8,.19-6.64,0v-1.62c1.81,.27,4.99,.21,6.64-.02Z"/><path class="g" d="M57,74.22v6.61h-1.54v-.94h-9.46v.98h-1.5v-6.64h1.5v4.21h3.86v-5.17h-4.75v-5.59h1.49v4.15h3.27v-5.54h1.52v5.54h3.43v-4.16h1.57v5.6h-4.99v5.17h4.08v-4.21h1.54Z"/><path class="g" d="M64.1,70.59c-1.39,.46-2.88,.9-4.06,1.26l-.59-1.31c1.17-.24,2.87-.69,4.51-1.12l.14,1.17Zm1.47,8.34c-1.3,.78-3.3,1.55-4.9,1.98-.26-.29-.78-.85-1.12-1.1,1.65-.32,3.55-.88,4.66-1.5l1.36,.62Zm-2.03-10.13c-.75-.4-2.23-.98-3.34-1.31l.66-1.01c1.09,.27,2.58,.8,3.34,1.18l-.66,1.14Zm3.03-.43c-.38,.48-.83,.93-1.36,1.33-.27-.26-.77-.58-1.12-.72,1.18-.8,1.97-1.87,2.37-2.8l1.34,.21c-.14,.3-.3,.61-.5,.91h5.14l.22-.05,.99,.26c-.42,.83-1.01,1.76-1.55,2.32l-1.17-.37c.27-.29,.54-.69,.8-1.09h-2.21c.35,1.15,1.25,2.18,4.5,2.61-.27,.29-.62,.85-.75,1.22-.45-.08-.86-.18-1.23-.27v6.36h-10.44v-6.43h3.22c-.14-.32-.43-.75-.66-.98,2.58-.42,3.49-1.18,3.86-2.5h-1.46Zm3.99,4.42h-7.51v.9h7.51v-.9Zm0,1.79h-7.51v.91h7.51v-.91Zm0,1.83h-7.51v.93h7.51v-.93Zm1.23-4.56c-1.6-.5-2.43-1.25-2.93-2.1-.61,.98-1.66,1.65-3.57,2.1h6.5Zm-2.71,6.5c1.71,.58,3.63,1.31,4.79,1.86l-1.71,.71c-.94-.51-2.62-1.23-4.29-1.81l1.22-.75Z"/><path class="g" d="M82.87,77.37c.05-.54,.06-1.44,.06-2.23-1.34,.75-2.19,1.47-2.19,2.4,0,1.09,1.03,1.3,2.62,1.3,1.28,0,3.01-.16,4.4-.42l-.05,1.62c-1.15,.14-2.98,.27-4.4,.27-2.37,0-4.21-.54-4.21-2.51s1.91-3.18,3.73-4.11c-.19-.56-.71-.78-1.28-.78-.99,0-1.95,.51-2.62,1.14-.46,.45-.93,1.02-1.46,1.7l-1.36-1.02c1.86-1.76,2.93-3.3,3.58-4.63h-.46c-.66,0-1.76-.03-2.64-.1v-1.49c.83,.11,1.97,.18,2.72,.18h.93c.21-.72,.34-1.41,.37-1.91l1.65,.13c-.1,.42-.22,1.02-.45,1.71,1.57-.06,3.23-.21,4.69-.46v1.47c-1.55,.24-3.5,.37-5.22,.43-.32,.7-.74,1.44-1.2,2.07,.5-.29,1.39-.46,2.02-.46,.99,0,1.81,.46,2.11,1.34,.98-.46,1.79-.8,2.54-1.14,.53-.24,.99-.45,1.5-.7l.62,1.47c-.43,.13-1.12,.38-1.6,.58-.82,.3-1.84,.74-2.95,1.25,.02,.9,.05,2.16,.06,2.91h-1.54Z"/><path class="g" d="M96.39,67.08c-.1,.58-.14,1.25-.18,1.81-.06,1.76-.19,5.41-.19,7.62,0,1.66,1.06,2.24,2.42,2.24,2.79,0,4.43-1.57,5.57-3.26l1.14,1.39c-1.06,1.5-3.19,3.55-6.74,3.55-2.42,0-4.03-1.04-4.03-3.67,0-2.26,.16-6.34,.16-7.88,0-.66-.05-1.3-.16-1.83l2.02,.02Z"/><path class="g" d="M116.39,70.3c-.99,.22-2.1,.4-3.19,.53-.14,.69-.32,1.39-.5,2.06-.58,2.24-1.63,5.51-2.5,7.3l-1.76-.59c.96-1.62,2.1-4.88,2.69-7.11,.14-.48,.27-1.01,.38-1.52-.45,.02-.86,.03-1.26,.03-.74,0-1.31-.03-1.89-.06l-.03-1.57c.77,.1,1.33,.13,1.94,.13,.5,0,1.02-.02,1.58-.06,.08-.46,.16-.88,.19-1.17,.06-.51,.08-1.09,.05-1.44l1.94,.14c-.11,.4-.24,1.04-.3,1.36l-.19,.93c.96-.13,1.94-.32,2.85-.54v1.58Zm-.5,5.39c-.13,.5-.22,.99-.22,1.38,0,.72,.38,1.36,2.4,1.36,1.04,0,2.13-.13,3.17-.32l-.05,1.62c-.88,.13-1.94,.22-3.14,.22-2.58,0-3.91-.85-3.91-2.42,0-.66,.11-1.33,.24-1.99l1.5,.14Zm-.62-3.91c.85-.1,1.94-.16,2.96-.16,.91,0,1.87,.05,2.77,.14l-.05,1.52c-.8-.1-1.74-.19-2.69-.19-1.04,0-2.02,.05-2.99,.16v-1.47Z"/><path class="g" d="M126.42,70.06c-.02,.99,0,2.34,.11,3.57,.24,2.5,.88,4.16,1.94,4.16,.8,0,1.49-1.73,1.84-3.19l1.28,1.49c-1.01,2.72-1.98,3.67-3.15,3.67-1.6,0-3.07-1.54-3.5-5.71-.16-1.39-.18-3.28-.18-4.24,0-.4-.02-1.06-.11-1.49l1.94,.03c-.08,.46-.16,1.28-.16,1.71Zm11.11,6.59l-1.65,.64c-.26-2.72-1.17-6.13-2.77-8.02l1.58-.53c1.46,1.84,2.62,5.33,2.83,7.91Z"/></g><path class="f" d="M268.76,198.32c-10.25,0-18.56-8.31-18.56-18.56s8.31-18.56,18.56-18.56c10.25,0,18.56,8.31,18.56,18.56h0c0,10.25-8.31,18.56-18.56,18.56Zm74.96,15.36c.4-3.53-2.14-6.71-5.67-7.11-.11-.01-.21-.02-.32-.03l-49.25-3.17-8.2-.15c-.23,0-.45,.09-.6,.27l-9.6,12.02c-.53,.74-1.56,.91-2.3,.38-.15-.11-.28-.24-.38-.38l-9.6-12.02c-.15-.18-.37-.27-.6-.27l-8.16,.15-49.27,3.17c-3.54,.22-6.24,3.27-6.02,6.82,0,.11,.02,.21,.03,.32,.45,3.19,3.11,5.61,6.33,5.76l43.69,2.76c.41,.03,.73,.34,.77,.75l8.6,80.62,3.59,32.96c.35,3.07,2.95,5.39,6.05,5.39h11.9c3.09,0,5.7-2.32,6.05-5.39l3.59-32.96,8.6-80.62c.04-.4,.36-.72,.77-.75l43.65-2.8c3.22-.13,5.89-2.53,6.35-5.72Z"/><path class="e" d="M14.76,1.42H168.42c.09,0,.17,0,.26,.01,1.38,.14,13.2,1.57,13.2,10.99V108.42s1.03,10-11.28,10h-18.79c-1.51,0-2.74,1.19-2.74,2.67v26.4c0,2.44-3.09,3.6-4.77,1.79l-25.79-27.86c-.52-.56-1.26-.88-2.03-.88H15.79s-14.35-.11-14.35-18.11V12.42S.41,1.42,14.76,1.42Z"/><path class="e" d="M360.55,17.42H206.89c-.09,0-.17,0-.26,.01-1.38,.14-13.2,1.57-13.2,10.99V124.42s-1.03,10,11.28,10h18.79c1.51,0,2.74,1.19,2.74,2.67v26.4c0,2.44,3.09,3.6,4.77,1.79l25.79-27.86c.52-.56,1.26-.88,2.03-.88h100.69s14.35-.11,14.35-18.11V28.42s1.03-11-13.33-11Z"/><g><path class="d" d="M203.94,259.03h-11.54c-.51,0-.92,.41-.92,.92v6.7h-.04l-16.17-14.14c-.42-.36-.42-1.01,0-1.38l16.17-14.14h.04v6.7c0,.51,.41,.92,.92,.92h11.54c.51,0,.92,.41,.92,.92v12.61c0,.51-.41,.92-.92,.92Z"/><rect class="d" x="207.13" y="244.53" width="9.07" height="14.36"/><rect class="d" x="218.46" y="244.53" width="9.07" height="14.36"/><rect class="d" x="229.8" y="244.53" width="9.07" height="14.36"/></g><g><path class="d" d="M203.94,293.04h-11.54c-.51,0-.92,.41-.92,.92v6.7h-.04l-16.17-14.14c-.42-.36-.42-1.01,0-1.38l16.17-14.14h.04v6.7c0,.51,.41,.92,.92,.92h11.54c.51,0,.92,.41,.92,.92v12.61c0,.51-.41,.92-.92,.92Z"/><rect class="d" x="207.13" y="278.54" width="9.07" height="14.36"/><rect class="d" x="218.46" y="278.54" width="9.07" height="14.36"/><rect class="d" x="229.8" y="278.54" width="9.07" height="14.36"/></g><g><path class="d" d="M336.53,280.87h11.54c.51,0,.92-.41,.92-.92v-6.7h.04l16.17,14.14c.42,.36,.42,1.01,0,1.38l-16.17,14.14h-.04v-6.7c0-.51-.41-.92-.92-.92h-11.54c-.51,0-.92-.41-.92-.92v-12.61c0-.51,.41-.92,.92-.92Z"/><rect class="d" x="324.28" y="281" width="9.07" height="14.36" transform="translate(657.63 576.36) rotate(180)"/><rect class="d" x="312.94" y="281" width="9.07" height="14.36" transform="translate(634.96 576.36) rotate(180)"/><rect class="d" x="301.61" y="281" width="9.07" height="14.36" transform="translate(612.28 576.36) rotate(180)"/></g><g><path class="d" d="M336.53,246.85h11.54c.51,0,.92-.41,.92-.92v-6.7h.04l16.17,14.14c.42,.36,.42,1.01,0,1.38l-16.17,14.14h-.04v-6.7c0-.51-.41-.92-.92-.92h-11.54c-.51,0-.92-.41-.92-.92v-12.61c0-.51,.41-.92,.92-.92Z"/><rect class="d" x="324.28" y="246.99" width="9.07" height="14.36" transform="translate(657.63 508.34) rotate(180)"/><rect class="d" x="312.94" y="246.99" width="9.07" height="14.36" transform="translate(634.96 508.34) rotate(180)"/><rect class="d" x="301.61" y="246.99" width="9.07" height="14.36" transform="translate(612.28 508.34) rotate(180)"/></g></g></g></svg>