<?xml version="1.0" encoding="UTF-8"?><svg xmlns="http://www.w3.org/2000/svg" viewBox="0 0 390.28 323.85"><defs><style>.d{fill:#c7161d;}.e{fill:none;stroke:#c8161d;stroke-linecap:round;stroke-linejoin:round;stroke-width:2.83px;}.f{fill:#c8161d;}</style></defs><g id="a"/><g id="b"><g id="c"><path class="e" d="M375.52,1.42H221.86c-.09,0-.17,0-.26,.01-1.38,.14-13.2,1.57-13.2,10.99V108.42s-1.03,10,11.28,10h18.79c1.51,0,2.74,1.19,2.74,2.67v26.4c0,2.44,3.09,3.6,4.77,1.79l25.79-27.86c.52-.56,1.26-.88,2.03-.88h100.69s14.35-.11,14.35-18.11V12.42s1.03-11-13.33-11Z"/><path class="e" d="M14.76,1.42H168.42c.09,0,.17,0,.26,.01,1.38,.14,13.2,1.57,13.2,10.99V108.42s1.03,10-11.28,10h-18.79c-1.51,0-2.74,1.19-2.74,2.67v26.4c0,2.44-3.09,3.6-4.77,1.79l-25.79-27.86c-.52-.56-1.26-.88-2.03-.88H15.79s-14.35-.11-14.35-18.11V12.42S.41,1.42,14.76,1.42Z"/><g><path d="M48.59,44.66c-.27,.58-.58,1.16-.88,1.7h8.01v8.46c0,.85-.17,1.33-.78,1.56-.6,.25-1.55,.25-2.96,.25-.05-.42-.29-1.11-.49-1.53,1,.05,2.02,.05,2.31,.03,.29,0,.37-.08,.37-.34v-1.46h-6.65v3.31h-1.56v-7.79c-.75,.88-1.6,1.68-2.55,2.35-.24-.34-.71-.93-1.04-1.22,1.92-1.29,3.4-3.25,4.47-5.34h-4.01v-1.48h4.66c.29-.71,.53-1.43,.71-2.12l1.61,.37c-.19,.58-.37,1.17-.59,1.75h8.45v1.48h-9.08Zm5.58,3.08h-6.65v1.48h6.65v-1.48Zm0,4.28v-1.48h-6.65v1.48h6.65Z"/><path d="M60.23,44.1h-1.22v-1.34h3.31v-1.68h1.5v1.68h3.25v1.34h-5.37v2.57c0,.51,.1,.66,.54,.66h2.6c.39,0,1-.03,1.33-.08,.03,.29,.07,.73,.12,1.07,1.56-1.38,1.73-3.67,1.8-6.7h5.98v.61c-.17,4.39-.32,5.95-.73,6.49-.29,.34-.61,.48-1.07,.53-.37,.05-1.04,.05-1.73,.02-.03-.36-.17-.9-.37-1.21,.61,.05,1.17,.05,1.41,.05s.37-.02,.51-.2c.1-.14,.19-.44,.26-1.02h-3.5c-.37,1.12-.99,2.06-1.96,2.75-.17-.31-.51-.75-.83-1-.32,.03-.75,.05-1.17,.05h-2.63c-1.6,0-2.01-.54-2.01-2.06v-2.53Zm14.04,10.9v1.33h-14.96v-1.33h6.66v-1.21h-4.84v-1.29h4.84v-1.19h-5.56v-1.31h12.88v1.31h-5.75v1.19h4.93v1.29h-4.93v1.21h6.71Zm-1.82-9.2c.02-.29,.03-.63,.07-1h-3.21c-.05,.34-.1,.68-.17,1h3.31Zm-2.97-3.03c-.02,.34-.03,.66-.05,.99h3.14l.03-.99h-3.13Z"/><path d="M82.06,44.24c.87-.14,1.72-.32,2.5-.58l.05,1.56c-.85,.24-1.9,.46-3.04,.61-.83,2.4-2.31,5.35-3.69,7.22l-1.63-.83c1.39-1.67,2.8-4.28,3.57-6.2-.42,.02-.83,.03-1.24,.03-.65,0-1.36-.02-2.04-.05l-.12-1.58c.66,.07,1.48,.1,2.16,.1,.56,0,1.16-.02,1.75-.07,.25-.95,.46-2.01,.49-2.91l1.87,.19c-.14,.6-.37,1.55-.63,2.5Zm4.62,4.76c.02,.56,.07,1.55,.12,2.52,1.46,.53,2.65,1.38,3.52,2.14l-.9,1.45c-.66-.61-1.53-1.34-2.55-1.9v.48c0,1.44-.87,2.62-3.11,2.62-1.97,0-3.57-.85-3.57-2.62,0-1.6,1.45-2.72,3.55-2.72,.51,0,.99,.05,1.45,.12-.05-1.34-.14-2.94-.17-4.06h1.67c-.03,.71-.02,1.31,0,1.99Zm-3.14,5.75c1.29,0,1.72-.71,1.72-1.63,0-.15,0-.36-.02-.58-.49-.14-1.02-.22-1.58-.22-1.12,0-1.89,.51-1.89,1.21s.61,1.22,1.77,1.22Zm2.36-9.47l.87-1.31c1.22,.54,3.23,1.67,4.08,2.28l-.97,1.41c-.94-.78-2.82-1.85-3.98-2.38Z"/><path d="M100.59,40.99c1.8,2.67,4.67,5.12,7.36,6.39-.39,.41-.78,.94-1.05,1.41-2.63-1.51-5.54-4.03-7.04-6.22-1.36,2.12-4.03,4.62-6.87,6.29-.2-.37-.66-.94-1-1.28,2.92-1.6,5.71-4.33,6.99-6.59h1.62Zm.29,13.77h6.26v1.43h-14.35v-1.43h2.01v-6.1h1.55v6.1h2.87v-9.09h1.67v3.81h4.71v1.43h-4.71v3.86Z"/><path d="M118.64,52.72c1.5,1.05,3.69,1.92,5.76,2.31-.36,.34-.82,.99-1.05,1.41-2.21-.59-4.49-1.73-6.08-3.2v3.42h-1.55v-3.3c-1.62,1.36-3.91,2.46-6.03,3.06-.24-.41-.68-1-1.04-1.34,2.02-.42,4.23-1.31,5.73-2.36h-5.25v-1.33h6.6v-1.04h-5.01v-1.19h5.01v-1.02h-5.85v-1.26h3.49c-.15-.48-.44-1.09-.71-1.55l.41-.07h-3.86v-1.33h2.52c-.25-.66-.76-1.6-1.24-2.29l1.38-.46c.53,.73,1.12,1.77,1.36,2.43l-.87,.32h1.87v-2.91h1.48v2.91h1.68v-2.91h1.5v2.91h1.84l-.65-.2c.41-.68,.93-1.75,1.19-2.52l1.63,.41c-.46,.83-.97,1.68-1.41,2.31h2.45v1.33h-3.28c-.32,.58-.66,1.14-.95,1.62h3.6v1.26h-6.02v1.02h5.22v1.19h-5.22v1.04h6.7v1.33h-5.32Zm-4.37-7.45c.31,.49,.61,1.1,.73,1.51l-.49,.1h3.59c.25-.46,.53-1.07,.75-1.62h-4.57Z"/><path d="M128.96,43.73c-.29,1.39-.83,4.59-.83,6.41,0,.59,.03,1.19,.1,1.82,.29-.7,.63-1.53,.9-2.16l.85,.68c-.44,1.29-1.04,3.11-1.21,3.96-.05,.24-.1,.59-.08,.78,0,.17,.02,.42,.03,.63l-1.55,.1c-.34-1.19-.63-3.2-.63-5.49,0-2.53,.54-5.42,.73-6.78,.07-.42,.14-.95,.15-1.41l1.89,.17c-.12,.31-.29,.99-.36,1.29Zm4.06,8.52c0,.77,.59,1.39,2.65,1.39,1.53,0,2.8-.14,4.23-.46l.03,1.82c-1.07,.2-2.48,.34-4.3,.34-2.89,0-4.22-1-4.22-2.65,0-.61,.08-1.26,.29-2.09l1.53,.14c-.15,.6-.22,1.05-.22,1.51Zm6.39-8.58v1.73c-1.94,.19-5.15,.2-7.12,0l-.02-1.73c1.95,.31,5.37,.24,7.14,0Z"/><path d="M56.9,73.61v7.02h-1.63v-1h-10.05v1.04h-1.6v-7.05h1.6v4.47h4.1v-5.49h-5.05v-5.93h1.58v4.4h3.47v-5.88h1.61v5.88h3.64v-4.42h1.67v5.95h-5.3v5.49h4.33v-4.47h1.63Z"/><path d="M64.02,69.75c-1.48,.49-3.06,.95-4.32,1.34l-.63-1.39c1.24-.25,3.04-.73,4.79-1.19l.15,1.24Zm1.56,8.86c-1.38,.83-3.5,1.65-5.2,2.11-.27-.31-.83-.9-1.19-1.17,1.75-.34,3.77-.93,4.95-1.6l1.44,.66Zm-2.16-10.76c-.8-.42-2.36-1.04-3.55-1.39l.7-1.07c1.16,.29,2.74,.85,3.55,1.26l-.7,1.21Zm3.21-.46c-.41,.51-.88,.99-1.44,1.41-.29-.27-.82-.61-1.19-.77,1.26-.85,2.09-1.99,2.52-2.97l1.43,.22c-.15,.32-.32,.65-.53,.97h5.46l.24-.05,1.05,.27c-.44,.88-1.07,1.87-1.65,2.46l-1.24-.39c.29-.31,.58-.73,.85-1.16h-2.35c.37,1.22,1.33,2.31,4.78,2.77-.29,.31-.66,.9-.8,1.29-.48-.08-.92-.19-1.31-.29v6.75h-11.08v-6.83h3.42c-.15-.34-.46-.8-.7-1.04,2.74-.44,3.71-1.26,4.1-2.65h-1.55Zm4.23,4.69h-7.97v.95h7.97v-.95Zm0,1.9h-7.97v.97h7.97v-.97Zm0,1.94h-7.97v.99h7.97v-.99Zm1.31-4.84c-1.7-.53-2.58-1.33-3.11-2.23-.65,1.04-1.77,1.75-3.79,2.23h6.9Zm-2.87,6.9c1.82,.61,3.86,1.39,5.08,1.97l-1.82,.75c-1-.54-2.79-1.31-4.56-1.92l1.29-.8Z"/><path d="M82.43,67.62c1.67-.07,3.45-.22,5-.49v1.58c-1.67,.24-3.76,.39-5.59,.44-.37,.8-.83,1.6-1.31,2.24,.56-.32,1.51-.51,2.18-.51,1.07,0,1.96,.49,2.28,1.44,1.05-.49,1.92-.85,2.72-1.22,.58-.25,1.07-.48,1.61-.75l.7,1.56c-.49,.15-1.22,.42-1.73,.63-.87,.34-1.97,.78-3.16,1.33,.02,.97,.03,2.33,.05,3.14h-1.61c.03-.59,.05-1.56,.07-2.4-1.46,.8-2.38,1.58-2.38,2.58,0,1.16,1.11,1.39,2.82,1.39,1.38,0,3.23-.17,4.73-.44l-.05,1.72c-1.22,.15-3.2,.31-4.73,.31-2.53,0-4.5-.59-4.5-2.7s2.04-3.42,4.01-4.42c-.22-.6-.77-.85-1.39-.85-1.04,0-2.11,.54-2.82,1.22-.49,.48-.99,1.11-1.55,1.82l-1.46-1.09c1.99-1.87,3.14-3.52,3.84-4.96h-.49c-.71,0-1.89-.03-2.84-.1v-1.6c.9,.14,2.11,.19,2.92,.19,.32,0,.66,0,1-.02,.22-.7,.36-1.41,.39-2.02l1.77,.14c-.1,.48-.24,1.1-.46,1.84Z"/><path d="M97.27,67.93c-.08,1.89-.2,5.81-.2,8.16,0,1.8,1.11,2.41,2.58,2.41,2.97,0,4.76-1.68,5.98-3.5l1.21,1.48c-1.12,1.62-3.42,3.81-7.22,3.81-2.58,0-4.32-1.1-4.32-3.93,0-2.41,.17-6.8,.17-8.43,0-.71-.07-1.41-.19-1.97l2.18,.02c-.1,.63-.17,1.34-.19,1.96Z"/><path d="M115.45,67.32c-.05,.29-.12,.63-.2,1,1.04-.15,2.09-.34,3.08-.59v1.68c-1.07,.25-2.26,.44-3.42,.58-.17,.73-.36,1.51-.54,2.23-.61,2.4-1.77,5.9-2.69,7.82l-1.85-.63c1-1.73,2.24-5.24,2.89-7.62,.14-.53,.27-1.09,.41-1.65-.49,.02-.95,.03-1.38,.03-.78,0-1.41-.02-2.02-.07l-.03-1.67c.83,.1,1.43,.14,2.07,.14,.53,0,1.11-.02,1.7-.07,.08-.51,.17-.95,.2-1.28,.08-.53,.1-1.16,.07-1.53l2.04,.15c-.1,.42-.25,1.12-.32,1.46Zm2.04,9.38c0,.77,.46,1.46,2.63,1.46,1.12,0,2.28-.14,3.4-.34l-.05,1.72c-.93,.12-2.07,.24-3.37,.24-2.77,0-4.27-.9-4.27-2.58,0-.71,.14-1.43,.29-2.12l1.58,.15c-.14,.53-.22,1.05-.22,1.48Zm2.8-5.83c.99,0,2.01,.03,2.97,.14l-.05,1.63c-.87-.12-1.87-.22-2.89-.22-1.1,0-2.14,.07-3.21,.19v-1.58c.92-.08,2.09-.15,3.18-.15Z"/><path d="M128.49,69.17c-.02,1.07,0,2.5,.12,3.83,.25,2.67,.95,4.47,2.09,4.47,.85,0,1.6-1.85,1.99-3.4l1.34,1.58c-1.07,2.91-2.12,3.91-3.37,3.91-1.72,0-3.3-1.63-3.76-6.1-.17-1.5-.19-3.54-.19-4.56,0-.42-.03-1.14-.14-1.6l2.07,.03c-.08,.49-.17,1.38-.17,1.83Zm11.92,7.21l-1.75,.68c-.29-2.92-1.26-6.7-2.97-8.74l1.68-.56c1.56,1.97,2.82,5.86,3.04,8.62Z"/></g><g><path d="M239.36,54.76c0,.9-.2,1.38-.76,1.63-.56,.25-1.44,.31-2.87,.29-.07-.43-.32-1.14-.54-1.55,.97,.05,1.96,.03,2.24,.03,.29-.02,.39-.12,.39-.41v-11.37h-10.96v13.31h-1.53v-14.81h14.04v12.87Zm-2.77-8.5h-8.5v-1.34h8.5v1.34Zm-6.2,7.04v1.19h-1.46v-6.66h6.82v5.47h-5.35Zm0-4.15v2.82h3.89v-2.82h-3.89Z"/><path d="M251.03,52.72c1.5,1.05,3.69,1.92,5.76,2.31-.36,.34-.82,.99-1.05,1.41-2.21-.59-4.49-1.73-6.08-3.2v3.42h-1.55v-3.3c-1.62,1.36-3.91,2.46-6.03,3.06-.24-.41-.68-1-1.04-1.34,2.02-.42,4.23-1.31,5.73-2.36h-5.25v-1.33h6.6v-1.04h-5.01v-1.19h5.01v-1.02h-5.85v-1.26h3.49c-.15-.48-.44-1.09-.71-1.55l.41-.07h-3.86v-1.33h2.52c-.25-.66-.76-1.6-1.24-2.29l1.38-.46c.53,.73,1.12,1.77,1.36,2.43l-.87,.32h1.87v-2.91h1.48v2.91h1.68v-2.91h1.5v2.91h1.84l-.65-.2c.41-.68,.93-1.75,1.19-2.52l1.63,.41c-.46,.83-.97,1.68-1.41,2.31h2.45v1.33h-3.28c-.32,.58-.66,1.14-.95,1.62h3.6v1.26h-6.02v1.02h5.22v1.19h-5.22v1.04h6.7v1.33h-5.32Zm-4.37-7.45c.31,.49,.61,1.1,.73,1.51l-.49,.1h3.59c.25-.46,.53-1.07,.75-1.62h-4.57Z"/><path d="M266.77,47.74c-.76,.58-1.56,1.09-2.38,1.6h6.6v7.26h-1.63v-.46h-6.41v.53h-1.56v-5.71c-.95,.44-1.92,.85-2.89,1.22-.19-.36-.68-.99-.97-1.31,2.35-.78,4.61-1.84,6.65-3.13h-6.22v-1.41h5.63v-1.9h-4.15v-1.38h4.15v-1.99h1.56v1.99h3.96v.75c.68-.7,1.31-1.43,1.85-2.19l1.36,.71c-1.07,1.46-2.35,2.79-3.76,4.01h4.45v1.41h-6.24Zm2.58,2.91h-6.41v1.41h6.41v-1.41Zm0,4.15v-1.5h-6.41v1.5h6.41Zm-3.11-8.46c.8-.59,1.53-1.24,2.23-1.9h-3.33v1.9h1.1Z"/><path d="M281.12,43.62c1.67-.07,3.45-.22,5-.49v1.58c-1.67,.24-3.76,.39-5.59,.44-.37,.8-.83,1.6-1.31,2.24,.56-.32,1.51-.51,2.18-.51,1.07,0,1.96,.49,2.28,1.44,1.05-.49,1.92-.85,2.72-1.22,.58-.25,1.07-.48,1.61-.75l.7,1.56c-.49,.15-1.22,.42-1.73,.63-.87,.34-1.97,.78-3.16,1.33,.02,.97,.03,2.33,.05,3.14h-1.61c.03-.59,.05-1.56,.07-2.4-1.46,.8-2.38,1.58-2.38,2.58,0,1.16,1.11,1.39,2.82,1.39,1.38,0,3.23-.17,4.73-.44l-.05,1.72c-1.22,.15-3.2,.31-4.72,.31-2.53,0-4.5-.59-4.5-2.7s2.04-3.42,4.01-4.42c-.22-.6-.76-.85-1.39-.85-1.04,0-2.11,.54-2.82,1.22-.49,.48-.99,1.11-1.55,1.82l-1.46-1.09c1.99-1.87,3.14-3.52,3.84-4.96h-.49c-.71,0-1.89-.03-2.84-.1v-1.6c.9,.14,2.11,.19,2.92,.19,.32,0,.66,0,1-.02,.22-.7,.36-1.41,.39-2.02l1.77,.14c-.1,.48-.24,1.1-.46,1.84Z"/><path d="M296.31,45.12h-5.51v-1.26h5.51v1.26Zm-.46,10.57h-3.13v.75h-1.26v-5.71h4.39v4.96Zm-4.35-9.52h4.37v1.22h-4.37v-1.22Zm0,2.26h4.37v1.24h-4.37v-1.24Zm4.33-5.58h-4.23v-1.24h4.23v1.24Zm-3.11,9.15v2.45h1.85v-2.45h-1.85Zm13.43,.82c-.58,.42-1.31,.83-1.97,1.17,.7,.66,1.53,1.19,2.5,1.51-.31,.24-.71,.78-.92,1.14-2.18-.83-3.66-2.58-4.45-4.91h-.14c-.37,.37-.8,.75-1.27,1.07v2.06c.83-.14,1.72-.27,2.6-.42l.1,1.16c-1.84,.34-3.76,.7-5.24,.93l-.39-1.22c.46-.07,1-.15,1.58-.24v-1.46c-.58,.31-1.16,.56-1.73,.78-.19-.27-.59-.8-.85-1.05,1.21-.37,2.48-.92,3.43-1.6h-3.04v-1.1h2.53v-.8h-1.6v-1.04h1.6v-.78h-1.97v-1.07h1.97v-1.17h1.41v1.17h2.11v-1.17h1.44v1.17h2.16v1.07h-2.16v.78h1.84v1.04h-1.84v.8h2.58v1.1h-3.79c.22,.51,.51,.99,.83,1.43,.63-.36,1.34-.83,1.8-1.17l.87,.83Zm-5.52-8.62c-.8,.94-2.19,1.8-3.42,2.33-.22-.25-.73-.76-1.04-.99,1.19-.42,2.43-1.05,3.11-1.75l1.34,.41Zm5.59-.49h-9.57v-1.19h3.88v-1.48h1.6v1.48h4.1v1.19Zm-5.92,5.08h2.11v-.78h-2.11v.78Zm0,1.84h2.11v-.8h-2.11v.8Zm2.86-6.9c1.14,.49,2.53,1.29,3.3,1.89l-1.05,.82c-.73-.63-2.14-1.48-3.28-1.97l1.04-.73Z"/><path d="M311.89,46c.75-1.55,2.38-3.37,4.44-3.37,2.31,0,4.03,2.28,4.03,5.93,0,4.74-2.96,6.92-7.29,7.72l-1.02-1.55c3.72-.58,6.51-1.96,6.51-6.17,0-2.65-.9-4.39-2.52-4.39-2.07,0-3.96,3.06-4.11,5.3-.05,.56-.05,1.14,.07,1.95l-1.67,.12c-.08-.65-.19-1.63-.19-2.75,0-1.6,.27-3.93,.49-5.47,.08-.58,.12-1.14,.14-1.62l1.85,.08c-.29,1.07-.63,3.13-.73,4.2Z"/><path d="M337.01,49.52c-.82,1.73-2.09,3.08-3.62,4.13,1.73,.7,3.74,1.17,5.98,1.41-.34,.36-.75,1.04-.97,1.5-2.52-.36-4.74-1-6.63-1.97-1.99,.99-4.3,1.6-6.71,1.99-.15-.41-.58-1.09-.92-1.43,2.24-.27,4.32-.75,6.1-1.5-1.24-.85-2.28-1.9-3.09-3.13l.31-.14h-.73v-1.46h8.92l.29-.05,1.07,.65Zm-11.01-.1h-1.48v-3.52h2.57c-.2-.59-.59-1.41-.97-2.02l1.38-.39c.46,.65,.9,1.55,1.09,2.12l-.92,.29h3.67c-.08-.63-.41-1.63-.77-2.4l1.41-.31c.37,.75,.75,1.72,.85,2.35l-1.43,.36h3.38c.49-.8,1.04-1.9,1.36-2.74l1.65,.44c-.44,.76-.93,1.62-1.41,2.29h2.67v3.52h-1.55v-2.12h-11.51v2.12Zm12.26-7.16c-3.57,.71-8.81,1.12-13.22,1.27-.02-.39-.19-1-.34-1.34,4.37-.17,9.5-.59,12.46-1.22l1.1,1.29Zm-9.42,8.12c.75,.99,1.75,1.82,2.97,2.5,1.16-.66,2.11-1.48,2.82-2.5h-5.8Z"/><path d="M344.03,43.44c-.48,2.23-1.07,5.88-.51,8.36,.22-.63,.58-1.58,.87-2.33l.88,.56c-.46,1.29-.94,3.03-1.14,3.91-.05,.25-.08,.61-.08,.8,0,.17,.03,.42,.05,.63l-1.48,.17c-.36-1.04-.93-3.33-.93-5.44,0-2.79,.41-5.39,.61-6.8,.07-.42,.08-.92,.08-1.28l1.99,.19c-.12,.36-.25,.9-.34,1.22Zm8.8-.41c-.02,.37,0,1.38,.02,2.4,.99-.08,1.92-.2,2.69-.36l-.02,1.73c-.73,.1-1.67,.2-2.65,.26v.66c0,3.94-.14,6.58-3.64,8.72l-1.56-1.22c.59-.24,1.36-.71,1.8-1.19,1.58-1.48,1.77-3.23,1.77-6.32v-.56c-.7,.02-1.39,.03-2.06,.03-.78,0-1.9-.05-2.69-.08v-1.72c.76,.12,1.75,.19,2.67,.19,.65,0,1.34-.02,2.04-.03-.02-1.04-.05-2.06-.08-2.5-.03-.39-.12-.82-.17-1.07h1.97c-.05,.31-.07,.68-.08,1.07Z"/><path d="M359.35,43.76c1.24-.12,4.27-.41,7.39-.66,1.82-.15,3.52-.25,4.69-.31v1.72c-.94,0-2.41,.02-3.3,.25-2.26,.68-3.77,3.09-3.77,5.12,0,3.09,2.89,4.13,5.71,4.25l-.63,1.8c-3.33-.15-6.82-1.94-6.82-5.69,0-2.55,1.51-4.62,2.89-5.52-1.72,.19-5.68,.59-7.56,1l-.19-1.87c.66-.02,1.26-.05,1.58-.08Z"/><path d="M248.33,75.9h-1.77v2.97h-1.6v-.73h-3.62v.88c0,.87-.22,1.22-.8,1.45-.58,.2-1.46,.22-2.89,.22-.08-.36-.32-.93-.54-1.28,.94,.03,1.96,.03,2.23,.02,.31-.02,.41-.1,.41-.39v-.9h-5.3v-1.19h5.3v-1.05h-6.8v-1.24h6.8v-.97h-5.15v-1.12h5.15v-1h-4.71v-3.13h4.71v-.87h-6.44v-1.27h6.44v-1.24h1.6v1.24h6.63v1.27h-6.63v.87h4.95v3.13h-4.95v1h5.22v2.09h1.77v1.24Zm-8.58-5.39v-1.02h-3.2v1.02h3.2Zm1.6-1.02v1.02h3.35v-1.02h-3.35Zm0,5.17h3.62v-.97h-3.62v.97Zm3.62,1.24h-3.62v1.05h3.62v-1.05Z"/><path d="M259.31,76.72c1.5,1.05,3.69,1.92,5.76,2.31-.36,.34-.82,.99-1.05,1.41-2.21-.59-4.49-1.73-6.08-3.2v3.42h-1.55v-3.3c-1.62,1.36-3.91,2.46-6.03,3.06-.24-.41-.68-1-1.04-1.34,2.02-.42,4.23-1.31,5.73-2.36h-5.25v-1.33h6.6v-1.04h-5.01v-1.19h5.01v-1.02h-5.85v-1.26h3.49c-.15-.48-.44-1.09-.71-1.55l.41-.07h-3.86v-1.33h2.52c-.25-.66-.76-1.6-1.24-2.29l1.38-.46c.53,.73,1.12,1.77,1.36,2.43l-.87,.32h1.87v-2.91h1.48v2.91h1.68v-2.91h1.5v2.91h1.84l-.65-.2c.41-.68,.93-1.75,1.19-2.52l1.63,.41c-.46,.83-.97,1.68-1.41,2.31h2.45v1.33h-3.28c-.32,.58-.66,1.14-.95,1.62h3.6v1.26h-6.02v1.02h5.22v1.19h-5.22v1.04h6.7v1.33h-5.32Zm-4.37-7.45c.31,.49,.61,1.1,.73,1.51l-.49,.1h3.59c.25-.46,.53-1.07,.75-1.62h-4.57Z"/><path d="M271.4,73.81c-.54,.17-1.11,.34-1.65,.51v4.49c0,.83-.17,1.27-.65,1.53-.49,.25-1.22,.31-2.35,.31-.05-.41-.25-1.09-.46-1.53,.71,.02,1.41,.02,1.63,.02s.31-.09,.31-.32v-4.03l-2.12,.61-.34-1.55c.68-.15,1.53-.37,2.46-.63v-3.4h-2.16v-1.46h2.16v-3.28h1.51v3.28h1.48v1.46h-1.48v2.99l1.46-.41,.19,1.41Zm1.95-2.07c0,2.6-.31,6.39-2.09,8.89-.29-.25-.93-.71-1.27-.88,1.68-2.33,1.85-5.64,1.85-8.02v-3.84h4.01v-2.77h1.56v2.77h3.91v1.43h-7.97v2.43Zm6.9,8.87c-.08-.48-.24-1.04-.42-1.65-2.41,.27-4.91,.54-6.73,.71l-.27-1.48,1.38-.1c.63-2.21,1.31-5.42,1.63-7.8l1.67,.25c-.48,2.43-1.16,5.3-1.79,7.41,1.16-.08,2.41-.2,3.65-.32-.42-1.14-.95-2.31-1.5-3.31l1.34-.46c1.1,2.01,2.18,4.57,2.5,6.22l-1.46,.53Z"/><path d="M291.6,71.4c1.16,3.54,3.3,6.41,6.51,7.75-.39,.34-.92,1-1.17,1.48-3.18-1.48-5.24-4.23-6.56-7.84-.87,3.08-2.7,6.02-6.56,7.84-.25-.42-.76-.99-1.21-1.33,4.05-1.77,5.69-4.83,6.38-7.9h-6.04v-1.63h6.32c.2-1.7,.19-3.33,.2-4.69h1.72c-.02,1.38-.03,3.01-.24,4.69h6.85v1.63h-6.2Z"/><path d="M305.98,67.62c1.67-.07,3.45-.22,5-.49v1.58c-1.67,.24-3.76,.39-5.59,.44-.37,.8-.83,1.6-1.31,2.24,.56-.32,1.51-.51,2.18-.51,1.07,0,1.96,.49,2.28,1.44,1.05-.49,1.92-.85,2.72-1.22,.58-.25,1.07-.48,1.61-.75l.7,1.56c-.49,.15-1.22,.42-1.73,.63-.87,.34-1.97,.78-3.16,1.33,.02,.97,.03,2.33,.05,3.14h-1.61c.03-.59,.05-1.56,.07-2.4-1.46,.8-2.38,1.58-2.38,2.58,0,1.16,1.11,1.39,2.82,1.39,1.38,0,3.23-.17,4.73-.44l-.05,1.72c-1.22,.15-3.2,.31-4.73,.31-2.53,0-4.5-.59-4.5-2.7s2.04-3.42,4.01-4.42c-.22-.6-.77-.85-1.39-.85-1.04,0-2.11,.54-2.82,1.22-.49,.48-.99,1.11-1.55,1.82l-1.46-1.09c1.99-1.87,3.14-3.52,3.84-4.96h-.49c-.71,0-1.89-.03-2.84-.1v-1.6c.9,.14,2.11,.19,2.92,.19,.32,0,.66,0,1-.02,.22-.7,.36-1.41,.39-2.02l1.77,.14c-.1,.48-.24,1.1-.46,1.84Z"/><path d="M320.82,67.93c-.08,1.89-.2,5.81-.2,8.16,0,1.8,1.11,2.41,2.58,2.41,2.97,0,4.76-1.68,5.98-3.5l1.21,1.48c-1.12,1.62-3.42,3.81-7.22,3.81-2.58,0-4.32-1.1-4.32-3.93,0-2.41,.17-6.8,.17-8.43,0-.71-.07-1.41-.19-1.97l2.18,.02c-.1,.63-.17,1.34-.19,1.96Z"/><path d="M338.99,67.32c-.05,.29-.12,.63-.2,1,1.04-.15,2.09-.34,3.08-.59v1.68c-1.07,.25-2.26,.44-3.42,.58-.17,.73-.36,1.51-.54,2.23-.61,2.4-1.77,5.9-2.69,7.82l-1.85-.63c1-1.73,2.24-5.24,2.89-7.62,.14-.53,.27-1.09,.41-1.65-.49,.02-.95,.03-1.38,.03-.78,0-1.41-.02-2.02-.07l-.03-1.67c.83,.1,1.43,.14,2.07,.14,.53,0,1.11-.02,1.7-.07,.08-.51,.17-.95,.2-1.28,.08-.53,.1-1.16,.07-1.53l2.04,.15c-.1,.42-.25,1.12-.32,1.46Zm2.04,9.38c0,.77,.46,1.46,2.63,1.46,1.12,0,2.28-.14,3.4-.34l-.05,1.72c-.93,.12-2.07,.24-3.37,.24-2.77,0-4.27-.9-4.27-2.58,0-.71,.14-1.43,.29-2.12l1.58,.15c-.14,.53-.22,1.05-.22,1.48Zm2.8-5.83c.99,0,2.01,.03,2.97,.14l-.05,1.63c-.87-.12-1.87-.22-2.89-.22-1.1,0-2.14,.07-3.21,.19v-1.58c.92-.08,2.09-.15,3.18-.15Z"/><path d="M352.03,69.17c-.02,1.07,0,2.5,.12,3.83,.25,2.67,.95,4.47,2.09,4.47,.85,0,1.6-1.85,1.99-3.4l1.34,1.58c-1.07,2.91-2.12,3.91-3.37,3.91-1.72,0-3.3-1.63-3.76-6.1-.17-1.5-.19-3.54-.19-4.56,0-.42-.03-1.14-.14-1.6l2.07,.03c-.08,.49-.17,1.38-.17,1.83Zm11.92,7.21l-1.75,.68c-.29-2.92-1.26-6.7-2.97-8.74l1.68-.56c1.56,1.97,2.82,5.86,3.04,8.62Z"/></g><g><path class="f" d="M193.18,180.26c-10.25,0-18.56-8.31-18.56-18.56s8.31-18.56,18.56-18.56c10.25,0,18.56,8.31,18.56,18.56h0c0,10.25-8.31,18.56-18.56,18.56Zm74.96,15.36c.4-3.53-2.14-6.71-5.67-7.11-.11-.01-.21-.02-.32-.03l-49.25-3.17-8.2-.15c-.23,0-.45,.09-.6,.27l-9.6,12.02c-.53,.74-1.56,.91-2.3,.38-.15-.11-.28-.24-.38-.38l-9.6-12.02c-.15-.18-.37-.27-.6-.27l-8.16,.15-49.27,3.17c-3.54,.22-6.24,3.27-6.02,6.82,0,.11,.02,.21,.03,.32,.45,3.19,3.11,5.61,6.33,5.76l43.69,2.76c.41,.03,.73,.34,.77,.75l8.6,80.62,3.59,32.96c.35,3.07,2.95,5.39,6.05,5.39h11.9c3.09,0,5.7-2.32,6.05-5.39l3.59-32.96,8.6-80.62c.04-.4,.36-.72,.77-.75l43.65-2.8c3.22-.13,5.89-2.53,6.35-5.72Z"/><g><path class="d" d="M128.36,240.96h-11.54c-.51,0-.92,.41-.92,.92v6.7h-.04l-16.17-14.14c-.42-.36-.42-1.01,0-1.38l16.17-14.14h.04v6.7c0,.51,.41,.92,.92,.92h11.54c.51,0,.92,.41,.92,.92v12.61c0,.51-.41,.92-.92,.92Z"/><rect class="d" x="131.54" y="226.47" width="9.07" height="14.36"/><rect class="d" x="142.88" y="226.47" width="9.07" height="14.36"/><rect class="d" x="154.22" y="226.47" width="9.07" height="14.36"/></g><g><path class="d" d="M128.36,274.98h-11.54c-.51,0-.92,.41-.92,.92v6.7h-.04l-16.17-14.14c-.42-.36-.42-1.01,0-1.38l16.17-14.14h.04v6.7c0,.51,.41,.92,.92,.92h11.54c.51,0,.92,.41,.92,.92v12.61c0,.51-.41,.92-.92,.92Z"/><rect class="d" x="131.54" y="260.48" width="9.07" height="14.36"/><rect class="d" x="142.88" y="260.48" width="9.07" height="14.36"/><rect class="d" x="154.22" y="260.48" width="9.07" height="14.36"/></g><g><path class="d" d="M260.95,262.8h11.54c.51,0,.92-.41,.92-.92v-6.7h.04l16.17,14.14c.42,.36,.42,1.01,0,1.38l-16.17,14.14h-.04v-6.7c0-.51-.41-.92-.92-.92h-11.54c-.51,0-.92-.41-.92-.92v-12.61c0-.51,.41-.92,.92-.92Z"/><rect class="d" x="248.7" y="262.94" width="9.07" height="14.36" transform="translate(506.47 540.24) rotate(180)"/><rect class="d" x="237.36" y="262.94" width="9.07" height="14.36" transform="translate(483.8 540.24) rotate(180)"/><rect class="d" x="226.03" y="262.94" width="9.07" height="14.36" transform="translate(461.12 540.24) rotate(180)"/></g><g><path class="d" d="M260.95,228.79h11.54c.51,0,.92-.41,.92-.92v-6.7h.04l16.17,14.14c.42,.36,.42,1.01,0,1.38l-16.17,14.14h-.04v-6.7c0-.51-.41-.92-.92-.92h-11.54c-.51,0-.92-.41-.92-.92v-12.61c0-.51,.41-.92,.92-.92Z"/><rect class="d" x="248.7" y="228.93" width="9.07" height="14.36" transform="translate(506.47 472.21) rotate(180)"/><rect class="d" x="237.36" y="228.93" width="9.07" height="14.36" transform="translate(483.8 472.21) rotate(180)"/><rect class="d" x="226.03" y="228.93" width="9.07" height="14.36" transform="translate(461.12 472.21) rotate(180)"/></g></g></g></g></svg>