<?xml version="1.0" encoding="UTF-8"?><svg xmlns="http://www.w3.org/2000/svg" viewBox="0 0 392.26 313.65"><defs><style>.d{fill:#c7161d;}.e{stroke-width:2.98px;}.e,.f{fill:none;stroke:#c8161d;stroke-linecap:round;stroke-linejoin:round;}.f{stroke-width:2.83px;}</style></defs><g id="a"/><g id="b"><g id="c"><path class="d" d="M270.49,160.92c-13.88,0-25.17,11.29-25.17,25.17s11.29,25.17,25.17,25.17,25.29-11.2,25.29-25.17-11.32-25.17-25.29-25.17Zm.03,56.28l.04,.03c-22.04,0-34.18,3.53-34.18,3.53-11.97,3.52-20.61,10.58-24.42,19.66-4.68,11.14-1.89,23.64,5.58,32.57,4.62,5.52,11.15,9.76,18.84,11.91,4.76,1.33,9.95,1.88,15.44,1.41,4.53-.39,9.23-1.48,14.03-3.25-7.68-3.93-15.48-9.58-23.29-16.99-2.39-.53-4.46-1.39-6.18-2.52-1.44-.96-2.68-2.05-3.69-3.25-3.32-3.97-4.06-8.56-2.52-12.24,.89-2.11,2.68-4.41,6.21-6.32v9.23c.65-2.48,1.98-4.69,3.73-6.45,2.36-2.37,5.55-4.01,9.1-4.2,3.57-.21,7.36,1.22,10.36,4.31,3.89,3.86,7.55,6.89,11.01,9.37,3.43-2.46,7.08-5.53,10.93-9.35,3.01-3.12,6.81-4.53,10.4-4.34,3.55,.21,6.73,1.84,9.09,4.2,1.75,1.76,3.08,3.97,3.73,6.45v-9.23c3.53,1.9,5.32,4.21,6.21,6.32,1.54,3.68,.81,8.27-2.51,12.24-1.01,1.2-2.25,2.29-3.69,3.25-1.75,1.16-3.84,2.07-6.28,2.62-.69,.14-1.43,.24-2.17,.31-.93,.1-1.91,.14-2.94,.14h-2.36c-5.53-.47-12.47-2.76-20.44-8.04-1.09-.72-2.19-1.47-3.32-2.31-3.29-2.45-6.73-5.39-10.32-8.95l-.04-.03c-2.31-2.38-4.99-3.29-7.45-3.16-2.51,.14-4.85,1.3-6.62,3.08-1.77,1.78-2.94,4.14-3.06,6.65-.1,2.47,.82,5.16,3.22,7.46,.51,.5,1.01,.92,1.52,1.41,1.39,1.34,2.79,2.68,4.17,3.9,7.43,6.52,14.76,11.25,21.88,14.48,1.59,.72,3.16,1.36,4.72,1.93,4.79,1.74,9.48,2.86,14.01,3.24,5.48,.47,10.68-.07,15.44-1.4,7.7-2.16,14.22-6.4,18.84-11.92,7.47-8.93,10.26-21.43,5.58-32.57-3.82-9.08-12.46-16.14-24.43-19.66,0,0-12.13-3.53-34.17-3.53h0Zm20.72,26.88c-2.35,0-4.85,.95-7.02,3.2-3.59,3.57-7.03,6.5-10.33,8.94,6.99,4.41,12.92,6.22,17.45,6.61,2,.17,3.73,.1,5.29-.14,.51-.48,1.01-.91,1.52-1.41,2.41-2.3,3.35-4.99,3.23-7.46-.14-2.51-1.29-4.86-3.06-6.64-1.77-1.78-4.11-2.96-6.62-3.09h0c-.15,0-.31-.02-.47-.02h0Zm-20.73,41.18c-6.25,2.67-12.4,4.29-18.37,4.8-5.55,.47-10.84,0-15.75-1.29v24.88h68.35v-24.88c-4.92,1.25-10.21,1.76-15.76,1.29-6-.52-12.19-2.11-18.47-4.8Z"/><path class="f" d="M14.75,1.42H168.33c.09,0,.17,0,.26,.01,1.38,.14,13.19,1.57,13.19,10.99V108.42s1.02,10-11.27,10h-18.78c-1.51,0-2.73,1.19-2.73,2.67l32.09,26.7c.25,.21,.06,.61-.27,.55-7.44-1.38-62.72-26.4-64.28-28.09l1.91,1.16c-.52-.56-1.26-.88-2.03-.88H15.78s-14.35-.11-14.35-18.11V12.42S.41,1.42,14.75,1.42Z"/><path class="e" d="M1.8,284.6v-107.28c0-.06,0-.12,.02-.18,.21-.97,2.38-9.21,16.59-9.21H163.39s15.1-.72,15.1,7.87v13.12c0,1.05,1.8,1.91,4.03,1.91l24.78-.59c3.69,0,12.74-.17,10,1l-34.29,20.92c-.85,.36-1.33,.88-1.33,1.42v70.3s-.17,10.02-27.35,10.02H18.41s-16.61,.72-16.61-9.3Z"/><path class="f" d="M377.5,1.42H223.84c-.09,0-.17,0-.26,.01-1.38,.14-13.2,1.57-13.2,10.99V108.42s-1.03,10,11.28,10h18.79c1.51,0,2.74,1.19,2.74,2.67v26.4c0,2.44,3.09,3.6,4.77,1.79l25.79-27.86c.52-.56,1.26-.88,2.03-.88h100.69s14.35-.11,14.35-18.11V12.42s1.03-11-13.33-11Z"/><g><path d="M25.2,214.67c-1.22,2.01-3.4,4.76-6,6.8,1,1,2.11,2.19,2.79,3.01l-1.56,1.26c-.68-.92-2.06-2.45-3.15-3.57-1.02-1-2.87-2.63-3.82-3.3l1.39-1.14c.65,.48,1.92,1.51,3.06,2.52,2.24-1.72,4.03-4,4.86-5.46H13.21c-.68,0-1.48,.07-1.84,.1v-1.9c.46,.07,1.26,.14,1.84,.14h9.83c.54,0,1.02-.05,1.31-.15l1.34,1.1c-.19,.22-.37,.42-.49,.59Z"/><path d="M35.01,215.35c1.77-1.09,3.57-2.67,4.73-4.05l1.43,1.36c-1.29,1.31-2.89,2.62-4.57,3.72v7.05c0,.7,.03,1.63,.12,2.01h-2.11c.05-.37,.1-1.31,.1-2.01v-5.92c-1.79,.97-4.03,1.95-6.27,2.63l-.83-1.68c2.97-.8,5.52-1.95,7.41-3.13Z"/><path d="M56.12,214.16c-.68,1.9-1.75,4.42-3.16,6.21-1.5,1.9-3.89,3.86-6.43,4.9l-1.51-1.56c2.6-.9,4.91-2.6,6.46-4.47,1.6-1.97,2.72-4.83,3.2-7.28l2.07,.54c-.24,.53-.46,1.19-.63,1.67Z"/><path d="M64.89,213.19v5.69c0,.44,.03,1.04,.07,1.38h-1.96c.02-.29,.07-.88,.07-1.38v-5.69c0-.31-.02-.9-.07-1.26h1.96c-.03,.36-.07,.78-.07,1.26Zm7.89,.17v3.03c0,3.89-.61,5.34-1.87,6.76-1.11,1.29-2.82,2.07-4.06,2.48l-1.41-1.48c1.62-.41,3.03-1.05,4.08-2.21,1.19-1.36,1.41-2.69,1.41-5.66v-2.92c0-.61-.05-1.12-.1-1.56h2.02c-.03,.44-.07,.95-.07,1.56Z"/><path d="M79.12,216.44h11.12c.36,0,1-.03,1.43-.08v1.75c-.39-.03-.99-.05-1.43-.05h-4.37c-.07,1.8-.41,3.3-1.05,4.54-.61,1.16-1.9,2.41-3.38,3.16l-1.56-1.14c1.26-.53,2.46-1.5,3.14-2.53,.73-1.14,.95-2.5,1.02-4.03h-4.91c-.51,0-1.09,.02-1.55,.05v-1.75c.48,.05,1.02,.08,1.55,.08Zm2.11-4.28h6.87c.53,0,1.16-.05,1.7-.12v1.75c-.54-.03-1.17-.05-1.7-.05h-6.85c-.56,0-1.19,.02-1.67,.05v-1.75c.51,.07,1.1,.12,1.65,.12Z"/><path d="M100.68,217.73c1.62-1,3.25-2.45,4.13-3.54l1.33,1.29c-.85,.9-2.31,2.12-3.82,3.13v5.97c0,.54,.02,1.34,.08,1.63h-1.97c.03-.29,.07-1.09,.07-1.63v-4.9c-1.46,.77-3.42,1.6-5.12,2.14l-.82-1.6c2.23-.51,4.74-1.67,6.12-2.5Z"/><path d="M114.94,219.5c0-3.35,.93-6.12,2.52-8.69l1.22,.53c-1.46,2.45-2.14,5.32-2.14,8.16s.68,5.73,2.14,8.16l-1.22,.54c-1.58-2.58-2.52-5.32-2.52-8.7Z"/><path d="M128.95,213.09c-.82,2.07-2.09,4.49-3.59,6-.36-.31-1-.73-1.43-.93,1.46-1.39,2.69-3.66,3.26-5.47l1.75,.41Zm8.3,5.08c-1.6,4.95-5.01,7.05-11.17,8.04-.17-.49-.53-1.16-.85-1.58,5.8-.71,8.94-2.55,10.37-6.95l1.65,.49Zm-4.66-7.62v8.4c0,.92-.19,1.36-.82,1.61-.63,.27-1.6,.31-2.99,.31-.08-.48-.34-1.17-.58-1.62,1.05,.02,2.09,.02,2.38,.02,.31-.02,.41-.08,.41-.36v-8.36h1.6Zm3.5,1.92c1.41,1.7,2.97,3.98,3.6,5.56l-1.62,.87c-.54-1.55-2.04-3.91-3.45-5.68l1.46-.75Z"/><path d="M146.95,225.02c1.17-.44,2.46-1.24,3.09-1.92l1.31,.8c-.88,.87-2.31,1.75-3.54,2.23-.25-.29-.71-.75-1.04-1.04h-3.69v.76h-1.34v-4.54c-.2,.08-.41,.19-.61,.27-.17-.34-.54-.85-.82-1.14,1.21-.44,2.4-1.16,3.38-2.06-.48-.36-.95-.7-1.39-1-.31,.29-.61,.56-.94,.8-.2-.26-.73-.71-1.02-.94,1.31-.85,2.46-2.19,3.09-3.67l1.31,.34c-.14,.31-.29,.61-.46,.9h1.92l.24-.07,.9,.41c-.39,1.14-.97,2.16-1.67,3.03,.95,.7,1.84,1.38,2.41,1.9l-.92,1.09-.24-.22v4.06Zm-4.84-10.44h-1.29v-2.57h2.8v-1.43h1.48v1.43h2.82v2.57h-1.34v-1.29h-4.47v1.29Zm4.42,6c-.49-.42-1.1-.9-1.75-1.39-.53,.53-1.12,.99-1.75,1.39h3.5Zm-.95,1.22h-2.48v2.06h2.48v-2.06Zm-1.99-5.88c-.14,.19-.27,.36-.41,.53,.46,.31,.95,.63,1.45,.97,.37-.46,.71-.97,.97-1.5h-2.01Zm7.24-1.87c.1-.44,.2-.95,.29-1.41h-3.06v-1.36h7.85v1.36h-3.11c-.15,.48-.32,.97-.48,1.41h3.18v8.82h-6.87v-8.82h2.19Zm3.18,1.21h-3.94v1.38h3.94v-1.38Zm0,2.5h-3.94v1.39h3.94v-1.39Zm0,2.52h-3.94v1.41h3.94v-1.41Zm-.39,2.91c.95,.61,2.19,1.53,2.82,2.16l-1.22,.83c-.59-.61-1.8-1.6-2.75-2.26l1.16-.73Z"/><path d="M161.47,227.66c1.46-2.43,2.14-5.3,2.14-8.16s-.68-5.71-2.14-8.16l1.22-.53c1.6,2.57,2.53,5.34,2.53,8.69s-.93,6.12-2.53,8.7l-1.22-.54Z"/><path d="M45.18,243.11v7.02h-1.63v-1h-10.05v1.04h-1.6v-7.05h1.6v4.47h4.1v-5.49h-5.05v-5.93h1.58v4.4h3.47v-5.88h1.61v5.88h3.64v-4.42h1.67v5.95h-5.3v5.49h4.33v-4.47h1.63Z"/><path d="M52.31,239.25c-1.48,.49-3.06,.95-4.32,1.34l-.63-1.39c1.24-.25,3.04-.73,4.79-1.19l.15,1.24Zm1.56,8.86c-1.38,.83-3.5,1.65-5.2,2.11-.27-.31-.83-.9-1.19-1.17,1.75-.34,3.77-.93,4.95-1.6l1.44,.66Zm-2.16-10.76c-.8-.42-2.36-1.04-3.55-1.39l.7-1.07c1.16,.29,2.74,.85,3.55,1.26l-.7,1.21Zm3.21-.46c-.41,.51-.88,.99-1.44,1.41-.29-.27-.82-.61-1.19-.77,1.26-.85,2.09-1.99,2.52-2.97l1.43,.22c-.15,.32-.32,.65-.53,.97h5.46l.24-.05,1.05,.27c-.44,.88-1.07,1.87-1.65,2.46l-1.24-.39c.29-.31,.58-.73,.85-1.16h-2.35c.37,1.22,1.33,2.31,4.78,2.77-.29,.31-.66,.9-.8,1.29-.48-.08-.92-.19-1.31-.29v6.75h-11.08v-6.83h3.42c-.15-.34-.46-.8-.7-1.04,2.74-.44,3.71-1.26,4.1-2.65h-1.55Zm4.23,4.69h-7.97v.95h7.97v-.95Zm0,1.9h-7.97v.97h7.97v-.97Zm0,1.94h-7.97v.99h7.97v-.99Zm1.31-4.84c-1.7-.53-2.58-1.33-3.11-2.23-.65,1.04-1.77,1.75-3.79,2.23h6.9Zm-2.87,6.9c1.82,.61,3.86,1.39,5.08,1.97l-1.82,.75c-1-.54-2.79-1.31-4.56-1.92l1.29-.8Z"/><path d="M70.72,237.12c1.67-.07,3.45-.22,5-.49v1.58c-1.67,.24-3.76,.39-5.59,.44-.37,.8-.83,1.6-1.31,2.24,.56-.32,1.51-.51,2.18-.51,1.07,0,1.96,.49,2.28,1.44,1.05-.49,1.92-.85,2.72-1.22,.58-.25,1.07-.48,1.61-.75l.7,1.56c-.49,.15-1.22,.42-1.73,.63-.87,.34-1.97,.78-3.16,1.33,.02,.97,.03,2.33,.05,3.14h-1.61c.03-.59,.05-1.56,.07-2.4-1.46,.8-2.38,1.58-2.38,2.58,0,1.16,1.11,1.39,2.82,1.39,1.38,0,3.23-.17,4.73-.44l-.05,1.72c-1.22,.15-3.2,.31-4.73,.31-2.53,0-4.5-.59-4.5-2.7s2.04-3.42,4.01-4.42c-.22-.6-.77-.85-1.39-.85-1.04,0-2.11,.54-2.82,1.22-.49,.48-.99,1.11-1.55,1.82l-1.46-1.09c1.99-1.87,3.14-3.52,3.84-4.96h-.49c-.71,0-1.89-.03-2.84-.1v-1.6c.9,.14,2.11,.19,2.92,.19,.32,0,.66,0,1-.02,.22-.7,.36-1.41,.39-2.02l1.77,.14c-.1,.48-.24,1.1-.46,1.84Z"/><path d="M93.46,243.02c-.82,1.73-2.09,3.08-3.62,4.13,1.73,.7,3.74,1.17,5.98,1.41-.34,.36-.75,1.04-.97,1.5-2.52-.36-4.74-1-6.63-1.97-1.99,.99-4.3,1.6-6.71,1.99-.15-.41-.58-1.09-.92-1.43,2.24-.27,4.32-.75,6.1-1.5-1.24-.85-2.28-1.9-3.09-3.13l.31-.14h-.73v-1.46h8.92l.29-.05,1.07,.65Zm-11.01-.1h-1.48v-3.52h2.57c-.2-.59-.59-1.41-.97-2.02l1.38-.39c.46,.65,.9,1.55,1.09,2.12l-.92,.29h3.67c-.08-.63-.41-1.63-.77-2.4l1.41-.31c.37,.75,.75,1.72,.85,2.35l-1.43,.36h3.38c.49-.8,1.04-1.9,1.36-2.74l1.65,.44c-.44,.76-.93,1.62-1.41,2.29h2.67v3.52h-1.55v-2.12h-11.51v2.12Zm12.26-7.16c-3.57,.71-8.81,1.12-13.22,1.27-.02-.39-.19-1-.34-1.34,4.37-.17,9.5-.59,12.46-1.22l1.1,1.29Zm-9.42,8.12c.75,.99,1.75,1.82,2.97,2.5,1.16-.66,2.11-1.48,2.82-2.5h-5.8Z"/><path d="M100.48,236.94c-.48,2.23-1.07,5.88-.51,8.36,.22-.63,.58-1.58,.87-2.33l.88,.56c-.46,1.29-.94,3.03-1.14,3.91-.05,.25-.08,.61-.08,.8,0,.17,.03,.42,.05,.63l-1.48,.17c-.36-1.04-.93-3.33-.93-5.44,0-2.79,.41-5.39,.61-6.8,.07-.42,.08-.92,.08-1.28l1.99,.19c-.12,.36-.25,.9-.34,1.22Zm8.8-.41c-.02,.37,0,1.38,.02,2.4,.99-.08,1.92-.2,2.69-.36l-.02,1.73c-.73,.1-1.67,.2-2.65,.26v.66c0,3.94-.14,6.58-3.64,8.72l-1.56-1.22c.59-.24,1.36-.71,1.8-1.19,1.58-1.48,1.77-3.23,1.77-6.32v-.56c-.7,.02-1.39,.03-2.06,.03-.78,0-1.9-.05-2.69-.08v-1.72c.76,.12,1.75,.19,2.67,.19,.65,0,1.34-.02,2.04-.03-.02-1.04-.05-2.06-.08-2.5-.03-.39-.12-.82-.17-1.07h1.97c-.05,.31-.07,.68-.08,1.07Z"/><path d="M120.31,236.82c-.05,.29-.12,.63-.2,1,1.04-.15,2.09-.34,3.08-.59v1.68c-1.07,.25-2.26,.44-3.42,.58-.17,.73-.36,1.51-.54,2.23-.61,2.4-1.77,5.9-2.69,7.82l-1.85-.63c1-1.73,2.24-5.24,2.89-7.62,.14-.53,.27-1.09,.41-1.65-.49,.02-.95,.03-1.38,.03-.78,0-1.41-.02-2.02-.07l-.03-1.67c.83,.1,1.43,.14,2.07,.14,.53,0,1.11-.02,1.7-.07,.08-.51,.17-.95,.2-1.28,.08-.53,.1-1.16,.07-1.53l2.04,.15c-.1,.42-.25,1.12-.32,1.46Zm2.04,9.38c0,.77,.46,1.46,2.63,1.46,1.12,0,2.28-.14,3.4-.34l-.05,1.72c-.93,.12-2.07,.24-3.37,.24-2.77,0-4.27-.9-4.27-2.58,0-.71,.14-1.43,.29-2.12l1.58,.15c-.14,.53-.22,1.05-.22,1.48Zm2.8-5.83c.99,0,2.01,.03,2.97,.14l-.05,1.63c-.87-.12-1.87-.22-2.89-.22-1.1,0-2.14,.07-3.21,.19v-1.58c.92-.08,2.09-.15,3.18-.15Z"/><path d="M133.34,238.67c-.02,1.07,0,2.5,.12,3.83,.25,2.67,.95,4.47,2.09,4.47,.85,0,1.6-1.85,1.99-3.4l1.34,1.58c-1.07,2.91-2.12,3.91-3.37,3.91-1.72,0-3.3-1.63-3.76-6.1-.17-1.5-.19-3.54-.19-4.56,0-.42-.03-1.14-.14-1.6l2.07,.03c-.08,.49-.17,1.38-.17,1.83Zm11.92,7.21l-1.75,.68c-.29-2.92-1.26-6.7-2.97-8.74l1.68-.56c1.56,1.97,2.82,5.86,3.04,8.62Z"/></g><g><path d="M235.13,28.97c1.79,2.57,4.69,5.05,7.31,6.37-.37,.39-.75,.92-1.04,1.39-1.09-.65-2.21-1.46-3.28-2.36v1.39h-7.29v-1.33c-1,.87-2.11,1.68-3.23,2.36-.2-.37-.66-.93-1-1.26,2.89-1.65,5.68-4.4,6.95-6.58h1.58Zm3.72,8.62l1.24,.37c-.82,1.96-2.06,4.64-3.11,6.75l-1.68-.44c.83-1.58,1.79-3.57,2.46-5.1h-9.14v-1.5h9.94l.29-.08Zm-.82-3.28c-1.45-1.22-2.75-2.57-3.6-3.76-.8,1.17-2,2.52-3.43,3.76h7.04Z"/><path d="M251.74,43.96l-1-1.6c.58-.05,1.09-.14,1.51-.24,2.18-.49,4.11-2.09,4.11-4.83,0-2.46-1.5-4.42-4.11-4.74-.24,1.53-.53,3.18-1.02,4.78-1.02,3.47-2.43,5.39-4.11,5.39s-3.23-1.87-3.23-4.71c0-3.81,3.33-7.07,7.6-7.07s6.66,2.86,6.66,6.41-2.28,6.02-6.41,6.61Zm-4.57-3.26c.76,0,1.56-1.1,2.35-3.72,.42-1.34,.73-2.89,.93-4.38-3.06,.49-4.84,3.14-4.84,5.25,0,1.96,.83,2.86,1.56,2.86Z"/><path d="M275.37,39.9h-1.77v2.97h-1.6v-.73h-3.62v.88c0,.87-.22,1.22-.8,1.45-.58,.2-1.46,.22-2.89,.22-.08-.36-.32-.93-.54-1.28,.94,.03,1.96,.03,2.23,.02,.31-.02,.41-.1,.41-.39v-.9h-5.3v-1.19h5.3v-1.05h-6.8v-1.24h6.8v-.97h-5.15v-1.12h5.15v-1h-4.71v-3.13h4.71v-.87h-6.44v-1.27h6.44v-1.24h1.6v1.24h6.63v1.27h-6.63v.87h4.95v3.13h-4.95v1h5.22v2.09h1.77v1.24Zm-8.58-5.39v-1.02h-3.2v1.02h3.2Zm1.6-1.02v1.02h3.35v-1.02h-3.35Zm0,5.17h3.62v-.97h-3.62v.97Zm3.62,1.24h-3.62v1.05h3.62v-1.05Z"/><path d="M286.35,40.72c1.5,1.05,3.69,1.92,5.76,2.31-.36,.34-.82,.99-1.05,1.41-2.21-.59-4.49-1.73-6.08-3.2v3.42h-1.55v-3.3c-1.62,1.36-3.91,2.46-6.03,3.06-.24-.41-.68-1-1.04-1.34,2.02-.42,4.23-1.31,5.73-2.36h-5.25v-1.33h6.6v-1.04h-5.01v-1.19h5.01v-1.02h-5.85v-1.26h3.49c-.15-.48-.44-1.09-.71-1.55l.41-.07h-3.86v-1.33h2.52c-.25-.66-.76-1.6-1.24-2.29l1.38-.46c.53,.73,1.12,1.77,1.36,2.43l-.87,.32h1.87v-2.91h1.48v2.91h1.68v-2.91h1.5v2.91h1.84l-.65-.2c.41-.68,.93-1.75,1.19-2.52l1.63,.41c-.46,.83-.97,1.68-1.41,2.31h2.45v1.33h-3.28c-.32,.58-.66,1.14-.95,1.62h3.6v1.26h-6.02v1.02h5.22v1.19h-5.22v1.04h6.7v1.33h-5.32Zm-4.37-7.45c.31,.49,.61,1.1,.73,1.51l-.49,.1h3.59c.25-.46,.53-1.07,.75-1.62h-4.57Z"/><path d="M299.87,31.62c1.67-.07,3.45-.22,5-.49v1.58c-1.67,.24-3.76,.39-5.59,.44-.37,.8-.83,1.6-1.31,2.24,.56-.32,1.51-.51,2.18-.51,1.07,0,1.96,.49,2.28,1.44,1.05-.49,1.92-.85,2.72-1.22,.58-.25,1.07-.48,1.61-.75l.7,1.56c-.49,.15-1.22,.42-1.73,.63-.87,.34-1.97,.78-3.16,1.33,.02,.97,.03,2.33,.05,3.14h-1.61c.03-.59,.05-1.56,.07-2.4-1.46,.8-2.38,1.58-2.38,2.58,0,1.16,1.11,1.39,2.82,1.39,1.38,0,3.23-.17,4.73-.44l-.05,1.72c-1.22,.15-3.2,.31-4.73,.31-2.53,0-4.5-.59-4.5-2.7s2.04-3.42,4.01-4.42c-.22-.6-.77-.85-1.39-.85-1.04,0-2.11,.54-2.82,1.22-.49,.48-.99,1.11-1.55,1.82l-1.46-1.09c1.99-1.87,3.14-3.52,3.84-4.96h-.49c-.71,0-1.89-.03-2.84-.1v-1.6c.9,.14,2.11,.19,2.92,.19,.32,0,.66,0,1-.02,.22-.7,.36-1.41,.39-2.02l1.77,.14c-.1,.48-.24,1.1-.46,1.84Z"/><path d="M315.96,38.13c-.27,3.43-1.09,5.49-5.49,6.56-.14-.41-.54-1.05-.87-1.36,3.94-.82,4.5-2.4,4.73-5.2h1.63Zm.53-6.1h-6.48v-1.46h6.48v-1.5h1.63v1.5h6.65v1.46h-6.65v1.45h5.12v1.39h-11.64v-1.39h4.9v-1.45Zm6.32,7.36v-1.97h-10.91v1.97h-1.55v-3.38h14.06v3.38h-1.6Zm0,3.55c.59,0,.71-.25,.76-2.09,.32,.25,.99,.49,1.43,.59-.17,2.35-.6,2.94-2.04,2.94h-2.35c-1.72,0-2.14-.46-2.14-1.99v-4.27h1.58v4.25c0,.49,.12,.56,.77,.56h1.99Z"/><path d="M332.49,38.44c.9,1.45,1.87,3.37,2.24,4.61l-1.39,.6c-.1-.37-.27-.83-.46-1.31-2.35,.29-4.73,.54-6.53,.75l-.22-1.55c.36-.03,.77-.07,1.19-.1,.51-1.26,1.09-2.99,1.43-4.42h-2.6v-1.46h3.48v-2.5h-2.87v-1.45h2.87v-2.55h1.53v2.55h2.77v1.45h-2.77v2.5h3.33v1.46h-3.96c-.49,1.39-1.07,3.01-1.61,4.28,1.05-.1,2.19-.22,3.35-.34-.34-.7-.71-1.39-1.09-2.01l1.31-.51Zm8.55,1.51c0,.78-.12,1.27-.66,1.56-.49,.29-1.26,.32-2.35,.32-.05-.48-.29-1.21-.51-1.63,.77,.03,1.46,.03,1.72,.02,.19,0,.26-.08,.26-.29v-8.38h-2.89v13.09h-1.53v-14.58h5.97v9.89Z"/><path d="M347.86,31.93c-.08,1.89-.2,5.81-.2,8.16,0,1.8,1.11,2.41,2.58,2.41,2.97,0,4.76-1.68,5.98-3.5l1.21,1.48c-1.12,1.62-3.42,3.81-7.22,3.81-2.58,0-4.32-1.1-4.32-3.93,0-2.41,.17-6.8,.17-8.43,0-.71-.07-1.41-.19-1.97l2.18,.02c-.1,.63-.17,1.34-.19,1.96Z"/><path d="M361.53,31.76c1.24-.12,4.27-.41,7.39-.66,1.82-.15,3.52-.25,4.69-.31v1.72c-.94,0-2.41,.02-3.3,.25-2.26,.68-3.77,3.09-3.77,5.12,0,3.09,2.89,4.13,5.71,4.25l-.63,1.8c-3.33-.15-6.82-1.94-6.82-5.69,0-2.55,1.51-4.62,2.89-5.52-1.72,.19-5.68,.59-7.56,1l-.19-1.87c.66-.02,1.26-.05,1.58-.08Z"/><path d="M258.09,66.28c-.34-.41-1.02-1.09-1.65-1.68v4.03h-1.53v-3.98c-.77,1.14-1.67,2.18-2.53,2.86-.24-.36-.7-.87-1.02-1.14,1.16-.76,2.43-2.18,3.25-3.57h-2.84v-1.34h3.14v-1.55h-3.2v-1.34h1.75c-.05-.61-.31-1.51-.59-2.19l1.16-.29h-2.09v-1.31h2.97v-1.61h1.53v1.61h2.97v1.31h-2.06l1.19,.27c-.32,.8-.65,1.63-.94,2.21h1.99v1.34h-3.16v1.55h3.01v1.34h-3.01v.29c.61,.42,2.18,1.7,2.57,2.02l-.92,1.17Zm-4-10.2c.34,.71,.61,1.62,.68,2.23l-.99,.25h3.74l-1.17-.25c.27-.63,.59-1.55,.77-2.23h-3.03Zm13.07,4.06h-1.79v8.41h-1.53v-8.41h-2.19v.15c0,2.52-.31,6.05-2.65,8.41-.19-.34-.77-.88-1.12-1.09,2.06-2.09,2.26-5,2.26-7.34v-5.88l1.05,.31c1.67-.39,3.47-.92,4.52-1.46l1.28,1.14c-1.46,.66-3.5,1.19-5.34,1.55v2.75h5.51v1.46Z"/><path d="M273.27,55.93c-.08,1.89-.2,5.81-.2,8.16,0,1.8,1.11,2.41,2.58,2.41,2.97,0,4.76-1.68,5.98-3.5l1.21,1.48c-1.12,1.62-3.42,3.81-7.22,3.81-2.58,0-4.32-1.1-4.32-3.93,0-2.41,.17-6.8,.17-8.43,0-.71-.07-1.41-.19-1.97l2.18,.02c-.1,.63-.17,1.34-.19,1.96Z"/><path d="M287.91,57.17c-.02,1.07,0,2.5,.12,3.83,.25,2.67,.95,4.47,2.09,4.47,.85,0,1.6-1.85,1.99-3.4l1.34,1.58c-1.07,2.91-2.12,3.91-3.37,3.91-1.72,0-3.3-1.63-3.76-6.1-.17-1.5-.19-3.54-.19-4.56,0-.42-.03-1.14-.14-1.6l2.07,.03c-.08,.49-.17,1.38-.17,1.83Zm11.92,7.21l-1.75,.68c-.29-2.92-1.26-6.7-2.97-8.74l1.68-.56c1.56,1.97,2.82,5.86,3.04,8.62Z"/><path d="M316.81,63.9h-1.77v2.97h-1.6v-.73h-3.62v.88c0,.87-.22,1.22-.8,1.45-.58,.2-1.46,.22-2.89,.22-.08-.36-.32-.93-.54-1.28,.94,.03,1.96,.03,2.23,.02,.31-.02,.41-.1,.41-.39v-.9h-5.3v-1.19h5.3v-1.05h-6.8v-1.24h6.8v-.97h-5.15v-1.12h5.15v-1h-4.71v-3.13h4.71v-.87h-6.44v-1.27h6.44v-1.24h1.6v1.24h6.63v1.27h-6.63v.87h4.95v3.13h-4.95v1h5.22v2.09h1.77v1.24Zm-8.58-5.39v-1.02h-3.2v1.02h3.2Zm1.6-1.02v1.02h3.35v-1.02h-3.35Zm0,5.17h3.62v-.97h-3.62v.97Zm3.62,1.24h-3.62v1.05h3.62v-1.05Z"/><path d="M327.79,64.72c1.5,1.05,3.69,1.92,5.76,2.31-.36,.34-.82,.99-1.05,1.41-2.21-.59-4.49-1.73-6.08-3.2v3.42h-1.55v-3.3c-1.62,1.36-3.91,2.46-6.03,3.06-.24-.41-.68-1-1.04-1.34,2.02-.42,4.23-1.31,5.73-2.36h-5.25v-1.33h6.6v-1.04h-5.01v-1.19h5.01v-1.02h-5.85v-1.26h3.49c-.15-.48-.44-1.09-.71-1.55l.41-.07h-3.86v-1.33h2.52c-.25-.66-.76-1.6-1.24-2.29l1.38-.46c.53,.73,1.12,1.77,1.36,2.43l-.87,.32h1.87v-2.91h1.48v2.91h1.68v-2.91h1.5v2.91h1.84l-.65-.2c.41-.68,.93-1.75,1.19-2.52l1.63,.41c-.46,.83-.97,1.68-1.41,2.31h2.45v1.33h-3.28c-.32,.58-.66,1.14-.95,1.62h3.6v1.26h-6.02v1.02h5.22v1.19h-5.22v1.04h6.7v1.33h-5.32Zm-4.37-7.45c.31,.49,.61,1.1,.73,1.51l-.49,.1h3.59c.25-.46,.53-1.07,.75-1.62h-4.57Z"/><path d="M341.3,55.62c1.67-.07,3.45-.22,5-.49v1.58c-1.67,.24-3.76,.39-5.59,.44-.37,.8-.83,1.6-1.31,2.24,.56-.32,1.51-.51,2.18-.51,1.07,0,1.96,.49,2.28,1.44,1.05-.49,1.92-.85,2.72-1.22,.58-.25,1.07-.48,1.61-.75l.7,1.56c-.49,.15-1.22,.42-1.73,.63-.87,.34-1.97,.78-3.16,1.33,.02,.97,.03,2.33,.05,3.14h-1.61c.03-.59,.05-1.56,.07-2.4-1.46,.8-2.38,1.58-2.38,2.58,0,1.16,1.11,1.39,2.82,1.39,1.38,0,3.23-.17,4.73-.44l-.05,1.72c-1.22,.15-3.2,.31-4.73,.31-2.53,0-4.5-.59-4.5-2.7s2.04-3.42,4.01-4.42c-.22-.6-.77-.85-1.39-.85-1.04,0-2.11,.54-2.82,1.22-.49,.48-.99,1.11-1.55,1.82l-1.46-1.09c1.99-1.87,3.14-3.52,3.84-4.96h-.49c-.71,0-1.89-.03-2.84-.1v-1.6c.9,.14,2.11,.19,2.92,.19,.32,0,.66,0,1-.02,.22-.7,.36-1.41,.39-2.02l1.77,.14c-.1,.48-.24,1.1-.46,1.84Z"/><path d="M274.63,80.62c-.2,3.06-.7,5.49-1.48,7.39,.76,.63,1.44,1.24,1.89,1.8l-.95,1.28c-.39-.49-.97-1.07-1.63-1.67-.83,1.43-1.89,2.5-3.18,3.28-.24-.39-.65-.97-.99-1.26,1.19-.63,2.18-1.65,2.94-3.01-.48-.37-.95-.71-1.43-1.04l-.19,.68-1.31-.7c.41-1.43,.9-3.4,1.36-5.44h-1.43v-1.46h1.73c.25-1.21,.49-2.4,.68-3.45l1.51,.17c-.2,1.02-.44,2.14-.7,3.28h1.94l.29-.05,.94,.19Zm-3.48,1.33c-.32,1.39-.66,2.77-.97,4.01,.54,.34,1.14,.71,1.7,1.12,.56-1.43,.95-3.14,1.16-5.13h-1.89Zm3.5,.82l1.36-.07c.66-1.65,1.39-3.96,1.77-5.66l1.73,.36c-.56,1.68-1.27,3.67-1.94,5.2l3.88-.22c-.41-.71-.88-1.44-1.36-2.07l1.26-.63c1.09,1.39,2.24,3.26,2.67,4.52l-1.38,.75c-.1-.34-.27-.75-.46-1.17-2.65,.2-5.39,.37-7.38,.53l-.15-1.53Zm1.11,2.97h7.29v6.85h-1.56v-.65h-4.23v.71h-1.5v-6.92Zm1.5,1.44v3.33h4.23v-3.33h-4.23Z"/><path d="M295.27,79.59c-.07,.31-.14,.61-.22,.92,2.7,.53,4.54,2.65,4.54,5.59,0,3.49-2.5,5.54-6.08,6.07l-1.02-1.53c3.64-.32,5.39-2.21,5.39-4.61,0-2.07-1.24-3.62-3.21-4.05-.61,2.09-1.43,4.18-2.4,5.63,.31,.41,.65,.8,.99,1.12l-1.34,1.09c-.25-.29-.49-.56-.71-.85-1.09,1.27-2.09,1.99-3.35,1.99-1.34,0-2.52-1.12-2.52-3.21,0-1.94,1.02-4,2.57-5.3-.17-.49-.32-1-.48-1.48-.17-.58-.37-1.12-.63-1.65l1.77-.54c.1,.49,.24,1.05,.36,1.55,.1,.37,.22,.78,.36,1.21,1.38-.76,2.74-1.09,4.16-1.14,.08-.36,.15-.7,.2-1.04,.08-.41,.14-1.05,.12-1.45l1.85,.17c-.12,.44-.25,1.14-.34,1.51Zm-7.26,9.65c.75,0,1.53-.7,2.23-1.61-.05-.1-.12-.2-.19-.31-.53-.8-1.09-2.02-1.6-3.33-.97,1.02-1.56,2.43-1.56,3.64,0,.99,.42,1.61,1.12,1.61Zm3.21-3.08c.7-1.17,1.33-2.74,1.8-4.27-1.22,.08-2.28,.49-3.26,1.07,.42,1.16,.9,2.26,1.31,2.94l.15,.25Z"/><path d="M308.02,79.32c-.05,.29-.12,.63-.2,1,1.04-.15,2.09-.34,3.08-.59v1.68c-1.07,.25-2.26,.44-3.42,.58-.17,.73-.36,1.51-.54,2.23-.61,2.4-1.77,5.9-2.69,7.82l-1.85-.63c1-1.73,2.24-5.24,2.89-7.62,.14-.53,.27-1.09,.41-1.65-.49,.02-.95,.03-1.38,.03-.78,0-1.41-.02-2.02-.07l-.03-1.67c.83,.1,1.43,.14,2.07,.14,.53,0,1.11-.02,1.7-.07,.08-.51,.17-.95,.2-1.28,.08-.53,.1-1.16,.07-1.53l2.04,.15c-.1,.42-.25,1.12-.32,1.46Zm2.04,9.38c0,.77,.46,1.46,2.63,1.46,1.12,0,2.28-.14,3.4-.34l-.05,1.72c-.93,.12-2.07,.24-3.37,.24-2.77,0-4.27-.9-4.27-2.58,0-.71,.14-1.43,.29-2.12l1.58,.15c-.14,.53-.22,1.05-.22,1.48Zm2.8-5.83c.99,0,2.01,.03,2.97,.14l-.05,1.63c-.87-.12-1.87-.22-2.89-.22-1.1,0-2.14,.07-3.21,.19v-1.58c.92-.08,2.09-.15,3.18-.15Z"/><path d="M321.06,81.17c-.02,1.07,0,2.5,.12,3.83,.25,2.67,.95,4.47,2.09,4.47,.85,0,1.6-1.85,1.99-3.4l1.34,1.58c-1.07,2.91-2.12,3.91-3.37,3.91-1.72,0-3.3-1.63-3.76-6.1-.17-1.5-.19-3.54-.19-4.56,0-.42-.03-1.14-.14-1.6l2.07,.03c-.08,.49-.17,1.38-.17,1.83Zm11.92,7.21l-1.75,.68c-.29-2.92-1.26-6.7-2.97-8.74l1.68-.56c1.56,1.97,2.82,5.86,3.04,8.62Z"/></g><g><path d="M27.33,51.9h-1.77v2.97h-1.6v-.73h-3.62v.88c0,.87-.22,1.22-.8,1.45-.58,.2-1.46,.22-2.89,.22-.08-.36-.32-.93-.54-1.28,.94,.03,1.96,.03,2.23,.02,.31-.02,.41-.1,.41-.39v-.9h-5.3v-1.19h5.3v-1.05h-6.8v-1.24h6.8v-.97h-5.15v-1.12h5.15v-1h-4.71v-3.13h4.71v-.87h-6.44v-1.27h6.44v-1.24h1.6v1.24h6.63v1.27h-6.63v.87h4.95v3.13h-4.95v1h5.22v2.09h1.77v1.24Zm-8.58-5.39v-1.02h-3.2v1.02h3.2Zm1.6-1.02v1.02h3.35v-1.02h-3.35Zm0,5.17h3.62v-.97h-3.62v.97Zm3.62,1.24h-3.62v1.05h3.62v-1.05Z"/><path d="M37.46,52.72c1.5,1.05,3.69,1.92,5.76,2.31-.36,.34-.82,.99-1.05,1.41-2.21-.59-4.49-1.73-6.08-3.2v3.42h-1.55v-3.3c-1.62,1.36-3.91,2.46-6.03,3.06-.24-.41-.68-1-1.04-1.34,2.02-.42,4.23-1.31,5.73-2.36h-5.25v-1.33h6.6v-1.04h-5.01v-1.19h5.01v-1.02h-5.85v-1.26h3.49c-.15-.48-.44-1.09-.71-1.55l.41-.07h-3.86v-1.33h2.52c-.25-.66-.76-1.6-1.24-2.29l1.38-.46c.53,.73,1.12,1.77,1.36,2.43l-.87,.32h1.87v-2.91h1.48v2.91h1.68v-2.91h1.5v2.91h1.84l-.65-.2c.41-.68,.93-1.75,1.19-2.52l1.63,.41c-.46,.83-.97,1.68-1.41,2.31h2.45v1.33h-3.28c-.32,.58-.66,1.14-.95,1.62h3.6v1.26h-6.02v1.02h5.22v1.19h-5.22v1.04h6.7v1.33h-5.32Zm-4.37-7.45c.31,.49,.61,1.1,.73,1.51l-.49,.1h3.59c.25-.46,.53-1.07,.75-1.62h-4.57Z"/><path d="M50.13,43.62c1.67-.07,3.45-.22,5-.49v1.58c-1.67,.24-3.76,.39-5.59,.44-.37,.8-.83,1.6-1.31,2.24,.56-.32,1.51-.51,2.18-.51,1.07,0,1.96,.49,2.28,1.44,1.05-.49,1.92-.85,2.72-1.22,.58-.25,1.07-.48,1.61-.75l.7,1.56c-.49,.15-1.22,.42-1.73,.63-.87,.34-1.97,.78-3.16,1.33,.02,.97,.03,2.33,.05,3.14h-1.61c.03-.59,.05-1.56,.07-2.4-1.46,.8-2.38,1.58-2.38,2.58,0,1.16,1.11,1.39,2.82,1.39,1.38,0,3.23-.17,4.73-.44l-.05,1.72c-1.22,.15-3.2,.31-4.73,.31-2.53,0-4.5-.59-4.5-2.7s2.04-3.42,4.01-4.42c-.22-.6-.77-.85-1.39-.85-1.04,0-2.11,.54-2.82,1.22-.49,.48-.99,1.11-1.55,1.82l-1.46-1.09c1.99-1.87,3.14-3.52,3.84-4.96h-.49c-.71,0-1.89-.03-2.84-.1v-1.6c.9,.14,2.11,.19,2.92,.19,.32,0,.66,0,1-.02,.22-.7,.36-1.41,.39-2.02l1.77,.14c-.1,.48-.24,1.1-.46,1.84Z"/><path d="M68.04,47.4c1.16,3.54,3.3,6.41,6.51,7.75-.39,.34-.92,1-1.17,1.48-3.18-1.48-5.24-4.23-6.56-7.84-.87,3.08-2.7,6.02-6.56,7.84-.25-.42-.76-.99-1.21-1.33,4.05-1.77,5.69-4.83,6.38-7.9h-6.04v-1.63h6.32c.2-1.7,.19-3.33,.2-4.69h1.72c-.02,1.38-.03,3.01-.24,4.69h6.85v1.63h-6.2Z"/><path d="M81.85,41.82l1.82-.2c.07,.63,.2,1.27,.36,1.92,1.19-.15,2.35-.41,3.43-.76l.22,1.55c-.95,.27-2.11,.51-3.26,.66,.12,.36,.22,.7,.34,1,.1,.29,.22,.59,.34,.92,1.39-.17,2.52-.46,3.33-.71l.27,1.6c-.82,.2-1.82,.41-2.94,.56,.32,.66,.68,1.29,1.05,1.85,.2,.31,.42,.54,.7,.8l-.85,1.26c-.95-.22-2.65-.41-3.84-.53l.14-1.29c.82,.08,1.84,.19,2.36,.24-.44-.7-.83-1.43-1.16-2.14-2.07,.17-4.84,.17-7.45,0l-.08-1.58c2.55,.25,4.98,.25,6.9,.1-.1-.26-.2-.51-.29-.75-.15-.44-.27-.83-.39-1.19-1.63,.08-3.67,.07-5.8-.14l-.1-1.55c2.02,.22,3.88,.31,5.47,.22-.02-.05-.03-.1-.05-.15-.15-.54-.32-1.12-.53-1.68Zm-3.13,10.81c0,1.34,1.22,1.97,3.71,1.97,1.6,0,2.92-.12,4.15-.37l-.08,1.72c-1.19,.19-2.62,.31-4.05,.31-3.37,0-5.34-1-5.37-3.3-.02-1.02,.32-1.79,.71-2.55l1.67,.32c-.41,.58-.73,1.17-.73,1.9Z"/><path d="M100.62,43.96c-1.14,.95-3.48,2.8-4.69,3.82-.97,.83-.97,1.05,.03,1.92,1.44,1.19,4.54,3.65,6.31,5.42l-1.55,1.41c-.41-.46-.85-.93-1.29-1.38-1.14-1.16-3.67-3.33-5.25-4.66-1.65-1.38-1.48-2.19,.14-3.54,1.31-1.09,3.77-3.06,4.93-4.2,.39-.41,.88-.92,1.1-1.27l1.58,1.41c-.42,.32-.97,.78-1.31,1.05Z"/><path d="M116.22,42.99c-.02,.2-.02,.51-.02,.85h5.1l-.03,1.6c-1-.05-2.62-.08-5.08-.08,.02,.92,.02,1.9,.02,2.67,.39,.61,.59,1.39,.59,2.26,0,2.26-1.21,4.93-5.24,6.1l-1.45-1.43c2.01-.44,3.57-1.19,4.39-2.5-.34,.17-.75,.25-1.19,.25-1.38,0-2.86-1.02-2.86-2.96,0-1.78,1.45-3.06,3.16-3.06,.34,0,.66,.03,.95,.12,0-.44-.02-.95-.02-1.45-2.58,.03-5.37,.14-7.48,.27l-.05-1.63c1.92-.03,5.08-.12,7.51-.15-.02-.37-.02-.66-.03-.87-.05-.54-.1-1.07-.14-1.24h1.96c-.05,.22-.1,1-.1,1.24Zm-2.62,8.25c.88,0,1.55-.7,1.33-2.29-.27-.56-.76-.82-1.33-.82-.78,0-1.55,.58-1.55,1.6,0,.94,.73,1.51,1.55,1.51Z"/><path d="M126.46,42.67c.88,0,4.76-.1,5.68-.19,.59-.05,.9-.08,1.09-.15l.93,1.22c-.36,.22-.71,.46-1.07,.73-.87,.65-2.96,2.41-4.16,3.4,.68-.2,1.36-.29,2.04-.29,2.84,0,4.95,1.75,4.95,4.13,0,2.7-2.16,4.64-5.98,4.64-2.35,0-3.91-1.04-3.91-2.58,0-1.26,1.12-2.4,2.8-2.4,2.11,0,3.32,1.36,3.54,2.97,1.17-.51,1.8-1.43,1.8-2.67,0-1.6-1.56-2.75-3.69-2.75-2.72,0-4.32,1.27-6.32,3.42l-1.24-1.26c1.33-1.09,3.45-2.87,4.45-3.71,.95-.78,2.92-2.41,3.77-3.16-.9,.03-3.84,.17-4.73,.22-.42,.02-.87,.05-1.26,.1l-.05-1.75c.43,.05,.95,.07,1.36,.07Zm3.16,11.97c.42,0,.83-.02,1.21-.07-.14-1.24-.88-2.11-2.01-2.11-.71,0-1.24,.46-1.24,.97,0,.75,.83,1.21,2.04,1.21Z"/><path d="M152.82,49.96s-.03,.46-.07,.65c-.29,3.49-.6,4.95-1.14,5.49-.34,.36-.71,.49-1.22,.53-.46,.05-1.27,.05-2.14,.02-.02-.42-.2-1.05-.46-1.45,.8,.08,1.56,.08,1.9,.08,.29,0,.44-.03,.63-.19,.32-.29,.59-1.34,.82-3.74h-10.2c-.8,.71-1.7,1.34-2.67,1.9-.2-.37-.59-1-.87-1.34,2.8-1.51,4.86-3.91,6.27-6.61h-5.44v-1.43h3.55c-.29-.63-.97-1.56-1.56-2.24l1.41-.56c.63,.66,1.36,1.61,1.68,2.23l-1.34,.58h2.38c.41-.94,.73-1.89,1-2.84l1.61,.41c-.25,.82-.56,1.63-.88,2.43h4.33c-.2,.99-.44,2.16-.66,3.06h1.85c-.19,.97-.42,2.12-.66,3.03h1.87Zm-14.29,5.75c.9-.88,1.51-2.31,1.83-3.6l1.31,.42c-.36,1.41-.9,3.03-1.92,4.03l-1.22-.85Zm11-5.75c.14-.49,.27-1.07,.37-1.67h-6.22c-.41,.58-.85,1.14-1.33,1.67h7.17Zm-5.69,2.43c.32,1.07,.51,2.46,.51,3.4l-1.38,.19c.03-.92-.14-2.33-.43-3.43l1.29-.15Zm1.62-7.09c-.27,.56-.58,1.1-.88,1.63h3.76c.12-.49,.25-1.05,.37-1.63h-3.25Zm.83,6.82c.41,.93,.82,2.14,.95,2.94l-1.29,.34c-.12-.82-.49-2.06-.9-3.01l1.24-.27Zm2.43,2.29c-.19-.61-.66-1.6-1.16-2.29l1.12-.41c.48,.68,1,1.63,1.19,2.23l-1.16,.48Z"/><path d="M161.8,55.96l-1-1.6c.58-.05,1.09-.14,1.51-.24,2.18-.49,4.11-2.09,4.11-4.83,0-2.46-1.5-4.42-4.11-4.74-.24,1.53-.53,3.18-1.02,4.78-1.02,3.47-2.43,5.39-4.11,5.39s-3.23-1.87-3.23-4.71c0-3.81,3.33-7.07,7.6-7.07s6.66,2.86,6.66,6.41-2.28,6.02-6.41,6.61Zm-4.57-3.26c.76,0,1.56-1.1,2.35-3.72,.42-1.34,.73-2.89,.93-4.38-3.06,.49-4.84,3.14-4.84,5.25,0,1.96,.83,2.86,1.56,2.86Z"/><path d="M48.29,69.75c-1.48,.49-3.06,.95-4.32,1.34l-.63-1.39c1.24-.25,3.04-.73,4.79-1.19l.15,1.24Zm1.56,8.86c-1.38,.83-3.5,1.65-5.2,2.11-.27-.31-.83-.9-1.19-1.17,1.75-.34,3.77-.93,4.95-1.6l1.44,.66Zm-2.16-10.76c-.8-.42-2.36-1.04-3.55-1.39l.7-1.07c1.16,.29,2.74,.85,3.55,1.26l-.7,1.21Zm3.21-.46c-.41,.51-.88,.99-1.44,1.41-.29-.27-.82-.61-1.19-.77,1.26-.85,2.09-1.99,2.52-2.97l1.43,.22c-.15,.32-.32,.65-.53,.97h5.46l.24-.05,1.05,.27c-.44,.88-1.07,1.87-1.65,2.46l-1.24-.39c.29-.31,.58-.73,.85-1.16h-2.35c.37,1.22,1.33,2.31,4.78,2.77-.29,.31-.66,.9-.8,1.29-.48-.08-.92-.19-1.31-.29v6.75h-11.08v-6.83h3.42c-.15-.34-.46-.8-.7-1.04,2.74-.44,3.71-1.26,4.1-2.65h-1.55Zm4.23,4.69h-7.97v.95h7.97v-.95Zm0,1.9h-7.97v.97h7.97v-.97Zm0,1.94h-7.97v.99h7.97v-.99Zm1.31-4.84c-1.7-.53-2.58-1.33-3.11-2.23-.65,1.04-1.77,1.75-3.79,2.23h6.9Zm-2.87,6.9c1.82,.61,3.86,1.39,5.08,1.97l-1.82,.75c-1-.54-2.79-1.31-4.56-1.92l1.29-.8Z"/><path d="M67.54,78.77h6.43v1.38h-14.33v-1.38h6.24v-3.86h-5.42v-1.36h5.42v-2.02h-3.33v-.88c-.85,.61-1.73,1.17-2.65,1.67-.19-.36-.65-.95-.99-1.28,2.89-1.43,5.66-3.93,6.93-6.02h1.62c1.8,2.48,4.64,4.67,7.28,5.81-.37,.41-.75,.95-1.02,1.41-.9-.46-1.82-1.04-2.72-1.68v.97h-3.45v2.02h5.54v1.36h-5.54v3.86Zm-4.56-3.6c.66,.9,1.34,2.11,1.58,2.92l-1.38,.61c-.2-.82-.85-2.09-1.5-3.03l1.29-.51Zm7.43-5.03c-1.48-1.12-2.8-2.38-3.69-3.57-.82,1.16-2.06,2.41-3.52,3.57h7.21Zm-1.75,8.04c.58-.8,1.31-2.09,1.72-3.03l1.51,.56c-.66,1.07-1.43,2.23-2.06,2.99l-1.17-.53Z"/><path d="M81.2,67.25c-.1,.53-.25,1.34-.41,2.14,.7-.07,1.33-.1,1.72-.1,1.63,0,2.89,.66,2.89,3.04,0,2.01-.25,4.74-.97,6.17-.56,1.17-1.44,1.5-2.62,1.5-.66,0-1.46-.12-2.02-.25l-.29-1.77c.7,.2,1.62,.34,2.09,.34,.59,0,1.07-.15,1.39-.8,.51-1.07,.75-3.23,.75-5,0-1.46-.66-1.72-1.73-1.72-.36,0-.92,.03-1.55,.1-.63,2.5-1.84,6.42-3.52,9.14l-1.75-.7c1.7-2.29,2.92-5.97,3.52-8.28-.76,.08-1.46,.17-1.85,.22-.42,.05-1.22,.15-1.68,.24l-.17-1.84c.56,.03,1.07,.02,1.65,0,.54-.02,1.46-.08,2.41-.17,.25-1.26,.41-2.55,.41-3.65l1.99,.2c-.08,.36-.17,.8-.25,1.17Zm7.45,.59l-1.09,.46c1.04,1.53,2.31,4.28,2.8,5.75l-1.68,.8c-.48-1.82-1.77-4.79-2.96-6.22l1.58-.7s.05,.07,.07,.1c-.32-.66-.8-1.51-1.21-2.07l1.11-.46c.42,.61,1.04,1.68,1.38,2.35Zm1.97-.75l-1.1,.49c-.37-.73-.92-1.7-1.41-2.35l1.1-.46c.44,.63,1.09,1.7,1.41,2.31Z"/><path d="M102.71,71.7c0,1.51,.59,5.52,3.67,7.6-.29,.34-.75,1-.99,1.38-2.31-1.56-3.28-4.62-3.47-6.05-.2,1.48-1.29,4.42-3.93,6.05-.17-.31-.54-.85-.82-1.17h-3.88v.97h-1.46v-6.19c-.22,.22-.46,.42-.71,.63-.22-.34-.71-.88-1.05-1.14,1.85-1.43,3.16-3.33,3.84-4.88h1.46c.76,.71,1.61,1.58,2.29,2.43,1.05-1.53,1.73-3.88,2.06-6.29l1.61,.25c-.14,.9-.32,1.78-.54,2.63h3.96l.25-.05,1.05,.27c-.25,1.51-.63,3.3-.97,4.42l-1.27-.37c.2-.71,.41-1.79,.56-2.82h-1.68v2.33Zm-8.43-5.86c-.7,1.51-1.82,3.09-2.87,4.1-.27-.29-.9-.83-1.26-1.07,1-.87,1.97-2.19,2.58-3.47l1.55,.44Zm3.09,7.84c-.58-.97-1.53-2.26-2.46-3.21-.61,1-1.41,2.12-2.45,3.21h4.91Zm-1.27,1.43h-2.79v2.97h2.79v-2.97Zm1.33-5.98c-.44-.85-1.46-2.14-2.35-3.08l1.19-.73c.9,.9,1.97,2.12,2.43,2.97l-1.27,.83Zm.15,9.94c3.03-2.19,3.59-5.88,3.57-7.38v-2.31h-.77c-.39,1.19-.87,2.23-1.44,3.06-.17-.15-.51-.37-.85-.58,.27,.36,.51,.71,.68,1.02l-1.17,1.19-.02-.03v5.03Z"/><path d="M111.29,67.93c-.08,1.89-.2,5.81-.2,8.16,0,1.8,1.11,2.41,2.58,2.41,2.97,0,4.76-1.68,5.98-3.5l1.21,1.48c-1.12,1.62-3.42,3.81-7.22,3.81-2.58,0-4.32-1.1-4.32-3.93,0-2.41,.17-6.8,.17-8.43,0-.71-.07-1.41-.19-1.97l2.18,.02c-.1,.63-.17,1.34-.19,1.96Z"/><path d="M125.08,69.17c-.02,1.07,0,2.5,.12,3.83,.25,2.67,.95,4.47,2.09,4.47,.85,0,1.6-1.85,1.99-3.4l1.34,1.58c-1.07,2.91-2.12,3.91-3.37,3.91-1.72,0-3.3-1.63-3.76-6.1-.17-1.5-.19-3.54-.19-4.56,0-.42-.03-1.14-.14-1.6l2.07,.03c-.08,.49-.17,1.38-.17,1.83Zm11.92,7.21l-1.75,.68c-.29-2.92-1.26-6.7-2.97-8.74l1.68-.56c1.56,1.97,2.82,5.86,3.04,8.62Z"/></g></g></g></svg>