<svg xmlns="http://www.w3.org/2000/svg" viewBox="0 0 107.7 60.83"><defs><style>.cls-1{fill:#c8161d;}</style></defs><g id="レイヤー_2" data-name="レイヤー 2"><g id="レイヤー_1-2" data-name="レイヤー 1"><g id="レイヤー_2-2" data-name="レイヤー 2"><g id="レイヤー_1-2-2" data-name="レイヤー 1-2"><path class="cls-1" d="M43.33,43.32a18.24,18.24,0,1,1,0-25.8l8.6-8.6a30.41,30.41,0,1,0,0,43h0L92.35,11.5l-8.6-8.6Z"/><path class="cls-1" d="M64.39,17.52a18.24,18.24,0,1,1,0,25.8l-8.6,8.6a30.41,30.41,0,1,0,0-43h0L15.37,49.34l8.6,8.6Z"/><path class="cls-1" d="M17.53,43.32a18.24,18.24,0,0,1,25.8-25.8l8.6-8.6A30.41,30.41,0,1,0,24.45,60.23l13-12.95A18.25,18.25,0,0,1,17.53,43.32Z"/></g></g></g></g></svg>