<svg width="3574" height="1476" xmlns="http://www.w3.org/2000/svg" xmlns:xlink="http://www.w3.org/1999/xlink" overflow="hidden"><defs><clipPath id="clip0"><rect x="143" y="1133" width="3574" height="1476"/></clipPath></defs><g clip-path="url(#clip0)" transform="translate(-143 -1133)"><path d="M3714.5 1217.85 3714.5 1407.24C3714.5 1433.39 3693.3 1454.59 3667.15 1454.59L1421.5 1454.59 1421.5 1170.5 3667.15 1170.5C3693.3 1170.5 3714.5 1191.7 3714.5 1217.85Z" stroke="#FAD6D8" stroke-width="4.58333" stroke-miterlimit="8" stroke-opacity="0.901961" fill="#FAD6D8" fill-rule="evenodd" fill-opacity="0.901961"/><text font-family="Meiryo,Meiryo_MSFontService,sans-serif" font-weight="400" font-size="64" transform="matrix(1 0 0 1 1510.34 1327)">•<tspan font-size="64" x="41.25" y="0">相続税・事業承継・事業計画・賃料収入・運営支出</tspan></text><path d="M145.5 1194.5C145.5 1161.92 171.916 1135.5 204.501 1135.5L1362.5 1135.5C1395.08 1135.5 1421.5 1161.92 1421.5 1194.5L1421.5 1430.5C1421.5 1463.08 1395.08 1489.5 1362.5 1489.5L204.501 1489.5C171.916 1489.5 145.5 1463.08 145.5 1430.5Z" stroke="#C8161D" stroke-width="4.58333" stroke-miterlimit="8" fill="#FFFFFF" fill-rule="evenodd"/><text font-family="Meiryo,Meiryo_MSFontService,sans-serif" font-weight="400" font-size="92" transform="matrix(1 0 0 1 507.994 1333)">会計士・税理</text><path d="M3714.5 1590.67 3714.5 1779.33C3714.5 1805.38 3693.38 1826.5 3667.33 1826.5L1421.5 1826.5 1421.5 1543.5 3667.33 1543.5C3693.38 1543.5 3714.5 1564.62 3714.5 1590.67Z" stroke="#FAD6D8" stroke-width="4.58333" stroke-miterlimit="8" stroke-opacity="0.901961" fill="#FAD6D8" fill-rule="evenodd" fill-opacity="0.901961"/><text font-family="Meiryo,Meiryo_MSFontService,sans-serif" font-weight="400" font-size="64" transform="matrix(1 0 0 1 1510.34 1699)">•<tspan font-size="64" x="41.25" y="0">法務面のリスク抽出・各種契約関係、権利関係の実態把握</tspan></text><path d="M145.5 1566.67C145.5 1533.99 171.991 1507.5 204.668 1507.5L1362.33 1507.5C1395.01 1507.5 1421.5 1533.99 1421.5 1566.67L1421.5 1803.33C1421.5 1836.01 1395.01 1862.5 1362.33 1862.5L204.668 1862.5C171.991 1862.5 145.5 1836.01 145.5 1803.33Z" stroke="#C8161D" stroke-width="4.58333" stroke-miterlimit="8" fill="#FFFFFF" fill-rule="evenodd"/><text font-family="Meiryo,Meiryo_MSFontService,sans-serif" font-weight="400" font-size="92" transform="matrix(1 0 0 1 645.494 1706)">弁護士</text><path d="M3714.5 1962.67 3714.5 2151.33C3714.5 2177.38 3693.38 2198.5 3667.33 2198.5L1421.5 2198.5 1421.5 1915.5 3667.33 1915.5C3693.38 1915.5 3714.5 1936.62 3714.5 1962.67Z" stroke="#FAD6D8" stroke-width="4.58333" stroke-miterlimit="8" stroke-opacity="0.901961" fill="#FAD6D8" fill-rule="evenodd" fill-opacity="0.901961"/><text font-family="Meiryo,Meiryo_MSFontService,sans-serif" font-weight="400" font-size="64" transform="matrix(1 0 0 1 1510.34 2072)">•<tspan font-size="64" x="41.25" y="0">知的財産の観点でのデューデリジェンス</tspan></text><path d="M145.5 1938.67C145.5 1905.99 171.991 1879.5 204.668 1879.5L1362.33 1879.5C1395.01 1879.5 1421.5 1905.99 1421.5 1938.67L1421.5 2175.33C1421.5 2208.01 1395.01 2234.5 1362.33 2234.5L204.668 2234.5C171.991 2234.5 145.5 2208.01 145.5 2175.33Z" stroke="#C8161D" stroke-width="4.58333" stroke-miterlimit="8" fill="#FFFFFF" fill-rule="evenodd"/><text font-family="Meiryo,Meiryo_MSFontService,sans-serif" font-weight="400" font-size="92" transform="matrix(1 0 0 1 645.494 2078)">弁理士</text><path d="M3714.5 2334.67 3714.5 2523.33C3714.5 2549.38 3693.38 2570.5 3667.33 2570.5L1421.5 2570.5 1421.5 2287.5 3667.33 2287.5C3693.38 2287.5 3714.5 2308.62 3714.5 2334.67Z" stroke="#FAD6D8" stroke-width="4.58333" stroke-miterlimit="8" stroke-opacity="0.901961" fill="#FAD6D8" fill-rule="evenodd" fill-opacity="0.901961"/><text font-family="Meiryo,Meiryo_MSFontService,sans-serif" font-weight="400" font-size="64" transform="matrix(1 0 0 1 1510.34 2444)">•<tspan font-size="64" x="41.25" y="0">権利関係調査・賃貸借契約関係調査・占有関係調査・売買契約書調査</tspan></text><path d="M145.5 2310.67C145.5 2277.99 171.991 2251.5 204.668 2251.5L1362.33 2251.5C1395.01 2251.5 1421.5 2277.99 1421.5 2310.67L1421.5 2547.33C1421.5 2580.01 1395.01 2606.5 1362.33 2606.5L204.668 2606.5C171.991 2606.5 145.5 2580.01 145.5 2547.33Z" stroke="#C8161D" stroke-width="4.58333" stroke-miterlimit="8" fill="#FFFFFF" fill-rule="evenodd"/><text font-family="Meiryo,Meiryo_MSFontService,sans-serif" font-weight="400" font-size="92" transform="matrix(1 0 0 1 599.661 2450)">司法書士</text></g></svg>