<svg width="2585" height="1508" xmlns="http://www.w3.org/2000/svg" xmlns:xlink="http://www.w3.org/1999/xlink" overflow="hidden"><defs><clipPath id="clip0"><rect x="637" y="1180" width="2585" height="1508"/></clipPath></defs><g clip-path="url(#clip0)" transform="translate(-637 -1180)"><path d="M1672.5 1574.5 1929.65 1305.5 1930.35 1305.5 2187.5 1574.5Z" stroke="#FFFFFF" stroke-width="4.58333" stroke-miterlimit="8" fill="#D7712B" fill-rule="evenodd"/><text font-family="Meiryo,Meiryo_MSFontService,sans-serif" font-weight="700" font-size="92" transform="matrix(1 0 0 1 1837.63 1503)">経営</text><path d="M1415.5 1843.5 1672.65 1574.5 2187.35 1574.5 2444.5 1843.5Z" stroke="#FFFFFF" stroke-width="4.58333" stroke-miterlimit="8" fill="#DF7F46" fill-rule="evenodd"/><text font-family="Meiryo,Meiryo_MSFontService,sans-serif" font-weight="700" font-size="92" transform="matrix(1 0 0 1 1700.13 1729)">組織・会計</text><path d="M1158.5 2112.5 1415.65 1843.5 2444.35 1843.5 2701.5 2112.5Z" stroke="#FFFFFF" stroke-width="4.58333" stroke-miterlimit="8" fill="#E68E61" fill-rule="evenodd"/><text font-family="Meiryo,Meiryo_MSFontService,sans-serif" font-weight="700" font-size="92" transform="matrix(1 0 0 1 1554.84 1999)">業務・<tspan font-size="92" x="275" y="0">IT</tspan>システム</text><path d="M900.5 2381.5 1157.65 2112.5 2701.35 2112.5 2958.5 2381.5Z" stroke="#FFFFFF" stroke-width="4.58333" stroke-miterlimit="8" fill="#ED9F7D" fill-rule="evenodd"/><text font-family="Meiryo,Meiryo_MSFontService,sans-serif" font-weight="700" font-size="92" transform="matrix(1 0 0 1 1700.13 2268)">人事・労務</text><path d="M643.5 2650.5 900.649 2381.5 2958.35 2381.5 3215.5 2650.5Z" stroke="#FFFFFF" stroke-width="4.58333" stroke-miterlimit="8" fill="#F3B29A" fill-rule="evenodd"/><text font-family="Meiryo,Meiryo_MSFontService,sans-serif" font-weight="700" font-size="92" transform="matrix(1 0 0 1 1516.8 2537)">意識および企業文化<tspan fill="#222A35" font-size="92" x="87.0831" y="-1251">PMI</tspan><tspan fill="#222A35" font-size="92" x="279.583" y="-1251">の統合対象</tspan></text></g></svg>