<svg xmlns="http://www.w3.org/2000/svg" viewBox="0 0 233.38 233.38"><defs><style>.cls-1{fill:none;}.cls-2,.cls-3{fill:#c7161d;}.cls-2{stroke:#c7161d;stroke-miterlimit:10;}</style></defs><g id="レイヤー_2" data-name="レイヤー 2"><g id="contents"><path class="cls-1" d="M70.57,127.19a72.33,72.33,0,0,0-13.33,7.65,60.25,60.25,0,0,0,31.88,17A78,78,0,0,1,70.57,127.19Z"/><path class="cls-1" d="M89.13,33.61a60.09,60.09,0,0,0-34,19.24,73.63,73.63,0,0,0,14,8.67A79,79,0,0,1,89.13,33.61Z"/><path class="cls-1" d="M131.45,97.35H102.6v18.41a80.6,80.6,0,0,1,24,4.11A74.54,74.54,0,0,0,131.45,97.35Z"/><path class="cls-1" d="M67.27,66.23a79.57,79.57,0,0,1-15.33-9.47,59.41,59.41,0,0,0-12,35.6H62.82A80.28,80.28,0,0,1,67.27,66.23Z"/><path class="cls-1" d="M127.83,69.09a79.07,79.07,0,0,1-25.23,4.65V92.32h29A75.08,75.08,0,0,0,127.83,69.09Z"/><path class="cls-1" d="M136.65,92.31l23.55,0a59.43,59.43,0,0,0-11.3-34.61,79.46,79.46,0,0,1-16.37,9.56A80.51,80.51,0,0,1,136.65,92.31Z"/><path class="cls-1" d="M130.78,62.5a73.93,73.93,0,0,0,15-8.79,59.78,59.78,0,0,0-35.62-20.25A78.86,78.86,0,0,1,130.78,62.5Z"/><path class="cls-1" d="M102.6,33.74V68.69a74,74,0,0,0,23.49-4.33A73.85,73.85,0,0,0,102.6,33.74Z"/><path class="cls-1" d="M63,97.38l-22.83,0a59.45,59.45,0,0,0,13.7,33.69,77.21,77.21,0,0,1,14.7-8.51A79.38,79.38,0,0,1,63,97.38Z"/><path class="cls-1" d="M131.29,121.63A77.71,77.71,0,0,1,147,130.25a59.6,59.6,0,0,0,13-32.92H136.5A79.35,79.35,0,0,1,131.29,121.63Z"/><path class="cls-1" d="M102.6,120.8v30.9a74.25,74.25,0,0,0,22-27.17A75.4,75.4,0,0,0,102.6,120.8Z"/><path class="cls-1" d="M110.17,152a60.09,60.09,0,0,0,33.52-17.92,72.75,72.75,0,0,0-14.34-7.78A77.86,77.86,0,0,1,110.17,152Z"/><path class="cls-1" d="M97.56,152.23V120.86a75.47,75.47,0,0,0-22.3,4.44A74.46,74.46,0,0,0,97.56,152.23Z"/><path class="cls-1" d="M73.73,63.53a74.22,74.22,0,0,0,23.83,5.1V33.21A74,74,0,0,0,73.73,63.53Z"/><path class="cls-1" d="M73.22,120.68a80.52,80.52,0,0,1,24.34-4.85V97.37H68A74.1,74.1,0,0,0,73.22,120.68Z"/><path class="cls-1" d="M67.86,92.35l29.7,0V73.67a79.09,79.09,0,0,1-25.64-5.43A75,75,0,0,0,67.86,92.35Z"/><path class="cls-2" d="M102.85,27.63l-6.2,0-.06,0a65.16,65.16,0,0,0,0,130.14l6.26,0a65.15,65.15,0,0,0,0-130.18ZM148.9,57.68a59.43,59.43,0,0,1,11.3,34.61l-23.55,0a80.23,80.23,0,0,0-4.13-25.07A79.27,79.27,0,0,0,148.9,57.68Zm-3.11-4a73.93,73.93,0,0,1-15,8.79,78.86,78.86,0,0,0-20.61-29A59.78,59.78,0,0,1,145.79,53.71Zm-43.19-20a73.85,73.85,0,0,1,23.49,30.62,74,74,0,0,1-23.49,4.33Zm0,40a79.07,79.07,0,0,0,25.23-4.65,75.08,75.08,0,0,1,3.78,23.22h-29Zm0,23.62h28.85a74.23,74.23,0,0,1-4.88,22.53,80.72,80.72,0,0,0-24-4.11V97.36ZM89.13,33.61a78.9,78.9,0,0,0-20,27.91,73.4,73.4,0,0,1-14-8.67A60.09,60.09,0,0,1,89.13,33.61ZM51.94,56.76a79.27,79.27,0,0,0,15.33,9.47,80.28,80.28,0,0,0-4.45,26.12H40A59.41,59.41,0,0,1,51.94,56.76Zm1.91,74.33A59.45,59.45,0,0,1,40.15,97.4H63a79.32,79.32,0,0,0,5.57,25.19A77.21,77.21,0,0,0,53.85,131.09Zm3.39,3.75a72.33,72.33,0,0,1,13.33-7.65,78,78,0,0,0,18.55,24.63A60.32,60.32,0,0,1,57.24,134.84Zm40.32,17.39a74.46,74.46,0,0,1-22.3-26.93,75.47,75.47,0,0,1,22.3-4.44Zm0-36.4a80.52,80.52,0,0,0-24.34,4.85A74.1,74.1,0,0,1,68,97.38H97.56Zm0-23.51-29.7,0a75,75,0,0,1,4.06-24.11,79.09,79.09,0,0,0,25.64,5.43Zm0-23.69a74.22,74.22,0,0,1-23.83-5.1A74,74,0,0,1,97.56,33.21Zm5,83.07V120.8a75.35,75.35,0,0,1,22,3.73A74.25,74.25,0,0,1,102.6,151.7Zm7.57.28a77.86,77.86,0,0,0,19.18-25.7,72.75,72.75,0,0,1,14.34,7.78A60.09,60.09,0,0,1,110.17,152ZM147,130.25a77.71,77.71,0,0,0-15.73-8.62,79.35,79.35,0,0,0,5.21-24.29H160A59.6,59.6,0,0,1,147,130.25Z"/><path class="cls-3" d="M104,167.18H126.1a1.57,1.57,0,0,1,1.48,1.65v27.5A1.57,1.57,0,0,1,126.1,198H111.83a1.58,1.58,0,0,1-1.48-1.65V181a1.57,1.57,0,0,0-1.48-1.65h-3.82a1.07,1.07,0,0,1-1-1.13Z"/><rect class="cls-3" x="94.42" y="195.2" width="6.32" height="7.46" rx="1.32"/><path class="cls-3" d="M134.41,183.77h16.5a1.5,1.5,0,0,1,1.51,1.5v6.12a1.52,1.52,0,0,1-1.51,1.51l-16.49-.06a1.51,1.51,0,0,1-1.51-1.5v-6.06A1.5,1.5,0,0,1,134.41,183.77Z"/><path class="cls-3" d="M132.93,181.42h28a1.22,1.22,0,0,1,1.22,1.22v10.18a1.23,1.23,0,0,0,1.23,1.23h27a1.23,1.23,0,0,0,1.22-1.23V138.29a2.24,2.24,0,0,0-2.24-2.24H171.45a1.23,1.23,0,0,0-1.23,1.23v27.41a1.22,1.22,0,0,1-1.22,1.22H132.93a1.23,1.23,0,0,0-1.22,1.23v13.05a1.21,1.21,0,0,0,1.15,1.22h.07Z"/><path class="cls-3" d="M177.69,107l21.44-.08a1,1,0,0,1,1,1L200,127.79a1,1,0,0,1-1,1l-19,0a1,1,0,0,0-1,1v3.72a1,1,0,0,1-1,1h-6.59a1,1,0,0,1-1-1V121.71a1,1,0,0,1,1-1l4.21-.06a1,1,0,0,0,1-1l.13-11.62A1,1,0,0,1,177.69,107Z"/><path class="cls-3" d="M219.21,5.67a8.51,8.51,0,0,1,8.5,8.5v205a8.51,8.51,0,0,1-8.5,8.5h-205a8.51,8.51,0,0,1-8.5-8.5v-205a8.51,8.51,0,0,1,8.5-8.5h205m0-5.67h-205A14.22,14.22,0,0,0,0,14.17v205a14.22,14.22,0,0,0,14.17,14.17h205a14.22,14.22,0,0,0,14.17-14.17v-205A14.22,14.22,0,0,0,219.21,0Z"/></g></g></svg>