<svg xmlns="http://www.w3.org/2000/svg" viewBox="0 0 846.34 591.67"><defs><style>.cls-1,.cls-6{fill:none;}.cls-1{stroke:#c7161d;stroke-miterlimit:10;stroke-width:5.34px;}.cls-2{fill:#c7161d;}.cls-3{fill:#fff;}.cls-4{fill:#c8161d;}.cls-5{fill:#231815;}.cls-6{stroke:#c8161d;stroke-linecap:round;stroke-linejoin:round;stroke-width:2.83px;}</style></defs><g id="レイヤー_2" data-name="レイヤー 2"><g id="追加項目"><rect class="cls-1" x="2.67" y="2.67" width="841" height="400" rx="17.45"/><rect class="cls-2" x="18.5" y="17.67" width="133" height="69" rx="12.35"/><rect class="cls-2" x="57.04" y="439.67" width="732.66" height="152" rx="12.73"/><path class="cls-3" d="M309.6,458.9h6.75l5.18,14.27c.66,1.9,1.23,3.91,1.85,5.85h.21c.66-1.94,1.19-3.95,1.85-5.85l5.06-14.27h6.74v30.48h-5.55V476.67c0-2.88.45-7.12.78-10h-.2l-2.47,7.16-4.69,12.8h-3.5l-4.73-12.8-2.43-7.16h-.16c.29,2.88.78,7.12.78,10v12.71H309.6Z"/><path class="cls-3" d="M342.18,481.32c0-4.24,2.67-6.71,5.72-8.64A14.31,14.31,0,0,1,346,466.1a7.61,7.61,0,0,1,8-7.74c4.36,0,7.08,2.64,7.08,6.63s-3.29,6.54-6.54,8.8a38.88,38.88,0,0,0,6.58,6.34,23,23,0,0,0,3.74-7.74h5.47a32.05,32.05,0,0,1-5.14,10.45,18.41,18.41,0,0,0,5.43,2.18L369.08,490a24.57,24.57,0,0,1-7.61-3.21,14.75,14.75,0,0,1-9.34,3.21C345.76,490,342.18,486.05,342.18,481.32Zm10.69,4a8.19,8.19,0,0,0,4.45-1.52,42.69,42.69,0,0,1-6.87-7.12c-1.49,1.28-2.51,2.63-2.51,4.28C347.94,483.54,350,485.31,352.87,485.31Zm-.78-15.14c2.39-1.44,4.24-2.92,4.24-5.14,0-1.52-.7-2.63-2.26-2.63-1.81,0-3.09,1.44-3.09,3.7A9.49,9.49,0,0,0,352.09,470.17Z"/><path class="cls-3" d="M380.88,458.9H388l9.79,30.48h-6.37l-2.14-7.81h-9.87l-2.14,7.81h-6.18Zm-.12,17.94H388l-.9-3.34c-1-3.16-1.77-6.66-2.64-9.95h-.2c-.78,3.33-1.69,6.79-2.59,9.95Z"/><path class="cls-3" d="M410.66,458.9h10c6.75,0,11.93,2.39,11.93,9.58,0,7-5.22,10.08-11.77,10.08h-4.07v10.82h-6.09Zm9.75,14.85c4.2,0,6.22-1.77,6.22-5.27s-2.23-4.73-6.42-4.73h-3.46v10Z"/><path class="cls-3" d="M443.9,458.9h7.16l9.79,30.48h-6.38l-2.14-7.81h-9.87l-2.14,7.81h-6.17Zm-.12,17.94H451l-.91-3.34c-.95-3.16-1.77-6.66-2.63-9.95h-.21c-.78,3.33-1.68,6.79-2.59,9.95Z"/><path class="cls-3" d="M464.38,458.9H475c6.37,0,11.43,2.26,11.43,9.25,0,4.57-2.3,7.41-5.8,8.77l7.12,12.46H481l-6.25-11.52h-4.24v11.52h-6.09Zm10,14.15c3.91,0,6.09-1.65,6.09-4.9s-2.18-4.4-6.09-4.4h-3.95v9.3Z"/><path class="cls-3" d="M492.39,458.9h6.09v13.25h.13l10.08-13.25h6.7l-9.3,12L517,489.38h-6.67l-7.9-13.7-4,5.15v8.55h-6.09Z"/><path class="cls-3" d="M552.07,472.36a39.11,39.11,0,0,1-5.09,1,48.51,48.51,0,0,1-6.13,11.82l-2-1a40.21,40.21,0,0,0,6-10.57c-.88.05-1.75.08-2.63.08-1,0-2.21,0-3.25-.08l-.12-1.9a30.92,30.92,0,0,0,3.37.17c1,0,2.12-.06,3.22-.14a22.06,22.06,0,0,0,.91-4.86l2.26.19c-.26,1-.65,2.77-1.1,4.41a27.43,27.43,0,0,0,4.44-1Zm3.2,3.37a23.5,23.5,0,0,0,0,2.91c0,1.07.14,3,.2,4.75a19.2,19.2,0,0,1,5.79,3.48l-1.1,1.72a19.44,19.44,0,0,0-4.61-3.22c0,.48,0,.9,0,1.27,0,2.18-1.47,4-4.84,4-3,0-5.51-1.19-5.51-3.93,0-2.55,2.49-4.13,5.51-4.13a15.17,15.17,0,0,1,2.83.28c-.11-2.32-.25-5.12-.31-7.09Zm-1.64,8.9a11.28,11.28,0,0,0-2.94-.42c-2.15,0-3.57,1-3.57,2.32s1.08,2.26,3.37,2.26,3.17-1.33,3.17-2.69C553.66,485.71,553.66,485.2,553.63,484.63Zm7.38-8.28a33.74,33.74,0,0,0-6.36-3.82l1-1.55a42,42,0,0,1,6.48,3.7Z"/><path class="cls-3" d="M571.59,480.42a13.35,13.35,0,0,1,9.21-3.51c4.19,0,7.07,2.52,7.07,5.8,0,5-4.55,8.28-14.7,7.44l-.62-2.07c8.9,1.08,13.2-1.55,13.2-5.46,0-2.29-2.15-3.9-5.06-3.9a11,11,0,0,0-8.79,3.79,4.64,4.64,0,0,0-.82,1.39l-1.93-.48a99.25,99.25,0,0,0,1.42-11.28l2.17.28C572.38,474.37,571.9,478.58,571.59,480.42Zm1.89-13a79.25,79.25,0,0,0,10.77,2.15l-.48,1.95c-2.63-.34-8.68-1.58-10.8-2.17Z"/><path class="cls-3" d="M599.72,490.88a45.92,45.92,0,0,0-6.27-6.28l1.64-1.47a54.06,54.06,0,0,1,6.36,6.31Z"/><path class="cls-3" d="M91.54,530.61c.86.08,1.69.13,2.62.13h15.68a15.74,15.74,0,0,0,2.29-.13v2.24a22.78,22.78,0,0,0-2.29-.1H94.16c-.93,0-1.79,0-2.62.1Zm2.23-12.89c.81,0,1.62.1,2.47.1h11.21a23.67,23.67,0,0,0,2.5-.1v2.08c-.71,0-1.67-.08-2.5-.08H96.24c-.88,0-1.69,0-2.47.08Z"/><path class="cls-3" d="M117.51,523.39c.76.07,2,.13,3.51.13h14.3c1.33,0,2.21-.08,2.76-.13v2.26c-.52,0-1.56-.11-2.73-.11H121c-1.43,0-2.73.06-3.51.11Z"/><path class="cls-3" d="M160.65,517.59a6.33,6.33,0,0,0-.6,1,33.08,33.08,0,0,1-4.42,7.72,73.43,73.43,0,0,1,7.64,7.83l-1.61,1.38a62.34,62.34,0,0,0-7.25-7.81,32.55,32.55,0,0,1-10.22,7.68l-1.48-1.57a29.47,29.47,0,0,0,10.73-7.77,23.75,23.75,0,0,0,4.4-7.38H147.46c-.91,0-2.31.1-2.54.13v-2.11c.28,0,1.74.16,2.54.16h10.2a6.32,6.32,0,0,0,1.82-.21Zm.34,0a29.6,29.6,0,0,0-2.11-3.62l1.27-.54a37.61,37.61,0,0,1,2.13,3.56Zm2-5.07a37.48,37.48,0,0,1,2.18,3.53l-1.27.6a27.33,27.33,0,0,0-2.16-3.59Z"/><path class="cls-3" d="M173.1,515.09a13.58,13.58,0,0,0-.44,1.61,59,59,0,0,0-1.28,10,28.36,28.36,0,0,0,.24,3.88c.44-1.23,1-2.84,1.48-3.9l1,.75c-.62,1.77-1.58,4.47-1.82,5.7a4.36,4.36,0,0,0-.1,1.11,8.18,8.18,0,0,0,.08.89l-1.69.13a32.44,32.44,0,0,1-.94-8.27,68.4,68.4,0,0,1,1.2-10.35,12.75,12.75,0,0,0,.15-1.69ZM179,527.52a8.94,8.94,0,0,0-.39,2.39c0,1.17.78,2.4,4.44,2.4a27.65,27.65,0,0,0,6.37-.68l0,2a34.42,34.42,0,0,1-6.39.52c-4.29,0-6.19-1.44-6.19-3.8a13.69,13.69,0,0,1,.42-3Zm9.64-10.43V519a65.48,65.48,0,0,1-10.48,0v-1.9A42.7,42.7,0,0,0,188.62,517.09Z"/><path class="cls-3" d="M205.65,512.86a31.69,31.69,0,0,0,11.47,9.36A9,9,0,0,0,216,523.7a35.89,35.89,0,0,1-11.1-9.13,33.3,33.3,0,0,1-10.84,9.31,8.86,8.86,0,0,0-1.1-1.38,29.6,29.6,0,0,0,11-9.64Zm-8.5,13.31h15.7v10.3h-1.74V535.4H198.84v1.07h-1.69Zm14.35-4.92v1.56H198.45v-1.56Zm-12.66,6.48v6.11h12.27v-6.11Z"/><path class="cls-3" d="M232,522a23.45,23.45,0,0,0-7.07,1.33,19.44,19.44,0,0,0-2.13.73l-.6-2.16a15,15,0,0,0,2.29-.39,33.62,33.62,0,0,1,7.67-1.25c3.59,0,6.32,2,6.32,5.62,0,5.59-5,8.71-11.57,9.72l-1.09-1.77c6.21-.8,10.68-3.33,10.68-8C236.46,523.52,234.64,522,232,522Zm4.42-6.45-.28,1.8c-2.84-.18-8-.7-10.84-1.22l.28-1.77A74.91,74.91,0,0,0,236.38,515.53Z"/><path class="cls-3" d="M252.82,518.52H244.5v-1.4h8.32Zm-7.28,2.06h6.6V522h-6.6Zm0,3.46h6.6v1.4h-6.6ZM252.11,535h-5.17v1.25h-1.4v-8.72h6.57Zm0-19.84h-6.37v-1.41h6.37Zm-5.15,13.81v4.6h3.72v-4.6Zm20.8,1.35a24.32,24.32,0,0,1-3.46,2.13,10.11,10.11,0,0,0,4.32,2.76,5.23,5.23,0,0,0-1,1.27,12.07,12.07,0,0,1-7.12-7.7h-.16a13.71,13.71,0,0,1-2.28,1.87v3.62l4.47-.75.1,1.29c-2.91.55-5.9,1.1-8.19,1.46l-.47-1.38c.76-.1,1.64-.23,2.58-.39v-2.94a23.55,23.55,0,0,1-3.17,1.46,7.07,7.07,0,0,0-1-1.17,19.77,19.77,0,0,0,6-3.07H253v-1.3h4.18v-1.56h-2.68v-1.24h2.68v-1.57h-3.27v-1.24h3.27v-2h1.56v2h3.85v-2h1.56v2h3.56v1.24H264.1v1.57h3v1.24h-3v1.56h4.16v1.3H262a10.85,10.85,0,0,0,1.51,2.71,30.6,30.6,0,0,0,3.25-2.11Zm-8.58-12.87a17.83,17.83,0,0,1-5.2,3.51,8.08,8.08,0,0,0-1.17-1.17,14.44,14.44,0,0,0,4.86-2.79Zm8.81-.81H253.31v-1.38h6.37V512.8h1.72v2.42H268Zm-9.28,8h3.85v-1.57h-3.85Zm0,2.8h3.85v-1.56h-3.85Zm4.42-10.53a25.14,25.14,0,0,1,5.18,2.81l-1.09,1a22.29,22.29,0,0,0-5.18-3Z"/><path class="cls-3" d="M274.66,524a19.38,19.38,0,0,0-4.45-2.75l1-1.28a19.53,19.53,0,0,1,4.47,2.63Zm1.4,3.72c-1.12,2.76-2.65,6-3.93,8.43l-1.56-1a73.43,73.43,0,0,0,4.14-8.37Zm-.13-10.48a17,17,0,0,0-4.26-2.83l1-1.27a16.77,16.77,0,0,1,4.29,2.73Zm3.54,5.23c0,4.13-.39,10-3.1,14a6.45,6.45,0,0,0-1.43-.83c2.63-3.82,2.89-9.23,2.89-13.13v-7h7.28V512.8h1.71v2.68h6.84V517H279.47v2.89h3v-2.14H284v2.14h5v-2.14h1.61v2.14h3.2v1.43h-3.2v4.08h-8.19v-4.08h-3Zm12.92,4.89A12.69,12.69,0,0,1,288,533a19.54,19.54,0,0,0,6.14,2,7.15,7.15,0,0,0-1,1.43,18.39,18.39,0,0,1-6.55-2.52,22.88,22.88,0,0,1-6.76,2.52,6.71,6.71,0,0,0-.86-1.43,21,21,0,0,0,6.27-2.08,12.42,12.42,0,0,1-3.36-4.18l1.15-.34h-2.79V527h10.87l.31-.08Zm-9,1a10.48,10.48,0,0,0,3.22,3.69,11.29,11.29,0,0,0,3.56-3.69Zm.67-7.07V524h5v-2.67Z"/><path class="cls-3" d="M310.15,530a23.42,23.42,0,0,0,9.77,4.73,6.75,6.75,0,0,0-1.09,1.43,23.91,23.91,0,0,1-10.24-5.77v6.06H306.9v-6a23.73,23.73,0,0,1-10,5.62,6.56,6.56,0,0,0-1.09-1.38,22.76,22.76,0,0,0,9.65-4.73h-9.21v-1.46H306.9V526.3h1.69v2.23h10.79V530Zm-10-6.45c.73-.83,1.61-1.87,2.5-3h-5.93V519.1h7c.68-.86,1.3-1.72,1.85-2.47l1.59.49c-.45.62-.94,1.3-1.46,2H319v1.45h-5.1a8.67,8.67,0,0,1-3,3.56,71.2,71.2,0,0,1,6.81,2.08l-1,1.25a71.93,71.93,0,0,0-7.54-2.36c-2.54,1.14-6.13,1.84-11.23,2.21a4.74,4.74,0,0,0-.57-1.38,41.09,41.09,0,0,0,9.39-1.43c-1.54-.39-3.07-.73-4.53-1l-.52.63Zm-1.51-5.09H297v-3.7h9.93v-2h1.69v2h10.14v3.7h-1.66v-2.21H298.6Zm6,2.1c-.49.63-1,1.22-1.43,1.8,1.82.34,3.8.78,5.77,1.24a6.94,6.94,0,0,0,3.15-3Z"/><path class="cls-3" d="M329.28,513.38a44.57,44.57,0,0,1-2.6,5.66v17.4H325V521.72A30.77,30.77,0,0,1,322.5,525a12.36,12.36,0,0,0-1-1.69,29.61,29.61,0,0,0,6.13-10.43Zm15.86,14.06H338v9H336.3v-9h-7.51v-1.66h7.51v-6H332a19.18,19.18,0,0,1-1.93,4.06,12.05,12.05,0,0,0-1.48-.88,23.11,23.11,0,0,0,3.2-8.92l1.64.31a29.65,29.65,0,0,1-.91,3.77h3.74v-5H338v5h6v1.66h-6v6h7.12Z"/><path class="cls-3" d="M352.4,516c.18.39.62,1.2.88,1.64.47.86,1,1.92,1.56,3,3.07-1.35,6.6-2.78,9.28-2.78,3.51,0,5.67,2,5.67,4.76s-1.82,5.09-5.85,5.09a11.32,11.32,0,0,1-3.82-.7l.05-1.87a8.52,8.52,0,0,0,3.67.86c3,0,4.08-1.64,4.08-3.46,0-1.59-1.2-3-3.85-3-2.29,0-5.51,1.25-8.53,2.63.37.75.7,1.51,1,2.23,1.46,3.28,3,7.94,3.9,10.77l-2,.52a76.8,76.8,0,0,0-3.51-10.53l-1-2.21c-2,1-3.82,1.9-5,2.44l-.91-2a17.27,17.27,0,0,0,2.06-.67c.85-.34,1.95-.84,3.14-1.36-.57-1.19-1.09-2.21-1.53-2.93a12.68,12.68,0,0,0-1.2-1.75Zm7.93,1.74a36.29,36.29,0,0,0-3.36-3l1.33-1a33.35,33.35,0,0,1,3.35,2.89Z"/><path class="cls-3" d="M377.46,524a17.61,17.61,0,0,0-4.37-2.78l1-1.25a18.88,18.88,0,0,1,4.39,2.63Zm-3.74,11.13a73.56,73.56,0,0,0,4.08-8.39l1.38,1c-1.15,2.76-2.66,6-3.93,8.43Zm4.94-17.83a18.83,18.83,0,0,0-4.32-3l1-1.22a17.59,17.59,0,0,1,4.35,2.83Zm4.75.36a19.34,19.34,0,0,1-2.73,4.16,6.85,6.85,0,0,0-1.48-1,21,21,0,0,0,4.32-8.06l1.71.39c-.31,1-.67,2-1.06,2.91h12.45v1.56Zm11.29,9.44c-.11,1.69-.21,3.07-.34,4.19H397v1.53h-2.78a5.4,5.4,0,0,1-.91,2.73,2,2,0,0,1-1.72.86,25.71,25.71,0,0,1-3.33,0,3.1,3.1,0,0,0-.41-1.44c1.38.08,2.6.08,3.09.08a1.12,1.12,0,0,0,1-.33,4.47,4.47,0,0,0,.62-1.85h-9.95c-.08.42-.13.81-.21,1.17l-1.67-.18c.37-1.77.78-4.19,1.15-6.71h-2.45v-1.59h2.68c.26-1.9.5-3.77.65-5.38H395v.83c-.08,1.69-.16,3.2-.21,4.55h2.29v1.59Zm-11.29,0c-.18,1.45-.39,2.89-.59,4.19h4c.16-1.2.34-2.66.49-4.19Zm.71-5.43c-.13,1.22-.32,2.54-.47,3.84h3.85c.13-1.32.26-2.65.33-3.84Zm8.63,9.62c.13-1.1.23-2.47.34-4.19h-4.27c-.18,1.53-.34,3-.52,4.19Zm.44-5.78c.05-1.14.1-2.42.16-3.84h-4c-.08,1.22-.21,2.52-.34,3.84Z"/><path class="cls-3" d="M417,524.71a22.35,22.35,0,0,0,6.14,4.24,6.21,6.21,0,0,0-1.22,1.43A23.43,23.43,0,0,1,417,527v9.46h-1.77V525.26a29.73,29.73,0,0,1-4-5.28c-1.87,8.37-5.85,13.6-10.84,16.36a7,7,0,0,0-1.38-1.28,19,19,0,0,0,7.83-7.8,32.89,32.89,0,0,0-5.18-3.85,14.46,14.46,0,0,1-1.77,2.08,10.69,10.69,0,0,0-1.43-1.09c2.86-2.68,5.05-6.94,6.27-11.62l1.69.36a37.83,37.83,0,0,1-1.2,3.64h5.13l.33-.08,1.1.42c-.11.75-.24,1.46-.39,2.16l1-.39a21.47,21.47,0,0,0,2.83,4V512.8H417Zm-12.45-6.31a26.49,26.49,0,0,1-2,3.74,34.13,34.13,0,0,1,5.07,3.56,31,31,0,0,0,2.21-7.3Z"/><path class="cls-3" d="M437,512.73a32.83,32.83,0,0,0,11.41,10.21,7.92,7.92,0,0,0-1.17,1.49,36.76,36.76,0,0,1-11-10,34.73,34.73,0,0,1-10.76,10.14,6.34,6.34,0,0,0-1.09-1.35,31.33,31.33,0,0,0,10.89-10.53Zm.39,21.4h10v1.58h-22v-1.58h3.38v-9.7h1.69v9.7h5.18V519.72h1.77v6.16H445v1.54h-7.56Z"/><path class="cls-3" d="M464.56,530.25a24.35,24.35,0,0,0,9.46,4.34,5.83,5.83,0,0,0-1.14,1.51,24.79,24.79,0,0,1-10-5.49v5.86h-1.69v-5.73A25.48,25.48,0,0,1,451.3,536a5.88,5.88,0,0,0-1.12-1.45,25,25,0,0,0,9.36-4.32h-8.68v-1.48h10.35v-2H453.3v-1.38h7.91v-2H452v-1.43h5.8a11.71,11.71,0,0,0-1.33-2.71l1-.2H451v-1.51h4.27a18.77,18.77,0,0,0-2.14-3.88l1.46-.49a16.41,16.41,0,0,1,2.26,3.87l-1.35.5h3.35v-4.68h1.59v4.68h3.33v-4.68h1.61v4.68h3.33l-1-.34a27.63,27.63,0,0,0,2-4l1.77.47c-.76,1.35-1.59,2.83-2.32,3.85h4.14V519h-5.49l.18,0c-.52,1-1.14,2.05-1.66,2.86h6.06v1.43H462.9v2h8.21v1.38H462.9v2h10.5v1.48ZM458.19,519a13.22,13.22,0,0,1,1.38,2.73l-.81.18h6.35l-.42-.13a19.51,19.51,0,0,0,1.4-2.78Z"/><path class="cls-3" d="M487.52,533.37a15.12,15.12,0,0,0,2.16-.31c3.3-.7,6.65-3.17,6.65-7.75a7.3,7.3,0,0,0-7.12-7.57,50.2,50.2,0,0,1-1.51,7.49c-1.59,5.31-3.61,8-5.93,8s-4.47-2.58-4.47-6.81c0-5.52,4.94-10.35,11.15-10.35,6,0,9.78,4.21,9.78,9.36,0,5.38-3.59,9-9.65,9.72Zm-1.67-8.55a40.39,40.39,0,0,0,1.46-7.05c-5,.6-8.19,4.89-8.19,8.48,0,3.35,1.59,4.81,2.73,4.81S484.5,529.34,485.85,524.82Z"/><path class="cls-3" d="M510,518.52h-8.32v-1.4H510Zm-7.28,2.06h6.6V522h-6.6Zm0,3.46h6.6v1.4h-6.6ZM509.25,535h-5.17v1.25h-1.4v-8.72h6.57Zm0-19.84h-6.37v-1.41h6.37Zm-5.15,13.81v4.6h3.72v-4.6Zm20.8,1.35a24.32,24.32,0,0,1-3.46,2.13,10.11,10.11,0,0,0,4.32,2.76,5.23,5.23,0,0,0-1,1.27,12.07,12.07,0,0,1-7.12-7.7h-.16a13.71,13.71,0,0,1-2.28,1.87v3.62l4.47-.75.1,1.29c-2.91.55-5.9,1.1-8.19,1.46l-.47-1.38c.76-.1,1.64-.23,2.58-.39v-2.94a23.55,23.55,0,0,1-3.17,1.46,7.07,7.07,0,0,0-1-1.17,19.77,19.77,0,0,0,6-3.07h-5.4v-1.3h4.18v-1.56h-2.68v-1.24h2.68v-1.57H511v-1.24h3.27v-2h1.56v2h3.85v-2h1.56v2h3.56v1.24h-3.56v1.57h3v1.24h-3v1.56h4.16v1.3h-6.29a10.85,10.85,0,0,0,1.51,2.71,30.6,30.6,0,0,0,3.25-2.11Zm-8.58-12.87a17.83,17.83,0,0,1-5.2,3.51,8.08,8.08,0,0,0-1.17-1.17,14.44,14.44,0,0,0,4.86-2.79Zm8.81-.81H510.45v-1.38h6.37V512.8h1.72v2.42h6.57Zm-9.28,8h3.85v-1.57h-3.85Zm0,2.8h3.85v-1.56h-3.85Zm4.42-10.53a25.14,25.14,0,0,1,5.18,2.81l-1.1,1a22.21,22.21,0,0,0-5.17-3Z"/><path class="cls-3" d="M531.8,524a19.38,19.38,0,0,0-4.45-2.75l1-1.28a19.53,19.53,0,0,1,4.47,2.63Zm1.4,3.72c-1.12,2.76-2.65,6-3.93,8.43l-1.56-1a73.43,73.43,0,0,0,4.14-8.37Zm-.13-10.48a17.21,17.21,0,0,0-4.26-2.83l1-1.27a16.77,16.77,0,0,1,4.29,2.73Zm3.54,5.23c0,4.13-.39,10-3.1,14a6.45,6.45,0,0,0-1.43-.83c2.63-3.82,2.89-9.23,2.89-13.13v-7h7.28V512.8H544v2.68h6.84V517H536.61v2.89h3v-2.14h1.53v2.14h5.05v-2.14h1.61v2.14H551v1.43h-3.2v4.08h-8.19v-4.08h-3Zm12.92,4.89a12.69,12.69,0,0,1-4.4,5.62,19.54,19.54,0,0,0,6.14,2,7.15,7.15,0,0,0-1,1.43,18.39,18.39,0,0,1-6.55-2.52,22.88,22.88,0,0,1-6.76,2.52,6.71,6.71,0,0,0-.86-1.43,21,21,0,0,0,6.27-2.08,12.42,12.42,0,0,1-3.36-4.18l1.15-.34h-2.79V527H548.2l.31-.08Zm-9,1a10.48,10.48,0,0,0,3.22,3.69,11.29,11.29,0,0,0,3.56-3.69Zm.67-7.07V524h5.05v-2.67Z"/><path class="cls-3" d="M567.29,530a23.42,23.42,0,0,0,9.77,4.73,6.75,6.75,0,0,0-1.09,1.43,23.91,23.91,0,0,1-10.24-5.77v6.06H564v-6a23.73,23.73,0,0,1-10,5.62,6.56,6.56,0,0,0-1.09-1.38,22.76,22.76,0,0,0,9.65-4.73H553.4v-1.46H564V526.3h1.69v2.23h10.79V530Zm-10-6.45c.73-.83,1.61-1.87,2.49-3h-5.92V519.1h7c.68-.86,1.3-1.72,1.85-2.47l1.59.49c-.45.62-.94,1.3-1.46,2h13.34v1.45h-5.1a8.67,8.67,0,0,1-3,3.56,71.2,71.2,0,0,1,6.81,2.08l-1,1.25a71.93,71.93,0,0,0-7.54-2.36c-2.54,1.14-6.13,1.84-11.23,2.21a4.74,4.74,0,0,0-.57-1.38,41.09,41.09,0,0,0,9.39-1.43c-1.54-.39-3.07-.73-4.53-1l-.52.63Zm-1.51-5.09h-1.61v-3.7h9.93v-2h1.69v2h10.14v3.7h-1.66v-2.21H555.74Zm6,2.1c-.49.63-1,1.22-1.43,1.8,1.82.34,3.8.78,5.77,1.24a6.94,6.94,0,0,0,3.15-3Z"/><path class="cls-3" d="M586.42,513.38a44.57,44.57,0,0,1-2.6,5.66v17.4h-1.64V521.72a30.77,30.77,0,0,1-2.54,3.28,12.36,12.36,0,0,0-1-1.69,29.61,29.61,0,0,0,6.13-10.43Zm15.86,14.06h-7.12v9h-1.72v-9h-7.51v-1.66h7.51v-6h-4.26a19.18,19.18,0,0,1-1.93,4.06,12.05,12.05,0,0,0-1.48-.88,23.11,23.11,0,0,0,3.2-8.92l1.64.31a29.65,29.65,0,0,1-.91,3.77h3.74v-5h1.72v5h6v1.66h-6v6h7.12Z"/><path class="cls-3" d="M616.82,531.06c.07-1,.1-2.79.1-4.16-2.47,1.3-4.26,2.7-4.26,4.47,0,2.13,2.13,2.39,4.81,2.39a45.12,45.12,0,0,0,7-.6l-.08,1.9a64.37,64.37,0,0,1-7,.42c-3.62,0-6.58-.76-6.58-3.85s3-4.91,6.06-6.48a2.18,2.18,0,0,0-2.39-1.71,6.62,6.62,0,0,0-4.5,1.92c-.73.7-1.48,1.64-2.34,2.66l-1.61-1.2a26.66,26.66,0,0,0,6-8h-1.23c-1.09,0-2.78-.06-4.21-.16v-1.77a37.61,37.61,0,0,0,4.32.26c.57,0,1.14,0,1.77,0a14.22,14.22,0,0,0,.67-3.23l1.9.16a27.16,27.16,0,0,1-.78,3,57.87,57.87,0,0,0,8-.78v1.75a75.54,75.54,0,0,1-8.58.72,18.29,18.29,0,0,1-2.45,4.22,7.23,7.23,0,0,1,3.67-1,3.22,3.22,0,0,1,3.4,2.39c1.88-.89,3.51-1.51,4.92-2.19.73-.31,1.32-.59,2-.93l.76,1.74c-.6.18-1.46.52-2.13.78-1.51.6-3.41,1.35-5.41,2.31,0,1.49.05,3.72.08,5Z"/><path class="cls-3" d="M635.2,526.35v8.06c0,1-.21,1.48-.83,1.77a8.67,8.67,0,0,1-3.18.29,6.68,6.68,0,0,0-.52-1.59c1.17,0,2.16,0,2.47,0s.47-.1.47-.49v-7.54l-3.22,1.07-.47-1.67c1-.28,2.29-.67,3.69-1.12v-5.48h-3.33v-1.59h3.33V512.8h1.59v5.28h2.91v1.59H635.2v5c.88-.29,1.79-.58,2.68-.89l.23,1.61ZM648,527.68a16.7,16.7,0,0,0,6.43,6.16,8.06,8.06,0,0,0-1.2,1.33,18.73,18.73,0,0,1-6.4-6.61v7.91H645.1v-7.86a17.06,17.06,0,0,1-6.91,6.69,6.43,6.43,0,0,0-1.12-1.33,14.94,14.94,0,0,0,6.86-6.29h-5.51v-1.59h6.68v-2.83h1.69v2.83h6.87v1.59Zm-3.3-11c-.28,4-1.3,6.16-5.48,7.3a4.71,4.71,0,0,0-.89-1.22c3.72-1,4.53-2.68,4.76-6.08Zm-4.26,2.1h-1.51v-4.52h14.53v4.45h-1.56v-2.92H640.4Zm8.34-2.15v4.7c0,.57.11.65.78.65h2.27c.59,0,.72-.26.78-2.31a4.84,4.84,0,0,0,1.4.57c-.16,2.52-.62,3.17-2,3.17h-2.65c-1.77,0-2.18-.44-2.18-2v-4.73Z"/><path class="cls-3" d="M663.54,514.42c-.13.78-.18,1.61-.24,2.41-.1,2.94-.31,9.08-.31,13.06,0,2.86,1.87,3.87,4.34,3.87,4.81,0,7.47-2.68,9.31-5.36l1.3,1.62a12.81,12.81,0,0,1-10.66,5.61c-3.61,0-6.13-1.48-6.13-5.64,0-3.9.26-10.35.26-13.16a11.93,11.93,0,0,0-.21-2.44Z"/><path class="cls-3" d="M696.12,519.15c-1.72.36-3.59.67-5.41.88-.24,1.12-.52,2.32-.81,3.43a74.39,74.39,0,0,1-4,11.76l-2-.68A56.64,56.64,0,0,0,688.11,523c.23-.86.47-1.84.7-2.83-.91.08-1.74.1-2.5.1-1.11,0-2,0-3-.1l-.05-1.82a23.27,23.27,0,0,0,3.07.18c.85,0,1.79,0,2.8-.13.19-1,.34-1.82.42-2.37a9.21,9.21,0,0,0,.1-2l2.24.18c-.16.55-.34,1.48-.44,2l-.42,2.08a46.07,46.07,0,0,0,5-1Zm-1.12,9.1a9.05,9.05,0,0,0-.39,2.34c0,1.25.57,2.47,4.39,2.47a27.76,27.76,0,0,0,5-.5l-.07,1.88a33.56,33.56,0,0,1-4.94.36c-4,0-6.11-1.22-6.11-3.77a15.77,15.77,0,0,1,.36-2.94Zm-.5-6.24c1.33-.11,3-.21,4.66-.21a42,42,0,0,1,4.44.23l-.05,1.77a32.6,32.6,0,0,0-4.31-.31,39.29,39.29,0,0,0-4.74.29Z"/><path class="cls-3" d="M715,514.16a50.12,50.12,0,0,0-1.22,7.46c1-2.78,3.74-6.16,7.07-6.16s5.83,3.43,5.83,8.78c0,7.13-4.53,10.22-10.82,11.37l-1.09-1.67c5.54-.83,10-3.17,10-9.64,0-4.11-1.35-7.15-4.18-7.15-3.23,0-6.27,4.68-6.61,8.06a10.62,10.62,0,0,0,0,3.22l-1.82.16a31.27,31.27,0,0,1-.26-4.06,65.93,65.93,0,0,1,.81-8.32c.1-.81.16-1.53.21-2.13Z"/><path class="cls-3" d="M739.12,535.89a41.92,41.92,0,0,0-5.77-5.77l1.51-1.35a50,50,0,0,1,5.85,5.8Z"/><path class="cls-3" d="M197.29,553c3.25.83,5.15,3.22,5.15,6,0,3.7-2.49,6.84-8.4,7.8l-1-1.58c4.58-.5,7.59-2.86,7.59-6.32a4.69,4.69,0,0,0-3.87-4.5,22.07,22.07,0,0,1-5.72,8.43c.18.72.39,1.43.59,2.08l-1.68.52c-.16-.47-.29-1-.45-1.51a8.81,8.81,0,0,1-4.39,1.48,2.84,2.84,0,0,1-3-3.15c0-3.32,2.94-6.73,6.45-8.32.05-1.32.18-2.65.28-3.87-.57,0-1.14,0-1.69,0-1.06,0-3.07-.1-4.08-.15l0-1.8a33.78,33.78,0,0,0,4.16.32c.62,0,1.22,0,1.85,0,.07-.8.15-1.51.2-2.08a8,8,0,0,0,.05-1.14l2,0a6.7,6.7,0,0,0-.26,1.09c-.1.55-.23,1.25-.34,2a53.52,53.52,0,0,0,9.05-1.07l0,1.74a82.13,82.13,0,0,1-9.29,1c-.1,1-.18,2.15-.25,3.3a16.27,16.27,0,0,1,4.39-.7c.34,0,.68,0,1,.05l.11-.42A11,11,0,0,0,196,551l1.87.44a13.74,13.74,0,0,0-.47,1.33Zm-8.81,2.75c-2.6,1.43-4.6,4.08-4.6,6.27,0,1.09.52,1.64,1.5,1.64a6.87,6.87,0,0,0,3.72-1.46,31.29,31.29,0,0,1-.62-5.8Zm6.6-1.56h-.49a12.51,12.51,0,0,0-4.45.83c0,.39,0,.81,0,1.2a26.16,26.16,0,0,0,.46,4.73A17.25,17.25,0,0,0,195.08,554.17Z"/><path class="cls-3" d="M219.6,550.06a35.48,35.48,0,0,1-4.68.94,44.65,44.65,0,0,1-5.64,10.87l-1.82-.94a36.8,36.8,0,0,0,5.56-9.72c-.8,0-1.61.07-2.41.07-1,0-2,0-3-.07l-.1-1.75a26.22,26.22,0,0,0,3.1.16c.93,0,1.94,0,3-.13a19.49,19.49,0,0,0,.83-4.47l2.08.18c-.23.94-.6,2.55-1,4.06a25.15,25.15,0,0,0,4.08-1Zm2.94,3.1a21.58,21.58,0,0,0,0,2.67c0,1,.13,2.73.18,4.37a17.84,17.84,0,0,1,5.33,3.2L227,565a18,18,0,0,0-4.24-3c0,.45,0,.84,0,1.17,0,2-1.35,3.64-4.44,3.64-2.78,0-5.07-1.09-5.07-3.61,0-2.34,2.29-3.8,5.07-3.8a14.5,14.5,0,0,1,2.6.26c-.11-2.13-.24-4.7-.29-6.52ZM221,561.35a9.89,9.89,0,0,0-2.7-.39c-2,0-3.28.88-3.28,2.13s1,2.08,3.1,2.08,2.91-1.22,2.91-2.47C221.06,562.34,221.06,561.87,221,561.35Zm6.79-7.62a30.86,30.86,0,0,0-5.85-3.51l.93-1.43a39.29,39.29,0,0,1,6,3.4Z"/><path class="cls-3" d="M246.12,550.35c-1.71.36-3.59.67-5.41.88-.23,1.12-.52,2.32-.8,3.43a75.42,75.42,0,0,1-4,11.76l-2.06-.68a56.05,56.05,0,0,0,4.29-11.52c.24-.86.47-1.84.71-2.83-.91.08-1.75.1-2.5.1-1.12,0-2,0-3-.1l-.06-1.82a21.83,21.83,0,0,0,3.07.18c.86,0,1.79,0,2.81-.13.18-1,.34-1.82.42-2.37a9.85,9.85,0,0,0,.1-2l2.24.18c-.16.55-.34,1.48-.45,2l-.41,2.08a45.89,45.89,0,0,0,5-1Zm-1.12,9.1a9.5,9.5,0,0,0-.39,2.34c0,1.25.58,2.47,4.4,2.47a28.81,28.81,0,0,0,5-.49l-.08,1.87A33.46,33.46,0,0,1,249,566c-4,0-6.11-1.22-6.11-3.77a15.84,15.84,0,0,1,.37-2.94Zm-.49-6.24c1.33-.1,3-.21,4.65-.21a42.3,42.3,0,0,1,4.45.23l-.05,1.77a32.88,32.88,0,0,0-4.32-.31,41.42,41.42,0,0,0-4.73.29Z"/><path class="cls-3" d="M269,564.57a15.12,15.12,0,0,0,2.16-.31c3.3-.7,6.65-3.17,6.65-7.75a7.3,7.3,0,0,0-7.12-7.57,49.94,49.94,0,0,1-1.51,7.49c-1.58,5.31-3.61,8-5.93,8s-4.47-2.58-4.47-6.81c0-5.52,4.94-10.35,11.16-10.35,6,0,9.77,4.21,9.77,9.36,0,5.38-3.59,9-9.64,9.72ZM267.28,556a40.39,40.39,0,0,0,1.46-7c-5,.6-8.19,4.89-8.19,8.48,0,3.35,1.59,4.81,2.73,4.81S265.93,560.54,267.28,556Z"/><path class="cls-3" d="M303.58,545.64v21.92h-1.79v-1.79H287.93v1.79h-1.74V545.64Zm-15.65,1.69v4.45h13.86v-4.45Zm0,6.09v4.49h13.86v-4.49Zm13.86,10.66v-4.53H287.93v4.53Z"/><path class="cls-3" d="M315.91,544.29c-.42,1.27-.92,2.73-1.38,3.85h4.39v16.8h-7.28V567h-1.59V548.14h2.89a28.5,28.5,0,0,0,1.12-4.21Zm1.42,5.41h-5.69v5.67h5.69Zm0,13.68v-6.45h-5.69v6.45ZM331.66,549c-.41,11.93-.78,15.91-1.82,17.16a2.44,2.44,0,0,1-2,1,34.11,34.11,0,0,1-3.82-.06,4.09,4.09,0,0,0-.57-1.69c1.69.16,3.25.16,3.82.16s.84,0,1.1-.39c.85-.91,1.27-4.91,1.61-15.47h-6.81a24.33,24.33,0,0,1-2.45,4.63,16.81,16.81,0,0,0-1.46-1,25.58,25.58,0,0,0,4-9.49l1.67.37c-.34,1.3-.7,2.6-1.15,3.85h7.88Zm-5.54,11.7a45.18,45.18,0,0,0-4-6l1.33-.77a43.94,43.94,0,0,1,4.16,5.9Z"/><path class="cls-3" d="M340.24,546.29a13.58,13.58,0,0,0-.44,1.61,59,59,0,0,0-1.27,10,28.34,28.34,0,0,0,.23,3.88c.44-1.22,1-2.84,1.48-3.9l1,.75a54.74,54.74,0,0,0-1.82,5.7,4.4,4.4,0,0,0-.11,1.11,8.18,8.18,0,0,0,.08.89l-1.69.13a32.44,32.44,0,0,1-.94-8.27A68.4,68.4,0,0,1,338,547.8a12.83,12.83,0,0,0,.16-1.69Zm5.88,12.43a8.94,8.94,0,0,0-.39,2.39c0,1.17.78,2.4,4.44,2.4a27.65,27.65,0,0,0,6.37-.68l.06,2a34.54,34.54,0,0,1-6.4.52c-4.29,0-6.19-1.43-6.19-3.8a13.77,13.77,0,0,1,.42-3Zm9.64-10.43v1.93a65.48,65.48,0,0,1-10.48,0v-1.9A42.21,42.21,0,0,0,355.76,548.29Z"/><path class="cls-3" d="M377.29,553c3.25.83,5.15,3.22,5.15,6,0,3.7-2.5,6.84-8.4,7.8l-1-1.58c4.57-.5,7.59-2.86,7.59-6.32a4.69,4.69,0,0,0-3.87-4.5,22.07,22.07,0,0,1-5.72,8.43c.18.72.38,1.43.59,2.08l-1.69.52c-.15-.47-.28-1-.44-1.51a8.81,8.81,0,0,1-4.39,1.48,2.84,2.84,0,0,1-3-3.15c0-3.32,2.93-6.73,6.45-8.32.05-1.32.18-2.65.28-3.87-.57,0-1.14,0-1.69,0-1.07,0-3.07-.1-4.08-.15l-.05-1.8a33.78,33.78,0,0,0,4.16.32c.62,0,1.22,0,1.84,0,.08-.8.16-1.51.21-2.08a8,8,0,0,0,0-1.14l2,0a6.7,6.7,0,0,0-.26,1.09c-.1.55-.23,1.25-.34,2a53.52,53.52,0,0,0,9-1.07l0,1.74a82.13,82.13,0,0,1-9.29,1c-.1,1-.18,2.15-.26,3.3a16.4,16.4,0,0,1,4.4-.7c.34,0,.67,0,1,.05l.11-.42A13.4,13.4,0,0,0,376,551l1.87.44a13.74,13.74,0,0,0-.47,1.33Zm-8.81,2.75c-2.6,1.43-4.61,4.08-4.61,6.27,0,1.09.53,1.64,1.51,1.64a6.87,6.87,0,0,0,3.72-1.46,31.29,31.29,0,0,1-.62-5.8Zm6.6-1.56h-.49a12.51,12.51,0,0,0-4.45.83c0,.39,0,.81,0,1.2a26.15,26.15,0,0,0,.47,4.73A17.36,17.36,0,0,0,375.08,554.17Z"/><path class="cls-3" d="M391.49,554.8c1.84-.6,6.05-2.14,9.07-2.14,3.56,0,6.22,2.16,6.22,5.59,0,5-4.92,7.44-11.65,7.86l-.73-1.8c5.51-.18,10.48-1.77,10.48-6.08,0-2.21-1.74-3.88-4.45-3.88-3.22,0-8.94,2.39-10.5,3l-.78-2A17.44,17.44,0,0,0,391.49,554.8Z"/><path class="cls-3" d="M426.12,550.35c-1.72.36-3.59.67-5.41.88-.23,1.12-.52,2.32-.8,3.43a74.37,74.37,0,0,1-4,11.76l-2.05-.68a56.64,56.64,0,0,0,4.29-11.52c.23-.86.47-1.84.7-2.83-.91.08-1.74.1-2.49.1-1.12,0-2,0-3-.1l-.05-1.82a21.75,21.75,0,0,0,3.07.18c.86,0,1.79,0,2.81-.13.18-1,.33-1.82.41-2.37a9.26,9.26,0,0,0,.11-2l2.23.18c-.15.55-.34,1.48-.44,2l-.42,2.08a46.07,46.07,0,0,0,5.05-1Zm-1.12,9.1a9.5,9.5,0,0,0-.39,2.34c0,1.25.57,2.47,4.4,2.47a28.91,28.91,0,0,0,5-.49l-.08,1.87A33.56,33.56,0,0,1,429,566c-4,0-6.11-1.22-6.11-3.77a16.66,16.66,0,0,1,.36-2.94Zm-.49-6.24c1.32-.1,3-.21,4.65-.21a42.3,42.3,0,0,1,4.45.23l-.05,1.77a32.88,32.88,0,0,0-4.32-.31,41.28,41.28,0,0,0-4.73.29Z"/><path class="cls-3" d="M445.2,544.45a38.12,38.12,0,0,1-2.7,5.43V567.8h-1.67V552.4a25.54,25.54,0,0,1-3,3.57,9.89,9.89,0,0,0-1-1.7A29,29,0,0,0,443.59,544Zm8.22,13.8a10.77,10.77,0,0,1-1.77,5.1,26.76,26.76,0,0,0,9.72,2.83,6.43,6.43,0,0,0-1,1.56,26.11,26.11,0,0,1-9.69-3.19,13.71,13.71,0,0,1-6,3.25,6.06,6.06,0,0,0-1-1.43,13.31,13.31,0,0,0,5.61-2.76,13.55,13.55,0,0,1-3.87-4.29l1.43-.47a12.23,12.23,0,0,0,3.46,3.62,8.86,8.86,0,0,0,1.48-4.22h-6.37v-7h6.5v-2.68h-7.31v-1.59h7.31v-2.86h1.69v2.86h7.59v1.59h-7.59v2.68h6.71v7Zm-1.59-1.48c0-.47,0-.88,0-1.35v-2.76h-4.92v4.11Zm1.72-4.11v2.78c0,.45,0,.89,0,1.33h5.07v-4.11Z"/><path class="cls-3" d="M467.46,550.09a57.82,57.82,0,0,0,.21,6.19c.41,4.42,1.74,7.3,3.61,7.3,1.33,0,2.58-2.6,3.25-5.27l1.51,1.63c-1.53,4.35-3.12,5.83-4.81,5.83-2.34,0-4.68-2.42-5.38-9-.24-2.21-.29-5.33-.29-6.84a13.93,13.93,0,0,0-.15-2.23l2.26.05A21.48,21.48,0,0,0,467.46,550.09ZM485.69,561l-1.88.73c-.46-4.74-2.05-9.65-4.44-12.64l1.79-.63A26.78,26.78,0,0,1,485.69,561Z"/><path class="cls-3" d="M499.07,550.17c-.07,1.45-.2,3-.41,4.44h10.43s0,.58-.06.86c-.52,7.46-1,10.32-2,11.34a2.72,2.72,0,0,1-2.11.83c-.88.05-2.6,0-4.34-.1a4.33,4.33,0,0,0-.6-1.67c1.88.18,3.72.18,4.35.18s.93,0,1.22-.28c.8-.73,1.3-3.28,1.77-9.54H498.4c-.91,4.65-3,9-8.27,11.51a6,6,0,0,0-1.22-1.37c7.23-3.28,8-10.14,8.32-16.2h-8.09V548.5H499.7v-4.57h1.74v4.57h10.77v1.67Z"/><path class="cls-3" d="M524.3,545.62c-.08.44-.19.93-.29,1.4-.1.75-.36,2.37-.68,3.85,1.25-.1,2.37-.18,3-.18,2.21,0,4.11.83,4.11,4.26,0,3.07-.44,7.12-1.51,9.26-.81,1.71-2.05,2.1-3.69,2.1a15.71,15.71,0,0,1-3-.36l-.31-2a11.91,11.91,0,0,0,3.17.58,2.23,2.23,0,0,0,2.31-1.36c.86-1.79,1.23-5.17,1.23-8,0-2.42-1.09-2.84-2.73-2.84-.65,0-1.75.08-2.94.18a52,52,0,0,1-5.44,13.84l-1.89-.76c2.62-3.54,4.57-9.49,5.43-12.89-1.4.13-2.73.28-3.43.33l-2.21.31-.21-2.05a20.37,20.37,0,0,0,2.21,0c.89,0,2.42-.16,4-.29a30.67,30.67,0,0,0,.68-5.61Zm8.84,3a43.11,43.11,0,0,1,4.75,9.1l-1.79.86a30.93,30.93,0,0,0-4.65-9.18Zm1.35.34a28.92,28.92,0,0,0-2.13-3.61l1.27-.55a38.34,38.34,0,0,1,2.16,3.59Zm2.88-1a21.59,21.59,0,0,0-2.18-3.59l1.27-.54a33,33,0,0,1,2.21,3.56Z"/><path class="cls-3" d="M543.53,548.61c1.59-.16,6.58-.65,11.32-1,2.83-.26,5.17-.39,6.86-.45l0,1.85a21.23,21.23,0,0,0-5,.42,9.23,9.23,0,0,0-6,8.29c0,5.18,4.81,6.76,9,6.92l-.67,1.92c-4.63-.15-10.15-2.65-10.15-8.42a10.42,10.42,0,0,1,4.95-8.82c-2.27.26-9.55,1-12.3,1.54l-.24-2.08C542.26,548.71,543,548.66,543.53,548.61Zm16.7,7.25-1.22.57a24.48,24.48,0,0,0-2.14-3.69l1.2-.52A32.43,32.43,0,0,1,560.23,555.86Zm2.94-1.12-1.23.6a25.2,25.2,0,0,0-2.21-3.64l1.17-.57A31.81,31.81,0,0,1,563.17,554.74Z"/><path class="cls-3" d="M587,553.52a33.38,33.38,0,0,1-4.44,1.12c.75,1.66,1.64,3.46,2.34,4.81l-.91,1.12c-1.28-.21-3.28-.47-4.92-.68l.16-1.45c1.3.18,2.55.31,3.38.38-.49-1-1.15-2.46-1.79-3.89a63.06,63.06,0,0,1-11.55.26l0-1.72a52.58,52.58,0,0,0,10.92-.08c-.39-.88-.76-1.69-1-2.31-.19-.44-.39-.86-.55-1.28a50.47,50.47,0,0,1-9.1,0l-.13-1.72a43.53,43.53,0,0,0,8.53.19c-.13-.32-.26-.63-.39-.89a15,15,0,0,0-.91-1.77l2.1-.44a28.39,28.39,0,0,0,1,2.89,27.51,27.51,0,0,0,5.18-1.22l.33,1.69a38.25,38.25,0,0,1-4.86,1.09l.44,1.07,1.1,2.49a28.06,28.06,0,0,0,4.78-1.3ZM572.19,559a8.15,8.15,0,0,0-.63,2.63c0,2,1.64,3.33,5.39,3.33a32.32,32.32,0,0,0,6.24-.58l-.06,1.87a39.12,39.12,0,0,1-6.11.47c-4.57,0-7.23-1.56-7.23-4.7a10.57,10.57,0,0,1,.6-3.2Z"/><path class="cls-3" d="M611.81,565.33a18.76,18.76,0,0,0-6.37-3.9c0,.7,0,1.27,0,1.69,0,1.71-1.09,3.58-4.44,3.58-3.64,0-5.67-1.3-5.67-3.74s2.23-3.85,5.93-3.85a12.85,12.85,0,0,1,2.26.18c-.05-1.22-.11-2.52-.13-3.64H602c-1.8,0-4.63-.15-6.5-.36v-1.77A49.18,49.18,0,0,0,602,554h1.41v-3.9c-.42,0-.86,0-1.3,0a58.13,58.13,0,0,1-6.14-.38V548a42.48,42.48,0,0,0,6.11.49h1.35v-1.77a12.83,12.83,0,0,0-.1-1.5h2c0,.44-.1.91-.12,1.69,0,.31,0,.85,0,1.53a56.71,56.71,0,0,0,6.71-.68l0,1.75c-2.1.21-4.31.41-6.73.52v3.9a66.29,66.29,0,0,0,7.23-.71V555c-2.47.31-4.76.5-7.2.6.05,1.38.12,2.81.18,4.06a21.63,21.63,0,0,1,7.54,4.05Zm-8.19-4.4a13.28,13.28,0,0,0-2.55-.26c-2.57,0-4,1-4,2.21s1,2.16,3.72,2.16c1.51,0,2.81-.44,2.81-2.29C603.65,562.28,603.62,561.63,603.62,560.93Z"/><path class="cls-3" d="M632.25,550.24c0,1.51,0,3.12,0,4.29a6.44,6.44,0,0,1,.81,3.25c0,3.52-1.64,7.31-7.57,9.11l-1.61-1.56c3.53-.84,5.9-2.35,6.86-4.79a3.44,3.44,0,0,1-2.34.81,4.08,4.08,0,0,1-4.21-4.27,4.5,4.5,0,0,1,6.29-4.05l0-2.76c-3.92,0-8.37.21-11.59.44l0-1.82c2.86,0,7.69-.2,11.62-.26,0-.78,0-1.45-.05-1.84a9.59,9.59,0,0,0-.19-1.51h2.16a13.58,13.58,0,0,0-.13,1.48c0,.44,0,1.09,0,1.85h.54c3.23,0,6.27,0,7.44,0v1.74c-1.43-.07-3.72-.13-7.46-.13ZM631.1,556a2.37,2.37,0,0,0-2.42-1.79,2.71,2.71,0,0,0-2.7,2.81,2.56,2.56,0,0,0,2.73,2.65C630.3,559.71,631.28,558.46,631.1,556Z"/><path class="cls-3" d="M650.91,563.3a3.91,3.91,0,1,1-3.92-3.9A3.9,3.9,0,0,1,650.91,563.3Zm-1.22,0A2.69,2.69,0,1,0,647,566,2.69,2.69,0,0,0,649.69,563.3Z"/><path class="cls-4" d="M202.48,61.24a18.33,18.33,0,0,1-3,1.74,10.79,10.79,0,0,0,3.84,2.19,11.15,11.15,0,0,0-2,2.55c-3.81-1.47-6.24-4.5-7.68-8.52h-.33a13.39,13.39,0,0,1-1.83,1.59V64c1.32-.21,2.7-.45,4.08-.66l.24,2.58c-3.18.57-6.54,1.14-9.12,1.56l-.84-2.67c.78-.09,1.65-.24,2.61-.36V62.62c-.84.39-1.68.75-2.52,1.05a25.8,25.8,0,0,0-1.86-2.28,20.78,20.78,0,0,0,5.19-2.19h-4.5V56.8H189v-1h-2.58V53.5H189v-1H185.8V50.2H189V48.61a21.27,21.27,0,0,1-2.34,1.17,20.07,20.07,0,0,0-2.31-2.19l.27-.09h-9.75V44.68h9.9v2.76a13.42,13.42,0,0,0,4.92-2.7h-4.23V42.13h6.39v-2.4h3.6v2.4h7v2.61h-4.77a27.55,27.55,0,0,1,5.22,3.12L200.5,49.6A27.39,27.39,0,0,0,194.8,46l2-1.29h-6.72l2.7.81a13.61,13.61,0,0,1-3.27,2.76h2.64V50.2h3.15V48.31h3.18V50.2h3.66v2.25h-3.66v1h3.06v2.25h-3.06v1h4.41v2.4h-6.15a13,13,0,0,0,1.14,2,24.86,24.86,0,0,0,2.7-1.77ZM184,66.13h-5.22v1.2H176V57.1h8Zm-7.89-17.28h7.95v2.73h-7.95Zm0,4.11h7.95v2.67h-7.95Zm7.86-9.6h-7.68v-2.7H184Zm-5.19,16.53v3.45h2.37V59.89Zm13.38-6.39h3.15v-1h-3.15Zm0,3.3h3.15v-1h-3.15Z"/><path class="cls-4" d="M213.52,47.29c1.44-2.34,4-4.86,7.44-4.86,4.17,0,7.41,4.08,7.41,10.68,0,8.49-5.19,12.54-13.14,14L213,63.61c6.66-1,11.37-3.21,11.37-10.47,0-4.62-1.56-7.2-4.08-7.2-3.54,0-6.63,5.31-6.78,9.27a15.69,15.69,0,0,0,.15,3.18l-3.69.24a33.93,33.93,0,0,1-.39-5,78.94,78.94,0,0,1,.84-9.6,26.57,26.57,0,0,0,.24-3.15l4.11.18A48.92,48.92,0,0,0,213.52,47.29Z"/><path class="cls-4" d="M258.37,55a17.63,17.63,0,0,1-5.76,7,40.9,40.9,0,0,0,9.93,2,17.25,17.25,0,0,0-2.19,3.33,36.19,36.19,0,0,1-11.46-3.15,39.32,39.32,0,0,1-11.67,3.21,12.28,12.28,0,0,0-2.1-3.15,41.89,41.89,0,0,0,10.2-2.19,20.18,20.18,0,0,1-4.74-4.71l1-.42h-1.41V53.71h15.15l.66-.15Zm-19.2-.21h-3.33V48.31h4.29a18.7,18.7,0,0,0-1.41-3.09l2.67-.75c-1.5.09-3,.15-4.47.18a11.29,11.29,0,0,0-.81-3,167.94,167.94,0,0,0,22.38-2l2.4,2.88c-3.24.6-7.11,1.08-11.1,1.44a15.72,15.72,0,0,1,1.35,3.87l-2.22.54h5.22a34,34,0,0,0,1.95-4.5l3.81.9c-.69,1.26-1.47,2.49-2.16,3.6H262v6.51h-3.48V51.4H239.17ZM249.58,43.9c-2.52.24-5.13.42-7.68.54a17,17,0,0,1,1.68,3.42l-1.56.45h5.73a18,18,0,0,0-1.14-3.72ZM244.36,57a17.46,17.46,0,0,0,4.56,3.48A14.85,14.85,0,0,0,253,57Z"/><path class="cls-4" d="M271.6,44.23c-.75,3.33-1.8,9.63-1,13.35.39-.93.93-2.37,1.44-3.48l1.86,1.2a74,74,0,0,0-2,7.32,6.76,6.76,0,0,0-.18,1.47c0,.3,0,.81.06,1.23l-3.33.33a32.63,32.63,0,0,1-1.71-9.72,84.24,84.24,0,0,1,1-12,20.34,20.34,0,0,0,.21-2.61l4.44.45A23.91,23.91,0,0,0,271.6,44.23Zm15.48-.9v3.84a39.46,39.46,0,0,0,4.5-.54l0,3.9c-1.2.15-2.76.27-4.44.36v1.26c0,7.08-.54,11.43-6.54,15.24l-3.45-2.73a11.64,11.64,0,0,0,3.48-2.4c2.31-2.4,2.79-5.07,2.79-10.14V51c-1.14,0-2.25.06-3.36.06-1.29,0-3.15-.09-4.62-.15V47.14a31.55,31.55,0,0,0,4.53.33c1.08,0,2.25,0,3.39-.06,0-1.68-.06-3.24-.12-4a14.29,14.29,0,0,0-.33-2.07h4.35C287.14,42,287.11,42.67,287.08,43.33Z"/><path class="cls-4" d="M307.48,44c-.06.33-.15.72-.24,1.14,1.68-.24,3.36-.57,5-1V48a55.23,55.23,0,0,1-5.85,1c-.27,1.29-.57,2.61-.9,3.84a93.22,93.22,0,0,1-4.77,13.89l-4.17-1.41c1.8-3,4.08-9.3,5.19-13.5.21-.81.45-1.65.63-2.52-.69,0-1.35.06-2,.06-1.44,0-2.58-.06-3.63-.12l-.09-3.75a29.69,29.69,0,0,0,3.78.24q1.31,0,2.7-.09.18-1,.27-1.71a15.38,15.38,0,0,0,.09-3l4.59.36C307.87,42,307.6,43.36,307.48,44Zm3.6,16.29c0,1.32.9,2.31,4.11,2.31a35.21,35.21,0,0,0,6.24-.63l-.15,3.84a48.16,48.16,0,0,1-6.12.42c-5,0-7.77-1.74-7.77-4.77a21,21,0,0,1,.54-4l3.57.36A10.28,10.28,0,0,0,311.08,60.31ZM315.64,50a52.76,52.76,0,0,1,5.28.27l-.09,3.6a44,44,0,0,0-5.16-.36,51.54,51.54,0,0,0-5.79.3V50.26C311.56,50.11,313.72,50,315.64,50Z"/><path class="cls-4" d="M331.33,47.35c0,1.95,0,4.2.18,6.36.42,4.32,1.32,7.29,3.21,7.29,1.41,0,2.61-3.51,3.18-5.91l3,3.66c-2,5.22-3.87,7-6.27,7-3.3,0-6.15-3-7-11-.3-2.76-.33-6.27-.33-8.1a18.24,18.24,0,0,0-.24-3.06l4.62.06A24.27,24.27,0,0,0,331.33,47.35Zm20.82,12.57-3.93,1.53c-.48-4.83-2.07-12.12-5.34-15.84l3.81-1.23C349.54,47.83,351.82,55.33,352.15,59.92Z"/><path class="cls-4" d="M372.73,53.74a3.84,3.84,0,1,1-3.84-3.84A3.87,3.87,0,0,1,372.73,53.74Z"/><path class="cls-4" d="M394.93,53.74a3.84,3.84,0,1,1-3.84-3.84A3.87,3.87,0,0,1,394.93,53.74Z"/><path class="cls-4" d="M417.13,53.74a3.84,3.84,0,1,1-3.84-3.84A3.87,3.87,0,0,1,417.13,53.74Z"/><path class="cls-5" d="M675.29,119.29c0,.84-.19,1.29-.72,1.53a7,7,0,0,1-2.71.27,5.34,5.34,0,0,0-.51-1.45c.91,0,1.84,0,2.11,0s.37-.11.37-.38V108.58H663.51v12.53h-1.44V107.17h13.22Zm-2.61-8h-8V110h8Zm-5.84,6.63V119h-1.38v-6.27h6.42v5.15Zm0-3.91v2.66h3.66V114Z"/><path class="cls-5" d="M686.66,117.36a14.65,14.65,0,0,0,5.43,2.18,6.39,6.39,0,0,0-1,1.33,14.21,14.21,0,0,1-5.73-3v3.22h-1.46V118a15.89,15.89,0,0,1-5.68,2.88,6.89,6.89,0,0,0-1-1.26,15.39,15.39,0,0,0,5.4-2.23H677.7v-1.24h6.21v-1h-4.72V114h4.72v-1H678.4v-1.19h3.29a8.25,8.25,0,0,0-.68-1.45l.39-.07h-3.64v-1.24h2.37a11.89,11.89,0,0,0-1.17-2.17l1.3-.43a10.92,10.92,0,0,1,1.28,2.29l-.82.31h1.77v-2.74h1.39v2.74h1.58v-2.74h1.41v2.74h1.73l-.61-.2a13.19,13.19,0,0,0,1.12-2.37l1.54.39a25.47,25.47,0,0,1-1.33,2.18h2.3v1.24h-3.08c-.31.55-.63,1.08-.9,1.52H691v1.19h-5.66v1h4.91v1.12h-4.91v1h6.3v1.24Zm-4.11-7a6.82,6.82,0,0,1,.69,1.43l-.47.09h3.38a14.37,14.37,0,0,0,.71-1.52Z"/><path class="cls-5" d="M699.22,116.6c-.37-.47-1.09-1.24-1.74-1.89v6.37H696v-5.91a13.42,13.42,0,0,1-2.24,1.79,7.13,7.13,0,0,0-.73-1.37,13.24,13.24,0,0,0,4.75-4.9h-4.19v-1.36H696v-3h1.48v3h1.1l.26,0,.83.56a14.57,14.57,0,0,1-2,3.44c.75.61,2.08,1.76,2.44,2.1Zm8.93,2.56v1.47h-9v-1.47h3.87v-6.28h-3.23v-1.44h3.23v-4.93h1.52v4.93h3.24v1.44h-3.24v6.28Z"/><path class="cls-5" d="M716.82,117.59c0-.55.07-1.44.07-2.23-1.35.76-2.2,1.48-2.2,2.41,0,1.08,1,1.29,2.63,1.29a27.3,27.3,0,0,0,4.4-.41l-.05,1.61a38.77,38.77,0,0,1-4.4.27c-2.37,0-4.21-.54-4.21-2.51s1.91-3.18,3.73-4.11a1.23,1.23,0,0,0-1.28-.79,4.09,4.09,0,0,0-2.63,1.14,17.26,17.26,0,0,0-1.45,1.7l-1.36-1a16.58,16.58,0,0,0,3.58-4.62h-.46c-.66,0-1.76,0-2.64-.1v-1.49a23.71,23.71,0,0,0,2.72.18h.93a10,10,0,0,0,.37-1.91l1.64.13a16.77,16.77,0,0,1-.44,1.71,35.49,35.49,0,0,0,4.69-.46v1.47a47.72,47.72,0,0,1-5.22.43,11.87,11.87,0,0,1-1.2,2.07,4.61,4.61,0,0,1,2-.47,2.1,2.1,0,0,1,2.12,1.35c1-.46,1.79-.8,2.54-1.14l1.51-.7.62,1.47c-.43.13-1.12.38-1.6.58-.82.3-1.84.73-3,1.25,0,.89.05,2.16.07,2.91Z"/><path class="cls-5" d="M730.49,110.21H725.3V109h5.19Zm-.44,10h-2.94v.7h-1.19v-5.38h4.13Zm-4.09-9h4.11v1.16H726Zm0,2.13h4.11v1.17H726Zm4.08-5.25h-4v-1.17h4Zm-2.93,8.61V119h1.74v-2.31Zm12.64.77a14.16,14.16,0,0,1-1.85,1.11,6.23,6.23,0,0,0,2.35,1.42,4.3,4.3,0,0,0-.86,1.07,7.16,7.16,0,0,1-4.2-4.62h-.13a8,8,0,0,1-1.2,1v1.94c.79-.13,1.62-.25,2.45-.4l.1,1.09c-1.73.32-3.54.66-4.93.88l-.37-1.15,1.49-.23V118.2a13.63,13.63,0,0,1-1.63.73,10.21,10.21,0,0,0-.8-1,11.81,11.81,0,0,0,3.23-1.5h-2.87v-1h2.39v-.76h-1.51v-1h1.51v-.74h-1.86v-1h1.86v-1.1h1.33v1.1h2v-1.1h1.36v1.1h2v1h-2v.74h1.73v1h-1.73v.76H740v1h-3.57a6.89,6.89,0,0,0,.78,1.34,19.44,19.44,0,0,0,1.7-1.1Zm-5.2-8.11a9.38,9.38,0,0,1-3.22,2.19,7.18,7.18,0,0,0-1-.93,8.21,8.21,0,0,0,2.93-1.65Zm5.27-.47h-9v-1.12h3.64v-1.39H736v1.39h3.86Zm-5.57,4.79h2v-.74h-2Zm0,1.73h2v-.76h-2Zm2.69-6.5a16.32,16.32,0,0,1,3.1,1.77l-1,.77a14.11,14.11,0,0,0-3.09-1.85Z"/><path class="cls-5" d="M746.26,107.14a27.74,27.74,0,0,0-.69,3.92c.69-1.46,2.23-3.16,4.13-3.16,2.16,0,3.76,2.13,3.76,5.54,0,4.42-2.76,6.45-6.8,7.19l-1-1.44c3.48-.54,6.07-1.83,6.07-5.75,0-2.46-.82-4.08-2.34-4.08-1.92,0-3.68,2.85-3.81,4.93a7.23,7.23,0,0,0,0,1.83l-1.55.11a18.85,18.85,0,0,1-.2-2.56,41.12,41.12,0,0,1,.49-5.11c.06-.53.11-1.07.12-1.49Z"/><path class="cls-5" d="M769.59,114.36a9.88,9.88,0,0,1-3.41,3.89,21.23,21.23,0,0,0,5.64,1.32,6.3,6.3,0,0,0-.91,1.41,19.67,19.67,0,0,1-6.25-1.85,22.7,22.7,0,0,1-6.32,1.87,4.54,4.54,0,0,0-.86-1.35,21.65,21.65,0,0,0,5.74-1.4,11,11,0,0,1-2.91-3l.29-.13h-.69V113.8h8.4l.27,0Zm-10.37-.1h-1.39V111h2.41a10.32,10.32,0,0,0-.91-1.91l1.3-.37a8.42,8.42,0,0,1,1,2l-.86.28h3.46a9.3,9.3,0,0,0-.72-2.26l1.33-.29a9.48,9.48,0,0,1,.8,2.21l-1.35.34h3.19a19.32,19.32,0,0,0,1.28-2.58l1.55.42c-.42.72-.88,1.52-1.33,2.16h2.51v3.31h-1.45v-2H759.22Zm11.54-6.74a86.23,86.23,0,0,1-12.45,1.2,4.4,4.4,0,0,0-.32-1.26,81,81,0,0,0,11.73-1.16Zm-8.87,7.65a8.71,8.71,0,0,0,2.81,2.35,8,8,0,0,0,2.65-2.35Z"/><path class="cls-5" d="M777,107.52c-.12.34-.24.83-.32,1.15-.45,2-1,5.45-.48,7.77.22-.6.52-1.46.8-2.16l.83.52a37.79,37.79,0,0,0-1.06,3.67,3.17,3.17,0,0,0-.08.72c0,.16,0,.4,0,.59l-1.37.16a17.27,17.27,0,0,1-.87-5.07,43.66,43.66,0,0,1,.56-6.34,10.83,10.83,0,0,0,.1-1.18Zm10.38,4.29c-.68.1-1.53.18-2.46.24v.59c0,3.68-.13,6.15-3.39,8.15L780,119.64a5.43,5.43,0,0,0,1.68-1.12c1.49-1.38,1.65-3,1.65-5.89v-.5l-1.9,0c-.74,0-1.78,0-2.52-.09v-1.6a17.77,17.77,0,0,0,2.49.16c.6,0,1.26,0,1.9,0,0-1-.05-1.9-.08-2.32a8.21,8.21,0,0,0-.16-1h1.84a7.74,7.74,0,0,0-.06,1c0,.36,0,1.28,0,2.23a21.28,21.28,0,0,0,2.48-.34Z"/><path class="cls-5" d="M791.46,109l6.9-.63c1.7-.13,3.28-.22,4.37-.26v1.61a13.6,13.6,0,0,0-3.07.24,5.2,5.2,0,0,0-3.51,4.75c0,2.88,2.69,3.84,5.31,4l-.57,1.72c-3.11-.16-6.37-1.83-6.37-5.33a6.28,6.28,0,0,1,2.69-5.14c-1.39.16-5.28.54-7.05.91L790,109C790.61,109,791.16,109,791.46,109Z"/><path class="cls-5" d="M683.93,141.6h-1.66v2.8h-1.51v-.69h-3.41v.83c0,.82-.21,1.15-.75,1.36a9.52,9.52,0,0,1-2.72.21,4.5,4.5,0,0,0-.52-1.2c.89,0,1.85,0,2.1,0s.39-.1.39-.37v-.85h-5v-1.12h5v-1h-6.41v-1.17h6.41v-.91H671v-1.06h4.85v-.94h-4.44v-3h4.44v-.82h-6.07v-1.2h6.07v-1.17h1.5v1.17h6.24v1.2h-6.24v.82H682v3h-4.66v.94h4.92v2h1.66Zm-8.08-5.08v-1h-3v1Zm1.5-1v1h3.15v-1Zm0,4.87h3.41v-.91h-3.41Zm3.41,1.17h-3.41v1h3.41Z"/><path class="cls-5" d="M694.66,142.36a14.65,14.65,0,0,0,5.43,2.18,6.39,6.39,0,0,0-1,1.33,14.21,14.21,0,0,1-5.73-3v3.22h-1.46V143a15.89,15.89,0,0,1-5.68,2.88,6.89,6.89,0,0,0-1-1.26,15.39,15.39,0,0,0,5.4-2.23H685.7v-1.24h6.21v-1h-4.72V139h4.72v-1H686.4v-1.19h3.29a8.25,8.25,0,0,0-.68-1.45l.39-.07h-3.64v-1.24h2.37a11.89,11.89,0,0,0-1.17-2.17l1.3-.43a10.92,10.92,0,0,1,1.28,2.29l-.82.31h1.77v-2.74h1.39v2.74h1.58v-2.74h1.41v2.74h1.73l-.61-.2a13.19,13.19,0,0,0,1.12-2.37l1.54.39a25.47,25.47,0,0,1-1.33,2.18h2.3v1.24h-3.08c-.31.55-.63,1.08-.9,1.52H699v1.19h-5.66v1h4.91v1.12h-4.91v1h6.3v1.24Zm-4.11-7a6.82,6.82,0,0,1,.69,1.43l-.47.09h3.38a14.37,14.37,0,0,0,.71-1.52Z"/><path class="cls-5" d="M706.44,139.63l-1.56.48v4.22c0,.79-.16,1.2-.6,1.44a5.17,5.17,0,0,1-2.21.29,6.15,6.15,0,0,0-.43-1.44c.67,0,1.32,0,1.53,0s.29-.08.29-.31v-3.79l-2,.58-.32-1.46c.64-.14,1.44-.35,2.32-.59v-3.2h-2v-1.38h2V131.4h1.42v3.09h1.4v1.38h-1.4v2.81l1.38-.38Zm1.84-1.95c0,2.44-.29,6-2,8.37a7.61,7.61,0,0,0-1.2-.84c1.58-2.19,1.74-5.31,1.74-7.55V134h3.78v-2.61h1.47V134h3.68v1.35h-7.5Zm6.5,8.35a14.89,14.89,0,0,0-.4-1.55c-2.28.25-4.63.51-6.34.67l-.26-1.39,1.3-.1a59,59,0,0,0,1.53-7.35l1.57.24c-.44,2.29-1.08,5-1.68,7,1.09-.08,2.28-.19,3.45-.3a27,27,0,0,0-1.41-3.12l1.26-.43a23.5,23.5,0,0,1,2.35,5.85Z"/><path class="cls-5" d="M725.85,137.36c1.09,3.32,3.1,6,6.13,7.29a5.86,5.86,0,0,0-1.11,1.4c-3-1.4-4.93-4-6.17-7.38a11.13,11.13,0,0,1-6.18,7.38,5.14,5.14,0,0,0-1.14-1.25,10,10,0,0,0,6-7.44H717.7v-1.54h5.95a39.37,39.37,0,0,0,.2-4.42h1.61a39.41,39.41,0,0,1-.22,4.42h6.45v1.54Z"/><path class="cls-5" d="M740.82,142.59c0-.55.07-1.44.07-2.23-1.35.76-2.2,1.48-2.2,2.41s1,1.29,2.63,1.29a27.3,27.3,0,0,0,4.4-.41l-.05,1.61a38.77,38.77,0,0,1-4.4.27c-2.37,0-4.21-.54-4.21-2.51s1.91-3.18,3.73-4.11a1.23,1.23,0,0,0-1.28-.79,4.09,4.09,0,0,0-2.63,1.14,17.26,17.26,0,0,0-1.45,1.7l-1.36-1a16.58,16.58,0,0,0,3.58-4.62h-.46c-.66,0-1.76,0-2.64-.1v-1.49a23.71,23.71,0,0,0,2.72.18h.93a10,10,0,0,0,.37-1.91l1.64.13a16.77,16.77,0,0,1-.44,1.71,35.49,35.49,0,0,0,4.69-.46v1.47a47.72,47.72,0,0,1-5.22.43,11.87,11.87,0,0,1-1.2,2.07,4.61,4.61,0,0,1,2-.47,2.1,2.1,0,0,1,2.12,1.35c1-.46,1.79-.8,2.54-1.14l1.51-.7.62,1.47c-.43.13-1.12.38-1.6.58-.82.3-1.84.73-3,1.25,0,.89.05,2.16.07,2.91Z"/><path class="cls-5" d="M754.34,132.3c-.09.57-.14,1.25-.17,1.81-.07,1.76-.2,5.41-.2,7.62,0,1.66,1.06,2.24,2.42,2.24A6.45,6.45,0,0,0,762,140.7l1.14,1.39a8.07,8.07,0,0,1-6.74,3.56c-2.42,0-4-1-4-3.67,0-2.26.17-6.34.17-7.87a8.57,8.57,0,0,0-.17-1.83Z"/><path class="cls-5" d="M774.34,135.51a30.12,30.12,0,0,1-3.18.53c-.15.69-.32,1.4-.5,2.07a46.58,46.58,0,0,1-2.5,7.3l-1.76-.6a34.23,34.23,0,0,0,2.69-7.1c.15-.48.27-1,.39-1.52l-1.27,0c-.73,0-1.31,0-1.89-.07l0-1.56a15.7,15.7,0,0,0,1.94.12c.49,0,1,0,1.58-.06.08-.46.16-.88.2-1.17a7.21,7.21,0,0,0,0-1.44l1.94.15c-.11.4-.24,1-.3,1.36l-.2.92a26.09,26.09,0,0,0,2.85-.54Zm-.49,5.4a5.84,5.84,0,0,0-.23,1.37c0,.73.39,1.37,2.4,1.37a17.93,17.93,0,0,0,3.17-.32l0,1.61a21.5,21.5,0,0,1-3.14.23c-2.58,0-3.91-.85-3.91-2.42a10.4,10.4,0,0,1,.24-2Zm-.63-3.91a29.54,29.54,0,0,1,3-.16A25.3,25.3,0,0,1,779,137l0,1.52a22,22,0,0,0-2.69-.2,24.45,24.45,0,0,0-3,.17Z"/><path class="cls-5" d="M784.37,135.27a34.74,34.74,0,0,0,.12,3.57c.24,2.5.88,4.17,1.93,4.17.8,0,1.49-1.73,1.84-3.19l1.28,1.49c-1,2.72-2,3.66-3.15,3.66-1.6,0-3.07-1.53-3.51-5.71a41.85,41.85,0,0,1-.17-4.24,8.51,8.51,0,0,0-.11-1.49l1.93,0A13,13,0,0,0,784.37,135.27Zm11.11,6.6-1.65.64c-.25-2.72-1.17-6.13-2.77-8l1.59-.53A16.75,16.75,0,0,1,795.48,141.87Z"/><path class="cls-5" d="M425.31,278.82h-1.67v2.81h-1.5v-.69h-3.41v.83c0,.82-.21,1.15-.75,1.36a9.52,9.52,0,0,1-2.72.21,4.5,4.5,0,0,0-.52-1.2c.88,0,1.84,0,2.1,0s.38-.09.38-.36v-.85h-5v-1.12h5v-1h-6.4v-1.16h6.4v-.92h-4.85v-1.05h4.85v-.95h-4.43V271.8h4.43V271h-6.06v-1.2h6.06v-1.17h1.51v1.17H425V271h-6.24v.82h4.66v2.94h-4.66v.95h4.91v2h1.67Zm-8.09-5.07v-1h-3v1Zm1.51-1v1h3.15v-1Zm0,4.87h3.41v-.92h-3.41Zm3.41,1.16h-3.41v1h3.41Z"/><path class="cls-5" d="M436,279.59a14.82,14.82,0,0,0,5.43,2.18,6.39,6.39,0,0,0-1,1.33,14.21,14.21,0,0,1-5.73-3v3.22h-1.46V280.2a15.89,15.89,0,0,1-5.68,2.88,6.89,6.89,0,0,0-1-1.26,15.53,15.53,0,0,0,5.39-2.23h-4.94v-1.25h6.21v-1h-4.72v-1.12h4.72v-1h-5.51V274.1h3.28a7.27,7.27,0,0,0-.67-1.45l.39-.07h-3.64v-1.25h2.37a12.16,12.16,0,0,0-1.17-2.16l1.3-.43a10.67,10.67,0,0,1,1.28,2.29l-.82.3h1.76V268.6h1.4v2.73h1.58V268.6h1.41v2.73H438l-.61-.19a14.28,14.28,0,0,0,1.12-2.37l1.54.39c-.43.78-.92,1.58-1.33,2.17H441v1.25h-3.09c-.3.55-.62,1.07-.89,1.52h3.39v1.19h-5.66v1h4.91v1.12h-4.91v1h6.3v1.25Zm-4.11-7a7.09,7.09,0,0,1,.69,1.43l-.47.09h3.38a13.38,13.38,0,0,0,.7-1.52Z"/><path class="cls-5" d="M450.2,279.82c.05-.55.07-1.44.07-2.23-1.35.75-2.2,1.47-2.2,2.4,0,1.09,1,1.3,2.63,1.3a26.25,26.25,0,0,0,4.4-.42l-.05,1.62a41.4,41.4,0,0,1-4.4.27c-2.37,0-4.21-.54-4.21-2.51s1.9-3.19,3.73-4.11a1.23,1.23,0,0,0-1.28-.79,4,4,0,0,0-2.63,1.14,16.85,16.85,0,0,0-1.45,1.69l-1.36-1a16.46,16.46,0,0,0,3.58-4.63h-.46c-.66,0-1.76,0-2.64-.09V271a23.71,23.71,0,0,0,2.72.18h.93a10,10,0,0,0,.36-1.91l1.65.13a16,16,0,0,1-.45,1.71,36.89,36.89,0,0,0,4.69-.46v1.47a47.33,47.33,0,0,1-5.21.43,11.87,11.87,0,0,1-1.2,2.07,4.61,4.61,0,0,1,2-.47,2.1,2.1,0,0,1,2.12,1.35c1-.47,1.79-.8,2.54-1.14l1.51-.7.62,1.47c-.43.13-1.12.38-1.6.57-.82.31-1.84.74-2.95,1.25,0,.9.05,2.16.07,2.92Z"/><path class="cls-5" d="M470.76,270.39c-2,3.74-6.64,5.89-11,6.82a4.78,4.78,0,0,0-.69-1.28,20.48,20.48,0,0,0,5.71-1.88,15.77,15.77,0,0,0-2.51-1.63,21.23,21.23,0,0,1-2.08,1,4.73,4.73,0,0,0-1-1.1,13.1,13.1,0,0,0,5.93-3.72l1.65.37c-.28.32-.59.64-.91.95h3.68l.24-.07ZM473,276c-2,4.65-6.75,6.59-12.05,7.34a4.23,4.23,0,0,0-.64-1.36,20.16,20.16,0,0,0,6.66-1.77,15.93,15.93,0,0,0-2.75-1.94,25.43,25.43,0,0,1-2.5,1,4.13,4.13,0,0,0-.9-1.15,14.42,14.42,0,0,0,6.9-4.13l1.65.38c-.34.38-.69.75-1.09,1.12h3.48l.25-.06Zm-8.64-4.85c-.26.19-.54.38-.83.56a15.61,15.61,0,0,1,2.56,1.61,10.4,10.4,0,0,0,2.5-2.17Zm2.34,5.66c-.37.26-.74.5-1.14.74a15.18,15.18,0,0,1,2.75,1.89,8.47,8.47,0,0,0,2.6-2.63Z"/><path class="cls-5" d="M488,281.53c0,.88-.23,1.31-.88,1.55a11.87,11.87,0,0,1-3.32.24,5.71,5.71,0,0,0-.56-1.44c1.2.07,2.47.05,2.84,0s.44-.09.44-.4v-1.66h-8.49a6.8,6.8,0,0,1-2.42,3.54,6.25,6.25,0,0,0-1-1.08c2.27-1.66,2.5-4.06,2.5-6.05v-2.62a13.3,13.3,0,0,1-1.09.86,4.49,4.49,0,0,0-1.08-1.05,13,13,0,0,0,4.33-4.9l1.6.3c-.12.23-.24.43-.37.66H484l.26-.07,1,.68a15.74,15.74,0,0,1-1.37,2.11H488Zm-9.49-4.88a14.48,14.48,0,0,1-.18,1.89h3.36v-1.89Zm1.13-5.89a15.08,15.08,0,0,1-1.15,1.47h3.73a16.13,16.13,0,0,0,1-1.47Zm-1.13,4.61h3.18v-1.81h-3.18Zm8-1.81h-3.4v1.81h3.4Zm0,5v-1.89h-3.4v1.89Z"/><path class="cls-5" d="M496.34,269.33a22.81,22.81,0,0,1-1.72,3.28v10.66h-1.49v-8.56a19.36,19.36,0,0,1-1.86,2,9.51,9.51,0,0,0-.9-1.56,17.34,17.34,0,0,0,4.52-6.32ZM503,281.69c.84,0,1-.56,1.08-2.85a4.48,4.48,0,0,0,1.39.64c-.19,2.66-.62,3.6-2.37,3.6h-3c-1.81,0-2.34-.54-2.34-2.48V269h1.49v5.73a25.78,25.78,0,0,0,4.45-3.09l1.07,1.29a39.34,39.34,0,0,1-5.52,3.32v4.37c0,.91.16,1.07,1,1.07Z"/><path class="cls-5" d="M511.72,269.52c-.1.58-.14,1.25-.18,1.81-.06,1.76-.19,5.41-.19,7.62,0,1.67,1.06,2.24,2.42,2.24a6.48,6.48,0,0,0,5.57-3.26l1.14,1.39a8.09,8.09,0,0,1-6.74,3.55c-2.42,0-4-1-4-3.66,0-2.26.16-6.34.16-7.88a8.56,8.56,0,0,0-.16-1.82Z"/><path class="cls-5" d="M524.84,271.17c1.17-.09,4-.36,6.9-.62,1.69-.13,3.28-.23,4.37-.26v1.6a14.34,14.34,0,0,0-3.08.24,5.23,5.23,0,0,0-3.5,4.76c0,2.88,2.69,3.84,5.31,3.95l-.57,1.71c-3.11-.16-6.37-1.82-6.37-5.33a6.28,6.28,0,0,1,2.69-5.13c-1.4.16-5.29.54-7.05.91l-.17-1.75C524,271.24,524.53,271.21,524.84,271.17Z"/><path class="cls-5" d="M432.33,299.07a18.3,18.3,0,0,1-2.78,5.41c.54,1.36,1.16,2.19,1.84,2.19.41,0,.61-.81.7-2.88a3.85,3.85,0,0,0,1.28.83c-.24,2.82-.78,3.57-2.09,3.57s-2.1-.89-2.82-2.4a14.47,14.47,0,0,1-3,2.45,7.23,7.23,0,0,0-1.09-1.21,12.55,12.55,0,0,0,3.49-2.81,30.18,30.18,0,0,1-1.13-6.59h-5.13v1.94h4v.57c-.08,3.48-.16,4.85-.49,5.3a1.43,1.43,0,0,1-1,.51,10.08,10.08,0,0,1-1.89,0,3.47,3.47,0,0,0-.4-1.39c.66.07,1.28.08,1.54.08a.6.6,0,0,0,.5-.19c.17-.22.27-1.14.32-3.55h-2.57c0,2.27-.28,5.47-1.69,7.54a6.12,6.12,0,0,0-1.25-1c1.28-1.92,1.39-4.67,1.39-6.74v-4.53h6.58c-.05-.83-.08-1.69-.08-2.54h1.57c0,.86,0,1.71.05,2.54h3.09a18.69,18.69,0,0,0-2.52-1.68l.9-.91a16.79,16.79,0,0,1,2.77,1.78l-.77.81h1.63v1.46h-5a31.23,31.23,0,0,0,.78,5.06,16.56,16.56,0,0,0,1.83-4Z"/><path class="cls-5" d="M448.56,303.3a24.65,24.65,0,0,1-3.32,2,10.83,10.83,0,0,0,4.21,1.7,5.17,5.17,0,0,0-.94,1.33,9.71,9.71,0,0,1-7.25-5.86h-2.08v3.83l3.85-.6.08,1.32c-2.51.43-5.2.86-7.1,1.16l-.36-1.36,2-.28v-4.07h-2.74v-1.33h2.75V294.2h9.89v1.25h-8.38v1.11h7.92v1.18h-7.92v1.11h7.92V300h-7.92v1.12h10v1.33h-1.8Zm-5.78-.82a8.45,8.45,0,0,0,1.49,2,22.41,22.41,0,0,0,3.05-2Z"/><path class="cls-5" d="M463.08,296.27a5.61,5.61,0,0,0-.46.83,22,22,0,0,1-2.63,4.56,42.94,42.94,0,0,1,4.58,4.69l-1.42,1.25a34.15,34.15,0,0,0-4.23-4.67,20.46,20.46,0,0,1-6.16,4.59l-1.3-1.34a17.94,17.94,0,0,0,6.58-4.69,13.3,13.3,0,0,0,2.55-4.23h-5.88c-.62,0-1.49.08-1.74.1v-1.81a16.64,16.64,0,0,0,1.74.11h5.94a4.7,4.7,0,0,0,1.39-.16Z"/><path class="cls-5" d="M470.6,299.73a44,44,0,0,0,5.84-1.88,9,9,0,0,0,1.52-.76,1.89,1.89,0,0,1-.53-1.3,1.85,1.85,0,1,1,1.85,1.84,1.8,1.8,0,0,1-1.25-.5l.67,1.56c-.53.2-1.17.49-1.68.67a61.43,61.43,0,0,1-6.42,2v3.27c0,.77.34,1,1.09,1.12a13.82,13.82,0,0,0,2,.11,26.7,26.7,0,0,0,5.51-.53v1.84a46.27,46.27,0,0,1-5.61.32,17.64,17.64,0,0,1-2.62-.16c-1.3-.24-2-.88-2-2.22v-8.78a9.32,9.32,0,0,0-.12-1.44h1.88a9.77,9.77,0,0,0-.1,1.44Zm9.68-3.94a1,1,0,1,0-1,1A1,1,0,0,0,480.28,295.79Z"/><path class="cls-5" d="M483.61,299.9c.51.05,1.5.1,2.37.1h8.69a16.75,16.75,0,0,0,1.79-.1v2c-.35,0-1.07-.06-1.78-.06H486c-.9,0-1.85,0-2.37.06Z"/><path class="cls-5" d="M504.47,299a49.85,49.85,0,0,1,6.77,2.56l-.7,1.73a43.73,43.73,0,0,0-6.07-2.48l0,4.94c0,.5.05,1.46.11,2h-2a17,17,0,0,0,.13-2v-9.25a11,11,0,0,0-.15-1.79h2c-.05.53-.13,1.22-.13,1.79Zm4.58-.77a14.63,14.63,0,0,0-1.41-2.45l1.07-.46a18.36,18.36,0,0,1,1.46,2.41Zm2.08-.85a15.66,15.66,0,0,0-1.47-2.4l1.07-.5a21.78,21.78,0,0,1,1.49,2.37Z"/><path class="cls-5" d="M522.2,304.82c0-.55.07-1.44.07-2.23-1.35.75-2.2,1.47-2.2,2.4,0,1.09,1,1.3,2.63,1.3a26.25,26.25,0,0,0,4.4-.42l-.05,1.62a41.4,41.4,0,0,1-4.4.27c-2.37,0-4.21-.54-4.21-2.51s1.9-3.19,3.73-4.11a1.23,1.23,0,0,0-1.28-.79,4,4,0,0,0-2.63,1.14,16.85,16.85,0,0,0-1.45,1.69l-1.36-1a16.46,16.46,0,0,0,3.58-4.63h-.46c-.66,0-1.76,0-2.64-.09V296a23.71,23.71,0,0,0,2.72.18h.93a10,10,0,0,0,.36-1.91l1.65.13a16,16,0,0,1-.45,1.71,36.89,36.89,0,0,0,4.69-.46v1.47a47.33,47.33,0,0,1-5.21.43,11.87,11.87,0,0,1-1.2,2.07,4.61,4.61,0,0,1,2-.47,2.1,2.1,0,0,1,2.12,1.35c1-.47,1.79-.8,2.54-1.14l1.51-.7.62,1.47c-.43.13-1.12.38-1.6.57-.82.31-1.84.74-3,1.25,0,.9.05,2.16.07,2.92Z"/><path class="cls-5" d="M442,321.54s0,.53,0,.72c-.13,6.92-.24,9.29-.74,10a1.45,1.45,0,0,1-1.13.7,12.44,12.44,0,0,1-1.89,0,3.46,3.46,0,0,0-.43-1.49c.7,0,1.34.05,1.61.05a.52.52,0,0,0,.55-.27c.33-.43.46-2.53.59-8.29h-2.08c-.14,4.27-.69,8-2.8,10.31a4.66,4.66,0,0,0-1.11-1.06c1.89-2.08,2.34-5.38,2.45-9.25h-2v-1.46H437c0-.88,0-1.78,0-2.7h1.47c0,.91,0,1.82,0,2.7Zm6.67-1v12.39h-1.5v-1h-2.63V333H443.1V320.52Zm-1.5,9.94V322h-2.63v8.5Z"/><path class="cls-5" d="M454.38,329.88c.7,1.1,2,1.62,3.77,1.68s5.33,0,7.33-.11A7.13,7.13,0,0,0,465,333c-1.81.08-5,.11-6.85,0a5.49,5.49,0,0,1-4.42-1.84c-.75.66-1.52,1.3-2.35,2l-.77-1.54a23.91,23.91,0,0,0,2.32-1.65V326.2h-2.05v-1.38h3.51Zm-.74-7.47a11.87,11.87,0,0,0-2.67-2.53l1.1-.9a12.79,12.79,0,0,1,2.74,2.45Zm5.65,5.2a10.65,10.65,0,0,1-3.51,3.05,5.14,5.14,0,0,0-1-1.13,9.45,9.45,0,0,0,3.75-2.93h-2.79v-4.07h3.51V321.4h-4.1v-1.25h4.1v-1.52h1.46v1.52h4.35v1.25h-4.35v1.13h3.71v4.07h-3.14a11.31,11.31,0,0,0,3.92,2.85,6.2,6.2,0,0,0-1,1.18,12.9,12.9,0,0,1-3.49-2.94v3.36h-1.46Zm-2.15-2.18h2.15v-1.74h-2.15Zm3.61-1.74v1.74H463v-1.74Z"/><path class="cls-5" d="M471.72,319.52c-.1.58-.14,1.25-.18,1.81-.06,1.76-.19,5.41-.19,7.62,0,1.67,1.06,2.24,2.42,2.24a6.48,6.48,0,0,0,5.57-3.26l1.14,1.39a8.09,8.09,0,0,1-6.74,3.55c-2.42,0-4-1-4-3.66,0-2.26.16-6.34.16-7.88a8.56,8.56,0,0,0-.16-1.82Z"/><path class="cls-5" d="M491.72,322.74a30.55,30.55,0,0,1-3.18.53c-.15.69-.32,1.39-.5,2.06a46.9,46.9,0,0,1-2.5,7.3l-1.76-.59a34.23,34.23,0,0,0,2.69-7.1c.15-.49.27-1,.39-1.53-.45,0-.87,0-1.27,0-.73,0-1.31,0-1.89-.07l0-1.57a14.11,14.11,0,0,0,1.94.13c.49,0,1,0,1.58-.06.08-.47.16-.88.19-1.17a7.3,7.3,0,0,0,.05-1.44l1.94.14c-.11.4-.24,1-.31,1.36l-.19.93a28.71,28.71,0,0,0,2.85-.54Zm-.49,5.4a5.84,5.84,0,0,0-.23,1.37c0,.72.39,1.36,2.4,1.36a17.93,17.93,0,0,0,3.17-.32l-.05,1.62a21.48,21.48,0,0,1-3.13.22c-2.58,0-3.91-.84-3.91-2.41a10.4,10.4,0,0,1,.24-2Zm-.63-3.91a26.84,26.84,0,0,1,3-.16c.92,0,1.88.05,2.77.14l-.05,1.52a24.14,24.14,0,0,0-2.69-.19,26.45,26.45,0,0,0-3,.16Z"/><path class="cls-5" d="M501.75,322.5c0,1,0,2.34.11,3.57.24,2.5.88,4.16,1.94,4.16.8,0,1.49-1.73,1.84-3.18l1.28,1.49c-1,2.72-2,3.66-3.15,3.66-1.6,0-3.07-1.54-3.51-5.71a42,42,0,0,1-.17-4.24,7.67,7.67,0,0,0-.12-1.49l1.94,0A12.8,12.8,0,0,0,501.75,322.5Zm11.11,6.6-1.65.64c-.26-2.72-1.17-6.13-2.77-8l1.59-.53A16.86,16.86,0,0,1,512.86,329.1Z"/><path class="cls-5" d="M498.78,94.32c-.26.54-.55,1.08-.84,1.6h7.54v8c0,.8-.16,1.25-.73,1.47a8.29,8.29,0,0,1-2.79.24,5.73,5.73,0,0,0-.46-1.44c.94,0,1.9,0,2.17,0s.36-.08.36-.32V102.5h-6.26v3.12h-1.48V98.29a12.24,12.24,0,0,1-2.4,2.2,8.1,8.1,0,0,0-1-1.15,13.27,13.27,0,0,0,4.21-5h-3.78v-1.4h4.39a18.06,18.06,0,0,0,.67-2l1.52.35c-.18.55-.35,1.11-.56,1.65h7.95v1.4ZM504,97.21h-6.26v1.4H504Zm0,4v-1.4h-6.26v1.4Z"/><path class="cls-5" d="M510.13,93.79H509V92.52h3.12V90.94h1.41v1.58h3.06v1.27h-5.06V96.2c0,.49.1.63.51.63h2.45a9.61,9.61,0,0,0,1.25-.08c0,.27.06.69.11,1,1.47-1.3,1.63-3.46,1.7-6.31h5.63V92c-.16,4.13-.3,5.6-.69,6.11a1.39,1.39,0,0,1-1,.5,9.6,9.6,0,0,1-1.64,0,2.86,2.86,0,0,0-.35-1.13c.58,0,1.11,0,1.33,0s.35,0,.48-.19a2.1,2.1,0,0,0,.24-1h-3.3a5,5,0,0,1-1.84,2.6,3.62,3.62,0,0,0-.78-1c-.31,0-.71,0-1.11,0H512c-1.5,0-1.89-.51-1.89-1.94Zm13.23,10.26v1.25H509.27v-1.25h6.27v-1.14H511v-1.22h4.56v-1.12h-5.23V99.34h12.13v1.23H517v1.12h4.64v1.22H517v1.14Zm-1.72-8.66c0-.27,0-.59.07-1h-3c0,.32-.09.64-.16,1Zm-2.8-2.85c0,.32,0,.62-.05.93h3l0-.93Z"/><path class="cls-5" d="M533.46,94.88a26.78,26.78,0,0,1-2.81.56,28.32,28.32,0,0,1-3.44,6.74l-1.54-.79A22.92,22.92,0,0,0,529,95.61c-.38,0-.75,0-1.13,0-.61,0-1.27,0-1.91-.07l-.11-1.47c.62.06,1.38.09,2,.09s1.07,0,1.63-.06a12.53,12.53,0,0,0,.46-2.69l1.75.16c-.13.54-.34,1.43-.58,2.32a17.74,17.74,0,0,0,2.31-.54Zm2,1.64c0,.68,0,1.22,0,1.86s.07,1.43.11,2.32a10.67,10.67,0,0,1,3.28,2l-.84,1.36a12.91,12.91,0,0,0-2.37-1.76v.44c0,1.34-.82,2.43-2.9,2.43-1.84,0-3.33-.79-3.33-2.43,0-1.49,1.35-2.55,3.31-2.55a7.16,7.16,0,0,1,1.33.11c-.06-1.25-.14-2.74-.17-3.78ZM534,101.68a5.26,5.26,0,0,0-1.46-.19c-1.05,0-1.74.46-1.74,1.1s.54,1.14,1.63,1.14,1.59-.67,1.59-1.49C534.06,102.08,534.06,101.9,534,101.68Zm4.34-4.55a20.46,20.46,0,0,0-3.7-2.21l.8-1.23a26.25,26.25,0,0,1,3.8,2.13Z"/><path class="cls-5" d="M548.92,90.86a18.6,18.6,0,0,0,6.93,6,6.66,6.66,0,0,0-1,1.33,22.3,22.3,0,0,1-6.63-5.86,20.53,20.53,0,0,1-6.46,5.92,6.94,6.94,0,0,0-.95-1.2,18.24,18.24,0,0,0,6.58-6.21Zm.27,13h5.89v1.35H541.57v-1.35h1.89V98.08h1.46v5.74h2.7V95.26h1.57v3.59h4.44v1.34h-4.44Z"/><path class="cls-5" d="M566.31,101.9a14.65,14.65,0,0,0,5.43,2.18,6.39,6.39,0,0,0-1,1.33,14.21,14.21,0,0,1-5.73-3v3.22h-1.46v-3.11a15.89,15.89,0,0,1-5.68,2.88,6.89,6.89,0,0,0-1-1.26,15.39,15.39,0,0,0,5.4-2.23h-4.95v-1.25h6.21v-1h-4.72V98.56h4.72v-1h-5.51V96.41h3.29a7.93,7.93,0,0,0-.68-1.45l.39-.07h-3.64V93.64h2.37a12.16,12.16,0,0,0-1.17-2.16l1.3-.43a10.92,10.92,0,0,1,1.28,2.29l-.82.3h1.77V90.91h1.39v2.73h1.58V90.91h1.41v2.73h1.73l-.61-.19a13.52,13.52,0,0,0,1.12-2.37l1.54.39A23.75,23.75,0,0,1,569,93.64h2.31v1.25h-3.09c-.31.55-.63,1.07-.9,1.52h3.39V97.6H565v1h4.91v1.12H565v1h6.3v1.25Zm-4.11-7a6.59,6.59,0,0,1,.69,1.43l-.47.09h3.38a15.37,15.37,0,0,0,.71-1.52Z"/><path class="cls-5" d="M576.81,92.25a12.5,12.5,0,0,0-.34,1.22,37.64,37.64,0,0,0-.78,6,11.67,11.67,0,0,0,.11,1.66c.24-.64.56-1.41.8-2l.83.64a33.11,33.11,0,0,0-1.14,3.7,3.69,3.69,0,0,0-.08.72c0,.16,0,.4,0,.59l-1.44.09a19.71,19.71,0,0,1-.61-5.12,44.32,44.32,0,0,1,.69-6.32c.06-.4.12-.9.14-1.31Zm3.65,7.75a6,6,0,0,0-.2,1.41c0,.72.53,1.28,2.45,1.28a17.74,17.74,0,0,0,4-.42l0,1.7a21.66,21.66,0,0,1-4,.32c-2.69,0-3.94-.93-3.94-2.47a9.35,9.35,0,0,1,.28-1.95Zm5.74-6.61V95a39.79,39.79,0,0,1-6.64,0V93.4A29.46,29.46,0,0,0,586.2,93.39Z"/><path class="cls-5" d="M506.6,124v6.61h-1.53v-.94h-9.46v1H494.1V124h1.51v4.21h3.85V123h-4.75v-5.58h1.49v4.14h3.26V116H501v5.54h3.43v-4.16H506V123h-5v5.17h4.09V124Z"/><path class="cls-5" d="M513.7,120.34c-1.39.46-2.88.9-4.06,1.27l-.59-1.32c1.16-.24,2.86-.69,4.51-1.12Zm1.48,8.34a21.38,21.38,0,0,1-4.9,2,13,13,0,0,0-1.12-1.1,17.72,17.72,0,0,0,4.66-1.5Zm-2-10.13a22.35,22.35,0,0,0-3.34-1.32l.65-1a20,20,0,0,1,3.35,1.18Zm3-.43a7.76,7.76,0,0,1-1.36,1.32,4.66,4.66,0,0,0-1.12-.72,6.69,6.69,0,0,0,2.37-2.8l1.34.21a7.31,7.31,0,0,1-.49.91H522l.23-.05,1,.26a10.42,10.42,0,0,1-1.55,2.32l-1.17-.37a7.57,7.57,0,0,0,.8-1.08h-2.21c.35,1.15,1.25,2.17,4.5,2.6a4.3,4.3,0,0,0-.76,1.22c-.44-.08-.86-.17-1.23-.27V128H511.21v-6.43h3.21a4,4,0,0,0-.65-1c2.57-.41,3.49-1.18,3.85-2.49Zm4,4.41h-7.5v.9h7.5Zm0,1.8h-7.5v.91h7.5Zm0,1.82h-7.5v.93h7.5Zm1.24-4.56a4.74,4.74,0,0,1-2.93-2.1c-.61,1-1.67,1.65-3.57,2.1Zm-2.71,6.5a50.3,50.3,0,0,1,4.79,1.85l-1.72.71a32.58,32.58,0,0,0-4.29-1.81Z"/><path class="cls-5" d="M532.47,127.13c0-.55.07-1.44.07-2.23-1.35.75-2.2,1.47-2.2,2.4,0,1.09,1,1.3,2.63,1.3a26.25,26.25,0,0,0,4.4-.42l0,1.62a41.23,41.23,0,0,1-4.4.27c-2.37,0-4.21-.54-4.21-2.51s1.91-3.19,3.73-4.11a1.23,1.23,0,0,0-1.28-.79,4,4,0,0,0-2.63,1.14,18.26,18.26,0,0,0-1.45,1.69l-1.36-1a16.46,16.46,0,0,0,3.58-4.63h-.46c-.66,0-1.76,0-2.64-.09v-1.49a23.71,23.71,0,0,0,2.72.18h.93a10,10,0,0,0,.37-1.91l1.64.13c-.09.41-.22,1-.44,1.71a37.26,37.26,0,0,0,4.69-.46v1.47a47.72,47.72,0,0,1-5.22.43,11.87,11.87,0,0,1-1.2,2.07,4.61,4.61,0,0,1,2-.47,2.1,2.1,0,0,1,2.12,1.35c1-.47,1.79-.8,2.54-1.14.53-.24,1-.45,1.51-.7l.62,1.47c-.43.13-1.12.38-1.6.58-.82.3-1.84.73-2.94,1.24,0,.9,0,2.16.06,2.92Z"/><path class="cls-5" d="M546,116.84c-.09.57-.14,1.24-.17,1.8-.07,1.76-.2,5.41-.2,7.62,0,1.67,1.06,2.24,2.42,2.24a6.44,6.44,0,0,0,5.57-3.26l1.14,1.39a8.07,8.07,0,0,1-6.74,3.55c-2.42,0-4-1-4-3.66,0-2.26.16-6.34.16-7.88a8.56,8.56,0,0,0-.16-1.82Z"/><path class="cls-5" d="M566,120.05a30.12,30.12,0,0,1-3.18.53c-.15.69-.32,1.39-.5,2.07a46.1,46.1,0,0,1-2.5,7.29l-1.76-.59a34.23,34.23,0,0,0,2.69-7.1c.15-.48.28-1,.39-1.53-.45,0-.87,0-1.27,0-.73,0-1.31,0-1.89-.07l0-1.57a14.11,14.11,0,0,0,1.94.13c.49,0,1,0,1.58-.06.08-.47.16-.88.2-1.17a7.21,7.21,0,0,0,0-1.44l1.94.14c-.11.4-.24,1-.3,1.36l-.2.93a28.71,28.71,0,0,0,2.85-.54Zm-.49,5.4a5.84,5.84,0,0,0-.23,1.37c0,.72.39,1.36,2.4,1.36a17,17,0,0,0,3.17-.32l-.05,1.62a21.48,21.48,0,0,1-3.13.22c-2.58,0-3.91-.84-3.91-2.41a10.4,10.4,0,0,1,.24-2Zm-.63-3.91a26.84,26.84,0,0,1,3-.16c.92,0,1.88.05,2.77.14l-.05,1.53a21.85,21.85,0,0,0-2.68-.2,26.63,26.63,0,0,0-3,.16Z"/><path class="cls-5" d="M576,119.81c0,1,0,2.34.11,3.57.24,2.5.89,4.16,1.94,4.16.8,0,1.49-1.73,1.84-3.18l1.28,1.49c-1,2.72-2,3.66-3.15,3.66-1.6,0-3.07-1.53-3.51-5.71a42,42,0,0,1-.17-4.24,8.51,8.51,0,0,0-.11-1.49l1.93,0A12.8,12.8,0,0,0,576,119.81Zm11.11,6.6-1.65.64c-.25-2.72-1.17-6.13-2.77-8l1.59-.53A16.86,16.86,0,0,1,587.13,126.41Z"/><path class="cls-5" d="M87.63,156.08A11,11,0,0,0,85,154.41l.83-1.08a10.4,10.4,0,0,1,2.69,1.55Zm-2.3,6.58a48.17,48.17,0,0,0,2.42-5.16l1.18.84c-.66,1.69-1.5,3.61-2.26,5.13Zm3-10.71a10.88,10.88,0,0,0-2.61-1.76l.84-1.07a10.21,10.21,0,0,1,2.67,1.64Zm3.3.27a13,13,0,0,1-1.6,2.42,9.38,9.38,0,0,0-1.26-.87A11.45,11.45,0,0,0,91.36,149l1.48.32c-.16.54-.36,1.07-.56,1.6h7.28v1.34ZM98.47,158c0,.83-.1,1.52-.16,2.11h1.42v1.28H98.15a3.48,3.48,0,0,1-.51,1.56,1.44,1.44,0,0,1-1.17.62,11.22,11.22,0,0,1-2,0,2.82,2.82,0,0,0-.37-1.23c.77.06,1.45.08,1.76.08a.63.63,0,0,0,.58-.24,2.14,2.14,0,0,0,.31-.79H91.3l-.13.74L89.75,162c.2-1.07.45-2.49.67-4H89v-1.36h1.61c.16-1.12.29-2.22.39-3.2h7.71s0,.48,0,.66c0,.94-.08,1.79-.11,2.54h1.3V158Zm-6.67,0c-.1.74-.21,1.44-.31,2.11h2c.08-.62.16-1.36.26-2.11Zm.41-3.26c-.08.62-.16,1.26-.24,1.9h1.87c.07-.66.13-1.3.18-1.9Zm4.71,5.37c.06-.56.13-1.26.17-2.11H95c-.08.77-.16,1.49-.24,2.11Zm.25-3.47c0-.58.07-1.22.1-1.9h-2c0,.6-.11,1.26-.18,1.9Z"/><path class="cls-5" d="M112.55,156.37a14,14,0,0,0,3.52,2.35A5.52,5.52,0,0,0,115,160a13.63,13.63,0,0,1-2.46-1.66v5.28H111v-6.74a17.79,17.79,0,0,1-2.19-2.88c-1.18,4.78-3.51,7.89-6.43,9.55a5.51,5.51,0,0,0-1.21-1.1,11.18,11.18,0,0,0,4.55-4.43,20.13,20.13,0,0,0-2.75-2.09c-.31.4-.63.77-1,1.11a10.63,10.63,0,0,0-1.25-1,14.46,14.46,0,0,0,3.8-7.1l1.47.3a19.41,19.41,0,0,1-.66,2.08H108l.28-.05,1,.34c-.08.46-.16.93-.24,1.36l.58-.22a12.73,12.73,0,0,0,1.37,2V149h1.54Zm-7.73-3.62a17.93,17.93,0,0,1-1.07,2.05,22.76,22.76,0,0,1,2.67,1.87,17.53,17.53,0,0,0,1.18-3.92Z"/><path class="cls-5" d="M125,148.91a18.68,18.68,0,0,0,6.93,6,7.84,7.84,0,0,0-1,1.32,22,22,0,0,1-6.62-5.85,20.68,20.68,0,0,1-6.47,5.92,6.49,6.49,0,0,0-1-1.2,18.16,18.16,0,0,0,6.58-6.21Zm.28,13h5.89v1.35H117.62v-1.35h1.89v-5.74H121v5.74h2.71v-8.56h1.57v3.59h4.43v1.34h-4.43Z"/><path class="cls-5" d="M142.36,160a14.77,14.77,0,0,0,5.42,2.18,6.76,6.76,0,0,0-1,1.33,14.33,14.33,0,0,1-5.73-3v3.22H139.6v-3.11a15.89,15.89,0,0,1-5.68,2.88,6.48,6.48,0,0,0-1-1.26,15.58,15.58,0,0,0,5.4-2.23h-5V158.7h6.21v-1h-4.72v-1.12h4.72v-1h-5.5v-1.19h3.28a8.59,8.59,0,0,0-.67-1.45l.38-.07h-3.63v-1.25h2.37a12.16,12.16,0,0,0-1.17-2.16l1.29-.43a10.67,10.67,0,0,1,1.28,2.29l-.81.3h1.76V149h1.39v2.73h1.59V149h1.4v2.73h1.73l-.6-.19a14.28,14.28,0,0,0,1.12-2.37l1.53.39a23.75,23.75,0,0,1-1.33,2.17h2.31v1.25h-3.09c-.31.54-.62,1.07-.9,1.52h3.4v1.19h-5.67v1H146v1.12h-4.91v1h6.31V160Zm-4.12-7a6.38,6.38,0,0,1,.69,1.43l-.46.09h3.37a15.37,15.37,0,0,0,.71-1.52Z"/><path class="cls-5" d="M156.52,160.18c0-.55.06-1.44.06-2.23-1.34.75-2.19,1.47-2.19,2.4,0,1.09,1,1.3,2.62,1.3a26.25,26.25,0,0,0,4.4-.42l0,1.62a41.6,41.6,0,0,1-4.41.27c-2.37,0-4.21-.54-4.21-2.51s1.91-3.19,3.73-4.12a1.23,1.23,0,0,0-1.28-.78,4,4,0,0,0-2.62,1.14,15.78,15.78,0,0,0-1.46,1.69l-1.36-1a16.52,16.52,0,0,0,3.59-4.63h-.47c-.65,0-1.76,0-2.64-.09v-1.49a23.63,23.63,0,0,0,2.72.17h.93a9.22,9.22,0,0,0,.37-1.9l1.65.13c-.1.41-.23,1-.45,1.71a37.07,37.07,0,0,0,4.69-.46v1.47a47.51,47.51,0,0,1-5.22.43,11.6,11.6,0,0,1-1.2,2.07,4.65,4.65,0,0,1,2-.47,2.09,2.09,0,0,1,2.11,1.35c1-.47,1.79-.8,2.55-1.14.52-.24,1-.45,1.5-.7l.62,1.47c-.43.13-1.12.38-1.6.57-.81.31-1.84.74-2.94,1.25,0,.9,0,2.16.06,2.92Z"/><path class="cls-5" d="M82.18,177.8H77v-1.19h5.19Zm-.43,9.95h-3v.71H77.62v-5.38h4.13Zm-4.1-9h4.11v1.15H77.65Zm0,2.13h4.11v1.17H77.65Zm4.08-5.25h-4V174.5h4Zm-2.93,8.61v2.3h1.75v-2.3Zm12.65.77a14.92,14.92,0,0,1-1.86,1.1,6.33,6.33,0,0,0,2.35,1.43,4.13,4.13,0,0,0-.86,1.07,7.2,7.2,0,0,1-4.2-4.63h-.12a8.43,8.43,0,0,1-1.2,1V187l2.44-.4.1,1.09c-1.73.32-3.54.65-4.93.88l-.37-1.15,1.49-.23v-1.38a14.67,14.67,0,0,1-1.63.74,9.13,9.13,0,0,0-.8-1A11.69,11.69,0,0,0,85.09,184H82.23v-1h2.38v-.75h-1.5v-1h1.5v-.73H82.75v-1h1.86V178.4h1.33v1.11h2V178.4h1.37v1.11h2v1h-2v.73H91v1H89.29V183h2.43v1H88.15a7.53,7.53,0,0,0,.78,1.35,18,18,0,0,0,1.7-1.11Zm-5.21-8.12a9.45,9.45,0,0,1-3.21,2.2,7.25,7.25,0,0,0-1-.93A8.36,8.36,0,0,0,85,176.55Zm5.27-.46h-9v-1.12h3.65V174h1.5v1.39h3.86Zm-5.57,4.78h2v-.73h-2Zm0,1.73h2v-.75h-2Zm2.69-6.5a16.88,16.88,0,0,1,3.1,1.78l-1,.77a14.28,14.28,0,0,0-3.09-1.86Z"/><path class="cls-5" d="M98,174.72a28.1,28.1,0,0,0-.68,3.93c.68-1.46,2.22-3.16,4.13-3.16,2.16,0,3.76,2.13,3.76,5.54,0,4.42-2.77,6.45-6.81,7.19l-1-1.44c3.48-.55,6.07-1.83,6.07-5.75,0-2.47-.82-4.08-2.34-4.08-1.92,0-3.68,2.85-3.81,4.93a7.64,7.64,0,0,0,0,1.82l-1.55.11a19.12,19.12,0,0,1-.19-2.56,41.14,41.14,0,0,1,.48-5.1c.06-.53.11-1.07.13-1.49Z"/><path class="cls-5" d="M121.29,181.94a9.74,9.74,0,0,1-3.41,3.89,20.77,20.77,0,0,0,5.63,1.33,6.67,6.67,0,0,0-.91,1.41,19.78,19.78,0,0,1-6.24-1.86,22.44,22.44,0,0,1-6.33,1.88,4.54,4.54,0,0,0-.86-1.35,21.65,21.65,0,0,0,5.74-1.41,11,11,0,0,1-2.91-2.94l.29-.13h-.69v-1.38H120l.28,0Zm-10.38-.09h-1.39v-3.32h2.42a10.59,10.59,0,0,0-.91-1.9l1.29-.37a8.87,8.87,0,0,1,1,2l-.87.27h3.46a9,9,0,0,0-.72-2.25l1.33-.29a9.32,9.32,0,0,1,.8,2.21l-1.35.33h3.19a18.64,18.64,0,0,0,1.28-2.57l1.55.41c-.41.72-.88,1.52-1.33,2.16h2.52v3.32h-1.46v-2H110.91Zm11.54-6.74a87.67,87.67,0,0,1-12.45,1.2,4.16,4.16,0,0,0-.32-1.27,82.58,82.58,0,0,0,11.73-1.15Zm-8.86,7.65a8.8,8.8,0,0,0,2.8,2.35,7.94,7.94,0,0,0,2.65-2.35Z"/><path class="cls-5" d="M128.66,175.11c-.11.33-.24.83-.32,1.15-.45,2.05-1,5.44-.48,7.76.22-.59.53-1.45.8-2.16l.83.53a37.79,37.79,0,0,0-1.06,3.67,3.86,3.86,0,0,0-.08.72c0,.16,0,.4,0,.59l-1.38.16a17.46,17.46,0,0,1-.86-5.08,43.91,43.91,0,0,1,.55-6.33,11,11,0,0,0,.1-1.19Zm10.39,4.29c-.69.09-1.54.17-2.47.24v.59c0,3.68-.13,6.15-3.39,8.15l-1.47-1.15a5.91,5.91,0,0,0,1.68-1.13c1.48-1.37,1.64-3,1.64-5.89v-.49l-1.9,0c-.74,0-1.78-.05-2.51-.1v-1.6a16.15,16.15,0,0,0,2.48.16l1.9,0c0-1,0-1.9-.08-2.32a6.21,6.21,0,0,0-.16-1h1.84c0,.3,0,.64-.06,1s0,1.28,0,2.23a24.05,24.05,0,0,0,2.48-.34Z"/><path class="cls-5" d="M150,178.1a30.75,30.75,0,0,1-3.19.53c-.14.69-.32,1.39-.5,2.06a46.91,46.91,0,0,1-2.49,7.3l-1.76-.59a34.9,34.9,0,0,0,2.69-7.11c.14-.48.27-1,.38-1.52-.45,0-.86,0-1.26,0-.74,0-1.32,0-1.89-.07l0-1.57a13.87,13.87,0,0,0,1.93.13q.75,0,1.59-.06c.08-.47.16-.88.19-1.17a8.16,8.16,0,0,0,.05-1.44l1.93.14c-.11.4-.24,1-.3,1.36l-.19.93c1-.13,1.93-.32,2.85-.54Zm-.5,5.4a5.78,5.78,0,0,0-.22,1.37c0,.72.38,1.36,2.4,1.36a17.93,17.93,0,0,0,3.17-.32l0,1.62a21.63,21.63,0,0,1-3.14.22c-2.58,0-3.9-.85-3.9-2.41a11.24,11.24,0,0,1,.23-2Zm-.62-3.91a26.56,26.56,0,0,1,3-.16c.91,0,1.87,0,2.77.14l-.05,1.52a24.31,24.31,0,0,0-2.69-.19,26.33,26.33,0,0,0-3,.16Z"/><path class="cls-5" d="M160.07,177.86a34.63,34.63,0,0,0,.11,3.57c.24,2.5.88,4.16,1.93,4.16.8,0,1.49-1.73,1.85-3.18l1.28,1.49c-1,2.72-2,3.66-3.16,3.66-1.6,0-3.07-1.54-3.5-5.71a42.4,42.4,0,0,1-.18-4.24,7.59,7.59,0,0,0-.11-1.49l1.94,0A12.8,12.8,0,0,0,160.07,177.86Zm11.1,6.6-1.64.64c-.26-2.73-1.17-6.13-2.77-8l1.58-.53A16.65,16.65,0,0,1,171.17,184.46Z"/><path class="cls-3" d="M36,70.53V32.11H49.85q8.77,0,11.92,2.31a7.6,7.6,0,0,1,3.15,6.51q0,5.57-5.45,8.09v.2q8.23,1.72,8.23,9.51a10.36,10.36,0,0,1-4.07,8.62q-4.07,3.18-11.79,3.18ZM44.4,38.15v9.31h3.16A25.08,25.08,0,0,0,53.09,47a3.93,3.93,0,0,0,2.42-1.61,5.22,5.22,0,0,0,.79-3A4.21,4.21,0,0,0,55.6,40a3.81,3.81,0,0,0-2.28-1.44A30.42,30.42,0,0,0,47,38.15Zm0,15V64.49H47c2.33,0,4.13,0,5.38-.08a9.62,9.62,0,0,0,3.43-.73,5.13,5.13,0,0,0,2.35-1.92,5.52,5.52,0,0,0,.8-3,5.68,5.68,0,0,0-.83-3.19,4.7,4.7,0,0,0-2.39-1.81q-1.57-.55-7.33-.56Z"/><path class="cls-3" d="M101.13,70.53H93.3V66.4a29.48,29.48,0,0,1-5.81,3.93,11.2,11.2,0,0,1-4.67,1q-9.33,0-9.33-10.94V41h7.88V55.72q0,6.16,1.35,7.68t4.41,1.5a11.89,11.89,0,0,0,6.17-2.3V41h7.83Z"/><path class="cls-3" d="M136.85,41,120.66,81.17H112.4l4.48-10.59L105.33,41h8.49l7.45,21.08L128.79,41Z"/><path class="cls-3" d="M689,32.31a1.5,1.5,0,0,0,0-3,1.5,1.5,0,0,0,0,3Z"/><path class="cls-4" d="M718.36,248.08a18.57,18.57,0,1,1,18.56-18.57h0A18.57,18.57,0,0,1,718.36,248.08Zm75,15.35a6.43,6.43,0,0,0-5.67-7.11l-.32,0-49.26-3.17-8.19-.15a.74.74,0,0,0-.6.27l-9.59,12a1.65,1.65,0,0,1-2.31.39,1.56,1.56,0,0,1-.38-.39l-9.6-12a.72.72,0,0,0-.59-.27l-8.16.15-49.27,3.17a6.43,6.43,0,0,0-6,6.82c0,.11,0,.21,0,.32a6.7,6.7,0,0,0,6.33,5.76L693.41,272a.84.84,0,0,1,.77.75l8.6,80.62,3.58,33a6.1,6.1,0,0,0,6,5.39h11.9a6.08,6.08,0,0,0,6.05-5.39l3.59-33,8.6-80.62a.82.82,0,0,1,.76-.75l43.65-2.8A6.7,6.7,0,0,0,793.32,263.43Z"/><path class="cls-4" d="M209.89,263.76a56,56,0,0,1-12.11-18.88l-1-2.87a4.18,4.18,0,0,1,.82-4.31,3.75,3.75,0,0,1,2.46-1,4.88,4.88,0,0,1,1.64.41l2.87,1.23a61.06,61.06,0,0,1,19.71,13.34l39,40.43a87.86,87.86,0,0,1,12.52,16.63L293.21,303a6.41,6.41,0,0,1,5.13.41l2.06,1-19.71,14.36,1.44,3.29a2.56,2.56,0,0,1-.61,2.46,2.53,2.53,0,0,1-1.85.61h-.62l-3.49-1.64-15.8,20.11-1-2a6.38,6.38,0,0,1-.2-5.13l7-18.47A92.87,92.87,0,0,1,249.91,305Z"/><path class="cls-4" d="M238.83,260.27l6.36-2-2.46-2.67h0a.2.2,0,0,1-.21-.2c-.41-.41.41-2.06,1.85-3.49s3.08-2.26,3.69-1.85a.21.21,0,0,0,.21.21h0l4.72,4.92.41.41,12.52-4.1-2.67-2.67h0a.21.21,0,0,1-.21-.21c-.41-.41.42-2,1.85-3.49s3.08-2.25,3.7-1.84a.2.2,0,0,0,.2.2h0l4.72,4.93.41.41,14-4.52,3.49,3.49L255,276.9Z"/><ellipse class="cls-4" cx="173.98" cy="302.55" rx="29.14" ry="30.58"/><path class="cls-4" d="M118.77,380.33c6.57,4.72,23.19,13.34,55.21,13.34h0c32,0,48.63-8.82,55.2-13.34a7.15,7.15,0,0,0,3.08-7c-2.46-19.29-20.73-29.34-32.84-34.07l-19.29,32.84-1.64-22.57,4.31-10.47H165.36l4.51,10.47L168,372.12l-19.49-32.84c-12.11,4.73-30.38,14.78-32.84,34.07A7.58,7.58,0,0,0,118.77,380.33Zm19.29-7.18h17v4.51h-17Z"/><path class="cls-4" d="M199.83,328.61l.83-2.46a37.09,37.09,0,0,0,8.41-23l3.08-8.82-.41-.41L207,289h0a.2.2,0,0,1-.21-.2c-.41-.41.41-2.05,1.85-3.49s3.08-2.26,3.69-1.85a.21.21,0,0,0,.21.21h0l2.67,2.87,2.66-7.39,16.63,17.24-31.2,35.92Z"/><polygon class="cls-2" points="423.17 438.17 466.47 404.67 379.87 404.67 423.17 438.17"/><path class="cls-6" d="M464.37,51.17H618.28c1.39.14,13.2,1.58,13.2,11v96s1,10-11.28,10H601.41a2.7,2.7,0,0,0-2.74,2.67v26.39a2.74,2.74,0,0,1-4.76,1.79l-25.8-27.86a2.74,2.74,0,0,0-2-.88H465.39S451,170.17,451,152.17v-90S450,51.17,464.37,51.17Z"/><path class="cls-6" d="M550.16,357.91H396.24c-1.38-.14-13.2-1.58-13.2-11v-96s-1-10,11.28-10h18.8a2.7,2.7,0,0,0,2.73-2.67v-26.4a2.75,2.75,0,0,1,4.77-1.78l25.79,27.86a2.78,2.78,0,0,0,2,.88H549.13s14.36.11,14.36,18.11v90S564.51,357.91,550.16,357.91Z"/><path class="cls-6" d="M810.16,67.17H656.24c-1.38.14-13.2,1.58-13.2,11v96s-1,10,11.28,10h18.8a2.7,2.7,0,0,1,2.73,2.67v26.39a2.75,2.75,0,0,0,4.77,1.79l25.79-27.86a2.78,2.78,0,0,1,2-.88H809.13s14.36-.11,14.36-18.11v-90S824.51,67.17,810.16,67.17Z"/><path class="cls-6" d="M47.46,110.17H201.37c1.39.14,13.2,1.58,13.2,11v96s1,10-11.28,10H184.5a2.7,2.7,0,0,0-2.74,2.67v26.39A2.74,2.74,0,0,1,177,258l-25.8-27.86a2.74,2.74,0,0,0-2-.88H48.48s-14.35-.11-14.35-18.11v-90S33.1,110.17,47.46,110.17Z"/><path class="cls-2" d="M653.55,308.78H642a.91.91,0,0,0-.91.91v6.7h-.05l-16.17-14.14a.91.91,0,0,1,0-1.38l16.17-14.14h.05v6.69a.92.92,0,0,0,.91.92h11.54a.91.91,0,0,1,.91.91v12.61A.92.92,0,0,1,653.55,308.78Z"/><rect class="cls-2" x="656.73" y="294.28" width="9.07" height="14.36"/><rect class="cls-2" x="668.07" y="294.28" width="9.07" height="14.36"/><rect class="cls-2" x="679.41" y="294.28" width="9.07" height="14.36"/><path class="cls-2" d="M653.55,342.79H642a.92.92,0,0,0-.91.92v6.69h-.05l-16.17-14.14a.91.91,0,0,1,0-1.38l16.17-14.14h.05v6.7a.91.91,0,0,0,.91.91h11.54a.92.92,0,0,1,.91.92v12.61A.91.91,0,0,1,653.55,342.79Z"/><rect class="cls-2" x="656.73" y="328.3" width="9.07" height="14.36"/><rect class="cls-2" x="668.07" y="328.3" width="9.07" height="14.36"/><rect class="cls-2" x="679.41" y="328.3" width="9.07" height="14.36"/><path class="cls-2" d="M786.14,330.62h11.53a.92.92,0,0,0,.92-.92V323h0l16.18,14.14a.93.93,0,0,1,0,1.38l-16.18,14.14h0V346a.92.92,0,0,0-.92-.91H786.14a.92.92,0,0,1-.92-.92V331.53A.92.92,0,0,1,786.14,330.62Z"/><rect class="cls-2" x="773.89" y="330.75" width="9.07" height="14.36" transform="translate(1556.84 675.87) rotate(180)"/><rect class="cls-2" x="762.55" y="330.75" width="9.07" height="14.36" transform="translate(1534.17 675.87) rotate(180)"/><rect class="cls-2" x="751.21" y="330.75" width="9.07" height="14.36" transform="translate(1511.49 675.87) rotate(180)"/><path class="cls-2" d="M786.14,296.61h11.53a.92.92,0,0,0,.92-.92V289h0l16.18,14.14a.93.93,0,0,1,0,1.38l-16.18,14.14h0V312a.92.92,0,0,0-.92-.91H786.14a.92.92,0,0,1-.92-.92V297.52A.92.92,0,0,1,786.14,296.61Z"/><rect class="cls-2" x="773.89" y="296.74" width="9.07" height="14.36" transform="translate(1556.84 607.84) rotate(180)"/><rect class="cls-2" x="762.55" y="296.74" width="9.07" height="14.36" transform="translate(1534.17 607.84) rotate(180)"/><rect class="cls-2" x="751.21" y="296.74" width="9.07" height="14.36" transform="translate(1511.49 607.84) rotate(180)"/><path class="cls-2" d="M297.26,216.6a2.94,2.94,0,0,0,3,3h13a3,3,0,0,0,3-3V198.27a102.85,102.85,0,0,1-18.79,1.7V216.6Z"/><path class="cls-2" d="M324.7,196.44V216.6a2.94,2.94,0,0,0,3,3h12.86a2.94,2.94,0,0,0,3-3v-27a99.26,99.26,0,0,1-14.68,5.58C327.43,195.65,326.06,196.1,324.7,196.44Z"/><path class="cls-2" d="M352.14,185.06v31.65a3,3,0,0,0,3,3H368a2.93,2.93,0,0,0,3-3V171.17a113.43,113.43,0,0,1-10.81,8.65C357.26,181.87,354.64,183.58,352.14,185.06Z"/><path class="cls-2" d="M390.85,147.94a140.3,140.3,0,0,1-9.45,12.53c-.57.68-1.26,1.36-1.83,2.05V216.6a3,3,0,0,0,3,3h12.76a3,3,0,0,0,3-3v-68a11.17,11.17,0,0,1-2.74.34A11,11,0,0,1,390.85,147.94Z"/><path class="cls-2" d="M387.89,137.36l6.14,3.18a3.36,3.36,0,0,0,4.9-3.41l-2.62-22.77a3.34,3.34,0,0,0-4.9-2.62l-20.26,10.59a3.43,3.43,0,0,0,0,6l6.49,3.42c-.91,1.59-1.94,3.3-3,4.89a125.06,125.06,0,0,1-8.2,10.93,103.34,103.34,0,0,1-17.65,16.17,79.77,79.77,0,0,1-8.19,5.12A89.39,89.39,0,0,1,323,176.52c-2.62.8-5.35,1.48-8.08,2a89.83,89.83,0,0,1-17.54,1.82,5.83,5.83,0,0,0-5.8,5.81,5.75,5.75,0,0,0,5.8,5.8,97.46,97.46,0,0,0,19.93-2,68,68,0,0,0,9.22-2.4A102.52,102.52,0,0,0,346.44,179c3.08-1.71,6-3.65,9.23-5.81a110.27,110.27,0,0,0,19.81-18,114.51,114.51,0,0,0,9.1-12.07C385.61,141.23,386.75,139.29,387.89,137.36Z"/></g></g></svg>