<svg xmlns="http://www.w3.org/2000/svg" viewBox="0 0 239.05 239.05"><defs><style>.cls-1,.cls-2,.cls-3,.cls-6{fill:#c7161d;}.cls-1,.cls-2,.cls-3,.cls-5{stroke:#c7161d;}.cls-1,.cls-2,.cls-3,.cls-4,.cls-5{stroke-miterlimit:10;}.cls-1{stroke-width:0.65px;}.cls-2{stroke-width:0.6px;}.cls-3{stroke-width:0.94px;}.cls-4{fill:#fff;stroke:#fff;stroke-width:1.02px;}.cls-5{fill:none;stroke-width:5.67px;}</style></defs><g id="レイヤー_2" data-name="レイヤー 2"><g id="contents"><path class="cls-1" d="M170.6,99.78v1.36a1.35,1.35,0,0,0,1.35,1.35h6.73a1.36,1.36,0,0,1,1.35,1.35V105a1.35,1.35,0,0,1-1.35,1.35H172a1.35,1.35,0,0,0-1.35,1.36h0a1.35,1.35,0,0,0,1.35,1.35h6.73a1.36,1.36,0,0,1,1.35,1.35v6.76a1.35,1.35,0,0,0,1.35,1.36h2.34a1.35,1.35,0,0,0,1.35-1.36v-6.76a1.36,1.36,0,0,1,1.36-1.35h6.78a1.35,1.35,0,0,0,1.35-1.35h0a1.35,1.35,0,0,0-1.35-1.36h-6.78a1.35,1.35,0,0,1-1.36-1.35v-1.19a1.36,1.36,0,0,1,1.36-1.35h6.78a1.35,1.35,0,0,0,1.35-1.35h0a1.35,1.35,0,0,0-1.35-1.36h-4a1.35,1.35,0,0,1-1.13-2.1l8.1-12.19a1.35,1.35,0,0,0-1.13-2.1h-2.31a1.34,1.34,0,0,0-1.16.66l-6.18,10.38a42.63,42.63,0,0,0-2.43,5h-.18c-.73-1.62-1.46-3.09-2.43-4.93L174.4,84.08a1.35,1.35,0,0,0-1.18-.69h-2.49a1.36,1.36,0,0,0-1.15,2.07l7.64,12.26a1.36,1.36,0,0,1-1.15,2.07H170.6Z"/><path class="cls-2" d="M182.91,128.41a28.68,28.68,0,1,0-28.67-28.67A28.7,28.7,0,0,0,182.91,128.41Zm0-54.16a25.49,25.49,0,1,1-25.49,25.49A25.51,25.51,0,0,1,182.91,74.25Z"/><path class="cls-3" d="M66.75,179.77a45.2,45.2,0,1,0-45.19-45.2A45.25,45.25,0,0,0,66.75,179.77Z"/><path class="cls-4" d="M47.34,134.65v2.13a2.13,2.13,0,0,0,2.14,2.13H60.07A2.13,2.13,0,0,1,62.2,141v1.88a2.13,2.13,0,0,1-2.13,2.13H49.48a2.13,2.13,0,0,0-2.14,2.13h0a2.13,2.13,0,0,0,2.14,2.13H60.07a2.13,2.13,0,0,1,2.13,2.13V162.1a2.13,2.13,0,0,0,2.14,2.13H68a2.13,2.13,0,0,0,2.13-2.13V151.44a2.14,2.14,0,0,1,2.14-2.13H83a2.13,2.13,0,0,0,2.13-2.13h0A2.13,2.13,0,0,0,83,145.05H72.29a2.14,2.14,0,0,1-2.14-2.13V141a2.14,2.14,0,0,1,2.14-2.13H83a2.13,2.13,0,0,0,2.13-2.13h0A2.13,2.13,0,0,0,83,134.65H76.62a2.13,2.13,0,0,1-1.77-3.31L87.6,112.12a2.13,2.13,0,0,0-1.77-3.31H82.19a2.14,2.14,0,0,0-1.83,1L70.63,126.2a68.53,68.53,0,0,0-3.84,7.93h-.28c-1.15-2.55-2.31-4.86-3.84-7.76L53.33,109.9a2.13,2.13,0,0,0-1.85-1.08H47.55a2.12,2.12,0,0,0-1.81,3.25l12,19.32A2.14,2.14,0,0,1,56,134.65Z"/><rect class="cls-5" x="2.83" y="2.83" width="233.38" height="233.38" rx="14.17"/><path class="cls-6" d="M39.41,196.34l4.72-1.15c4.28-1,8.56-2.11,12.82-3.15l19-4.64c7.71-1.88,15.42-3.79,23.13-5.67l25.35-6.21L150,169.24l23.87-5.86L194,158.43l14.5-3.56c2.29-.56,4.58-1.11,6.86-1.68.1,0,.2,0,.3-.08a6.57,6.57,0,0,0,4-2.25,6.17,6.17,0,0,0,1.27-4.44,6,6,0,0,0-2.25-4,5.78,5.78,0,0,0-4.45-1.28l-4.71,1.16-12.82,3.14-19,4.64-23.14,5.68-25.35,6.21-25.58,6.28-23.87,5.86L59.68,179l-14.49,3.56-6.87,1.69-.29.07a6.57,6.57,0,0,0-4,2.25A6.18,6.18,0,0,0,32.71,191a6.05,6.05,0,0,0,2.26,4,5.7,5.7,0,0,0,4.44,1.27Z"/><path class="cls-6" d="M120,170l-6.77,10.2q-5.44,8.16-10.88,16.34c-.83,1.25-1.65,2.5-2.48,3.73-2.58,3.89.85,9.08,5.22,9.08h40.28c4.37,0,7.8-5.21,5.22-9.08l-6.77-10.2q-5.45-8.16-10.88-16.34c-.83-1.25-1.65-2.5-2.48-3.73-1.75-2.62-5.42-4-8.26-2.17-2.62,1.69-4,5.46-2.18,8.26q3.39,5.1,6.77,10.19,5.45,8.16,10.88,16.34l2.48,3.73c1.73-3,3.49-6.06,5.22-9.09H105.13c1.73,3,3.49,6.07,5.22,9.09l6.77-10.19Q122.57,188,128,179.84c.83-1.24,1.65-2.49,2.48-3.72a6.07,6.07,0,0,0-2.18-8.26A6.16,6.16,0,0,0,120,170Z"/><path class="cls-6" d="M126.77,53.81c-.07-1.16-.14-2.7-.12-4h0c-.22,1.3-.54,2.79-.77,3.72l-1,4.31h-1.66l-1-4.24c-.24-1-.56-2.48-.74-3.79h0c0,1.32-.13,2.85-.19,4L121,58h-2L119.81,46h2.48l1,4.37c.34,1.53.64,2.86.86,4.23h0c.18-1.34.45-2.7.77-4.23l1-4.37h2.48L129.08,58H127Z"/><path class="cls-6" d="M142,58c-.18-.24-.34-.45-.57-.79a3.91,3.91,0,0,1-2.61.94,3.21,3.21,0,0,1-3.34-3.39,3.78,3.78,0,0,1,1.89-3.31v0a4.35,4.35,0,0,1-.89-2.61,2.9,2.9,0,0,1,3-3,2.55,2.55,0,0,1,2.65,2.7c0,1.1-.34,2.09-2.09,3.28v.09c.53.78,1.32,2,1.78,2.54a6.92,6.92,0,0,0,.54-2.82h2a8.08,8.08,0,0,1-1.51,4.26L144.55,58Zm-1.5-2.17c-.63-.78-1.5-2-2.19-3a2.35,2.35,0,0,0-.68,1.66,1.74,1.74,0,0,0,1.6,1.93A1.58,1.58,0,0,0,140.5,55.86Zm-1.94-7.13a3,3,0,0,0,.59,1.8,2.3,2.3,0,0,0,1-1.91c0-.55-.15-1.25-.77-1.25S138.56,48,138.56,48.73Z"/><path class="cls-6" d="M153,55.27,152.43,58h-2.28L152.77,46h2.81L157.93,58h-2.29l-.51-2.76Zm2-1.82-.4-2.53c-.12-.73-.28-1.94-.4-2.74h0c-.13.8-.31,2-.44,2.75l-.44,2.52Z"/><path class="cls-6" d="M172.85,46.14a11.78,11.78,0,0,1,2.46-.24,4.64,4.64,0,0,1,3.28.93,3.52,3.52,0,0,1,1,2.65,4,4,0,0,1-1,2.9,4.17,4.17,0,0,1-2.93,1.16h-.48V58h-2.34Zm2.34,5.48a1.63,1.63,0,0,0,.39,0c1.19,0,1.71-.84,1.71-2s-.43-1.89-1.52-1.89a1.91,1.91,0,0,0-.58.09Z"/><path class="cls-6" d="M186.54,55.27,186,58h-2.28L186.35,46h2.81L191.51,58h-2.29l-.51-2.76Zm2-1.82-.4-2.53c-.12-.73-.28-1.94-.4-2.74h0c-.13.8-.31,2-.44,2.75l-.44,2.52Z"/><path class="cls-6" d="M198.21,46.14a12.73,12.73,0,0,1,2.56-.24,4.69,4.69,0,0,1,3.22.9,3.12,3.12,0,0,1,1,2.51,3.2,3.2,0,0,1-1.86,3v0c.82.34,1.23,1.09,1.46,2.4a20.45,20.45,0,0,0,.77,3.27h-2.45a15.49,15.49,0,0,1-.6-2.89c-.21-1.5-.59-1.92-1.37-1.92h-.35V58h-2.34Zm2.34,5.27H201a1.67,1.67,0,0,0,1.6-1.88c0-1-.4-1.76-1.45-1.79a1.85,1.85,0,0,0-.57.07Z"/><path class="cls-6" d="M212,46h2.34v5.43h0c.2-.51.38-1,.59-1.56L216.59,46h2.58l-2.7,5.25L219.21,58h-2.56l-1.76-5-.55,1v4H212Z"/></g></g></svg>