<svg xmlns="http://www.w3.org/2000/svg" viewBox="0 0 233.38 233.38"><defs><style>.cls-1{fill:#c7161d;}</style></defs><g id="レイヤー_2" data-name="レイヤー 2"><g id="contents"><path class="cls-1" d="M219.21,5.67a8.51,8.51,0,0,1,8.5,8.5v205a8.51,8.51,0,0,1-8.5,8.5h-205a8.51,8.51,0,0,1-8.5-8.5v-205a8.51,8.51,0,0,1,8.5-8.5h205m0-5.67h-205A14.22,14.22,0,0,0,0,14.17v205a14.22,14.22,0,0,0,14.17,14.17h205a14.22,14.22,0,0,0,14.17-14.17v-205A14.22,14.22,0,0,0,219.21,0Z"/><path class="cls-1" d="M151.6,170.86a6.49,6.49,0,1,1-13,0,36,36,0,0,0-4-15.52v17.84c0,.25,0,.48,0,.73H100c0-.25,0-.48,0-.73V155.34a36.12,36.12,0,0,0-4,15.54,6.51,6.51,0,0,1-6.49,6.46h0A6.48,6.48,0,0,1,83,170.86a51.28,51.28,0,0,1,3.27-16.62c4.5-11.76,12.88-19.25,24.26-21.69l.12,0,.31-.07h0a14.18,14.18,0,0,1,3.08-.34h6.48a14.18,14.18,0,0,1,3.08.34h0l.31.07.12,0c11.37,2.44,19.76,9.93,24.26,21.69A51.2,51.2,0,0,1,151.6,170.86Zm-34.29-42A14.35,14.35,0,1,0,103,114.54,14.36,14.36,0,0,0,117.31,128.89Zm-47.17-60c-2-5.33-5.83-8.72-11-9.83H59.1L59,59h0a5.87,5.87,0,0,0-1.39-.16H54.63a5.75,5.75,0,0,0-1.39.16h0l-.14,0H53c-5.14,1.11-8.94,4.5-11,9.83a23.37,23.37,0,0,0-1.48,7.52,2.93,2.93,0,0,0,2.92,2.93h0a2.93,2.93,0,0,0,2.93-2.92,16.47,16.47,0,0,1,1.82-7v8.08c0,.11,0,.22,0,.33H63.92c0-.11,0-.22,0-.33V69.33a16.31,16.31,0,0,1,1.82,7,2.94,2.94,0,1,0,5.88,0A23.22,23.22,0,0,0,70.14,68.84Zm-14-11.49a6.5,6.5,0,1,0-6.5-6.49A6.5,6.5,0,0,0,56.1,57.35Zm2.69,52.8c-2-5.32-5.83-8.71-11-9.82h-.06a.7.7,0,0,0-.14,0h0a6.43,6.43,0,0,0-1.39-.15H43.28a6.37,6.37,0,0,0-1.39.15h0a.7.7,0,0,0-.14,0h-.06c-5.14,1.11-8.94,4.5-11,9.82a23.45,23.45,0,0,0-1.48,7.53,2.93,2.93,0,0,0,2.93,2.93h0a2.93,2.93,0,0,0,2.93-2.92,16.59,16.59,0,0,1,1.83-7v8.41H52.57c0-.11,0-.22,0-.33v-8.08a16.31,16.31,0,0,1,1.82,7,2.94,2.94,0,1,0,5.88,0A23.3,23.3,0,0,0,58.79,110.15Zm-14-11.48a6.5,6.5,0,1,0-6.5-6.49A6.5,6.5,0,0,0,44.75,98.67ZM200.6,110.15c-2-5.32-5.83-8.71-11-9.82h-.06a.58.58,0,0,0-.14,0h0a6.43,6.43,0,0,0-1.39-.15h-2.94a6.46,6.46,0,0,0-1.4.15h0l-.14,0h-.06c-5.14,1.11-8.94,4.5-11,9.82a23.45,23.45,0,0,0-1.48,7.53,2.93,2.93,0,0,0,2.92,2.93h0a2.93,2.93,0,0,0,2.94-2.92,16.67,16.67,0,0,1,1.82-7v8.08c0,.11,0,.22,0,.33h15.65c0-.11,0-.22,0-.33v-8.08a16.31,16.31,0,0,1,1.82,7,2.94,2.94,0,1,0,5.88,0A23.3,23.3,0,0,0,200.6,110.15Zm-14-11.48a6.5,6.5,0,1,0-6.5-6.49A6.5,6.5,0,0,0,186.56,98.67ZM162,76.36a2.94,2.94,0,1,0,5.88,0,16.31,16.31,0,0,1,1.82-7v8.08c0,.11,0,.22,0,.33h15.64c0-.11,0-.22,0-.33V69.33a16.31,16.31,0,0,1,1.82,7,3,3,0,0,0,2.94,2.92h0a2.93,2.93,0,0,0,2.93-2.93,23.37,23.37,0,0,0-1.48-7.52c-2-5.33-5.84-8.72-11-9.83h-.05l-.14,0h0a5.75,5.75,0,0,0-1.39-.16h-2.94a5.81,5.81,0,0,0-1.39.16h0l-.13,0h-.06c-5.15,1.11-8.95,4.5-11,9.83A22.92,22.92,0,0,0,162,76.36Zm22-25.5a6.5,6.5,0,1,0-6.49,6.49A6.5,6.5,0,0,0,184,50.86ZM131.35,57.1c-2-5.33-5.83-8.72-11-9.83h-.06l-.13,0h0a6.37,6.37,0,0,0-1.39-.15h-2.94a6.37,6.37,0,0,0-1.39.15h0l-.14,0h0c-5.15,1.11-9,4.5-11,9.83a23.37,23.37,0,0,0-1.48,7.52,2.93,2.93,0,0,0,2.93,2.93h0a2.93,2.93,0,0,0,2.93-2.92,16.56,16.56,0,0,1,1.83-7v8.08c0,.11,0,.22,0,.33h15.64c0-.11,0-.22,0-.33V57.59a16.31,16.31,0,0,1,1.82,7,2.94,2.94,0,1,0,5.88,0A23.22,23.22,0,0,0,131.35,57.1Zm-14-11.49a6.5,6.5,0,1,0-6.5-6.5A6.5,6.5,0,0,0,117.31,45.61Zm0,44.44h0a1.63,1.63,0,0,0,1.62-1.62h0a1.63,1.63,0,0,0-1.62-1.62h0a1.62,1.62,0,0,0,0,3.24Zm0-5.4h0A1.63,1.63,0,0,0,118.93,83h0a1.62,1.62,0,0,0-1.62-1.62h0a1.62,1.62,0,0,0,0,3.24Zm0-5.41h0a1.63,1.63,0,0,0,1.62-1.62h0A1.63,1.63,0,0,0,117.31,76h0a1.62,1.62,0,0,0,0,3.24Zm0-5.4h0a1.63,1.63,0,0,0,1.62-1.62h0a1.62,1.62,0,0,0-1.62-1.62h0a1.62,1.62,0,0,0,0,3.24ZM92.87,99.68h0A1.6,1.6,0,0,0,94,99.21h0a1.62,1.62,0,0,0,0-2.29h0a1.62,1.62,0,0,0-2.3,0h0a1.62,1.62,0,0,0,1.16,2.76ZM89,95.86h0a1.63,1.63,0,0,0,1.15-.48h0a1.62,1.62,0,0,0,0-2.29h0a1.64,1.64,0,0,0-2.3,0h0A1.63,1.63,0,0,0,89,95.86ZM85.22,92h0a1.63,1.63,0,0,0,1.15-.48h0a1.62,1.62,0,0,0,0-2.29h0a1.62,1.62,0,0,0-2.3,0h0A1.63,1.63,0,0,0,85.22,92Zm-3.83-3.82h0a1.64,1.64,0,0,0,1.15-.48h0a1.62,1.62,0,0,0,0-2.3h0a1.62,1.62,0,0,0-2.29,0h0a1.63,1.63,0,0,0,1.14,2.78Zm60.36,11.46h0a1.62,1.62,0,0,0,1.15-.47h0a1.62,1.62,0,0,0,0-2.29h0a1.62,1.62,0,0,0-2.3,0h0a1.62,1.62,0,0,0,1.15,2.76Zm3.83-3.82h0a1.59,1.59,0,0,0,1.14-.48h0a1.61,1.61,0,0,0,0-2.29h0a1.62,1.62,0,0,0-2.29,0h0a1.63,1.63,0,0,0,1.15,2.77ZM149.4,92h0a1.63,1.63,0,0,0,1.15-.48h0a1.62,1.62,0,0,0,0-2.29h0a1.62,1.62,0,0,0-2.3,0h0A1.63,1.63,0,0,0,149.4,92Zm3.82-3.82h0a1.66,1.66,0,0,0,1.15-.48h0a1.64,1.64,0,0,0,0-2.3h0a1.64,1.64,0,0,0-2.3,0h0a1.64,1.64,0,0,0,0,2.3A1.67,1.67,0,0,0,153.22,88.22ZM89,114.89h0a1.62,1.62,0,0,0,1.62-1.62h0A1.62,1.62,0,0,0,89,111.65h0a1.62,1.62,0,0,0,0,3.24Zm-5.41,0h0a1.61,1.61,0,0,0,1.62-1.62h0a1.61,1.61,0,0,0-1.62-1.62h0a1.62,1.62,0,1,0,0,3.24Zm-5.4,0h0a1.62,1.62,0,0,0,1.62-1.62h0a1.62,1.62,0,0,0-1.62-1.62h0a1.62,1.62,0,0,0,0,3.24Zm-5.41,0h0a1.61,1.61,0,0,0,1.62-1.62h0a1.61,1.61,0,0,0-1.62-1.62h0a1.62,1.62,0,1,0,0,3.24Zm89,0h0a1.62,1.62,0,0,0,1.62-1.62h0a1.62,1.62,0,0,0-1.62-1.62h0a1.62,1.62,0,0,0,0,3.24Zm-5.41,0h0a1.61,1.61,0,0,0,1.62-1.62h0a1.61,1.61,0,0,0-1.62-1.62h0a1.62,1.62,0,1,0,0,3.24Zm-5.4,0h0a1.62,1.62,0,0,0,1.62-1.62h0a1.62,1.62,0,0,0-1.62-1.62h0a1.62,1.62,0,0,0,0,3.24Zm-5.41,0h0a1.61,1.61,0,0,0,1.62-1.62h0a1.61,1.61,0,0,0-1.62-1.62h0a1.62,1.62,0,0,0,0,3.24Z"/><path class="cls-1" d="M50.78,197.15c-.1-1.8-.21-4.2-.17-6.23h-.08c-.33,2-.84,4.33-1.19,5.79l-1.63,6.71H45.12l-1.56-6.61c-.37-1.52-.86-3.85-1.15-5.89h-.07c-.05,2.05-.18,4.42-.28,6.28l-.32,6.52H38.61L40,184.93h3.85l1.5,6.8c.53,2.38,1,4.46,1.34,6.58h.06c.28-2.08.7-4.2,1.2-6.58l1.48-6.8h3.86l1.14,18.79H51.12Z"/><path class="cls-1" d="M74.49,203.72c-.28-.38-.53-.7-.89-1.23A6.11,6.11,0,0,1,69.53,204a5,5,0,0,1-5.19-5.27,5.86,5.86,0,0,1,3-5.15v-.06a6.83,6.83,0,0,1-1.39-4.08,4.51,4.51,0,0,1,4.7-4.68,4,4,0,0,1,4.13,4.2c0,1.71-.52,3.25-3.25,5.11v.12c.82,1.23,2,3.06,2.77,4a10.69,10.69,0,0,0,.83-4.4h3.09a12.63,12.63,0,0,1-2.35,6.63c.61.8,1.55,2,2.63,3.38Zm-2.34-3.37c-1-1.23-2.33-3.15-3.41-4.71a3.67,3.67,0,0,0-1,2.58c0,1.63,1,3,2.49,3A2.47,2.47,0,0,0,72.15,200.35Zm-3-11.11a4.72,4.72,0,0,0,.92,2.81,3.6,3.6,0,0,0,1.63-3c0-.84-.24-1.93-1.2-1.93S69.13,188.07,69.13,189.24Z"/><path class="cls-1" d="M91.54,199.43l-.82,4.29H87.17l4.09-18.79h4.37l3.66,18.79H95.73l-.8-4.29Zm3.06-2.83L94,192.66c-.19-1.14-.44-3-.62-4.27h-.07c-.2,1.25-.48,3.19-.68,4.28l-.68,3.93Z"/><path class="cls-1" d="M122.51,185.21a19.3,19.3,0,0,1,3.82-.36c2.18,0,3.88.32,5.11,1.44a5.45,5.45,0,0,1,1.61,4.12,6.32,6.32,0,0,1-1.59,4.52,6.49,6.49,0,0,1-4.57,1.81h-.74v7h-3.64Zm3.64,8.54a2.93,2.93,0,0,0,.61,0c1.84,0,2.66-1.31,2.66-3.07s-.67-2.93-2.36-2.93a2.9,2.9,0,0,0-.91.14Z"/><path class="cls-1" d="M143.81,199.43l-.83,4.29h-3.54l4.08-18.79h4.37l3.66,18.79H148l-.8-4.29Zm3.05-2.83-.62-3.94c-.18-1.14-.43-3-.62-4.27h-.07c-.2,1.25-.48,3.19-.67,4.28l-.69,3.93Z"/><path class="cls-1" d="M162,185.21a20.54,20.54,0,0,1,4-.36c2,0,3.8.29,5,1.39a4.84,4.84,0,0,1,1.5,3.91,5,5,0,0,1-2.9,4.7v.05c1.27.52,1.92,1.7,2.28,3.73a30.07,30.07,0,0,0,1.2,5.09h-3.82a25.24,25.24,0,0,1-.94-4.49c-.32-2.34-.92-3-2.13-3h-.55v7.49H162Zm3.64,8.2h.67c1.59,0,2.49-1.29,2.49-2.92s-.64-2.74-2.27-2.79a2.84,2.84,0,0,0-.89.11Z"/><path class="cls-1" d="M183.45,184.93h3.64v8.46h.07c.31-.8.59-1.62.92-2.44l2.5-6h4l-4.22,8.18,4.27,10.61h-4L187.93,196l-.84,1.53v6.24h-3.64Z"/></g></g></svg>