<svg xmlns="http://www.w3.org/2000/svg" viewBox="0 0 846.34 436.17"><defs><style>.cls-1{fill:#231815}.cls-5{fill:none}.cls-3{fill:#c8161d}.cls-4{fill:#c7161d}.cls-5{stroke:#c8161d;stroke-linecap:round;stroke-linejoin:round;stroke-width:2.83px}.cls-7{fill:#fff}</style></defs><g id="レイヤー_2" data-name="レイヤー 2"><g id="追加項目"><path class="cls-1" d="M75.45 133.24a20.13 20.13 0 0 1-2.45 8.2 8.87 8.87 0 0 0 3.11 2.8 5.66 5.66 0 0 0-1 1.22 10.31 10.31 0 0 1-3-2.69 11 11 0 0 1-3 2.65 5.94 5.94 0 0 0-.93-1.15v1.31h-1.53v-2.73l-5.4.88-.25-1.49c.45-.05 1-.13 1.51-.19v-8.79h-1.19v-1.38h7.84V133h5.33Zm-11.54 0v1.86h2.74v-1.86Zm0 5.14h2.74v-2h-2.74Zm2.74 3.07v-1.73h-2.74v2.11Zm1.44 2.72a9.15 9.15 0 0 0 3.1-2.78 22.63 22.63 0 0 1-2.27-6.58l1.44-.29a20.43 20.43 0 0 0 1.73 5.48 17.88 17.88 0 0 0 1.73-5.46h-5.08v-1.23h-.65ZM84.7 138.56a4.62 4.62 0 0 1-.07.65c-.27 3.65-.54 5.17-1.1 5.75a1.85 1.85 0 0 1-1.41.58 20.42 20.42 0 0 1-2.5 0 3.78 3.78 0 0 0-.54-1.56c1 .1 2 .12 2.45.12a1 1 0 0 0 .72-.18c.35-.31.61-1.44.81-4h-3.79l-.16.77-1.49-.24c.34-1.39.72-3.58.95-5.28h4.54v-2.24h-5v-1.38h6.49v5h-4.74c-.09.66-.22 1.35-.33 2Zm5.41-7.45v14.49H88.6v-14.49ZM105.67 144c.53 0 .63-.32.69-2.31a4.45 4.45 0 0 0 1.35.61c-.15 2.45-.55 3.11-1.91 3.11h-2.08c-1.58 0-2-.48-2-2v-4.32h-2.66c-.35 3-1.21 5.31-4.85 6.64a4.69 4.69 0 0 0-.93-1.31c3.29-1 3.94-3 4.21-5.33h-4v-1.44h6.24v-2.95h-3.02a12.09 12.09 0 0 1-1.31 2.3 7.93 7.93 0 0 0-1.31-.7 13.24 13.24 0 0 0 2.2-5.08l1.52.29c-.15.54-.33 1.14-.54 1.73h2.5v-2.34h1.5v2.34h5.08v1.42h-5.08v2.95h6.26v1.44h-4.27v4.32c0 .5.09.58.64.58ZM112.45 132.7c.13.27.44.85.6 1.13.27.5.56 1.08.85 1.69a15.42 15.42 0 0 1 5.58-1.67c2.31 0 3.72 1.38 3.72 3.15 0 2-1.33 3.38-3.78 3.38a7 7 0 0 1-2.4-.45v-1.57a5.57 5.57 0 0 0 2.21.53c1.51 0 2.28-.83 2.28-1.95 0-.9-.71-1.65-2.12-1.65a13.82 13.82 0 0 0-4.93 1.52L115 138c.82 1.86 1.91 5 2.45 6.77l-1.74.43a46.94 46.94 0 0 0-2.15-6.53l-.51-1.17c-1.19.6-2.24 1.14-3 1.46l-.75-1.62a11.07 11.07 0 0 0 1.43-.46c.51-.21 1.07-.45 1.66-.72-.29-.59-.56-1.12-.82-1.57a9.85 9.85 0 0 0-.83-1.23Zm4.49 1.28a22.57 22.57 0 0 0-2.07-1.86l1.15-.81a20.34 20.34 0 0 1 2.08 1.79ZM130 134.7a19.43 19.43 0 0 1-1.3 2v9h-1.39v-7.29a12 12 0 0 1-1.57 1.49 11.16 11.16 0 0 0-.82-1.36 14 14 0 0 0 3.77-4.26Zm-.32-3.27a16.6 16.6 0 0 1-3.79 3.83 8.35 8.35 0 0 0-.81-1.07 12.31 12.31 0 0 0 3.25-3.27Zm6.13 12.43a9.81 9.81 0 0 0 1.36.09H140a5.74 5.74 0 0 0-.45 1.42H137c-2.29 0-4.05-.58-5.24-2.71a7.94 7.94 0 0 1-1.71 3 8.86 8.86 0 0 0-1.15-1c1.52-1.45 2-3.87 2.19-6.78l1.49.11a25.54 25.54 0 0 1-.34 2.72 4.56 4.56 0 0 0 2.05 2.67V136h-3.86v-1.42h2.34a23.1 23.1 0 0 0-1.53-3l1.23-.52a20.44 20.44 0 0 1 1.68 3.09l-.9.44h3.81l-1.07-.41a19.43 19.43 0 0 0 1.5-3.23l1.44.5a32.42 32.42 0 0 1-1.61 3.14h2.22V136h-3.79v2.83h3.36v1.4h-3.36ZM150.5 141.9a14.82 14.82 0 0 0 5.43 2.18 6.39 6.39 0 0 0-1 1.33 14.33 14.33 0 0 1-5.73-3v3.22h-1.46v-3.11a15.89 15.89 0 0 1-5.68 2.88 6.48 6.48 0 0 0-1-1.26 15.58 15.58 0 0 0 5.4-2.23h-5v-1.25h6.21v-1H143v-1.12h4.72v-1h-5.5v-1.19h3.28a7.93 7.93 0 0 0-.68-1.45l.39-.07h-3.63v-1.25H144a12.75 12.75 0 0 0-1.16-2.16l1.29-.43a10.67 10.67 0 0 1 1.28 2.29l-.81.3h1.76v-2.73h1.39v2.73h1.58v-2.73h1.41v2.73h1.73l-.61-.19a13.52 13.52 0 0 0 1.12-2.37l1.54.39a23.75 23.75 0 0 1-1.33 2.17h2.31v1.25h-3.09c-.31.55-.63 1.07-.9 1.52h3.39v1.19h-5.66v1h4.91v1.12h-4.91v1h6.3v1.25Zm-4.11-7a6.59 6.59 0 0 1 .69 1.43l-.47.09H150a15.37 15.37 0 0 0 .71-1.52ZM167.19 142.93a46.29 46.29 0 0 1 4.72 1.66l-1.31 1a43.31 43.31 0 0 0-5-1.84l1.17-.86h-4.67l1.12.75a20.1 20.1 0 0 1-5 1.94 8.23 8.23 0 0 0-1.12-1.08 19.08 19.08 0 0 0 4.45-1.61h-2.77V136h11.43v6.93Zm2.44-7.7h-10.12v-3.75h10.12Zm-9.34 2.77h8.41v-.91h-8.41Zm0 1.94h8.41V139h-8.41Zm0 1.93h8.41v-.94h-8.41Zm7.77-9.18H161V134h7.06ZM177 132.25c-.11.3-.27.93-.34 1.22a37.64 37.64 0 0 0-.78 6 11.67 11.67 0 0 0 .11 1.66c.24-.64.56-1.41.8-2l.83.64a30.77 30.77 0 0 0-1.13 3.69 2.72 2.72 0 0 0-.08.73v.59l-1.44.09a19.71 19.71 0 0 1-.61-5.12 44.32 44.32 0 0 1 .69-6.32 11.4 11.4 0 0 0 .14-1.31Zm3.65 7.75a5.84 5.84 0 0 0-.19 1.41c0 .72.52 1.28 2.45 1.28a17.71 17.71 0 0 0 4-.42v1.7a21.58 21.58 0 0 1-4 .32c-2.69 0-3.93-.93-3.93-2.47a9.31 9.31 0 0 1 .27-1.95Zm5.74-6.61V135a39.79 39.79 0 0 1-6.64 0v-1.6a30.06 30.06 0 0 0 6.64-.01ZM89.78 163.67c0 .3-.08.61-.14.91.8.79 2.64 2.87 3.1 3.39l-1 1.29a35.72 35.72 0 0 0-2.45-3.16 8.59 8.59 0 0 1-3.17 4.48 5.69 5.69 0 0 0-1.12-1.13 7.81 7.81 0 0 0 3.24-5.78h-3v-1.41h3.13v-2.86h-1a11.43 11.43 0 0 1-1.19 2.32 8.49 8.49 0 0 0-1.21-.87 12.31 12.31 0 0 0 1.9-4.91l1.43.27c-.13.61-.28 1.22-.44 1.79h4.37v1.4h-2.35v2.86h2.83v1.41ZM99 157.3V170h-1.5v-1h-2.88v1.2h-1.44v-12.9Zm-1.5 10.26v-8.85h-2.88v8.85ZM105.13 163.81a7.66 7.66 0 0 1 4.91-1.73c2.58 0 4.21 1.59 4.21 3.46 0 2.87-2.43 4.92-8.61 4.4l-.5-1.65c4.9.63 7.38-.68 7.38-2.78 0-1.17-1.09-2-2.61-2a5.92 5.92 0 0 0-4.67 2 3.54 3.54 0 0 0-.53.85l-1.47-.35a61.18 61.18 0 0 0 .8-6.52l1.69.23c-.2.99-.48 3.12-.6 4.09Zm.75-7.1a46.24 46.24 0 0 0 6.23 1.21l-.37 1.56c-1.56-.21-5-.93-6.26-1.25ZM132 168.23a4.11 4.11 0 0 1-2.95 1.27c-1.1 0-1.87-.77-1.87-2.18 0-1.75.59-4.23.59-5.73a1.07 1.07 0 0 0-1.18-1.23c-1.24 0-3.06 1.48-4.44 3 0 .56-.05 1.11-.05 1.6 0 1.38 0 2.52.07 4 0 .29.06.75.09 1.07h-1.72v-1c0-1.47 0-2.39.07-4.15-.74 1.09-1.67 2.47-2.34 3.38l-1-1.39c.88-1.11 2.61-3.4 3.46-4.68 0-.44.06-.91.09-1.36l-3 .4-.16-1.63h1.19c.45 0 1.33-.13 2.08-.25 0-.68.08-1.2.08-1.37a7 7 0 0 0-.08-1.28l1.87.06c-.08.4-.21 1.25-.32 2.27l.56.68c-.21.29-.5.73-.75 1.13v.66c1.23-1.12 3.17-2.51 4.72-2.51a2.09 2.09 0 0 1 2.36 2.22c0 1.6-.56 4.16-.56 5.78 0 .5.22.85.72.85a3.4 3.4 0 0 0 2.24-1.23ZM144.49 158.77h2.4v1.49c-.94 0-2.43-.08-4.75-.08v2.48a4 4 0 0 1 .56 2.11c0 2.12-1.12 4.61-4.88 5.7l-1.37-1.34c1.88-.42 3.32-1.11 4.09-2.31a2.56 2.56 0 0 1-1.09.23 2.65 2.65 0 0 1-2.68-2.77 2.87 2.87 0 0 1 3-2.85 3 3 0 0 1 .86.11v-1.34c-2.4 0-5 .12-7 .27v-1.56c1.79 0 4.72-.09 7-.12v-.8a7.37 7.37 0 0 0-.13-1.17h1.84c0 .22-.08.93-.1 1.15s0 .48 0 .8h2.33a18.69 18.69 0 0 0-1.15-1.94l1.09-.44a18.46 18.46 0 0 1 1.15 1.9Zm-4.77 6.88c.82 0 1.42-.64 1.22-2.14a1.29 1.29 0 0 0-1.22-.74 1.42 1.42 0 0 0-1.44 1.47 1.37 1.37 0 0 0 1.44 1.41Zm6.79-7.33a14.6 14.6 0 0 0-1.16-1.92l1.08-.45c.38.56.86 1.3 1.18 1.89ZM153 157.25c-.11.3-.27.93-.34 1.22a37.64 37.64 0 0 0-.78 6 11.67 11.67 0 0 0 .11 1.66c.24-.64.56-1.41.8-2l.83.64a30.77 30.77 0 0 0-1.13 3.69 2.72 2.72 0 0 0-.08.73v.59l-1.44.09a19.71 19.71 0 0 1-.61-5.12 44.32 44.32 0 0 1 .69-6.32 11.4 11.4 0 0 0 .14-1.31Zm3.65 7.75a5.84 5.84 0 0 0-.19 1.41c0 .72.52 1.28 2.45 1.28a17.71 17.71 0 0 0 4-.42v1.7a21.58 21.58 0 0 1-4 .32c-2.69 0-3.93-.93-3.93-2.47a9.31 9.31 0 0 1 .27-1.95Zm5.74-6.61V160a39.79 39.79 0 0 1-6.64 0v-1.6a30.06 30.06 0 0 0 6.64-.01ZM74.33 184.75h-5.19v-1.19h5.19Zm-.44 9.95H71v.71h-1.23V190h4.12Zm-4.09-9h4.11v1.15H69.8Zm0 2.13h4.11V189H69.8Zm4.08-5.25h-4v-1.17h4ZM71 191.23v2.3h1.7v-2.3Zm12.6.77a14.92 14.92 0 0 1-1.86 1.1 6.25 6.25 0 0 0 2.35 1.43 4.13 4.13 0 0 0-.86 1.07A7.17 7.17 0 0 1 79 191h-.12a8 8 0 0 1-1.21 1v1.94l2.45-.4.1 1.09c-1.73.32-3.54.65-4.93.88l-.29-1.17 1.49-.23v-1.38a14.67 14.67 0 0 1-1.63.74 9.13 9.13 0 0 0-.8-1 11.83 11.83 0 0 0 3.18-1.47h-2.87v-1h2.39v-.75h-1.5v-1h1.5v-.73H74.9v-1h1.86v-1.1h1.33v1.1h2v-1.1h1.36v1.1h2v1h-2v.73h1.73v1h-1.75v.75h2.44v1H80.3a7.53 7.53 0 0 0 .78 1.35 19.38 19.38 0 0 0 1.7-1.11Zm-5.21-8.12a9.45 9.45 0 0 1-3.21 2.2 7.93 7.93 0 0 0-1-.93 8.36 8.36 0 0 0 2.93-1.65Zm5.27-.46h-9v-1.12h3.64v-1.39h1.5v1.39h3.86Zm-5.57 4.78h2v-.73h-2Zm0 1.73h2v-.75h-2Zm2.69-6.49a16.32 16.32 0 0 1 3.1 1.77l-1 .77a14.52 14.52 0 0 0-3.09-1.86ZM87.83 188a10.81 10.81 0 0 0-2.72-1.64l.83-1.12a10.74 10.74 0 0 1 2.76 1.52Zm1.17 2.27c-.68 1.7-1.54 3.6-2.31 5.14l-1.36-.85a45.26 45.26 0 0 0 2.45-5.16Zm-.32-6.4a11.59 11.59 0 0 0-2.68-1.72l.83-1.08a10.32 10.32 0 0 1 2.69 1.58Zm2.62 2.86c0 2.56-.25 6.34-1.86 8.82a6.82 6.82 0 0 0-1.24-.72c1.55-2.35 1.68-5.7 1.68-8.11v-4.29h4.34v-1.51h1.5v1.51h4v1.24h-8.45v1.54h1.57V184h1.31v1.17h2.56V184h1.36v1.17h1.72v1.19h-1.72v2.41h-5.23v-2.37h-1.57Zm7.88 3.19a7.81 7.81 0 0 1-2.56 3.39 11.23 11.23 0 0 0 3.42 1 5.94 5.94 0 0 0-.9 1.25 11.92 11.92 0 0 1-3.79-1.44 14.74 14.74 0 0 1-3.87 1.41 4.73 4.73 0 0 0-.72-1.2 12.43 12.43 0 0 0 3.42-1.08 8.44 8.44 0 0 1-1.76-2.24l1-.28h-1.83v-1.19H98l.25-.06Zm-5.43.85a6 6 0 0 0 1.66 1.8 6.46 6.46 0 0 0 1.81-1.8Zm.43-4.37v1.24h2.56v-1.24ZM108.66 192.13c0-.55.07-1.44.07-2.23-1.35.75-2.2 1.47-2.2 2.4 0 1.09 1 1.3 2.63 1.3a26.25 26.25 0 0 0 4.4-.42v1.62a41.23 41.23 0 0 1-4.4.27c-2.37 0-4.21-.54-4.21-2.51s1.91-3.19 3.73-4.12a1.23 1.23 0 0 0-1.28-.78 4 4 0 0 0-2.62 1.14 15.78 15.78 0 0 0-1.46 1.69l-1.36-1a16.27 16.27 0 0 0 3.58-4.63H105c-.66 0-1.76 0-2.64-.09v-1.49a23.71 23.71 0 0 0 2.72.18h.92a10.17 10.17 0 0 0 .37-1.91l1.65.13c-.1.41-.23 1-.45 1.71a37.07 37.07 0 0 0 4.69-.46v1.47a47.72 47.72 0 0 1-5.22.43 11.87 11.87 0 0 1-1.2 2.07 4.62 4.62 0 0 1 2-.47 2.09 2.09 0 0 1 2.11 1.35c1-.47 1.79-.8 2.54-1.14.53-.24 1-.45 1.51-.7l.62 1.47c-.43.13-1.12.38-1.6.57-.81.31-1.84.74-2.94 1.25 0 .9 0 2.16.06 2.92ZM125.85 186.78c-.87.64-1.78 1.22-2.72 1.78a40.66 40.66 0 0 0 5.58-.92l.92 1a43.75 43.75 0 0 1-7.22 1c-.1.35-.18.7-.26 1h7.49s0 .43-.08.65c-.37 2.26-.75 3.32-1.26 3.8a2 2 0 0 1-1.36.45h-2.4a3.25 3.25 0 0 0-.45-1.38c.94.1 2 .12 2.37.12a1.11 1.11 0 0 0 .69-.15A4.08 4.08 0 0 0 128 192h-6.14c-.07.27-.15.53-.21.75l-1.49-.21c.24-.72.49-1.71.75-2.72-1 .5-2 .93-3 1.33a8.07 8.07 0 0 0-.93-1.17 33.08 33.08 0 0 0 4.34-1.85l.08-.37.51.06c.58-.32 1.14-.64 1.68-1h-5.92v-1.32h5.07v-1.57h-3.87v-1.23h3.87v-1.78h1.48v1.78h3.61v.78a22.62 22.62 0 0 0 1.7-1.87l1.22.67a23.66 23.66 0 0 1-3.19 3.22h3.83v1.28Zm-.47-1.28a24.2 24.2 0 0 0 1.89-1.57h-3.13v1.57ZM143.35 187.12c-.64.59-2.29 2.09-2.78 2.62a2 2 0 0 1 .59.08 1.49 1.49 0 0 1 1.1 1.12c.15.45.34 1.15.5 1.62s.53.81 1.25.81a14.39 14.39 0 0 0 3-.32l-.1 1.68a23.37 23.37 0 0 1-3 .23c-1.36 0-2.17-.31-2.53-1.35-.16-.48-.36-1.32-.51-1.76s-.51-.8-.91-.8a1.7 1.7 0 0 0-1.1.61 45.17 45.17 0 0 0-3.05 3.38l-1.5-1a7.7 7.7 0 0 0 .91-.83c.72-.71 4.58-4.55 6.08-6.1-1.18.06-3.5.25-4.46.33-.51 0-1 .12-1.31.18l-.15-1.76c.37 0 .9.05 1.43.05.85 0 4.48-.23 5.74-.39a4.24 4.24 0 0 0 .8-.17l1 1.05c-.35.22-.76.52-1 .72Zm.53-4.69-.21 1.47c-1.63-.13-4.48-.48-6.38-.82l.24-1.47a60.43 60.43 0 0 0 6.35.82ZM158.18 185.05a30.12 30.12 0 0 1-3.18.53c-.14.69-.32 1.39-.5 2.06a46.91 46.91 0 0 1-2.49 7.3l-1.76-.59a34.32 34.32 0 0 0 2.68-7.11c.15-.48.28-1 .39-1.52h-1.27c-.73 0-1.31 0-1.88-.07v-1.57a14.11 14.11 0 0 0 1.94.13c.5 0 1 0 1.59-.06.08-.47.16-.88.19-1.17a8.16 8.16 0 0 0 .05-1.44l1.93.14c-.11.4-.24 1-.3 1.36l-.19.93a28.51 28.51 0 0 0 2.84-.54Zm-.49 5.4a5.84 5.84 0 0 0-.23 1.37c0 .72.39 1.36 2.4 1.36a17.84 17.84 0 0 0 3.17-.32v1.62a21.63 21.63 0 0 1-3.14.22c-2.58 0-3.91-.84-3.91-2.41a11.26 11.26 0 0 1 .24-2Zm-.63-3.91a26.89 26.89 0 0 1 3-.16c.91 0 1.87.05 2.76.14v1.52a24.31 24.31 0 0 0-2.69-.19 26.63 26.63 0 0 0-3 .16ZM168.21 184.81a34.83 34.83 0 0 0 .12 3.57c.24 2.5.88 4.16 1.93 4.16.8 0 1.49-1.73 1.84-3.18l1.28 1.49c-1 2.72-2 3.66-3.15 3.66-1.6 0-3.07-1.54-3.5-5.71a42.28 42.28 0 0 1-.18-4.24 8.44 8.44 0 0 0-.11-1.49h1.93a12.8 12.8 0 0 0-.16 1.74Zm11.11 6.6-1.65.64c-.25-2.73-1.16-6.13-2.76-8l1.58-.53a16.75 16.75 0 0 1 2.83 7.89ZM270.11 137.75a17.78 17.78 0 0 1-1.29 2v8.94h-1.39v-7.28a15.38 15.38 0 0 1-1.57 1.49 12.6 12.6 0 0 0-.82-1.36 13.82 13.82 0 0 0 3.76-4.26Zm-.32-3.27a16.6 16.6 0 0 1-3.79 3.83 9.13 9.13 0 0 0-.8-1.08 12.58 12.58 0 0 0 3.25-3.26Zm8.81 8.08A8.7 8.7 0 0 1 276 146a14.19 14.19 0 0 0 4.21 1.4 6.24 6.24 0 0 0-.89 1.28 13.23 13.23 0 0 1-4.52-1.84 15.34 15.34 0 0 1-4.75 1.86 4.49 4.49 0 0 0-.72-1.26 14.18 14.18 0 0 0 4.31-1.48 9.84 9.84 0 0 1-1.61-1.74 11.88 11.88 0 0 1-1.69 1.23 5.63 5.63 0 0 0-1-1.1 10.89 10.89 0 0 0 3.79-3.24l-3.46.1-.13-1.35h2.47c.29-.24.61-.51.91-.78a19 19 0 0 0-2.94-2.39l.89-1c.29.2.61.39.93.61a18.51 18.51 0 0 0 1.87-2.38l1.3.67c-.7.83-1.5 1.74-2.21 2.43a12.37 12.37 0 0 1 1.22 1 32.19 32.19 0 0 0 2.72-2.94l1.33.73a52.11 52.11 0 0 1-4.16 3.94l3.65-.06c-.34-.45-.69-.87-1-1.25l1.17-.63a16.54 16.54 0 0 1 2.53 3.46l-1.23.72a11.68 11.68 0 0 0-.63-1.12c-1.18 0-2.4.1-3.55.13a13.71 13.71 0 0 1-.79 1.14H277.71Zm-5.62.82a8 8 0 0 0 1.81 1.86 7.39 7.39 0 0 0 1.84-1.91H273ZM283.17 143.33a14.4 14.4 0 0 1-1 4 6 6 0 0 0-1.05-.51 12.29 12.29 0 0 0 .89-3.75Zm2.72-4.29a13.59 13.59 0 0 1 1.33 3.4l-1.11.46a5.59 5.59 0 0 0-.24-1l-1 .06v6.65h-1.29v-6.51c-.81.05-1.6.11-2.27.14l-.14-1.29 1.2-.07c.25-.35.54-.73.82-1.16a15.64 15.64 0 0 0-1.94-2.31l.73-1c.16.14.31.29.47.45a19.33 19.33 0 0 0 1.28-2.93l1.28.46c-.56 1.11-1.23 2.4-1.78 3.28a9.56 9.56 0 0 1 .69.85 30.11 30.11 0 0 0 1.51-2.75l1.2.54c-.87 1.43-2 3.14-2.95 4.45l1.76-.09a13.49 13.49 0 0 0-.56-1.27Zm.29 4a12.69 12.69 0 0 1 .8 2.88l-1.07.34a11.88 11.88 0 0 0-.76-2.9Zm9.86 4.83h-7.4v.74h-1.39v-14h1.39v12H296Zm-4.39-5.66a11.8 11.8 0 0 1-2.27 3.38 6.74 6.74 0 0 0-.66-1.38 11.14 11.14 0 0 0 2.5-3.75H289v-1.34h2.61v-4.85H293v4.85h2.77v1.34H293v.37c.69.63 2.44 2.4 2.85 2.87l-.89 1.15a27 27 0 0 0-2-2.53v3.94h-1.31Zm-1.57-3.41a12 12 0 0 0-1-3.11l1.08-.38a12.91 12.91 0 0 1 1.1 3.06Zm5.57-3.22c-.46 1.12-1 2.47-1.45 3.31l-1-.38a22.22 22.22 0 0 0 1.19-3.36ZM305.88 140.26c-.72.54-1.48 1-2.25 1.5h6.22v6.84h-1.54v-.43h-6v.49h-1.51v-5.38c-.89.42-1.81.8-2.72 1.16a8.75 8.75 0 0 0-.91-1.24 28.23 28.23 0 0 0 6.26-2.94h-5.86v-1.33h5.3v-1.79H299v-1.3h3.91V134h1.47v1.87h3.73v.71a17.67 17.67 0 0 0 1.74-2.07l1.28.67a22.88 22.88 0 0 1-3.53 3.78h4.19v1.33Zm2.43 2.74h-6v1.32h6Zm0 3.9v-1.41h-6v1.41Zm-2.93-8a24.41 24.41 0 0 0 2.1-1.79h-3.14v1.79ZM319.68 135c-.08.33-.17.73-.24 1.08s-.22 1.25-.37 2c.64 0 1.22-.08 1.59-.08 1.52 0 2.69.64 2.69 2.85a15.51 15.51 0 0 1-.9 5.75 2.39 2.39 0 0 1-2.45 1.38 9.39 9.39 0 0 1-1.89-.24l-.27-1.67a8.79 8.79 0 0 0 2 .34 1.26 1.26 0 0 0 1.3-.75 12.77 12.77 0 0 0 .71-4.63c0-1.36-.61-1.58-1.62-1.58-.32 0-.85 0-1.44.08a32.48 32.48 0 0 1-3.27 8.49l-1.65-.65a24.38 24.38 0 0 0 3.29-7.67c-.72.08-1.37.14-1.73.19s-1.12.15-1.57.23l-.16-1.73h1.54c.54 0 1.36-.08 2.24-.16a19.22 19.22 0 0 0 .38-3.4Zm5.7 2.06a29.91 29.91 0 0 1 2.62 5.34l-1.58.76a18.42 18.42 0 0 0-2.77-5.83l1.48-.66.26.36a17.07 17.07 0 0 0-1.28-2.21l1-.44a24.57 24.57 0 0 1 1.3 2.21Zm1.86-.69a15.2 15.2 0 0 0-1.31-2.2l1-.44a22.07 22.07 0 0 1 1.32 2.2ZM332.37 137.86a34.71 34.71 0 0 0 .11 3.57c.24 2.49.88 4.16 1.94 4.16.8 0 1.49-1.73 1.84-3.19l1.28 1.49c-1 2.72-2 3.67-3.15 3.67-1.6 0-3.08-1.54-3.51-5.72a42.17 42.17 0 0 1-.18-4.24 7.7 7.7 0 0 0-.11-1.49h1.94a12.8 12.8 0 0 0-.16 1.75Zm11.11 6.59-1.65.64c-.26-2.72-1.17-6.13-2.77-8l1.59-.52a16.86 16.86 0 0 1 2.83 7.88ZM353.81 137.92a22.28 22.28 0 0 1-2.82.56 27.25 27.25 0 0 1-3.44 6.74l-1.53-.78a23.41 23.41 0 0 0 3.31-5.78h-1.14c-.61 0-1.26 0-1.9-.06l-.11-1.48a19.05 19.05 0 0 0 2 .1c.53 0 1.08 0 1.64-.06a12.53 12.53 0 0 0 .46-2.69l1.74.16c-.12.54-.33 1.42-.57 2.32a16.11 16.11 0 0 0 2.3-.55Zm1.95 1.65v1.86c0 .64.06 1.42.11 2.32a10.48 10.48 0 0 1 3.28 2l-.85 1.36a12.26 12.26 0 0 0-2.37-1.76v.43c0 1.35-.81 2.43-2.89 2.43-1.84 0-3.33-.78-3.33-2.43 0-1.49 1.34-2.54 3.31-2.54a7.16 7.16 0 0 1 1.33.11c-.06-1.25-.14-2.74-.18-3.78Zm-1.37 5.16a5.31 5.31 0 0 0-1.46-.2c-1.06 0-1.74.47-1.74 1.11s.54 1.13 1.63 1.13a1.37 1.37 0 0 0 1.58-1.49c0-.15 0-.28-.01-.55Zm4.34-4.55A20.46 20.46 0 0 0 355 138l.8-1.23a25.2 25.2 0 0 1 3.79 2.13ZM364.37 137.86a34.71 34.71 0 0 0 .11 3.57c.24 2.49.88 4.16 1.94 4.16.8 0 1.49-1.73 1.84-3.19l1.28 1.49c-1 2.72-2 3.67-3.15 3.67-1.6 0-3.08-1.54-3.51-5.72a42.17 42.17 0 0 1-.18-4.24 7.7 7.7 0 0 0-.11-1.49h1.94a12.8 12.8 0 0 0-.16 1.75Zm11.11 6.59-1.65.64c-.26-2.72-1.17-6.13-2.77-8l1.59-.52a16.86 16.86 0 0 1 2.83 7.88ZM261.6 159v14.68h-1.45v-4.53c-.8.59-1.62 1.16-2.33 1.66l-.7-1.54c.77-.4 1.89-1.08 3-1.77V159Zm-3.12 2a15.82 15.82 0 0 1 1.67 3.31l-1.32.64a14.11 14.11 0 0 0-1.58-3.39Zm12.66-.82a50.76 50.76 0 0 1-8.66 1.44 4.37 4.37 0 0 0-.41-1.2 47.77 47.77 0 0 0 8-1.41Zm.87 7.75h-2.13v4.06c0 .82-.16 1.24-.74 1.48a8.25 8.25 0 0 1-2.66.24 5.71 5.71 0 0 0-.49-1.46h2.09c.28 0 .33-.07.33-.29v-4h-6.23v-1.38h6.23v-1l-.68-.35a23.11 23.11 0 0 0 2.63-3.87l1.37.65a35.55 35.55 0 0 1-2.48 3.43h.63v1.15H272Zm-8.38-2.56a12.24 12.24 0 0 0-1.1-2.92l1.22-.41a11.86 11.86 0 0 1 1.2 2.85Zm.9 3a13.22 13.22 0 0 1 2.08 2.76l-1.31.73a12 12 0 0 0-2-2.85Zm1.78-3.64a11.34 11.34 0 0 0-.71-2.89l1.3-.3a10.62 10.62 0 0 1 .78 2.8ZM282.42 167.39a15.48 15.48 0 0 0 5.68 4.43 7.57 7.57 0 0 0-1 1.27 17.43 17.43 0 0 1-5.62-4.82v5.39h-1.57v-5.36a17 17 0 0 1-5.6 4.74 7 7 0 0 0-1-1.25 15.54 15.54 0 0 0 5.73-4.4h-5.44V166h6.27v-3.72h-5.52v-1.42h5.52V159h1.57v1.84h5.65v1.42h-5.65V166h6.29v1.44Zm-5.55-5a11.69 11.69 0 0 1 1.44 2.91l-1.41.56a11.31 11.31 0 0 0-1.35-3Zm6.19 3a20.19 20.19 0 0 0 1.51-3.1l1.55.46a29.46 29.46 0 0 1-1.78 3.08ZM295.68 160c-.08.33-.17.73-.24 1.08s-.22 1.25-.37 2c.64 0 1.22-.08 1.59-.08 1.52 0 2.69.64 2.69 2.85a15.51 15.51 0 0 1-.9 5.75 2.39 2.39 0 0 1-2.45 1.38 9.39 9.39 0 0 1-1.89-.24l-.27-1.67a8.79 8.79 0 0 0 2 .34 1.26 1.26 0 0 0 1.3-.75 12.77 12.77 0 0 0 .71-4.63c0-1.36-.61-1.58-1.62-1.58-.32 0-.85 0-1.44.08a32.48 32.48 0 0 1-3.27 8.49l-1.65-.65a24.38 24.38 0 0 0 3.29-7.67c-.72.08-1.37.14-1.73.19s-1.12.15-1.57.23l-.16-1.73h1.54c.54 0 1.36-.08 2.24-.16a19.22 19.22 0 0 0 .38-3.4Zm5.7 2.06a29.91 29.91 0 0 1 2.62 5.34l-1.58.76a18.42 18.42 0 0 0-2.77-5.83l1.48-.66.26.36a17.07 17.07 0 0 0-1.28-2.21l1-.44a24.57 24.57 0 0 1 1.3 2.21Zm1.86-.69a15.2 15.2 0 0 0-1.31-2.2l1-.44a22.07 22.07 0 0 1 1.32 2.2ZM313.81 162.92a22.28 22.28 0 0 1-2.82.56 27.25 27.25 0 0 1-3.44 6.74l-1.53-.78a23.41 23.41 0 0 0 3.31-5.78h-1.14c-.61 0-1.26 0-1.9-.06l-.11-1.48a19.05 19.05 0 0 0 2 .1c.53 0 1.08 0 1.64-.06a12.53 12.53 0 0 0 .46-2.69l1.74.16c-.12.54-.33 1.42-.57 2.32a16.11 16.11 0 0 0 2.3-.55Zm1.95 1.65v1.86c0 .64.06 1.42.11 2.32a10.48 10.48 0 0 1 3.28 2l-.85 1.36a12.26 12.26 0 0 0-2.37-1.76v.43c0 1.35-.81 2.43-2.89 2.43-1.84 0-3.33-.78-3.33-2.43 0-1.49 1.34-2.54 3.31-2.54a7.16 7.16 0 0 1 1.33.11c-.06-1.25-.14-2.74-.18-3.78Zm-1.37 5.16a5.31 5.31 0 0 0-1.46-.2c-1.06 0-1.74.47-1.74 1.11s.54 1.13 1.63 1.13a1.37 1.37 0 0 0 1.58-1.49c0-.15 0-.28-.01-.55Zm4.34-4.55A20.46 20.46 0 0 0 315 163l.8-1.23a25.2 25.2 0 0 1 3.79 2.13ZM329.22 161.11c-.74 1.12-2.15 3.65-3 5.13a3.43 3.43 0 0 1 2.1-.74 1.86 1.86 0 0 1 1.92 2c0 .83 0 2.06.07 2.8a1 1 0 0 0 1.15 1c1.6 0 2.56-2 3-3.81l1.35 1.09c-.84 2.64-2.23 4.42-4.6 4.42a2.19 2.19 0 0 1-2.45-2.08c0-.9 0-2.16-.08-2.93a1 1 0 0 0-1.05-1c-1.19 0-2.24 1.22-2.84 2.48a28.9 28.9 0 0 0-1.29 3.57l-1.76-.59a120 120 0 0 1 5.49-11.4c.19-.4.44-.83.67-1.39l1.78.72c-.11.17-.28.46-.46.73ZM349.45 163c-.41.24-.85.48-1.37.74a48.52 48.52 0 0 0-4.64 2.51c-1.41.91-2.29 1.9-2.29 3.06s1.17 1.95 3.54 1.95a26 26 0 0 0 5.12-.54v1.79a30.18 30.18 0 0 1-5 .4c-3.06 0-5.32-.9-5.32-3.43 0-1.68 1.07-3 2.69-4.13-.72-1.34-1.52-3.12-2.26-4.81l1.59-.65a36.26 36.26 0 0 0 2.06 4.57c1.4-.84 3-1.62 3.78-2.08a8.88 8.88 0 0 0 1.28-.84ZM361.81 162.92a22.28 22.28 0 0 1-2.82.56 27.25 27.25 0 0 1-3.44 6.74l-1.53-.78a23.41 23.41 0 0 0 3.31-5.78h-1.14c-.61 0-1.26 0-1.9-.06l-.11-1.48a19.05 19.05 0 0 0 2 .1c.53 0 1.08 0 1.64-.06a12.53 12.53 0 0 0 .46-2.69l1.74.16c-.12.54-.33 1.42-.57 2.32a16.11 16.11 0 0 0 2.3-.55Zm1.95 1.65v1.86c0 .64.06 1.42.11 2.32a10.48 10.48 0 0 1 3.28 2l-.85 1.36a12.26 12.26 0 0 0-2.37-1.76v.43c0 1.35-.81 2.43-2.89 2.43-1.84 0-3.33-.78-3.33-2.43 0-1.49 1.34-2.54 3.31-2.54a7.16 7.16 0 0 1 1.33.11c-.06-1.25-.14-2.74-.18-3.78Zm-1.37 5.16a5.31 5.31 0 0 0-1.46-.2c-1.06 0-1.74.47-1.74 1.11s.54 1.13 1.63 1.13a1.37 1.37 0 0 0 1.58-1.49c0-.15 0-.28-.01-.55Zm4.34-4.55A20.46 20.46 0 0 0 363 163l.8-1.23a25.2 25.2 0 0 1 3.79 2.13ZM380.1 160.75c-.4.3-.9.73-1.22 1-1.05.9-3.25 2.63-4.37 3.57-.91.79-.91 1 0 1.79 1.32 1.11 4.32 3.53 5.87 5.06l-1.38 1.3c-.38-.45-.83-.88-1.22-1.3-.86-.92-3.42-3.09-4.88-4.32s-1.37-2.06.11-3.31c1.22-1 3.53-2.85 4.6-3.92a9.48 9.48 0 0 0 1-1.19ZM314.52 186.58c-.34.54-.68 1.1-1.06 1.65v10.42h-1.62v-8.41a19.46 19.46 0 0 1-5.46 4.32 8.29 8.29 0 0 0-1-1.32 17.69 17.69 0 0 0 7.2-6.66h-6.75v-1.52h13.7v1.52Zm.12 2.43a38.05 38.05 0 0 1 5.4 4.24l-1.25 1.15a36.2 36.2 0 0 0-5.27-4.43ZM332.93 191.38a9.33 9.33 0 0 1-2.19 4 29.34 29.34 0 0 1 4.27 2.1l-1.16 1.21a29.78 29.78 0 0 0-4.36-2.25 15.79 15.79 0 0 1-6.64 2.27 6 6 0 0 0-.87-1.36 15.93 15.93 0 0 0 5.88-1.57c-.9-.35-1.81-.67-2.67-1l-.36.62-1.55-.41c.59-1 1.31-2.28 2-3.62h-3.67V190H326c.44-.86.85-1.71 1.21-2.46l1.55.34c-.32.67-.68 1.39-1 2.12h8v1.43Zm-9.39-2.31H322v-3.53h5.81V184h1.58v1.59h6v3.53h-1.59v-2.16h-10.26Zm3.47 2.31c-.4.78-.8 1.54-1.18 2.24 1.08.32 2.25.7 3.42 1.15a7.08 7.08 0 0 0 2-3.39ZM664.15 142.21a20.21 20.21 0 0 0 6.88 6 7.54 7.54 0 0 0-1 1.31 23.49 23.49 0 0 1-3.03-2.22v1.32h-6.9v-1.25a22.74 22.74 0 0 1-3 2.22 5.73 5.73 0 0 0-.94-1.18 19.41 19.41 0 0 0 6.54-6.2Zm3.51 8.12 1.16.35c-.76 1.84-1.93 4.37-2.92 6.36l-1.59-.42c.79-1.49 1.68-3.36 2.32-4.8H658v-1.41h9.36Zm-.77-3.09a21 21 0 0 1-3.4-3.54 19 19 0 0 1-3.23 3.54ZM679.22 154.75a8.63 8.63 0 0 0 1.41-.23 4.55 4.55 0 0 0 3.84-4.5 4.18 4.18 0 0 0-3.81-4.41 36.13 36.13 0 0 1-.94 4.45c-1 3.23-2.27 5-3.86 5s-3-1.78-3-4.42a6.89 6.89 0 0 1 7.09-6.58 5.88 5.88 0 0 1 6.23 6c0 3.31-2.13 5.62-6 6.16Zm-1.12-5a22 22 0 0 0 .87-4.08 5.31 5.31 0 0 0-4.52 4.9c0 1.82.82 2.65 1.46 2.65s1.46-1.05 2.19-3.5ZM702.83 152.51h-1.67v2.8h-1.5v-.69h-3.41v.83c0 .82-.21 1.15-.76 1.36a9.44 9.44 0 0 1-2.72.21 4.47 4.47 0 0 0-.51-1.2h2.1c.26 0 .38-.1.38-.37v-.85h-5v-1.1h5v-1h-6.4v-1.17h6.4v-.91h-4.85v-1.06h4.85v-1h-4.43v-2.94h4.43v-.82h-6.06v-1.2h6.06v-1.17h1.51v1.17h6.24v1.2h-6.24v.82h4.66v2.94h-4.66v1h4.91v2h1.67Zm-8.09-5.08v-1h-3v1Zm1.51-1v1h3.15v-1Zm0 4.87h3.41v-.91h-3.41Zm3.41 1.17h-3.41v1h3.41ZM713.56 153.27a14.58 14.58 0 0 0 5.43 2.18 6.81 6.81 0 0 0-1 1.33 14.27 14.27 0 0 1-5.73-3V157h-1.45v-3.11a15.94 15.94 0 0 1-5.69 2.88 6.83 6.83 0 0 0-1-1.26 15.42 15.42 0 0 0 5.39-2.23h-4.91V152h6.21v-1h-4.73v-1.12h4.73v-1h-5.51v-1.19h3.28a7.54 7.54 0 0 0-.67-1.45l.38-.07h-3.63V145H707a11.89 11.89 0 0 0-1.17-2.17l1.3-.43a11.9 11.9 0 0 1 1.28 2.29l-.82.31h1.76v-2.74h1.39V145h1.59v-2.74h1.41V145h1.73l-.61-.2a14.28 14.28 0 0 0 1.12-2.37l1.53.39c-.43.78-.91 1.58-1.32 2.18h2.3v1.24h-3.09c-.3.55-.62 1.08-.89 1.52h3.39V149h-5.67v1h4.92v1.12h-4.92v1h6.31v1.24Zm-4.11-7a7 7 0 0 1 .68 1.43l-.46.09h3.38a14.38 14.38 0 0 0 .7-1.52ZM727.72 153.5c0-.55.06-1.44.06-2.23-1.34.76-2.19 1.48-2.19 2.4 0 1.09 1 1.3 2.62 1.3a26.37 26.37 0 0 0 4.41-.42v1.62a41.4 41.4 0 0 1-4.4.27c-2.37 0-4.21-.54-4.21-2.51s1.9-3.18 3.73-4.11a1.25 1.25 0 0 0-1.28-.79 4 4 0 0 0-2.63 1.14 17.23 17.23 0 0 0-1.46 1.7l-1.36-1a16.65 16.65 0 0 0 3.59-4.62h-.46c-.66 0-1.77 0-2.65-.1v-1.49a23.88 23.88 0 0 0 2.73.18h.92a9.29 9.29 0 0 0 .37-1.91l1.65.13c-.1.42-.22 1-.45 1.71a36.89 36.89 0 0 0 4.69-.46v1.47a47.31 47.31 0 0 1-5.22.43 11.26 11.26 0 0 1-1.2 2.07 4.69 4.69 0 0 1 2-.47 2.09 2.09 0 0 1 2.11 1.35c1-.47 1.8-.8 2.55-1.14.53-.24 1-.45 1.5-.7l.63 1.47c-.43.13-1.12.38-1.6.58-.82.3-1.84.73-2.95 1.25 0 .89 0 2.16.07 2.91ZM742.23 150.84c-.26 3.23-1 5.17-5.17 6.18a3.89 3.89 0 0 0-.82-1.28c3.72-.77 4.25-2.26 4.45-4.9Zm.5-5.74h-6.1v-1.38h6.1v-1.41h1.53v1.41h6.26v1.38h-6.26v1.36h4.82v1.31h-11v-1.31h4.61Zm5.95 6.93v-1.86h-10.27V152H737v-3.19h13.24V152Zm0 3.34c.56 0 .67-.24.72-2a3.89 3.89 0 0 0 1.35.56c-.16 2.21-.56 2.77-1.93 2.77h-2.2c-1.62 0-2-.43-2-1.87v-4h1.49v4c0 .47.11.53.72.53ZM758.18 151.13a21.17 21.17 0 0 1 2.11 4.34L759 156a10.94 10.94 0 0 0-.43-1.24c-2.21.28-4.45.52-6.15.71l-.2-1.46 1.12-.09a31.8 31.8 0 0 0 1.34-4.17h-2.45v-1.37h3.28v-2.35h-2.7v-1.37h2.7v-2.4h1.44v2.4h2.61v1.37h-2.61v2.35h3.14v1.37h-3.73c-.46 1.32-1 2.84-1.52 4l3.15-.32c-.32-.66-.67-1.31-1-1.89Zm8.05 1.42c0 .74-.11 1.2-.62 1.48a4.76 4.76 0 0 1-2.21.3 5.21 5.21 0 0 0-.48-1.54 15.39 15.39 0 0 0 1.62 0c.17 0 .24-.08.24-.27v-7.89h-2.72V157h-1.45v-13.76h5.62ZM773.24 143.21a15.85 15.85 0 0 0-.18 1.81c-.06 1.76-.19 5.41-.19 7.61 0 1.67 1.06 2.24 2.42 2.24a6.46 6.46 0 0 0 5.57-3.26L782 153a8 8 0 0 1-6.74 3.56c-2.41 0-4-1-4-3.67 0-2.26.16-6.34.16-7.87a9.3 9.3 0 0 0-.16-1.83ZM786.36 144.86l6.9-.63c1.69-.13 3.28-.22 4.36-.26v1.6a14.2 14.2 0 0 0-3.07.24 5.23 5.23 0 0 0-3.5 4.76c0 2.88 2.69 3.84 5.31 4l-.58 1.71c-3.1-.15-6.37-1.82-6.37-5.33a6.3 6.3 0 0 1 2.69-5.13c-1.39.16-5.28.54-7 .91l-.18-1.74c.59-.07 1.13-.1 1.44-.13ZM686.36 179.75a21.78 21.78 0 0 0-1.55-1.59V182h-1.45v-3.75a12 12 0 0 1-2.36 2.65 5.78 5.78 0 0 0-1-1.07 11 11 0 0 0 3.06-3.36h-2.66v-1.27h3v-1.46h-3v-1.26h1.6a7.21 7.21 0 0 0-.56-2.07l1.09-.27h-2v-1.23h2.8v-1.52h1.45v1.52h2.8v1.23h-1.94l1.12.26c-.3.75-.61 1.54-.88 2.08h1.87v1.26h-3v1.46h2.83v1.27h-2.83v.27c.57.4 2 1.6 2.41 1.9Zm-3.76-9.61a7.56 7.56 0 0 1 .64 2.1l-.93.24h3.52l-1.1-.24a16.23 16.23 0 0 0 .72-2.1Zm12.31 3.86h-1.68v7.92h-1.45V174h-2.06v.14c0 2.37-.29 5.7-2.5 7.93a3.56 3.56 0 0 0-1.05-1c1.93-2 2.12-4.7 2.12-6.91v-5.54l1 .29a21.22 21.22 0 0 0 4.25-1.38l1.21 1.07a24.35 24.35 0 0 1-5 1.46v2.59h5.19ZM701.24 168.21a15.85 15.85 0 0 0-.18 1.81c-.06 1.76-.19 5.41-.19 7.61 0 1.67 1.06 2.24 2.42 2.24a6.46 6.46 0 0 0 5.57-3.26L710 178a8 8 0 0 1-6.74 3.56c-2.41 0-4-1-4-3.67 0-2.26.16-6.34.16-7.87a9.3 9.3 0 0 0-.16-1.83ZM715.27 171.18a34.55 34.55 0 0 0 .11 3.57c.24 2.5.88 4.16 1.94 4.16.8 0 1.49-1.72 1.84-3.18l1.28 1.49c-1 2.72-2 3.66-3.15 3.66-1.6 0-3.08-1.53-3.51-5.71a42.17 42.17 0 0 1-.18-4.24 7.65 7.65 0 0 0-.11-1.49h1.94a13 13 0 0 0-.16 1.74Zm11.11 6.6-1.65.64c-.26-2.72-1.17-6.13-2.77-8l1.58-.53a16.76 16.76 0 0 1 2.84 7.89ZM742.83 177.51h-1.67v2.8h-1.5v-.69h-3.41v.83c0 .82-.21 1.15-.76 1.36a9.44 9.44 0 0 1-2.72.21 4.47 4.47 0 0 0-.51-1.2h2.1c.26 0 .38-.1.38-.37v-.85h-5v-1.1h5v-1h-6.4v-1.17h6.4v-.91h-4.85v-1.06h4.85v-1h-4.43v-2.94h4.43v-.82h-6.06v-1.2h6.06v-1.17h1.51v1.17h6.24v1.2h-6.24v.82h4.66v2.94h-4.66v1h4.91v2h1.67Zm-8.09-5.08v-1h-3v1Zm1.51-1v1h3.15v-1Zm0 4.87h3.41v-.91h-3.41Zm3.41 1.17h-3.41v1h3.41ZM753.56 178.27a14.58 14.58 0 0 0 5.43 2.18 6.81 6.81 0 0 0-1 1.33 14.27 14.27 0 0 1-5.73-3V182h-1.45v-3.11a15.94 15.94 0 0 1-5.69 2.88 6.83 6.83 0 0 0-1-1.26 15.42 15.42 0 0 0 5.39-2.23h-4.91V177h6.21v-1h-4.73v-1.12h4.73v-1h-5.51v-1.19h3.28a7.54 7.54 0 0 0-.67-1.45l.38-.07h-3.63V170H747a11.89 11.89 0 0 0-1.17-2.17l1.3-.43a11.9 11.9 0 0 1 1.28 2.29l-.82.31h1.76v-2.74h1.39V170h1.59v-2.74h1.41V170h1.73l-.61-.2a14.28 14.28 0 0 0 1.12-2.37l1.53.39c-.43.78-.91 1.58-1.32 2.18h2.3v1.24h-3.09c-.3.55-.62 1.08-.89 1.52h3.39V174h-5.67v1h4.92v1.12h-4.92v1h6.31v1.24Zm-4.11-7a7 7 0 0 1 .68 1.43l-.46.09h3.38a14.38 14.38 0 0 0 .7-1.52ZM767.72 178.5c0-.55.06-1.44.06-2.23-1.34.76-2.19 1.48-2.19 2.4 0 1.09 1 1.3 2.62 1.3a26.37 26.37 0 0 0 4.41-.42v1.62a41.4 41.4 0 0 1-4.4.27c-2.37 0-4.21-.54-4.21-2.51s1.9-3.18 3.73-4.11a1.25 1.25 0 0 0-1.28-.79 4 4 0 0 0-2.63 1.14 17.23 17.23 0 0 0-1.46 1.7l-1.36-1a16.65 16.65 0 0 0 3.59-4.62h-.46c-.66 0-1.77 0-2.65-.1v-1.49a23.88 23.88 0 0 0 2.73.18h.92a9.29 9.29 0 0 0 .37-1.91l1.65.13c-.1.42-.22 1-.45 1.71a36.89 36.89 0 0 0 4.69-.46v1.47a47.31 47.31 0 0 1-5.22.43 11.26 11.26 0 0 1-1.2 2.07 4.69 4.69 0 0 1 2-.47 2.09 2.09 0 0 1 2.11 1.35c1-.47 1.8-.8 2.55-1.14.53-.24 1-.45 1.5-.7l.63 1.47c-.43.13-1.12.38-1.6.58-.82.3-1.84.73-2.95 1.25 0 .89 0 2.16.07 2.91ZM702.33 195.65a22.55 22.55 0 0 1-1.4 7 12.83 12.83 0 0 1 1.78 1.69l-.9 1.21a12.91 12.91 0 0 0-1.53-1.57 8.64 8.64 0 0 1-3 3.09 5.4 5.4 0 0 0-.92-1.19 6.85 6.85 0 0 0 2.76-2.83c-.44-.35-.89-.67-1.34-1l-.18.64-1.23-.65c.39-1.35.85-3.21 1.28-5.13h-1.34v-1.37h1.63c.24-1.14.47-2.26.64-3.25l1.43.16c-.2 1-.42 2-.66 3.09h1.82l.28-.05ZM699 196.9c-.3 1.32-.62 2.61-.91 3.78.51.32 1.07.67 1.6 1.06a18.31 18.31 0 0 0 1.09-4.84Zm3.3.77 1.28-.06a36.91 36.91 0 0 0 1.67-5.33l1.63.33c-.53 1.59-1.2 3.46-1.82 4.9l3.64-.21a17.73 17.73 0 0 0-1.28-2l1.19-.59a17.24 17.24 0 0 1 2.51 4.26l-1.3.7a8.47 8.47 0 0 0-.43-1.1c-2.49.19-5.07.35-6.94.49Zm1 2.8h6.87v6.45h-1.47v-.61h-4v.69h-1.41Zm1.41 1.36V205h4v-3.14ZM722.46 193.32c-.12.4-.24 1-.32 1.39s-.13.56-.21.85a5.1 5.1 0 0 1 4.22 5.22c0 3.25-2.32 5.18-5.66 5.66l-1-1.44c3.37-.3 5-2.05 5-4.29a3.65 3.65 0 0 0-3-3.76 20.26 20.26 0 0 1-2.24 5.24 9.41 9.41 0 0 0 .93 1l-1.27 1c-.22-.26-.45-.51-.65-.78a4.24 4.24 0 0 1-3.13 1.84c-1.26 0-2.35-1-2.35-3a6.76 6.76 0 0 1 2.4-4.94c-.17-.47-.32-.93-.46-1.38a10.16 10.16 0 0 0-.58-1.54l1.67-.51c.09.47.22 1 .33 1.46s.21.72.34 1.1a8.24 8.24 0 0 1 3.86-1.05c.08-.34.16-.66.2-1a6.93 6.93 0 0 0 .1-1.35Zm-5.22 8.59a17.68 17.68 0 0 1-1.46-3.09 5.17 5.17 0 0 0-1.46 3.38c0 .93.39 1.51 1 1.51s1.41-.64 2.07-1.49Zm1.13-1.09a19.4 19.4 0 0 0 1.67-4 6.49 6.49 0 0 0-3 1 16.93 16.93 0 0 0 1.22 2.73ZM737.24 196.42a30.31 30.31 0 0 1-3.19.53c-.14.69-.32 1.39-.49 2.07a47.14 47.14 0 0 1-2.5 7.29l-1.76-.59a34.23 34.23 0 0 0 2.69-7.1c.14-.48.27-1 .38-1.52h-1.26c-.74 0-1.31 0-1.89-.07v-1.57a14.07 14.07 0 0 0 1.93.13c.5 0 1 0 1.59-.06.08-.46.16-.88.19-1.17A7.3 7.3 0 0 0 733 193l1.94.14c-.12.4-.24 1-.31 1.36l-.19.93a26.09 26.09 0 0 0 2.85-.54Zm-.5 5.4a5.78 5.78 0 0 0-.22 1.37c0 .72.38 1.36 2.4 1.36a17 17 0 0 0 3.17-.32l-.05 1.62a21.5 21.5 0 0 1-3.14.23c-2.57 0-3.9-.85-3.9-2.42a10.4 10.4 0 0 1 .24-2Zm-.62-3.91a29.54 29.54 0 0 1 3-.16 25.57 25.57 0 0 1 2.77.15l-.05 1.52a21.87 21.87 0 0 0-2.69-.2 26.45 26.45 0 0 0-3 .16ZM747.27 196.18a34.55 34.55 0 0 0 .11 3.57c.24 2.5.88 4.16 1.94 4.16.8 0 1.49-1.72 1.84-3.18l1.28 1.49c-1 2.72-2 3.66-3.15 3.66-1.6 0-3.08-1.53-3.51-5.71a42.17 42.17 0 0 1-.18-4.24 7.65 7.65 0 0 0-.11-1.49h1.94a13 13 0 0 0-.16 1.74Zm11.11 6.6-1.65.64c-.26-2.72-1.17-6.13-2.77-8l1.58-.53a16.76 16.76 0 0 1 2.84 7.89ZM456.3 125.24h-1.67V128h-1.5v-.68h-3.41v.83c0 .81-.21 1.15-.76 1.36a9.44 9.44 0 0 1-2.72.21 4.47 4.47 0 0 0-.51-1.2h2.1c.26 0 .38-.09.38-.37v-.84h-5v-1.12h5v-1h-6.4v-1.17h6.4v-.91h-4.85v-1h4.85v-1h-4.43v-2.94h4.43v-.82h-6.06v-1.2h6.06V115h1.51v1.17H456v1.2h-6.24v.82h4.65v2.94h-4.65v1h4.91v2h1.67Zm-8.09-5.07v-1h-3v1Zm1.51-1v1h3.15v-1Zm0 4.86h3.41v-.91h-3.41Zm3.41 1.17h-3.41v1h3.41ZM467 126a14.75 14.75 0 0 0 5.43 2.18 6.81 6.81 0 0 0-1 1.33 14.4 14.4 0 0 1-5.73-3v3.22h-1.45v-3.11a15.94 15.94 0 0 1-5.69 2.88 6.83 6.83 0 0 0-1-1.26A15.61 15.61 0 0 0 463 126h-4.94v-1.25h6.21v-1h-4.73v-1.12h4.73v-1h-5.51v-1.19h3.28a8.28 8.28 0 0 0-.67-1.46l.38-.06h-3.63v-1.25h2.37a12.16 12.16 0 0 0-1.17-2.16l1.3-.43a11.61 11.61 0 0 1 1.28 2.29l-.82.3h1.76V115h1.39v2.73h1.59V115h1.41v2.73H469l-.61-.19a14.28 14.28 0 0 0 1.12-2.37l1.53.39c-.43.78-.91 1.58-1.32 2.17H472V119h-3.1c-.3.54-.62 1.07-.89 1.52h3.39v1.19h-5.67v1h4.92v1.12h-4.92v1H472V126Zm-4.11-7a6.76 6.76 0 0 1 .68 1.43l-.46.09h3.38a15.38 15.38 0 0 0 .7-1.52ZM481.19 126.24c.05-.55.06-1.44.06-2.23-1.34.75-2.19 1.47-2.19 2.4 0 1.09 1 1.3 2.62 1.3a26.37 26.37 0 0 0 4.41-.42v1.62a41.4 41.4 0 0 1-4.4.27c-2.37 0-4.21-.54-4.21-2.51s1.9-3.19 3.73-4.12a1.24 1.24 0 0 0-1.28-.78 4 4 0 0 0-2.63 1.14 17 17 0 0 0-1.46 1.69l-1.36-1A16.52 16.52 0 0 0 478 119h-.46c-.66 0-1.77 0-2.65-.09v-1.49a23.77 23.77 0 0 0 2.72.17h.93a9.22 9.22 0 0 0 .37-1.9l1.65.13c-.1.41-.22 1-.45 1.71a37.07 37.07 0 0 0 4.69-.46v1.47a47.31 47.31 0 0 1-5.22.43 11.6 11.6 0 0 1-1.2 2.07 4.69 4.69 0 0 1 2-.47 2.09 2.09 0 0 1 2.11 1.35c1-.47 1.8-.8 2.55-1.14.53-.24 1-.45 1.5-.71l.63 1.48c-.43.13-1.12.38-1.6.57-.82.31-1.84.74-2.95 1.25 0 .9 0 2.16.07 2.92ZM498.21 121c1.09 3.33 3.11 6 6.13 7.3a6 6 0 0 0-1.1 1.39c-3-1.39-4.93-4-6.18-7.38a11.06 11.06 0 0 1-6.18 7.38 5.3 5.3 0 0 0-1.13-1.25 9.94 9.94 0 0 0 6-7.44h-5.68v-1.54H496a39 39 0 0 0 .19-4.41h1.62a39.41 39.41 0 0 1-.23 4.41h6.46V121ZM518.82 121.07a17.65 17.65 0 0 1-2.59.65c.45.93.93 2 1.38 2.8l-.76 1c-.83-.16-2.22-.35-3.25-.48l.13-1.21 1.88.19c-.28-.61-.58-1.31-.9-2a39.39 39.39 0 0 1-7 .13l-.06-1.46a32.8 32.8 0 0 0 6.51 0l-.43-1c-.13-.29-.26-.58-.37-.85a29.29 29.29 0 0 1-5.52-.05l-.1-1.45a29.27 29.27 0 0 0 5 .16l-.13-.27a9.94 9.94 0 0 0-.65-1.24l1.79-.36a16.61 16.61 0 0 0 .56 1.69 18.87 18.87 0 0 0 3.09-.75l.27 1.41a18.85 18.85 0 0 1-2.83.65l.28.68.52 1.15a16.9 16.9 0 0 0 2.88-.77Zm-9 3.15a5.42 5.42 0 0 0-.37 1.58c0 1.12.85 1.84 3 1.84a20.9 20.9 0 0 0 4-.35v1.6a23.56 23.56 0 0 1-3.92.32c-2.9 0-4.63-1-4.63-3.07a7.39 7.39 0 0 1 .37-2ZM532.47 116.81c-.4.3-.9.73-1.22 1-1 .9-3.25 2.63-4.37 3.57-.91.79-.91 1 0 1.8 1.32 1.1 4.32 3.52 5.87 5l-1.44 1.33c-.38-.45-.83-.88-1.22-1.29-.86-.93-3.42-3.09-4.88-4.33s-1.38-2.06.11-3.31c1.22-1 3.52-2.85 4.6-3.92a10.35 10.35 0 0 0 1-1.18ZM551.85 119.18c-1-.05-2.44-.08-4.74-.08v2.48a3.84 3.84 0 0 1 .57 2.11c0 2.11-1.12 4.59-4.89 5.68l-1.35-1.37c1.86-.42 3.32-1.11 4.08-2.29a2.7 2.7 0 0 1-1.1.22 2.66 2.66 0 0 1-2.67-2.77 2.87 2.87 0 0 1 3-2.84 3.08 3.08 0 0 1 .88.11v-1.35c-2.4 0-5 .13-7 .26l-.05-1.54c1.79 0 4.74-.11 7-.14v-.8c0-.4-.08-.93-.12-1.16h1.82c0 .21-.08.93-.08 1.16v.78h4.74Zm-7.14 5.39c.81 0 1.42-.66 1.21-2.16a1.29 1.29 0 0 0-1.23-.74 1.42 1.42 0 0 0-1.42 1.49 1.38 1.38 0 0 0 1.44 1.41ZM565.17 117.42c-.32.2-.68.44-1 .65-.82.58-2.74 2.26-3.86 3.19a5.84 5.84 0 0 1 1.87-.27c2.66 0 4.63 1.63 4.63 3.84 0 2.54-2 4.35-5.59 4.35-2.19 0-3.66-1-3.66-2.42a2.45 2.45 0 0 1 2.62-2.25 3.16 3.16 0 0 1 3.33 2.78 2.6 2.6 0 0 0 1.67-2.48c0-1.49-1.51-2.54-3.45-2.54-2.52 0-4 1.18-5.9 3.17l-1.17-1.19 4.15-3.44c.88-.74 2.7-2.26 3.5-3-.83 0-3.54.15-4.37.2-.4 0-.81.06-1.17.11v-1.65a11.1 11.1 0 0 0 1.27.08c.83 0 4.42-.1 5.28-.18a4.79 4.79 0 0 0 1-.16Zm-3.09 10.26a1.9 1.9 0 0 0-1.87-1.94c-.65 0-1.13.38-1.13.88 0 .69.81 1.12 1.88 1.12a9.84 9.84 0 0 0 1.12-.06ZM584 123.58s0 .4-.05.59c-.27 3.2-.56 4.53-1 5a1.51 1.51 0 0 1-1.1.48 13.41 13.41 0 0 1-1.94 0 3.22 3.22 0 0 0-.38-1.33 14.78 14.78 0 0 0 1.66.08.73.73 0 0 0 .56-.17c.3-.27.54-1.22.75-3.41h-9.49a16.94 16.94 0 0 1-2.54 1.63 8.82 8.82 0 0 0-.79-1.26 15.79 15.79 0 0 0 6.44-6.12h-5.41v-1.33h2.94a11.65 11.65 0 0 0-1.12-2.19l1.26-.49a9.62 9.62 0 0 1 1.29 2.33l-.84.35h2.6a21.26 21.26 0 0 0 1.12-2.76l1.48.41c-.28.8-.6 1.59-1 2.35h3.2c-.18 1-.37 2-.58 2.9h1.83c-.15.95-.36 2-.55 2.9Zm-13.75 5.26a5.72 5.72 0 0 0 1.75-3.24l1.26.41a6.54 6.54 0 0 1-1.9 3.59Zm5.12-2.83a11 11 0 0 1 .45 2.91l-1.31.18a11.14 11.14 0 0 0-.34-2.93Zm.51-4.05a18.44 18.44 0 0 1-1.45 1.62H581c.11-.48.22-1 .32-1.62Zm1.84 3.78a11 11 0 0 1 .85 2.56l-1.2.32a14 14 0 0 0-.78-2.61Zm0-6.63a17.69 17.69 0 0 1-1 1.57h2.92c.11-.46.22-1 .32-1.57Zm2.21 8.74a9.38 9.38 0 0 0-1.06-2.17l1-.36a8.69 8.69 0 0 1 1.13 2.08ZM592.69 127.48a7.76 7.76 0 0 0 1.41-.22 4.55 4.55 0 0 0 3.84-4.5 4.2 4.2 0 0 0-3.81-4.42 35.37 35.37 0 0 1-.94 4.45c-1 3.24-2.27 5-3.86 5s-3-1.78-3-4.42a6.89 6.89 0 0 1 7.09-6.58 5.88 5.88 0 0 1 6.23 6c0 3.31-2.13 5.61-6 6.16Zm-1.12-5a22 22 0 0 0 .87-4.08 5.31 5.31 0 0 0-4.52 4.89c0 1.83.82 2.66 1.46 2.66s1.46-1.04 2.19-3.49ZM478.42 144.45c-1.39.46-2.88.9-4.07 1.26l-.59-1.31c1.17-.24 2.87-.69 4.52-1.12Zm1.47 8.34a21.2 21.2 0 0 1-4.9 2 9 9 0 0 0-1.12-1.1 17.24 17.24 0 0 0 4.66-1.51Zm-2-10.13a22.51 22.51 0 0 0-3.35-1.32l.66-1a20 20 0 0 1 3.35 1.18Zm3-.44a7.47 7.47 0 0 1-1.36 1.33 4.47 4.47 0 0 0-1.12-.72 6.61 6.61 0 0 0 2.37-2.8l1.35.21a10.26 10.26 0 0 1-.5.91h5.14l.22-.05 1 .26a10.11 10.11 0 0 1-1.56 2.32l-1.17-.37a6.83 6.83 0 0 0 .8-1.09h-2.2c.35 1.16 1.24 2.18 4.49 2.61a4.27 4.27 0 0 0-.75 1.22c-.45-.08-.86-.18-1.23-.27v6.35h-10.45v-6.43h3.22a3.59 3.59 0 0 0-.66-1c2.58-.41 3.49-1.18 3.86-2.5Zm4 4.42h-7.51v.9h7.51Zm0 1.79h-7.51v.92h7.51Zm0 1.83h-7.51v.93h7.51Zm1.23-4.56a4.77 4.77 0 0 1-2.93-2.1c-.6 1-1.66 1.65-3.57 2.1Zm-2.7 6.5a50 50 0 0 1 4.78 1.85l-1.71.71a30.07 30.07 0 0 0-4.29-1.81ZM497.73 153h6v1.29h-13.44V153h5.87v-3.64h-5.1V148h5.1v-1.9H493v-.83a24.94 24.94 0 0 1-2.5 1.57 5.71 5.71 0 0 0-.93-1.2 17.23 17.23 0 0 0 6.53-5.67h1.52a17.59 17.59 0 0 0 6.85 5.47 9.32 9.32 0 0 0-1 1.33 20.41 20.41 0 0 1-2.56-1.58v.91h-3.25v1.9H503v1.28h-5.22Zm-4.29-3.39a10 10 0 0 1 1.49 2.75l-1.3.57a10.82 10.82 0 0 0-1.4-2.85Zm7-4.74a18.37 18.37 0 0 1-3.48-3.36 17.06 17.06 0 0 1-3.31 3.36Zm-1.65 7.57a18.44 18.44 0 0 0 1.62-2.85l1.42.53a26.16 26.16 0 0 1-1.94 2.81ZM512.05 141c-.08.34-.17.74-.24 1.09s-.22 1.25-.37 2c.64 0 1.22-.08 1.59-.08 1.52 0 2.69.64 2.69 2.85a15.49 15.49 0 0 1-.9 5.74 2.39 2.39 0 0 1-2.45 1.38 8.72 8.72 0 0 1-1.89-.24l-.27-1.67a8.24 8.24 0 0 0 1.95.34 1.26 1.26 0 0 0 1.3-.75 12.75 12.75 0 0 0 .7-4.63c0-1.36-.6-1.58-1.61-1.58-.32 0-.85 0-1.44.08a32.54 32.54 0 0 1-3.27 8.5l-1.65-.66a24.51 24.51 0 0 0 3.29-7.67l-1.73.2c-.42 0-1.12.14-1.57.22l-.18-1.72h1.53c.53 0 1.36-.08 2.24-.16a18.38 18.38 0 0 0 .39-3.39Zm5.7 2.06a30 30 0 0 1 2.61 5.37l-1.58.75a18.53 18.53 0 0 0-2.77-5.83l1.48-.65.26.35a17.07 17.07 0 0 0-1.28-2.21l1-.43a22.07 22.07 0 0 1 1.3 2.21Zm1.86-.68a14 14 0 0 0-1.32-2.21l1-.44a22.6 22.6 0 0 1 1.33 2.2ZM533.24 146.29c0 1.42.56 5.2 3.46 7.15a12.87 12.87 0 0 0-.93 1.3 8.78 8.78 0 0 1-3.27-5.7 8.52 8.52 0 0 1-3.7 5.7 8.72 8.72 0 0 0-.76-1.1h-3.65v.91H523v-5.83a7.63 7.63 0 0 1-.67.59 5.27 5.27 0 0 0-1-1.07 12.22 12.22 0 0 0 3.61-4.59h1.38a22.44 22.44 0 0 1 2.16 2.29 14.4 14.4 0 0 0 1.94-5.92l1.52.24c-.13.84-.31 1.68-.51 2.48h3.72l.24-.05 1 .25a36.17 36.17 0 0 1-.92 4.17l-1.2-.36a20.58 20.58 0 0 0 .53-2.65h-1.58Zm-7.94-5.52a13.42 13.42 0 0 1-2.71 3.85 8.29 8.29 0 0 0-1.18-1 10.66 10.66 0 0 0 2.43-3.27Zm2.91 7.38a17.24 17.24 0 0 0-2.32-3 17.84 17.84 0 0 1-2.3 3Zm-1.2 1.34h-2.62v2.8H527Zm1.25-5.63a16 16 0 0 0-2.21-2.9l1.12-.69a14.86 14.86 0 0 1 2.29 2.8Zm.14 9.36a8.87 8.87 0 0 0 3.37-6.95v-2.17h-.72a11.17 11.17 0 0 1-1.37 2.88 6.27 6.27 0 0 0-.8-.55 8.86 8.86 0 0 1 .64 1l-1.1 1.12ZM542.71 140.94a16.31 16.31 0 0 0-.18 1.81c-.06 1.76-.19 5.41-.19 7.62 0 1.67 1.06 2.24 2.42 2.24a6.48 6.48 0 0 0 5.57-3.26l1.13 1.39a8.06 8.06 0 0 1-6.74 3.55c-2.41 0-4-1-4-3.66 0-2.26.16-6.34.16-7.88a9.27 9.27 0 0 0-.16-1.82ZM556.74 143.92a34.63 34.63 0 0 0 .11 3.57c.24 2.5.88 4.16 1.94 4.16.8 0 1.49-1.73 1.84-3.18l1.28 1.48c-1 2.73-2 3.67-3.15 3.67-1.6 0-3.08-1.54-3.51-5.71a42.47 42.47 0 0 1-.18-4.25 7.55 7.55 0 0 0-.11-1.48h1.94a12.8 12.8 0 0 0-.16 1.74Zm11.11 6.6-1.65.64c-.26-2.73-1.17-6.14-2.77-8l1.58-.53a16.76 16.76 0 0 1 2.84 7.89ZM388.24 281.78a4.78 4.78 0 0 0-.46.56 25.47 25.47 0 0 1-5.65 6.4c.94.94 2 2.06 2.63 2.83l-1.48 1.19a38.35 38.35 0 0 0-3-3.36 35.82 35.82 0 0 0-3.6-3.11l1.31-1.07c.61.45 1.83 1.42 2.88 2.37a18.84 18.84 0 0 0 4.58-5.14h-9c-.64 0-1.4.06-1.73.09v-1.79a12.72 12.72 0 0 0 1.73.13h9.25a4.32 4.32 0 0 0 1.23-.14ZM397.94 290.6a12 12 0 0 0 .11 1.88h-2c0-.35.09-1.23.09-1.88v-5.7a31.16 31.16 0 0 1-5.79 2.35l-.92-1.55a25 25 0 0 0 7.22-2.92 17.19 17.19 0 0 0 4.18-3.58l1.36 1.23a26.37 26.37 0 0 1-4.27 3.44ZM415.76 281.86a21.92 21.92 0 0 1-3 5.84 16 16 0 0 1-6 4.61l-1.44-1.47a14.07 14.07 0 0 0 6.08-4.21 16.46 16.46 0 0 0 3-6.86l2 .52a15.58 15.58 0 0 0-.64 1.57ZM423.55 279.76c0 .34-.06.74-.06 1.18v5.37c0 .41 0 1 .06 1.29h-1.87c0-.27.08-.83.08-1.29v-5.37c0-.28 0-.84-.06-1.18Zm7.4-.13c0 .42-.07.9-.07 1.47v2.9c0 3.67-.57 5-1.76 6.37a8.84 8.84 0 0 1-3.82 2.34l-1.3-1.44a7.38 7.38 0 0 0 3.87-2.1c1.12-1.26 1.33-2.51 1.33-5.31v-2.76a12 12 0 0 0-.1-1.47ZM446.76 284a13.12 13.12 0 0 0 1.34-.08v1.65c-.37 0-.93-.05-1.34-.05h-4.12a9.9 9.9 0 0 1-1 4.28 7.76 7.76 0 0 1-3.19 3l-1.45-1.12a6.62 6.62 0 0 0 3-2.38 7.35 7.35 0 0 0 1-3.78h-4.62c-.48 0-1 0-1.46.05v-1.65a13.54 13.54 0 0 0 1.46.08Zm-8.47-2.54h-1.57v-1.64a13 13 0 0 0 1.57.11h6.45a10.85 10.85 0 0 0 1.6-.11v1.64h-1.6ZM461.17 283.25a20.17 20.17 0 0 1-3.62 2.9v5.52a10.67 10.67 0 0 0 .08 1.53h-1.85c0-.27.08-1 .08-1.53v-4.55A26.45 26.45 0 0 1 451 289l-.85-1.48a20.58 20.58 0 0 0 5.6-2.17 16.07 16.07 0 0 0 4.12-3.3ZM466 285.81a10.68 10.68 0 0 1 3.17-7.65l1.22.57a10 10 0 0 0 0 14.15l-1.22.58a10.68 10.68 0 0 1-3.17-7.65ZM475.5 280.85a17.65 17.65 0 0 1-3.37 5.65 7.45 7.45 0 0 0-1.35-.88 13.22 13.22 0 0 0 3.08-5.16Zm7.82 4.78c-1.51 4.66-4.73 6.65-10.52 7.57a6.25 6.25 0 0 0-.8-1.48c5.46-.68 8.42-2.41 9.76-6.55Zm-4.39-7.17v7.91c0 .86-.18 1.28-.77 1.52a7.83 7.83 0 0 1-2.82.29 6 6 0 0 0-.54-1.52h2.2c.29 0 .39-.08.39-.33v-7.88Zm3.3 1.81a23.14 23.14 0 0 1 3.39 5.24l-1.52.81a22 22 0 0 0-3.25-5.34ZM492.85 292.08a8.46 8.46 0 0 0 2.91-1.8l1.24.72a10.7 10.7 0 0 1-3.32 2.09c-.24-.27-.68-.7-1-1h-3.47v.72H488v-4.21c-.19.07-.38.17-.58.25a5.63 5.63 0 0 0-.76-1.07 9.9 9.9 0 0 0 3.18-1.94c-.45-.33-.89-.65-1.31-.94a10 10 0 0 1-.88.75 7.43 7.43 0 0 0-1-.88 8 8 0 0 0 2.91-3.46l1.23.32a6.77 6.77 0 0 1-.43.85h1.81l.23-.06.84.38a9.49 9.49 0 0 1-1.57 2.85c.9.66 1.73 1.3 2.28 1.79l-.87 1-.22-.21Zm-4.56-9.82h-1.22v-2.42h2.64v-1.35h1.39v1.35h2.66v2.42h-1.26V281h-4.21Zm4.16 5.65c-.46-.4-1-.85-1.65-1.32a10.5 10.5 0 0 1-1.65 1.32Zm-.9 1.15h-2.33V291h2.33Zm-1.87-5.54-.38.5 1.36.91a7.22 7.22 0 0 0 .91-1.41Zm6.82-1.76c.09-.42.19-.9.27-1.33h-2.88v-1.28h7.39v1.28h-2.92l-.45 1.33h3v8.31h-6.47v-8.31Zm3 1.14h-3.71v1.29h3.71Zm0 2.35h-3.71v1.31h3.71Zm0 2.37h-3.71V289h3.71Zm-.37 2.74a18.29 18.29 0 0 1 2.66 2l-1.15.78A22.21 22.21 0 0 0 498 291ZM507.28 285.81a10.64 10.64 0 0 1-3.17 7.65l-1.21-.58a10 10 0 0 0 0-14.15l1.21-.57a10.64 10.64 0 0 1 3.17 7.65ZM400 311.51v6.61h-1.54v-.94H389v1h-1.5v-6.65h1.5v4.21h3.86v-5.17h-4.76V305h1.48v4.14h3.27v-5.54h1.52v5.54h3.43V305h1.56v5.6h-5v5.17h4.08v-4.21ZM407.09 307.88c-1.39.46-2.88.9-4.07 1.27l-.59-1.32c1.17-.24 2.87-.69 4.52-1.12Zm1.47 8.34a21.2 21.2 0 0 1-4.9 2 10.63 10.63 0 0 0-1.12-1.1 17.6 17.6 0 0 0 4.66-1.5Zm-2-10.13a22.51 22.51 0 0 0-3.35-1.32l.66-1a20 20 0 0 1 3.35 1.18Zm3-.43a7.42 7.42 0 0 1-1.36 1.32 4.47 4.47 0 0 0-1.12-.72 6.61 6.61 0 0 0 2.37-2.8l1.35.21a9 9 0 0 1-.5.91h5.14l.22-.05 1 .26a10.11 10.11 0 0 1-1.56 2.32l-1.17-.37a6.31 6.31 0 0 0 .8-1.08h-2.2c.35 1.15 1.24 2.17 4.49 2.6a4.27 4.27 0 0 0-.75 1.22q-.67-.12-1.23-.27v6.35h-10.45v-6.43h3.22a3.75 3.75 0 0 0-.66-1c2.58-.41 3.49-1.18 3.86-2.49Zm4 4.41H406v.9h7.51Zm0 1.8H406v.91h7.51Zm0 1.82H406v.93h7.51Zm1.23-4.56a4.77 4.77 0 0 1-2.93-2.1c-.6 1-1.66 1.65-3.57 2.1Zm-2.7 6.5a50 50 0 0 1 4.78 1.85l-1.71.71a32.58 32.58 0 0 0-4.29-1.81ZM425.86 314.67c.05-.55.06-1.44.06-2.23-1.34.75-2.19 1.47-2.19 2.4 0 1.09 1 1.3 2.62 1.3a26.37 26.37 0 0 0 4.41-.42l-.05 1.62a41.4 41.4 0 0 1-4.4.27c-2.37 0-4.21-.54-4.21-2.51s1.9-3.19 3.73-4.11a1.25 1.25 0 0 0-1.28-.79 4 4 0 0 0-2.63 1.14 18.22 18.22 0 0 0-1.46 1.69l-1.36-1a16.52 16.52 0 0 0 3.59-4.63h-.46c-.66 0-1.77 0-2.65-.09v-1.51a23.86 23.86 0 0 0 2.72.18h.93a9.29 9.29 0 0 0 .37-1.91l1.65.13c-.1.41-.22 1-.45 1.71a37.07 37.07 0 0 0 4.69-.46v1.47a47.31 47.31 0 0 1-5.22.43 11.26 11.26 0 0 1-1.2 2.07 4.69 4.69 0 0 1 2-.47 2.09 2.09 0 0 1 2.11 1.35c1-.47 1.8-.8 2.55-1.14.53-.24 1-.45 1.5-.7l.63 1.47c-.43.13-1.12.38-1.6.58-.82.3-1.84.73-2.95 1.24 0 .9.05 2.16.07 2.92ZM446.63 311.43a9.74 9.74 0 0 1-3.41 3.89 20.77 20.77 0 0 0 5.63 1.33 6.67 6.67 0 0 0-.91 1.41 19.6 19.6 0 0 1-6.24-1.86 22.38 22.38 0 0 1-6.32 1.88 4.79 4.79 0 0 0-.87-1.35 21.35 21.35 0 0 0 5.75-1.41 10.89 10.89 0 0 1-2.92-2.94l.29-.13h-.69v-1.38h8.68Zm-10.37-.09h-1.4V308h2.42a10.92 10.92 0 0 0-.91-1.9l1.29-.37a8.48 8.48 0 0 1 1 2l-.87.27h3.46a9 9 0 0 0-.72-2.25l1.33-.29a9.32 9.32 0 0 1 .8 2.21l-1.34.33h3.18a16.63 16.63 0 0 0 1.28-2.57l1.55.41c-.41.72-.88 1.52-1.32 2.16h2.51v3.32h-1.46v-2h-10.8Zm11.54-6.74a86.24 86.24 0 0 1-12.46 1.2 4 4 0 0 0-.32-1.27 79.89 79.89 0 0 0 11.74-1.15Zm-8.87 7.65a8.8 8.8 0 0 0 2.8 2.35 8 8 0 0 0 2.66-2.35ZM454 304.6c-.11.34-.24.83-.32 1.15-.45 2.05-1 5.44-.48 7.77.22-.6.53-1.46.8-2.17l.83.53a37.43 37.43 0 0 0-1.05 3.67 2.69 2.69 0 0 0-.08.72v.59l-1.38.16a17.79 17.79 0 0 1-.86-5.07 43.66 43.66 0 0 1 .56-6.34 10.81 10.81 0 0 0 .09-1.19Zm10.39 4.29c-.69.09-1.54.17-2.47.24v.59c0 3.68-.12 6.15-3.39 8.15l-1.47-1.15a5.88 5.88 0 0 0 1.68-1.12c1.49-1.38 1.65-3 1.65-5.89v-.5h-1.91c-.73 0-1.77-.05-2.51-.09v-1.61a16.24 16.24 0 0 0 2.48.16h1.91c0-1-.05-1.9-.08-2.32a7.79 7.79 0 0 0-.17-1H462a9.81 9.81 0 0 0-.07 1v2.23a24.05 24.05 0 0 0 2.48-.34ZM475.38 307.59a30.31 30.31 0 0 1-3.19.53c-.14.69-.32 1.39-.49 2.07a47.14 47.14 0 0 1-2.5 7.29l-1.76-.59a34.23 34.23 0 0 0 2.69-7.1c.14-.48.27-1 .38-1.53h-1.26c-.74 0-1.31 0-1.89-.07v-1.57a14.07 14.07 0 0 0 1.93.13c.5 0 1 0 1.59-.06.08-.47.16-.88.19-1.17a7.3 7.3 0 0 0 0-1.44l1.94.14c-.12.4-.24 1-.31 1.36l-.19.93a28.71 28.71 0 0 0 2.85-.54Zm-.5 5.4a5.78 5.78 0 0 0-.22 1.37c0 .72.38 1.36 2.4 1.36a17 17 0 0 0 3.17-.32l-.05 1.62a21.63 21.63 0 0 1-3.14.22c-2.57 0-3.9-.84-3.9-2.41a10.4 10.4 0 0 1 .24-2Zm-.62-3.91a26.84 26.84 0 0 1 3-.16c.91 0 1.87.05 2.77.14l-.05 1.53a21.87 21.87 0 0 0-2.69-.2 26.45 26.45 0 0 0-3 .16ZM485.41 307.35a34.63 34.63 0 0 0 .11 3.57c.24 2.5.88 4.16 1.94 4.16.8 0 1.49-1.72 1.84-3.18l1.28 1.49c-1 2.72-2 3.66-3.15 3.66-1.61 0-3.08-1.53-3.51-5.71a42.28 42.28 0 0 1-.18-4.24 7.65 7.65 0 0 0-.11-1.49h1.94a12.8 12.8 0 0 0-.16 1.74Zm11.11 6.6-1.65.64c-.26-2.72-1.17-6.13-2.77-8l1.58-.53a16.76 16.76 0 0 1 2.84 7.94Z"/><rect x="2.67" y="2.67" width="841" height="400" rx="17.45" style="stroke:#c7161d;stroke-miterlimit:10;stroke-width:5.34px;fill:none"/><path class="cls-3" d="M202.48 58.75a18.33 18.33 0 0 1-3 1.74 10.79 10.79 0 0 0 3.84 2.19 11.15 11.15 0 0 0-2 2.55c-3.81-1.47-6.24-4.5-7.68-8.52h-.33a13.39 13.39 0 0 1-1.83 1.59v3.24c1.32-.21 2.7-.45 4.08-.66l.24 2.58c-3.18.57-6.54 1.14-9.12 1.56l-.84-2.67c.78-.09 1.65-.24 2.61-.36v-1.86c-.84.39-1.68.75-2.52 1a25.8 25.8 0 0 0-1.86-2.28 20.78 20.78 0 0 0 5.19-2.19h-4.5v-2.4H189v-1h-2.58V51H189v-1h-3.2v-2.29h3.2v-1.59a21.27 21.27 0 0 1-2.34 1.17 20.07 20.07 0 0 0-2.31-2.19l.27-.09h-9.75v-2.82h9.9V45a13.42 13.42 0 0 0 4.92-2.7h-4.23v-2.66h6.39v-2.4h3.6v2.4h7v2.61h-4.77a27.55 27.55 0 0 1 5.22 3.12l-2.43 1.74a27.39 27.39 0 0 0-5.7-3.57l2-1.29h-6.72l2.7.81a13.61 13.61 0 0 1-3.27 2.76h2.64v1.89h3.15v-1.89h3.18v1.89h3.66V50h-3.66v1h3.06v2.25h-3.06v1.05h4.41v2.4h-6.15a13 13 0 0 0 1.14 2 24.86 24.86 0 0 0 2.7-1.77ZM184 63.64h-5.22v1.2H176V54.61h8Zm-7.89-17.28h7.95v2.73h-7.95Zm0 4.11h7.95v2.67h-7.95Zm7.86-9.6h-7.68v-2.7H184Zm-5.19 16.53v3.45h2.37V57.4Zm13.38-6.4h3.15v-1h-3.15Zm0 3.3h3.15v-1.04h-3.15ZM213.52 44.8c1.44-2.34 4-4.86 7.44-4.86 4.17 0 7.41 4.08 7.41 10.68 0 8.49-5.19 12.54-13.14 14l-2.23-3.5c6.66-1 11.37-3.21 11.37-10.47 0-4.62-1.56-7.2-4.08-7.2-3.54 0-6.63 5.31-6.78 9.27a15.69 15.69 0 0 0 .15 3.18l-3.69.24a33.93 33.93 0 0 1-.39-5 78.94 78.94 0 0 1 .84-9.6 26.57 26.57 0 0 0 .24-3.15l4.11.18a48.92 48.92 0 0 0-1.25 6.23ZM239.86 51.1a20.94 20.94 0 0 0-5-3l1.92-2.67a19.64 19.64 0 0 1 5.19 2.73Zm2.61 4.08c-1.2 3.24-2.7 6.75-4.11 9.72l-3.27-2a83.27 83.27 0 0 0 4.47-9.75Zm-1-12a19.8 19.8 0 0 0-5.07-3.12l2-2.7a21.26 21.26 0 0 1 5.13 2.88Zm5.74 4.82c0 5-.48 12.36-3.45 17.07a13.16 13.16 0 0 0-3-1.68c2.82-4.44 3.09-10.92 3.09-15.45v-8.12h7.92v-2.58h3.63v2.58h7.2v3h-15.39v2.43h2.4V43.3h3.15v1.92h3.87V43.3h3.3v1.92h2.79V48h-2.79v4.38h-10.32V48Zm14.73 6.36a15.18 15.18 0 0 1-4.47 6.3 23.93 23.93 0 0 0 5.79 1.59 12.83 12.83 0 0 0-2.13 3 20.5 20.5 0 0 1-6.75-2.52 27.42 27.42 0 0 1-6.87 2.46 10.66 10.66 0 0 0-1.68-2.88 24.07 24.07 0 0 0 5.73-1.71 16.51 16.51 0 0 1-2.79-3.6l2.25-.66h-3.42v-2.81h11.58l.57-.12Zm-10 2a10.34 10.34 0 0 0 2.53 2.64 12.87 12.87 0 0 0 2.76-2.64Zm.78-8.31v1.68h3.87V48ZM274.63 42.85c-.12 3.24-.36 10-.36 13.68 0 3 1.8 4 4.14 4 4.95 0 8.1-2.85 10.26-6.12l2.73 3.3a15.53 15.53 0 0 1-13 6.9c-4.92 0-8.1-2.16-8.1-7.29 0-4 .3-11.91.3-14.49a19.13 19.13 0 0 0-.39-4.05l4.83.06c-.2 1.28-.35 2.81-.41 4.01ZM307.48 41.53c-.06.33-.15.72-.24 1.14 1.68-.24 3.36-.57 5-1v3.75a55.23 55.23 0 0 1-5.85 1c-.27 1.29-.57 2.61-.9 3.84a93.22 93.22 0 0 1-4.77 13.89l-4.17-1.41c1.8-3 4.08-9.3 5.19-13.5.21-.81.45-1.65.63-2.52-.69 0-1.35.06-2 .06-1.44 0-2.58-.06-3.63-.12l-.09-3.75a29.69 29.69 0 0 0 3.78.24q1.31 0 2.7-.09.18-1 .27-1.71a15.38 15.38 0 0 0 .09-3l4.59.36c-.21.81-.48 2.16-.6 2.82Zm3.6 16.29c0 1.32.9 2.31 4.11 2.31a35.21 35.21 0 0 0 6.24-.63l-.15 3.84a48.16 48.16 0 0 1-6.12.42c-5 0-7.77-1.74-7.77-4.77a21 21 0 0 1 .54-4l3.57.36a10.28 10.28 0 0 0-.42 2.47Zm4.56-10.35a52.76 52.76 0 0 1 5.28.27l-.09 3.6a44 44 0 0 0-5.16-.36 51.54 51.54 0 0 0-5.79.3v-3.51c1.68-.15 3.84-.3 5.76-.3ZM331.33 44.86c0 2 0 4.2.18 6.36.42 4.32 1.32 7.29 3.21 7.29 1.41 0 2.61-3.51 3.18-5.91l3 3.66c-2 5.22-3.87 7.05-6.27 7.05-3.3 0-6.15-3-7-11-.3-2.76-.33-6.27-.33-8.1a18.24 18.24 0 0 0-.24-3.06l4.62.06a24.27 24.27 0 0 0-.35 3.65Zm20.82 12.57L348.22 59c-.48-4.83-2.07-12.12-5.34-15.84l3.81-1.23c2.85 3.41 5.13 10.91 5.46 15.5ZM372.73 51.25a3.84 3.84 0 1 1-3.84-3.84 3.87 3.87 0 0 1 3.84 3.84ZM394.93 51.25a3.84 3.84 0 1 1-3.84-3.84 3.87 3.87 0 0 1 3.84 3.84ZM417.13 51.25a3.84 3.84 0 1 1-3.84-3.84 3.87 3.87 0 0 1 3.84 3.84Z"/><path class="cls-4" d="M227 282.26a10.5 10.5 0 1 1-10.49-10.5 10.49 10.49 0 0 1 10.49 10.5Zm-28.86 10.5a5.88 5.88 0 1 0 5.88 5.87 5.87 5.87 0 0 0-5.86-5.87Zm-43.3 23.17a27.13 27.13 0 1 0-27.13-27.13 27.13 27.13 0 0 0 27.15 27.13Zm11.06 3.87-9.9 12.11 9.91 45.8L154.87 389l-11.06-11.3 9.91-45.8-9.91-12.11c-17.72 0-34.89 14.36-34.89 32.08v40.63h18.2v-36.61a6 6 0 0 1 5.58-6.28v42.89H177v-42.89a6.08 6.08 0 0 1 5.59 6.28v36.61h18.19v-40.62c.03-17.72-17.14-32.08-34.86-32.08ZM637.58 240.67a25.18 25.18 0 1 0 25.29 25.17 25.2 25.2 0 0 0-25.29-25.17Zm0 56.28c-22 0-34.18 3.53-34.18 3.53-12 3.52-20.61 10.58-24.42 19.66-4.68 11.14-1.9 23.65 5.57 32.58a37.69 37.69 0 0 0 18.85 11.91 43.39 43.39 0 0 0 15.43 1.41 54 54 0 0 0 14-3.25 101.71 101.71 0 0 1-23.29-17 18.42 18.42 0 0 1-6.17-2.52 17.43 17.43 0 0 1-3.69-3.25c-3.32-4-4.06-8.56-2.52-12.24a13 13 0 0 1 6.21-6.31v9.22a14.4 14.4 0 0 1 3.73-6.45 14 14 0 0 1 9.1-4.2 13.45 13.45 0 0 1 10.36 4.31 90 90 0 0 0 11 9.37 89.68 89.68 0 0 0 10.92-9.35 13.53 13.53 0 0 1 10.4-4.34 14 14 0 0 1 9.09 4.21 14.31 14.31 0 0 1 3.73 6.44v-9.18a13 13 0 0 1 6.21 6.31c1.54 3.68.81 8.27-2.51 12.24a17.5 17.5 0 0 1-3.7 3.25 18.66 18.66 0 0 1-6.28 2.62 20.6 20.6 0 0 1-2.17.31 27.68 27.68 0 0 1-2.94.13h-2.35c-5.54-.47-12.48-2.76-20.44-8-1.09-.72-2.19-1.47-3.32-2.31a96.74 96.74 0 0 1-10.2-8.99 9.61 9.61 0 0 0-7.46-3.16 10.62 10.62 0 0 0-9.68 9.74 9.68 9.68 0 0 0 3.23 7.46c.51.5 1 .92 1.51 1.41 1.4 1.34 2.79 2.68 4.18 3.9a89.68 89.68 0 0 0 21.87 14.49q2.39 1.08 4.72 1.93a55.2 55.2 0 0 0 14 3.24 43.39 43.39 0 0 0 15.43-1.4 37.75 37.75 0 0 0 18.85-11.92c7.47-8.93 10.26-21.43 5.58-32.57-3.82-9.08-12.46-16.14-24.43-19.66 0 0-12.13-3.53-34.17-3.53Zm20.72 26.88a9.75 9.75 0 0 0-7 3.21A95.44 95.44 0 0 1 641 336c7 4.41 12.92 6.22 17.45 6.61a21.63 21.63 0 0 0 5.29-.14c.51-.48 1-.9 1.52-1.4a9.62 9.62 0 0 0 3.22-7.47 10.26 10.26 0 0 0-3.06-6.64 10.16 10.16 0 0 0-6.62-3.09h-.46ZM637.59 365a60.41 60.41 0 0 1-18.37 4.8 46.44 46.44 0 0 1-15.75-1.29v24.88h68.35v-24.86a47.51 47.51 0 0 1-15.76 1.29 60.48 60.48 0 0 1-18.47-4.82ZM423.17 436.17l43.3-33.5h-86.6l43.3 33.5z"/><path class="cls-5" d="M49 106.17h150.13c1.35.14 12.87 1.58 12.87 11v96s1 10-11 10h-18.33a2.67 2.67 0 0 0-2.67 2.67v26.39a2.67 2.67 0 0 1-4.65 1.79l-25.15-27.86a2.68 2.68 0 0 0-2-.88H50s-14-.11-14-18.11v-90s-1-11 13-11ZM445 78.17h150.13c1.35.14 12.87 1.58 12.87 11v96s1 10-11 10h-18.33a2.67 2.67 0 0 0-2.67 2.67v26.39a2.67 2.67 0 0 1-4.65 1.79l-25.15-27.86a2.68 2.68 0 0 0-2-.88H446s-14-.11-14-18.11v-90s-1-11 13-11Z"/><path d="M356.5 353.35V246.08a1.1 1.1 0 0 1 0-.18c.2-1 2.32-9.21 16.18-9.21h141.37s14.72-.72 14.72 7.87v13.12c0 1.05 1.76 1.91 3.93 1.91h38.86c3.6 0 5.31 2.15 2.64 3.33l-41 18c-.83.37-1.3.88-1.3 1.42v70.3s-.16 10-26.67 10H372.7s-16.2.73-16.2-9.29Z" style="stroke-width:2.98px;stroke:#c8161d;stroke-linecap:round;stroke-linejoin:round;fill:none"/><path class="cls-5" d="M398.16 106.17H244.24c-1.38.14-13.2 1.58-13.2 11v96s-1 10 11.28 10h18.8a2.7 2.7 0 0 1 2.73 2.67v26.39a2.75 2.75 0 0 0 4.77 1.79l25.79-27.86a2.78 2.78 0 0 1 2-.88h100.72s14.36-.11 14.36-18.11v-90s1.02-11-13.33-11ZM805.16 111.17H651.24c-1.38.14-13.2 1.58-13.2 11v96s-1 10 11.28 10h18.8a2.7 2.7 0 0 1 2.73 2.67v26.39a2.75 2.75 0 0 0 4.77 1.79l25.79-27.86a2.78 2.78 0 0 1 2-.88h100.72s14.36-.11 14.36-18.11v-90s1.02-11-13.33-11Z"/><rect class="cls-4" x="18.5" y="17.67" width="133" height="69" rx="12.35"/><path class="cls-7" d="M39.32 70.22v-8.13h.87a22.7 22.7 0 0 0 6.57 3.72 20.33 20.33 0 0 0 7.12 1.37 11.18 11.18 0 0 0 5.71-1.27 3.93 3.93 0 0 0 2.17-3.54 3.82 3.82 0 0 0-1-2.81 8.36 8.36 0 0 0-3.91-1.73q-2.07-.39-7-1.51a14.25 14.25 0 0 1-7.6-3.94 10.11 10.11 0 0 1-2.62-7.2 10.09 10.09 0 0 1 4.37-8.5q4.45-3.28 11.47-3.28A34.72 34.72 0 0 1 68.9 36v7.78h-.84a19 19 0 0 0-12.29-4.34 10.74 10.74 0 0 0-5.42 1.23A3.72 3.72 0 0 0 48.22 44a3.66 3.66 0 0 0 1.21 2.88 9.85 9.85 0 0 0 4.15 1.76q2.93.54 6.54 1.41a19.65 19.65 0 0 1 5.38 2 11.38 11.38 0 0 1 2.83 2.38 9.06 9.06 0 0 1 1.58 2.87 11.06 11.06 0 0 1 .52 3.49 10.74 10.74 0 0 1-4.58 9q-4.57 3.42-12.12 3.42a36.55 36.55 0 0 1-14.41-2.99ZM102.76 59H81.83q.51 8.87 10.07 8.87a17.19 17.19 0 0 0 10-3.62h.28V71A31.55 31.55 0 0 1 91 73.3q-8.31 0-12.67-4T73.92 58q0-7.38 4.13-11.63t11.4-4.25q13.3 0 13.31 14.15Zm-7.83-4.44q-.11-7.62-6.19-7.63-6.48 0-6.91 7.63ZM116.37 72.51h-7.82V32.38h7.82ZM132.31 72.51h-7.83V32.38h7.83Z"/></g></g></svg>