<svg xmlns="http://www.w3.org/2000/svg" viewBox="0 0 846.34 438.17"><defs><style>.cls-6{fill:none}.cls-2{fill:#c7161d}.cls-3{fill:#c8161d}.cls-4{fill:#231815}.cls-5{fill:#fff}.cls-6{stroke:#c8161d;stroke-linecap:round;stroke-linejoin:round;stroke-width:2.83px}</style></defs><g id="レイヤー_2" data-name="レイヤー 2"><g id="追加項目"><rect x="2.67" y="2.67" width="841" height="400" rx="17.45" style="stroke:#c7161d;stroke-miterlimit:10;stroke-width:5.34px;fill:none"/><rect class="cls-2" x="18.5" y="17.67" width="133" height="69" rx="12.35"/><path class="cls-3" d="M202.48 61.24a18.33 18.33 0 0 1-3 1.74 10.79 10.79 0 0 0 3.84 2.19 11.15 11.15 0 0 0-2 2.55c-3.81-1.47-6.24-4.5-7.68-8.52h-.33a13.39 13.39 0 0 1-1.83 1.59V64c1.32-.21 2.7-.45 4.08-.66l.24 2.58c-3.18.57-6.54 1.14-9.12 1.56l-.84-2.67c.78-.09 1.65-.24 2.61-.36v-1.83c-.84.39-1.68.75-2.52 1.05a25.8 25.8 0 0 0-1.86-2.28 20.78 20.78 0 0 0 5.19-2.19h-4.5v-2.4H189v-1h-2.58v-2.3H189v-1h-3.2v-2.3h3.2v-1.59a21.27 21.27 0 0 1-2.34 1.17 20.07 20.07 0 0 0-2.31-2.19l.27-.09h-9.75v-2.82h9.9v2.76a13.42 13.42 0 0 0 4.92-2.7h-4.23v-2.61h6.39v-2.4h3.6v2.4h7v2.61h-4.77a27.55 27.55 0 0 1 5.22 3.12l-2.4 1.74a27.39 27.39 0 0 0-5.7-3.6l2-1.29h-6.72l2.7.81a13.61 13.61 0 0 1-3.27 2.76h2.64v1.92h3.15v-1.89h3.18v1.89h3.66v2.25h-3.66v1h3.06v2.25h-3.06v1h4.41v2.4h-6.15a13 13 0 0 0 1.14 2 24.86 24.86 0 0 0 2.7-1.77ZM184 66.13h-5.22v1.2H176V57.1h8Zm-7.89-17.28h7.95v2.73h-7.95Zm0 4.11h7.95v2.67h-7.95Zm7.86-9.6h-7.68v-2.7H184Zm-5.19 16.53v3.45h2.37v-3.45Zm13.38-6.39h3.15v-1h-3.15Zm0 3.3h3.15v-1h-3.15ZM213.52 47.29c1.44-2.34 4-4.86 7.44-4.86 4.17 0 7.41 4.08 7.41 10.68 0 8.49-5.19 12.54-13.14 14l-2.23-3.5c6.66-1 11.37-3.21 11.37-10.47 0-4.62-1.56-7.2-4.08-7.2-3.54 0-6.63 5.31-6.78 9.27a15.69 15.69 0 0 0 .15 3.18l-3.69.24a33.93 33.93 0 0 1-.39-5 78.94 78.94 0 0 1 .84-9.6 26.57 26.57 0 0 0 .24-3.15l4.11.18a48.92 48.92 0 0 0-1.25 6.23ZM258.37 55a17.63 17.63 0 0 1-5.76 7 40.9 40.9 0 0 0 9.93 2 17.25 17.25 0 0 0-2.19 3.33 36.19 36.19 0 0 1-11.46-3.15 39.32 39.32 0 0 1-11.67 3.21 12.28 12.28 0 0 0-2.1-3.15 41.89 41.89 0 0 0 10.2-2.19 20.18 20.18 0 0 1-4.74-4.71l1-.42h-1.41v-3.21h15.15l.66-.15Zm-19.2-.21h-3.33v-6.48h4.29a18.7 18.7 0 0 0-1.41-3.09l2.67-.75c-1.5.09-3 .15-4.47.18a11.29 11.29 0 0 0-.81-3 167.94 167.94 0 0 0 22.38-2l2.4 2.88c-3.24.6-7.11 1.08-11.1 1.44a15.72 15.72 0 0 1 1.35 3.87l-2.22.54h5.22a34 34 0 0 0 1.95-4.5l3.81.9c-.69 1.26-1.47 2.49-2.16 3.6H262v6.51h-3.48V51.4h-19.35Zm10.41-10.89c-2.52.24-5.13.42-7.68.54a17 17 0 0 1 1.68 3.42l-1.56.45h5.73a18 18 0 0 0-1.14-3.72ZM244.36 57a17.46 17.46 0 0 0 4.56 3.48A14.85 14.85 0 0 0 253 57ZM271.6 44.23c-.75 3.33-1.8 9.63-1 13.35.39-.93.93-2.37 1.44-3.48l1.86 1.2a74 74 0 0 0-2 7.32 6.76 6.76 0 0 0-.18 1.47c0 .3 0 .81.06 1.23l-3.33.33a32.63 32.63 0 0 1-1.71-9.72 84.24 84.24 0 0 1 1-12 20.34 20.34 0 0 0 .21-2.61l4.44.45a23.91 23.91 0 0 0-.79 2.46Zm15.48-.9v3.84a39.46 39.46 0 0 0 4.5-.54v3.9c-1.2.15-2.76.27-4.44.36v1.26c0 7.08-.54 11.43-6.54 15.24l-3.45-2.73a11.64 11.64 0 0 0 3.48-2.4c2.31-2.4 2.79-5.07 2.79-10.14V51c-1.14 0-2.25.06-3.36.06-1.29 0-3.15-.09-4.62-.15v-3.77a31.55 31.55 0 0 0 4.53.33c1.08 0 2.25 0 3.39-.06 0-1.68-.06-3.24-.12-4a14.29 14.29 0 0 0-.33-2.07h4.35c-.12.66-.15 1.33-.18 1.99ZM307.48 44c-.06.33-.15.72-.24 1.14 1.68-.24 3.36-.57 5-1V48a55.23 55.23 0 0 1-5.85 1c-.27 1.29-.57 2.61-.9 3.84a93.22 93.22 0 0 1-4.77 13.89l-4.17-1.41c1.8-3 4.08-9.3 5.19-13.5.21-.81.45-1.65.63-2.52-.69 0-1.35.06-2 .06-1.44 0-2.58-.06-3.63-.12l-.09-3.75a29.69 29.69 0 0 0 3.78.24q1.31 0 2.7-.09.18-1 .27-1.71a15.38 15.38 0 0 0 .09-3l4.59.36c-.21.71-.48 2.07-.6 2.71Zm3.6 16.29c0 1.32.9 2.31 4.11 2.31a35.21 35.21 0 0 0 6.24-.63l-.15 3.84a48.16 48.16 0 0 1-6.12.42c-5 0-7.77-1.74-7.77-4.77a21 21 0 0 1 .54-4l3.57.36a10.28 10.28 0 0 0-.42 2.49ZM315.64 50a52.76 52.76 0 0 1 5.28.27l-.09 3.6a44 44 0 0 0-5.16-.36 51.54 51.54 0 0 0-5.79.3v-3.55c1.68-.15 3.84-.26 5.76-.26ZM331.33 47.35c0 1.95 0 4.2.18 6.36.42 4.32 1.32 7.29 3.21 7.29 1.41 0 2.61-3.51 3.18-5.91l3 3.66c-2 5.22-3.87 7-6.27 7-3.3 0-6.15-3-7-11-.3-2.76-.33-6.27-.33-8.1a18.24 18.24 0 0 0-.24-3.06l4.62.06a24.27 24.27 0 0 0-.35 3.7Zm20.82 12.57-3.93 1.53c-.48-4.83-2.07-12.12-5.34-15.84l3.81-1.23c2.85 3.45 5.13 10.95 5.46 15.54ZM372.73 53.74a3.84 3.84 0 1 1-3.84-3.84 3.87 3.87 0 0 1 3.84 3.84ZM394.93 53.74a3.84 3.84 0 1 1-3.84-3.84 3.87 3.87 0 0 1 3.84 3.84ZM417.13 53.74a3.84 3.84 0 1 1-3.84-3.84 3.87 3.87 0 0 1 3.84 3.84Z"/><path class="cls-4" d="M675.29 119.29c0 .84-.19 1.29-.72 1.53a7 7 0 0 1-2.71.27 5.34 5.34 0 0 0-.51-1.45h2.11c.27 0 .37-.11.37-.38v-10.68h-10.32v12.53h-1.44v-13.94h13.22Zm-2.61-8h-8V110h8Zm-5.84 6.63V119h-1.38v-6.27h6.42v5.15Zm0-3.91v2.66h3.66V114ZM686.66 117.36a14.65 14.65 0 0 0 5.43 2.18 6.39 6.39 0 0 0-1 1.33 14.21 14.21 0 0 1-5.73-3v3.22h-1.46V118a15.89 15.89 0 0 1-5.68 2.88 6.89 6.89 0 0 0-1-1.26 15.39 15.39 0 0 0 5.4-2.23h-4.92v-1.24h6.21v-1h-4.72V114h4.72v-1h-5.51v-1.19h3.29a8.25 8.25 0 0 0-.68-1.45l.39-.07h-3.64v-1.24h2.37a11.89 11.89 0 0 0-1.17-2.17l1.3-.43a10.92 10.92 0 0 1 1.28 2.29l-.82.31h1.77v-2.74h1.39v2.74h1.58v-2.74h1.41v2.74h1.73l-.61-.2a13.19 13.19 0 0 0 1.12-2.37l1.54.39a25.47 25.47 0 0 1-1.33 2.18h2.3v1.24h-3.08c-.31.55-.63 1.08-.9 1.52H691V113h-5.66v1h4.91v1.12h-4.91v1h6.3v1.24Zm-4.11-7a6.82 6.82 0 0 1 .69 1.43l-.47.09h3.38a14.37 14.37 0 0 0 .71-1.52ZM699.22 116.6c-.37-.47-1.09-1.24-1.74-1.89v6.37H696v-5.91a13.42 13.42 0 0 1-2.24 1.79 7.13 7.13 0 0 0-.73-1.37 13.24 13.24 0 0 0 4.75-4.9h-4.19v-1.36H696v-3h1.48v3h1.36l.83.56a14.57 14.57 0 0 1-2 3.44c.75.61 2.08 1.76 2.44 2.1Zm8.93 2.56v1.47h-9v-1.47h3.87v-6.28h-3.23v-1.44h3.23v-4.93h1.52v4.93h3.24v1.44h-3.24v6.28ZM716.82 117.59c0-.55.07-1.44.07-2.23-1.35.76-2.2 1.48-2.2 2.41 0 1.08 1 1.29 2.63 1.29a27.3 27.3 0 0 0 4.4-.41l-.05 1.61a38.77 38.77 0 0 1-4.4.27c-2.37 0-4.21-.54-4.21-2.51s1.91-3.18 3.73-4.11a1.23 1.23 0 0 0-1.28-.79 4.09 4.09 0 0 0-2.63 1.14 17.26 17.26 0 0 0-1.45 1.7l-1.36-1a16.58 16.58 0 0 0 3.58-4.62h-.46c-.66 0-1.76 0-2.64-.1v-1.49a23.71 23.71 0 0 0 2.72.18h.93a10 10 0 0 0 .37-1.91l1.64.13a16.77 16.77 0 0 1-.44 1.71 35.49 35.49 0 0 0 4.69-.46v1.47a47.72 47.72 0 0 1-5.22.43 11.87 11.87 0 0 1-1.2 2.07 4.61 4.61 0 0 1 2-.47 2.1 2.1 0 0 1 2.12 1.35c1-.46 1.79-.8 2.54-1.14l1.51-.7.62 1.47c-.43.13-1.12.38-1.6.58-.82.3-1.84.73-3 1.25 0 .89.05 2.16.07 2.91ZM730.49 110.21h-5.19V109h5.19Zm-.44 10h-2.94v.7h-1.19v-5.38h4.13Zm-4.09-9h4.11v1.16H726Zm0 2.13h4.11v1.17H726Zm4.08-5.25h-4v-1.17h4Zm-2.93 8.61v2.3h1.74v-2.31Zm12.64.77a14.16 14.16 0 0 1-1.85 1.11 6.23 6.23 0 0 0 2.35 1.42 4.3 4.3 0 0 0-.86 1.07 7.16 7.16 0 0 1-4.2-4.62h-.13a8 8 0 0 1-1.2 1v1.94c.79-.13 1.62-.25 2.45-.4l.1 1.09c-1.73.32-3.54.66-4.93.88l-.37-1.15 1.49-.23v-1.38a13.63 13.63 0 0 1-1.63.73 10.21 10.21 0 0 0-.8-1 11.81 11.81 0 0 0 3.23-1.5h-2.87v-1h2.39v-.76h-1.51v-1h1.51v-.74h-1.86v-1h1.86v-1.1h1.33v1.1h2v-1.1h1.36v1.1h2v1h-2v.74h1.73v1h-1.73v.76H740v1h-3.57a6.89 6.89 0 0 0 .78 1.34 19.44 19.44 0 0 0 1.7-1.1Zm-5.2-8.11a9.38 9.38 0 0 1-3.22 2.19 7.18 7.18 0 0 0-1-.93 8.21 8.21 0 0 0 2.93-1.65Zm5.27-.47h-9v-1.12h3.64v-1.39H736v1.39h3.86Zm-5.57 4.79h2v-.74h-2Zm0 1.73h2v-.76h-2Zm2.69-6.5a16.32 16.32 0 0 1 3.1 1.77l-1 .77a14.11 14.11 0 0 0-3.09-1.85ZM746.26 107.14a27.74 27.74 0 0 0-.69 3.92c.69-1.46 2.23-3.16 4.13-3.16 2.16 0 3.76 2.13 3.76 5.54 0 4.42-2.76 6.45-6.8 7.19l-1-1.44c3.48-.54 6.07-1.83 6.07-5.75 0-2.46-.82-4.08-2.34-4.08-1.92 0-3.68 2.85-3.81 4.93a7.23 7.23 0 0 0 0 1.83l-1.55.11a18.85 18.85 0 0 1-.2-2.56 41.12 41.12 0 0 1 .49-5.11c.06-.53.11-1.07.12-1.49ZM769.59 114.36a9.88 9.88 0 0 1-3.41 3.89 21.23 21.23 0 0 0 5.64 1.32 6.3 6.3 0 0 0-.91 1.41 19.67 19.67 0 0 1-6.25-1.85 22.7 22.7 0 0 1-6.32 1.87 4.54 4.54 0 0 0-.86-1.35 21.65 21.65 0 0 0 5.74-1.4 11 11 0 0 1-2.91-3l.29-.13h-.69v-1.32h8.67Zm-10.37-.1h-1.39V111h2.41a10.32 10.32 0 0 0-.91-1.91l1.3-.37a8.42 8.42 0 0 1 1 2l-.86.28h3.46a9.3 9.3 0 0 0-.72-2.26l1.33-.29a9.48 9.48 0 0 1 .8 2.21l-1.35.34h3.19a19.32 19.32 0 0 0 1.28-2.58l1.55.42c-.42.72-.88 1.52-1.33 2.16h2.51v3.31h-1.45v-2h-10.82Zm11.54-6.74a86.23 86.23 0 0 1-12.45 1.2 4.4 4.4 0 0 0-.32-1.26 81 81 0 0 0 11.73-1.16Zm-8.87 7.65a8.71 8.71 0 0 0 2.81 2.35 8 8 0 0 0 2.65-2.35ZM777 107.52c-.12.34-.24.83-.32 1.15-.45 2-1 5.45-.48 7.77.22-.6.52-1.46.8-2.16l.83.52a37.79 37.79 0 0 0-1.06 3.67 3.17 3.17 0 0 0-.08.72v.59l-1.37.16a17.27 17.27 0 0 1-.87-5.07 43.66 43.66 0 0 1 .56-6.34 10.83 10.83 0 0 0 .1-1.18Zm10.38 4.29c-.68.1-1.53.18-2.46.24v.59c0 3.68-.13 6.15-3.39 8.15l-1.53-1.15a5.43 5.43 0 0 0 1.68-1.12c1.49-1.38 1.65-3 1.65-5.89v-.5h-1.9c-.74 0-1.78 0-2.52-.09v-1.6a17.77 17.77 0 0 0 2.49.16h1.9c0-1-.05-1.9-.08-2.32a8.21 8.21 0 0 0-.16-1h1.84a7.74 7.74 0 0 0-.06 1v2.23a21.28 21.28 0 0 0 2.48-.34ZM791.46 109l6.9-.63c1.7-.13 3.28-.22 4.37-.26v1.61a13.6 13.6 0 0 0-3.07.24 5.2 5.2 0 0 0-3.51 4.75c0 2.88 2.69 3.84 5.31 4l-.57 1.72c-3.11-.16-6.37-1.83-6.37-5.33a6.28 6.28 0 0 1 2.69-5.14c-1.39.16-5.28.54-7.05.91L790 109h1.46ZM683.93 141.6h-1.66v2.8h-1.51v-.69h-3.41v.83c0 .82-.21 1.15-.75 1.36a9.52 9.52 0 0 1-2.72.21 4.5 4.5 0 0 0-.52-1.2h2.1c.25 0 .39-.1.39-.37v-.85h-5v-1.12h5v-1h-6.41v-1.17h6.41v-.91H671v-1.06h4.85v-.94h-4.44v-3h4.44v-.82h-6.07v-1.2h6.07v-1.17h1.5v1.17h6.24v1.2h-6.24v.82H682v3h-4.66v.94h4.92v2h1.66Zm-8.08-5.08v-1h-3v1Zm1.5-1v1h3.15v-1Zm0 4.87h3.41v-.91h-3.41Zm3.41 1.17h-3.41v1h3.41ZM694.66 142.36a14.65 14.65 0 0 0 5.43 2.18 6.39 6.39 0 0 0-1 1.33 14.21 14.21 0 0 1-5.73-3v3.22h-1.46V143a15.89 15.89 0 0 1-5.68 2.88 6.89 6.89 0 0 0-1-1.26 15.39 15.39 0 0 0 5.4-2.23h-4.92v-1.24h6.21v-1h-4.72V139h4.72v-1h-5.51v-1.19h3.29a8.25 8.25 0 0 0-.68-1.45l.39-.07h-3.64v-1.24h2.37a11.89 11.89 0 0 0-1.17-2.17l1.3-.43a10.92 10.92 0 0 1 1.28 2.29l-.82.31h1.77v-2.74h1.39v2.74h1.58v-2.74h1.41v2.74h1.73l-.61-.2a13.19 13.19 0 0 0 1.12-2.37l1.54.39a25.47 25.47 0 0 1-1.33 2.18h2.3v1.24h-3.08c-.31.55-.63 1.08-.9 1.52H699V138h-5.66v1h4.91v1.12h-4.91v1h6.3v1.24Zm-4.11-7a6.82 6.82 0 0 1 .69 1.43l-.47.09h3.38a14.37 14.37 0 0 0 .71-1.52ZM706.44 139.63l-1.56.48v4.22c0 .79-.16 1.2-.6 1.44a5.17 5.17 0 0 1-2.21.29 6.15 6.15 0 0 0-.43-1.44h1.53c.21 0 .29-.08.29-.31v-3.79l-2 .58-.32-1.46c.64-.14 1.44-.35 2.32-.59v-3.2h-2v-1.38h2v-3.07h1.42v3.09h1.4v1.38h-1.4v2.81l1.38-.38Zm1.84-1.95c0 2.44-.29 6-2 8.37a7.61 7.61 0 0 0-1.2-.84c1.58-2.19 1.74-5.31 1.74-7.55V134h3.78v-2.61h1.47V134h3.68v1.35h-7.5Zm6.5 8.35a14.89 14.89 0 0 0-.4-1.55c-2.28.25-4.63.51-6.34.67l-.26-1.39 1.3-.1a59 59 0 0 0 1.53-7.35l1.57.24c-.44 2.29-1.08 5-1.68 7 1.09-.08 2.28-.19 3.45-.3a27 27 0 0 0-1.41-3.12l1.26-.43a23.5 23.5 0 0 1 2.35 5.85ZM725.85 137.36c1.09 3.32 3.1 6 6.13 7.29a5.86 5.86 0 0 0-1.11 1.4c-3-1.4-4.93-4-6.17-7.38a11.13 11.13 0 0 1-6.18 7.38 5.14 5.14 0 0 0-1.14-1.25 10 10 0 0 0 6-7.44h-5.68v-1.54h5.95a39.37 39.37 0 0 0 .2-4.42h1.61a39.41 39.41 0 0 1-.22 4.42h6.45v1.54ZM740.82 142.59c0-.55.07-1.44.07-2.23-1.35.76-2.2 1.48-2.2 2.41s1 1.29 2.63 1.29a27.3 27.3 0 0 0 4.4-.41l-.05 1.61a38.77 38.77 0 0 1-4.4.27c-2.37 0-4.21-.54-4.21-2.51s1.91-3.18 3.73-4.11a1.23 1.23 0 0 0-1.28-.79 4.09 4.09 0 0 0-2.63 1.14 17.26 17.26 0 0 0-1.45 1.7l-1.36-1a16.58 16.58 0 0 0 3.58-4.62h-.46c-.66 0-1.76 0-2.64-.1v-1.49a23.71 23.71 0 0 0 2.72.18h.93a10 10 0 0 0 .37-1.91l1.64.13a16.77 16.77 0 0 1-.44 1.71 35.49 35.49 0 0 0 4.69-.46v1.47a47.72 47.72 0 0 1-5.22.43 11.87 11.87 0 0 1-1.2 2.07 4.61 4.61 0 0 1 2-.47 2.1 2.1 0 0 1 2.12 1.35c1-.46 1.79-.8 2.54-1.14l1.51-.7.62 1.47c-.43.13-1.12.38-1.6.58-.82.3-1.84.73-3 1.25 0 .89.05 2.16.07 2.91ZM754.34 132.3c-.09.57-.14 1.25-.17 1.81-.07 1.76-.2 5.41-.2 7.62 0 1.66 1.06 2.24 2.42 2.24a6.45 6.45 0 0 0 5.61-3.27l1.14 1.39a8.07 8.07 0 0 1-6.74 3.56c-2.42 0-4-1-4-3.67 0-2.26.17-6.34.17-7.87a8.57 8.57 0 0 0-.17-1.83ZM774.34 135.51a30.12 30.12 0 0 1-3.18.53c-.15.69-.32 1.4-.5 2.07a46.58 46.58 0 0 1-2.5 7.3l-1.76-.6a34.23 34.23 0 0 0 2.69-7.1c.15-.48.27-1 .39-1.52h-1.27c-.73 0-1.31 0-1.89-.07v-1.56a15.7 15.7 0 0 0 1.94.12c.49 0 1 0 1.58-.06.08-.46.16-.88.2-1.17a7.21 7.21 0 0 0 0-1.44l1.94.15c-.11.4-.24 1-.3 1.36l-.2.92a26.09 26.09 0 0 0 2.85-.54Zm-.49 5.4a5.84 5.84 0 0 0-.23 1.37c0 .73.39 1.37 2.4 1.37a17.93 17.93 0 0 0 3.17-.32v1.61a21.5 21.5 0 0 1-3.14.23c-2.58 0-3.91-.85-3.91-2.42a10.4 10.4 0 0 1 .24-2Zm-.63-3.91a29.54 29.54 0 0 1 3-.16 25.3 25.3 0 0 1 2.78.16v1.52a22 22 0 0 0-2.69-.2 24.45 24.45 0 0 0-3 .17ZM784.37 135.27a34.74 34.74 0 0 0 .12 3.57c.24 2.5.88 4.17 1.93 4.17.8 0 1.49-1.73 1.84-3.19l1.28 1.49c-1 2.72-2 3.66-3.15 3.66-1.6 0-3.07-1.53-3.51-5.71a41.85 41.85 0 0 1-.17-4.24 8.51 8.51 0 0 0-.11-1.49h1.93a13 13 0 0 0-.16 1.74Zm11.11 6.6-1.65.64c-.25-2.72-1.17-6.13-2.77-8l1.59-.53a16.75 16.75 0 0 1 2.83 7.89ZM425.31 278.82h-1.67v2.81h-1.5v-.69h-3.41v.83c0 .82-.21 1.15-.75 1.36a9.52 9.52 0 0 1-2.72.21 4.5 4.5 0 0 0-.52-1.2h2.1c.26 0 .38-.09.38-.36v-.85h-5v-1.12h5v-1h-6.4v-1.16h6.4v-.92h-4.85v-1.05h4.85v-.95h-4.43v-2.93h4.43v-.8h-6.06v-1.2h6.06v-1.17h1.51v1.17H425v1.2h-6.24v.82h4.66v2.94h-4.66v.95h4.91v2h1.67Zm-8.09-5.07v-1h-3v1Zm1.51-1v1h3.15v-1Zm0 4.87h3.41v-.92h-3.41Zm3.41 1.16h-3.41v1h3.41ZM436 279.59a14.82 14.82 0 0 0 5.43 2.18 6.39 6.39 0 0 0-1 1.33 14.21 14.21 0 0 1-5.73-3v3.22h-1.46v-3.12a15.89 15.89 0 0 1-5.68 2.88 6.89 6.89 0 0 0-1-1.26 15.53 15.53 0 0 0 5.39-2.23h-4.94v-1.25h6.21v-1h-4.72v-1.12h4.72v-1h-5.51v-1.12h3.28a7.27 7.27 0 0 0-.67-1.45l.39-.07h-3.64v-1.25h2.37a12.16 12.16 0 0 0-1.17-2.16l1.3-.43a10.67 10.67 0 0 1 1.28 2.29l-.82.3h1.76v-2.73h1.4v2.73h1.58v-2.73h1.41v2.73H438l-.61-.19a14.28 14.28 0 0 0 1.12-2.37l1.54.39c-.43.78-.92 1.58-1.33 2.17H441v1.25h-3.09c-.3.55-.62 1.07-.89 1.52h3.39v1.19h-5.66v1h4.91v1.12h-4.91v1h6.3v1.25Zm-4.11-7a7.09 7.09 0 0 1 .69 1.43l-.47.09h3.38a13.38 13.38 0 0 0 .7-1.52ZM450.2 279.82c.05-.55.07-1.44.07-2.23-1.35.75-2.2 1.47-2.2 2.4 0 1.09 1 1.3 2.63 1.3a26.25 26.25 0 0 0 4.4-.42l-.05 1.62a41.4 41.4 0 0 1-4.4.27c-2.37 0-4.21-.54-4.21-2.51s1.9-3.19 3.73-4.11a1.23 1.23 0 0 0-1.28-.79 4 4 0 0 0-2.63 1.14 16.85 16.85 0 0 0-1.45 1.69l-1.36-1a16.46 16.46 0 0 0 3.58-4.63h-.46c-.66 0-1.76 0-2.64-.09V271a23.71 23.71 0 0 0 2.72.18h.93a10 10 0 0 0 .36-1.91l1.65.13a16 16 0 0 1-.45 1.71 36.89 36.89 0 0 0 4.69-.46v1.47a47.33 47.33 0 0 1-5.21.43 11.87 11.87 0 0 1-1.2 2.07 4.61 4.61 0 0 1 2-.47 2.1 2.1 0 0 1 2.12 1.35c1-.47 1.79-.8 2.54-1.14l1.51-.7.62 1.47c-.43.13-1.12.38-1.6.57-.82.31-1.84.74-2.95 1.25 0 .9.05 2.16.07 2.92ZM470.76 270.39c-2 3.74-6.64 5.89-11 6.82a4.78 4.78 0 0 0-.69-1.28 20.48 20.48 0 0 0 5.71-1.88 15.77 15.77 0 0 0-2.51-1.63 21.23 21.23 0 0 1-2.08 1 4.73 4.73 0 0 0-1-1.1 13.1 13.1 0 0 0 5.93-3.72l1.65.37c-.28.32-.59.64-.91.95h3.68l.24-.07ZM473 276c-2 4.65-6.75 6.59-12.05 7.34a4.23 4.23 0 0 0-.64-1.36 20.16 20.16 0 0 0 6.66-1.77 15.93 15.93 0 0 0-2.75-1.94 25.43 25.43 0 0 1-2.5 1 4.13 4.13 0 0 0-.9-1.15 14.42 14.42 0 0 0 6.9-4.13l1.65.38c-.34.38-.69.75-1.09 1.12h3.48l.25-.06Zm-8.64-4.85c-.26.19-.54.38-.83.56a15.61 15.61 0 0 1 2.56 1.61 10.4 10.4 0 0 0 2.5-2.17Zm2.34 5.66c-.37.26-.74.5-1.14.74a15.18 15.18 0 0 1 2.75 1.89 8.47 8.47 0 0 0 2.6-2.63ZM488 281.53c0 .88-.23 1.31-.88 1.55a11.87 11.87 0 0 1-3.32.24 5.71 5.71 0 0 0-.56-1.44c1.2.07 2.47.05 2.84 0s.44-.09.44-.4v-1.66h-8.49a6.8 6.8 0 0 1-2.42 3.54 6.25 6.25 0 0 0-1-1.08c2.27-1.66 2.5-4.06 2.5-6.05v-2.62a13.3 13.3 0 0 1-1.09.86 4.49 4.49 0 0 0-1.08-1.05 13 13 0 0 0 4.33-4.9l1.6.3c-.12.23-.24.43-.37.66h3.5l.26-.07 1 .68a15.74 15.74 0 0 1-1.37 2.11H488Zm-9.49-4.88a14.48 14.48 0 0 1-.18 1.89h3.36v-1.89Zm1.13-5.89a15.08 15.08 0 0 1-1.15 1.47h3.73a16.13 16.13 0 0 0 1-1.47Zm-1.13 4.61h3.18v-1.81h-3.18Zm8-1.81h-3.4v1.81h3.4Zm0 5v-1.89h-3.4v1.89ZM496.34 269.33a22.81 22.81 0 0 1-1.72 3.28v10.66h-1.49v-8.56a19.36 19.36 0 0 1-1.86 2 9.51 9.51 0 0 0-.9-1.56 17.34 17.34 0 0 0 4.52-6.32Zm6.66 12.36c.84 0 1-.56 1.08-2.85a4.48 4.48 0 0 0 1.39.64c-.19 2.66-.62 3.6-2.37 3.6h-3c-1.81 0-2.34-.54-2.34-2.48V269h1.49v5.73a25.78 25.78 0 0 0 4.45-3.09l1.07 1.29a39.34 39.34 0 0 1-5.52 3.32v4.37c0 .91.16 1.07 1 1.07ZM511.72 269.52c-.1.58-.14 1.25-.18 1.81-.06 1.76-.19 5.41-.19 7.62 0 1.67 1.06 2.24 2.42 2.24a6.48 6.48 0 0 0 5.57-3.26l1.14 1.39a8.09 8.09 0 0 1-6.74 3.55c-2.42 0-4-1-4-3.66 0-2.26.16-6.34.16-7.88a8.56 8.56 0 0 0-.16-1.82ZM524.84 271.17c1.17-.09 4-.36 6.9-.62 1.69-.13 3.28-.23 4.37-.26v1.6a14.34 14.34 0 0 0-3.08.24 5.23 5.23 0 0 0-3.5 4.76c0 2.88 2.69 3.84 5.31 3.95l-.57 1.71c-3.11-.16-6.37-1.82-6.37-5.33a6.28 6.28 0 0 1 2.69-5.13c-1.4.16-5.29.54-7.05.91l-.17-1.75c.63-.01 1.16-.04 1.47-.08ZM432.33 299.07a18.3 18.3 0 0 1-2.78 5.41c.54 1.36 1.16 2.19 1.84 2.19.41 0 .61-.81.7-2.88a3.85 3.85 0 0 0 1.28.83c-.24 2.82-.78 3.57-2.09 3.57s-2.1-.89-2.82-2.4a14.47 14.47 0 0 1-3 2.45 7.23 7.23 0 0 0-1.09-1.21 12.55 12.55 0 0 0 3.49-2.81 30.18 30.18 0 0 1-1.13-6.59h-5.13v1.94h4v.57c-.08 3.48-.16 4.85-.49 5.3a1.43 1.43 0 0 1-1 .51 10.08 10.08 0 0 1-1.89 0 3.47 3.47 0 0 0-.4-1.39c.66.07 1.28.08 1.54.08a.6.6 0 0 0 .5-.19c.17-.22.27-1.14.32-3.55h-2.57c0 2.27-.28 5.47-1.69 7.54a6.12 6.12 0 0 0-1.25-1c1.28-1.92 1.39-4.67 1.39-6.74v-4.53h6.58c-.05-.83-.08-1.69-.08-2.54h1.57c0 .86 0 1.71.05 2.54h3.09a18.69 18.69 0 0 0-2.52-1.68l.9-.91a16.79 16.79 0 0 1 2.77 1.78l-.77.81h1.63v1.46h-5a31.23 31.23 0 0 0 .78 5.06 16.56 16.56 0 0 0 1.83-4ZM448.56 303.3a24.65 24.65 0 0 1-3.32 2 10.83 10.83 0 0 0 4.21 1.7 5.17 5.17 0 0 0-.94 1.33 9.71 9.71 0 0 1-7.25-5.86h-2.08v3.83l3.85-.6.08 1.32c-2.51.43-5.2.86-7.1 1.16l-.36-1.36 2-.28v-4.07h-2.74v-1.33h2.75v-6.94h9.89v1.25h-8.38v1.11h7.92v1.18h-7.92v1.11h7.92V300h-7.92v1.12h10v1.33h-1.8Zm-5.78-.82a8.45 8.45 0 0 0 1.49 2 22.41 22.41 0 0 0 3.05-2ZM463.08 296.27a5.61 5.61 0 0 0-.46.83 22 22 0 0 1-2.63 4.56 42.94 42.94 0 0 1 4.58 4.69l-1.42 1.25a34.15 34.15 0 0 0-4.23-4.67 20.46 20.46 0 0 1-6.16 4.59l-1.3-1.34a17.94 17.94 0 0 0 6.58-4.69 13.3 13.3 0 0 0 2.55-4.23h-5.88c-.62 0-1.49.08-1.74.1v-1.81a16.64 16.64 0 0 0 1.74.11h5.94a4.7 4.7 0 0 0 1.39-.16ZM470.6 299.73a44 44 0 0 0 5.84-1.88 9 9 0 0 0 1.52-.76 1.89 1.89 0 0 1-.53-1.3 1.85 1.85 0 1 1 1.85 1.84 1.8 1.8 0 0 1-1.25-.5l.67 1.56c-.53.2-1.17.49-1.68.67a61.43 61.43 0 0 1-6.42 2v3.27c0 .77.34 1 1.09 1.12a13.82 13.82 0 0 0 2 .11 26.7 26.7 0 0 0 5.51-.53v1.84a46.27 46.27 0 0 1-5.61.32 17.64 17.64 0 0 1-2.62-.16c-1.3-.24-2-.88-2-2.22v-8.78a9.32 9.32 0 0 0-.12-1.44h1.88a9.77 9.77 0 0 0-.1 1.44Zm9.68-3.94a1 1 0 1 0-1 1 1 1 0 0 0 1-1ZM483.61 299.9c.51.05 1.5.1 2.37.1h8.69a16.75 16.75 0 0 0 1.79-.1v2c-.35 0-1.07-.06-1.78-.06H486c-.9 0-1.85 0-2.37.06ZM504.47 299a49.85 49.85 0 0 1 6.77 2.56l-.7 1.73a43.73 43.73 0 0 0-6.07-2.48v4.94c0 .5.05 1.46.11 2h-2a17 17 0 0 0 .13-2v-9.25a11 11 0 0 0-.15-1.79h2c-.05.53-.13 1.22-.13 1.79Zm4.58-.77a14.63 14.63 0 0 0-1.41-2.45l1.07-.46a18.36 18.36 0 0 1 1.46 2.41Zm2.08-.85a15.66 15.66 0 0 0-1.47-2.4l1.07-.5a21.78 21.78 0 0 1 1.49 2.37ZM522.2 304.82c0-.55.07-1.44.07-2.23-1.35.75-2.2 1.47-2.2 2.4 0 1.09 1 1.3 2.63 1.3a26.25 26.25 0 0 0 4.4-.42l-.05 1.62a41.4 41.4 0 0 1-4.4.27c-2.37 0-4.21-.54-4.21-2.51s1.9-3.19 3.73-4.11a1.23 1.23 0 0 0-1.28-.79 4 4 0 0 0-2.63 1.14 16.85 16.85 0 0 0-1.45 1.69l-1.36-1a16.46 16.46 0 0 0 3.58-4.63h-.46c-.66 0-1.76 0-2.64-.09V296a23.71 23.71 0 0 0 2.72.18h.93a10 10 0 0 0 .36-1.91l1.65.13a16 16 0 0 1-.45 1.71 36.89 36.89 0 0 0 4.69-.46v1.47a47.33 47.33 0 0 1-5.21.43 11.87 11.87 0 0 1-1.2 2.07 4.61 4.61 0 0 1 2-.47 2.1 2.1 0 0 1 2.12 1.35c1-.47 1.79-.8 2.54-1.14l1.51-.7.62 1.47c-.43.13-1.12.38-1.6.57-.82.31-1.84.74-3 1.25 0 .9.05 2.16.07 2.92ZM442 321.54v.72c-.13 6.92-.24 9.29-.74 10a1.45 1.45 0 0 1-1.13.7 12.44 12.44 0 0 1-1.89 0 3.46 3.46 0 0 0-.43-1.49c.7 0 1.34.05 1.61.05a.52.52 0 0 0 .55-.27c.33-.43.46-2.53.59-8.29h-2.08c-.14 4.27-.69 8-2.8 10.31a4.66 4.66 0 0 0-1.11-1.06c1.89-2.08 2.34-5.38 2.45-9.25h-2v-1.46H437v-2.7h1.47v2.7Zm6.67-1v12.39h-1.5v-1h-2.63V333h-1.44v-12.48Zm-1.5 9.94V322h-2.63v8.5ZM454.38 329.88c.7 1.1 2 1.62 3.77 1.68s5.33 0 7.33-.11A7.13 7.13 0 0 0 465 333c-1.81.08-5 .11-6.85 0a5.49 5.49 0 0 1-4.42-1.84c-.75.66-1.52 1.3-2.35 2l-.77-1.54a23.91 23.91 0 0 0 2.32-1.65v-3.77h-2.05v-1.38h3.51Zm-.74-7.47a11.87 11.87 0 0 0-2.67-2.53l1.1-.9a12.79 12.79 0 0 1 2.74 2.45Zm5.65 5.2a10.65 10.65 0 0 1-3.51 3.05 5.14 5.14 0 0 0-1-1.13 9.45 9.45 0 0 0 3.75-2.93h-2.79v-4.07h3.51v-1.13h-4.1v-1.25h4.1v-1.52h1.46v1.52h4.35v1.25h-4.35v1.13h3.71v4.07h-3.14a11.31 11.31 0 0 0 3.92 2.85 6.2 6.2 0 0 0-1 1.18 12.9 12.9 0 0 1-3.49-2.94v3.36h-1.46Zm-2.15-2.18h2.15v-1.74h-2.15Zm3.61-1.74v1.74H463v-1.74ZM471.72 319.52c-.1.58-.14 1.25-.18 1.81-.06 1.76-.19 5.41-.19 7.62 0 1.67 1.06 2.24 2.42 2.24a6.48 6.48 0 0 0 5.57-3.26l1.14 1.39a8.09 8.09 0 0 1-6.74 3.55c-2.42 0-4-1-4-3.66 0-2.26.16-6.34.16-7.88a8.56 8.56 0 0 0-.16-1.82ZM491.72 322.74a30.55 30.55 0 0 1-3.18.53c-.15.69-.32 1.39-.5 2.06a46.9 46.9 0 0 1-2.5 7.3l-1.76-.59a34.23 34.23 0 0 0 2.69-7.1c.15-.49.27-1 .39-1.53h-1.27c-.73 0-1.31 0-1.89-.07v-1.57a14.11 14.11 0 0 0 1.94.13c.49 0 1 0 1.58-.06.08-.47.16-.88.19-1.17a7.3 7.3 0 0 0 .05-1.44l1.94.14c-.11.4-.24 1-.31 1.36l-.19.93a28.71 28.71 0 0 0 2.85-.54Zm-.49 5.4a5.84 5.84 0 0 0-.23 1.37c0 .72.39 1.36 2.4 1.36a17.93 17.93 0 0 0 3.17-.32l-.05 1.62a21.48 21.48 0 0 1-3.13.22c-2.58 0-3.91-.84-3.91-2.41a10.4 10.4 0 0 1 .24-2Zm-.63-3.91a26.84 26.84 0 0 1 3-.16c.92 0 1.88.05 2.77.14l-.05 1.52a24.14 24.14 0 0 0-2.69-.19 26.45 26.45 0 0 0-3 .16ZM501.75 322.5c0 1 0 2.34.11 3.57.24 2.5.88 4.16 1.94 4.16.8 0 1.49-1.73 1.84-3.18l1.28 1.49c-1 2.72-2 3.66-3.15 3.66-1.6 0-3.07-1.54-3.51-5.71a42 42 0 0 1-.17-4.24 7.67 7.67 0 0 0-.12-1.49h1.94a12.8 12.8 0 0 0-.16 1.74Zm11.11 6.6-1.65.64c-.26-2.72-1.17-6.13-2.77-8l1.59-.53a16.86 16.86 0 0 1 2.83 7.89ZM498.78 94.32c-.26.54-.55 1.08-.84 1.6h7.54v8c0 .8-.16 1.25-.73 1.47a8.29 8.29 0 0 1-2.79.24 5.73 5.73 0 0 0-.46-1.44h2.17c.27 0 .36-.08.36-.32v-1.37h-6.26v3.12h-1.48v-7.33a12.24 12.24 0 0 1-2.4 2.2 8.1 8.1 0 0 0-1-1.15 13.27 13.27 0 0 0 4.21-5h-3.78v-1.4h4.39a18.06 18.06 0 0 0 .67-2l1.52.35c-.18.55-.35 1.11-.56 1.65h7.95v1.4Zm5.22 2.89h-6.26v1.4H504Zm0 4v-1.4h-6.26v1.4ZM510.13 93.79H509v-1.27h3.12v-1.58h1.41v1.58h3.06v1.27h-5.06v2.41c0 .49.1.63.51.63h2.45a9.61 9.61 0 0 0 1.25-.08c0 .27.06.69.11 1 1.47-1.3 1.63-3.46 1.7-6.31h5.63V92c-.16 4.13-.3 5.6-.69 6.11a1.39 1.39 0 0 1-1 .5 9.6 9.6 0 0 1-1.64 0 2.86 2.86 0 0 0-.35-1.13h1.33c.22 0 .35 0 .48-.19a2.1 2.1 0 0 0 .24-1h-3.3a5 5 0 0 1-1.84 2.6 3.62 3.62 0 0 0-.78-1H512c-1.5 0-1.89-.51-1.89-1.94Zm13.23 10.26v1.25h-14.09v-1.25h6.27v-1.14H511v-1.22h4.56v-1.12h-5.23v-1.23h12.13v1.23H517v1.12h4.64v1.22H517v1.14Zm-1.72-8.66c0-.27 0-.59.07-1h-3c0 .32-.09.64-.16 1Zm-2.8-2.85c0 .32 0 .62-.05.93h3v-.93ZM533.46 94.88a26.78 26.78 0 0 1-2.81.56 28.32 28.32 0 0 1-3.44 6.74l-1.54-.79a22.92 22.92 0 0 0 3.33-5.78h-1.13c-.61 0-1.27 0-1.91-.07l-.11-1.47c.62.06 1.38.09 2 .09s1.07 0 1.63-.06a12.53 12.53 0 0 0 .46-2.69l1.75.16c-.13.54-.34 1.43-.58 2.32a17.74 17.74 0 0 0 2.31-.54Zm2 1.64v1.86c0 .64.07 1.43.11 2.32a10.67 10.67 0 0 1 3.28 2l-.84 1.36a12.91 12.91 0 0 0-2.37-1.76v.44c0 1.34-.82 2.43-2.9 2.43-1.84 0-3.33-.79-3.33-2.43 0-1.49 1.35-2.55 3.31-2.55a7.16 7.16 0 0 1 1.33.11c-.06-1.25-.14-2.74-.17-3.78Zm-1.46 5.16a5.26 5.26 0 0 0-1.46-.19c-1.05 0-1.74.46-1.74 1.1s.54 1.14 1.63 1.14 1.59-.67 1.59-1.49c.04-.16.04-.34-.02-.56Zm4.34-4.55a20.46 20.46 0 0 0-3.7-2.21l.8-1.23a26.25 26.25 0 0 1 3.8 2.13ZM548.92 90.86a18.6 18.6 0 0 0 6.93 6 6.66 6.66 0 0 0-1 1.33 22.3 22.3 0 0 1-6.63-5.86 20.53 20.53 0 0 1-6.46 5.92 6.94 6.94 0 0 0-.95-1.2 18.24 18.24 0 0 0 6.58-6.21Zm.27 13h5.89v1.35h-13.51v-1.35h1.89v-5.78h1.46v5.74h2.7v-8.56h1.57v3.59h4.44v1.34h-4.44ZM566.31 101.9a14.65 14.65 0 0 0 5.43 2.18 6.39 6.39 0 0 0-1 1.33 14.21 14.21 0 0 1-5.73-3v3.22h-1.46v-3.11a15.89 15.89 0 0 1-5.68 2.88 6.89 6.89 0 0 0-1-1.26 15.39 15.39 0 0 0 5.4-2.23h-4.95v-1.25h6.21v-1h-4.72v-1.1h4.72v-1h-5.51v-1.15h3.29a7.93 7.93 0 0 0-.68-1.45l.39-.07h-3.64v-1.25h2.37a12.16 12.16 0 0 0-1.17-2.16l1.3-.43a10.92 10.92 0 0 1 1.28 2.29l-.82.3h1.77v-2.73h1.39v2.73h1.58v-2.73h1.41v2.73h1.73l-.61-.19a13.52 13.52 0 0 0 1.12-2.37l1.54.39a23.75 23.75 0 0 1-1.27 2.17h2.31v1.25h-3.09c-.31.55-.63 1.07-.9 1.52h3.39v1.19H565v1h4.91v1.12H565v1h6.3v1.25Zm-4.11-7a6.59 6.59 0 0 1 .69 1.43l-.47.09h3.38a15.37 15.37 0 0 0 .71-1.52ZM576.81 92.25a12.5 12.5 0 0 0-.34 1.22 37.64 37.64 0 0 0-.78 6 11.67 11.67 0 0 0 .11 1.66c.24-.64.56-1.41.8-2l.83.64a33.11 33.11 0 0 0-1.14 3.7 3.69 3.69 0 0 0-.08.72v.59l-1.44.09a19.71 19.71 0 0 1-.61-5.12 44.32 44.32 0 0 1 .69-6.32c.06-.4.12-.9.14-1.31Zm3.65 7.75a6 6 0 0 0-.2 1.41c0 .72.53 1.28 2.45 1.28a17.74 17.74 0 0 0 4-.42v1.7a21.66 21.66 0 0 1-4 .32c-2.69 0-3.94-.93-3.94-2.47a9.35 9.35 0 0 1 .28-1.95Zm5.74-6.61V95a39.79 39.79 0 0 1-6.64 0v-1.6a29.46 29.46 0 0 0 6.64-.01ZM506.6 124v6.61h-1.53v-.94h-9.46v1h-1.51V124h1.51v4.21h3.85V123h-4.75v-5.58h1.49v4.14h3.26V116H501v5.54h3.43v-4.16H506V123h-5v5.17h4.09V124ZM513.7 120.34c-1.39.46-2.88.9-4.06 1.27l-.59-1.32c1.16-.24 2.86-.69 4.51-1.12Zm1.48 8.34a21.38 21.38 0 0 1-4.9 2 13 13 0 0 0-1.12-1.1 17.72 17.72 0 0 0 4.66-1.5Zm-2-10.13a22.35 22.35 0 0 0-3.34-1.32l.65-1a20 20 0 0 1 3.35 1.18Zm3-.43a7.76 7.76 0 0 1-1.36 1.32 4.66 4.66 0 0 0-1.12-.72 6.69 6.69 0 0 0 2.37-2.8l1.34.21a7.31 7.31 0 0 1-.49.91H522l.23-.05 1 .26a10.42 10.42 0 0 1-1.55 2.32l-1.17-.37a7.57 7.57 0 0 0 .8-1.08h-2.21c.35 1.15 1.25 2.17 4.5 2.6a4.3 4.3 0 0 0-.76 1.22c-.44-.08-.86-.17-1.23-.27V128h-10.4v-6.43h3.21a4 4 0 0 0-.65-1c2.57-.41 3.49-1.18 3.85-2.49Zm4 4.41h-7.5v.9h7.5Zm0 1.8h-7.5v.91h7.5Zm0 1.82h-7.5v.93h7.5Zm1.24-4.56a4.74 4.74 0 0 1-2.93-2.1c-.61 1-1.67 1.65-3.57 2.1Zm-2.71 6.5a50.3 50.3 0 0 1 4.79 1.85l-1.72.71a32.58 32.58 0 0 0-4.29-1.81ZM532.47 127.13c0-.55.07-1.44.07-2.23-1.35.75-2.2 1.47-2.2 2.4 0 1.09 1 1.3 2.63 1.3a26.25 26.25 0 0 0 4.4-.42v1.62a41.23 41.23 0 0 1-4.4.27c-2.37 0-4.21-.54-4.21-2.51s1.91-3.19 3.73-4.11a1.23 1.23 0 0 0-1.28-.79 4 4 0 0 0-2.63 1.14 18.26 18.26 0 0 0-1.45 1.69l-1.36-1a16.46 16.46 0 0 0 3.58-4.63h-.46c-.66 0-1.76 0-2.64-.09v-1.49a23.71 23.71 0 0 0 2.72.18h.93a10 10 0 0 0 .37-1.91l1.64.13c-.09.41-.22 1-.44 1.71a37.26 37.26 0 0 0 4.69-.46v1.47a47.72 47.72 0 0 1-5.22.43 11.87 11.87 0 0 1-1.2 2.07 4.61 4.61 0 0 1 2-.47 2.1 2.1 0 0 1 2.12 1.35c1-.47 1.79-.8 2.54-1.14.53-.24 1-.45 1.51-.7l.62 1.47c-.43.13-1.12.38-1.6.58-.82.3-1.84.73-2.94 1.24 0 .9 0 2.16.06 2.92ZM546 116.84c-.09.57-.14 1.24-.17 1.8-.07 1.76-.2 5.41-.2 7.62 0 1.67 1.06 2.24 2.42 2.24a6.44 6.44 0 0 0 5.57-3.26l1.14 1.39a8.07 8.07 0 0 1-6.74 3.55c-2.42 0-4-1-4-3.66 0-2.26.16-6.34.16-7.88a8.56 8.56 0 0 0-.16-1.82ZM566 120.05a30.12 30.12 0 0 1-3.18.53c-.15.69-.32 1.39-.5 2.07a46.1 46.1 0 0 1-2.5 7.29l-1.76-.59a34.23 34.23 0 0 0 2.69-7.1c.15-.48.28-1 .39-1.53h-1.27c-.73 0-1.31 0-1.89-.07v-1.57a14.11 14.11 0 0 0 1.94.13c.49 0 1 0 1.58-.06.08-.47.16-.88.2-1.17a7.21 7.21 0 0 0 0-1.44l1.94.14c-.11.4-.24 1-.3 1.36l-.2.93a28.71 28.71 0 0 0 2.85-.54Zm-.49 5.4a5.84 5.84 0 0 0-.23 1.37c0 .72.39 1.36 2.4 1.36a17 17 0 0 0 3.17-.32l-.05 1.62a21.48 21.48 0 0 1-3.13.22c-2.58 0-3.91-.84-3.91-2.41a10.4 10.4 0 0 1 .24-2Zm-.63-3.91a26.84 26.84 0 0 1 3-.16c.92 0 1.88.05 2.77.14l-.05 1.53a21.85 21.85 0 0 0-2.68-.2 26.63 26.63 0 0 0-3 .16ZM576 119.81c0 1 0 2.34.11 3.57.24 2.5.89 4.16 1.94 4.16.8 0 1.49-1.73 1.84-3.18l1.28 1.49c-1 2.72-2 3.66-3.15 3.66-1.6 0-3.07-1.53-3.51-5.71a42 42 0 0 1-.17-4.24 8.51 8.51 0 0 0-.11-1.49h1.93a12.8 12.8 0 0 0-.16 1.74Zm11.11 6.6-1.65.64c-.25-2.72-1.17-6.13-2.77-8l1.59-.53a16.86 16.86 0 0 1 2.85 7.89ZM87.63 156.08a11 11 0 0 0-2.63-1.67l.83-1.08a10.4 10.4 0 0 1 2.69 1.55Zm-2.3 6.58a48.17 48.17 0 0 0 2.42-5.16l1.18.84c-.66 1.69-1.5 3.61-2.26 5.13Zm3-10.71a10.88 10.88 0 0 0-2.61-1.76l.84-1.07a10.21 10.21 0 0 1 2.67 1.64Zm3.3.27a13 13 0 0 1-1.6 2.42 9.38 9.38 0 0 0-1.26-.87 11.45 11.45 0 0 0 2.59-4.77l1.48.32c-.16.54-.36 1.07-.56 1.6h7.28v1.34Zm6.84 5.78c0 .83-.1 1.52-.16 2.11h1.42v1.28h-1.58a3.48 3.48 0 0 1-.51 1.56 1.44 1.44 0 0 1-1.17.62 11.22 11.22 0 0 1-2 0 2.82 2.82 0 0 0-.37-1.23c.77.06 1.45.08 1.76.08a.63.63 0 0 0 .58-.24 2.14 2.14 0 0 0 .31-.79H91.3l-.13.74-1.42-.13c.2-1.07.45-2.49.67-4H89v-1.36h1.61c.16-1.12.29-2.22.39-3.2h7.71v.66c0 .94-.08 1.79-.11 2.54h1.3V158Zm-6.67 0c-.1.74-.21 1.44-.31 2.11h2c.08-.62.16-1.36.26-2.11Zm.41-3.26c-.08.62-.16 1.26-.24 1.9h1.87c.07-.66.13-1.3.18-1.9Zm4.71 5.37c.06-.56.13-1.26.17-2.11H95c-.08.77-.16 1.49-.24 2.11Zm.25-3.47c0-.58.07-1.22.1-1.9h-2c0 .6-.11 1.26-.18 1.9ZM112.55 156.37a14 14 0 0 0 3.52 2.35A5.52 5.52 0 0 0 115 160a13.63 13.63 0 0 1-2.46-1.66v5.28H111v-6.74a17.79 17.79 0 0 1-2.19-2.88c-1.18 4.78-3.51 7.89-6.43 9.55a5.51 5.51 0 0 0-1.21-1.1 11.18 11.18 0 0 0 4.55-4.43 20.13 20.13 0 0 0-2.75-2.09c-.31.4-.63.77-1 1.11a10.63 10.63 0 0 0-1.25-1 14.46 14.46 0 0 0 3.8-7.1l1.47.3a19.41 19.41 0 0 1-.66 2.08H108l.28-.05 1 .34c-.08.46-.16.93-.24 1.36l.58-.22a12.73 12.73 0 0 0 1.37 2V149h1.54Zm-7.73-3.62a17.93 17.93 0 0 1-1.07 2.05 22.76 22.76 0 0 1 2.67 1.87 17.53 17.53 0 0 0 1.18-3.92ZM125 148.91a18.68 18.68 0 0 0 6.93 6 7.84 7.84 0 0 0-1 1.32 22 22 0 0 1-6.62-5.85 20.68 20.68 0 0 1-6.47 5.92 6.49 6.49 0 0 0-1-1.2 18.16 18.16 0 0 0 6.58-6.21Zm.28 13h5.89v1.35h-13.55v-1.35h1.89v-5.74H121v5.74h2.71v-8.56h1.57v3.59h4.43v1.34h-4.43ZM142.36 160a14.77 14.77 0 0 0 5.42 2.18 6.76 6.76 0 0 0-1 1.33 14.33 14.33 0 0 1-5.73-3v3.22h-1.45v-3.11a15.89 15.89 0 0 1-5.68 2.88 6.48 6.48 0 0 0-1-1.26 15.58 15.58 0 0 0 5.4-2.23h-5v-1.31h6.21v-1h-4.72v-1.12h4.72v-1h-5.5v-1.19h3.28a8.59 8.59 0 0 0-.67-1.45l.38-.07h-3.63v-1.25h2.37a12.16 12.16 0 0 0-1.17-2.16l1.29-.43a10.67 10.67 0 0 1 1.28 2.29l-.81.3h1.76V149h1.39v2.73h1.59V149h1.4v2.73h1.73l-.6-.19a14.28 14.28 0 0 0 1.12-2.37l1.53.39a23.75 23.75 0 0 1-1.33 2.17h2.31v1.25h-3.09c-.31.54-.62 1.07-.9 1.52h3.4v1.19h-5.67v1H146v1.12h-4.91v1h6.31V160Zm-4.12-7a6.38 6.38 0 0 1 .69 1.43l-.46.09h3.37a15.37 15.37 0 0 0 .71-1.52ZM156.52 160.18c0-.55.06-1.44.06-2.23-1.34.75-2.19 1.47-2.19 2.4 0 1.09 1 1.3 2.62 1.3a26.25 26.25 0 0 0 4.4-.42v1.62a41.6 41.6 0 0 1-4.41.27c-2.37 0-4.21-.54-4.21-2.51s1.91-3.19 3.73-4.12a1.23 1.23 0 0 0-1.28-.78 4 4 0 0 0-2.62 1.14 15.78 15.78 0 0 0-1.46 1.69l-1.36-1a16.52 16.52 0 0 0 3.59-4.63h-.47c-.65 0-1.76 0-2.64-.09v-1.49a23.63 23.63 0 0 0 2.72.17h.93a9.22 9.22 0 0 0 .37-1.9l1.65.13c-.1.41-.23 1-.45 1.71a37.07 37.07 0 0 0 4.69-.46v1.47a47.51 47.51 0 0 1-5.22.43 11.6 11.6 0 0 1-1.2 2.07 4.65 4.65 0 0 1 2-.47 2.09 2.09 0 0 1 2.11 1.35c1-.47 1.79-.8 2.55-1.14.52-.24 1-.45 1.5-.7l.62 1.47c-.43.13-1.12.38-1.6.57-.81.31-1.84.74-2.94 1.25 0 .9 0 2.16.06 2.92ZM82.18 177.8H77v-1.19h5.19Zm-.43 9.95h-3v.71h-1.13v-5.38h4.13Zm-4.1-9h4.11v1.15h-4.11Zm0 2.13h4.11v1.17h-4.11Zm4.08-5.25h-4v-1.13h4Zm-2.93 8.61v2.3h1.75v-2.3Zm12.65.77a14.92 14.92 0 0 1-1.86 1.1 6.33 6.33 0 0 0 2.35 1.43 4.13 4.13 0 0 0-.86 1.07 7.2 7.2 0 0 1-4.2-4.63h-.12a8.43 8.43 0 0 1-1.2 1V187l2.44-.4.1 1.09c-1.73.32-3.54.65-4.93.88l-.37-1.15 1.49-.23v-1.38a14.67 14.67 0 0 1-1.63.74 9.13 9.13 0 0 0-.8-1 11.69 11.69 0 0 0 3.23-1.55h-2.86v-1h2.38v-.75h-1.5v-1h1.5v-.73h-1.86v-1h1.86v-1.12h1.33v1.11h2v-1.11h1.37v1.11h2v1h-2v.73H91v1h-1.71v.76h2.43v1h-3.57a7.53 7.53 0 0 0 .78 1.35 18 18 0 0 0 1.7-1.11Zm-5.21-8.12a9.45 9.45 0 0 1-3.21 2.2 7.25 7.25 0 0 0-1-.93 8.36 8.36 0 0 0 2.97-1.61Zm5.27-.46h-9v-1.12h3.65V174h1.5v1.39h3.86Zm-5.57 4.78h2v-.73h-2Zm0 1.73h2v-.75h-2Zm2.69-6.5a16.88 16.88 0 0 1 3.1 1.78l-1 .77a14.28 14.28 0 0 0-3.09-1.86ZM98 174.72a28.1 28.1 0 0 0-.68 3.93c.68-1.46 2.22-3.16 4.13-3.16 2.16 0 3.76 2.13 3.76 5.54 0 4.42-2.77 6.45-6.81 7.19l-1-1.44c3.48-.55 6.07-1.83 6.07-5.75 0-2.47-.82-4.08-2.34-4.08-1.92 0-3.68 2.85-3.81 4.93a7.64 7.64 0 0 0 0 1.82l-1.55.11a19.12 19.12 0 0 1-.19-2.56 41.14 41.14 0 0 1 .48-5.1c.06-.53.11-1.07.13-1.49ZM121.29 181.94a9.74 9.74 0 0 1-3.41 3.89 20.77 20.77 0 0 0 5.63 1.33 6.67 6.67 0 0 0-.91 1.41 19.78 19.78 0 0 1-6.24-1.86 22.44 22.44 0 0 1-6.33 1.88 4.54 4.54 0 0 0-.86-1.35 21.65 21.65 0 0 0 5.74-1.41 11 11 0 0 1-2.91-2.94l.29-.13h-.69v-1.38h8.68Zm-10.38-.09h-1.39v-3.32h2.42a10.59 10.59 0 0 0-.91-1.9l1.29-.37a8.87 8.87 0 0 1 1 2l-.87.27h3.46a9 9 0 0 0-.72-2.25l1.33-.29a9.32 9.32 0 0 1 .8 2.21l-1.35.33h3.19a18.64 18.64 0 0 0 1.28-2.57l1.55.41c-.41.72-.88 1.52-1.33 2.16h2.52v3.32h-1.46v-2h-10.81Zm11.54-6.74a87.67 87.67 0 0 1-12.45 1.2 4.16 4.16 0 0 0-.32-1.27 82.58 82.58 0 0 0 11.73-1.15Zm-8.86 7.65a8.8 8.8 0 0 0 2.8 2.35 7.94 7.94 0 0 0 2.65-2.35ZM128.66 175.11c-.11.33-.24.83-.32 1.15-.45 2.05-1 5.44-.48 7.76.22-.59.53-1.45.8-2.16l.83.53a37.79 37.79 0 0 0-1.06 3.67 3.86 3.86 0 0 0-.08.72v.59l-1.38.16a17.46 17.46 0 0 1-.86-5.08 43.91 43.91 0 0 1 .55-6.33 11 11 0 0 0 .1-1.19Zm10.39 4.29c-.69.09-1.54.17-2.47.24v.59c0 3.68-.13 6.15-3.39 8.15l-1.47-1.15a5.91 5.91 0 0 0 1.68-1.13c1.48-1.37 1.64-3 1.64-5.89v-.49h-1.9c-.74 0-1.78-.05-2.51-.1v-1.6a16.15 16.15 0 0 0 2.48.16h1.9c0-1 0-1.9-.08-2.32a6.21 6.21 0 0 0-.16-1h1.84c0 .3 0 .64-.06 1s0 1.28 0 2.23a24.05 24.05 0 0 0 2.48-.34ZM150 178.1a30.75 30.75 0 0 1-3.19.53c-.14.69-.32 1.39-.5 2.06a46.91 46.91 0 0 1-2.49 7.3l-1.76-.59a34.9 34.9 0 0 0 2.69-7.11c.14-.48.27-1 .38-1.52h-1.26c-.74 0-1.32 0-1.89-.07v-1.57a13.87 13.87 0 0 0 1.93.13q.75 0 1.59-.06c.08-.47.16-.88.19-1.17a8.16 8.16 0 0 0 .05-1.44l1.93.14c-.11.4-.24 1-.3 1.36l-.19.93c1-.13 1.93-.32 2.85-.54Zm-.5 5.4a5.78 5.78 0 0 0-.22 1.37c0 .72.38 1.36 2.4 1.36a17.93 17.93 0 0 0 3.17-.32v1.62a21.63 21.63 0 0 1-3.14.22c-2.58 0-3.9-.85-3.9-2.41a11.24 11.24 0 0 1 .23-2Zm-.62-3.91a26.56 26.56 0 0 1 3-.16c.91 0 1.87 0 2.77.14l-.05 1.52a24.31 24.31 0 0 0-2.69-.19 26.33 26.33 0 0 0-3 .16ZM160.07 177.86a34.63 34.63 0 0 0 .11 3.57c.24 2.5.88 4.16 1.93 4.16.8 0 1.49-1.73 1.85-3.18l1.28 1.49c-1 2.72-2 3.66-3.16 3.66-1.6 0-3.07-1.54-3.5-5.71a42.4 42.4 0 0 1-.18-4.24 7.59 7.59 0 0 0-.11-1.49h1.94a12.8 12.8 0 0 0-.16 1.74Zm11.1 6.6-1.64.64c-.26-2.73-1.17-6.13-2.77-8l1.58-.53a16.65 16.65 0 0 1 2.83 7.89Z"/><path class="cls-5" d="M36 70.53V32.11h13.85q8.77 0 11.92 2.31a7.6 7.6 0 0 1 3.15 6.51q0 5.57-5.45 8.09v.2q8.23 1.72 8.23 9.51a10.36 10.36 0 0 1-4.07 8.62q-4.07 3.18-11.79 3.18Zm8.4-32.38v9.31h3.16a25.08 25.08 0 0 0 5.53-.46 3.93 3.93 0 0 0 2.42-1.61 5.22 5.22 0 0 0 .79-3 4.21 4.21 0 0 0-.7-2.39 3.81 3.81 0 0 0-2.28-1.44 30.42 30.42 0 0 0-6.32-.41Zm0 15v11.34H47c2.33 0 4.13 0 5.38-.08a9.62 9.62 0 0 0 3.43-.73 5.13 5.13 0 0 0 2.35-1.92 5.52 5.52 0 0 0 .8-3 5.68 5.68 0 0 0-.83-3.19 4.7 4.7 0 0 0-2.39-1.81q-1.57-.55-7.33-.56ZM101.13 70.53H93.3V66.4a29.48 29.48 0 0 1-5.81 3.93 11.2 11.2 0 0 1-4.67 1q-9.33 0-9.33-10.94V41h7.88v14.72q0 6.16 1.35 7.68t4.41 1.5a11.89 11.89 0 0 0 6.17-2.3V41h7.83ZM136.85 41l-16.19 40.17h-8.26l4.48-10.59L105.33 41h8.49l7.45 21.08L128.79 41ZM689 32.31a1.5 1.5 0 0 0 0-3 1.5 1.5 0 0 0 0 3Z"/><path class="cls-3" d="M718.36 248.08a18.57 18.57 0 1 1 18.56-18.57 18.57 18.57 0 0 1-18.56 18.57Zm75 15.35a6.43 6.43 0 0 0-5.67-7.11h-.32l-49.26-3.17-8.19-.15a.74.74 0 0 0-.6.27l-9.59 12a1.65 1.65 0 0 1-2.31.39 1.56 1.56 0 0 1-.38-.39l-9.6-12a.72.72 0 0 0-.59-.27l-8.16.15-49.27 3.17a6.43 6.43 0 0 0-6 6.82v.32a6.7 6.7 0 0 0 6.33 5.76l43.66 2.78a.84.84 0 0 1 .77.75l8.6 80.62 3.58 33a6.1 6.1 0 0 0 6 5.39h11.9a6.08 6.08 0 0 0 6.05-5.39l3.59-33 8.6-80.62a.82.82 0 0 1 .76-.75l43.65-2.8a6.7 6.7 0 0 0 6.41-5.77ZM209.89 263.76a56 56 0 0 1-12.11-18.88l-1-2.87a4.18 4.18 0 0 1 .82-4.31 3.75 3.75 0 0 1 2.46-1 4.88 4.88 0 0 1 1.64.41l2.87 1.23a61.06 61.06 0 0 1 19.71 13.34l39 40.43a87.86 87.86 0 0 1 12.52 16.63l17.41-5.74a6.41 6.41 0 0 1 5.13.41l2.06 1-19.71 14.36 1.44 3.29a2.56 2.56 0 0 1-.61 2.46 2.53 2.53 0 0 1-1.85.61h-.62l-3.49-1.64-15.8 20.11-1-2a6.38 6.38 0 0 1-.2-5.13l7-18.47a92.87 92.87 0 0 1-15.65-13Z"/><path class="cls-3" d="m238.83 260.27 6.36-2-2.46-2.67a.2.2 0 0 1-.21-.2c-.41-.41.41-2.06 1.85-3.49s3.08-2.26 3.69-1.85a.21.21 0 0 0 .21.21l4.72 4.92.41.41 12.52-4.1-2.67-2.67a.21.21 0 0 1-.21-.21c-.41-.41.42-2 1.85-3.49s3.08-2.25 3.7-1.84a.2.2 0 0 0 .2.2l4.72 4.93.41.41 14-4.52 3.49 3.49L255 276.9Z"/><ellipse class="cls-3" cx="173.98" cy="302.55" rx="29.14" ry="30.58"/><path class="cls-3" d="M118.77 380.33c6.57 4.72 23.19 13.34 55.21 13.34 32 0 48.63-8.82 55.2-13.34a7.15 7.15 0 0 0 3.08-7c-2.46-19.29-20.73-29.34-32.84-34.07l-19.29 32.84-1.64-22.57 4.31-10.47h-17.44l4.51 10.47-1.87 22.59-19.49-32.84c-12.11 4.73-30.38 14.78-32.84 34.07a7.58 7.58 0 0 0 3.1 6.98Zm19.29-7.18h17v4.51h-17ZM199.83 328.61l.83-2.46a37.09 37.09 0 0 0 8.41-23l3.08-8.82-.41-.41L207 289a.2.2 0 0 1-.21-.2c-.41-.41.41-2.05 1.85-3.49s3.08-2.26 3.69-1.85a.21.21 0 0 0 .21.21l2.67 2.87 2.66-7.39 16.63 17.24-31.2 35.92Z"/><path class="cls-2" d="m423.17 438.17 43.3-33.5h-86.6l43.3 33.5z"/><path class="cls-6" d="M464.37 51.17h153.91c1.39.14 13.2 1.58 13.2 11v96s1 10-11.28 10h-18.79a2.7 2.7 0 0 0-2.74 2.67v26.39a2.74 2.74 0 0 1-4.76 1.79l-25.8-27.86a2.74 2.74 0 0 0-2-.88H465.39S451 170.17 451 152.17v-90s-1-11 13.37-11ZM550.16 357.91H396.24c-1.38-.14-13.2-1.58-13.2-11v-96s-1-10 11.28-10h18.8a2.7 2.7 0 0 0 2.73-2.67v-26.4a2.75 2.75 0 0 1 4.77-1.78l25.79 27.86a2.78 2.78 0 0 0 2 .88h100.72s14.36.11 14.36 18.11v90s1.02 11-13.33 11ZM810.16 67.17H656.24c-1.38.14-13.2 1.58-13.2 11v96s-1 10 11.28 10h18.8a2.7 2.7 0 0 1 2.73 2.67v26.39a2.75 2.75 0 0 0 4.77 1.79l25.79-27.86a2.78 2.78 0 0 1 2-.88h100.72s14.36-.11 14.36-18.11v-90s1.02-11-13.33-11ZM47.46 110.17h153.91c1.39.14 13.2 1.58 13.2 11v96s1 10-11.28 10H184.5a2.7 2.7 0 0 0-2.74 2.67v26.39A2.74 2.74 0 0 1 177 258l-25.8-27.86a2.74 2.74 0 0 0-2-.88H48.48s-14.35-.11-14.35-18.11v-90s-1.03-10.98 13.33-10.98Z"/><path class="cls-2" d="M653.55 308.78H642a.91.91 0 0 0-.91.91v6.7h-.05l-16.17-14.14a.91.91 0 0 1 0-1.38l16.17-14.14h.05v6.69a.92.92 0 0 0 .91.92h11.54a.91.91 0 0 1 .91.91v12.61a.92.92 0 0 1-.9.92ZM656.73 294.28h9.07v14.36h-9.07zM668.07 294.28h9.07v14.36h-9.07zM679.41 294.28h9.07v14.36h-9.07zM653.55 342.79H642a.92.92 0 0 0-.91.92v6.69h-.05l-16.17-14.14a.91.91 0 0 1 0-1.38l16.17-14.14h.05v6.7a.91.91 0 0 0 .91.91h11.54a.92.92 0 0 1 .91.92v12.61a.91.91 0 0 1-.9.91ZM656.73 328.3h9.07v14.36h-9.07zM668.07 328.3h9.07v14.36h-9.07zM679.41 328.3h9.07v14.36h-9.07zM786.14 330.62h11.53a.92.92 0 0 0 .92-.92V323l16.18 14.14a.93.93 0 0 1 0 1.38l-16.18 14.14V346a.92.92 0 0 0-.92-.91h-11.53a.92.92 0 0 1-.92-.92v-12.64a.92.92 0 0 1 .92-.91Z"/><path class="cls-2" transform="rotate(180 778.42 337.935)" d="M773.89 330.75h9.07v14.36h-9.07z"/><path class="cls-2" transform="rotate(180 767.085 337.935)" d="M762.55 330.75h9.07v14.36h-9.07z"/><path class="cls-2" transform="rotate(180 755.745 337.935)" d="M751.21 330.75h9.07v14.36h-9.07z"/><path class="cls-2" d="M786.14 296.61h11.53a.92.92 0 0 0 .92-.92V289l16.18 14.14a.93.93 0 0 1 0 1.38l-16.18 14.14V312a.92.92 0 0 0-.92-.91h-11.53a.92.92 0 0 1-.92-.92v-12.65a.92.92 0 0 1 .92-.91Z"/><path class="cls-2" transform="rotate(180 778.42 303.92)" d="M773.89 296.74h9.07v14.36h-9.07z"/><path class="cls-2" transform="rotate(180 767.085 303.92)" d="M762.55 296.74h9.07v14.36h-9.07z"/><path class="cls-2" transform="rotate(180 755.745 303.92)" d="M751.21 296.74h9.07v14.36h-9.07z"/><path class="cls-2" d="M297.26 216.6a2.94 2.94 0 0 0 3 3h13a3 3 0 0 0 3-3v-18.33a102.85 102.85 0 0 1-18.79 1.7v16.63ZM324.7 196.44v20.16a2.94 2.94 0 0 0 3 3h12.86a2.94 2.94 0 0 0 3-3v-27a99.26 99.26 0 0 1-14.68 5.58c-1.45.47-2.82.92-4.18 1.26ZM352.14 185.06v31.65a3 3 0 0 0 3 3H368a2.93 2.93 0 0 0 3-3v-45.54a113.43 113.43 0 0 1-10.81 8.65c-2.93 2.05-5.55 3.76-8.05 5.24ZM390.85 147.94a140.3 140.3 0 0 1-9.45 12.53c-.57.68-1.26 1.36-1.83 2.05v54.08a3 3 0 0 0 3 3h12.76a3 3 0 0 0 3-3v-68a11.17 11.17 0 0 1-2.74.34 11 11 0 0 1-4.74-1ZM387.89 137.36l6.14 3.18a3.36 3.36 0 0 0 4.9-3.41l-2.62-22.77a3.34 3.34 0 0 0-4.9-2.62l-20.26 10.59a3.43 3.43 0 0 0 0 6l6.49 3.42a85.82 85.82 0 0 1-3 4.89 125.06 125.06 0 0 1-8.2 10.93 103.34 103.34 0 0 1-17.65 16.17 79.77 79.77 0 0 1-8.19 5.12 89.39 89.39 0 0 1-17.6 7.66c-2.62.8-5.35 1.48-8.08 2a89.83 89.83 0 0 1-17.54 1.82 5.83 5.83 0 0 0-5.8 5.81 5.75 5.75 0 0 0 5.8 5.8 97.46 97.46 0 0 0 19.93-2 68 68 0 0 0 9.22-2.4 102.52 102.52 0 0 0 19.91-8.55c3.08-1.71 6-3.65 9.23-5.81a110.27 110.27 0 0 0 19.81-18 114.51 114.51 0 0 0 9.1-12.07c1.03-1.89 2.17-3.83 3.31-5.76Z"/></g></g></svg>