<svg xmlns="http://www.w3.org/2000/svg" viewBox="0 0 833 26.19"><defs><style>.cls-1{fill:#c8161d;}.cls-2,.cls-3{fill:none;stroke:#c7161d;stroke-miterlimit:10;}.cls-2{stroke-width:2.44px;}.cls-3{stroke-width:2.45px;}</style></defs><g id="レイヤー_2" data-name="レイヤー 2"><g id="追加項目"><path class="cls-1" d="M130.65,18.06c0,1.79,1.71,3.08,5.74,3.08A38.5,38.5,0,0,0,146.22,20l0,3.95a43.11,43.11,0,0,1-9.72,1c-6.41,0-9.63-2.16-9.63-6a17.65,17.65,0,0,1,.56-4l3.66.33A10.34,10.34,0,0,0,130.65,18.06ZM136.39,3.7c2.77,0,6-.17,8.12-.4V7c-2,.17-5.43.33-8.09.33-2.94,0-5.38-.11-7.65-.3V3.36A74.52,74.52,0,0,0,136.39,3.7Z"/><path class="cls-1" d="M166,25l-2.1-3.33a20.6,20.6,0,0,0,2.6-.45c3.58-.84,6.38-3.41,6.38-7.5,0-3.87-2.09-6.75-5.88-7.39a56.36,56.36,0,0,1-1.67,7.58c-1.69,5.66-4.09,9.13-7.15,9.13s-5.68-3.41-5.68-8.15c0-6.46,5.6-12,12.85-12,6.95,0,11.31,4.82,11.31,10.92C176.62,19.77,173,23.94,166,25Zm-7.7-6.27c1.17,0,2.26-1.76,3.41-5.54a41.93,41.93,0,0,0,1.49-6.78A8.82,8.82,0,0,0,156,14.56C156,17.39,157.17,18.76,158.26,18.76Z"/><path class="cls-1" d="M194.38,4.54c0,.64,0,1.31,0,2,2.24,0,5.52-.14,7.84-.42l.11,3.33c-2.35.2-5.66.34-7.92.39.05,1.68.16,3.92.3,6a22,22,0,0,1,8.52,4.78L201,24a21.77,21.77,0,0,0-6.19-4.4c0,.36,0,.7,0,1,0,2.49-1.26,4.84-6,4.84-4,0-7.28-1.31-7.28-5.12,0-2.91,2.49-5.24,7.64-5.24a14.8,14.8,0,0,1,1.65.09c-.08-2.19-.19-4.57-.19-6.05,0-1.71,0-3.36,0-4.56a20.41,20.41,0,0,0-.31-3.28h4.23A27.3,27.3,0,0,0,194.38,4.54ZM188.64,22c1.79,0,2.43-.79,2.43-2.66,0-.25,0-.59,0-1a15.36,15.36,0,0,0-2.29-.2c-2.19,0-3.5.76-3.5,2C185.25,21.5,186.68,22,188.64,22Z"/><path class="cls-1" d="M221.76,11.2a25,25,0,0,0-7.28,1.37c-.81.23-1.9.67-2.72,1l-1.06-4a28.61,28.61,0,0,0,3.08-.48,37.3,37.3,0,0,1,8.46-1.29c4.42,0,7.53,2.52,7.53,6.92,0,6-5.55,9.72-13.33,10.78l-2-3.47c7-.79,11.43-3.08,11.43-7.45C225.85,12.71,224.39,11.2,221.76,11.2Zm5.66-8.82-.56,3.44c-3.28-.22-9.36-.78-12.57-1.34l.55-3.36A83.5,83.5,0,0,0,227.42,2.38Z"/><path class="cls-1" d="M246.88,5a35.92,35.92,0,0,0,3.78-.89l.11,3.24a47.38,47.38,0,0,1-4.9,1,52.31,52.31,0,0,1-6,12l-3.39-1.74a44.08,44.08,0,0,0,5.71-9.88c-.5,0-1,0-1.45,0-1.15,0-2.3,0-3.5-.12L237,5.38a35.43,35.43,0,0,0,3.73.19c.84,0,1.68,0,2.54-.11A23.27,23.27,0,0,0,244,.78l3.86.4C247.66,2.07,247.3,3.5,246.88,5Zm7.56,8.46c0,.81.11,2.15.16,3.55a18.38,18.38,0,0,1,5.8,3.59l-1.88,3a23.73,23.73,0,0,0-3.77-3v.28c0,2.6-1.43,4.62-5.41,4.62-3.47,0-6.22-1.54-6.22-4.62,0-2.75,2.3-4.85,6.19-4.85.68,0,1.29.06,1.94.12-.12-2.08-.26-4.57-.31-6.28h3.5A35.82,35.82,0,0,0,254.44,13.47Zm-5.6,8.82c1.93,0,2.52-1.07,2.52-2.61v-.56a10.6,10.6,0,0,0-2.27-.28c-1.63,0-2.66.73-2.66,1.71S247.3,22.29,248.84,22.29Zm3.69-14.9,1.8-2.77a48.39,48.39,0,0,1,6.91,3.81l-2,2.94A40,40,0,0,0,252.53,7.39Z"/><path class="cls-1" d="M274.62,3.42c0,.61-.05,1.28-.08,2a33.62,33.62,0,0,0,5.15-1l.09,3.47c-1.6.36-3.53.64-5.35.87,0,.84,0,1.7,0,2.52v1a23.54,23.54,0,0,1,5.38-.73c4.31,0,7.7,2.24,7.7,6.11,0,3.3-1.74,5.79-6.19,6.91a25.12,25.12,0,0,1-3.67.45l-1.29-3.61a21.37,21.37,0,0,0,3.45-.2c2.26-.42,4.06-1.54,4.06-3.58s-1.68-3-4.12-3a19,19,0,0,0-5.26.78c.05,2.21.11,4.4.11,5.35,0,3.47-1.23,4.39-3.08,4.39-2.72,0-6.55-2.35-6.55-5.32,0-2.43,2.8-5,6.24-6.46,0-.68,0-1.35,0-2V9c-.53,0-1,.05-1.48.05a34.74,34.74,0,0,1-3.92-.14l-.06-3.39a30.53,30.53,0,0,0,3.87.23c.5,0,1.06,0,1.62-.06,0-1,0-1.79,0-2.27A21.12,21.12,0,0,0,271,1h3.87C274.79,1.48,274.68,2.69,274.62,3.42Zm-4.2,17.89c.51,0,.9-.23.9-1.18,0-.7,0-2-.08-3.5-1.71.93-2.86,2.07-2.86,3.05S269.7,21.31,270.42,21.31ZM289.75,8l-1.69,2.86a44.41,44.41,0,0,0-6.74-4.09L282.86,4A60.73,60.73,0,0,1,289.75,8Z"/><path class="cls-1" d="M307.3,10.64c-1.2.92-2.46,1.79-3.75,2.6a61.72,61.72,0,0,0,8.26-1.42l2,2.18a71.93,71.93,0,0,1-12.54,1.79L301,17.22h12.94a12,12,0,0,1-.17,1.4c-.67,3.78-1.34,5.68-2.29,6.52a3.65,3.65,0,0,1-2.69,1,32.12,32.12,0,0,1-4.2,0A7.07,7.07,0,0,0,303.49,23c1.63.17,3.39.23,4.12.23a2.1,2.1,0,0,0,1.23-.28c.45-.37.9-1.32,1.26-3.08h-9.83l-.33,1.29-3.34-.48c.4-1.18.82-2.69,1.21-4.28-1.51.72-3.05,1.4-4.59,2a21.81,21.81,0,0,0-2.05-2.55,53.64,53.64,0,0,0,7.48-3.24l.14-.65.89.11c.87-.47,1.71-1,2.53-1.48h-9.8V7.84H301V5.6h-6.44V2.88H301V0h3.3V2.88h5.88V4.31A35.64,35.64,0,0,0,313,1.12l2.68,1.48a40.39,40.39,0,0,1-4.92,5.24h6.07v2.8Zm-1.12-2.8c.92-.73,1.82-1.46,2.66-2.24H304.3V7.84Z"/><path class="cls-1" d="M338,11.34c-1.29,1.09-3.89,3.5-4.57,4.23a3.07,3.07,0,0,1,1.07.19,2.69,2.69,0,0,1,1.68,1.91c.25.75.56,1.82.81,2.55a1.78,1.78,0,0,0,2,1.31,28.91,28.91,0,0,0,5.49-.5l-.22,3.67a41.7,41.7,0,0,1-5.49.42c-2.66,0-4.09-.59-4.79-2.41-.28-.84-.62-2.16-.81-2.86-.31-1-.93-1.34-1.49-1.34a3,3,0,0,0-1.84,1.12c-1,1-3.06,3.27-5,5.74L321.5,23c.5-.42,1.17-1,1.93-1.73,1.43-1.46,7.17-7.17,9.71-9.86-2,.06-5.31.37-6.91.51-1,.08-1.82.22-2.41.3l-.33-3.86a23.33,23.33,0,0,0,2.68.08c1.32,0,7.67-.28,10-.58a9.32,9.32,0,0,0,1.59-.31l2.05,2.32C339.08,10.42,338.49,10.92,338,11.34Zm.84-9-.45,3.28c-2.94-.23-8.17-.84-11.51-1.4L327.41,1C330.54,1.6,335.92,2.18,338.83,2.38Z"/><path class="cls-1" d="M359.58,4.06a70.72,70.72,0,0,0,7.92-.81l0,3.25a85.36,85.36,0,0,1-9.13.7,19.12,19.12,0,0,1-1.59,2.85,9.65,9.65,0,0,1,3.16-.56,3.8,3.8,0,0,1,3.73,2.16c1.45-.67,2.63-1.15,3.78-1.65s2.07-.93,3.1-1.46l1.4,3.25c-.89.25-2.38.81-3.33,1.17-1.26.51-2.85,1.12-4.56,1.91,0,1.57.08,3.64.11,4.93h-3.36c.09-.84.11-2.19.14-3.42-2.1,1.2-3.22,2.3-3.22,3.7s1.32,2,4.06,2a45.37,45.37,0,0,0,7.95-.79l-.11,3.61a68.12,68.12,0,0,1-7.92.48c-4.4,0-7.65-1.06-7.65-4.68s3.36-5.82,6.55-7.47a2.14,2.14,0,0,0-2-.95,6.79,6.79,0,0,0-4.36,1.93,32.18,32.18,0,0,0-2.61,3.08l-3-2.24a27.49,27.49,0,0,0,6.18-7.73h-.36c-1.15,0-3.19-.06-4.73-.17V3.84a37.11,37.11,0,0,0,4.93.33H356A15.68,15.68,0,0,0,356.58,1l3.7.31A28.12,28.12,0,0,1,359.58,4.06Z"/><path class="cls-1" d="M386.62,3.42c0,.61-.05,1.28-.08,2a33.62,33.62,0,0,0,5.15-1l.09,3.47c-1.6.36-3.53.64-5.35.87,0,.84,0,1.7,0,2.52v1a23.54,23.54,0,0,1,5.38-.73c4.31,0,7.7,2.24,7.7,6.11,0,3.3-1.74,5.79-6.19,6.91a25.12,25.12,0,0,1-3.67.45l-1.29-3.61a21.37,21.37,0,0,0,3.45-.2c2.26-.42,4.06-1.54,4.06-3.58s-1.68-3-4.12-3a19,19,0,0,0-5.26.78c.05,2.21.11,4.4.11,5.35,0,3.47-1.23,4.39-3.08,4.39-2.72,0-6.55-2.35-6.55-5.32,0-2.43,2.8-5,6.24-6.46,0-.68,0-1.35,0-2V9c-.53,0-1,.05-1.48.05a34.74,34.74,0,0,1-3.92-.14l-.06-3.39a30.53,30.53,0,0,0,3.87.23c.5,0,1.06,0,1.62-.06,0-1,0-1.79,0-2.27A21.12,21.12,0,0,0,383,1h3.87C386.79,1.48,386.68,2.69,386.62,3.42Zm-4.2,17.89c.51,0,.9-.23.9-1.18,0-.7,0-2-.08-3.5-1.71.93-2.86,2.07-2.86,3.05S381.7,21.31,382.42,21.31ZM401.75,8l-1.69,2.86a44.41,44.41,0,0,0-6.74-4.09L394.86,4A60.73,60.73,0,0,1,401.75,8Z"/><path class="cls-1" d="M412.61,14.87c-.87.25-1.74.53-2.63.78v6.81c0,1.54-.28,2.35-1.15,2.88s-2,.64-3.84.62a11.12,11.12,0,0,0-.87-3.08,23.23,23.23,0,0,0,2.33,0c.34,0,.47-.11.47-.47V16.52l-2.88.84-.73-3.19,3.61-.9V8.37h-3.16V5.29h3.16V0H410V5.29h2.38V8.37H410v4.12l2.21-.62Zm13.89-3.19v2.21h3.08v3H426.5v5.71c0,1.68-.31,2.5-1.4,3a11.48,11.48,0,0,1-4.51.53,14.43,14.43,0,0,0-.95-3.13c1.26.05,2.71.05,3.13,0s.56-.08.56-.47V16.91H413v-3h10.3V11.68H412.78v-3h6.94V6.22H414v-3h5.74v-3h3.16V3.19h5.66v3h-5.66V8.65h6.89v3ZM417.2,17a21.68,21.68,0,0,1,3.14,4.76l-2.83,1.63a22.14,22.14,0,0,0-2.94-4.9Z"/><path class="cls-1" d="M442.68,4.26c-.06.25-.11.56-.17.86a67,67,0,0,0,10.36-1.31l.06,3.33a109.93,109.93,0,0,1-11.12,1.2c-.39,1.71-.84,3.5-1.26,4.88a13.66,13.66,0,0,1,6.95-1.77c4.53,0,7.53,2.41,7.53,6C455,23.74,449,26,439.91,25l-1-3.61c6.13,1,12.32.25,12.32-3.86,0-1.68-1.43-3.08-4.17-3.08a9.69,9.69,0,0,0-7.76,3.27,10.38,10.38,0,0,0-.78,1.23l-3.31-1.17a44.15,44.15,0,0,0,3.19-9.41c-1.76,0-3.41-.11-4.84-.25V4.68a40.33,40.33,0,0,0,5.49.53c.05-.42.11-.81.17-1.15a12.93,12.93,0,0,0,.14-2.83l4,.17C443,2.38,442.88,3.33,442.68,4.26Z"/><path class="cls-1" d="M463.34,4.37c2.36-.2,7-.62,12.1-1,2.89-.25,5.94-.42,7.93-.5l0,3.58a29.55,29.55,0,0,0-5.4.39,8.52,8.52,0,0,0-5.94,7.84c0,4.62,4.32,6.28,9.07,6.53L479.81,25c-5.88-.39-11.43-3.52-11.43-9.6a11.19,11.19,0,0,1,4.18-8.65c-2.64.28-8.35.89-11.6,1.59l-.36-3.83C461.72,4.48,462.81,4.42,463.34,4.37ZM481.63,13l-2.13,1a22,22,0,0,0-2.18-3.9l2.07-.86A33.79,33.79,0,0,1,481.63,13Zm3.25-1.37-2.1,1a24.64,24.64,0,0,0-2.3-3.78l2-1A42.64,42.64,0,0,1,484.88,11.59Z"/><path class="cls-1" d="M494,4.59a74.82,74.82,0,0,0-1.35,10.84,12.37,12.37,0,0,0,.12,1.82c.36-1,.84-1.93,1.26-2.89l1.7,1.4c-.78,2.3-1.68,5.16-2,6.67a7.23,7.23,0,0,0-.14,1.31c0,.28,0,.76.05,1.15l-3.16.25a32.8,32.8,0,0,1-1.12-9,88.2,88.2,0,0,1,1.15-11.67c.11-.79.25-1.85.28-2.75l3.86.34A18.27,18.27,0,0,0,494,4.59Zm14.14-1c0,.62-.06,1.65-.09,2.89a38.19,38.19,0,0,0,4.34-.65v3.5c-1.34.2-2.8.37-4.34.48.06,2.71.2,4.95.31,6.86a18.37,18.37,0,0,1,5.44,3.61l-1.94,2.94a29.47,29.47,0,0,0-3.41-2.83c-.17,2.69-1.68,4.59-5.46,4.59s-6.27-1.62-6.27-4.56,2.4-4.79,6.21-4.79a13.09,13.09,0,0,1,1.82.11c-.06-1.73-.17-3.78-.2-5.76-.67,0-1.34,0-2,0-1.65,0-3.25,0-4.9-.16V6.52a46,46,0,0,0,4.9.26c.64,0,1.31,0,2,0,0-1.37,0-2.52,0-3.11a11,11,0,0,0-.2-1.85h4A16.58,16.58,0,0,0,508.09,3.61ZM502.54,21.7c1.71,0,2.3-.9,2.3-2.55v-.5a8.47,8.47,0,0,0-2.24-.31c-1.6,0-2.66.67-2.66,1.74S501.06,21.7,502.54,21.7Z"/><path class="cls-1" d="M526.88,5a35.92,35.92,0,0,0,3.78-.89l.11,3.24a47.38,47.38,0,0,1-4.9,1,52.31,52.31,0,0,1-6,12l-3.39-1.74a44.08,44.08,0,0,0,5.71-9.88c-.5,0-1,0-1.45,0-1.15,0-2.3,0-3.5-.12L517,5.38a35.43,35.43,0,0,0,3.73.19c.84,0,1.68,0,2.54-.11A23.27,23.27,0,0,0,524,.78l3.86.4C527.66,2.07,527.3,3.5,526.88,5Zm7.56,8.46c0,.81.11,2.15.16,3.55a18.38,18.38,0,0,1,5.8,3.59l-1.88,3a23.73,23.73,0,0,0-3.77-3v.28c0,2.6-1.43,4.62-5.41,4.62-3.47,0-6.22-1.54-6.22-4.62,0-2.75,2.3-4.85,6.19-4.85.68,0,1.29.06,1.94.12-.12-2.08-.26-4.57-.31-6.28h3.5A35.82,35.82,0,0,0,534.44,13.47Zm-5.6,8.82c1.93,0,2.52-1.07,2.52-2.61v-.56a10.6,10.6,0,0,0-2.27-.28c-1.63,0-2.66.73-2.66,1.71S527.3,22.29,528.84,22.29Zm3.69-14.9,1.8-2.77a48.39,48.39,0,0,1,6.91,3.81l-2,2.94A40,40,0,0,0,532.53,7.39Z"/><path class="cls-1" d="M549.61,7.11c0,1.82,0,3.92.17,5.94.39,4,1.23,6.8,3,6.8,1.31,0,2.43-3.27,3-5.51l2.79,3.41c-1.84,4.87-3.61,6.58-5.85,6.58-3.08,0-5.74-2.77-6.52-10.27-.28-2.58-.31-5.86-.31-7.56a17.9,17.9,0,0,0-.22-2.86L550,3.7A22.07,22.07,0,0,0,549.61,7.11ZM569,18.84l-3.66,1.43c-.45-4.51-1.93-11.31-5-14.78L564,4.34C566.61,7.56,568.74,14.56,569,18.84Z"/><path class="cls-1" d="M575.34,4.37c2.36-.2,7-.62,12.1-1,2.89-.25,5.94-.42,7.93-.5l0,3.58a29.55,29.55,0,0,0-5.4.39,8.52,8.52,0,0,0-5.94,7.84c0,4.62,4.32,6.28,9.07,6.53L591.81,25c-5.88-.39-11.43-3.52-11.43-9.6a11.19,11.19,0,0,1,4.18-8.65c-2.64.28-8.35.89-11.6,1.59l-.36-3.83C573.72,4.48,574.81,4.42,575.34,4.37ZM593.63,13l-2.13,1a22,22,0,0,0-2.18-3.9l2.07-.86A33.79,33.79,0,0,1,593.63,13Zm3.25-1.37-2.1,1a24.64,24.64,0,0,0-2.3-3.78l2-1A42.64,42.64,0,0,1,596.88,11.59Z"/><path class="cls-1" d="M608.69,5.24c-.11,3-.33,9.29-.33,12.76,0,2.83,1.68,3.76,3.86,3.76,4.62,0,7.56-2.66,9.58-5.72l2.54,3.08a14.47,14.47,0,0,1-12.15,6.44c-4.59,0-7.56-2-7.56-6.8,0-3.75.28-11.12.28-13.52a18,18,0,0,0-.36-3.78l4.51.05C608.89,2.69,608.75,4.12,608.69,5.24Z"/><path class="cls-1" d="M642.35,8.68V10c1.85-.06,4.59-.2,6.47-.4l.08,3.11c-1.88.17-4.68.28-6.55.31,0,1.2.11,3.08.22,4.82a19,19,0,0,1,6.81,4.06L647.45,25a20,20,0,0,0-4.71-3.67,6.12,6.12,0,0,1,0,.7c0,2.07-1.15,3.95-4.9,3.95-3.39,0-6.16-1.43-6.16-4.37,0-2.69,2.29-4.45,6.35-4.45.4,0,.76,0,1.12.05-.08-1.56-.16-3.22-.16-4.48V8.74A15.08,15.08,0,0,0,638.79,6h3.78A21.26,21.26,0,0,0,642.35,8.68Zm-4.9,14.14c1.26,0,1.88-.67,1.88-2V20a12,12,0,0,0-1.69-.14c-1.79,0-2.77.59-2.77,1.51S635.88,22.82,637.45,22.82Z"/><path class="cls-1" d="M669.76,11.2a25,25,0,0,0-7.28,1.37c-.81.23-1.9.67-2.72,1l-1.06-4a28.61,28.61,0,0,0,3.08-.48,37.3,37.3,0,0,1,8.46-1.29c4.42,0,7.53,2.52,7.53,6.92,0,6-5.55,9.72-13.33,10.78l-2-3.47c7-.79,11.43-3.08,11.43-7.45C673.85,12.71,672.39,11.2,669.76,11.2Zm5.66-8.82-.56,3.44c-3.28-.22-9.36-.78-12.57-1.34l.55-3.36A83.5,83.5,0,0,0,675.42,2.38Z"/><path class="cls-1" d="M695.1,3.92c-.19.84-.39,1.88-.59,2.88.93,0,1.77-.11,2.36-.11,3,0,5.06,1.32,5.06,5.35,0,3.3-.39,7.84-1.59,10.28-.93,2-2.5,2.57-4.59,2.57a17.89,17.89,0,0,1-3.37-.39l-.61-3.7a16.3,16.3,0,0,0,3.44.59,2.07,2.07,0,0,0,2.1-1.2c.76-1.6,1.12-5,1.12-7.76,0-2.24-.95-2.55-2.71-2.55-.45,0-1.15.06-1.93.12-1.07,4.25-3.14,10.89-5.72,15l-3.64-1.45c2.72-3.67,4.65-9.33,5.66-13.16l-2.41.28c-.78.14-2.27.33-3.11.47l-.33-3.8a29.82,29.82,0,0,0,3,0c.87,0,2.19-.12,3.61-.23a30.25,30.25,0,0,0,.59-5.93l4.17.42C695.44,2.32,695.24,3.22,695.1,3.92Zm15.07,10.72-3.56,1.66c-.73-3.11-2.72-8.18-4.7-10.64l3.33-1.43A48.69,48.69,0,0,1,710.17,14.64Z"/><line class="cls-2" y1="14.03" x2="113" y2="14.03"/><line class="cls-3" x1="719" y1="14.03" x2="833" y2="14.03"/></g></g></svg>