<svg xmlns="http://www.w3.org/2000/svg" viewBox="0 0 384.69 47.2"><defs><style>.cls-1{fill:#be131b;}</style></defs><g id="レイヤー_2" data-name="レイヤー 2"><g id="MV上文字"><path class="cls-1" d="M30,30.53c-.24-4.42-.53-10.32-.43-15.29H29.4c-.83,4.94-2.07,10.61-2.93,14.2l-4,16.45H16.05L12.2,29.7c-.89-3.73-2.12-9.46-2.82-14.46H9.21c-.13,5-.46,10.84-.7,15.4l-.78,16H0L3.33.55h9.51l3.69,16.68c1.29,5.85,2.46,10.94,3.29,16.15H20c.7-5.12,1.73-10.31,3-16.15L26.57.55h9.52l2.81,46.1H30.83Z"/><path class="cls-1" d="M88.45,46.65c-.69-.94-1.3-1.73-2.19-3a15.07,15.07,0,0,1-10,3.58c-8,0-12.8-5.74-12.8-12.93,0-5.57,2.68-9.71,7.27-12.62V21.5a16.68,16.68,0,0,1-3.42-10A11.11,11.11,0,0,1,78.89,0c5.93,0,10.19,4.1,10.19,10.31,0,4.19-1.3,8-8,12.53v.31c2,3,5,7.5,6.84,9.72,1.58-3,1.9-7.26,2-10.78h7.62c-.58,6.33-2.71,12.61-5.8,16.26,1.51,2,3.82,4.92,6.49,8.3Zm-5.76-8.28c-2.41-3-5.75-7.72-8.4-11.54a8.92,8.92,0,0,0-2.61,6.32c0,4,2.4,7.39,6.15,7.39A6.14,6.14,0,0,0,82.69,38.37ZM75.24,11.12A11.42,11.42,0,0,0,77.52,18c2.9-2.26,4-4.59,4-7.29,0-2.09-.59-4.76-3-4.76C76.39,6,75.24,8.26,75.24,11.12Z"/><path class="cls-1" d="M130.49,36.12l-2,10.53h-8.74L129.78.55h10.79l9,46.1h-8.77l-2-10.53ZM138,29.17l-1.54-9.66C136,16.71,135.42,12.08,135,9h-.17c-.49,3.06-1.18,7.82-1.67,10.49l-1.69,9.64Z"/><path class="cls-1" d="M206.83,1.23a47,47,0,0,1,9.42-.89c5.36,0,9.57.79,12.59,3.56,2.74,2.42,4,6.2,4,10.09,0,5-1.51,8.53-3.92,11.1-2.87,3-7.53,4.42-11.26,4.42-.61,0-1.21,0-1.81,0V46.65h-9Zm9,21a8.78,8.78,0,0,0,1.5.1c4.53,0,6.55-3.22,6.55-7.53,0-4-1.65-7.19-5.82-7.19a6.71,6.71,0,0,0-2.23.34Z"/><path class="cls-1" d="M259.32,36.12l-2,10.53h-8.74L258.61.55H269.4l9,46.1h-8.77l-2-10.53Zm7.54-6.95-1.54-9.66c-.45-2.8-1.07-7.43-1.52-10.47h-.17c-.49,3.06-1.18,7.82-1.67,10.49l-1.69,9.64Z"/><path class="cls-1" d="M304.11,1.23a52.25,52.25,0,0,1,9.83-.89c4.93,0,9.37.72,12.36,3.43C329.1,6.32,330,9.4,330,13.36a12.24,12.24,0,0,1-7.14,11.52V25c3.14,1.27,4.74,4.16,5.62,9.14s2.14,10.82,3,12.5H322a60.06,60.06,0,0,1-2.33-11c-.79-5.73-2.26-7.35-5.25-7.35h-1.35V46.65h-9Zm9,20.12h1.64c3.91,0,6.14-3.17,6.14-7.17s-1.57-6.72-5.59-6.83a6.85,6.85,0,0,0-2.19.27Z"/><path class="cls-1" d="M357,.55h9V21.3h.19c.75-2,1.45-4,2.25-6L374.62.55h9.93L374.16,20.62l10.53,26h-9.84L368.1,27.57,366,31.34V46.65h-9Z"/></g></g></svg>