<svg xmlns="http://www.w3.org/2000/svg" viewBox="0 0 124.2 89.72"><defs><style>.cls-1{fill:#727171;}.cls-2{fill:#c8161d;}</style></defs><g id="レイヤー_2" data-name="レイヤー 2"><g id="レイヤー_1-2" data-name="レイヤー 1"><path class="cls-1" d="M9.69,84.31c-.08-1.43-.17-3.35-.14-5H9.49C9.22,81,8.82,82.8,8.54,84L7.25,89.3H5.18L3.94,84C3.65,82.83,3.26,81,3,79.35H3c0,1.63-.15,3.52-.22,5l-.26,5.19H0l1.07-15H4.14L5.34,80c.41,1.89.79,3.55,1.06,5.24h0c.22-1.66.56-3.35,1-5.24l1.18-5.42h3.07l.91,15H10Z"/><path class="cls-1" d="M28.56,89.54c-.23-.3-.42-.56-.71-1a4.84,4.84,0,0,1-3.24,1.16,4,4,0,0,1-4.13-4.19,4.67,4.67,0,0,1,2.35-4.1v-.05a5.45,5.45,0,0,1-1.1-3.24,3.59,3.59,0,0,1,3.74-3.73,3.16,3.16,0,0,1,3.29,3.34c0,1.36-.42,2.59-2.59,4.07v.1c.65,1,1.63,2.43,2.21,3.15a8.77,8.77,0,0,0,.66-3.5H31.5a10.12,10.12,0,0,1-1.87,5.28c.48.64,1.23,1.6,2.09,2.69ZM26.7,86.86c-.78-1-1.86-2.51-2.71-3.75a2.89,2.89,0,0,0-.85,2,2.17,2.17,0,0,0,2,2.4A2,2,0,0,0,26.7,86.86ZM24.29,78A3.72,3.72,0,0,0,25,80.25a2.85,2.85,0,0,0,1.29-2.37c0-.67-.19-1.54-1-1.54S24.29,77.09,24.29,78Z"/><path class="cls-1" d="M42.13,86.13l-.65,3.41H38.65l3.25-15h3.49l2.9,15H45.46l-.64-3.41Zm2.44-2.26-.5-3.13c-.15-.91-.35-2.41-.49-3.4h-.06c-.16,1-.38,2.54-.54,3.4l-.54,3.13Z"/><path class="cls-1" d="M66.78,74.81a15,15,0,0,1,3-.29,5.74,5.74,0,0,1,4.07,1.15A4.35,4.35,0,0,1,75.16,79a5,5,0,0,1-1.26,3.6A5.17,5.17,0,0,1,70.26,84h-.58v5.57h-2.9Zm2.9,6.8a3.53,3.53,0,0,0,.48,0c1.47,0,2.12-1,2.12-2.44s-.54-2.34-1.88-2.34a2.32,2.32,0,0,0-.72.11Z"/><path class="cls-1" d="M83.73,86.13l-.66,3.41H80.25l3.25-15H87l2.91,15H87.06l-.64-3.41Zm2.43-2.26-.5-3.13c-.14-.91-.34-2.41-.49-3.4h0c-.16,1-.38,2.54-.54,3.4L84,83.87Z"/><path class="cls-1" d="M98.19,74.81a16.29,16.29,0,0,1,3.17-.29,5.79,5.79,0,0,1,4,1.11,3.84,3.84,0,0,1,1.19,3.11,4,4,0,0,1-2.31,3.74v0c1,.41,1.53,1.35,1.82,3a24.78,24.78,0,0,0,1,4.05h-3a19,19,0,0,1-.76-3.58c-.25-1.86-.73-2.38-1.69-2.38h-.44v6H98.19Zm2.89,6.53h.53a2.06,2.06,0,0,0,2-2.33c0-1.28-.5-2.18-1.8-2.22a2.08,2.08,0,0,0-.71.09Z"/><path class="cls-1" d="M115.28,74.58h2.89v6.74h.07c.24-.64.47-1.29.72-1.94l2-4.8h3.21L120.8,81.1l3.4,8.44H121l-2.18-6.19-.68,1.23v5h-2.89Z"/><path class="cls-2" d="M51.2,43.31a18.24,18.24,0,1,1,0-25.8l8.6-8.6a30.41,30.41,0,1,0,0,43l40.42-40.42-8.6-8.6Z"/><path class="cls-2" d="M72.26,17.51a18.24,18.24,0,1,1,0,25.8l-8.6,8.6a30.41,30.41,0,1,0,0-43L23.24,49.33l8.6,8.6Z"/><path class="cls-2" d="M25.4,43.31a18.24,18.24,0,0,1,25.8-25.8l8.6-8.6A30.41,30.41,0,1,0,32.32,60.22l13-12.95A18.25,18.25,0,0,1,25.4,43.31Z"/></g></g></svg>